<?xml version="1.0" encoding="UTF-8"?>
<svg width="300" height="129" version="1.1" viewBox="0 0 300 129" xmlns="http://www.w3.org/2000/svg">
 <g>
  <path d="m13.008 30.652c3.6516 1.4891 5.0493 5.35 8.0889 7.4454 2.3876 1.6459 4.678-0.2829 6.6469-1.1339 7.7241-3.3391 15.761-6.2031 23.832-8.6925 2.1476-0.6624 6.1602-0.8763 8.1155-1.8442 4.0043-1.9824-0.37878-1.8788 3.8448-1.5054 2.9711 6.2153 7.843 14.981 14.207 18.869 2.2153 1.3532 4.4441-0.746 7.1485 0.9353 1.2694 0.4315 1.0635 0.6126 2.3881-0.0097 2.5395-1.1933 0.85595-2.2925 0.83415-2.2126-0.54103 1.9854 0.49416 5.5011 3.207 5.8838 1.185 0.167 1.9537-1.3148 2.9372-1.9632 1.4135-0.9319 2.8197-1.8745 4.2537-2.7777 10.963-6.9059 22.551-12.878 33.902-19.18 1.1366-1.6572 10.577-4.6827 10.485-7.7087-0.038-1.252-0.95435-4.1144-1.9381-3.278-2.6549 2.2572-4.5646 9.5395-1.0456 10.092 4.2201 0.6624 11.349 3.1039 12.811-0.7055 1.7313-4.5096-4.3912-8.8043-7.797-12.356-1.2765-1.3311-0.11871 3.8782 1.036 5.3057 0.94189 1.1642 19.975 2.8075 22.847 3.1149 3.6236 3.7506 8.4732-12.367 10.79-7.8344 2.6054 5.096 0.13513 11.325 0.26142 16.986 0.014 0.6279 0.35378-1.3126 0.0755-1.8827-1.1324-2.3191-1.849-5.2952-4.1953-6.5546-1.2972-0.6963-0.76552 2.9619-0.12288 4.2368 0.53659 1.0643 2.1062 1.2595 3.1879 1.8432 7.6355 4.12 15.73 7.4578 23.596 11.156 0.6212 0.3162 1.1629 1.0236 1.8636 0.9486 1.0906-0.1167 2.5797-2.3391 4.06-1.9513 1.5482 0.4055 1.9706 9.5628 8.7228 7.7803 6.1077-1.6123-1.0367-7.983 2.1088-6.0855 0.81887 0.3529 4.3811 2.0619 5.4523 1.8482 6.4293-1.2828 19.868-23.683 27.511-28.6 2.4348-1.0915 3.0788-1.5392 5.7054-2.0984 11.155-2.3748 19.184 12.875 27.07 9.0458 0.39217-0.479 0.78433-0.9579 1.1765-1.4369l0.91609 3.2909c-0.64084-0.0543-1.2817-0.1085-1.9225-0.1628-12.149-1.9284-19.577-15.478-32.72-8.099-7.8502 5.0865-11.589 13.639-17.923 20.174-2.1894 2.2586-8.3253 5.6633-9.5299 8.4013-0.78954 1.7946 0.0547 5.0075 0.36235 6.749-0.13527 1.5182 0.37168 3.9119-2.4582 3.8818-3.8544-0.0411-3.3388-4.717-5.8375-6.334-0.86195-0.5579-5.1123-1.6963-6.1451-1.7518-1.2369-0.0664-5.0319 2.3575-5.9433 0.9859-0.96336-1.4499 0.10082-3.5952-0.79235-5.0847-0.34632-0.5776-1.2344-0.6301-1.8515-0.9451-3.8382-1.8053-25.243-12.888-26.861-13.026-1.4268-0.1217-2.9805 2.0874-4.0956 1.235-2.8396-2.1708-4.3288-5.6327-5.7974-8.7977-0.48661-1.0486 0.0447-4.578 0.12116-3.4347 0.3548 5.3067-2.0158 11.292 0.71474 15.938 1.8002 3.0625 11.104-12.124 2.4565-9.8412-3.4112-0.365-21.191-3.7795-22.919-3.1238-1.7658 0.6702-2.5 4.8708-4.0428 3.8164-4.6909-3.2057-11.078-8.0373-10.017-13.425 0.79112-4.0179 8.6224-1.7649 12.884-1.1339 5.6174 0.8317 1.3213 11.999 1.2396 12.154-0.41084 0.78-1.8287-0.8225-2.6997-0.542-3.179 1.0235-6.4638 8.2892-10.6 7.7594-5.7768 3.2067-38.917 19.804-41.075 23.914-2.0714 3.9457 0.97466 6.044-3.0254 9.2719-3.2137 2.5932-4.5509-5.1407-6.6119-5.9265-3.7568-2.2395-2.2338-4.933-4.4523-7.9747-1.3127-1.7998-12.874-14.709-13.8-14.785-0.62469-0.0506-1.1606 0.45-1.7409 0.675-0.7338-1.0556-1.0163-2.5541-2.1723-3.1847-2.1331-1.1635-10.397 2.5788-12.238 3.1936-5.0913 1.7006-10.15 3.5146-15.131 5.4863-10.281 4.0693-12.707 6.1248-5.2703 16.65z" display="block"/>
  <path d="m30.789 78.132c-1.2294-4.0789 0.0993-10.602-3.5574-13.812-1.5286-1.3413-7.8065 1.2727-7.9585 0.9079-1.5589-3.7405-2.6901-7.9546-1.9756-11.919 0.64689-3.5892 9.4443 2.774 12.407 1.4287 3.2954-1.704 0.30165 0.2712 2.9261-3.6225 1.0546-1.5647 2.4294-2.9101 4.6366-2.4408 7.0334 1.4953 2.5106 8.9559 3.6562 12.58 0.57955 1.8331 1.8134 1.9434 3.3794 2.5664 1.2692 0.1302 4.6883 1.9304 5.9909 1.1122 1.9323-1.2138 1.9661-7.0308 4.609-7.1425 3.6287-0.1535 3.7206 6.2998 6.4132 7.806 1.7886 1.0007 5.0743 1.2848 7.0883 1.9146 4.9588 1.1755 11.365 9.2182 16.51 5.0127 2.0809-1.7011 1.5319-4.6692 4.3145-5.4799 1.6528-0.4959 2.8055 1.2301 4.3017 1.2156 0.75082-0.0073 3.3669-2.1937 3.7254-2.4987 8.1687-6.9498 7.9747-16.009 11.58-25.153 0.49053-3.5959 4.566-5.9948 5.7854-9.1369 0.85344-2.1992-1.7213-9.962 2.9533-9.8952 4.8335 0.0691 3.8217 6.228 5.3726 8.7317 0.87126 1.4064 5.5173 3.4477 6.9555 4.4588 2.2738 1.4951 4.0996 3.4569 6.0683 5.2673 3.1318 2.88 5.5718-4.2807 8.2315-1.8262 0.20206 0.1865-2.0173 4.1416-2.1718 6.4693-0.27479 4.1408 2.7579 5.0991 5.9155 7.181 1.419 3.6702 5.511-2.6401 6.8654 0.1195 1.3901 2.8321-0.69262 2.75 1.5368 5.4205 0.19934 0.2388 13.835 9.2714 14.627 9.6247 2.0489 0.9139 3.3802-1.0266 4.7508-2.0304 1.9669-2.0254-1.2472 2.7708 0.98394 5.405 0.44975 0.5309 27.811-1.3718 28.739-2.5094 1.4601-1.791-2.8445-7.4673-4.1209-5.5543-5.9531 8.9222 4.806 7.1715 0.0815 7.788-0.48777-4.2965-4.2577-9.4746-1.4633-12.889 1.9399-2.3705 4.863 3.9326 7.693 5.2768 1.2743 0.6053 7.6891-0.5654 8.3009-0.6631 8.2506-1.3176 18.04-2.6472 24.819-7.7357 3.3028-2.4793 3.0619-7.1963 6.34-8.6801 10.532-4.4538 23.341-5.7893 29.647-16.16 2.1819-3.5879 3.1463-7.6762 5.2526-11.305l0.38259 0.453c-2.0828 3.6457-3.0705 7.7473-5.2847 11.328-6.3962 10.343-19.133 11.752-29.717 16.199-8.2681 14.64-20.483 13.621-36.183 17.176-1.1 0.2491-3.3404 0.0484-3.1843 1.1098 0.36613 2.4889 3.3038 8.6892 4.2822 6.3536 1.5282-3.6483-1.387-7.7397-2.0805-11.609-0.0772 3.8229 3.2446 7.5708 2.2368 11.273-0.61935 2.2752-5.8155-1.7208-6.8914-1.7908-2.2127-0.1442-4.307 1.0515-6.5074 1.3147-6.3434 0.759-12.818 1.0969-19.209 1.2132-1.0576 0.0192-2.3115-0.5913-3.1734-0.0103-1.2443 0.8389-3.0173 6.5337-6.5074 5.1325-0.75972-0.305-0.27768-1.5414-0.41652-2.3122 0.72741-2.0476 2.2026-4.0718 0.95452-6.2554-1.7104-2.9925-11.143-8.957-14.574-9.6021-3.5155-0.6611-1.459 1.3363-4.6908 1.3471-2.618 0.0087 0.056-7.3767-3.7186-6.8898-11.133-7.3247-5.0036-0.7376-13.923-1.349-2.6847-0.184 2.7754-8.1586 2.8738-8.9282 0.31128-2.4329-5.8464-5.2468-7.0055-6.8186-0.96252-0.6789-5.5969-4.6864-6.8975-4.4387-0.42678 0.0814-5.9908 5.3191-3.038 5.6056 1.7755 0.1723-1.2327-3.5521-2.8295-4.3078-3.6517-1.7281-6.3276 6.9614-7.6374 8.867-2.4424 6.2686-2.5796 13.589-6.3362 19.333-2.1161 3.2355-7.4234 5.693-8.96 8.8728-0.76402 1.581-0.16669 3.5523-1.109 5.1098-4.7101 7.1348-19.34-4.5264-24.573-6.2617-2.5362-0.7958-6.8341-3.009-9.2698-1.0343-1.5537 1.2597-1.4558 5.015-3.4859 4.7833-2.0725-0.2364-3.6239-5.3159-5.2556-6.3159-1.4121-0.8655-4.8235 0.3733-6.1191-1.1297-3.6296-1.4352-10.059 2.4082-12.124-1.5984-1.2174-2.3619 2.9981-2.0771 1.3469-5.5636-1.3364-2.8216-1.2262-2.3192-3.4994-1.9258-8.6955 3.9714 9.7584 19.231-0.53424-2.0385-2.7646-5.7128-2.6518 6.5033-0.59541 7.7922 4.1151 2.5794 6.9458-4.6018 7.2914-7.1142z" display="block"/>
  <path d="m22.256 97.773c5.2081-7.5749 18.839-32.899 32.069-26.448 5.169 6.5381 6.3742 15.078 10.396 22.298 0.66202 1.1883 0.78933 3.4908 2.2066 3.4466 2.0751-0.0647 6.1084-3.936 7.2536-5.5599-3.7692-5.6948-4.9849 0.1197 0.48742 4.3924 2.4411 1.906 3.5756 1.5027 5.875-0.1237 8.5396-7.974 16.077-17.598 22.159-27.421 0.22726-0.3671 1.9118-4.4804 2.0516-4.4996 1.9495-0.2673 3.1741 2.2718 4.9835 3.0096 5.9062-0.5527 12.556 3.4443 18.363 2.6229 3.1351-0.4436 2.948-4.8987 6.5206-4.5167 3.2418 0.3467 2.0689 7.0433 2.2856 8.9873-0.28227 2.3442 3.6199 2.0429 4.2333 3.4731 0.29867 0.6964-0.8464 2.7228-0.29316 4.0119 3.2064 7.4705 7.2832-4.302 8.0254-6.2203 3.9251-0.5365 8.4684-2.7857 7.9072 4.5937-1.5106 19.866-1.2676 6.2012-7.224 8.4933-0.49883 0.192 2.6292 9.8382 3.7383 10.094 0.65871 0.1522 6.0036-2.4916 6.269-1.7286 6.822 19.613-0.63399 6.3036-2.9012 14.027 8.8218 1.2866 8.3814 2.2967 0.4191-17.102-2.231-5.4356-4.5154 8.7201 0.61296 9.6523 8.9635 1.6295 24.85-2.0455 33.712-3.4893 2.8961-1.6134 23.487-2.6937 24.848-4.5105 1.1779-1.5731 0.5848-5.3624 3.3119-6.2608 4.4292-1.459 2.4037 7.8064 2.7496 8.6825 0.20824 0.5275 5.0415 1.8238 5.105 1.8426 20.098 3.9304 17.562-6.2627 27.067-16.411 2.0279-0.3956 2.3646-3.8522 3.717-4.6949 1.1536-0.719 2.8047-0.2077 4.0695-0.7325 6.6272-2.7499 17.378-7.1238 21.752-12.735l0.75434 2.3433c-5.4147-0.4298-24.537 12.868-29.982 16.319-9.5553 10.29-7.1836 20.459-27.494 16.481-4.7341-1.3966-6.8686-2.4686-10.138 2.3327-1.7415 2.5577 4.3764-7.5177-2.7383-6.2995-7.6705 1.3134-15.276 2.9571-22.957 4.2203-3.2272 0.5254-35.027 3.3336-36.012 4.4611-2.3754 2.7201-5.4204 11.152-7.239 8.0706-11.18-18.943-9.0642-17.876-0.0759-18.475 1.9356 0.8844-0.5219-0.4448-0.6147 0.8541-0.2337 3.271-1.0514 6.9289 0.57985 9.82 1.2775 2.2642 4.5791-3.6564 4.8009-6.2152 0.0225-0.259-6.1934-15.389-7.3145-15.011-7.0364 2.3768-2.8311 14.844 3.4439 9.0983-1.7207-17.839-18.374 4.3536-16.181-11.168 0.19409-1.3732-0.0632-1.6397-0.51205-2.8658-1.2199-0.8817-3.1478-0.6791-4.0482-1.2619-0.76294-0.4938 1.2621-1.4136 1.3702-2.2832 0.22141-1.7817 0.29852-4.1934-1.6372-5.3019-4.918-2.8163-13.081-0.4804-18.337-2.6206-3.1444 0.6573-2.02-0.2024-3.3477 2.6085-3.8734 0.9469 0.56866-3.7688-3.3094-1.2121-6.1223 4.0364-13.519 23.236-22.255 27.47-5.7852 4.0682-2.3363 16.624-11.004 15.725-2.4241-0.2516-4.4557-0.8667-5.4825-3.1811-0.23771-3.9397 2.2718-7.5 2.2741-11.314 6.97e-4 -1.1478-3.0141-4.8557-3.539-5.9257-2.4902-5.077-3.8892-10.526-6.205-15.658-1.143-2.533-1.0153-2.1308-2.688-4.0798-11.307-5.855-34.036 23.431-12.157 8.2503z" display="block"/>
  <path d="m27.843 2.3471c1.311 3.4234 2.2854 10.077 5.9341 12.149 0.99265 0.5635 2.229-0.5899 3.341-0.8932 7.0038-1.9098 13.934-4.0589 20.95-5.9271 3.5955-0.9573 8.107-1.1798 11.57-2.3687 6.3405-2.1768 1.3707-8.2767 9.1006-3.5631-0.32494 1.7841 1.4428 11.47-3.6887 9.8467-0.7277-0.2302-1.2944-1.5881-1.9325-1.1846-0.72836 0.4607-0.29896 1.6731-0.12628 2.4866 1.6646 7.842 17.874 24.172 24.051 30.016 2.8144 1.0509 8.8574 10.763 12.34 9.9192 5.3295-1.2909 4.1068-5.9076 9.0333-2.706 1.3409 0.7075 3.5797 1.5746 4.0399 3.1463 0.77903 2.6602-2.4882 10.129-2.9758 10.732-0.63727 0.7878-2.2548-0.6904-3.1379-0.1566-0.62343 0.3768-3.5672 25.868-3.7886 28.21 1.244 4.4734-2.805 10.838-1.2858 15.175 1.6941 4.8351 2.5157 1.7509 3.1835 6.5519 0.38835 2.7919-3.1789 4.7994-2.1778 7.359 0.38847 0.9933 3.2412 3.5642 4.2493 0.2656 1.7314-5.6653 1.6236-11.695 2.4354-17.543-11.33-9.598-8.2239 1.7438-5.4897 8.4455l-0.032 0.5794c-4.4814 7.6469-7.3044 15.735-16.771 6.7825 0.80061-5.9567 0.65367-12.098 2.4018-17.87 2.0329-6.7121 8.2676 6.4496 11.716 5.0742 0.0425-0.0169 1.2024-13.906 1.2782-15.165 0.82623-8.6676 1.8845-17.335 3.3827-25.924 0.18175-1.042 1.8364-6.8699-2.0936-6.0919-4.641 0.9188-2.3888 8.0654-1.7116 5.745-5.85-4.3036-1.1416-5.0725-2.7792-11.482-1.0962-4.2907-10.495-6.2728-12.108-10.536-8.6717-8.19-17.2-17.43-23.006-27.723-1.6561-2.9365-3.1607-5.4148-4.751-8.4821-0.48255-0.9308-1.0203-3.6294-1.5698-2.7325-1.3827 2.257-0.98374 5.1357-1.4756 7.7035 8.3477 1.8502 6.589-5.5962 3.7366-6.2991-1.7896-0.441-35.686 9.0068-35.809 9.1829-2.7754 3.9456-0.55112 9.7775-1.632 14.096z" display="block"/>
  <path d="m163.09 34.629c7.5556-1.214 6.6288 7.1447 11.54 10.087 3.9417 2.3611 15.543-9.0233 17.669-11.691 2.8671-1.9798 1.198-5.2109 2.678-7.6616 1.7428-2.8858 5.9239-0.6155 8.0722-3.3296 1.8733-2.3667 1.4743-7.8515 5.634-6.3251 2.2217 1.324 3.2298 3.8454 5.3562 5.2585 1.6772 1.1146 4.1762 1.1451 6.0686 1.7798 1.7445 0.5852 5.8481 3.4148 7.6072 3.1947 2.5065-0.3137 4.1806-3.7336 5.3748-5.4534 2.8985 0.582 3.6966 4.1267 4.9246 6.327 1.4844 2.6594 3.8626 4.4806 5.3552 7.0489 3.6458 6.2729 3.9529 14.768 5.427 21.675 0.0486 6.7874 5.1785 12.425 4.4522 18.856-0.38399 3.3998-2.8705 5.9268-2.9589 9.5733 0.32586-0.7791 0.75885 5.1325 1.8008 4.0502 1.1508-1.1954 0.77403-3.1705 1.4545-4.6545 0.73212-1.5967 1.3587 2.5514-1.3937 7.0129-3.1335 5.0794-1.1704 8.8265 4.8214 10.326 7.8778 0.3924 14.49-4.3477 21.089-7.7933l0.19105 0.5514c-6.6907 3.4944-13.385 8.2613-21.38 7.8146-7.6169-1.9059-4.2819-4.7087-7.5647-7.1365-1.5644-1.1569-3.7561 0.2801-5.3401-0.1971-1.5558-0.4688-0.63981-12.677 3.9143-12.188 3.9407-4.6295 2.3362-19.349 0.44781-25.839-0.96671-4.5187-1.9729-25.198-9.7937-25.03-3.1334 0.0674-4.1306 3.1618-6.6096 3.7323-2.5267-2.3019-2.2112-5.7634-4.3734-8.1166-0.86712-0.9438-2.398-1.0486-3.5956-1.5759-5.7513-2.532-11.268-4.3777-14.139 2.6446-1.3921 2.0972-3.6894-2.4644-5.8867-2.7697-3.6322-0.5046-3.4306 4.2082-5.7423 5.4568-4.3316 2.3395 2.5237-1.8666-3.2161 0.3458-0.42657 0.1643-2.1982 2.7125-2.3398 2.9067-2.5638 3.1943-5.3562 6.1148-8.8897 8.38-2.0507 1.3145-7.5462 2.5234-8.812 4.4833-2.2843 3.5369-4.6614 12.91 2.051 12.659z" display="block"/>
  <path d="m177.03 99.8c-0.0953 2.8848-3.4688 1.0403-1.8492 4.6874 0.84509 1.903 3.9333 6.4477 6.4514 6.5669 2.7606 0.1307 16.626-18.131 18.613-20.897 5.5268-3.2256-0.42592-9.5467 3.2015-13.304 0.38912-0.4031 7.8564-2.3343 5.8816-3.6933-1.8295-1.2589-3.7318 0.6821-1.8786 2.2332 3.865 2.7708 5.3025-1.6158 8.5612-2.7133 2.9564-0.9957 5.1902 1.6049 7.1461-1.7247 4.3482-2.4062 10.069 3.5988 13.457-2.5424 0.90896-1.6476 0.69779-3.8578 2.0808-5.2083 2.7206-1.2064 6.3134 1.0779 8.8063-0.9493 1.1275-0.9168 1.474-4.062 3.152-4.2324 2.3159-0.2353 3.2701 3.4698 4.3609 4.0426 1.4905 0.7826 8.4984-2.9953 9.6162-3.4908 8.1688-3.8767 13.984-10.406 19.708-16.922l0.32122 0.494c-5.7605 6.5553-11.64 13.098-19.863 16.987-1.1973 0.5285-8.9601 2.5289-9.6861 3.5108-1.1963 1.6179-0.20711 4.4988-1.9051 5.6449-1.8731 1.2642-5.3066-4.5853-9.11 6.5893-7.168 4.3654-5.9566-9.0513-14.25 6.6879-0.66931 1.2702-1.5602 1.8647-3.0155 2.1205-5.2171-0.2432-11.925 1.8589-12.243 7.0508-0.42557 2.7928-4.2286 7.0085-7.1426 3.5413-2.1837-2.5983 3.0512-3.8745-1.9797-7.0946-2.9786-1.9064-3.4452 1.9014-4.8674 3.4484-2.9788 4.1391-6.0213 8.2226-9.411 12.073-2.0674 2.3485-8.1645 6.199-9.3133 8.8819-1.6396 3.8292 1.2114 10.592-1.5425 14.012-3.8504 4.783-2.8692 0.2337-3.3009 2.7593z" display="block"/>
 </g>
</svg>
