<?xml version="1.0" encoding="UTF-8"?>
<svg width="300" height="32" version="1.1" viewBox="0 0 300 32" xmlns="http://www.w3.org/2000/svg">
 <path d="m10.513 1.4559h290.3" display="block" fill="none" stroke="#aeaeae" stroke-dasharray="0.594897, 1.78469" stroke-width=".5949"/>
 <path d="m10.513 29.913h290.3" display="block" fill="none" stroke="#aeaeae" stroke-dasharray="0.594897, 1.78469" stroke-width=".5949"/>
 <path d="m19.226 4.8689c5.0869-5.4229 10.288-7.0634 10.025 0.7726-0.09213 5.9106-0.93657 11.822-0.54879 17.733 0.43176 2.4124 0.39064 5.0419 3.3594 4.2217 5.2376-2.8926-6.5533 4.5145-0.97254-0.1179l5.9175-2.4131c-3.0126 2.6677-6.8258 4.1129-10.572 5.5599-3.0516 0.5684-3.1311-2.1534-3.5626-4.6341-0.40193-5.9196 0.4374-11.839 0.53746-17.758 0.24244-6.597-4.1231-3.8734 3.2185-7.2484 0.61316-0.2819-2.1596 0.9679-1.5641 1.2854z" display="block"/>
 <path d="m33.869 3.1675c5.0289-2.6743 7.8009-5.5588 10.236 0.0497 1.7264 5.2046 0.95678 10.78 0.86409 16.164 0.18099 2.744-0.65099 5.9511 0.58448 8.3293 2.5738 0.5364 5.818-1.5061-3.0016 2.2895-1.9002 0.8177 3.2227-2.6233 4.5969-4.1697l5.9098-2.4319c-3.0817 3.5224-8.2997 8.6427-13.244 7.1243-1.6173-2.2808-0.34857-5.856-0.68577-8.5462 0.08974-5.3525 0.86607-10.896-0.82344-16.075-2.2918-5.2866-7.7016-0.9293 1.4014-5.3339z" display="block"/>
 <path d="m49.513 5.594c1.0096-2.7917 8.6995-7.3762 10.789-3.8006 1.1952 4.7495 0.68858 9.6469 0.49215 14.473 0.01397 2.9594 0.08954 5.8983-0.06914 8.8524-0.97926 3.3455 4.5431 1.2493 3.9028 1.5868-8.8195 4.6491-4.8944 2.6063-2.9662 1.1296 2.3521-2.0789-0.56145 0.5451 1.5476-1.5024l5.8166-2.647c-2.0816 2.0994 0.79537-0.5767-1.5295 1.5426-2.3993 1.8915-11.857 9.0377-12.511 2.7012 0.14394-2.9542 0.10761-5.8927 0.06883-8.8529 0.1861-4.7931 0.70742-9.6476-0.44168-14.373-1.7129-2.8885-9.4391 2.5577 1.4886-3.0051 0.40672-0.207-1.2734 0.8818-0.85676 1.068z" display="block"/>
 <path d="m79.773 3.5669h13.965c3.3918 0.0526 6.7472-1.0978 10.1-0.538l-5.6878 2.9135c-3.3515-0.4316-6.6945 0.6614-10.076 0.5852h-13.965z" display="block"/>
 <path d="m79.117 8.4479c4.2925 0.9962 8.7812 0.3496 13.141 0.0215 3.2913-0.2538 6.5914-0.3486 9.8914-0.3741l-5.6626 2.9621c-3.2975 0.0312-6.5948 0.1322-9.8833 0.3897-4.3793 0.3286-8.824 0.897-13.15-0.0385z" display="block"/>
 <path d="m78.727 14.723c3.562 0.134 7.0981-0.1977 10.648-0.4274 3.88-0.2886 7.7735-0.1571 11.651-0.4405l-5.6547 2.9773c-3.8784 0.271-7.7733 0.1358-11.652 0.4388-3.5516 0.2357-7.0918 0.5395-10.656 0.4126z" display="block"/>
 <path d="m77.722 20.302h8.4411c3.8995-0.1049 7.8207 0.209 11.708-0.1684 1.4591-0.1327 2.9245-0.156 4.3885-0.177l-5.6619 2.9636c-1.461 0.0251-2.9234 0.0545-4.3789 0.1952-3.8918 0.3545-7.8167 0.0363-11.719 0.1474h-8.4411z" display="block"/>
 <path d="m121.34 5.003c-2.8642-0.364-11.774 3.1282-1.9965-0.5935 0.50987-0.194-0.94506 0.5466-1.4007 0.8466-1.4721 0.9694-2.7175 2.0912-3.9554 3.3363-5.4843 6.2108-4.6272 15.432 3.4348 18.657-2.7227 3.8121 16.453-2.642 12.96-1.2215-7.9732 3.2418-3.1883 1.2105-1.1102-0.4236l5.7919-2.7008c-6.4657 5.0842-15.132 9.4202-23.433 7.0466-8.062-3.2249-8.9191-12.446-3.4348-18.657 4.8909-4.9191 11.934-8.8027 18.936-8.991z" display="block"/>
 <path d="m142.25 3.6085c-2.7233-0.0444-9.7825 3.0733 0.19317-1.0704 0.36858-0.1531-0.69461 0.3941-1.0298 0.6108-1.4386 0.93-2.6724 2.0701-3.8664 3.2884-4.6773 4.5665-5.335 11.204-0.87766 16.1 4.3056 4.7309 10.109 4.6543 15.946 3.4814 2.3205-0.4395 8.7422-3.0279-0.95291 1.0623-1.608 0.6784 2.805-2.1352 3.8978-3.496l5.7919-2.7008c-3.5433 4.4125-9.1331 6.5104-14.529 7.8353-5.8368 1.1729-11.64 1.2495-15.946-3.4815-4.4574-4.8958-3.7996-11.533 0.87766-16.099 4.2532-4.3396 10.219-7.6532 16.287-8.2304z" display="block"/>
 <path d="m143.03 8.0156c3.6316-6.2319 15.313-8.2112 21.945-6.2059 7.8917 4.4498 7.1644 17.466 0.8188 22.963-4.6146 2.7192-9.5191 5.1497-14.768 6.2583l5.7919-2.7008c10.004-2.1131-6.1436 3.2984 3.1839-0.8568 6.3456-5.4962 7.0729-18.513-0.81879-22.963-3.0748-0.9297-6.0728-0.9715-9.231-0.3805-1.0557 0.1975-4.0535 1.3409-3.1178 0.8136 9.1175-5.1376 2.8464-1.9127 1.9876 0.3712z" display="block"/>
 <path d="m165.74 7.3185c6.2451-7.1109 20.641-9.6534 27.451-2.0885 8.0068 13.572-5.7665 22.718-17.986 24.819-1.7218 0.234-3.4009 0.0951-5.094-0.2114l5.7918-2.7008c1.6931 0.3065 3.3721 0.4454 5.094 0.2114 1.4731-0.2532 5.5353-1.9473 4.3681-1.0135-1.0762 0.861-2.4345 1.3005-3.7025 1.8405-3.442 1.4658 4.452-2.1919 6.4216-5.4997 2.6694-4.4833 1.8836-10.446-0.68444-14.744-3.2462-3.6061-7.4439-4.7604-12.243-4.4724-1.4502 0.087-5.4077 1.6054-4.3091 0.6547 1.1696-1.0121 2.745-1.4279 4.0924-2.1876 1.2611-0.7109-4.664 1.9724-3.408 2.6922z" display="block"/>
 <path d="m204.79 6.7046c3.5113-2.7111 9.0102-8.0683 12.472-3.7249 2.5822 4.4358 3.1971 9.6467 4.7368 14.495 0.71795 2.7041 2.1311 5.1333 3.3922 7.6063-0.93084 2.6612 4.2194 2.1687 3.7942 2.371-9.13 4.3448-5.1239 2.475-3.1283 1.0696 0.32179-0.2418 0.64357-0.4836 0.96536-0.7254l5.7919-2.7008c-0.32178 0.2418-0.64358 0.4836-0.96537 0.7254-3.5547 2.5035-10.319 7.8927-12.25 1.961-1.2612-2.473-2.6742-4.9022-3.3922-7.6063-1.5397-4.8486-2.1546-10.06-4.7368-14.495-0.70611-0.886-4.0822-0.9852-3.0613-1.4765 9.9596-4.7933 4.1684-2.2166 2.1732-0.2002z" display="block"/>
 <path d="m228.71 4.3941c-13.77 6.8489 1.6126-4.9758 4.4685-2.5521 3.1448 3.6062 3.3796 8.179 4.7165 12.538 1.4304 3.3108 2.7261 6.6843 4.0927 10.022 1.6987 5.6996 12.335-0.5962 1.8878 4.2353 0.24968-0.171 0.49936-0.3421 0.74904-0.5132l5.7919-2.7008c-0.24968 0.1711-0.49936 0.3422-0.74903 0.5133-3.4785 1.6322-11.145 7.0917-13.472 1.1662-1.3666-3.3379-2.6623-6.7114-4.0927-10.022-1.3369-4.3587-1.5716-8.9316-4.7165-12.538-2.3534-1.9973-2.9257-0.1843 4.0022-3.3562 0.17305-0.0792-11.413 9.3043-8.4706 5.9083z" display="block"/>
 <path d="m259.83 5.3873c2.1039-2.0986 10.452-7.2855 10.202-2.8943-1.9918 5.9246-4.9278 11.628-8.5203 16.724-1.8387 2.52-3.7021 5.1014-5.2434 7.7995 1.7254 1.1728 4.671-0.5604 6.5644-1.3426l-5.7919 2.7469c-1.8934 0.7822-4.839 2.5154-6.5644 1.3426 1.5413-2.6981 3.4047-5.2795 5.2434-7.7995 3.5925-5.0955 6.5285-10.799 8.5204-16.724 0.0496-0.8716-3.0072-0.9188-2.2353-1.3006 9.5431-4.7197 5.485-2.9735 3.6172-1.2989z" display="block"/>
 <path d="m271.31 5.4551c2.0996-2.633 7.0482-5.9631 9.4684-4.456-1.7958 7.1986-7.3824 13.179-11.148 19.46-0.87385 2.4376-5.4326 7.541-0.59849 6.0492 0.8992-0.1326 1.7277-0.4556 2.5633-0.7989l-5.678 3.0349c-0.83558 0.3432-1.6641 0.6662-2.5633 0.7989-4.8341 1.4918-0.27535-3.6117 0.5985-6.0492 3.7655-6.2813 9.3521-12.262 11.148-19.46-0.61037-0.3801-2.7652 0.329-2.137-0.0186 9.2998-5.1467 5.5186-3.6581 4.0245-1.5951z" display="block"/>
</svg>
