<?xml version="1.0" encoding="UTF-8"?>
<svg width="300" height="77" version="1.1" viewBox="0 0 300 77" xmlns="http://www.w3.org/2000/svg">
 <g>
  <text x="150" y="6" display="block" fill="#000000" font-family="'Liberation Sans',Arial,sans-serif" stroke-width="1pt" text-align="center" text-anchor="middle" style="line-height:0%" xml:space="preserve"><tspan x="150" y="6" font-size="6px" text-align="center" text-anchor="middle" style="line-height:1.1">largeur=1, augmentant…                 atteignant 47, diminuant…                      de nouveau à 0</tspan></text>
  <path d="m0 35.709c0.93168-5.0783 2.4815-14.745 9.0103-14.718 8.8402 10.555-4.0564 43.768 0.14472 55.284 4.0802-15.495 6.5039-31.801 12.562-46.851 1.7006-4.2253 2.1197-7.1023 6.5881-4.8229 2.3835 13.631 0.48512 27.84-0.40326 41.586-0.14906 2.3064 1.7545 8.1575-0.20412 6.9306-4.4169-2.767-1.9461-5.8069-0.97012-10.514 1.1857-5.9179 1.1441-6.3737 2.9045-12.326 2.5641-8.67 7.1081-28.554 19.933-24.974 2.6107 0.72887 2.7349 7.7298 2.7869 9.3104 0.10375 3.1573-0.175 7.6399-0.32235 10.757-1.5148 4.6765 1.1935 25.395-8.709 19.83-1.9518-1.0968 7.6975-31.493 8.7814-34.309 25.586-40.898 19.203 22.845 17.852 33.492-0.8106 5.0396 0.81827 6.0968-8.4831 3.4461-0.08874-0.02528 0.25394-1.9205 0.82912-5.253 1.6172-9.3699 6.8065-35.786 16.39-39.72 3.5767 0.22462 7.2348-0.11758 10.73 0.67387 3.7283 0.84422 2.2331 28.887 1.9245 32.642-0.24607 2.9936-0.6255 5.9777-0.77932 8.9775-0.06345 1.2375 1.3274 3.6403 0.09064 3.7163-11.032 0.67765-10.753 2.4661-9.4438-2.6191 3.5032-10.893 14.012-46.878 28.405-47.329 11.541-0.36217 13.54-2.4248 18.481 4.8781 3.1147 4.4288 3.9365 45.038 1.6275 45.158-15.684 0.81902-13.982 1.1015-12.262-9.8435 0.35577-1.7244 0.69023-3.4534 1.0673-5.1733 1.9785-9.0239 5.0909-20.499 11.922-27.237 1.0094-0.99561 2.2635-1.9871 3.7821-1.9491 18.753 0.46977 17.956-0.94205 19.946 14.835 0.44241 2.1185 0.34435 27.483-0.63147 27.546-4.7082 0.30101-9.4765 0.40023-14.151-0.23413-1.9924-0.27036 5.173-25.894 5.613-27.281 1.3602-8.5929 19.705-40.437 32.405-21.139 6.6908 10.167 3.2107 27.719 1.9989 38.921-1.7514 10.527 0.22573 15.659-14.688 10.814-6e-3 -0.0019 0.8377-4.26 1.5626-6.8093 3.1356-11.027 6.889-23.077 15.057-31.462 26.221-13.784 24.193 31.327 20.536 44.478-3.3743-0.13453-7.0256 0.94212-10.123-0.40358-0.21261-0.09237 0.81052-4.9919 2.0276-9.6912 2.6818-10.355 5.7492-20.793 10.248-30.524 2.2448-4.856 5.1237-11.172 9.2605-14.831 7.1798-6.3509 14.299-1.9591 16.193 5.3337 0.85683 5.409 1.1309 6.225 1.3844 11.964 0.40288 9.1214 0.32083 18.425-0.16215 27.542-0.19934 3.763-0.58245 5.5428-0.48515 9.0757 0.016 0.58094 0.7539 1.959 0.21995 1.7296-2.1158-0.90919-5.0732-1.8013-5.6025-4.0425-0.67299-2.85 12.445-27.718 14.527-31.722 2.0579-3.5582 4.0664-7.5155 6.8146-10.656 3.5598-4.0674 12.733-6.4653 14.43 0.71311 3.3593 14.211-0.30167 31.172-2 45.453-0.48484 2.491-0.19066 3.5457-5.2962 1.1522-1.0191-0.47775 1.3405-10.519 1.3723-10.67 1.7628-8.3628 9.5819-38.515 18.927-41.057 1.5901 0.3136 3.3749 0.1164 4.7704 0.94079 2.2551 1.3323-1.1673 30.392-1.6167 34.351-0.211 1.8589-0.46108 6.5868-0.94295 6.7578-3.2822 1.1646-2.0902-0.64996-1.6869-1.8458 4.0833-13.812 6.7066-30.096 16.16-41.567 4.6063-5.5898 6.2742 0.26376 6.4245 4.6643 2.1851 11.71-4.2902 25.935-2.3988 37.33 0.0918 0.5528 0.51341-1.0007 0.69402-1.5311 1.234-3.6242 2.5456-7.1831 3.9555-10.745 2.9472-4.3811 9.3806-25.422 10.479-8.3781-1.0984-17.044-7.5318 3.997-10.479 8.3781-1.4099 3.5617-2.7215 7.1205-3.9555 10.745-0.18061 0.53045-0.60226 2.0839-0.69402 1.5311-1.8176-10.95 3.7389-25.953 1.7312-37.33-0.26168-2.0911-0.5762-6.8798-1.2147-7.073-2.0264-0.61328-4.8348 4.7129-5.3455 5.5634-7.0055 11.669-10.204 25.33-13.354 38.413-0.20027 1.5586 0.16187 2.8465-2.6524 1.8458-1.0603-0.377 0.11912-2.2479 0.21706-3.369 0.93531-10.705 2.6897-21.446 2.1924-32.227-0.16081-3.4863-2.787-5.5055 1.3882-6.4535-8.841 2.405-16.806 33.017-18.259 41.057-0.46826 2.5916-0.79593 10.549-1.0385 10.67-5.6404 2.8002-4.813 1.0528-4.3839-1.1522 1.5688-13.192 3.2509-27.488 1.8854-40.738-0.16395-1.5909-0.45619-3.175-0.88677-4.7152-0.29393-1.0514-1.9036-2.1245-1.2748-3.017 0.83273-1.1819 2.7677-0.86172 4.1901-1.1206 0.80915-0.14725-1.6612 0.31875-2.3395 0.7838-4.4798 3.0713-6.6171 9.0158-9.4701 13.296-2.1578 4.5361-11.629 29.999-13.526 31.722-2.5283 2.2977-6.0963 3.2453-9.4184 4.0425-1.743 0.41827-0.17793-3.5832-0.14804-5.3754 0.24981-14.979 1.1806-30.1-1.4766-44.936-1.4808-4.3365-7.0569-9.6136 3.5199-6.8527 0.59955 0.15651-1.2822-0.67655-5.2258 4.9178-2.7089 3.8428-4.1499 7.0805-6.056 11.432-4.3066 9.8315-7.7205 20.012-9.9142 30.524-0.41257 1.977-0.73829 3.9712-1.086 5.9606-0.21691 1.2411 0.56471 3.2694-0.60779 3.7305-3.0751 1.2093-6.6033 0.26905-9.9049 0.40358 3.1124-11.191 1.2817-26.437-1.6547-37.429-0.67549-2.5286-1.3157-4.5021-2.981-6.5188-0.4798-0.58106-2.4686-1.2973-1.7314-1.4536 15.536-3.2933 10.908-1.0301 7.5279 0.92353-8.0126 8.2263-11.686 20.566-14.389 31.462-0.33836 1.3638-0.68336 2.7261-0.99765 4.0956-0.20665 0.90055 0.32264 2.457-0.56495 2.7137-17.563 5.0786-11.799-0.30741-10.68-10.814 1.0985-10.155 1.8463-20.686-8e-3 -30.798-0.43494-2.372-1.1329-6.0109-2.6585-8.1226-0.55121-0.76297-3.1043-1.6185-2.1798-1.7951 3.7969-0.72498 7.8095-0.77788 11.597-3e-3 1.0707 0.21908-1.9325 1.0689-2.7287 1.8175-5.8904 5.5385-8.3848 13.912-11.388 21.119-1.9141 6.0342-3.6216 11.967-4.6856 18.217-0.36647 2.1525-0.75972 5.1132-0.90764 7.3809-0.0365 0.56 0.53613 1.6068-0.0198 1.6834-4.5864 0.63239-9.268 0.54414-13.887 0.23413-0.38939-0.02613 0.15962-0.76491 0.208-1.1522 0.20553-1.6451 0.41555-4.598 0.50491-6.0806 0.40764-6.7633 0.51885-13.556-0.0814-20.313-2.0609-16.343-10.308-14.049 8.427-14.835 0.31563-0.01323-2.9073-0.0051-6.3382 4.6245-6.384 8.6146-9.1914 19.431-11.435 29.735-1.6953 10.783 1.5722 10.724-14.108 9.8435-0.3764-0.02113 0.21613-0.72278 0.30279-1.0897 0.68173-2.8861 0.62679-2.8337 0.95886-6.2024 1.2351-12.529 2.2484-25.776-1.8878-37.866-2.9898-5.3178-9.3528-6.1502 5.219-4.8781 1.0088 0.08807-1.9918 0.44667-2.909 0.87607-2.6645 1.2475-4.6626 3.0054-6.6486 5.16-10.506 11.398-15.285 26.841-19.849 41.293-2.1466 5.1742-0.59372 3.2392-11.585 2.6191-0.21664-0.01222 1.8771-22.305 2.005-24.42 0.30508-5.0443 0.52747-10.541-0.19529-15.571-0.16206-1.1277-0.42528-2.2509-0.83224-3.315-0.28152-0.73614-1.9382-1.7242-1.2119-2.0302 2.3525-0.99134 5.0859-0.44925 7.6288-0.67387-9.3093 3.8215-14.089 26.213-16.252 35.056-0.64152 2.6231-1.8417 9.8827-1.9687 9.9169-10.392 2.7986-7.8449 1.4763-7.2053-3.4461 1.3451-10.6 3.084-21.335 2.768-32.056-0.0802-2.7207-0.44748-5.8591-1.2774-8.4949-0.27367-0.86914-1.785-1.8829-1.112-2.4972 1.2677-1.1571 3.3547-0.72826 5.0341-1.0827 0.65969-0.13921-1.3858 0.10905-1.9749 0.43709-3.7545 2.0909-5.3272 6.7182-7.2706 10.202-4.0623 9.1542-6.8328 18.644-8.6925 28.489-0.36308 1.9222 0.97409 4.9078-0.75656 5.8197-1.6256 0.85657-3.6224 0.72816-5.4595 0.76138-0.23831 0.0043 0.19837-0.43625 0.25689-0.6673 0.43434-1.7147 0.82311-3.4419 1.1556-5.1793 0.93272-4.8736 1.4548-9.8266 2.0746-14.745 0.54288-5.0657 1.0196-10.012 0.28448-15.094-0.15544-1.0744-0.29634-2.1758-0.71548-3.1772-0.29037-0.69376-1.7306-1.138-1.3659-1.7958 0.41166-0.74256 2.3868-1.1394 2.5291-0.30239 0.14969 0.88031-1.6764 0.68807-2.3673 1.2537-0.93993 0.76949-1.7261 1.7216-2.4544 2.6937-7.2923 9.7336-9.7684 22.188-12.867 33.654-1.0781 5.2002-0.22252 8.2703-5.372 10.514-2.1242 0.92573 0.30626-4.625 0.53791-6.9306 1.3827-13.762 2.9264-27.789 1.4046-41.586 2.3494-3.5027-1.5487 0.92918-1.6898 1.1719-1.8202 3.1308-2.5539 5.0796-3.8019 8.6166-3.5877 10.168-6.046 20.605-8.5939 31.065-0.76152 3.1262-0.98424 9.0936-4.0626 10.821-4.2012-11.516 8.6955-44.729-0.14474-55.284-5.3977 2.0987-7.1556 9.4423-8.0089 14.718z" display="block"/>
 </g>
</svg>
