<?xml version="1.0" encoding="UTF-8"?>
<svg width="300" height="130" version="1.1" viewBox="0 0 300 130" xmlns="http://www.w3.org/2000/svg">
 <defs>
  <marker id="a" overflow="visible" orient="auto">
   <path transform="scale(-.8)" d="m5.77 0-8.65 5v-10z" fill-rule="evenodd" stroke="#000" stroke-width="1pt"/>
  </marker>
 </defs>
 <text x="50" y="6" display="block" fill="#000000" font-family="'Liberation Sans',Arial,sans-serif" font-size="6px" stroke-width="1pt" text-align="center" text-anchor="middle" style="line-height:0%" xml:space="preserve"><tspan x="50" y="6" text-align="center" style="line-height:1.1">angle = 30°</tspan><tspan x="50" y="13.258548" text-align="center" style="line-height:1.1">fixité = 100</tspan></text>
 <text x="150" y="6" display="block" fill="#000000" font-family="'Liberation Sans',Arial,sans-serif" font-size="6px" stroke-width="1pt" text-align="center" text-anchor="middle" style="line-height:0%" xml:space="preserve"><tspan x="150" y="6" text-align="center" style="line-height:1.1">angle = 30°</tspan><tspan x="150" y="13.258548" text-align="center" style="line-height:1.1">fixité = 80</tspan></text>
 <text x="250" y="6" display="block" fill="#000000" font-family="'Liberation Sans',Arial,sans-serif" font-size="6px" stroke-width="1pt" text-align="center" text-anchor="middle" style="line-height:0%" xml:space="preserve"><tspan x="250" y="6" text-align="center" style="line-height:1.1">angle = 30°</tspan><tspan x="250" y="13.258548" text-align="center" style="line-height:1.1">fixité = 0</tspan></text>
 <path d="m210.88 69.663c-3.4328-6.1357-2.8196-13.35-0.60994-19.796 4.0117-9.5698 12.535-16.2 22.15-19.527 9.2634-2.9767 18.972-2.3206 28.347-0.2788 11.242 2.8228 19.585 11.48 22.965 22.414 2.3676 12.142 2.2483 25.092-0.77583 37.116-2.9592 10.261-9.5973 19.688-19.096 24.829-9.72 4.6684-21.097 4.1027-30.084-1.9156-10.025-7.655-14.835-18.243-15.776-30.576-0.56356-11.353 5.7755-20.748 15.722-25.636 11.764-5.5638 23.897-2.2126 31.839 7.8746 6.8736 10.553 4.855 24.51-4.3758 32.895-5.1599 4.2266-11.128 5.0237-17.296 2.8026l2.7865-7.126c3.3128 1.5361 6.5934 0.8091 9.4315-1.3989 6.4129-5.4841 7.7658-15.324 3.3958-22.5-5.5436-7.4155-14.033-9.612-22.424-5.6736-7.1504 3.4653-11.822 9.9659-11.449 18.187 0.74566 10.05 4.3324 18.46 12.464 24.832 6.4985 4.5776 15.047 4.7543 22.156 1.4894 7.6398-4.029 12.868-11.847 15.291-19.964 2.7406-10.682 2.7512-22.194 0.87072-33.015-2.4599-8.3089-8.8101-14.963-17.285-17.161-7.9913-1.7711-16.288-2.4386-24.213 0.037-7.4045 2.5368-14.16 7.5001-17.417 14.809-1.4792 4.1631-2.0668 9.223-0.24988 13.037z" display="block" fill="#cbcbcb"/>
 <path d="m11.389 65.761c-3.0086-10.389 3.1142-21.31 11.129-27.602 16.202-11.212 36.073-15.13 52.851-3.2193 13.739 11.479 21.933 29.307 22.07 47.188-0.90491 16.803-17.181 27.631-31.897 32.398-12.429 2.5114-28.614 0.5112-36.966-9.9982-7.7323-12.113-0.56585-25.624 8.2562-34.877 10.487-10.422 22.548-13.267 34.841-5.2797 8.181 6.27 9.589 15.534 2.904 23.326-6.6548 6.029-20.559 14.877-27.766 5.0492-1.2077-1.7422-1.2716-3.4213-0.91025-5.4314l6.626-3.8248c-0.36134 2.0058-0.29745 3.6868 0.91024 5.4296 3.1023 4.2327 7.3247 5.3126 12.375 3.8571 1.3622-0.3913 5.1385-2.3364 3.9591-1.5521-1.5463 1.0307-3.161 1.9687-4.8272 2.7917-1.1677 0.5755 4.2612-2.8154 3.0076-2.4945 6.685-7.7909 5.2769-17.056-2.904-23.326-4.3486-2.8248-9.4899-5.1786-14.797-5.0957-2.013 0.0324-7.4818 2.5253-5.9037 1.2756 1.4551-1.1509 3.1557-1.9544 4.7476-2.9108 2.0366-1.2222-7.9672 4.8073-5.6352 4.3589-8.822 9.2524-15.988 22.766-8.2562 34.879 8.3524 10.506 24.537 12.509 36.966 9.9968 1.8093-0.5863 6.715-3.3229 5.3393-2.0103-1.1235 1.0719-2.6322 1.6531-3.9866 2.4126-1.778 0.9966 3.4587-2.1718 5.0762-3.4127 7.0539-5.4129 12.028-12.609 12.216-21.735-0.13715-17.883-8.3316-35.711-22.07-47.19-7.3064-5.1851-14.715-7.7882-23.758-7.3757-3.5004 0.1577-7.0467 0.6272-10.453 1.4587-2.1794 0.5311-7.3984 4.1446-6.3771 2.149 0.04023-0.0804 8.2474-5.2184 0.98925-0.6656-8.0152 6.2922-14.138 17.212-11.129 27.605z" display="block" fill="#cbcbcb"/>
 <path d="m110.84 55.575c0.0999-7.9293 4.4796-14.884 10.089-20.162 14.872-12.803 31.288-11.471 47.091-2.0261 15.964 10.214 26.087 29.325 22.803 48.339-5.0069 18.468-23.939 31.851-42.466 34.337-14.597 0.8649-26.992-12.792-28.901-26.625 9e-3 -16.139 14.934-29.526 30.29-31.885 13.66-0.5646 25.645 8.6483 24.078 22.885-4.4919 15.177-22.312 20.573-34.768 11.488-0.50789-0.5142-1.0158-1.0257-1.5237-1.5399l6.4121-4.1751c0.46173 0.4442 0.92368 0.8915 1.3854 1.3358 2.6937 1.8611 5.563 3.4197 8.8048 4.1087 4.0289 0.8564 7.4525-1.0472 6.8688-0.3872-1.0739 1.2173-2.8075 1.6474-4.0792 2.6567-3.7496 2.9685 14.529-10.097 9.8314-10.56 2.0739-13.368-9.8699-21.765-22.504-20.488-3.552 0.7707-17.142 5.8618-17.885 23.275 1.4858 13.262 13.66 26.115 27.519 24.62 12.78-2.2089 23.079-7.5155 29.839-26.194 3.6804-18.385-6.3974-36.974-21.902-46.706-6.8908-4.0281-14.082-7.3909-22.258-7.0127-2.7976 0.1277-5.6388 0.6182-8.3084 1.4707-0.84075 0.2669-3.0828 1.5694-2.4789 0.9275 1.0624-1.1334 2.686-1.5688 3.9395-2.4835 1.3892-1.0154-5.9086 3.4258-4.3751 2.7354-5.6813 4.8927-10.02 11.291-10.51 18.953z" display="block" fill="#cbcbcb"/>
 <path transform="matrix(-.062189 -.93098 -.93098 .062189 1532.9 59.391)" d="m144.5 1564.1a36.462 36.462 0 0 1 2.1215 25.404" color="#000000" display="block" fill="none" marker-start="url(#a)" stroke="#000" stroke-width=".375"/>
 <path transform="matrix(-.41163 .83734 .83734 .41163 -1225.7 -653.03)" d="m144.5 1564.1a36.462 36.462 0 0 1 2.1215 25.404" color="#000000" display="block" fill="none" marker-start="url(#a)" stroke="#000" stroke-width=".375"/>
 <path transform="matrix(-.062189 -.93098 -.93098 .062189 1627.6 57.761)" d="m144.5 1564.1a36.462 36.462 0 0 1 2.1215 25.404" color="#000000" display="block" fill="none" marker-start="url(#a)" stroke="#000" stroke-width=".375"/>
 <path transform="matrix(-.41163 .83734 .83734 .41163 -1127.1 -651)" d="m144.5 1564.1a36.462 36.462 0 0 1 2.1215 25.404" color="#000000" display="block" fill="none" marker-start="url(#a)" stroke="#000" stroke-width=".375"/>
 <path transform="matrix(-.062189 -.93098 -.93098 .062189 1727.6 56.842)" d="m144.5 1564.1a36.462 36.462 0 0 1 2.1215 25.404" color="#000000" display="block" fill="none" marker-start="url(#a)" stroke="#000" stroke-width=".375"/>
 <path transform="matrix(-.41163 .83734 .83734 .41163 -1024.4 -648.5)" d="m144.5 1564.1a36.462 36.462 0 0 1 2.1215 25.404" color="#000000" display="block" fill="none" marker-start="url(#a)" stroke="#000" stroke-width=".375"/>
 <g transform="matrix(.22117 -.12769 .097624 .16909 -165.25 -176.71)" display="block">
  <path d="m139.04 1527.7h14.519s-0.0189 51.9 15.338 51.9c-8.7409 47.256-10.022 36.942-10.841 46.776-8.7732 5.3489-16.354 6.3692-19.732 5.9823" fill="#fff" fill-rule="evenodd"/>
  <path d="m140.95 1527.7h-14.519s0.019 51.9-15.338 51.9c8.741 47.256 10.022 36.942 10.841 46.776 8.7733 5.3489 16.354 6.3692 19.732 5.9823" fill="#fff" fill-rule="evenodd"/>
  <path d="m140.95 1527.3h-14.519s0.019 51.9-15.338 51.9c8.741 47.256 10.022 36.942 10.841 46.776 10.615-5.0767 18.564-6.1416 19.383 3.692" fill="#fff" fill-rule="evenodd"/>
  <path d="m140.95 1527.3h-14.519s0.019 51.9-15.338 51.9c8.741 47.256 9.5604 38.788 10.38 48.622" fill="none" stroke="#000" stroke-linejoin="round" stroke-width="3.325"/>
  <path d="m138.59 1527.3h14.519s-0.019 51.9 15.338 51.9c-8.741 47.256-9.5604 38.788-10.38 48.622" fill="none" stroke="#000" stroke-linejoin="round" stroke-width="3.325"/>
  <path d="m140.13 1527.6v52.936" fill="none" stroke="#000" stroke-width="3.325"/>
  <path transform="matrix(1.066 .050345 -.034293 .72608 40.018 415.84)" d="m155.15 1610.6c0 10.409-4.2192 18.848-9.4239 18.848-5.2047 0-9.4239-8.4384-9.4239-18.848 0-10.409 4.2192-18.848 9.4239-18.848 5.2047 0 9.4239 8.4384 9.4239 18.848z" color="#000000" display="block"/>
 </g>
 <g transform="matrix(.22117 -.12769 .097624 .16909 -151.66 -205.1)" display="block">
  <path d="m139.04 1527.7h14.519s-0.0189 51.9 15.338 51.9c-8.7409 47.256-10.022 36.942-10.841 46.776-8.7732 5.3489-16.354 6.3692-19.732 5.9823" fill="#fff" fill-rule="evenodd"/>
  <path d="m140.95 1527.7h-14.519s0.019 51.9-15.338 51.9c8.741 47.256 10.022 36.942 10.841 46.776 8.7733 5.3489 16.354 6.3692 19.732 5.9823" fill="#fff" fill-rule="evenodd"/>
  <path d="m140.95 1527.3h-14.519s0.019 51.9-15.338 51.9c8.741 47.256 10.022 36.942 10.841 46.776 10.615-5.0767 18.564-6.1416 19.383 3.692" fill="#fff" fill-rule="evenodd"/>
  <path d="m140.95 1527.3h-14.519s0.019 51.9-15.338 51.9c8.741 47.256 9.5604 38.788 10.38 48.622" fill="none" stroke="#000" stroke-linejoin="round" stroke-width="3.325"/>
  <path d="m138.59 1527.3h14.519s-0.019 51.9 15.338 51.9c-8.741 47.256-9.5604 38.788-10.38 48.622" fill="none" stroke="#000" stroke-linejoin="round" stroke-width="3.325"/>
  <path d="m140.13 1527.6v52.936" fill="none" stroke="#000" stroke-width="3.325"/>
  <path transform="matrix(1.066 .050345 -.034293 .72608 40.018 415.84)" d="m155.15 1610.6c0 10.409-4.2192 18.848-9.4239 18.848-5.2047 0-9.4239-8.4384-9.4239-18.848 0-10.409 4.2192-18.848 9.4239-18.848 5.2047 0 9.4239 8.4384 9.4239 18.848z" color="#000000" display="block"/>
 </g>
 <g transform="matrix(.22117 -.12769 .097624 .16909 -99.534 -194.96)" display="block">
  <path d="m139.04 1527.7h14.519s-0.0189 51.9 15.338 51.9c-8.7409 47.256-10.022 36.942-10.841 46.776-8.7732 5.3489-16.354 6.3692-19.732 5.9823" fill="#fff" fill-rule="evenodd"/>
  <path d="m140.95 1527.7h-14.519s0.019 51.9-15.338 51.9c8.741 47.256 10.022 36.942 10.841 46.776 8.7733 5.3489 16.354 6.3692 19.732 5.9823" fill="#fff" fill-rule="evenodd"/>
  <path d="m140.95 1527.3h-14.519s0.019 51.9-15.338 51.9c8.741 47.256 10.022 36.942 10.841 46.776 10.615-5.0767 18.564-6.1416 19.383 3.692" fill="#fff" fill-rule="evenodd"/>
  <path d="m140.95 1527.3h-14.519s0.019 51.9-15.338 51.9c8.741 47.256 9.5604 38.788 10.38 48.622" fill="none" stroke="#000" stroke-linejoin="round" stroke-width="3.325"/>
  <path d="m138.59 1527.3h14.519s-0.019 51.9 15.338 51.9c-8.741 47.256-9.5604 38.788-10.38 48.622" fill="none" stroke="#000" stroke-linejoin="round" stroke-width="3.325"/>
  <path d="m140.13 1527.6v52.936" fill="none" stroke="#000" stroke-width="3.325"/>
  <path transform="matrix(1.066 .050345 -.034293 .72608 40.018 415.84)" d="m155.15 1610.6c0 10.409-4.2192 18.848-9.4239 18.848-5.2047 0-9.4239-8.4384-9.4239-18.848 0-10.409 4.2192-18.848 9.4239-18.848 5.2047 0 9.4239 8.4384 9.4239 18.848z" color="#000000" display="block"/>
 </g>
 <g transform="matrix(.22117 -.12769 .097624 .16909 -103.79 -130.46)" display="block">
  <path d="m139.04 1527.7h14.519s-0.0189 51.9 15.338 51.9c-8.7409 47.256-10.022 36.942-10.841 46.776-8.7732 5.3489-16.354 6.3692-19.732 5.9823" fill="#fff" fill-rule="evenodd"/>
  <path d="m140.95 1527.7h-14.519s0.019 51.9-15.338 51.9c8.741 47.256 10.022 36.942 10.841 46.776 8.7733 5.3489 16.354 6.3692 19.732 5.9823" fill="#fff" fill-rule="evenodd"/>
  <path d="m140.95 1527.3h-14.519s0.019 51.9-15.338 51.9c8.741 47.256 10.022 36.942 10.841 46.776 10.615-5.0767 18.564-6.1416 19.383 3.692" fill="#fff" fill-rule="evenodd"/>
  <path d="m140.95 1527.3h-14.519s0.019 51.9-15.338 51.9c8.741 47.256 9.5604 38.788 10.38 48.622" fill="none" stroke="#000" stroke-linejoin="round" stroke-width="3.325"/>
  <path d="m138.59 1527.3h14.519s-0.019 51.9 15.338 51.9c-8.741 47.256-9.5604 38.788-10.38 48.622" fill="none" stroke="#000" stroke-linejoin="round" stroke-width="3.325"/>
  <path d="m140.13 1527.6v52.936" fill="none" stroke="#000" stroke-width="3.325"/>
  <ellipse transform="matrix(1.066 .050345 -.034293 .72608 40.018 415.84)" cx="145.73" cy="1610.6" rx="9.4239" ry="18.848" color="#000000" display="block"/>
 </g>
 <g transform="matrix(.22117 -.12769 .097624 .16909 -134.93 -176.3)" display="block">
  <path d="m139.04 1527.7h14.519s-0.0189 51.9 15.338 51.9c-8.7409 47.256-10.022 36.942-10.841 46.776-8.7732 5.3489-16.354 6.3692-19.732 5.9823" fill="#fff" fill-rule="evenodd"/>
  <path d="m140.95 1527.7h-14.519s0.019 51.9-15.338 51.9c8.741 47.256 10.022 36.942 10.841 46.776 8.7733 5.3489 16.354 6.3692 19.732 5.9823" fill="#fff" fill-rule="evenodd"/>
  <path d="m140.95 1527.3h-14.519s0.019 51.9-15.338 51.9c8.741 47.256 10.022 36.942 10.841 46.776 10.615-5.0767 18.564-6.1416 19.383 3.692" fill="#fff" fill-rule="evenodd"/>
  <path d="m140.95 1527.3h-14.519s0.019 51.9-15.338 51.9c8.741 47.256 9.5604 38.788 10.38 48.622" fill="none" stroke="#000" stroke-linejoin="round" stroke-width="3.325"/>
  <path d="m138.59 1527.3h14.519s-0.019 51.9 15.338 51.9c-8.741 47.256-9.5604 38.788-10.38 48.622" fill="none" stroke="#000" stroke-linejoin="round" stroke-width="3.325"/>
  <path d="m140.13 1527.6v52.936" fill="none" stroke="#000" stroke-width="3.325"/>
  <path transform="matrix(1.066 .050345 -.034293 .72608 40.018 415.84)" d="m155.15 1610.6c0 10.409-4.2192 18.848-9.4239 18.848-5.2047 0-9.4239-8.4384-9.4239-18.848 0-10.409 4.2192-18.848 9.4239-18.848 5.2047 0 9.4239 8.4384 9.4239 18.848z" color="#000000" display="block"/>
 </g>
 <g transform="matrix(.23554 -.098701 .075459 .18008 -33.851 -207.1)" display="block">
  <path d="m139.04 1527.7h14.519s-0.0189 51.9 15.338 51.9c-8.7409 47.256-10.022 36.942-10.841 46.776-8.7732 5.3489-16.354 6.3692-19.732 5.9823" fill="#fff" fill-rule="evenodd"/>
  <path d="m140.95 1527.7h-14.519s0.019 51.9-15.338 51.9c8.741 47.256 10.022 36.942 10.841 46.776 8.7733 5.3489 16.354 6.3692 19.732 5.9823" fill="#fff" fill-rule="evenodd"/>
  <path d="m140.95 1527.3h-14.519s0.019 51.9-15.338 51.9c8.741 47.256 10.022 36.942 10.841 46.776 10.615-5.0767 18.564-6.1416 19.383 3.692" fill="#fff" fill-rule="evenodd"/>
  <path d="m140.95 1527.3h-14.519s0.019 51.9-15.338 51.9c8.741 47.256 9.5604 38.788 10.38 48.622" fill="none" stroke="#000" stroke-linejoin="round" stroke-width="3.325"/>
  <path d="m138.59 1527.3h14.519s-0.019 51.9 15.338 51.9c-8.741 47.256-9.5604 38.788-10.38 48.622" fill="none" stroke="#000" stroke-linejoin="round" stroke-width="3.325"/>
  <path d="m140.13 1527.6v52.936" fill="none" stroke="#000" stroke-width="3.325"/>
  <path transform="matrix(1.066 .050345 -.034293 .72608 40.018 415.84)" d="m155.15 1610.6c0 10.409-4.2192 18.848-9.4239 18.848-5.2047 0-9.4239-8.4384-9.4239-18.848 0-10.409 4.2192-18.848 9.4239-18.848 5.2047 0 9.4239 8.4384 9.4239 18.848z" color="#000000" display="block"/>
 </g>
 <g transform="matrix(.12769 -.22117 .16909 .097625 -148.99 -85.067)" display="block">
  <path d="m139.04 1527.7h14.519s-0.0189 51.9 15.338 51.9c-8.7409 47.256-10.022 36.942-10.841 46.776-8.7732 5.3489-16.354 6.3692-19.732 5.9823" fill="#fff" fill-rule="evenodd"/>
  <path d="m140.95 1527.7h-14.519s0.019 51.9-15.338 51.9c8.741 47.256 10.022 36.942 10.841 46.776 8.7733 5.3489 16.354 6.3692 19.732 5.9823" fill="#fff" fill-rule="evenodd"/>
  <path d="m140.95 1527.3h-14.519s0.019 51.9-15.338 51.9c8.741 47.256 10.022 36.942 10.841 46.776 10.615-5.0767 18.564-6.1416 19.383 3.692" fill="#fff" fill-rule="evenodd"/>
  <path d="m140.95 1527.3h-14.519s0.019 51.9-15.338 51.9c8.741 47.256 9.5604 38.788 10.38 48.622" fill="none" stroke="#000" stroke-linejoin="round" stroke-width="3.325"/>
  <path d="m138.59 1527.3h14.519s-0.019 51.9 15.338 51.9c-8.741 47.256-9.5604 38.788-10.38 48.622" fill="none" stroke="#000" stroke-linejoin="round" stroke-width="3.325"/>
  <path d="m140.13 1527.6v52.936" fill="none" stroke="#000" stroke-width="3.325"/>
  <path transform="matrix(1.066 .050345 -.034293 .72608 40.018 415.84)" d="m155.15 1610.6c0 10.409-4.2192 18.848-9.4239 18.848-5.2047 0-9.4239-8.4384-9.4239-18.848 0-10.409 4.2192-18.848 9.4239-18.848 5.2047 0 9.4239 8.4384 9.4239 18.848z" color="#000000" display="block"/>
 </g>
 <g transform="matrix(.18058 -.18058 .13806 .13806 -61.028 -141.12)" display="block">
  <path d="m139.04 1527.7h14.519s-0.0189 51.9 15.338 51.9c-8.7409 47.256-10.022 36.942-10.841 46.776-8.7732 5.3489-16.354 6.3692-19.732 5.9823" fill="#fff" fill-rule="evenodd"/>
  <path d="m140.95 1527.7h-14.519s0.019 51.9-15.338 51.9c8.741 47.256 10.022 36.942 10.841 46.776 8.7733 5.3489 16.354 6.3692 19.732 5.9823" fill="#fff" fill-rule="evenodd"/>
  <path d="m140.95 1527.3h-14.519s0.019 51.9-15.338 51.9c8.741 47.256 10.022 36.942 10.841 46.776 10.615-5.0767 18.564-6.1416 19.383 3.692" fill="#fff" fill-rule="evenodd"/>
  <path d="m140.95 1527.3h-14.519s0.019 51.9-15.338 51.9c8.741 47.256 9.5604 38.788 10.38 48.622" fill="none" stroke="#000" stroke-linejoin="round" stroke-width="3.325"/>
  <path d="m138.59 1527.3h14.519s-0.019 51.9 15.338 51.9c-8.741 47.256-9.5604 38.788-10.38 48.622" fill="none" stroke="#000" stroke-linejoin="round" stroke-width="3.325"/>
  <path d="m140.13 1527.6v52.936" fill="none" stroke="#000" stroke-width="3.325"/>
  <path transform="matrix(1.066 .050345 -.034293 .72608 40.018 415.84)" d="m155.15 1610.6c0 10.409-4.2192 18.848-9.4239 18.848-5.2047 0-9.4239-8.4384-9.4239-18.848 0-10.409 4.2192-18.848 9.4239-18.848 5.2047 0 9.4239 8.4384 9.4239 18.848z" color="#000000" display="block"/>
 </g>
 <g transform="matrix(.24225 -.080853 .061817 .1852 47.663 -169.93)" display="block">
  <path d="m139.04 1527.7h14.519s-0.0189 51.9 15.338 51.9c-8.7409 47.256-10.022 36.942-10.841 46.776-8.7732 5.3489-16.354 6.3692-19.732 5.9823" fill="#fff" fill-rule="evenodd"/>
  <path d="m140.95 1527.7h-14.519s0.019 51.9-15.338 51.9c8.741 47.256 10.022 36.942 10.841 46.776 8.7733 5.3489 16.354 6.3692 19.732 5.9823" fill="#fff" fill-rule="evenodd"/>
  <path d="m140.95 1527.3h-14.519s0.019 51.9-15.338 51.9c8.741 47.256 10.022 36.942 10.841 46.776 10.615-5.0767 18.564-6.1416 19.383 3.692" fill="#fff" fill-rule="evenodd"/>
  <path d="m140.95 1527.3h-14.519s0.019 51.9-15.338 51.9c8.741 47.256 9.5604 38.788 10.38 48.622" fill="none" stroke="#000" stroke-linejoin="round" stroke-width="3.325"/>
  <path d="m138.59 1527.3h14.519s-0.019 51.9 15.338 51.9c-8.741 47.256-9.5604 38.788-10.38 48.622" fill="none" stroke="#000" stroke-linejoin="round" stroke-width="3.325"/>
  <path d="m140.13 1527.6v52.936" fill="none" stroke="#000" stroke-width="3.325"/>
  <path transform="matrix(1.066 .050345 -.034293 .72608 40.018 415.84)" d="m155.15 1610.6c0 10.409-4.2192 18.848-9.4239 18.848-5.2047 0-9.4239-8.4384-9.4239-18.848 0-10.409 4.2192-18.848 9.4239-18.848 5.2047 0 9.4239 8.4384 9.4239 18.848z" color="#000000" display="block"/>
 </g>
 <g transform="matrix(.21307 -.1408 .10764 .1629 -66.985 -129.52)" display="block">
  <path d="m139.04 1527.7h14.519s-0.0189 51.9 15.338 51.9c-8.7409 47.256-10.022 36.942-10.841 46.776-8.7732 5.3489-16.354 6.3692-19.732 5.9823" fill="#fff" fill-rule="evenodd"/>
  <path d="m140.95 1527.7h-14.519s0.019 51.9-15.338 51.9c8.741 47.256 10.022 36.942 10.841 46.776 8.7733 5.3489 16.354 6.3692 19.732 5.9823" fill="#fff" fill-rule="evenodd"/>
  <path d="m140.95 1527.3h-14.519s0.019 51.9-15.338 51.9c8.741 47.256 10.022 36.942 10.841 46.776 10.615-5.0767 18.564-6.1416 19.383 3.692" fill="#fff" fill-rule="evenodd"/>
  <path d="m140.95 1527.3h-14.519s0.019 51.9-15.338 51.9c8.741 47.256 9.5604 38.788 10.38 48.622" fill="none" stroke="#000" stroke-linejoin="round" stroke-width="3.325"/>
  <path d="m138.59 1527.3h14.519s-0.019 51.9 15.338 51.9c-8.741 47.256-9.5604 38.788-10.38 48.622" fill="none" stroke="#000" stroke-linejoin="round" stroke-width="3.325"/>
  <path d="m140.13 1527.6v52.936" fill="none" stroke="#000" stroke-width="3.325"/>
  <path transform="matrix(1.066 .050345 -.034293 .72608 40.018 415.84)" d="m155.15 1610.6c0 10.409-4.2192 18.848-9.4239 18.848-5.2047 0-9.4239-8.4384-9.4239-18.848 0-10.409 4.2192-18.848 9.4239-18.848 5.2047 0 9.4239 8.4384 9.4239 18.848z" color="#000000" display="block"/>
 </g>
 <g transform="matrix(.11412 -.22847 .17467 .087249 -147.41 -35.779)" display="block">
  <path d="m139.04 1527.7h14.519s-0.0189 51.9 15.338 51.9c-8.7409 47.256-10.022 36.942-10.841 46.776-8.7732 5.3489-16.354 6.3692-19.732 5.9823" fill="#fff" fill-rule="evenodd"/>
  <path d="m140.95 1527.7h-14.519s0.019 51.9-15.338 51.9c8.741 47.256 10.022 36.942 10.841 46.776 8.7733 5.3489 16.354 6.3692 19.732 5.9823" fill="#fff" fill-rule="evenodd"/>
  <path d="m140.95 1527.3h-14.519s0.019 51.9-15.338 51.9c8.741 47.256 10.022 36.942 10.841 46.776 10.615-5.0767 18.564-6.1416 19.383 3.692" fill="#fff" fill-rule="evenodd"/>
  <path d="m140.95 1527.3h-14.519s0.019 51.9-15.338 51.9c8.741 47.256 9.5604 38.788 10.38 48.622" fill="none" stroke="#000" stroke-linejoin="round" stroke-width="3.325"/>
  <path d="m138.59 1527.3h14.519s-0.019 51.9 15.338 51.9c-8.741 47.256-9.5604 38.788-10.38 48.622" fill="none" stroke="#000" stroke-linejoin="round" stroke-width="3.325"/>
  <path d="m140.13 1527.6v52.936" fill="none" stroke="#000" stroke-width="3.325"/>
  <path transform="matrix(1.066 .050345 -.034293 .72608 40.018 415.84)" d="m155.15 1610.6c0 10.409-4.2192 18.848-9.4239 18.848-5.2047 0-9.4239-8.4384-9.4239-18.848 0-10.409 4.2192-18.848 9.4239-18.848 5.2047 0 9.4239 8.4384 9.4239 18.848z" color="#000000" display="block"/>
 </g>
 <g transform="matrix(-.2104 .14475 -.11066 -.16086 412.42 292.33)" display="block">
  <path d="m139.04 1527.7h14.519s-0.0189 51.9 15.338 51.9c-8.7409 47.256-10.022 36.942-10.841 46.776-8.7732 5.3489-16.354 6.3692-19.732 5.9823" fill="#fff" fill-rule="evenodd"/>
  <path d="m140.95 1527.7h-14.519s0.019 51.9-15.338 51.9c8.741 47.256 10.022 36.942 10.841 46.776 8.7733 5.3489 16.354 6.3692 19.732 5.9823" fill="#fff" fill-rule="evenodd"/>
  <path d="m140.95 1527.3h-14.519s0.019 51.9-15.338 51.9c8.741 47.256 10.022 36.942 10.841 46.776 10.615-5.0767 18.564-6.1416 19.383 3.692" fill="#fff" fill-rule="evenodd"/>
  <path d="m140.95 1527.3h-14.519s0.019 51.9-15.338 51.9c8.741 47.256 9.5604 38.788 10.38 48.622" fill="none" stroke="#000" stroke-linejoin="round" stroke-width="3.325"/>
  <path d="m138.59 1527.3h14.519s-0.019 51.9 15.338 51.9c-8.741 47.256-9.5604 38.788-10.38 48.622" fill="none" stroke="#000" stroke-linejoin="round" stroke-width="3.325"/>
  <path d="m140.13 1527.6v52.936" fill="none" stroke="#000" stroke-width="3.325"/>
  <path transform="matrix(1.066 .050345 -.034293 .72608 40.018 415.84)" d="m155.15 1610.6c0 10.409-4.2192 18.848-9.4239 18.848-5.2047 0-9.4239-8.4384-9.4239-18.848 0-10.409 4.2192-18.848 9.4239-18.848 5.2047 0 9.4239 8.4384 9.4239 18.848z" color="#000000" display="block"/>
 </g>
 <g transform="matrix(-.14475 -.2104 .16086 -.11066 -.9431 237.01)" display="block">
  <path d="m139.04 1527.7h14.519s-0.0189 51.9 15.338 51.9c-8.7409 47.256-10.022 36.942-10.841 46.776-8.7732 5.3489-16.354 6.3692-19.732 5.9823" fill="#fff" fill-rule="evenodd"/>
  <path d="m140.95 1527.7h-14.519s0.019 51.9-15.338 51.9c8.741 47.256 10.022 36.942 10.841 46.776 8.7733 5.3489 16.354 6.3692 19.732 5.9823" fill="#fff" fill-rule="evenodd"/>
  <path d="m140.95 1527.3h-14.519s0.019 51.9-15.338 51.9c8.741 47.256 10.022 36.942 10.841 46.776 10.615-5.0767 18.564-6.1416 19.383 3.692" fill="#fff" fill-rule="evenodd"/>
  <path d="m140.95 1527.3h-14.519s0.019 51.9-15.338 51.9c8.741 47.256 9.5604 38.788 10.38 48.622" fill="none" stroke="#000" stroke-linejoin="round" stroke-width="3.325"/>
  <path d="m138.59 1527.3h14.519s-0.019 51.9 15.338 51.9c-8.741 47.256-9.5604 38.788-10.38 48.622" fill="none" stroke="#000" stroke-linejoin="round" stroke-width="3.325"/>
  <path d="m140.13 1527.6v52.936" fill="none" stroke="#000" stroke-width="3.325"/>
  <path transform="matrix(1.066 .050345 -.034293 .72608 40.018 415.84)" d="m155.15 1610.6c0 10.409-4.2192 18.848-9.4239 18.848-5.2047 0-9.4239-8.4384-9.4239-18.848 0-10.409 4.2192-18.848 9.4239-18.848 5.2047 0 9.4239 8.4384 9.4239 18.848z" color="#000000" display="block"/>
 </g>
 <g transform="matrix(.25459 -.020155 .015408 .19464 221.75 -236.83)" display="block">
  <path d="m139.04 1527.7h14.519s-0.0189 51.9 15.338 51.9c-8.7409 47.256-10.022 36.942-10.841 46.776-8.7732 5.3489-16.354 6.3692-19.732 5.9823" fill="#fff" fill-rule="evenodd"/>
  <path d="m140.95 1527.7h-14.519s0.019 51.9-15.338 51.9c8.741 47.256 10.022 36.942 10.841 46.776 8.7733 5.3489 16.354 6.3692 19.732 5.9823" fill="#fff" fill-rule="evenodd"/>
  <path d="m140.95 1527.3h-14.519s0.019 51.9-15.338 51.9c8.741 47.256 10.022 36.942 10.841 46.776 10.615-5.0767 18.564-6.1416 19.383 3.692" fill="#fff" fill-rule="evenodd"/>
  <path d="m140.95 1527.3h-14.519s0.019 51.9-15.338 51.9c8.741 47.256 9.5604 38.788 10.38 48.622" fill="none" stroke="#000" stroke-linejoin="round" stroke-width="3.325"/>
  <path d="m138.59 1527.3h14.519s-0.019 51.9 15.338 51.9c-8.741 47.256-9.5604 38.788-10.38 48.622" fill="none" stroke="#000" stroke-linejoin="round" stroke-width="3.325"/>
  <path d="m140.13 1527.6v52.936" fill="none" stroke="#000" stroke-width="3.325"/>
  <path transform="matrix(1.066 .050345 -.034293 .72608 40.018 415.84)" d="m155.15 1610.6c0 10.409-4.2192 18.848-9.4239 18.848-5.2047 0-9.4239-8.4384-9.4239-18.848 0-10.409 4.2192-18.848 9.4239-18.848 5.2047 0 9.4239 8.4384 9.4239 18.848z" color="#000000" display="block"/>
 </g>
 <g transform="matrix(.020155 .25459 -.19464 .015409 547.45 54.655)" display="block">
  <path d="m139.04 1527.7h14.519s-0.0189 51.9 15.338 51.9c-8.7409 47.256-10.022 36.942-10.841 46.776-8.7732 5.3489-16.354 6.3692-19.732 5.9823" fill="#fff" fill-rule="evenodd"/>
  <path d="m140.95 1527.7h-14.519s0.019 51.9-15.338 51.9c8.741 47.256 10.022 36.942 10.841 46.776 8.7733 5.3489 16.354 6.3692 19.732 5.9823" fill="#fff" fill-rule="evenodd"/>
  <path d="m140.95 1527.3h-14.519s0.019 51.9-15.338 51.9c8.741 47.256 10.022 36.942 10.841 46.776 10.615-5.0767 18.564-6.1416 19.383 3.692" fill="#fff" fill-rule="evenodd"/>
  <path d="m140.95 1527.3h-14.519s0.019 51.9-15.338 51.9c8.741 47.256 9.5604 38.788 10.38 48.622" fill="none" stroke="#000" stroke-linejoin="round" stroke-width="3.325"/>
  <path d="m138.59 1527.3h14.519s-0.019 51.9 15.338 51.9c-8.741 47.256-9.5604 38.788-10.38 48.622" fill="none" stroke="#000" stroke-linejoin="round" stroke-width="3.325"/>
  <path d="m140.13 1527.6v52.936" fill="none" stroke="#000" stroke-width="3.325"/>
  <path transform="matrix(1.066 .050345 -.034293 .72608 40.018 415.84)" d="m155.15 1610.6c0 10.409-4.2192 18.848-9.4239 18.848-5.2047 0-9.4239-8.4384-9.4239-18.848 0-10.409 4.2192-18.848 9.4239-18.848 5.2047 0 9.4239 8.4384 9.4239 18.848z" color="#000000" display="block"/>
 </g>
 <g transform="matrix(.25459 -.020155 .015408 .19464 206.24 -220.31)" display="block">
  <path d="m139.04 1527.7h14.519s-0.0189 51.9 15.338 51.9c-8.7409 47.256-10.022 36.942-10.841 46.776-8.7732 5.3489-16.354 6.3692-19.732 5.9823" fill="#fff" fill-rule="evenodd"/>
  <path d="m140.95 1527.7h-14.519s0.019 51.9-15.338 51.9c8.741 47.256 10.022 36.942 10.841 46.776 8.7733 5.3489 16.354 6.3692 19.732 5.9823" fill="#fff" fill-rule="evenodd"/>
  <path d="m140.95 1527.3h-14.519s0.019 51.9-15.338 51.9c8.741 47.256 10.022 36.942 10.841 46.776 10.615-5.0767 18.564-6.1416 19.383 3.692" fill="#fff" fill-rule="evenodd"/>
  <path d="m140.95 1527.3h-14.519s0.019 51.9-15.338 51.9c8.741 47.256 9.5604 38.788 10.38 48.622" fill="none" stroke="#000" stroke-linejoin="round" stroke-width="3.325"/>
  <path d="m138.59 1527.3h14.519s-0.019 51.9 15.338 51.9c-8.741 47.256-9.5604 38.788-10.38 48.622" fill="none" stroke="#000" stroke-linejoin="round" stroke-width="3.325"/>
  <path d="m140.13 1527.6v52.936" fill="none" stroke="#000" stroke-width="3.325"/>
  <path transform="matrix(1.066 .050345 -.034293 .72608 40.018 415.84)" d="m155.15 1610.6c0 10.409-4.2192 18.848-9.4239 18.848-5.2047 0-9.4239-8.4384-9.4239-18.848 0-10.409 4.2192-18.848 9.4239-18.848 5.2047 0 9.4239 8.4384 9.4239 18.848z" color="#000000" display="block"/>
 </g>
 <g transform="matrix(-.097494 .23604 -.18046 -.074536 534.37 177.11)" display="block">
  <path d="m139.04 1527.7h14.519s-0.0189 51.9 15.338 51.9c-8.7409 47.256-10.022 36.942-10.841 46.776-8.7732 5.3489-16.354 6.3692-19.732 5.9823" fill="#fff" fill-rule="evenodd"/>
  <path d="m140.95 1527.7h-14.519s0.019 51.9-15.338 51.9c8.741 47.256 10.022 36.942 10.841 46.776 8.7733 5.3489 16.354 6.3692 19.732 5.9823" fill="#fff" fill-rule="evenodd"/>
  <path d="m140.95 1527.3h-14.519s0.019 51.9-15.338 51.9c8.741 47.256 10.022 36.942 10.841 46.776 10.615-5.0767 18.564-6.1416 19.383 3.692" fill="#fff" fill-rule="evenodd"/>
  <path d="m140.95 1527.3h-14.519s0.019 51.9-15.338 51.9c8.741 47.256 9.5604 38.788 10.38 48.622" fill="none" stroke="#000" stroke-linejoin="round" stroke-width="3.325"/>
  <path d="m138.59 1527.3h14.519s-0.019 51.9 15.338 51.9c-8.741 47.256-9.5604 38.788-10.38 48.622" fill="none" stroke="#000" stroke-linejoin="round" stroke-width="3.325"/>
  <path d="m140.13 1527.6v52.936" fill="none" stroke="#000" stroke-width="3.325"/>
  <path transform="matrix(1.066 .050345 -.034293 .72608 40.018 415.84)" d="m155.15 1610.6c0 10.409-4.2192 18.848-9.4239 18.848-5.2047 0-9.4239-8.4384-9.4239-18.848 0-10.409 4.2192-18.848 9.4239-18.848 5.2047 0 9.4239 8.4384 9.4239 18.848z" color="#000000" display="block"/>
 </g>
</svg>
