<?xml version="1.0" encoding="UTF-8"?>
<svg width="300" height="187" version="1.1" viewBox="0 0 300 187" xmlns="http://www.w3.org/2000/svg">
 <g>
  <text x="75" y="6" display="block" fill="#000000" font-family="'Liberation Sans',Arial,sans-serif" stroke-width="1pt" text-align="center" text-anchor="middle" style="line-height:0%" xml:space="preserve"><tspan x="75" y="6" font-size="6px" text-align="center" text-anchor="middle" style="line-height:1.1">amincissement = 0 (largeur uniforme) </tspan></text>
  <text x="75" y="74.558846" display="block" fill="#000000" font-family="'Liberation Sans',Arial,sans-serif" stroke-width="1pt" text-align="center" text-anchor="middle" style="line-height:0%" xml:space="preserve"><tspan x="75" y="74.558846" font-size="6px" text-align="center" text-anchor="middle" style="line-height:1.1">amincissement = 10</tspan></text>
  <text x="75" y="139.55885" display="block" fill="#000000" font-family="'Liberation Sans',Arial,sans-serif" stroke-width="1pt" text-align="center" text-anchor="middle" style="line-height:0%" xml:space="preserve"><tspan x="75" y="139.55885" font-size="6px" text-align="center" text-anchor="middle" style="line-height:1.1">amincissement = 40</tspan></text>
  <text x="225" y="6" display="block" fill="#000000" font-family="'Liberation Sans',Arial,sans-serif" stroke-width="1pt" text-align="center" text-anchor="middle" style="line-height:0%" xml:space="preserve"><tspan x="225" y="6" font-size="6px" text-align="center" text-anchor="middle" style="line-height:1.1">amincissement = −20</tspan></text>
  <text x="225" y="84.558846" display="block" fill="#000000" font-family="'Liberation Sans',Arial,sans-serif" stroke-width="1pt" text-align="center" text-anchor="middle" style="line-height:0%" xml:space="preserve"><tspan x="225" y="84.558846" font-size="6px" text-align="center" text-anchor="middle" style="line-height:1.1">amincissement = −60</tspan></text>
  <path d="m10.147 33.033c8.3366-0.1302 16.662 0.161 24.988 0.5273 13.402 0.4265 26.816 0.6919 40.226 0.5875 16.434-0.5619 32.819-0.0338 49.214 1.0772 6.0262 0.4379 3.0238 0.2188 9.0071 0.6573v5.5832c-5.9834-0.4385-2.981-0.2194-9.0071-0.6573-16.395-1.111-32.781-1.639-49.214-1.0771-13.41 0.1044-26.824-0.1611-40.226-0.5876-8.3267-0.3662-16.652-0.6575-24.988-0.5273z" display="block"/>
  <path d="m17.293 91.5c0.01475-1.8783-0.02196-3.7577 0.04426-5.6349 0.0237-0.6719 23.428-1.1479 24.344-1.1612 21.838-0.0121 43.6-2.0025 65.412-2.7054 8.7705-0.1593 17.543-0.0639 26.314-0.0689v4.3557c-8.7701-0.1772-17.542-0.3879-26.314-0.3172-21.83 0.5393-43.564 2.9639-65.412 3.0985-6.0615 0.2066-12.107 0.5393-18.136 1.2177-1.7238 0.1941-3.4558 0.418-5.151 0.7916-0.36194 0.0798-1.0434 0.7148-1.0572 0.3445-0.06808-1.8269-0.0295-3.6561-0.04426-5.484z" display="block"/>
  <path d="m16.69 93.072c10.861 0.3245 21.731 0.2144 32.598 0.5768 26.23 0.718 52.499 0.9837 78.724-0.0778 1.1928-0.0582 2.3857-0.1165 3.5785-0.1748v4.4378c-1.1928-0.0117-2.3857-0.0235-3.5785-0.0352-26.24-0.1825-52.483 0.3117-78.724-0.0721-10.875-0.0956-21.754-0.0196-32.598 0.911z" display="block"/>
  <path d="m20.317 102.21c15.41-0.3964 30.843-0.1393 46.266 0.2322 24.153 0.5296 48.332 0.0327 72.446-1.4273v4.4445c-24.145-0.8293-48.297 0.0359-72.446 0.1048-15.448 0.095-30.935 0.1012-46.266 2.2203z" display="block"/>
  <path d="m23.287 112.49c15.339-0.5204 30.656-2.1766 46.017-2.7598 21.808-0.4918 43.614 0.9126 65.345 2.6185v3.9061c-21.651-2.7254-43.522-4.2005-65.345-3.4213-15.441 0.918-30.73 2.958-46.017 5.231z" display="block"/>
  <path d="m10.896 27.194c0.01475-1.861-0.03179-3.7236 0.04426-5.5832 0.01544-0.3774 0.75584 0.0146 1.1333 0 1.0853-0.0419 2.1642-0.1864 3.2398-0.3266 6.2129-0.8096 12.412-1.7054 18.636-2.4234 26.493-3.0194 53.136-3.546 79.725-1.737 9.0319 0.687 18.03 1.7285 26.999 2.982v5.5833c-8.969-1.2536-17.967-2.2951-26.999-2.9821-26.589-1.809-53.232-1.2824-79.725 1.737-0.9552 0.1103-22.994 3.122-23.01 2.75-0.07605-1.8595-0.02951-3.7221-0.04426-5.5832z" display="block"/>
  <path d="m14.323 51.181c-0.07742 0.0517-0.0874-0.0458-0.12424-0.0651 0.02806-1.8739-0.02251-3.7506 0.08417-5.6217 0.0474-0.8311 23.328-1.6162 24.383-1.6189 32.108 2.5968 64.052-1.1531 95.968-4.2303 1.6978-0.1745 3.3956-0.3489 5.0935-0.5235v5.5833c-1.6978 0.1745-3.3956 0.3489-5.0935 0.5235-31.916 3.0772-63.86 6.827-95.968 4.2303-5.4539 0.0137-10.849 0.2056-16.281 0.6998-2.2537 0.2051-4.5217 0.3775-6.771 0.6286-0.4511 0.0503-1.3033 0.7435-1.3304 0.2905-0.11012-1.8453-0.05612-3.6965-0.08417-5.5448 0.04141 0.0216 0.03789 0.1121 0.12424 0.065z" display="block"/>
  <path d="m21.715 26.408c13.391-0.7634 26.775-0.1579 40.166 0.2909 25.411 0.5864 50.811-0.7137 76.228-0.5572v5.5833c-25.416-0.1566-50.816 1.1435-76.228 0.5571-13.392-0.4488-26.775-1.0543-40.166-0.2908z" display="block"/>
  <path d="m31.407 148.58c14.488 1.3909 29.225 0.5274 43.792 0.4169 16.499 0.5323 32.992-0.0565 49.491-0.2115 0.70639-0.0196 1.4128-0.0392 2.1192-0.0588v2.8694c-0.70639-0.0633-1.4128-0.1266-2.1192-0.19-16.467-1.3278-32.958-2.4056-49.491-2.2974-14.333 0.1087-30.148 0.0436-43.792 4.6291z" display="block"/>
  <path d="m22.882 162.61c9.6209 1.2565 19.651 0.061 29.359-0.2397 18.741-0.4016 37.481-0.364 56.214-1.112 7.9766-0.7391 15.98-0.8014 23.974-1.1816v3.5745c-7.9982-0.1505-15.971-0.9781-23.974-0.9596-18.738 0.0106-37.5-1.4636-56.214 0.193-9.9014 0.8865-19.958 1.8345-29.359 5.2736z" display="block"/>
  <path d="m24.106 172.91c16.011 0.5925 32.03-0.678 48.019-1.5476 18.841-1.147 37.735-0.5949 56.466-3.1719 1.5154-0.2232 3.0203-0.5082 4.5241-0.7973v3.9122c-1.5081-0.015-3.0161-0.012-4.5241-0.0355-18.83-0.8157-37.638-1.387-56.466 0.2041-15.79 0.8589-33.543-0.4143-48.019 6.875z" display="block"/>
  <path d="m27.533 180.71c11.862 1.6201 24.05 1.8363 36.032 1.7388 22.542-0.6944 45.392 0.628 67.591-4.0023 1.8939-0.3315 3.7535-0.812 5.6061-1.3184v3.5138c-1.866 0.1251-3.7344 0.2397-5.6061 0.1568-22.521-0.3342-45.037 2.388-67.591 1.7617-12.017 0.0979-24.399 0.1894-36.032 3.5929z" display="block"/>
  <path d="m172.58 19.701c15.989-3.0468 32.458-3.3301 48.689-4.2456 18.701-1.3829 37.329 0.7053 55.568 4.7487v6.993c-18.487-1.496-36.985-3.5276-55.568-2.4402-16.222 0.5149-32.467 1.0094-48.689 0.6683z" display="block"/>
  <path d="m174.38 33.236c16.013-2.031 32.128-3.111 48.256-3.6865 22.391-0.8746 44.837 0.4107 67.22-0.7082v6.786c-21.957 5.3097-44.904 1.805-67.22 3.3084-16.057 0.2673-32.247 1.3846-48.256 0.0059z" display="block"/>
  <path d="m172.52 42.174c16.731-1.3453 33.65-0.6116 50.431-0.3666 21.428 0.3564 42.846 1.2819 64.276 1.4876v7.196c-21.318 2.7109-42.87 0.8511-64.276 0.8337-16.843-0.4344-33.731-1.1235-50.431-3.4626z" display="block"/>
  <path d="m173.1 60.04c11.1-3.3377 22.788-3.4016 34.271-3.92 24.674-1.3454 49.586-2.3212 74.161 0.9709 0.76517 0.1152 1.5303 0.2304 2.2955 0.3457v7.0565c-0.76517 0-1.5303-1e-4 -2.2955-2e-4 -24.723 0.1415-49.44-0.1684-74.161 0.495-11.43-0.0543-22.885-0.2179-34.271 0.6702z" display="block"/>
  <path d="m176.46 102.28c11.007-3.8811 23.277-5.1092 34.868-6.1507 20.946-1.6915 41.998-2.9426 62.896-0.1468v12.919c-20.965 0.4279-41.912 1.8275-62.896 1.1928-11.619-0.1234-23.361-0.3306-34.868-2.0357z" display="block"/>
  <path d="m169.24 121.72c14.611-4.7714 29.967-6.4948 45.168-8.2765 20.166-2.567 40.39-0.9304 60.323 2.5002v12.322c-20.062 1.7426-40.161 3.3688-60.323 2.6207-14.775-0.3745-30.924 0.6322-45.168-3.5216z" display="block"/>
  <path d="m172.49 142.94c19.031-4.9258 38.58-7.0155 58.19-7.9663 19.952-0.9672 39.5 2.6195 58.335 8.9157v11.384c-19.446 0.3929-38.876-1.8658-58.335-1.074-18.623-0.0977-40.585 1.3824-58.19-5.5187z" display="block"/>
  <path d="m182.89 163.8c-1.4364-1.2583-0.0743-3.8209 9e-3 -5.7287 0.092-2.0978 29.274-4.729 31.073-4.8118 24.149-1.0945 48.356-0.0796 72.211 3.8879v13.632c-24.019 2.7102-48.302 1.422-72.211-1.8154-1.9542-0.2662-31.008-3.752-31.073-5.2144-0.0828-1.882-0.0388-3.7674-0.0582-5.6511 0.0163 0.0249 5e-3 0.0656 0.0488 0.0746z" display="block"/>
 </g>
</svg>
