<?xml version="1.0" encoding="UTF-8"?>
<svg width="300" height="256" version="1.1" viewBox="0 0 300 256" xmlns="http://www.w3.org/2000/svg" xmlns:xlink="http://www.w3.org/1999/xlink">
 <g id="a" transform="matrix(1.0125 0 0 1.0125 -1.0245 29.763)">
  <text x="0.87408441" y="12.058847" display="block" fill="#000000" font-family="'Liberation Sans',Arial,sans-serif" stroke-width="1pt" style="line-height:0%" xml:space="preserve"><tspan x="0.87408441" y="12.058847" font-size="6px" style="line-height:1.1">lent</tspan></text>
  <text x="0.87408441" y="21.308847" display="block" fill="#000000" font-family="'Liberation Sans',Arial,sans-serif" stroke-width="1pt" style="line-height:0%" xml:space="preserve"><tspan x="0.87408441" y="21.308847" font-size="6px" style="line-height:1.1">moyen</tspan></text>
  <text x="0.87408441" y="30.558847" display="block" fill="#000000" font-family="'Liberation Sans',Arial,sans-serif" stroke-width="1pt" style="line-height:0%" xml:space="preserve"><tspan x="0.87408441" y="30.558847" font-size="6px" style="line-height:1.1">rapide</tspan></text>
 </g>
 <use transform="translate(159.98 188.33)" width="744.09448" height="1052.3622" xlink:href="#a"/>
 <use transform="translate(2.5872e-8 188.33)" width="744.09448" height="1052.3622" xlink:href="#a"/>
 <use transform="translate(159.98 141.25)" width="744.09448" height="1052.3622" xlink:href="#a"/>
 <use transform="translate(2.5872e-8 141.25)" width="744.09448" height="1052.3622" xlink:href="#a"/>
 <use transform="translate(159.98 94.167)" width="744.09448" height="1052.3622" xlink:href="#a"/>
 <use transform="translate(2.5872e-8 94.167)" width="744.09448" height="1052.3622" xlink:href="#a"/>
 <use transform="translate(159.98 47.083)" width="744.09448" height="1052.3622" xlink:href="#a"/>
 <use transform="translate(2.5872e-8 47.083)" width="744.09448" height="1052.3622" xlink:href="#a"/>
 <use transform="translate(159.98)" width="744.09448" height="1052.3622" xlink:href="#a"/>
 <text x="133.01036" y="6" display="block" fill="#000000" font-family="'Liberation Sans',Arial,sans-serif" font-size="12.151px" stroke-width="1.0126pt" style="line-height:0%" xml:space="preserve"><tspan x="133.01036" y="6" font-size="6px" stroke-width="1.0126pt" style="line-height:1.1">tremblement = 0</tspan></text>
 <text x="62.132141" y="34.885372" display="block" fill="#000000" font-family="'Liberation Sans',Arial,sans-serif" font-size="12.151px" stroke-width="1.0126pt" style="line-height:0%" xml:space="preserve"><tspan x="62.132141" y="34.885372" font-size="6px" stroke-width="1.0126pt" style="line-height:1.1">tremblement = 10</tspan></text>
 <text x="62.09507" y="80.41172" display="block" fill="#000000" font-family="'Liberation Sans',Arial,sans-serif" font-size="12.151px" stroke-width="1.0126pt" style="line-height:0%" xml:space="preserve"><tspan x="62.09507" y="80.41172" font-size="6px" stroke-width="1.0126pt" style="line-height:1.1">tremblement = 30</tspan></text>
 <text x="62.117317" y="126.44436" display="block" fill="#000000" font-family="'Liberation Sans',Arial,sans-serif" font-size="12.151px" stroke-width="1.0126pt" style="line-height:0%" xml:space="preserve"><tspan x="62.117317" y="126.44436" font-size="6px" stroke-width="1.0126pt" style="line-height:1.1">tremblement = 50</tspan></text>
 <text x="62.111385" y="172.47697" display="block" fill="#000000" font-family="'Liberation Sans',Arial,sans-serif" font-size="12.151px" stroke-width="1.0126pt" style="line-height:0%" xml:space="preserve"><tspan x="62.111385" y="172.47697" font-size="6px" stroke-width="1.0126pt" style="line-height:1.1">tremblement = 70</tspan></text>
 <text x="62.065403" y="218.50958" display="block" fill="#000000" font-family="'Liberation Sans',Arial,sans-serif" font-size="12.151px" stroke-width="1.0126pt" style="line-height:0%" xml:space="preserve"><tspan x="62.065403" y="218.50958" font-size="6px" stroke-width="1.0126pt" style="line-height:1.1">tremblement = 90</tspan></text>
 <text x="214.17041" y="34.379101" display="block" fill="#000000" font-family="'Liberation Sans',Arial,sans-serif" font-size="12.151px" stroke-width="1.0126pt" style="line-height:0%" xml:space="preserve"><tspan x="214.17041" y="34.379101" font-size="6px" stroke-width="1.0126pt" style="line-height:1.1">tremblement = 20</tspan></text>
 <text x="214.03691" y="80.41172" display="block" fill="#000000" font-family="'Liberation Sans',Arial,sans-serif" font-size="12.151px" stroke-width="1.0126pt" style="line-height:0%" xml:space="preserve"><tspan x="214.03691" y="80.41172" font-size="6px" stroke-width="1.0126pt" style="line-height:1.1">tremblement = 40</tspan></text>
 <text x="214.05768" y="126.44436" display="block" fill="#000000" font-family="'Liberation Sans',Arial,sans-serif" font-size="12.151px" stroke-width="1.0126pt" style="line-height:0%" xml:space="preserve"><tspan x="214.05768" y="126.44436" font-size="6px" stroke-width="1.0126pt" style="line-height:1.1">tremblement = 60</tspan></text>
 <text x="214.07399" y="172.47697" display="block" fill="#000000" font-family="'Liberation Sans',Arial,sans-serif" font-size="12.151px" stroke-width="1.0126pt" style="line-height:0%" xml:space="preserve"><tspan x="214.07399" y="172.47697" font-size="6px" stroke-width="1.0126pt" style="line-height:1.1">tremblement = 80</tspan></text>
 <text x="214.06805" y="218.50958" display="block" fill="#000000" font-family="'Liberation Sans',Arial,sans-serif" font-size="12.151px" stroke-width="1.0126pt" style="line-height:0%" xml:space="preserve"><tspan x="214.06805" y="218.50958" font-size="6px" stroke-width="1.0126pt" style="line-height:1.1">tremblement = 100</tspan></text>
 <path d="m196.22 36.798c1.2998-0.60881 0.52474 0.12111 1.4636 0.33779 2.5582-1.568 1.8379 0.0535 4.323-0.64514 1.3028-0.3573 2.3478-0.03798 3.0952 0.50448 1.8232-0.45893 2.8978-0.12874 5.8764 1.1112 2.2132-0.64342 4.2108-0.29687 6.5943-0.50679 0.47856 0.62187 2.7595 0.5053 3.7289 0.57208 2.1711-0.49241 4.3168-0.7964 6.4744-0.95869 0.0912 0.91597 2.6864 0.43361 3.2007 0.3755 0.98458-0.20076 2.0166 0.12113 2.9932 0.35775 3.2645-0.92722 1.3813 0.38616 4.4224-0.74564-1.4155 1.4337 2.114 0.5007 2.8212 0.47767 1.8165-0.52479 2.4163-0.59426 3.6887-0.10432 2.0014-0.24886 3.5866 0.19806 5.0702 0.85631 2.3402-0.86375 4.5769-1.0565 6.9829-1.0974 3.0151 0.26392 4.1343 0.37811 7.515-0.32643 2.9952-1.0489 2.5658 0.42005 5.5005-0.68567 0.55147 1.0112 3.429 0.21176 4.8923-0.37031 0.60427 0.22936 1.9425 0.85628 2.3142 0.96273 2.1108-0.12488 2.1182-0.08789 4.7255-0.86145-0.42491 0.44086-1.0652 0.74723-1.2747 1.3226-0.44908 1.2333 2.5818-0.48127 3.8829-0.6541 3.7634-1.4807 2.104 0.49884 4.0693-0.40294 1.0401 0.61352 2.5149 0.24679 3.8383 0.0323l-6.846 4.9739c-0.98708 0.17978-2.7077 0.64398-3.4545-0.31111-1.5141 0.13716-1.4431-0.77872-3.7997 0.20708-0.39544-0.0025-2.5048 0.18163-2.3385-0.86449-1.9924 0.97212-2.7972-0.06012-4.9803 1.0457-0.92373-0.20654-1.8236-0.5719-2.7682-0.63294-1.5503 0.20423-3.2776 0.50326-4.7687 0.32332-1.4056 0.24378-2.8588-0.30109-4.5284 0.06122-2.9903 1.3842-5.4514 0.15013-8.726 1.0825-1.8801-0.30817-3.6622-0.40202-5.5206 0.03501-2.7245-0.37885-3.6337-0.57974-5.9771-0.19736-1.0721 0.19848-4.4456 1.0495-2.4976-0.76103-2.089 0.61795-2.6686-0.03933-5.2234 1.2676-0.3898-0.16014-1.1733-1.1578-2.8657-0.38538-0.74583-0.22261-2.2787-0.12029-2.994-0.35718-1.3059 0.11879-2.971 0.68455-4.1758 0.33305-0.78999 0.14056-3.3629 0.01264-5.1178-0.0263-1.4061-0.30542-2.9517-0.1267-4.8087 0.20787-1.8052-0.35484-4.3825 0.56172-5.375-0.41622-2.6132-0.15999-4.4917-1.3289-7.0867-0.34326-0.91127-0.30401-1.8742-0.64206-2.8299-0.545-0.57588 0.11032-3.5918 0.50352-2.5844-0.61805-3.1052 0.94077-0.73414-0.19189-3.1439 0.88308z" color="#000000"/>
 <path d="m192.82 45.746c0.85532-0.47995 1.3691-0.52012 3.2748-0.7221 2.5097 0.16354 6.7583 0.51848 10.195 1.7649 12.963-0.78826 26.103 1.5528 38.691-0.16904 10.248 1.1303 20.31 1.4268 30.837 0.48226 3.0292-0.58573 5.6965 0.08264 8.6387-0.26511 1.8319-0.61479 4.0309 0.53172 4.7877 0.78427 0.58644-0.18746 1.1729-0.37492 1.7593-0.56238l-6.0657 4.4072c-0.20915-0.08665-0.41831-0.1733-0.62746-0.25995-1.96 0.04061-4.0267-0.14724-5.8527-0.0099-2.6344 0.16916-5.372-0.09574-8.1246-0.11316-10.248-1.2682-20.313 0.85259-30.645-0.62996-12.752 0.75046-25.123-0.50746-37.804-0.4906-4.0699-0.44734-8.6234 0.43934-11.953-0.46085-1.2679-0.14235-1.6885-0.24298-3.1118 0.6037z" color="#000000"/>
 <path d="m193.94 54.143c-1.3477 0.63151 3.9689 0.88226 4.9222 0.87017 10.721 0.59635 20.894 1.9856 31.461 1.768 10.687 0.4247 21.855-1.8993 32.419-0.45376 5.6873-0.57722 11.417 0.47068 16.903 0.44733 2.2901-0.49969 3.2508 0.59977 5.9513-0.23362 1.8729 0.11261 3.753 0.06593 5.6271 0.09942l-5.4594 3.967c-2.8724 0.51328-4.5577 0.40175-6.7854 0.73815-1.4827 0.0356-3.0747-0.18776-4.3465-0.9508-5.6881-0.08735-11.373 1.0116-17.007-0.35078-10.901 0.83996-21.299-0.62405-32.301 0.35678-10.631-0.12729-21.117-1.1153-31.541-1.7644-0.90232 0.10812-7.13 1.8006-5.9196-0.07917z" color="#000000"/>
 <path d="m34.495 38.271c0.8977-0.36226 1.9415-0.17338 2.7884-0.27984 2.64 0.25877 5.0049 0.27064 7.6672 0.41693 3.2661 0.2317 6.4357 0.23387 9.7093 0.27017 2.0656 0.75853 4.2416 0.52668 6.4849 0.48906 2.5146 0.06132 5.0849 0.02821 7.5779-0.05473 1.8013 0.14039 3.5691 0.18762 5.361 0.05054 1.7308-0.29827 3.3482 0.13416 5.0341 0.33384 1.5095-0.43893 2.8515 0.16345 4.2273 0.33529 1.2493-0.46985 2.5741-0.1833 3.804-0.13708 1.75-0.38555 1.7437 0.33658 3.6376-0.08939 1.286-0.02553 2.4881 0.19962 3.9456 0.0087 1.5498-0.27298 2.8264 0.13633 4.3815-0.09549 1.1835 0.10214 1.9324 0.42087 3.0081 0.58392 1.6435-0.55083 1.7386 0.25101 3.1259 0.4973 1.3134 0.09019 2.6666-0.09647 3.9703-0.13578 1.0746 0.24817 1.8767 0.25265 3.0649 0.31219 1.4841-0.0047 2.8023-0.19838 4.227-0.11734 1.2648 0.15487 2.2418 0.20149 3.4758 0.03254 1.4511-0.08427 2.8013-0.01069 4.2938-0.11222 1.1297 0.08756 2.8228 0.12756 3.9303 0.21112 1.4594-0.0057 2.9168-0.13963 4.3468-0.22355 0.33363 0.3134 2.4967 0.06099 3.5356-0.05698 1.0701 0.28935 2.2519 0.18291 3.3767 0.07061 0.81027 0.30121 1.1142 0.02752 1.978 0.04885l-5.892 4.2808c-0.99816 0.09167-1.1447 0.54658-1.8646-0.13124-1.6761 0.4578-2.2051-0.04772-3.9954 0.37884-0.87675-0.09012-2.1858-0.06344-3.0757-0.27718-1.5676 0.3447-2.7528 0.32509-4.31 0.19682-1.4453 0.06248-2.7445-0.25613-4.2216 4.99e-4 -1.5128 0.12495-2.8461-0.25556-4.2855 0.10617-1.017-0.03162-2.2625-0.35262-3.4168-0.07497-1.0529-0.0096-2.5224-0.13797-3.7725-0.21266-1.287 0.04869-2.5066 0.19802-3.7745 0.17778-1.1257-0.18938-2.1232-0.10242-3.1436-0.56664-1.4427 0.08324-2.3716-0.1247-3.7038-0.03999-1.726-0.08493-1.9549-0.62113-3.0582-0.45825-1.187-0.05367-2.8596-0.17048-4.2193-0.02237-1.3163 0.03952-2.5238 0.0072-3.967 0.0072-1.2334 0.15182-2.2533 0.10422-3.5008-0.0094-1.1559-0.07807-2.2929 0.18746-3.4695-0.11891-1.8512 0.27578-2.8313-0.02418-4.6907-0.07415-1.6133-0.07132-3.1645-0.39278-4.7835-0.42812-1.9872 0.18886-3.8642 0.33762-5.8342 0.29379-2.3252-0.16581-4.6213-0.2516-6.9462-0.41204-2.2985 0.47388-4.7045-0.04671-7.037-0.14976-2.9722 0.0311-6.0945-0.29827-9.0738-0.70739-2.7879-0.2079-5.6617 0.46481-8.2358 0.04065-0.99766 0.19209-1.981 0.27808-2.4402 0.02687z" color="#000000"/>
 <path d="m32.923 48.156c0.83868 0.29081 1.9525-0.10928 2.9504-0.10659 3.7021 0.01379 7.4012 0.82296 11.136 0.76267 4.9832 0.70163 9.998-0.27943 14.987 0.05834 4.3002 0.47591 8.371 0.49343 12.732 0.14825 4.8888 1.0079 9.9236 0.01756 14.978 0.59843 4.9429 0.47303 9.692-1.7348 14.596-0.87109 3.983-0.9111 8.0989-0.02017 12.02-0.61368 4.0825 0.71693 8.2093 0.55418 12.309 1.2232 2.8004-0.06465 5.4112 0.29684 8.1548-0.16258 1.1364-0.04977 2.9516 0.45258 3.5845 0.47626 1.4269-0.83496 2.3862-0.24566 3.1962-0.18545l-5.5458 4.0298c-1.1362 0.12681-2.3158 0.44992-3.4482 0.36957-1.2818 0.01126-2.6373-0.10059-4.0742-0.13474-2.3316-0.23043-4.9617-0.03311-7.4648-0.37149-4.2132-0.71415-8.4048-0.3737-12.64-0.96599-3.8203 0.56284-7.5547 0.12184-11.354 0.19434-5.0098 0.87522-10.272 0.54806-15.328 1.3649-4.9371-0.96477-9.8892-0.1848-14.832-0.728-4.2681 0.5511-8.5654-0.12802-12.876-0.02516-4.8242 0.17997-9.7229-0.54043-14.609-0.35528-3.7595-0.5776-8.0039 0.35698-11.439-0.51347-1.0006 0.12498-2.3672 0.43036-3.2744 0.34197z" color="#000000"/>
 <path d="m25.733 62.172c1.7854-1.9053 5.936-5.1245 9.3731-4.3759 7.3436 0.63293 14.779 0.20191 22.187 0.03612 14.796 0.20352 29.695-1.6294 44.432-0.14195 11.903-0.22025 23.902 0.38463 35.754 1.2684 4.3077-0.17298 2.3304-0.16196 5.9313-0.09543l-6.1906 4.4607c-3.0254-0.57886-1.3066-0.36225-5.1773-0.45523-11.44-0.73269-22.873-1.5135-34.32-2.2835-15.042-0.38912-30.071 0.09661-45.097 0.6649-7.8558-0.0087-15.687 1.1078-23.529 0.89975z" color="#000000"/>
 <path d="m32.856 83.848c-1.3261 2.5152 5.6809-3.8577 2.3422-0.25616-1.3069 1.6841 3.9559-0.48375 4.2898-0.63988-0.29669 1.6121 4.1427 0.46041 5.7681 0.89595 1.607 0.37039 4.5606 0.54888 6.4065 0.05453 0.67127 0.7627 3.3069 0.48829 4.638 0.29985 3.0587-0.57706 1.5363 1.0714 4.5427 0.56931 1.7468-0.57951 2.8638 0.07903 3.4676 0.1621 6.0855-2.4831-2.5238 1.7225 3.3419 0.12156 1.71-0.86172 3.0507-0.43644 4.6437-0.81233-0.72434 1.6384 3.0104 0.02915 4.5794-0.27542-0.27493 1.0218 2.045 0.81688 3.0966 0.69913 6.7425-2.7303-1.2364 0.45199 2.9029 0.4782 1.8129-1.0583 2.7129-0.35578 4.4167-0.64921-1.807 1.7168 3.02 0.2112 4.2448 0.1579 1.1116 0.07348 2.2143 0.39374 3.3262 0.32478 4.4367-1.5466 1.4976 1.8013 5.9709-0.21896 1.8612-0.0808 2.1894 0.45857 4.0317 0.50784 6.341-1.9495 0.38821 2.1867 5.3459-0.46197 0.67925 0.08682 1.0668 0.931 2.4878 0.95945 2.8133-1.3178 2.4018-0.33285 3.7333-0.24147 3.4179-1.4811-0.0632-0.07661 3.1155 0.26041 2.5506-0.21151 0.27402-0.95804 4.7939-0.63931 3.5838-0.84012 0.63807 0.98866 6.0125-0.60368 1.0359-0.08149 2.3775 1.0045 3.2664 1.5554 5.2916-2.5874 1.7599 0.42263 6.3834-1.572 0.1924 1.7375-0.10468 1.2168 2.7888 0.55865l-5.2973 3.8487c-0.97804 0.50474-5.2706 1.293-3.9335 0.27305-1.6654 0.38251-2.7901 0.58646-3.8271-0.28523-3.4774 1.7605-2.9544-0.73341-6.8838 1.0728-1.4221-0.11654-2.8057-0.53644-4.2236-0.69597-4.4291 1.733-2.1184-0.54343-3.8381-0.05509-1.3017 0.2676-2.4408-0.25165-3.9781 0.36627-0.85833 0.26186-3.1215 0.19624-2.6339-0.55715-3.7076 1.4458-2.0764 0.03987-5.1093 0.94588 1.7504-2.1183-2.7496 0.72024-4.1267-0.43344-0.62216-0.06914-3.5155 0.36469-4.2495-0.40047-1.8512 0.32936-7.0114 2.1241-4.7863-0.58214-3.7401 1.6712-0.44443-0.70814-4.417 0.4677-0.66542 0.09522-3.99 0.56655-4.2718-0.1383-2.3381 0.4791-2.5946 0.0097-3.8279 0.22146-1.1527 0.1124-4.2265 0.81727-3.4741-0.06323-1.45 0.04649-2.1746-0.03546-4.2798 0.16052-1.0027-0.01291-2.128-0.85039-4.393 0.14005-1.039 0.20741-2.1103-0.19769-3.168-0.25953-1.4084-0.05148-2.3734 0.2414-3.8224 0.22818-3.945 1.3405 1.4564-2.1193-3.9371 0.1652-0.66955-0.11656-3.3272-0.23244-3.0993-1.6757-2.4771 0.82949-4.2434 0.03414-5.7311 0.54552-2.3775-0.10715-3.5832 0.59562-6.047-0.3502-1.9534 0.30788-6.0584 0.51734-6.714-0.15482-0.41715 0.10403-2.3217 0.42672-3.3903-0.01358-4.01 0.89509 3.5383-2.8184-2.9317 0.68447z" color="#000000"/>
 <path d="m32.853 94.59c2.9703-1.8414 1.7938-0.70607 6.0214 0.08386 8.6309-0.15098 17.378 0.37002 26.31-0.57794 4.6306 1.5461 9.2723 0.56372 13.972 0.53854 3.2073-0.09706 6.1532 0.14077 9.1652 0.04877 3.3194 0.44106 6.6994-0.84922 9.8471-0.24671 3.2391 0.64624 5.2579 0.3055 8.5818-0.0849 2.6222 0.5831 5.4641 0.37484 7.9326-0.45664 3.4749 1.8157 8.5276-0.09582 12.678 1.0344 3.4488-1.3558 6.9631-0.90545 10.547-0.53729 1.367 0.37489 1.3215-0.22913 2.7157 0.04909l-5.5074 4.0014c-3.1155 1.4198-0.35768-0.20164-3.0114 0.16573-3.1566-0.71142-6.6359 1.2432-9.661-0.10643-4.9896 0.27732-9.7151-0.34287-14.674 0.41623-0.92395-0.27548-4.263-0.2351-6.2525-0.76397-2.5955 0.12952-7.4193 1.5212-8.2362-0.16618-3.2199 0.91673-6.9806 0.86847-10.279 0.5602-2.9258 0.37511-6.3479 0.35217-9.6148 0.27781-5.9425 1.297-7.802-2.5936-14.72 0.0056-8.5344-1.8783-17.125-1.2265-25.626 0.08072-1.7547-0.63661-7.1641 0.67453-5.3552-0.56789z" color="#000000"/>
 <path d="m32.153 105.61c1.0571 0.2907 5.2105 0.46084 7.8456 0.26802 16.309 2.0323 32.889 0.0691 49.287 1.0616 16.287 0.14022 31.801 0.36527 47.649-1.6578 2.813 1.8427 5.884 0.0996 8.7822-0.72751l-7.5822 5.5648c-2.6764-0.18347-5.2515 0.47235-7.94 0.098-14.964-2.5294-30.454 0.79861-45.57 0.10749-16.965-0.13044-33.663-1.303-50.539-0.1712-4.7246-0.96574-8.1922-0.33902-7.4835-0.51053z" color="#000000"/>
 <path d="m196.63 83.124c-3.3906 3.4901-1.0582 1.449 2.0699 0.08813-1.579 1.7602-1.2901 2.2127 0.92852 1.6259 2.4263-0.45536 4.8272-2.5906 4.205 0.91945 2.007-1.3365 4.8017-0.51038 5.5915-0.39878 2.143 0.77991 9.1433-3.4482 7.3962-0.67798 2.437-0.62078 4.1242-0.64438 5.6434-0.54968-0.4399 4.1328 4.8875-3.062 1.9377 1.8198 4.055-0.99686 7.9296-3.7087 3.1574 0.58404 2.868-2.2373 5.4208-1.4896 7.5085-1.0087 0.35686 1.1952 5.3737 0.20098 5.758 0.18094 3.5128-0.98 0.65614 0.76208 3.1687 0.52477 1.289-0.60677 4.6595-1.2398 4.2721 0.13118 2.371-0.41708 5.1771-0.52968 7.5855-0.35171 1.1825 0.49156 5.768-1.4591 4.4574 0.12499 2.3282-1.0276 1.6532-0.08756 3.4497 0.04694 2.1007 0.27252 6.3658-3.4744 3.65-0.33598 1.6659-0.93421 3.7888-1.0275 5.2899-1.7411-0.75671 0.3504 1.3582 1.1261 2.1875 1.2138-0.32692 1.3622 3.3464-0.62905 4.9303-1.4093-0.48294 0.43668-2.0972 1.37-1.4488 1.31 4.3926-0.40659 1.5016-0.57712 3.8004-1.2203 2.1067-0.76336 3.0076 0.18443 4.5413-0.33249 1.4366-1.0315 2.5904 0.46964 3.5263 0.60727 4.0079-2.1342 1.5355-0.27515 4.4397-1.0554l-7.0007 5.0861c-0.61696 0.1904-2.0442-0.39852-1.6934-0.94054-2.9103 1.6004-2.7506 0.72189-4.5718 0.15351-1.8642 0.30314-4.95 0.70246-6.9754 2.1886 3.0663-3.3871-1.8652-0.33235-2.6912 0.49891 4.1803-4.6565-1.6073 2.1104-1.0637-1.8276-2.3076 1.0396-3.5619 0.54895-5.6248 1.3978 2.645-2.7939-2.2031 0.63613-3.393 0.42702-0.0684-0.01381-1.1404-1.983-3.9532 0.37562-1.432 0.0041-0.79756-1.9106-3.9278 0.30038-0.61997-1.1497-0.86598-1.1168-2.3074-1.687-3.4896 1.6415-5.0054-0.12951-8.9871 1.3702-1.9387-1.3474-3.8601 0.4132-4.677 0.16375-5.2606 1.137 1.2104-2.3115-3.6276-0.20538-1.8652 0.06311-4.0288 0.65393-4.2726-1.3005-2.6785 0.81357-4.2714 1.3485-6.7089 0.46421-0.79002 0.37521-3.0331-0.65212-4.1545 0.04123-1.5776-0.4334-3.3456-0.10488-4.8883 0.4399 3.0823-3.7901-1.941 1.0734-2.273-1.8989-5.7371 2.6566-3.2266-0.49404-8.6248 1.5714-1.8531-0.36415-1.3368-2.4033-4.578-0.34019-0.67517-0.0088-3.593 0.24421-4.1503-1.0424-3.3359 1.6553-0.94769-1.037-3.7465 0.36489-0.42929-6.7e-5 -0.66686-1.3994-0.26042-1.2613z" color="#000000"/>
 <path d="m197.68 102.43c2.8889-1.3046 7.0788-0.49715 10.355 1.1526 14.648-1.3636 29.14 1.1279 43.991 0.58889 8.3926 3.3187 17.196-1.607 25.33-1.2807 1.3009 0.0523 1.8172 2.4247 3.1103 2.5901 3.8052 0.48674 7.5918-1.3127 11.422-1.3987 1.1843-0.0578 2.3687-0.11566 3.553-0.17349l-5.2892 4.2114c-1.1073-4e-3 -2.2146-8e-3 -3.3218-0.0115-12.905 0.28243-25.578 0.75871-38.38-1.0987-15.144 1.3421-30.089-1.0415-45.141 0.31919-6.5233-2.1678-11.113 0.61584-12.671 0.18162z" color="#000000"/>
 <path d="m196.17 96.045c2.0708-0.27546 4.07-1.423 6.6571-1.719 6.4245-0.96652 14.326-1.6049 21.922-1.5394 8.2815 1.818 5.4823 0.85567 15.668-1.2781 4.43-0.92803 5.7476 1.6775 10.857 0.52344 3.5864 2.812 7.4399-0.14022 11.627 1.4489 3.4767 1.5621 8.1899 1.2766 13.843 1.3517 4.9836-1.0635 9.0993-0.97934 14.032-0.5484 0.97391 1.4152 3.3484 1.0714 5.0629 0.96332l-4.8844 3.5493c-1.6477-0.06364-3.4097-0.27954-4.812-1.147-5.092 1.2868-10.471 0.81062-15.245 1.3994-3.3241-0.26208-12.253-1.1673-12.702-2.205-4.8886 0.59998-9.4405-0.32614-14.259 0.49331-8.9494 0.95035-15.228-3.6268-24.709-0.49706-6.5188-2.0694-17.892 4.9929-22.058 1.729-2.586 0.4337-5.7749 2.5374-6.3371 1.3531z" color="#000000"/>
 <path d="m32.622 134.07c9.4405-6.514-0.81412-0.11187 3.6187-1.228 1.9434-0.76225 4.0928-0.8329 6.1555-1.1539 1.8547 0.92193 3.3999 0.62883 5.2066-0.23659 2.1179-0.26184 2.1067 0.6161 3.1817 1.2835 0.29782 0.76398 2.0911 0.80527 5.8565-0.62775-0.75811 1.0396 3.1927-0.24002 4.354-0.20617-1.0262 0.83068 2.7699 0.66143 3.9599 0.0894-0.6866 0.64373-2.9758 1.7151-2.0598 1.9312 2.8462 0.67133 3.8666-1.5097 4.7962-1.2952 3.6185-1.5716 0.50704-0.26243 2.5801 0.60272 1.2904-0.56593 2.7891-0.42048 4.194-0.52739 5.1379-2.1111-0.06424 0.21954 3.5496-0.0395 4.0497-1.4683-3.0585 2.9452 3.3106 0.25922 4.2348-2.0143 4.2198-0.0799 5.9838-0.72895 2.541-0.32464 2.6128-0.11837 2.4822 1.0805 1.9331 0.2406 6.2056-3.0066 5.1725 0.50485 2.6549-0.97595 3.1588 0.39845 5.5495-0.72612-1.468 0.50503 2.8473-0.9495 3.7372 0.43506 2.3625-0.26096 5.0796-1.8081 4.3452 0.34832 0.34131-0.58307 5.2541-1.7279 2.7482 0.81929 2.6987-1.8518 4.8723-1.355 6.4489-2.1381-3.2708 2.5794 3.161 0.2123 4.2955-0.20452 3.9678-1.6382 2.8977 1.0084 1.0543 2.765 3.9726-3.1915 3.4753-0.74537 6.6289-2.1374 2.2492-0.26273 3.814-0.58592 2.6851 0.61842 1.8457-0.60108 2.0331 0.75494 2.0792 0.76827 3.3738-2.2259 1.6258-0.0543 4.6559-0.87476 5.0295-2.1252-0.79191 1.6099 2.5479 0.72578 0.35384-0.12468 0.7077-0.24935 1.0616-0.37403l-5.7727 4.1944c0.38905-0.41509 0.7781-0.83017 1.1672-1.2453-4.7752 2.8158-2.054-0.22486-6.2427 1.959-8.2272 2.706 5.0414-4.3474-3.4294-0.0436-0.69982-0.0996-0.34661-1.668-3.3851-6e-3 -0.95247-0.34039 0.67194-2.2117-2.4979-0.5413-4.8934 0.85186 3.3744-3.8828-2.4827-0.87508-1.661 0.29695-7.6609 3.1319-4.4758-0.27915-5.6787 2.3204-0.69416-0.0594-5.1241 0.80655-3.5615 1.9613-0.93112 0.33479-1.8404-1.2102-7.0837 2.9279-0.28197-1.307-6.2343 1.7138-1.1845-0.62636-1.5078-2.0218-4.3115-0.37245-1.4026-0.0368-1.8847-1.014-4.9165 0.40344-6.7133 1.3974 4.4903-3.7695-4.1194-0.37096 4.2112-5.4517-10.069 4.0005-3.24-1.8332-8.1264 3.471 0.2202-0.87029-6.7208 1.999-0.15196-0.0994-5.5622 1.0058-3.325-1.2028-2.2002 0.71834-2.674 0.0616-5.046 1.0016 4.1985-5.957-2.6386 0.72144-4.4069 0.66242 1.2025-1.0181 2.7165-1.7547 3.6074-3.0542 0.17396-0.25375-7.8043 4.2832-5.0464 1.5799-7.2275 2.7649 7.9338-5.3158-3.7542 0.25028-1.5576-0.97309-0.09453-2.3847-6.1189 1.8218 3.4152-3.0934 1.0796-2.2139 0.16635-3.0867-0.88649 0.38853-8.0364 3.9426-4.9377 0.62575-2.6838 0.53166-5.2331 0.60102-7.7342 1.9215 4.0887-4.235-0.57393 0.27177-1.6198-2.3441 0.46333-4.3154-2.7871 1.0076-4.3472-0.38783-13.393 4.0857 8.4622-4.476-6.7759 1.6046 3.0644-2.9971-4.1334 2.0171 0.76293-1.9554z" color="#000000"/>
 <path d="m32.721 142.89c-2.0449 2.1636 1.8129 0.27796 2.0688 0.21652 5.1576-2.172 4.992 0.64984 7.8054 0.18023 4.3292 3.7945 8.7178-2.4334 14.252-2.5273 1.0547-0.0179-1.3534 1.946-1.0955 2.9689 0.17207 0.68239 1.3389 0.43417 2.0083 0.65125 4.6057-1.2355 10.039-3.9995 16.351-0.60435 3.6819 3.0489 12.161-3.2121 16.153-0.7973 3.728 1.0164 5.6629 1.667 8.8633 2.5918 3.7381-0.20656 15.426-6.1518 15.35-0.72634 5.2486-0.94005 10.342-1.9144 15.699-2.2792 2.2823 0.11723 4.2166-0.72011 6.3298-0.21007 3.0886-1.5155-1.1314 1.9532-0.72472 1.904 3.214-0.38823 3.8813-3.1241 2.2396-0.17644 0.33543-0.0953 0.67086-0.19047 1.0063-0.28571l-5.2948 3.8462c-0.47252 0.19474-0.94503 0.38948-1.4176 0.58423-7.4517 3.2086 2.3378-2.3085-2.6846-0.87605-2.2814-0.79281-4.0112 0.0928-6.4538 0.3299-0.85942 0.13547-8.2014 0.33184-11.316-0.90881-6.7587 1.8994-11.606 0.82002-18.46 2.9588 0.13243-3.5655-9.0586-0.72014-11.417-0.7542-4.502-1.7458-9.4162-1.4471-13.117-1.4153-2.9092 0.14368-14.522 1.2564-13.512-1.4451-1.1395 0.29778-11.634 2.8784-12.393 2.5563-0.99524-0.42248 2.3491-2.721 1.2976-2.9727-3.0982-0.74155-5.8671 3.5686-9.0818 2.9766 2.2613-8.9986-11.117 5.8084-4.4666-2.606-1.8437 0.87547-5.2713 2.344-3.5535 0.86215z" color="#000000"/>
 <path d="m33.841 152.09c-3.7966 1.6175 4.4219-1.6558 8.1859 0.28838 15.781 2.2126 31.249 2.9651 47.616-0.31772 12.849 2.2205 25.337 0.11964 38.093-0.7749 6.892-1.7779 8.3261-0.2599 15.677-2.893 4.3304 0.51542 0.40452 2.2793 4.9194 3.0479l-3.6483 2.6215c-3.4162 0.77532-5.5724 1.7845-8.3963-0.53609-3.6247 1.3869-7.3844 1.8302-10.432-0.8637-13.294 3.077-24.845 4.4735-38.293 0.92095-16.625 4.3537-34.125 4.7623-51.266 2.9287-5.6376-0.20917-5.845-1.5646-10.191 1.1976z" color="#000000"/>
 <path d="m196.48 131.72c-0.12597 1.4814 2.1747-0.55723 3.0831-1.15-0.22243 1.9735-2.1899 3.4362 2.5363 0.54735 4.6468-1.5316-0.0697 2.1256 3.4025 0.0205-4.3595 5.3746 6.419-5.0201 1.1815 1.6278 1.5783-0.8993 5.3415-3.8149 3.418-0.013 3.1968-1.5537 6.7877-3.1654 5.0326-0.97337-2.2375 2.3013 2.227 0.23877 3.0869 0.0466 7.3735-4.6321-3.8465 4.4668 3.3608-0.13977 1.2574 0.89935 4.8152-1.0569 3.5939 0.9069-0.21327 1.7724 5.1907-1.8909 3.6394 0.30554 3.8436-2.1836 2.787 1.3334 4.9903 0.58117 2.5873-1.3564 3.4665-1.7739 4.5006-0.11117 11.746-6.6281-3.4902 3.3092 4.3057-0.97146 0.72249 1.7178 0.62889 1.2722 3.9266-0.72268-3.0547 4.2728 1.0358 1.3844 2.5253 0.48411-1.7549 2.9937 0.43065 1.7707 3.94-0.65025-1.4771 4.1352 3.5825-0.43855 1.3023 3.3732 9.3866-5.3267-2.2926 2.252 7.1483-1.7861 2.9762-0.99598 3.0906 0.17097 3.0233 0.52777 0.78672-0.33166 1.6762 0.22677 2.4752 0.51774 5.714-4.0103-0.41391 2.1313 6.5126-2.9162-5.3362 4.1352 0.49586 1.0014 0.65458 0.92299-4.1144 3.7924 1.6429 0.32428 3.3158-0.59106 3.4589-2.6416 0.64831 1.2078 4.7124-1.0215-1.7048 0.79552 1.5499 0.91386 2.4048 0.61211 6.612-2.837-3.3808 1.1113 2.2666 0.65095 3.0097-0.97561 5.8067-4.3904 3.0873-0.0165-0.38393 0.44732-0.76787 0.89464-1.1518 1.342l-4.3146 3.5701c-0.13312-0.0195-0.26624-0.039-0.39937-0.0585-0.71307 0.17079-2.5149-0.18679-2.0595-0.83466-0.38103-0.0495-6.8405 2.4747-3.2298 0.14517 2.9495-4.2956-2.1651 1.0227-3.6906 0.51009 0.24753-0.36051 1.1139-1.2564 0.7426-1.0815-10.031 4.7245 2.6499-0.48573-2.7596-0.0222-3.5778 1.2832-4.1959 2.2652-5.2602 2.4016 0.46352-0.84701 2.07-1.9106 1.3906-2.541-0.79959-0.74192-1.7822 1.1829-2.6732 1.7744-2.3645 1.17-2.8259 0.67845-3.1799 0.15872-3.7086 1.7894-2.3532-0.0545-4.1401 0.86065-0.11149-0.013-0.68114-0.96188-2.7108-0.79337-0.75015 0.24305-6.1548 1.472-4.6574-0.29654-9.7941 5.7814 5.3609-4.3339-5.786 0.36458 0.5119-0.578 1.2015-1.0066 1.5357-1.734 0.64401-1.402-2.9174 2.1325-4.0344 1.1917-6.6854 4.1864 3.0172-4.4498-3.7315 0.51397-5.2349 2.5847 2.2358-3.2025-3.952 0.74422-1.4739 0.042-1.4915 0.43065-1.7271-1.1624-9.7236 5.4691 4.516-4.3463-4.1829-0.16167-3.3499 0.98862-2.5921-0.18922-5.261-0.43472-2.4107 0.56448-2.4653-0.28629-4.9245 0.84498-3.6764 0.40709-0.34713-1.7533-3.3526-1.106-0.64794 0.41586-9.2573 5.3666-2.6376-0.4609-0.90402 0.22372-5.5504 2.4341-3.1264-0.0582-0.99126 0.46555-5.9263 2.9828-4.6189 0.61191-2.9023 1.3412-1.3254 0.89694-0.5409-1.0294 0.49021-1.2038-1.9838 1.6955-3.1486 1.7288-0.57031 0.0163 0.80005-0.92644 1.2001-1.3897-5.316 1.9722 2.7484-4.8544-6.9253 3.1248 8.6968-7.9977 2.0157-2.1646-0.83855-2.142-0.82075 0.41167-3.0659 0.46886-2.6622-0.44316-0.9765 0.3833-5.565 3.2362-2.31 0.51031z" color="#000000"/>
 <path d="m193.19 141.58c7.7041-5.3305-5.2266 4.2032 4.8831 0.5674 10.609 1.3211 20.084-3.3697 30.782-0.67268 15.862 3.6763-11.08-1.8635 12.323-0.61033 1.0852 0.0581 1.5257 2.4353 2.5985 2.2403 3.6625-0.66577 6.7066-3.9272 10.368-4.5974 0.8428-0.15425 0.64156 1.9922 1.3974 2.4439 0.99037 0.59184 2.2254 0.25736 3.3381 0.38604 5.7769-0.33972 9.2105-0.93381 15.076-0.82278 3.9775 1.1973 10.045 0.40933 15.638-0.23709 1.581 2.3841 4.8835 0.55686 6.7507 0.21434l-6.953 5.7537c-1.1566-0.34952-3.7878-0.31559-3.3031-3.0676-4.9782 2.0406-12.79 4.0776-17.017 1.364-8.32 2.0563-3.0351-0.53627-4.2595-1.3342-1.7191-1.1204-7.2916 4.5703-9.1723 0.79434-11.015 3.691-22.782-2.8158-34.054 3.5378-4e-3 -1.7092 1.4761-4.9105-0.0126-5.1277-3.5586-0.51917-6.7257 3.0818-10.281 3.6259-3.7979 0.58109-14.921-1.7118-19.691 1.3705-2.5814-0.4214-3.4144-1.0462-2.9343-2.085z" color="#000000"/>
 <path d="m193.43 151.13c-0.38741 1.6221 8.0434-0.69692 11.307 0.17384 8.8804 6.7819 12.661 2.6402 23.26 2.2743 2.9399-0.1015 5.7665 2.084 8.6915 1.7325 20.18-5.8132 10.862-4.4723 27.785-5.3461 17.427 4.0792-3.5426 0.39081 20.686-1.182 2.0683-0.13426 4.0092 1.1909 6.0138 1.7864 2.518-0.22435 5.036-0.4487 7.5541-0.67305l-4.662 3.8692c-15.559-3.926 11.677 2.0124-17.785 2.4098-1.974 0.0266-3.3838-2.3169-5.0757-3.4754-3.8548 0.42986-7.7096 0.8597-11.564 1.2896-19.886 0.19299-38.928 5.0167-58.593 0.36694-6.4618-0.56228-11.047-0.27625-13.11 1.3177z" color="#000000"/>
 <path d="m39.601 176.12c-3.0598 2.6728-3.283 3.2669 0.87292 0.79683 2.5997-0.56151 3.278-1.3718 1.7829 1.1565 1.6522-0.82438 3.663-0.60685 5.4012-1.2298 0.84212 1.8478 2.6947 0.54763 4.2846 0.0532-0.27467 1.285 3.4244-0.35966 4.743-0.82638-5.0649 2.6637 2.164 0.89327 2.2065 0.90818 3.5794-1.008 2.1942 0.27785 5.1843-0.33129 0.53706-0.14265 1.7437-0.96762 1.6112-0.42796-0.84364 3.4359-2.0833 3.0655 5.1657-0.14867 4.1841-1.9212 0.65788-0.54358-0.62675 1.4606-0.8937 1.3943 4.7306-3.9272 4.4018-2.304-0.32256 1.5927-2.3167 2.2795-3.475 3.4192 7.3863-4.6844 0.555-0.39178 6.5476-1.4233 0.46241-0.13893 1.6436-0.82594 1.3872-0.41682-5.8417 9.3213 9.1705-6.9074 0.46202 2.1905 2.0701-1.4214 6.8929-2.2613 7.1567-2.4035 3.166 0.37263-4.7966 2.567-3.6397 3.9256 1.253 1.4714 3.1236-3.2551 5.0226-2.8963 1.5501 0.29293-2.7283 1.8087-3.5015 3.1837-0.94266 1.6764 3.4949-1.6102 5.2029-2.4944-0.31846 0.40931-1.4256 1.4468-0.95538 1.228 13.223-6.1543-4.1125 1.8947 4.3335-0.83265 5.6556-2.5056-0.70578 1.8653 4.7239-1.1206 4.487 1.2716-2.5677 4.4288 3.5752 1.104 7.6262-4.1048-6.6207 6.1892 3.7616 0.022-0.0792 1.0058 1.7737 0.9304 3.3121 0.19741 0.33046 0.54288 4.1575-0.24057 5.2278-0.5364-6.381 8.2831 7.1121-10.322 3.3333-0.64615-0.63819 1.6342-9.7261 6.8747-1.2057 1.7481 0.0647 0.82293 2.4929 0.51126 2.7733 0.47955 5.1738-2.7548 4.0228 0.14197 6.3721-0.76582-0.91368 0.89098-4.0164 2.6278-2.7411 2.673 2.0315 0.0719 4.4452-1.0375 7.1916-2.1398 9.8046-2.9244-7.7688 3.3299 3.7122-0.71169 5.6238-1.9797-11.005 6.4775 0.75791 0.29434 2.7815-2.2829 1.7578 1.178 1.6238 1.4809 6.519-4.0246 3.3942-0.0956 8.2585-2.7707-7.7539 8.0542 7.9718-4.7034 0.30073 2.3152l-1.2311 0.89447c-12.777 8.3072 1.4491-1.8946-9.0966 4.0753 8.2459-7.3648-0.43558 0.52026-1.3092-2.2783-6.2487 1.9553 0.884-3.1193-9.0903 3.9438 2.5692-2.217 4.3789-3.8121 0.95341-3.5231-0.89754 0.31357-5.1918 0.97814-5.2408 0.041-4.9977 1.6119-1.7562-0.4421-6.1006 0.56851 4.8733-5.0268-6.7752 4.5437-1.7081-1.2534-1.8154 1.1758-3.4326 2.7378-5.4462 3.5275-3.2454 1.2727 4.7265-3.9807 1.552-3.3458-3.5494 1.0247-5.9006 1.8196-8.408 2.8481 6.2762-5.49-0.01873-1.3522-3.1176-0.35306 7.2631-8.5604 4.6338-2.6645-0.35763-2.561-6.0564 2.7372 0.38363-2.3034-3.8903-0.82043-4.3176 2.4569-1.1948 0.25691-5.0771 1.2126-0.26238-1.376-0.9749-2.7731-3.2325-0.35553-1.1023-0.93148-3.1068-1.0745-5.2892-0.19122 4.776-5.3056 0.05189-1.0429-2.9474-0.55504-3.456 1.7268 3.2077-3.8309-4.5918 0.11251-4.481 1.0817-0.43017-1.5916-0.93558-2.5296-2.5021 1.4517-4.4038 1.8374-8.0607 3.0626 4.4035-5.3231-1.303-1.4117-4.0804-1.3825-7.7242 3.1406 3.3504-1.0201-0.0866-1.2892-0.93696-0.0733-2.4816 0.8459-5.7446 2.0904-0.01862 5e-3 -4.3731 2.0241-2.6067-0.61739-3.9884 0.42309 2.5395-2.7194-3.5979-6e-3 -5.2922 0.98514 1.2876-2.5192-3.0998-0.91395-7.806 4.5442 0.38695-2.1094-7.3316 2.6323 0.88468-0.77461 2.1168-1.2779 2.654-2.3238 0.75459-1.4689-5.4869 2.8765-4.7532 1.397-0.67123 0.17495-1.3246 0.60421-2.0137 0.52485-3.998-0.46038 3.3969-1.8208 1.8452-1.8335z" color="#000000"/>
 <path d="m34.713 185.85c-1.426 1.5275 1.4197 0.45204 5.6587-1.7836-12.39 9.461 3.6562 2.798 10.298 5.1004 8.8686-3.1704 16.691-0.2674 25.563-0.36112 9.6098 0.097 9.3847-1.804 18.795-0.053 0.6113 1.0681 9.5788 1.687 12.681 1.0177 4.9674 1.0106 15.799-6.9866 6.5415 1.4122 6.6309-4.1792 5.2932-0.43806 11.607-3.7684-6.1626 5.26 1.1707 1.4191 3.396 1.8777 11.539-5.9149-14.411 11.893 10.459-2.7146-14.142 9.7307-0.14144 3.6039 3.7985 1.4646-1.3597 1.1649-2.9284 2.123-4.0791 3.4948-0.99724 1.1888 2.8553-1.2204 4.3154-1.7456l-8.4093 6.1098c4.6172-4.4523 4.7682-3.9383-0.18623-1.7854-6.6128 2.1676 6.6214-5.8245-7.0542 0.90131-4.3514 1.0194-4.9199 0.18897-4.1936-1.8466-1.1341 0.49367-9.5563 3.784-6.6107 0.36314-2.6673 1.087-5.3134 2.3943-8.1575 2.849-12.431 1.9875 12.309-5.7853 0.68763-1.9832-3.4744 0.68699-6.0044-0.46928-10.128 1.1837 2.0232-4.5775-5.0528-0.27866-7.3062-1.3052-5.9191-2.6964 10.482-3.7674-1.8573-2.2876-4.6625-0.44514-18.963 3.6508-18.776 0.0389-9.7002-1.6066-16.919 3.0826-25.987 0.66807-7.1601-5.0454-11.346-3.3561-17.668 0.13592 4.442-7.5142-8.5152 5.7158 0.60023-2.6157z" color="#000000"/>
 <path d="m32.335 197.1c-2.5181 2.5567 4.6739-3.24 4.4712-1.8931-0.57204 3.8024-7.0699 3.9928 0.34898 2.9232 9.1126-6.8804 13.398 0.13695 22.085-0.32158 14.943-0.78873 5.7445-3.6665 16.135 0.9805 10.67-0.70373 46.381-1.3369 54.457 2.1955 11.82-2.2854 6.7766-2.5684 15.115-1.0985l-2.5267 1.8213c-2.3064-8.8064 0.23248-4.1566-15.812 1.5997-18.69-2.5501-35.711-1.6734-54.229-2.3408-10.452-6.7861 0.78367-1.2471-18.747 0.91713-3.1824 0.35266-5.4376-5.0059-9.1794-2.8292-3.0179 0.46311-5.7041 2.2951-8.7083 2.8405-0.92515 0.16794-1.8097-0.51126-2.7146-0.7669-16.353 6.6147-2.3536 2.0786-3.6544-0.5216-0.0095-0.0191-3.7571 2.289-2.4236 0.4054z" color="#000000"/>
 <path d="m194.34 178.92c7.48-5.5575-3.9794 4.0002 6.4962-3.8216-0.44996 1.5094-6.8334 7.1842-0.40782 2.8008 8.5698-4.9177-7.3564 6.3433 2.6698 0.30614 1.8103 0.64499 3.6661-1.1508 5.4211-1.9706 8.5958-4.9008-12.265 8.8913 0.49889 0.83052 1.3131-0.82925 0.12089 0.7592 0.17891 1.1235 5.198-3.5562 3.9567-2.1926 2.5348-0.44618 11.302-7.1713-8.1451 6.5833 7.7629-4.0591-7.4293 6.4419 3.508-1.2368-2.3723 5.0042 7.6464-4.9734 2.6941 0.23438 8.1447-3.5345 9.9899-2.9681-12.323 6.3074 1.7775 1.2346-0.85287 0.84094-1.7058 1.6819-2.5586 2.5228-13.288 8.9901 6.6862-5.2179 5.2734-3.541-0.1141 0.13546-7.3567 6.217-2.1246 3.0581-0.73815 2.2276 7.0554-4.7744 5.7118-2.9504-1.944 2.639-8.258 6.6424 0.94522 0.28854-1.6368 3.4762 1.0608-0.55435 0.95454 3.1081-5.1911 7.3302 9.722-9.029 3.9124 0.0456 5.6665-2.2163-4.7534 3.8364 3.6324-0.67642 8.0238-5.5971-4.8167 5.349 5.6679-1.7866-5.5199 5.7816 2.6801 2.2528 3.2114 2.1434 0.63574-0.30632 1.221-0.83339 1.9072-0.91897 1.3805-0.17215-3.3966 2.1891-2.7348 3.5797 0.57391 1.206 3.4501-3.4018 8.6915-4.3994 5.483-0.95182-2.3924 5.1695 4.2492 2.0285-2.2808 3.3753 3.5178 7e-3 4.1623-0.45576-5.2241 5.7556 5.7973-4.169 0.40929 1.8592 6.3478-4.9611 0.14468 0.19648 5.2334-2.5584 4.6612-2.9082-0.15743-0.10191-0.98694 1.6569-1.0804 2.2907 7.6131-5.6074 5.9955-3.7723-1.5573 1.7666-3.4322 3.1285-5.1483 4.6927 2.5038-1.0118 10.612-6.3597 6.3828-1.8925 3.6117 1.7064 3.0415-5.9094 6.1614-2.8219 1.218 1.2054-2.4854 2.3445-3.7281 3.5168 2.257-1.3374 2.6801-1.1012 5.4117-1.9637-1.2306 3.2103 3.0045-0.80282 0.87281 1.7203 2.7998-0.76094 7.6357-5.442 0.28301 1.4996-2.599 0.28903-2.3464 0.46776 0.43906-0.88447l5.096-2.2734c-0.34256 0.196-0.68514 0.392-1.0277 0.588-2.0782 1.3653-4.1565 2.7307-6.2347 4.096-3.2376 1.4938-0.35688-0.41136-2.3332 0.0999-0.92823 0.34075-2.4674 1.7769-2.8497 0.75505-0.61167-1.635 7.7704-5.9225 3.4061-3.658-10.188 6.8424 1.1223-2.0822-8.5803 4.5854 2.1745-2.6534 3.9094-4.4965-0.0876-2.6363-8.104 4.0788 3.214-3.7991-7.2208 2.587-5.0932 2.7009 0.44387-1.2588 1.0022-3.247-5.9132 3.7867 1.1087-2.0066-5.7706 3.1415 6.318-7.4898-3.3206 3.4351-1.9574-0.76106-2.0315 1.2347-4.0949 1.9309-3.2662-0.28533-4.5276 2.3377-4.5714 0.65112-9.3017 2.1484-4.5503-0.4359 2.0564-3.396-1.844-3.2724-1.2605 0.81439-12.878 6.3304-6.8829 0.92775-3.8969 1.5924-5.1806 2.2535-2.6994-0.70399-9.5741 6.5214 8.0486-5.9868-3.4595 1.6575-0.7056 0.4687-2.5316 2.1484-2.1588 1.3206 0.7635-1.6954 5.0374-3.8394 1.0842-1.6833-1.5295-1.3852 2.2008-3.686-2.7391-0.9218-1.825-0.44101 3.4644-4.9254-6.6623 1.4515 7.2451-7.9052-10.915 7.3384-0.6603-2.0695-9.6697 5.2149 8.3232-7.7483-6.9151 3.1936 4.8251-4.6616 4.5273-4.5392 0.71006-3.2932 4.083-4.5146-3.0628 0.97575-4.5094 0.52585 3.8733-5.4601-1.5033 0.47381-3.2459-0.33817-0.99678 0.54651-2.7163 2.8602-2.9904 1.6395-0.33133-1.4756 3.926-2.9335 2.3027-3.3872-4.108 2.8747-5.2776 3.7791-6.9149 4.0066-2.6348 0.0518 1.3221-2.2774-2.7862-0.20941-8.4654 4.6073 5.4503-4.4602-1.2306-1.4968-1.434 0.15465 0.35282-1.5928-3.42 0.31456-2.1146-0.0844-0.64628-1.5012-2.4011-0.47651 0.652-0.78955 2.8064-2.8552 1.956-2.3686-15.853 9.069 3.0304-0.62206-5.1873 3.4888z" color="#000000"/>
 <path d="m191.59 187.54c1.0579 0.84342-1.9642 0.19534 3.4658 0.19708 2.6746-0.82534 0.0728 2.7841 0.98687 2.9629 5.6821 1.1119 19.677-13.744 12.225-0.14982 5.4442-0.82372 11.018-4.6473 16.37-5.4866 6.3062-0.98886-0.61689 4.7776 10.42 0.60138 1.053 0.12183 2.1717-0.0691 3.1589 0.3655 1.6549 0.72843 3.7942 4.4014 6.1045 3.7449 8.138-2.3124 7.7209-7.3919 7.1696-0.51131 8.2463-3.5109 11.511-0.35079 18.125-0.37338 7.964-2.1659 3.1201 1.7206 6.75 2.0617 3.8159-0.33184 7.1629-0.51647 10.433-1.7463-5.0827 4.8809 6.3042-1.2092 6.5544-1.2408-0.3628 0.48033-0.0487 1.7418 0.50416 1.812l-2.2012 1.9888c0 1e-5 -7.6042 5.8892-5.7635 2.9411 3.6405-4.5271 0.28731 3e-3 -1.356 0.0872-0.73284 0.0374 0.9204-1.3012 1.3806-1.9518-0.0434-0.23452 0.0791-0.68006-0.13034-0.70359-1.1304-0.12698-2.1483 1.2005-3.3016 0.96029-1.1368 0.61285-2.2737 1.2257-3.4105 1.8385 0.47025-0.88006 2.2789-2.9294 1.4107-2.6402-2.3392 0.77946-3.9773 3.3566-6.281 4.263-3.021 1.1887 6.4254-7.4626-1.979-1.9173-3.6651-2.0859-2.8901-1.1158-10.156 0.93776 2.6524-7.9867-9.2243-7e-3 -13.42-3.7829-6.1553 1.6111-4.2402-0.81861-9.5298-0.40806-3.4513 0.26788-6.6722 3.4343-10.085 2.7893-0.89173-0.16855-0.0676-2.0575-0.10151-3.0862-11.206 3.4221-9.2079-1.3198-9.5017-1.3648-1.7418-0.26634-12.706 2.695-14.213 3.5681-2.1574-5.3256-10.942 1.9042-15.543-0.79339 2.5041-8.4464-7.0278 5.3884-1.1799-2.1688z" color="#000000"/>
 <path d="m195.44 195.1c-1.5544 1.6651 1.6225 2.4351 3.1036 4.7558 6.5852 0.54331 17.135-5.6774 23.295-3.3333 1.3383 0.50931 0.94565 3.0281 1.4185 4.5422 2.772-0.48167 5.544-0.96333 8.316-1.445 5.6511-9.9942 14.236 3.9996 16.358 3.8631 5.9203-0.38087 15.004-10.171 19.65-2.2701 15.428-10.85 5.5305 3.9024 20.276-3.1998 5.0257 4.607 2.0356-2.0365 9.8283-0.74631 7.494 1.2407-12.894 8.6817 1.8943 2.4968l-1.7681 1.612c-18.817 12.039-2.1706 3.2165-4.8269 0.17361-2.3596-2.703-11.142 8.71-9.6253 0.53766-4.9816 2.5507-12.419 5.4203-14.44-2.0851-2.9675 0.87081-25.69 8.4874-26.191 8.1957-2.6562-1.5444 6.4362-8.3686 3.5782-9.3392-6.5719-2.2319-12.702 10.376-19.993 5.5256-9.6423-8.279-22.896 7.5356-30.874-1.7895-1.4342-0.10886-3.7183 0.83627-4.2711-0.67476-0.24099-0.65875 1.3233-1.9301 0.69873-1.9875-0.66553-0.0611-8.5207 5.8997-2.6615 0.86921z" color="#000000"/>
 <path d="m34.132 224.52c-0.97832 2.0702 7.433-5.2848 5.8015-3.6782-11.726 11.547-7.212 5.728-5.5787 5.1249 4.1491-1.8284 6.5735-3.416 5.7145-1.6744-1.8268 0.78882 0.88437 1.2423-1.2608 3.6625 12.357-7.4663-0.0073 1.2518 6.2674-2.5808 1.8865-0.10961 3.2458-3.7899 5.0597-3.0315 1.1755 0.49145-1.2372 2.271-2.1487 3.1611-0.68933 2.0828-0.205 1.4083 5.4371-1.4512-3.5642 3.4632 3.6943-0.25863 4.3303-0.59383 0.21876 0.77003-5.2109 3.58-3.5714 3.417 2.0222-0.20106 3.8196-1.4208 5.6191-2.3649 3.3926-1.1517-2.7385 2.1146-3.7271 3.504-0.78652 1.1055 2.323-1.403 3.4664-2.1334 18.832-12.032-10.372 7.361 6.2869-3.276-5.4693 5.316 1.9444 1.0011 2.2313 0.88074-0.63107 0.604-1.4578 1.0547-1.8932 1.812-0.61996 1.0783 2.283-0.99808 3.3682-1.6057 8.3508-4.6758-4.6538 2.8935 1.6566 0.1873 14.702-8.2421-9.5598 8.3022 6.874-2.2404-2.0338 1.6281-4.283 3.0188-6.1013 4.8844-1.628 1.6703 7.5402-5.1389 6.2116-3.2218-1.323 1.9092-10.126 7.2448-0.4672 1.1365 11.351-5.8459-3.2465 2.3165 4.3362 0.12906 1.773 1.3633 7.2798-2.7364 2.1983 2.1978 2.1275-0.80667 7.6495-3.1568 7.438-2.9365-1.1295 1.1764-2.4652 2.1357-3.6978 3.2035 1.8036-0.2885 9.9624-6.083 10.954-5.5133 1.7398 0.99969-6.4252 4.119-1.076 1.9186-7.0245 3.7665 1.7674 1.1762 2.7731 0.73345 2.3492 0.751-1.7384 2.8626 5.1875-1.9393-0.0164 6.1535 4.093-10.058-2.4249 3.0349-1.0728 2.1549 4.4008-1.9794 6.4654-3.2171-2.2193 4.2654 3.5586 0.26497 5.2489-0.61059-6.6936 7.4077 6.0069-5.4366 1.85 2.0486 9.769-5.286-4.3063 5.515 7.0501-1.118-3.78 5.0804 5.4524-4.6545 2.2829 1.1671 7.4089-3.8122-1.2762 2.6681 6.9213-2.6632-12.734 12.096 7.7979-5.8981 0.20198 2.392 2.8975-1.1625 9.5487-6.6518 1.6908-0.0312l-6.9803 5.4135c7.0403-5.8937-5e-3 -0.41129-2.4315 0.24969 0.69266-1.3196 3.0843-6.2653-2.8919-0.18612 6.9514-7.4464-5.581 3.0228 0.14138-2.742-3.3059 0.67017-3.8023 0.60331-6.4113 1.8323-13.266 3.6164 4.4352-4.3252-7.6222 1.5331 9.8478-9.0671-6.8616 5.1336-1.3786-2.3915-12.504 7.2463 18.261-11.743-7.3232 3.2174-0.17725 0.10365 0.056-0.40682 0.084-0.61024 1.2218-1.0579 2.4436-2.1158 3.6654-3.1737-4.2185 2.0078-2.382-0.23094-5.8186 1.7647-1.1794 0.68525-3.5918 2.6924-4.3105 0.97271-8.7523 3.3006 4.7844-3.4391-3.9149 0.0962-3.8413 1.4011-3.0574 0.34571-1.5343-2.4674-1.434 0.5242-5.4874 2.1423-6.3917 1.6595-0.62241 0.25545-5.9319-1.0661-5.9046 0.49504-9.1114 1.7075 9.4095-7.165-6.1611 1.1968 5.7891-6.0019-15.353 9.8854 1.7676-3.8241-10.203 6.6024-3.4752 1.4457-1.111-1.9467-9.7958 6.4702-5.8214 2.7114-12.149 6.1582-3.7103 1.8205 0.40773-2.5662 0.4865-2.8554-0.38715 0.24469-14.267 6.9378-3.0503-0.2568-0.4728 0.0631-1.7014 0.5732-1.4184 0.18923 6.2831-8.5249-9.0802 7.3567-0.75609-1.1494-12.491 7.793 1.6874-2.1532-8.3777 3.532 0.56487-0.95445 1.0424-1.9663 1.6946-2.8634 0.57077-0.78493-12.086-0.70052-2.694 1.1043-1.9349 0.69248-3.9113 1.2897-5.7807 2.1432 9.4488-8.3304-14.312 9.4509 0.86799-2.8024-18.79 11.774 6.9051-5.2072-9.409 4.0895 3.8734-4.68 1.5787-3.4728-3.4779 0.0494 1.3504-1.1083 5.7881-3.5137 4.0513-3.3249-3.395 0.36909-9.9411 8.4312-0.88331-0.0485 0.39865-0.3732-1.9774 0.89477-1.5332 0.57709z" color="#000000"/>
 <path d="m30.697 238.38c2.5687-2.4344 5.6153-2.7785 4.7785-1.7694 3.048 1.4953 10.77-6.2739 8.0038 1.581 4.928 0.63384 8.9163-5.7347 13.741-5.0229 1.3962 0.20599-3.0705 3.3483-1.7529 3.854 0.75738 0.29068 9.8378-0.98456 11.854-1.8103 3.7138-1.915 10.983-0.92752 8.7954 3.2374 19.528-10.1 0.39181 2.3614 15.31-3.3173 5.033-2.572 4.4225 0.6626 8.9895 1.6063 5.9802 1.3636 6.8483-1.9403 13.139-3.9675 0.68707-0.22142-1.1688 1.3584-0.83466 1.9983 0.29065 0.55668 1.256 7e-3 1.8839 0.0113 3.714 1.1314 9.0148-3.5452 9.7982 1.1301 8.2648-5.1266 4.1895-0.77563 11.301-3.951-9.4856 5.9418 1.0601 2.6403 1.1088 2.6372l-5.3621 3.895c-1.4182 0.41004-5.9631 2.1976-3.2902-1.0354-3.7226 2.147-5.6118 1.9466-8.4149 1.893-5.8413 0.9418-8.865-1.8831-16.563 3.8352 4.0827-5.4743-0.80181-4.9864-7.0652-3.3224-4.348-2.3879-9.7135 1.7226-14.31 2.2591 2.8015-4.1474-5.3742-3.1382-9.2445-1.0899 1.6349-4.9292-11.54 2.2769-12.778-0.34369-6.5368 0.21619-12.251 1.2439-16.251-2.5362-8.5436 2.8296-7.796-0.51335-15.604 3.941 10.438-8.9855-4.9482 2.8674 0.61581-2.1498z" color="#000000"/>
 <path d="m31.038 244.9c6.0082-4.6799 0.0217 1.1865 3.4471 1.3911 5.872 0.35075 5.0577-3.6759 4.562 2.563 7.9395-0.41768 16.812-2.7771 24.746-2.4534 2.1665 0.0884 3.8455 2.461 6.0137 2.48 23.44 0.20561 5.5868-5.7916 21.163 0.78131 4.9518-0.66754 9.8687-2.317 14.855-2.0026 2.7017 0.17035 4.67 3.2619 7.3734 3.4042 9.3977 0.49472 18.527-5.9637 27.846-4.6523 1.6154 0.22734 1.2234 3.0245 1.835 4.5368l3.7118-2.7052c-21.476 6.173-13.757-1.3196-29.658 0.10807-11.213 1.0067-21.641 6.9348-33.138 6.5166-10.515-8.499-13.773-3.8359-26.673-3.6512-7.0229 0.10054-13.383-5.894-21.011-0.28344-5.8501-3.214-18.785 2.8134-10.904-1.7966z" color="#000000"/>
 <path d="m193.92 225.79c-4.4304 4.923 15.171-13.551 2.718-0.95329 3.1855-0.25429-4.8475 5.0218 3.948-0.92888-5.0696 4.0692 3.4752-0.47112 3.542-0.49777-2.3814 3.0919-0.78762 1.0866 2.7905-0.73598 0.70526-0.35924-1.8417 0.98917-1.6723 1.8765 0.15093 0.79036 1.2092-0.75679 1.8138-1.1352 5.9814-3.7539-5.1806 4.3696-4.1627 4.7952 0.94135 0.39356 7.3158-6.4592 3.6444-1.2911-0.099 0.75324 12.228-8.1562 10.981-6.5324-3.3783 4.3977-14.578 12.35-3.2242 3.9847 5.2625-3.6517 1.8415 0.95591 1.4518 1.5185 1.256-0.0938 8.963-5.9099 1.4513 1.5874 4.9806-3.4324 6.3376-3.4522 3.3374-0.21234 5.0043-2.5951 9.8838-8.38 4.5967-1.449 3.7609-1.2496 7.7116-7.8285-0.91777 2.0917-1.8069 2.0771 4.4357-2.8333 6.5583-4.437-2.2713 5.1549 12.93-9.7608 1.0497 1.6454 1.938-0.72187 0.46581 0.89013 2.8465 0.0435-0.83136 1.3436 5.8456-4.804 4.6641-3.2002-1.147 1.557-2.7132 2.598-4.0698 3.8971-0.99622 1.0008-4.1468 3.7179-2.9887 3.0024 4.7039-2.9062 9.1748-8.159 4.9257-3.3651 10.855-8.346-4.0724 4.277 4.8129-1.6376 0.48247-0.26995 1.814-1.2693 1.4474-0.80986-10.132 12.697 4.2885-3.0448-0.88863 2.7877 11.363-6.7899-6.7097 4.3711 6.4095-2.9867 4.6034-3.1233-3.0753 2.3435-2.0888 2.6202 6.0393 1.6937-2.4827 2.6096 1.745 0.21508 4.0725-2.7953 2.5221-0.67697 4.1161-1.016 10.947-8.3919-3.1065 3.786 3.4328-0.27322-2.464 4.7042 7.8115-6.6478 1.6497 1.7032 0.64117 0.4993 6.6684-3.5676 5.7117-2.2612 10.3-6.7417-8.7455 6.7843 0.84913 1.7839 4.9573-1.6686-4.7844 4.7027 2.6227 0.2458 1.5206 0.86209 4.7322-1.7124 7.8479-3.8609-13.235 13.056 7.7723-4.652-0.0261 3.4735-7.6799 4.8297 5.849-4.7233 4.9142-2.865-1.046 2.0791-3.5602 2.6071-4.7714 4.5562-3.4534 5.5576 8.9352-8.6946 1.8788-0.72503 8.0696-4.3234-0.0535 1.4424 7.3372-3.0282-1.8554 2.3211-0.83488 3.0187 1.1644 1.6227 1.6098 2.0333 9.2246-8.0524 1.0072 1.6633-0.52396 1.4572 4.9073-2.9004 7.168-3.6355-1.4078 3.0873-7.5645 5.9031 4.7857-1.5927l-8.5606 7.3712c2.4831-3.1911-3.1306 1.349-3.9759 0.89545-7.7158 5.3767 1.4098-1.829 0.24966-1.4922-1.6241 0.47159-5.0438 4.7203-4.3781 2.9023 0.20233-0.55253 0.70473-0.86808 1.0571-1.3021-0.67656 0.39985-5.8033 2.1966 0.62668-3.0702-4.952 3.5604-10.371 6.778-2.5542-0.42591-2.6017 1.7025-17.566 11.453-9.4784 4.8719 3.55-4.1071 1.1276-2.0619-0.88675-1.9434 0.96725-5.0262-6.6029 4.7021-3.4452-0.48443 4.4849-6.0916-7.7496 5.7307-2.9056-0.39479-4.6301 2.8664 0.45639-0.059 0.36669-1.1842-0.20869-2.6177-0.52277 1.3613-5.639 4.06-0.4138 0.21827 1.6894-1.3247 0.65949-1.408 5.458-7.9588-14.678 12.268 0.55585-2.9937-1.4968 1.1453-3.3854 5.0922-4.4903 3.4358-1.1-1.6491 2.9028-2.4622 4.1196-3.9916 4e-3 -5e-3 -13.497 12.045-4.5279 2.1169-9.6629 6.6145 13.099-11.358-5.5522 1.6571 6.3112-6.8281-4.3192 2.509-4.9612 1.5893 1.4868-1.8104 6.6012-6.1368 4.6007-5.2643-20.649 9.0053 3.5904 1.4858-4.8305 2.934-0.20405 0.0368-4.07 1.9329-2.6737-0.23709-1.051 0.49157-7.6115 2.437-0.43412-2.1585-2.741 2.0538-8.6168 5.1901-0.6774-1.8757-18.779 13.784 3.132-2.7365-8.717 4.9993-0.74787 0.33152-1.614 0.0708-2.3772 0.34906-0.86565 0.31561-2.9931 2.3736-2.3484 1.6197 1.5153-1.7718 3.3303-3.1432 4.9954-4.7149-3.5632 2.4626-5.2859 2.6993-6.6236 3.2088 4.7597-5.5016 0.74919-1.2688-2.7758-0.15924 0.72309-0.75359 3.1308-2.3215 2.1693-2.2608-1.766 0.11145-6.1442 4.8247-5.3038 2.4483 4.8542-5.3714-0.10128-0.37688-0.30067-1.3808-0.18197-0.91619 4.4024-3.5521-0.499-0.43968-5.8503 2.7542 3.0971-3.3319-3.0066 0.85783-0.9206 0.63193-3.4944 2.8192-2.7516 1.9165 1.6041-1.9494 3.5856-3.4058 5.3783-5.1088-12.538 6.4044 3.6933-3.3221-8.1554 4.1858 3.7523-5.7686-3.7463 2.5092-1.3057-1.6642-0.98909-0.26781-10.272 5.5642-3.4323-1.1745 3.3844-5.076-7.9849 5.365-2.6506-0.75705-5.532 3.864 0.22304-1.6497-6.0391 2.6701 5.1269-5.2407 2.4298-2.5794-0.51113-2.112-0.29985 0.17238-7.2297 4.9289-4.4056 1.3229-2.1936 0.9781-8.5312 5.6976-0.75988-0.73273z" color="#000000"/>
 <path d="m191.24 235.78c6.9072-4.7764-7.2027 6.9728 6.2817-1.2796-1.0154 1.3688-4.4351 3.3237-3.0463 4.1064 2.9225 1.647 5.7158-4.502 8.9516-4.4531 5.6374 0.0851-17.5 13.558 5.0548 0.98599 1.7262-0.76047 3.3437-2.094 5.1785-2.2814 1.4167-0.14466 2.4873 2.1102 3.9076 2.0281 3.566-0.20612 6.9789-3.1935 10.501-2.5001 0.81864 0.16117 0.26869 1.9411 0.40303 2.9116 8.2229 2.8688 16.334-1.2538 24.726-2.6774-4.8891 10.383 5.5532 2.5863 9.6442 1.1164 2.5402-0.17283 3.669 0.79303 6.5868 0.29488 2.4149 4.469 5.4248-3.6284 8.8292-0.18401 17.38-8.1706-4.9183 6.4616 4.9516 1.4879 1.482-0.20391 6.5213-3.0683 6.1943-2.4163-0.63375 1.2638-3.7545 3.4823-2.5321 3.2322 3.3363-0.68273 9.1346-7.9944 2.8635-0.66125 25.844-15.947-15.654 7.9643 7.5454-2.9924 0.90573-0.61166 1.8114-1.2233 2.7172-1.835l-8.3326 7.1749c-0.55933 0.31338-1.1186 0.62676-1.678 0.94016 4.738-5.5482-1.5915 2.1484-3.2253 1.7025-10.011-2.7323 10.204-5.4873 1.8579-4.0298-7.3464 3.314-0.3193-1.9203-7.8863 2.8608-1.4789 0.93443-3.7749 4.6924-4.4128 2.8556-0.67585-1.946 2.6133-2.85 3.9199-4.275-14.16 7.8875 9.133-11.102-8.7947 1.8575 5.1648-8.7644 2.752-0.791-3.9115-0.18895-1.653 0.14935 3.4772-2.3279 3.4098-4.2911-0.11791-3.4362-8.7171 8.7409-7.8848 4.3723 1.9498-6.4384 0.64363 0.59757-4.2335 0.30616-2.0941-0.12512 19.293-18.33-6.3916 2.9796 1.7876-1.8715 5.3196-2.7882 5.3629-5.6146 0.0371-2.4223-3.2901 3.4731-5.3319 3.5908-1.2571 0.0725 2.4654-4.6655 1.2654-4.2161-7.4832 2.8024-6.5047 7.0151-6.993 1.4953-3.4615-0.40393-6.4715-1.2481-9.9727-0.20773-4.9597 1.4737-9.6165 7.7382-14.499 5.937-1.5483-0.57125 1.4543-3.4357 2.1815-5.1535-2.835 0.42731-9.6684-0.50835-11.129-0.22561-2.5106 0.48584-5.7627 5.7773-7.1275 3.233-2.3868-4.4494 14.763-11.596-0.6745-4.0911-2.0661-5.7982-21.246 13.03-10.749-0.8033-13.663 8.9701-3.5967 0.62189-6.4202 1.3988z" color="#000000"/>
 <path d="m188.68 245.73c0.90694-0.67585 3.4766-3.6669 4.6105 0.95373 13.538-3.7312 27.372-0.73541 41.224-2.4165 7.9467 11.941-5.1904-5.11 14.854 0.31713 8.7641 2.3729-9.9694 10.655 2.8573 9.4163 12.505-4.5522 6.7543-3.4831 17.098-4.2929 2.0157 12.804 15.627-7.8197 28.436 1.556l-1.5582 1.3972c-2.598 0.35312-4.7967 1.3527-7.1663-0.64739-0.80173-0.67671-0.80671-2.9722-1.7726-2.8592-7.6392 0.89404-13.917 8.1542-21.975 4.1417-2.7855-0.92794-5.2768-3.076-8.1127-3.7293-10.857-2.501-21.179 10.476-31.654 2.7182-2.7014 0.0633-5.4188-0.17859-8.1043 0.18992-3.5231 0.48344-7.8761 5.3602-10.462 2.3578-2.1738-2.5238 5.9848-7.2754 3.9274-9.9447-2.4902-3.2308-17.724 7.6601-22.14 5.7759-2.4402-2.3794 2.7458-6.5792-3.4923-1.8469z" color="#000000"/>
 <path d="m111.96 9.1713c0.83532 0.031739 1.6713 0.050369 2.507 0.073643 5.6214 0.20599 11.247 0.24608 16.872 0.28849 7.8363 0.03861 15.673-0.02359 23.509-0.05774 5.463-0.13773 10.923 0.05524 16.383 0.21499 3.5186 0.1129 7.039 0.10059 10.559 0.08289 1.5708-0.02186 3.1417-0.03075 4.7126-0.04331 1.3618 2e-3 2.7236 0.0059 4.0855 0.0062 1.3542 0.0067 2.7084-0.0045 4.0625-0.01165 0.94924 0.1187 1.8864-0.09053 2.7863-0.19065l-5.9098 4.4975c-0.9569 0.02997-1.9156 0.08953-2.8754 0.05155-1.3436-0.0072-2.6873-0.01842-4.0309-0.01105-1.3695 0.0013-2.739 0.0057-4.1084 0.01104-1.5264-0.01147-3.0531-0.0147-4.579-0.06218-3.4265-0.08871-6.8524-0.20035-10.278-0.30632-5.3646-0.18798-10.727-0.44723-16.097-0.39493-7.7832-0.03433-15.567-0.09666-23.35-0.05774-5.8892 0.04351-11.779 0.0892-17.666 0.28849-0.90323 0.02364-1.8068 0.04226-2.7097 0.07364z" color="#000000"/>
</svg>
