<?xml version="1.0" encoding="UTF-8"?>
<svg width="300" height="147" version="1.1" viewBox="0 0 300 147" xmlns="http://www.w3.org/2000/svg">
 <g>
  <text x="20" y="6" display="block" fill="#000000" font-family="'Liberation Sans',Arial,sans-serif" stroke-width="1pt" style="line-height:0%" xml:space="preserve"><tspan x="20" y="6" font-size="6px" style="line-height:1.1">angle = 30°</tspan></text>
  <text x="84.742744" y="6" display="block" fill="#000000" font-family="'Liberation Sans',Arial,sans-serif" stroke-width="1pt" style="line-height:0%" xml:space="preserve"><tspan x="84.742744" y="6" font-size="6px" style="line-height:1.1">angle = 60°</tspan></text>
  <text x="147.24278" y="6" display="block" fill="#000000" font-family="'Liberation Sans',Arial,sans-serif" stroke-width="1pt" style="line-height:0%" xml:space="preserve"><tspan x="147.24278" y="6" font-size="6px" style="line-height:1.1">angle = 90°</tspan></text>
  <text x="232.24278" y="6" display="block" fill="#000000" font-family="'Liberation Sans',Arial,sans-serif" stroke-width="1pt" style="line-height:0%" xml:space="preserve"><tspan x="232.24278" y="6" font-size="6px" style="line-height:1.1">angle = 0°</tspan></text>
  <text x="250" y="92.058548" display="block" fill="#000000" font-family="'Liberation Sans',Arial,sans-serif" stroke-width="1pt" style="line-height:0%" xml:space="preserve"><tspan x="250" y="92.058548" font-size="6px" style="line-height:1.1">angle = 15°</tspan></text>
  <text x="30" y="134.55855" display="block" fill="#000000" font-family="'Liberation Sans',Arial,sans-serif" stroke-width="1pt" style="line-height:0%" xml:space="preserve"><tspan x="30" y="134.55855" font-size="6px" style="line-height:1.1">angle = −45°</tspan></text>
  <path d="m31.722 18.16c3.562-0.31962 14.748-6.2233 14.275 0.40665-5.5584 10.338-10.774 20.905-15.677 31.588-1.5144 3.6516-14.286 28.672-3.5612 25.874 9.2504-3.8923 17.813-8.2258 27.991-8.6406 2.1619-0.12235 4.277 0.17599 6.3814 0.61765l-22.508 12.995c-2.1044-0.44166-4.2195-0.74-6.3814-0.61765-10.178 0.41479-18.74 4.7484-27.991 8.6406-10.725 2.7975 2.0468-22.223 3.5612-25.874 4.9034-10.683 10.119-21.25 15.677-31.588 0.4725-6.6298-10.713-0.72626-14.275-0.40665z" display="block"/>
  <path d="m136.21 20.962c4.3547-12.132 20.502-2.8783 26.816 2.2187 21.619 25.91 18.21 67.699 16.258 98.997 5e-3 -7.1044-0.0699-14.209 0.0138-21.313 3e-3 -0.27534 33.897-18.977 37.179-20.74v22.551c-9.7479 5.2357-19.886 9.9058-29.202 15.904-0.61281 0.39453-6.8275 5.8119-7.7454 5.352-0.16852-0.0844-0.15431-0.34395-0.23147-0.51587-5e-3 -7.9292-9e-3 -15.858-0.0138-23.788 0.50586-8.1096 0.3265-24.691 0.72256 9.4137 0.0746 6.4213 0.20496-4.0673-0.27104-11.751-1.1181-18.048-3.9355-37.85-16.709-51.558-6.3145-5.097-22.461-14.35-26.816-2.2187z" display="block"/>
  <path d="m209.76 12.884c-60.545-0.89747 23.866-0.13568 37.273 1.9987 15.926 3.0965 8.6879 22.19 5.6796 33.023-0.76243 4.7257-3.9609 10.482-2.3146 15.383 0.40034 1.1918 4.2306 2.2785 2.974 2.3199-6.4332 0.21172-12.897 0.38384-19.309-0.17324-0.86356-0.07502 0.58788 0.53296 10.723-3.0866 7.4659-2.6664 14.7-5.8629 21.925-9.1089h22.55c-15.451 6.9413-73.678 33.235-59.1-5.3337 3.0084-10.833 10.247-29.926-5.6796-33.023-6.691-1.0652-13.418-1.5071-20.18-1.8589-3.4327-0.17854-13.743-0.34364-10.306-0.3585 6.777-0.02921 13.554-0.01893 20.331-0.0079 1.4224 0.0022-2.8406 0.18383-4.263 0.18922-7.6183 0.02901-15.237 0.02494-22.855 0.03736z" display="block"/>
  <path d="m5.9405 108.4c8.6438-5.5144 18.276-7.0862 28.397-6.3878 20.231 1.7187 29.931 15.745 43.729 29.707 0.74393 0.75282 2.937 3.0485 2.1866 2.3022-25.678-25.539-13.757-12.888-5.9918-8.1618 16.483 9.9364 30.936 1.437 45.622-7.3639l15.946 15.946c-14.686 8.8008-29.139 17.3-45.622 7.3639-10.206-6.2122-17.269-15.072-25.899-23.729-0.74722-0.74957-2.9428-3.0426-2.1866-2.3022 4.6113 4.515 9.171 9.0823 13.753 13.627 1.5274 1.515-3.058-3.0479-4.7834-4.3329-6.0291-4.4906-13.458-6.2805-20.807-7.1097-10.121-0.69848-19.753 0.87334-28.397 6.3877z" display="block"/>
  <path d="m70.581 25.491c5.2607-6.7231 10.863-13.433 19.553-15.481 21.26-0.15686 14.273 32.672 12.851 45.506 0.197 7.6958-8.985 48.48 10.323 34.15 13.448-10.862 8.6537-11.15 18.946-2.4753 5.4026 2.9818 11.45 0.34567 16.67-1.78l-11.275 19.529c-5.2201 2.1258-11.267 4.7618-16.67 1.78-10.292-8.6745-5.4974-8.3871-18.946 2.4753-19.308 14.33-10.126-26.454-10.323-34.15 1.4221-12.834 8.4085-45.663-12.851-45.506-8.6898 2.0475-14.292 8.7577-19.553 15.481z" display="block"/>
  <path d="m165.08 145.49c16.387-12.871 39.273-17.268 59.648-18.363 14.949-1.26 29.515 4.2012 44.396 3.7668 2.8588-0.0835 5.4884-0.38833 8.2868-0.99224 1.4232-0.3071 5.6395-1.4519 4.2233-1.1142-5.8836 1.4031-11.751 2.8736-17.626 4.3103 21.03-9.6506 18.092-25.343-4.6441-26.977-10.025-1.3373-43.021 8.1542-4.0559-2.1824l-21.782 5.8365c15.667-4.2277 31.2-9.89 47.62-9.4906 22.736 1.6344 25.674 17.326 4.6441 26.977-8.6219 2.4474-23.319 7.8553-34.332 9.174-16.232 1.9436-32.232-4.985-48.512-3.4717-9.5677 0.51433-30.449 5.9975 4.1966-3.5692 1.2408-0.34262-2.4836 0.68178-3.707 1.0823-5.9862 1.9599-11.933 4.8551-16.573 9.1766z" display="block"/>
 </g>
</svg>
