<?xml version="1.0" encoding="UTF-8"?>
<svg width="300" height="554" version="1.1" viewBox="0 0 300 554" xmlns="http://www.w3.org/2000/svg">
 <path d="m10.513 15.825h290.3" display="block" fill="none" stroke="#aeaeae" stroke-dasharray="0.594897, 1.78469" stroke-width=".5949"/>
 <path d="m10.513 44.282h290.3" display="block" fill="none" stroke="#aeaeae" stroke-dasharray="0.594897, 1.78469" stroke-width=".5949"/>
 <path d="m10.513 90.825h290.3" display="block" fill="none" stroke="#aeaeae" stroke-dasharray="0.594897, 1.78469" stroke-width=".5949"/>
 <path d="m10.513 119.28h290.3" display="block" fill="none" stroke="#aeaeae" stroke-dasharray="0.594897, 1.78469" stroke-width=".5949"/>
 <path d="m10.513 185.82h290.3" display="block" fill="none" stroke="#aeaeae" stroke-dasharray="0.594897, 1.78469" stroke-width=".5949"/>
 <path d="m10.513 214.28h290.3" display="block" fill="none" stroke="#aeaeae" stroke-dasharray="0.594897, 1.78469" stroke-width=".5949"/>
 <path d="m10.513 270.82h290.3" display="block" fill="none" stroke="#aeaeae" stroke-dasharray="0.594897, 1.78469" stroke-width=".5949"/>
 <path d="m10.513 299.28h290.3" display="block" fill="none" stroke="#aeaeae" stroke-dasharray="0.594897, 1.78469" stroke-width=".5949"/>
 <text x="150" y="6" display="block" fill="#000000" font-family="'Liberation Sans',Arial,sans-serif" stroke-width="1pt" text-align="center" text-anchor="middle" style="line-height:0%" xml:space="preserve"><tspan x="150" y="6" font-size="6px" text-align="center" text-anchor="middle" style="line-height:1.1">Écriture onciale</tspan></text>
 <text x="150" y="79.558548" display="block" fill="#000000" font-family="'Liberation Sans',Arial,sans-serif" stroke-width="1pt" text-align="center" text-anchor="middle" style="line-height:0%" xml:space="preserve"><tspan x="150" y="79.558548" font-size="6px" text-align="center" text-anchor="middle" style="line-height:1.1">Écriture carolingienne</tspan></text>
 <text x="150" y="172.05855" display="block" fill="#000000" font-family="'Liberation Sans',Arial,sans-serif" stroke-width="1pt" text-align="center" text-anchor="middle" style="line-height:0%" xml:space="preserve"><tspan x="150" y="172.05855" font-size="6px" text-align="center" text-anchor="middle" style="line-height:1.1">Écriture gothique</tspan></text>
 <text x="150" y="257.05853" display="block" fill="#000000" font-family="'Liberation Sans',Arial,sans-serif" stroke-width="1pt" text-align="center" text-anchor="middle" style="line-height:0%" xml:space="preserve"><tspan x="150" y="257.05853" font-size="6px" text-align="center" text-anchor="middle" style="line-height:1.1">Écriture bâtarde</tspan></text>
 <path d="m57.076 430.38 213.69 2e-5" display="block" fill="none" stroke="#aeaeae" stroke-dasharray="0.6582, 1.9746" stroke-width=".6582"/>
 <path d="m57.075 461.87h213.69" display="block" fill="none" stroke="#aeaeae" stroke-dasharray="0.6582, 1.9746" stroke-width=".6582"/>
 <text x="150" y="359.55853" display="block" fill="#000000" font-family="'Liberation Sans',Arial,sans-serif" stroke-width="1pt" text-align="center" text-anchor="middle" style="line-height:0%" xml:space="preserve"><tspan x="150" y="359.55853" font-size="6px" text-align="center" text-anchor="middle" style="line-height:1.1">Écriture italique florissante</tspan></text>
 <path d="m50.904 28.63c12.545-7.0488-5.0716 5.4998-7.6469 10.139-1.8773 4.8471 5.5782 1.714 5.3501 1.8055-9.2359 3.7027 1.2434-1.9412 3.7857-4.2463 0.39531-0.3825 0.79061-0.765 1.1859-1.1476l5.9123-2.757c-0.39531 0.3826-0.79061 0.7651-1.1859 1.1477-4.1728 3.7835-20.212 16.539-20.96 7.9546 4.0657-7.3236 12.118-12.278 19.472-15.653z" display="block"/>
 <path d="m39.6 21.47c2.9147-4.1907 10.293-8.167 14.4-3.9491 5.0177 6.6461 6.8518 14.929 9.933 22.522-0.29455 3.1391 6.2869 0.0479 5.0752 0.6246-9.1813 4.3695-5.4468 2.5794-3.3446 1.3008l5.9123-2.757c-2.7396 1.6663-10.918 7.9834-13.555 3.5886-3.0813-7.5927-4.9154-15.876-9.933-22.522-1.2914-1.3262-7.0215-0.6351-5.3601-1.4513 9.8857-4.8569 4.0441-2.5258 2.7848-0.1134z" display="block"/>
 <path d="m116.4 18.373c-2.9362-0.3084-11.858 3.3326-1.5993-0.87 1.7675-0.724-2.9681 2.549-4.1687 4.1072-5.9673 8.6068-0.52379 17.464 8.1945 19.846-1.0009 1.959 11.43-2.0802 10.017-1.438-8.1282 3.6938-3.7357 1.6967-1.6492-0.1482l5.7919-2.873c-5.4038 4.7777-12.81 8.5859-19.952 7.3322-8.7183-2.3822-14.162-11.239-8.1945-19.846 4.1276-5.3568 10.856-8.7983 17.352-8.9834z" display="block"/>
 <path d="m119.22 15.5c3.2959 0.3999 6.6407 0.5455 9.963 0.6605 1.8311-0.1045 3.6023 0.3095 5.3937 0.6097l-5.7919 2.7008c-1.7915-0.3002-3.5626-0.7143-5.3937-0.6097-3.3223-0.115-6.6672-0.2606-9.9631-0.6605z" display="block"/>
 <path d="m127.56 18.993c-1.9e-4 -0.0053-3.7e-4 -0.0106-5.5e-4 -0.0159 1.8998-0.9379 3.7748-1.928 5.6994-2.814 1.2306-0.5665-0.37282 2.6862-0.45753 4.0382-0.26656 4.2548-0.30209 8.5279-0.4426 12.788-0.63346 8.7078-0.5953 17.39-0.11155 26.097 0.2313 1.9969-0.39469 4.236 0.48032 5.7041-8.3139 4.8969-3.4059 1.494 0.13685-0.9362l5.6966-2.8963c-3.7192 2.5512-7.1193 5.2614-11.53 6.7288-0.87498-1.4681-0.249-3.707-0.4803-5.704-0.48375-8.7068-0.52192-17.389 0.11155-26.097 0.28044-8.5028-2.3798-16.432 6.5944-19.789z" display="block"/>
 <path d="m138.92 20.053c3.1766-2.2091 8.2545-4.5746 11.188-3.9876-3.1973 5.2443-5.7936 10.465-5.901 16.842 0.40861 9.3594 9.8244 9.7303 16.421 7.0935 6.0676-4.0587-6.9126 4.7245 2.5677-2.2153l5.7919-2.8046c-4.393 3.2157-9.2171 5.6071-14.151 7.8246-6.5969 2.6368-16.013 2.2658-16.421-7.0936 0.10737-6.3769 2.7036-11.597 5.9009-16.842-4.0506-0.8104-6.5916 2.2423 0.39548-1.6216z" display="block"/>
 <path d="m164.67 16.195c1.4442-0.014 2.7982-0.5768 4.1496-1.0196 1.7055 1.369 1.1369 4.7905 1.1819 7.0481-0.0489 3.7857 0.36595 7.5874 0.14642 11.369-0.074 2.2377-0.19742 4.4557-0.38774 6.6822 7e-3 0.4711-0.0406 0.9394-0.0609 1.4088l-5.7302 2.8292c0.0203-0.4693 0.068-0.9377 0.0608-1.4088 0.19033-2.2265 0.31373-4.4445 0.38776-6.6821 0.21952-3.7816-0.19536-7.5833-0.14643-11.369-0.045-2.2576 0.52361-5.6791-1.1819-7.0481-1.3514 0.4428-2.7054 1.0055-4.1496 1.0195z" display="block"/>
 <path d="m180.36 17.94c-14.66 6.79-0.0431 0.0243 0.39813-0.1986 1.7769-0.8976-3.6094 1.6813-5.424 2.5002-2.2956 1.036 4.5498-2.1616 6.8343-3.222 1.7136-0.7953-6.8679 3.1514-5.1394 2.389 3.3454-1.4757 7.5416-4.6715 11.445-3.1848 2.9918 2.6457 4.3516 6.6379 5.8429 10.244 1.4887 3.854 3.301 7.5623 5.021 11.313 1.3446 3.5568 3.0371 4.3304 6.6954 2.924 3.9651-2.4358-7.1053 4.4793-2.1418 0.4937l5.7919-2.7008c-2.79 2.2403-6.1842 3.462-9.4419 4.9079-3.6583 1.4064-5.3508 0.6328-6.6954-2.924-1.7199-3.7504-3.5322-7.4587-5.021-11.313-1.4913-3.606-2.8511-7.5982-5.8429-10.244-1.5329-0.5837-6.3846 0.9171-4.9175 0.1836 2.7228-1.3614 12.434-5.8035-1.3883 0.6123-1.7401 0.8077 3.4685-1.6405 5.212-2.4407 2.2233-1.0203-4.439 2.0595-6.6224 3.1625-0.44259 0.2236 15.914-7.4564-0.39812 0.1986z" display="block"/>
 <path d="m189.83 28.425c3e-3 -0.0091-1.4158 0.7716-1.4114 0.7687 11.708-7.7296-4.5443 3.3923-7.4723 7.0358-4.9422 8.5141 7.9232 1.3061 11.009-0.446 5.286-3.6058-6.6932 5.0609-1.8623 0.9359l5.7919-3.8098c-3.0262 2.5839-6.4049 4.5924-9.7214 6.6838-3.0858 1.7521-15.951 8.9601-11.009 0.4459 5.3586-6.6681 13.616-10.972 20.467-15.424z" display="block"/>
 <path d="m223.94 45.031c-3.5445 0.0531-7.1126 0.2812-10.17-1.7805-5.8947-4.4527-5.444-10.633-3.4386-17.006 3.6012-7.7592 15.087-11.83 23.378-11.008 5.5763 0.9619 8.1235 5.2378 8.8157 10.439 0.4128 5.4164 0.0861 10.84 0.25937 16.268l-5.5332 2.5804c-0.17326-5.4279 0.15341-10.852-0.25939-16.268-0.69218-5.2015-3.2394-9.4778-8.8157-10.439-9.3254-0.9242-8.2538-1.0743-12.311 5.8476-2.0054 6.3733-2.4561 12.553 3.4386 17.006 3.0578 2.0614 6.6259 1.8336 10.17 1.7805z" display="block"/>
 <path d="m237.31 27.259c1.0257-4.2747 5.0176-8.0622 8.8433-10.052 9.5226-6.1467 20.137-1.1902 22.4 9.9732 0.98307 10.609-5.3675 14.216-13.977 17.743l5.5332-2.58c0.23438-0.0232 0.46876-0.0461 0.70315-0.0689-1.5602 0.775-3.1204 1.5499-4.6806 2.3253-1.0695 0.5269 2.1036-1.1894 2.936-2.0429 3.2251-3.3072 4.205-8.3512 3.9524-12.797-1.0498-5.1788-5.2532-10.132-9.9784-12.529-2.9934-1.518-6.4849 0.0465-5.57-0.526 1.3278-0.8312 2.8099-1.3855 4.2149-2.0785-3.8257 1.9905-7.8175 5.7776-8.8433 10.053z" display="block"/>
 <path d="m35.089 96.808c12.003-10.546 18.807-7.7504 23.457 2.1337 2.9053 5.9344 5.3632 14.891 12.816 16.545l-10.491 4.5013c-7.4526-1.6532-9.9105-10.61-12.816-16.545-1.3738-2.9198-2.8444-6.1192-5.4673-8.0733-0.89064-0.6636-4.4655-0.4258-3.2993-1.0214 3.1009-1.5837 6.3078-2.8585 9.4681-4.2666 1.1598-0.5167-4.2327 1.8573-3.1772 2.225z" display="block"/>
 <path d="m54.822 99.139c-5.0165 4.1907-10.338 8.2613-14.311 13.51-2.0448 6.7677 11.148 0.4892 11.031 0.5423-14.379 6.5371 0.61003-1.586 3.8776-4.1971l9.6531-4.5013c-4.791 3.8285-36.041 23.501-34.215 12.657 3.9736-5.2484 9.2948-9.319 14.311-13.51z" display="block"/>
 <path d="m70.469 105.67c5.6067-4.9097 16.259-6.1463 25.361-7.4321 3.7477-0.5156 1.9467-0.2724 5.4025-0.7317l-9.0695 4.6181c-3.4557 0.4593-1.6548 0.216-5.4025 0.7317-6.3117 0.8916-29.019 6.1718-7.222-1.804z" display="block"/>
 <path d="m84.781 103.47c-0.36794-3.4483-0.08013-6.4338-3.7118-7.5839 0.47165-1.7733-6.5288 2.0277-5.0254 1.2187 15.482-8.3307-0.4502-1.0774 3.7321 10.349 3.8603 7.1549 12.362 8.8961 18.77 7.6432 1.6235-0.3175 6.0575-2.4348 4.6479-1.6102-2.2726 1.3297-4.6498 2.4723-6.9747 3.7085l9.0695-4.9098c-8.8141 4.8247-25.711 15.303-34.582 0.0781-4.5689-12.482 10.268-21.054 19.432-21.387 3.6317 1.1502 3.3439 4.1357 3.7118 7.584z" display="block"/>
 <path d="m118.52 96.235c-2.9887-1.7214-6.641-1.8643-10.004-1.4384 0.7993-0.5659-2.5684 0.7915-1.9598 0.5013 15.751-7.5108 4.3753-2.0568 3.4208 6.419 0.14261 6.9639 5.1315 11.404 11.539 12.715 4.5687 0.8176 9.1099 0.7953 13.445-0.9375l-9.6531 4.5013c-4.3353 1.7328-8.8766 1.7551-13.445 0.9375-6.407-1.3107-11.396-5.7509-11.539-12.715 1.0353-9.1931 8.8767-14.442 17.845-15.923 3.3633-0.4259 7.0155-0.283 10.004 1.4384z" display="block"/>
 <path d="m125.88 94.102c3.2038-1.4779 6.3802-3.0169 9.6114-4.4338 0.61707-0.2706-0.5438 1.2345-0.76602 1.8706-0.9622 2.7543-1.5121 5.6223-1.974 8.4977-1.5277 9.5113-2.4668 19.145-3.6144 28.707-0.78776 7.7818-1.7118 15.544-3.0008 23.259l-9.6531 4.5013c1.289-7.7151 2.213-15.477 3.0008-23.259 0.39415-3.2842 4.0119-37.92 6.3544-39.076 3.2042-1.5799 6.4632-3.0459 9.6948-4.5688z" display="block"/>
 <path d="m124.83 95.845c1.5561-3.4759 6.9537-4.2822 10.346-5.5574 1.9607-0.8047 3.9361-1.5661 5.9204-2.2946l-6.3743 3.3216c-1.9842 0.7284-3.9596 1.4898-5.9204 2.2945-8.5083 3.1979 4.9435-4.4084 2.4021-1.0856z" display="block"/>
 <path d="m135.68 96.542c3.2412-0.8343 14.367-10.232 16.106-2.478 0.54946 5.9063-2.4472 11.204-1.929 17.163-2.1611 5.136 9.3898 2.6341 8.5099 3.048-14.455 6.7993-8.4503 4.0859-5.0509 1.4269l9.6531-4.5013c-4.8266 3.7753-18.842 14.075-22.765 4.5277-0.51822-5.9587 2.4784-11.256 1.929-17.163-1.7436-7.7759-16.488 3.4536 3.2006-6.5247z" display="block"/>
 <path d="m166.55 90.34c4.8218-0.4395 5.5032 3.0337 4.8423 7.2041-1.4815 6.6399-5.3752 16.999 4.6907 17.047 2.3009-0.2513 1.1468-0.0634 3.4607-0.5723l-9.6531 4.5013c-2.3138 0.5089-1.1598 0.321-3.4607 0.5723-10.066-0.0487-6.1722-10.407-4.6907-17.047 0.66083-4.1704-0.0206-7.6436-4.8423-7.2041z" display="block"/>
 <path d="m125.34 91.037c3.3823 0.4437 6.6858 1.8276 9.6948 3.4237l-9.6531 4.5014c-3.0091-1.5962-6.3125-2.9801-9.6948-3.4237z" display="block"/>
 <path d="m181.35 94.45c7.9908-4.1402 12.313-7.9771 17.578-0.2953 4.6009 6.0677 5.0462 15.544 11.784 19.841 1.811 0.9289 3.8228 1.3295 5.7982 1.7431l-9.6531 4.5013c-1.9754-0.4136-3.9872-0.8141-5.7982-1.7431-6.7382-4.2974-7.1835-13.774-11.784-19.841-5.1491-7.5121-14.093-1.8162 1.728-8.7073z" display="block"/>
 <path d="m188.03 106.08c24.903-12.257-8.6376 3.872 0.88522 9.0946-0.50441 1.4869 8.8548-1.5519 8.3704-1.3473-14.623 6.1783-5.8994 2.0331-1.997-1.0387l9.6531-4.5013c-7.2054 5.6717-16.195 12.527-25.68 11.389-8.2466-4.5226 16.948-20.417 18.421-18.097z" display="block"/>
 <path d="m212.3 97.24c2.816-2.3399 12.538-10.186 15.463-3.3427 1.1385 7.2409-0.71975 14.292-0.6075 21.525l-9.2319 4.5013c-0.11225-7.2332 1.746-14.284 0.60749-21.525-2.7215-6.3661-13.27 1.7885 3.9414-6.4905 0.38083-0.1832-1.3601 0.6588-0.94096 0.8306z" display="block"/>
 <path d="m216.26 103.12c6.396-6.0802 16.051-13.128 25.46-13.01 8.0446 3.102 7.6035 15.622 6.3852 21.957-0.2462 1.0793-0.55664 2.1367-0.85134 3.1993l-9.2319 4.5013c0.29469-1.0626 0.60514-2.12 0.85134-3.1993 1.2183-6.3344 1.6594-18.855-6.3852-21.957-4.2411-0.0533-13.727 5.1277 1.4579-2.1619 0.71349-0.3425-9.452 6.0588-8.4539 6.1687z" display="block"/>
 <path d="m247.32 97.284c-24.208 12.207 7.7518-8.0971 16.719-7.6526 5.6652 3.7921 3.4337 16.972 2.4946 22.756-0.12412 0.5948-0.24004 1.1922-0.36007 1.7882l-9.2319 4.6587c0.0311-0.1546 0.33614-1.6912 0.36006-1.7884 0.93909-5.7837 3.1706-18.964-2.4946-22.756-4.831-0.2394-16.556 5.9686-1.5752-1.6584 0.16089-0.0819-12.909 9.4327-15.144 9.311z" display="block"/>
 <path d="m69.751 30.201c6.4176-0.2349 12.932-2.8204 19.173-4.5631 2.7477-1.0597 5.6536-1.4539 8.519-2.0181l-5.7919 2.7008c-2.8654 0.5642-5.7713 0.9584-8.519 2.0181-6.2409 1.7427-12.755 4.3282-19.173 4.5631z" display="block"/>
 <path d="m92.158 25.491c-0.79796-2.3127-2.4208-4.2048-4.319-5.9205 0.92678-3.2401-9.8288 0.2899-8.2975-0.3129 4.9318-1.9416 6.034-2.5572 3.4185-1.212-4.2253 2.3898-6.9795 6.6191-8.2786 10.788 0.15713 3.3645 1.8651 6.797 4.3051 9.3878 3.1804 2.7308 6.6544 4.4651 11.212 4.1796 0.7423 0.3279 8.0927-2.3546 6.7958-1.9326-8.0984 2.6351-0.96665-0.3951 1.2618-2.3563l5.7919-2.3604c-5.2698 4.6377-12.362 7.655-19.641 9.0097-4.5575 0.2855-8.0316-1.4488-11.212-4.1795-2.44-2.5908-4.148-6.0234-4.3051-9.3878 1.2991-4.1692 4.0533-8.3984 8.2786-10.788 4.2831-2.2028 11.698-7.0262 16.463-3.196 1.8982 1.7157 3.521 3.6079 4.319 5.9206z" display="block"/>
 <path d="m79.654 170.78c7.2951-12.027 10.892-5.5026 11.671 3.9126 1.7431 21.454-11.927 37.319-31.151 42.933l4.8955-4.3333c16.049-4.6867 21.979-13.876 21.36-34.266-0.2487-3.0046-0.34175-6.4007-1.764-9.1193-0.55941-1.0693-4.1896-0.2201-3.3307-1.0391 7.9381-7.5698 4.3756-4.5133 3.2146-2.4208z" display="block"/>
 <path d="m103.81 167.23c0.36853-0.4928-2.0771 1.3187-1.5771 0.9598 1.4313-1.0272 2.8294-2.1058 4.3193-3.0461 1.7363-1.0959-2.6962 3.1773-3.5073 5.0637-1.7996 4.1853-2.666 8.7382-2.9867 13.255 0.47774 11.359 1.91 28.206 16.342 27.403l-5.1895 3.7296c-14.432 0.8025-15.864-16.044-16.342-27.403 0.75613-10.648 4.1298-18.649 14.131-23.691z" display="block"/>
 <path d="m84.577 195.18c4.4361-5.0613 9.9259-6.5011 15.838-8.9022 0.22146-0.0801 0.44291-0.1602 0.66436-0.2403l-4.8955 4.1079c-0.22146 0.08-0.44291 0.1601-0.66436 0.2402-3.8498 1.5636-16.527 7.4778-6.0467 0.6866z" display="block"/>
 <path d="m86.465 195.04c2.9586-1.3915 6.0772-2.393 9.1836-3.3963l-2.2846 1.917c-3.1064 1.0033-6.225 2.0048-9.1836 3.3962z" display="block"/>
 <path d="m65.622 215.13c2.282-0.045-7.6133 2.79-5.7064 2.1024 6.6171-2.3862 14.816-6.1164 22.025-4.7255 6.2218 3.845 9.3294 8.2492 17.354 8.5184 0.75376-0.0279 1.5075-0.0557 2.2613-0.0836l-6.0052 2.1857c-0.75376 0.0279-1.5075 0.0558-2.2613 0.0836-8.0248-0.2692-11.132-4.6734-17.354-8.5184-3.8743-0.7475-7.8848 0.2778-11.669 1.1755-1.3591 0.3224-5.3101 1.7332-3.9998 1.2491 1.8827-0.6956 7.5424-2.7514 5.6542-2.0706-2.0716 0.7471-4.1365 1.5128-6.2048 2.2692h-0.09927z" display="block"/>
 <path d="m120.98 186.01c0.64492 4.4879 0.68441 9.0448 0.48513 13.57-0.1643 2.5114-0.0962 5.0323-0.17924 7.5434-0.70523 3.1266 3.2202 3.6183 5.3008 5.1701l-4.8955 4.1078c-2.0805-1.5518-6.006-2.0434-5.3008-5.17 0.083-2.5112 0.0149-5.0321 0.17923-7.5435 0.19928-4.5248 0.1598-9.0816-0.48512-13.57z" display="block"/>
 <path d="m124.55 184.27c2.2286 2.3532 5.2026 3.9253 8.0347 5.4539 0.16496 0.0949 0.32993 0.1897 0.49489 0.2846l-4.8955 4.1078c-0.16497-0.0949-0.32993-0.1897-0.4949-0.2846-2.8321-1.5286-5.8062-3.1007-8.0347-5.4539z" display="block"/>
 <path d="m128.94 193.52c-3.656 0.9384-16.266 11.728-7.1865 4.1504-0.50082 0.1948-0.58029 0.7142-0.87043 1.0713l-4.8955 4.1078c0.29014-0.3571 0.36961-0.8765 0.87043-1.0713 5.0993-4.2944 10.773-9.7418 16.978-12.366z" display="block"/>
 <path d="m115.03 198.75c5.526-1.033 11.224-0.6492 16.822-0.4046 0.29449 0.0104 0.58897 0.0208 0.88346 0.0311h-6.3906c-0.29448-0.0103-0.58897-0.0207-0.88345-0.0311-11.038-0.4824 9.2387-0.7373-4.0409 0.4046z" display="block"/>
 <path d="m120.35 216.45c3.5723-3.0124 7.1984-6.085 11.209-8.5237l-4.8955 4.1078c-4.1495 2.5232-8.3606 6.254-1.418 0.3081z" display="block"/>
 <path d="m138.78 185.31c-0.10173 3.9811 0.0709 7.9416 0.41054 11.906 0.25621 3.2042 0.33369 6.4249 0.24876 9.635l-4.8955 4.1078c0.0849-3.2101 7e-3 -6.4307-0.24876-9.635-0.33959-3.9649-0.51226-7.9254-0.41053-11.906z" display="block"/>
 <path d="m133.85 210.61c5.5115-5.6998 5.748-2.8929 11.44 0.5036l-4.8955 4.1078c-5.5659-3.3213-9.4813-3.4591-1.6489-8.7192z" display="block"/>
 <path d="m139.51 214.75c2.3791-3.7327 5.7394-3.996 8.8187-6.2078l-4.8955 4.1078c-2.3951 1.7203-9.3433 4.683 0.97226-2.0078z" display="block"/>
 <path d="m141.62 182.79c2.3965 1.0011 3.8871 3.3319 5.6845 5.1199 0.73541 0.6143 1.5709 1.0703 2.3957 1.5448l-4.8955 4.1078c-0.82481-0.4744-1.6603-0.9305-2.3957-1.5448-1.7974-1.788-3.288-4.1188-5.6845-5.1199z" display="block"/>
 <path d="m150.29 187.02c-1.3233 5.9376-1.0878 12.186-0.84564 18.236 0.4533 7.8899 0.42812 15.817-0.0262 23.702-0.0452 0.3286-0.0904 0.6573-0.13558 0.9859l-4.8955 4.1078c0.0452-0.3286 0.0904-0.6572 0.13558-0.9859 0.45426-7.8852 0.47944-15.812 0.0262-23.702-0.24215-6.0494-0.47769-12.298 0.84564-18.236z" display="block"/>
 <path d="m146.18 232.22c8.0071-7.567 1.5563-1.136-1.1539 2.3671-0.12779 0.1766-0.25559 0.3531-0.38339 0.5297l-4.8955 4.1078c0.1278-0.1766 0.25559-0.3531 0.38339-0.5297 3.1498-4.0713 6.6613-7.6615 10.945-10.583z" display="block"/>
 <path d="m155.24 183.84c1.4006 0.6379 2.6475 1.7277 3.9635 2.5966-0.0112 0.04 0.59603 0.4126 0.62053 0.4296l-4.8955 4.1078c-0.20684-0.1432-0.43599-0.2541-0.62053-0.4296-1.316-0.8689-2.5629-1.9587-3.9635-2.5966z" display="block"/>
 <path d="m159.74 185.53c-0.625 3.5736-0.32005 7.2307-0.14964 10.833 0.257 3.2779 0.0357 6.5576 0.15327 9.8394-0.0765 0.7254 0.16362 1.3707 0.34278 2.0404l-4.6808 4.3509c-0.17916-0.6697-0.41923-1.3148-0.34277-2.0404-0.11759-3.2819 0.10373-6.5615-0.15328-9.8395-0.17041-3.6026-0.47535-7.2597 0.14965-10.833z" display="block"/>
 <path d="m155.53 211.22c5.593-5.4944 4.0738-3.9032 8.5666-0.5077 0.82115 0.7846 1.7124 1.4604 2.6408 2.1053l-4.8955 4.1078c-0.92843-0.6449-1.8197-1.3207-2.6408-2.1053-4.4526-3.3651-5.3174-3.1085 1.2244-7.7079z" display="block"/>
 <path d="m166.74 183.84c-10.016 9.6059-0.74999-4.3034 4.1126 1.7718 0.25091 0.4826 0.75038 0.7181 1.1217 1.0734l-4.8955 4.1078c-0.37131-0.3553-0.87078-0.5908-1.1217-1.0734-0.67631-0.845-1.3679-1.9215-2.4869-2.1921-0.41439-0.1002-1.5957 0.3852-1.2747 0.1045 9.3617-8.1863 2.9728-2.2954-0.35098 0.3158z" display="block"/>
 <path d="m171.28 186.01c0.47194 3.486 0.30931 7.0576 0.30919 10.576-0.0575 3.1603 0.11318 6.3326-0.10154 9.4843-0.2712 1.0764-0.13728 2.0241 0.11963 3.0593l-4.8955 4.1078c-0.25692-1.0352-0.39083-1.9829-0.11963-3.0593 0.21472-3.1517 0.044-6.324 0.10153-9.4843 1.3e-4 -3.5187 0.16275-7.0903-0.30919-10.576z" display="block"/>
 <path d="m177 188.42c5.5938-6.2462 3.2719-2.1542 3.227 3.406-0.0651 3.3934 0.30724 6.7696 0.35674 10.161 0.0949 1.6892-0.14869 3.6517 0.65686 5.082 2.5729 0.77 4.677 2.3152 6.7972 3.8421 0.19839 0.127 0.39677 0.2539 0.59516 0.3808l-4.8955 3.8867c-0.19838-0.1269-0.39677-0.2538-0.59516-0.3807-2.1202-1.527-4.2243-3.0722-6.7972-3.8422-0.80555-1.4302-0.562-3.3928-0.65685-5.0819-0.0495-3.3918-0.42184-6.7679-0.35674-10.161 0.0492-6.1003-3e-3 -7.4905 6.564-11.18z" display="block"/>
 <path d="m182.37 184.53c1.8093-0.141 3.3283 0.0134 4.929 0.8529 1.1476 0.6966 2.4288 0.948 3.7331 1.1457l-4.8955 4.1078c-1.3042-0.1977-2.5855-0.4491-3.7331-1.1457-1.6007-0.8395-3.1197-0.9939-4.929-0.8529z" display="block"/>
 <path d="m190.64 186.2c-4.6087 3.2396 5.398-5.8243 2.0845-1.7324-1.3812 1.6714-1.331 3.6203-1.3398 5.6763 7e-3 2.5846 9e-3 5.1691 9e-3 7.7537-4e-5 2.3546-6e-5 4.7092-6e-5 7.0638-0.0639 2.5694 0.26832 4.4299 2.8379 5.3201 2.0964 0.9045 3.8641 1.3429 6.079 0.7945l-4.8955 4.1078c-2.2149 0.5485-3.9826 0.11-6.079-0.7945-2.5696-0.8901-2.9018-2.7507-2.8379-5.3201 0-2.3546 1e-5 -4.7092 6e-5 -7.0638-1.1e-4 -2.5846-2e-3 -5.1691-9e-3 -7.7537 9e-3 -2.056-0.0414-4.0049 1.3398-5.6763 2.1144-2.6112 4.8171-4.8612 7.7065-6.4832z" display="block"/>
 <path d="m204.71 184.97c0.10493 3.6183 0.30996 7.2312 0.34402 10.854 0.012 2.7002 5e-3 5.4004 5e-3 8.1007 0.0714 1.7737-0.3174 3.5181-0.20309 5.2646 1.3065 1.3616 3.3187 2.3489 5.2038 2.9352l-4.8955 3.7512c-1.8852-0.5863-3.8973-1.5736-5.2038-2.9353-0.1143-1.7464 0.27452-3.4908 0.20309-5.2647 5.5e-4 -2.7002 7e-3 -5.4004-5e-3 -8.1006-0.0341-3.6225-0.23909-7.2354-0.34402-10.854z" display="block"/>
 <path d="m198.88 183.17c2.1437 0.5032 4.0365 1.9907 6.1762 2.8051l-4.8955 4.0881c-2.1396-0.8145-4.0324-2.302-6.1762-2.8052z" display="block"/>
 <path d="m201.6 191.83c4.8377-2.999-0.14565-2.801 10.373-7.7725l-4.8955 4.5271c-1.7262 0.816-6.4472 4.1742-5.0104 2.841 1.5611-1.4487 6.2476-5.7901 4.6855-4.3429-6.113 5.6637-7.2502 6.7282-0.25716 0.2199z" display="block"/>
 <path d="m211.38 183.5c1.7199-0.2361 2.7942 0.5456 4.0563 1.7347 0.11872 0.0938 0.23744 0.1873 0.35616 0.2811l-4.8955 4.5272c-0.11872-0.0938-0.23744-0.1875-0.35615-0.281-1.2621-1.1891-2.3364-1.9708-4.0563-1.7349z" display="block"/>
 <path d="m210.93 188.03c7.7918-8.258 3.34-0.1617 4.7924 8.1452 0.93627 3.802 0.43379 7.6304 0.17231 11.469l-4.8955 4.5272c0.26147-3.8385 0.76396-7.6669-0.17231-11.469-1.3658-7.8114-1.5203-12.395 4.9986-17.2z" display="block"/>
 <path d="m209.62 212.58c3.0574-3.1242 6.0604-7.1374 9.286-3.1046 0.40655 0.6844 1.0003 1.1429 1.5638 1.649l-4.8955 4.5272c-0.56351-0.5062-1.1573-0.9646-1.5638-1.6491-3.1642-3.9561-7.9785 1.6486 0.50499-5.9498z" display="block"/>
 <path d="m212.37 191.06c13.302-12.265 0.21952-0.203 0.24024-0.2201 4.3391-3.5635 5.742-4.9705 10.126-7.019l-4.8955 4.5273c-1.6558 0.7736-6.3264 3.6121-4.9725 2.3074 1.527-1.4715 6.2638-5.6788 4.6373-4.3428-0.0358 0.0294-13.044 12.097-0.24025 0.22z" display="block"/>
 <path d="m222.92 183.5c1.6294 0.2421 2.9108 1.4937 4.1227 2.6493l-4.8955 4.5272c-1.2119-1.1556-2.4934-2.4071-4.1227-2.6494z" display="block"/>
 <path d="m227.02 185.86c-0.15378 3.4873-0.3741 6.958-0.24475 10.454 0.22874 3.0349 0.24689 6.0775 0.24658 9.1204 0.0877 1.2657-0.13783 2.4992-0.32897 3.7361l-4.8955 4.5272c0.19114-1.2369 0.4167-2.4703 0.32897-3.7362 3.2e-4 -3.0427-0.0178-6.0854-0.24657-9.1203-0.12936-3.4962 0.091-6.9667 0.24474-10.454z" display="block"/>
 <path d="m225.98 207.76c1.3959 0.3026 2.603 1.2241 3.8382 2.0434 0.55208 0.3161 0.99196 0.8033 1.4681 1.2349l-4.8955 4.5272c-0.47617-0.4314-0.91605-0.9189-1.4681-1.2349-1.2352-0.8194-2.4423-1.7408-3.8382-2.0433z" display="block"/>
 <path d="m56.134 239.38c-3.8151 14.513-9.1694 28.233-17.028 40.707-4.4742 6.9999-9.8921 13.297-16.22 18.647l-4.8356 3.6655c6.3279-5.3492 11.746-11.647 16.22-18.647 7.8587-12.474 13.213-26.194 17.028-40.707z" display="block"/>
 <path d="m22.217 298.13c3.4286-1.1824 7.1449-1.5618 10.933-1.1439 6.697 1.4942 12.621 5.4953 19.564 4.9646 0.60922-0.119 1.2185-0.238 1.8277-0.357l-4.8356 3.6655c-0.60923 0.119-1.2185 0.238-1.8277 0.357-6.9431 0.5307-12.867-3.4704-19.564-4.9646-3.7877-0.4179-7.504-0.0385-10.933 1.1439z" display="block"/>
 <path d="m64.708 235.65c-1.1229 13.312-1.1606 26.218 2.7746 39.708 4.7554 14.451 7.6671 23.197 22.924 15.474l-7.4819 5.6714c-15 7.5594-18.226-1.1885-23-15.417-4.0239-13.638-3.9157-26.667-2.3184-40.053z" display="block"/>
 <path d="m43.704 235.26c-1.3359 3.6734-0.70735 6.5584 3.9628 6.3926 5.7839-0.791 10.868-3.4707 15.986-5.8098l-7.3941 5.605c-5.0602 2.3139-10.093 4.9834-15.835 5.6947-4.6498 0.0789-5.2514-2.9081-3.819-6.5017z" display="block"/>
 <path d="m45.225 271.43c5.1893-3.3931 10.916-5.0613 16.936-6.2474 1.0369-0.2221 2.0884-0.3565 3.1354-0.5169l-7.7812 5.4485c-1.0699 0.1768-2.1445 0.3275-3.2039 0.5649-5.9403 1.2092-11.632 2.7976-16.775 6.1345z" display="block"/>
 <path d="m107.31 269.94c-9.5959 10.078-6.8095 1.9718-14.826 5.149 2.648-1.6266 5.2473-3.3167 7.9439-4.8797 1.623-0.9407-2.4766 2.6841-3.3026 4.235-2.2267 4.1807-3.2128 7.5927-1.6236 11.952 2.2475 7.5077 7.6506 9.8589 16.353 7.6329 14.961-7.3627-6.7014 5.4725 1.1588 0.1583l8.9703-5.5437c-6.0062 4.0618-12.039 8.362-19.082 10.918-8.6255 2.1843-13.323-0.2735-15.582-7.6783-3.8316-10.447 4.2209-17.171 13.972-22.238 6.9414-2.734 11.513 4.3191-2.6865 5.6737z" display="block"/>
 <path d="m108.58 279.99c-0.0493 0.0295-0.0987 0.0589-0.14801 0.0884 2.483-1.7324 4.961-3.472 7.4489-5.1973 0.32656-0.2264-0.62432 0.4926-0.94981 0.7206-3.4649 2.4272-6.7172 4.8566-10.271 7.0285-1.5437 0.9434-3.1406 1.7976-4.6651 2.7729-0.39715 0.2541-1.564 1.0536-1.1786 0.7819 11.787-8.3104 8.284-5.8082 5.7698-4.0082-2.1223 1.6378 0.27994-0.26-1.0918 1.014l-7.7422 5.4212c0.33984-0.3212 0.49689-0.8262 1.0195-0.9635 4.0477-2.8991 8.0247-5.9411 12.302-8.4999 1.7225-1.0303 6.8003-4.2581 5.1689-3.0887-18.627 13.351 1.6889-1.529 2.0198-1.4493z" display="block"/>
 <path d="m129.3 272.25c-2.5583 4.9153-3.712 10.846-3.2913 16.275 0.43602 2.9587 2.6758 7.9999 6.9576 6.7479 2.0059-0.5865 11.491-6.5425 5.3769-2.8561-1.9149 1.1544-3.8081 2.3382-5.7122 3.5073l8.0078-5.0931c-6.2134 4.028-20.037 16.56-22.512 2.7073-0.42067-5.4723 0.73364-11.508 3.4821-16.397z" display="block"/>
 <path d="m133.33 269.73c-2.7477 1.7796-11.239 6.7349-8.243 5.3389 3.0689-1.4303 5.6433-3.6292 8.4657-5.4427 6.8301-4.3887-27.797 17.745 1.2327-0.8163 1.5207-0.9724 3.6102-0.7632 5.3193-0.6072 3.8871 1.2357 6.8762 2.7526 10.88 1.059l-8.451 5.4751c-3.9733 1.667-6.9717 0.1254-10.823-1.0962-1.7628-0.1661-6.7225 1.5313-5.2786 0.5809 2.6392-1.7373 10.543-6.9644 7.9594-5.1571-28.109 19.662 17.271-12.789-9.3651 6.045z" display="block"/>
 <path d="m148.9 269.81c-5.804 15.666-7.9727 32.113-7.9478 48.822 0.0677 1.1271 0.13548 2.2543 0.20321 3.3814l-8.0648 5.647c-0.10221-1.103-0.20442-2.206-0.30662-3.309-0.39423-16.943 2.0818-33.456 8.4286-49.158z" display="block"/>
 <path d="m152.29 276.59c7.8316-9.8595 11.447-10.872 8.5433 0.9937-3.1302 8.8816-2.5295 21.174 8.4417 13.55 0.61902-0.5552 2.3986-2.3091 1.8571-1.6658-11.02 13.09 1.5826-4.2171 3.8096-8.1595l6.9045-7.476c-5.2335 9.345-11.273 17.971-19.414 24.711-10.84 7.4829-11.577-4.7699-8.4449-13.546 4.5578-18.207-7.2687-0.9 4.9426-15.596z" display="block"/>
 <path d="m176.25 273.02c15.546-9.3958 4.1685-0.3421 4.7739 12.746 0.56396 8.3047 5.5585 12.764 13.889 9.0937l-8.7918 4.8373c-8.2389 3.6219-13.345-0.8441-13.927-9.0728-0.45663-10.849 2.1248-17.873 12.579-22.294z" display="block"/>
 <path d="m203.67 272.44c0.23109-0.1504-0.34085 0.4259-0.46931 0.6626-0.81945 1.5092-1.3042 3.2039-1.8064 4.8235-1.1953 3.8555-2.0051 7.7021-2.3316 11.711-0.0345 2.928 0.82619 6.8374 4.8347 6.1932 1.6105-0.2587 5.7717-2.8297 4.489-1.8682-1.7692 1.3264-3.5718 2.6545-5.5779 3.6292-1.9909 0.9673 3.3019-2.8885 4.7155-4.5355 2.9059-3.386 5.0567-7.1504 6.9972-11.088 0.32865-0.7683 0.65729-1.5366 0.98594-2.3048l7.9765-5.3108c-0.31081 0.7564-0.62163 1.5128-0.93244 2.2692-3.8602 8.0062-27.836 37.207-31.47 18.33 0.82518-10.575 2.8058-17.55 12.987-22.677 0 0-8.8801 5.6862-0.39817 0.1661z" display="block"/>
 <path d="m223.64 270.07c-1.1946 7.8695-4.6639 16.909-1.1031 24.62 0.80634 2.8446 7.8572-1.7419 5.7526-0.6172-11.594 6.1958-3.6856 1.0525-0.72778-2.8431l8.004-5.052c-4.2488 5.6251-13.299 16.858-20.907 13.485-3.8775-7.6414-0.23395-16.931 1.2893-24.737z" display="block"/>
 <path d="m236.05 270.16c6.0858-2.0762 6.9529 1.5837 7.1436 6.7359-0.10018 6.1094-1.1807 12.144-1.9088 18.201l-7.2853 6.5151c0.61546-6.0267 1.6116-12.026 1.7825-18.088-0.11833-5.1514-0.77687-8.8577-6.9354-6.9221z" display="block"/>
 <path d="m238.05 286.28c1.898-6.9656 10.192-12.771 16.948-16.107 7.4814-3.0722 5.4307 8.3699 4.8893 12.203-0.6698 3.8278-1.1641 7.7161-1.3987 11.572l-7.0502 6.6713c0.12396-3.8167 0.65283-7.6678 1.2776-11.458 0.54161-3.8714 2.6955-15.432-4.8668-12.224-1.9121 0.9544-3.694 2.046-5.3641 3.3516-0.40192 0.3142-1.5333 1.3358-1.171 0.9811 12.276-12.019 4.0289-5.3504 3.7445-1.6223z" display="block"/>
 <path d="m264.56 273.76c-12.367 15.345-0.738-2.8401 5.423-4.1144 3.4216 0.8589 5.5289 1.9809 8.8537 0.1011 0.28099-0.1744 0.56193-0.3488 0.8429-0.5231l-5.981 6.7357c-0.28158 0.1751-0.5632 0.3501-0.8448 0.5252-3.2866 1.8383-5.4341 0.7131-8.8083-0.1522-1.2417 0.2595-4.332 2.7858-3.4464 1.7719 1.8248-2.0892 3.6772-4.1477 5.5194-6.2174 2.503-2.8121-9.8265 11.45-7.4473 8.505z" display="block"/>
 <path d="m273.79 274.43c12.988-13.541 0.65045 0.01 2.1551 12.273 1.3297 5.7617 5.3373 9.9737 11.491 6.9193l-7.2104 6.823c-6.1034 2.9969-10.207-1.1256-11.55-6.8633-1.3492-10.948 3.5519-18.936 12.123-25.784z" display="block"/>
 <path d="m205.51 270.68c5.597 2.2223 11.902 2.0612 17.638 0.401 2.558-0.8522 4.8582-2.2274 7.1274-3.6347l-6.5914 6.4779c-2.2791 1.4243-4.5905 2.8147-7.1659 3.6725-5.6595 1.6406-11.981 1.8517-17.425-0.6107z" display="block"/>
 <path d="m108.97 279.3c-3.2683 0.278-6.0021-1.6374-8.6531-3.3256-0.81864-0.4436-1.5294-1.0401-2.271-1.5918l8.2045-4.7369c0.76765 0.5343 1.5128 1.1032 2.3366 1.554 2.6194 1.6583 5.2789 3.6337 8.5104 3.408z" display="block"/>
 <path d="m83.383 443.38c1.1233-5.4115 13.39-11.994 19.355-13.772 9.6785-1.641 1.0202 17.455-0.42722 20.342-9.8179 17.514-26.851 29.122-45.388 42.695l-4.8178 3.1397c18.402-13.459 35.497-25.016 45.021-42.455 1.4525-2.9914 9.5847-21.281-0.21038-19.927-3.3649 0.95006-7.3574 3.5397-7.3912 5.9755z" display="block"/>
 <path d="m133.14 376.96c-1.9009 0.32418-9.0166 5.0859 3.3684-2.5914 0.6168-0.38236-1.028 0.91314-1.4775 1.3991-2.6975 2.9162-3.8898 6.286-5.0971 9.4925-4.3978 11.912-7.1419 24.046-9.6887 36.008-2.3795 11.144-4.4635 22.273-6.7467 33.414-0.31233 1.603-0.62557 3.206-0.93742 4.809l-5.7212 3.7912c0.42079-1.6687 0.83335-3.3371 1.2346-5.006 2.5211-11.233 4.8572-22.479 7.1948-33.711 2.481-11.869 5.1588-23.885 9.2508-35.718 1.9535-5.5123 5.553-13.718 14.681-15.904z" display="block"/>
 <path d="m112.7 440.1c3.3146-2.611 13.571-8.8001 3.4429-2.4732-0.55219 0.34494 1.0925-0.71272 1.6398-1.0671 2.9299-1.8972 5.8174-3.8271 8.8849-5.4048 2.5228-1.1674 6.3354-2.4526 7.9993-0.69132 1.1269 5.2591-7.8934 9.8946-11.214 12.003-3.811 2.3473-7.8169 4.2234-11.865 5.8617-2.9989 1.053-7.4106 3.784 1.1546-1.587l-5.6982 2.9939c4.3151-2.7358 5.6034-3.59 9.4477-5.0591 4.0213-1.648 7.9557-3.5147 11.74-5.8606-9.0276 5.7613 1.8515-0.60377 1.0063-5.0271-1.7726-1.2569-5.0145-0.12376-7.3971 1.0027-5.4037 2.866 6.3342-4.2263-0.0747-0.11801-2.2076 1.4151-8.8389 5.6442-6.6376 4.2172 7.8569-5.0935 5.288-3.5024 3.3862-1.891z" display="block"/>
 <path d="m120.94 443.11c-1.1248 4.0609 10.85 23.547 12.996 26.628 10.5 11.819 26.085 14.436 43.427 4.5836l-3.8974 2.9563c-17.65 9.9007-33.278 7.261-43.817-4.8795-5.2714-7.6636-11.26-16.912-14.374-26.019z" display="block"/>
 <path d="m76.755 437.82c1.2795-4.1039 7.7416-7.0144 10.976-8.6451 4.4136-1.6653 1.0908 12.341 0.61848 14.278-1.2591 4.9988-2.4119 10.158-4.0352 15.135-0.44594 1.2575 0.10745-0.31477-0.31626 0.92657l-5.5145 3.3492c0.4163-1.239-0.11698 0.31932 0.31152-0.92716 1.8684-5.0229 3.1972-10.317 4.4534-15.379 0.45494-1.87 3.6056-15.6-0.84717-13.885-2.04 1.0477-4.7897 2.7813 3.4848-2.3221 1.5123-0.93278-3.2574 2.4526-3.4785 4.0285z" display="block"/>
 <path d="m153.4 436.59c1.3132-1.157 6.3861-4.1021-4.1654 2.8404-1.8234 1.1998 3.5311-2.964 4.6834-4.9216-2.695-3.2906-9.7224-2.0265-13.738 0.13864-0.48568 0.32279-1.9427 1.2912-1.4571 0.96839 1.0375-0.68977 2.0283-1.5384 3.1126-2.069 1.5943-0.78018-2.7802 2.8429-3.4343 4.5881-1.4511 3.8721 1.5672 5.2778 4.2979 5.4917 4.6763-0.30704 13.875-4.1786 10.797 4.4716-4.5899 9.0191-17.463 15.095-25.566 15.457l4.6163-3.2954c8.4353-0.0964 13.357-2.9656 16.422-9.0954 2.7986-8.3551-6.2124-4.6527-10.758-4.3328-11.722-0.80911 1.419-12.151 6.3329-15.376 4.3711-2.3405 11.032-3.2876 14.21-0.26586-1.7043 2.998-7.5754 7.8221-10.173 8.8516z" display="block"/>
 <path d="m169.69 437.3c1.087-3.6396-0.32531-5.2382-4.127-4.3595-1.0055 0.52952 1.8934-1.3405 2.9247-1.7923 2.1729-0.95197-2.97 3.8432-3.8105 5.952-2.2826 5.7268-3.98 11.824-5.1016 17.616-1.0008 12.432 15.043-3.0665 19.229-6.8269 0.74306-0.68245 1.4861-1.3649 2.2292-2.0474l4.7232-2.8046c-0.77973 0.70454-1.5594 1.4091-2.3392 2.1136-4.7743 4.2589-30.566 27.031-28.745 12.535 2.5231-11.024 3.8503-21.874 16.002-28.061 4.0376-0.89419 5.1052 0.68374 4.5214 4.3409z" display="block"/>
 <path d="m192.45 433.38c-2.8818-0.37946-5.1988-1.1192-8.3931-0.60758-1.17 0.44705-10.68 4.1026 4.4534-2.1266 1.4917-0.61399-2.4346 2.1156-3.2746 3.3663-2.1092 3.1403-3.0719 6.5374-3.8854 9.8669-0.96929 4.5338-1.692 9.0691-2.761 13.602-0.87559 3.1898 4.6772 1.1038 6.6183 0.39401 3.3033-1.5688-2.521 1.203-4.1649 1.8857-1.3003 0.53999 2.3546-1.5523 3.4167-2.4461 2.681-2.2563 4.0806-5.2312 5.3897-8.0555 1.2069-2.8401 2.2151-5.6934 3.4973-8.5223l6.0068-2.7671c-1.39 2.842-2.4022 5.7045-3.6168 8.5757-3.489 7.7976-7.667 10.221-16.484 14.334-2.0482 0.72781-7.9047 2.849-6.8562-0.53041 1.2609-4.5776 2.1355-9.1621 3.0653-13.741 1.9221-8.1465 4.5964-13.263 14.596-16.835 3.2303-0.4595 5.651 0.39818 8.6481 0.53392z" display="block"/>
 <path d="m209.38 441.65c1.2727-4.6202 11.518-9.8017 15.21-11.04 5.459-1.0208 8.5931 0.12943 9.1108 5.5924-0.1585 6.0597-3.9757 13.383-8.69 18.09-5.7471 4.7514-10.96 8.2088-17.539 8.5745-0.66744 0.0179-1.3333 0.0297-1.9995 0.041l5.0593-3.7788c0.65466-2e-3 1.308-5e-3 1.9658-0.0223 3.1671-0.19206 6.315-0.92935 9.3802-2.738 0.35973-0.21225 1.3964-0.94051 1.0599-0.68187-7.2796 5.5953-4.4708 3.3286-2.9922 2.121 4.9082-4.5164 8.6803-12.058 8.769-18.05-0.61856-5.2896-3.6732-6.5037-9.0449-5.427-2.7522 0.9522-7.5704 4.4517-0.0544-1.1418 0.90829-0.67597-4.5986 2.5251-4.9305 4.7048z" display="block"/>
 <path d="m195.44 431.79c1.745-1.0787 4.3581-2.2066 6.1322-3.236 1.0976-0.63684-0.61439 2.1658-0.87916 3.2497-0.77044 3.1543-1.4114 6.3117-2.2278 9.4648-1.066 3.8855-1.691 7.6981-2.5214 11.578-0.59394 2.7169-1.3562 5.3974 2.0468 5.8596 5.7516-1.4993 3.1496-1.356 8.7008-5.3286l4.4025-2.7042c-5.4217 3.8968-11.575 9.6774-18.076 11.332-3.4936-0.49909-3.6448-3.1719-3.0185-5.9844 0.83459-3.9214 1.5931-7.7798 2.7124-11.702 2.0922-7.7602 0.82456-10.684 8.8795-15.832z" display="block"/>
 <path d="m231.65 448.93c0.28933-0.99548 19.641-12.171 9.6254-5.4457 3.806-3.038 5.14-5.8116 2.9508-9.187-0.6601-0.82992-4.4486 0.0157-3.3717-0.72969 7.6634-5.3042 0.82328 1.2315-1.115 5.4922-2.5244 6.0398-6.7715 17.649 0.6723 20.105 5.2598 0.42677 10.644-2.3286 15.528-5.1012l-4.4383 3.1626c-4.9817 2.8026-10.516 5.626-15.873 5.2153-7.4306-2.5057-3.0188-14.285-0.53513-20.341 1.7185-3.9358 9.905-16.958 14.128-11.154 2.1643 3.4909 0.93015 6.1993-2.9852 9.3524-3.1148 2.1212-6.1159 4.3934-9.4638 6.077-1.4747 0.74165-5.8391 3.0413-4.4741 2.0914 20.527-14.284 4.7139-4.0254 4.5849-2.9818z" display="block"/>
 <path d="m232.39 448.91c8.569-6.6969 17.733-9.9717 27.182-7.9375 11.019 2.6012 18.272 0.36458 29.222-6.5558l-3.5573 2.5405c-11.336 7.1907-18.676 9.6198-30.148 7.1018-5.5625-1.093-10.307-0.88398-16.2 1.6014-1.7949 0.75689-6.89 3.7345-5.2764 2.5936 9.1122-6.4424 5.4697-3.8983 4.0603-2.745z" display="block"/>
 <path d="m79.361 384.91c2.1782-1.8201 4.3491-3.6587 6.5348-5.4602 0.34863-0.28736-0.48941 0.85077-0.66382 1.3033-0.89515 2.323-1.3799 4.7454-1.7935 7.0938-0.67125 3.8117-1.2176 7.5868-1.988 11.407-2.8019 14.518-5.211 29.076-8.831 43.615-0.98598 3.9021-2.527 8.4802-2.8829 12.282 0.80174 3.0295 1.5226 2.2417 4.6774 0.32132l-5.8439 5.1825c-3.3958 2.1044-4.3852 3.1764-5.365-0.0358 0.51409-4.0608 2.4483-8.8011 3.5902-12.948 3.9137-14.633 7.0897-29.474 9.385-44.06 1.913-14.211-1.0025-15.322 9.6984-24.362z" display="block"/>
 <path d="m105.72 368.18c-11.979 11.332-22.617 15.884-37.234 15.844-19.492-0.94697-41.198-3.8031-51.153 17.86l-6.1218 4.1026c13.359-27.605 41.508-27.321 63.739-26.56 17.548-0.27522 16.162 0.58294 22.609-5.829z" display="block"/>
 <path d="m201.85 437.58c4.005-4.1973 12.756-12.671 13.567-4.8029-0.0524 12.282-5.9845 26.333-9.0914 38.768-4.421 18.098-8.3108 36.199-17.335 53.757-10.754 18.434-32.812 32.088-51.55 27.321-5.876-3.1068-9.9928-7.1568-12.021-13.712-6.9021-22.305 18.75-37.198 39.332-40.678 1.6285-0.11434 3.2571-0.22869 4.8856-0.34302l-4.9175 3.5061c-1.5583 0.0697-3.1166 0.13938-4.6749 0.20907-5.0354 0.77158-13.313 1.7699-17.906 4.5035-21.577 12.841-14.649 35.859 0.30259 42.995 18.876 4.4079 31.511-3.7211 41.533-20.444 9.281-17.509 13.062-35.707 17.452-53.813 2.9911-12.046 8.4667-26.056 7.7879-37.848-0.21452-1.13-0.40288-2.3856-1.4906-2.9209-0.49608-0.24414-2.3816 0.55912-1.8391 0.15865 10.819-7.9862 4.8205-3.6809 2.7528-1.1609z" display="block"/>
</svg>
