<?xml version="1.0" encoding="utf-8"?>
<!-- Generator: Adobe Illustrator 24.1.3, SVG Export Plug-In . SVG Version: 6.00 Build 0)  -->
<svg version="1.1" id="Calque_1" xmlns="http://www.w3.org/2000/svg" xmlns:xlink="http://www.w3.org/1999/xlink" x="0px" y="0px"
	 viewBox="0 0 99.4 70.7" style="enable-background:new 0 0 99.4 70.7;" xml:space="preserve">
<style type="text/css">
	.st0{fill:#003052;}
</style>
<g id="Calque_2_1_">
	<g id="Calque_1-2">
		<g>
			<path class="st0" d="M5.9,11.9h51.9c3.3,0,6-2.7,6-6c-0.1-3.3-2.7-5.9-6-5.9H5.9C2.7,0.1,0.1,2.7,0,5.9C0,9.2,2.6,11.8,5.9,11.9z
				"/>
			<path class="st0" d="M5.9,41.5h87.5c3.3,0,5.9-2.6,5.9-5.9c0-3.3-2.6-5.9-5.9-5.9c0,0,0,0,0,0H5.9c-3.3,0-5.9,2.6-5.9,5.9
				C0,38.9,2.6,41.5,5.9,41.5z"/>
			<path class="st0" d="M93.4,58.8H5.9c-3.3,0.4-5.6,3.4-5.2,6.7c0.4,2.7,2.5,4.8,5.2,5.2h87.5c3.3,0.4,6.3-1.9,6.7-5.2
				s-1.9-6.3-5.2-6.7C94.4,58.7,93.9,58.7,93.4,58.8z"/>
		</g>
	</g>
</g>
</svg>
