<?xml version="1.0" encoding="UTF-8"?>
<svg width="300" height="132" version="1.1" viewBox="0 0 300 132" xmlns="http://www.w3.org/2000/svg" xmlns:xlink="http://www.w3.org/1999/xlink">
 <text x="64.69754" y="128.33766" display="block" fill="#000000" font-family="'Liberation Sans',Arial,sans-serif" stroke-width="1pt" text-anchor="middle" style="line-height:0%" xml:space="preserve"><tspan x="64.69754" y="128.33766" font-size="6px" style="line-height:1.1">Image originale</tspan></text>
 <text x="210.72394" y="124.67367" display="block" fill="#000000" font-family="'Liberation Sans',Arial,sans-serif" font-size="6px" stroke-width="1pt" text-anchor="middle" style="line-height:0%" xml:space="preserve"><tspan x="210.72394" y="124.67367" style="line-height:1.1">Image vectorisée / Chemin résultant — Simplifié</tspan><tspan x="210.72394" y="130.67368" style="line-height:1.1">(384 nœuds)</tspan></text>
 <image x="23.024" y=".058779" width="83.347" height="115.89" xlink:href="oldguitar.jpg"/>
 <path d="m168.73 89.642v-26.312c2.7545 0.2145-1.4634-0.4831-9e-3 -2.7448 0.0132-9.1739 0.0265-18.348 0.0397-27.522 3.1445-0.3823 3.5233-0.8125 5.1494-0.1402-0.10115-0.5427 6.6118 1.0626 4.272-1.0069 2.3227 0.0503 5.0414-0.3931 1.8865 1.1706 3.7564-0.6727 7.6105-2.5829 11.134-0.3497 5.3318 0.0974 3.031 0.0377 1.5982-1.05 3.1741-0.4289-6.1912-0.1383-1.7615-0.0861 2.0778-2.8008 9.6362 3.8847 6.9169-3.2196 1.5642-0.4928 1.3906 6.1266 2.8933 0.6986 2.5572-3.7326 2.4053 3.4933 6.374 1.604 1.0689-3.7011-4.172-6.6833-7.1202-8.1657 2.8039 1.6844 5.2565 0.7929 2.1688-2.0231-0.33715-3.1942 5.2333 3.8362 7.997 3.0237 4.3343 1.7428-7.3323 2.6441-0.50564 2.8554 1.0903 1.7046 4.833 6.0099 3.947 0.6832-0.0359-1.8188-0.2334-10.127-1.4892-4.7928-3.4581-0.8792-5.0585-4.8368-7.7111-4.1558-0.61753-1.4771 1.1565-1.504 1.7363-2.5667-0.81514 2.3236 6.498 3.3484 5.9113 0.8523-1.4275-2.1291-5.7854 1.7501-4.9486-1.7724 4.5379 0.3776 2.6756-2.6643 0.34802-2.3439-1.4961 1.8349-9.8878 3.4427-8.6191 2.425 1.6342-1.7066 7.2802-1.2364 9.9932-4.7141 4.7895-2.7554 9.7493-5.3947 15.436-3.8839 1.8253-1.8037-1.4372-7.1732 2.881-5.9164 5.088 0.1172 10.309-0.5425 15.286 0.3304 3.7107-0.4323 11.957-2.1157 9.3774 4.9761 0.0729 36.819 0.0977 73.64-0.13981 110.46h-83.043v-26.312zm6.9856 25.115c0.81648-2.9539-2.2727 2.0792 0 0zm2.3553-1.6346c-0.10265-2.4652-1.0852 2.9469 0 0zm1.1852-0.1282c-0.59229 0.2193 0.41926 1.4265 0 0zm-2.3131-0.5137c1.5817-4.7735-2.7114 2.9575 0 0zm-1.8018 0.2032c1.2484-4.6 5.416-9.6715 10.049-9.8927 1.4577-2.0723-0.47827-5.0224-0.0778-7.2078-4.9198-4.3494-3.5287 8.5513-7.6233 10.684-2.9502 0.7837-3.9618 5.9937-2.3479 6.4169zm55.064-3.0573c-2.485-4.848 0.75345 4.4426 0 0zm-1.7276-0.1674c-1.3897-1.4084 0.42269 1.8833 0 0zm-1.329-1.9943c-2.3471-1.7137 0.90871 2.6227 0 0zm2.2768-1.5317c-1.4619-2.6922-1.8608 5.2332 0 0zm-2.596-1.1969c-1.883-3.2236-0.51299 1.4574 0 0zm2.4335-0.3594c-0.61841-0.6675-0.68866 1.0178 0 0zm-7.4883-2.4208c-2.8289-2.0035-1.6937 0.9698 0 0zm6.0244-0.2025c-1.7552-0.1918 0.57701 0.536 0 0zm-8.5742-0.5952c-3.114-1.1918-2.1133-3.8722-3.7463-4.1138 2.63 0.9138 2.0982 2.1237 4.8737 1.9889 3.4797 2.7721 6.5954 0.7933 10.039 1.5997-2.3104-2.3139-8.4989 0.4595-11.59-3.247-7.3451-3.8721-13.337-10.542-21.903-11.762-3.1177-1.2999-9.6057-4.1816-9.7019-6.4829 3.7889-4.3183-6.2165-0.6923-7.044 1.3564-4.0745 3.4256 2.1468 9.5613 3.3264 8.7065 1.3034-2.1975 1.8885 0.2974 0.24548 0.7602 0.88102-0.7859 6.3102 2.681 2.6044-1.1747-2.4795-1.5307-3.6681-1.4881-2.143-2.9918 2.8638-0.736 4.6803 6.9088 4.4147 2.2465 1.8284 1.796 5.5857 4.5326 5.5641 0.7408 0.51362 0.6255 4.9406 3.5802 8.0983 4.8603 1.0142-2.9318 3.1587 2.6987-0.0176 0.955 3.1972 2.9819 9.698 2.899 13.901 5.4353 1.0605-0.0726 2.2336 1.7498 3.078 1.1229zm-5.7796-3.4556c0.75681-1.1843 0.75683 1.1842 0 0zm-1.2167-0.6084c-2.0676 0.7258-4.6639-3.1396-3.162-1.996-1.0226 0.6418 5.8633 2.4934 3.162 1.996zm-4.9454-1.2425c-2.8868-0.6799-0.26979-2.4002 0.5844 0.2888l-0.58439-0.2888zm-2.355-1.3251c0.39455-1.4457 0.63889 1.1304 0 0zm2.3574-0.0672c2.1648-0.3461-0.21078 0.5398 0 0zm-21.825-4.4956c0.76742-1.1911 0.83765 0.6394 0 0zm2.5384-3.0729c-0.17908-1.6444 1.9071 1.7158 0 0zm1.4668 11.779c2.7039-0.8292 6.8923-1.7526 1.4996-2.0428-2.6398-1.7777-6.7559 0.0686-3.5404 2.5872l0.87772-0.1369zm12.421-3.5749c-1.6717-2.7417-4.2741-0.3405 0 0zm-4.2586-1.043c-0.75719-1.184-0.75645 1.1843 0 0zm1.4449-0.3802c-1.0855-1.1965-0.85795 1.4722 0 0zm-7.5286-2.9658c-1.1399-1.2467-1.1399 1.2467 0 0zm23.574-8.213c-0.93279-0.978-0.0961 1.0482 0 0zm-3.346-0.6084c-1.3987-1.0818-0.0197 1.0391 0 0zm13.269-0.8137c-1.1083-1.392 0.82576 2.2445 0 0zm-14.501 0.2395c-2.9672-1.6682-0.74397 0.5748 0 0zm3.5134-0.6605c-1.2065 0.1749-0.19513-0.1327 0 0zm-5.6274-0.2862c-1.6111-1.1112 0.34112 1.0483 0 0zm17.491-0.7351c0.47254-1.5234 2.417-3.7854 0.99857-3.743 3.6836-0.7804 0.84726 1.2574 0.412 3.5428 2.4801-0.4557 3.8202-10.562 2.5634-8.5343-0.92431 7.5866-0.4323-5.934-2.7612-5.1313 0.72743 1.5414-6.2196 1.8822-4.4828-0.0095-0.0914-2.7103-2.9735-7.4757-6.2289-9.9499 3.2874 0.8798 6.3783 6.5867 7.96 9.9594 1.433-3.8428-6.328-9.9435-5.9966-10.534 2.4014 1.4483 8.0944 7.021 3.5295 1.4083-0.98658-1.7442-6.2664-3.9381-1.2997-2.1404 1.781 1.6662 7.3133 7.6294 3.1774 2.1807-0.75721-3.7176-10.222-3.6844-4.7485-6.8283 0.78956-3.1508 4.5057-10.265 3.823-11.216-3.1943 1.4764 3.0169-3.6766-0.71243-2.201-2.6894-0.5772-3.5722 0.4801-0.40993 0.223 1.2909 2.7852-3.9063 3.5883-3.2595 0.0106-7.3519-0.0811-7.046 8.5409-6.9395 13.745-3.0607 5.0066-12.875 2.877-15.632 7.7654-0.73717 5.201 2.8801 11.909 7.8756 5.8127 3.2735-2.1777 5.767-6.3269 8.6499-7.8432 2.8127 0.0528 1.671 2.6931 5.797 3.752 2.352 1.1544 5.0912 6.0886 1.8421 4.5694 1.2471 3.4625 3.7617 5.6482 3.5004 9.5396 1.9138-0.6529 1.4415 4.9861-0.14137 0.882-0.1533 0.9626 1.9322 5.404 2.4837 4.7402zm-0.39924-2.199c-0.65258-1.5847 2.33 0.1457-1e-5 0zm0.095-2.4071c1.1374 0.349 0.27833-3e-3 0 0zm3.5234 0.2109c-0.20112-1.884 0.91342 0.7243 0 0zm-4.7401-6.1341c0.89253-1.0169 1.41 0.5782 0 0zm3.0659-1.638c0.12998-1.3219 0.28103 1.1382 0 0zm-11.431-8.9989c-0.0639-1.2265 1.2496 1.1452 0 0zm-1.2346-3.4884c-1.249-1.4541 2.2129 1.4591 0-1e-4zm3.516-6.3978c0.54298-1.4587 0.54276 1.459 0 0zm-1.3099-0.0423c-0.20141-1.6682 1.5055 0.7565 0 0zm3.135-4.5025c0.76735-1.1912 0.83767 0.6396 0 0zm0-2.1292c0.9069-1.8387 0.61699 1.3848 0 0zm0.60837-0.7783c0.75664-1.1843 0.75696 1.1838 0 0zm-0.56035-0.6084c0.21069-1.7707 0.21089 1.7716 0 0zm-4.8053-2.2442c1.8482-2.6845 1.8973 0.7997 1e-5 0zm2.3284-0.7217c1.2622-2.7558 0.0463 2.0337 0 0zm-10.548 41.427c2.0886-1.9014 0.1466-2.9283 0.22257-2.5675 0.63937-6.9426-1.893 5.8101-1.9508-0.1715 1.2056-4.798-2.058-2.6837-1.7283-0.7798-2.9621-2.1568 3.576 5.7131 3.4565 3.5188zm-0.33665-2.2633c0.16881-2.0766 0.16878 2.0766 0 0zm-2.3013-0.507c-1.3796-1.5449 1.588 0.2668 0 0zm14.094 0.507c-0.75701-1.1842-0.75661 1.1844 0 0zm-16.122-2.6995c-0.85158-2.6911-0.73357-2.7597 0.46709-1.7112 2.6892-2.5671-2.168-0.2157 0.26058-3.1166 3.5372-0.0621 1.9207 5.5693 2.8639 0.2552 0.91564-2.7922 2.1012-8.1378-2.2228-4.227-3.6508 0.7086-3.4323 7.8691-1.3688 8.7996zm-0.86324-4.5249c-0.73774-3.3126 1.5702 1.8775 0 0zm17.102 4.0411c2.7381-4.0111-1.0511-4.0451-1.593-2.6916-0.66762-2.2345 7.1166-3.3554 0.70137-3.9655-2.0124 2.3647-0.83327 4.0292 0.11549 6.6778-0.91217 0.7971 0.76665 1.1157 0.77619-0.0207zm-1.131-5.2325c-0.62875-2.2868 1.5098 1.2331 0 0zm-3.9734 4.8479c-0.59231 0.2191 0.41923 1.4264 0 0zm8.0292 0.526c-0.75689-1.1842-0.75674 1.1843 0 0zm-13.997-0.9885c-0.45012-1.9539-0.28463 2.6786 0 0zm12.643-0.1479c1.1844-2.4896-0.86805-6.2035-0.25628-2.1288-0.75538 0.2889-0.81308 3.8481 0.25628 2.1288zm1.6582-0.7259c-0.85623-1.7715-1.056 3.1594-1e-5 0zm-5.3194-3.9348c-0.96451-1.3014 0.42421-5.4743-1.5668-1.8682-0.52882-0.4402-2.0626 1.7085-1.0529-1.9318 0.68488-1.8549-3.4272-5.9429-1.5591-1.7433 1.4424 2.2202 0.13203 7.7318 2.3571 5.6768-1.1875 3.5905 2.1257-1.6389 0.66305 2.126 0.80556-0.2966 0.86965-1.5796 1.1587-2.2595zm-7.8848 1.2019c-3.633-1.9476 1.4798 2.2162 0 0zm2.7098-0.2718c-1.6111-1.1112 0.3411 1.0483 0 0zm18.231-1.5741c-1.4785-3.1109 0.31491-6.3916-1.2147-7.4922-2.9256-4.3955-3.0521 7.2913-1.1661 3.8179-3.3737-3.8339 2.3355-4.7198 0.47432-2.5331-1.2954-0.2638-0.37655 2.2208 0.36966 1.1837-0.55627 1.0631 1.1988 7.0356 1.5368 5.0237zm-21.597 0.3893c-0.64151-1.6953-1.231 1.1374 0 0zm2.3011-0.6728c-1.4935-5e-3 0.77227-2.1839-1.5209-0.2717-0.0945 0.7984 1.254 0.778 1.5209 0.2717zm1.9902 0.0534c1.7181-3.8744-1.748-0.0716 0 0zm-25.302-1.6939c-1.5958-1.5938 0.19576 1.5587 0 0zm3.6713 0.118c1.9736-1.1461-1.2635-0.6007 0.99871-1.9947-2.4016-0.1927-5.7023 2.9445-0.99871 1.9947zm4.2976-0.6896c-0.35752-4.7055-1.617-2.4873-0.67336 0.6176 0.37737 0.3379 0.64294-0.4147 0.67336-0.6176zm13.822 0.4195c-2.5902-1.3982 6e-3 1.3845 0 0zm1.66-0.2831c-0.0721-1.416-1.1312 1.0181 0 0zm-16.869-0.9406c-1.3246-1.5238-1.1816 2.2562 0 0zm-9.7553-0.6775c-1.1053-0.5926-0.30943 2.7328 0 0zm25.435 0.1521c-1.1688-3.7259-0.5442 3.649 0 0zm6.5254 0.0582c-1.1371 0.3491-0.27867-0.0029 0 0zm-5.0191-0.1342c1.984-2.2801-0.92069 0.1369 0 0zm9.3839-0.1423c-0.28181-1.8087-1.4085 1.1273 0 0zm-30.984-0.8463c3.7278-2.0055-1.8284-2.4116-1.1769-1.4449 0.2295-0.0869 0.0452 4.1564 1.1769 1.4449zm-13.534 0.3134c2.2474-1.0338 4.7058-2.709 0.0477-1.6956-3.0621 0.0125-4.5112 2.5428-0.0477 1.6956zm0.024-0.9725c0.13-1.3216 0.28103 1.1386 0 0zm10.552 0.4307c-1.3538-1.5309 0.64199 2.2012 0 0zm-6.3171 0.3044c-0.72862-1.2151-0.48497 1.1312 0 0zm3.641-0.5975c-0.66787-1.5166-1.8109 2.3739 0 0zm9.7432 0.4526c-3.2425-1.0866-2.4773 1.3281 0 0zm22.358-0.1592c1.9266 0.1604-2.113-0.7112-0.32564 0.1117l0.32563-0.1117zm2.5037 0.3975c-2.5977-0.262 0.43208 0.4989 0 0zm12.455-2.2987c3.0834-4.3634 4.7507-7.9892 5.0927-11.034 1.1728-4.2628-2.9818-10.455-6.8017-9.7746 3.2952 0.3798 2.3063 2.3156 4.5091 3.5602 1.0144 2.6913-0.36629 3.8994 0.73164 4.9601 1.3796 2.3158 1.0703 0.8374-0.8808 1.7943-0.29881 1.1934-1.2688-2.2444-1.9431 1.2884-3.4102-0.1765 0.49449-1.4398 0.81908-3.3701 2.0418 3.2768 0.0889-6.0762-1.5604-4.654 1.222-1.6707-1.8358-0.5574-1.2701-2.4078-1.7791 4.0034 0.22364-2.8467-1.5156 1.1728-1.7518 3.045-3.334 8.0441-0.12417 5.3091 2.1714-4.9224 1.3081-0.357-3e-3 2.2973-1.3679-1.0398-0.94744-1.4011-2.8577 0.1684-0.89221 1.737-2.1115 5.3432 0.12001 2.0971-0.31445 2.0709 1.4661 1.8815 1.6796 1.7233 0.19465-2.0982 4.0813-0.7968 2.2508 1.2864-2.966-2.2196-0.0471 4.4346-3.3832 0.7637-1.5836-1.0251 0.0612 2.2429 2.1402 2.3327 3.2601-0.032 0.45958 7.4563 2.9966 2.4871zm-1.8147-3.27c0.42912-2.0047 1.035 1.9234 0 0zm-1.4328-0.3042c0.757-1.1842 0.75665 1.1843 0 0zm2.4829-1.0966c1.8759-2.5675 2.7088 2.1899 0 0zm2.6882-0.5764c1.8074-1.7174-1.9528 0.1452-0.60837-2.1293 0.45301-4.219 0.95575 0.9504 0.80925 0.2375 0.30436-2.8909 2.3807 1.3922 0.76091 0.6875 0.6496 0.2972-0.74803 2.6507-0.96179 1.2043zm-2.1293-1.3688c1.0918-2.0789 0.68058 1.9655 0 0zm-0.30419-1.1988c0.6543-1.1027 0.84685 0.673 0 0zm-5.1712-1.9772c0.76723-1.1913 0.83781 0.6394 0 0zm5.0612-1.8432c0.10206-1.6708 0.90107 1.5762 0 0zm4.9874-1.7985c-3.2263-3.183 1.9665-2.4117 0 0zm-5.0295 0.4298c1.4022-0.1619 0.23956-0.1484 0 0zm-2.5856-2.8898c1.6472-1.3933-0.39611 1.6129 0 0zm2.4335 0.1521c1.4062-1.3053 0.59335 1.2116 0 0zm-58.955 17.131c-1.7552-0.1918 0.57704 0.5361 0 0zm15.96-1.2149c-3.4265-0.7643 0.9875 2.6565 1e-5 0zm-17.082 0.8144c-1.5878-1.1732-0.33897 1.2606 0 0zm13.066-0.8593c-2.9534-0.0402 0.01 1.8913 0 0zm1.6868 0.5551c-1.1274-1.06-0.82024 0.6175 0 0zm-4.0362-0.2108c-2.5976-0.2619 0.4319 0.4988 0 0zm11.394 0.0029c-1.7552-0.1918 0.57701 0.5361 0 0zm22.072-0.8822c-1.516-0.3817-0.11727 1.7911 0 0zm-22.554-0.9567c-0.59225 0.2188 0.41925 1.4265 0 0zm-0.48797-0.0824c-0.68732-1.2477-1.3182 1.2668 0 0zm22.814-0.2947c-0.92933-0.6727-1.3775 1.0628 0 0zm13.264-0.5355c-0.59232 0.2189 0.41939 1.4265 0 0zm-0.87181-0.5967c-2.3208-1.309 1.0482 1.8209 0 0zm-2.154-2.3581c-2.4293-1.5096 2.1392 2.5308 0 0zm-26.208-0.4737c-1.4019-0.162-0.23995-0.1483 0 0zm26.776-0.6314c0.53483-2.5634-1.7412 2.3702 0 0zm-25.72-0.2692c1.3643-1.3955-3.4312 1.1175 0 0zm2.775-1.626c-1.1418 0.3082 0.92995 2.0539 0 0zm-2.462-1.8334c-0.75195-2.0269-1.7874 1.7065-1e-5 0zm2.1956-1.4749c-0.69601 0.6257 0.80442 1.9231 0 0zm-0.67466 0.6637c-0.7287-1.2151-0.4849 1.1314 0 0zm-2.3161-0.7412c-1.4039-1.0998-0.43669 1.429 0 0zm2.9245-2.3195c-2.7058-4.1022-2.2673 2.3853 0 0zm-17.643-0.8936c-0.72832-1.2153-0.48534 1.131 0 0zm16.566-1.4153c-2.5887-1.4184 1.2164 1.8388 0 0zm10.404-1.0943c-0.53567-0.1974 0.33281 2.1308 0 0zm-11.456-0.2461c-1.2065 0.1749-0.19509-0.1328 0 0zm1.1559-0.347c1.5016-2.7856-2.3699 1.4451-1e-5 0zm-24.578-0.3955c-0.73174-1.6969-0.33336 1.6119 0 0zm34.573-1.4507c-0.38689-0.7622 0.17478 4.2672 0 0zm20.863 0.7924c-0.69353-1.7896-1.042 0.7084 0 0zm-31.25-0.7154c3.4909-3.39-3.2526 1.0101 0 0zm-30.07-4.3355c-0.38714-0.7452 0.17519 4.2434 0 0zm18.356-0.2583c-0.6887-0.6702-0.66052 1.5729 0 0zm53.043-5.9875c1.4993-5.2069 1.1954-14.232-2.2439-16.276 2.8786 4.9483 1.2586 10.413-0.65976 15.397 0.23106 3.4971 3.0147 6.8935 2.9037 0.879zm-53.043 2.6774c-3.1135-1.1972-1.7484 0.8869 0 0zm22.51-1.3689c-0.3701-1.4425-0.60457 1.5134 0 0zm-8.2177-1.4628c-0.71041-3.9497-0.72492 2.9125 0 0zm9.1302-8.8796c-2.077-1.5982 0.68868 1.5223 0 0zm0.76045-0.7605c-0.93298-0.9775-0.0958 1.0483 0 0zm-0.91255-1.2166c-0.93284-0.978-0.096 1.0482 0 0zm15.666-3.346c-1.8953-2.162-3.0854-4.9365-2.3888-8.0391-2.3738-1.9045-9.4031-2.0434-5.6783 1.8477 1.3204-0.6548 5.1154 7.1935 8.0672 6.1914zm12.405-5.3391c-3.6018-1.6282-0.8041 1.6877 0 0zm-3.7727-0.1466c-4.1267-1.3216-3.6417 1.4306 0 0zm1.8195-1.649c7.4682 1.0245-3.6608-2.2752-2.467 0.2065 0.79518-0.2777 1.643-0.224 2.467-0.2065zm4.0441-1.5215c-2.3768-2.4059-8.6203-2.5656-2.2486-0.6056 0.39329-0.0295 2.8591 2.1469 2.2486 0.6056zm-5.9884-0.9077c-1.2884 0.4219-0.73451 2.3512 0 0zm6.7018-0.9039c-1.0482-2.6216-8.7022-2.745-2.6736-0.784 0.73419-0.2943 3.0735 2.6033 2.6736 0.784zm-67.307 27.014c-1.1029-2.5711 1.2851 0.2321 0 0zm1.1977-0.019c-0.0208-1.7459 0.97563 0.2859 0 0zm6.9628-0.6418c0.51246-2.7979 6.748-0.1638 1.3616-0.0215l-1.3616 0.0215zm1.4086-0.58c-1.7553-0.1916 0.57711 0.5359 0 0zm-7.3575 0.2078c0.7568-1.1843 0.75681 1.1842 0 0zm-2.1293-0.5662c1.6376-0.6453 2.2787 0.9821 0 0zm4.4161-0.0334c-4.0606 0.3673-3.9825-2.9482-3.6127-5.3225-0.85001 0.7934 2.0392-5.4216-1.309-4.5225 1.1118-3.0369-2.3757 0.1165-2.3606-2.7692-0.59194 2.7825-0.0659-2.5109-2.7192-0.4064-1.6689-1.9045-0.59154-10.204 0.69801-6.456 1.1633-2.5708 5.0397-2.3128 7.7418-1.6187 2.2085 0.7976 8.5451-1.6254 5.1343 0.6123 0.21344 0.9374 8.7281-1.0243 3.0742 0.1176-2.3907 0.1735-3.8592 2.1908-1.7824 2.615-2.5372 1.9352-4.2617-2.363-5.0458 2.0574-3.026 1.6255 0.37929 4.8537 0.22159 7.8246-2.004-5.4508-0.16259 3.9007 1.1933 5.0849 2.8296 2.4836 2.2864 3.4021-1.2334 2.7835zm-2.2868-2.4422c-1.4064-1.3053-0.59318 1.2116 0 0zm-2.6589-15.818c2.5874 0.2627 8e-3 -2.7273-0.6174-1.6731 1.6162 1.2249-2.5051 2.8321 0.6174 1.6731zm2.2937-0.9887c-1.4165-3.448 0.22411 3.4343 0 0zm4.9436-0.1761c-3.495 0.0671 0.89611 1.2169 0 0zm-8.5328-0.3383c-1.2192-2.118-1.5162 1.4335 0 0zm3.4031-1.4424c-1.7553-0.1917 0.57702 0.5357 0 0zm11.426 21.286c3.4114-0.1535-0.16195 0.4318 0 0zm-16.836-1.8748c0.88977-2.9039 1.3191 2.9776 0 0zm33.718 0.459c-2.2408-2.2216 3.3954 1.2765 0 0zm-13.248-0.1186c-2.4654-4.0691 5.9971-4.0408 2.6029-2.2675-0.85575 4.7982-1.143-2.3681-1.3871 2.3546l-0.46439 0.141zm4.8577-0.8872c-0.77484-2.831 1.5548 0.877 0 0zm-16.012-1.4479c-1.0427-3.2506 1.435 2.3992 0 0zm19.62 0.4483c0.95811-3.3778 6.3452 0.7252 1.385-0.7214-0.44178 0.1477-0.81052 1.123-1.385 0.7214zm-2.3953-0.8941c1.5632-3.9796 1.9332 2.8828 0 0zm-23.853-0.0824c-2.0302-3.7418 1.8629 1.1298 0 0zm37.261-0.4542c4.2786-0.1742-0.7713 0.3867 0 0zm-42.301-1.5242c-1.0581-3.2012 1.6943 0.9275 0 0zm28.013-1.3912c-4.1151-4.0914 4.6426 1.8262 1.5746 1.5727-0.60327-0.441-1.0705-1.0297-1.5746-1.5727zm-23.763-0.079c-2.0234-2.2008 4.7365-0.0507-9e-3 0.3295zm-3.6416-0.659c-0.96061-3.0865 1.1649 0.37 0 0zm35.843-1.0141c-0.0637-1.2262 1.2496 1.1456 0 0zm-33.004-0.7424c0.39458-1.4457 0.63886 1.1306 0 0zm18.801-2.3315c-2.5502-3.0373 5.4735-3.9953 0.22348-1.5897-0.1025 3.9055 1.4129-3.7593 4.1701-0.0915 2.9314 0.3727-5.2932-0.0492-2.3995 0.6487 5.7027-1.1224 0.14912 4.0014-1.9941 1.0325zm4.7914 0.6689c0.30528-0.7437 2.4805 1.1389 0 0zm-17.052-0.3326c-0.0639-1.2264 1.2497 1.1455 0 0zm18.403-0.6216c-3.2177-3.2032 0.91154-1.5101 0.3042 0.3174l-0.21483-0.0932-0.0894-0.2242zm1.597-1.1007c-0.61113-1.4182 5.3557 0.9224 0.62595 0.1051zm-1.2167-3.6503c-1.5067-1.5795 2.5441 0.6254 0 0zm-3.27-0.8512c-6.2028-1.2656 0.18466-0.8527 2.256 0.2398-0.75976 0.0137-1.5075-0.1368-2.256-0.2398zm-5.0191-1.667c0.65393-1.1026 0.84716 0.6728 0 0zm1.9075 0.1024c1.5008-0.5195 0.21717 0.6259 0 0zm-21.375-1.3371c2.2067-1.1364-0.50565 1.3663 0 0zm18.167 0.1188c-4.6143-0.2578-1.895-2.3707 0.25373-0.4972-0.2869-1.5971 3.1642-0.1293-0.25373 0.4972zm-11.088-0.9111c1.5012-0.5199 0.21704 0.6263 0 0zm4.954-0.5004c1.3986-2.6223 0.52171 2.3156 0-1e-4zm-6.7791 0.1962c1.5011-0.5198 0.21703 0.6263 0 0zm3.9562-1.0253c0.57594-1.8572 1.4419 1.8571 0 0zm-9.5957-1.2487c0.88596-1.6927-0.18275 1.9301 0 0zm1.9804-0.2695c-2.0351 0.7421-4.4205-3.3555-1.3973-2.3097-1.6559 1.8686 6.0765 0.1224 1.3155 1.5497 0.78739-0.0983 0.72619 2.0665 0.0818 0.76zm2.1382-1.1066c1.5009-0.5198 0.21718 0.6261 0 0zm3.0075-1.033c0.2108-1.7729 0.21078 1.7727 0 0z"/>
</svg>
