<?xml version="1.0" encoding="UTF-8"?>
<svg width="300" height="105" version="1.1" viewBox="0 0 300 105" xmlns="http://www.w3.org/2000/svg" xmlns:xlink="http://www.w3.org/1999/xlink">
 <text x="63.696297" y="97.154671" display="block" fill="#000000" font-family="'Liberation Sans',Arial,sans-serif" stroke-width="1pt" text-anchor="middle" style="line-height:0%" xml:space="preserve"><tspan x="63.696297" y="97.154671" font-size="6px" style="line-height:1.1">Image originale</tspan></text>
 <text x="152.81369" y="97.37867" display="block" fill="#000000" font-family="'Liberation Sans',Arial,sans-serif" font-size="6px" stroke-width="1pt" text-anchor="middle" style="line-height:0%" xml:space="preserve"><tspan x="152.81369" y="97.37867" style="line-height:1.1">Seuil de luminosité</tspan><tspan x="152.81369" y="103.37867" style="line-height:1.1">Rempli, sans contour</tspan></text>
 <text x="239.11449" y="97.37867" display="block" fill="#000000" font-family="'Liberation Sans',Arial,sans-serif" font-size="6px" stroke-width="1pt" text-anchor="middle" style="line-height:0%" xml:space="preserve"><tspan x="239.11449" y="97.37867" style="line-height:1.1">Seuil de luminosité</tspan><tspan x="239.11449" y="103.37867" style="line-height:1.1">Contour, non rempli</tspan></text>
 <image x="25.214" y="-3.0566e-5" width="76.965" height="91.143" xlink:href="tux.png"/>
 <path d="m137.63 88.292c-0.97473-0.46293-5.2877-1.7903-9.5843-2.9496-4.698-1.2677-8.0128-2.4262-8.3157-2.9063-0.3524-0.55868-0.23061-1.6663 0.40567-3.6892 0.62712-1.9938 0.80989-3.6159 0.589-5.2275-0.23289-1.6991-0.16833-2.1847 0.23661-1.7798 0.57796 0.57797 0.39403 5.7855-0.29638 8.391-0.33093 1.2489-0.18799 1.4693 1.3772 2.1233 0.96057 0.40134 2.981 0.87759 4.4898 1.0583 1.5088 0.18073 5.1665 0.90041 8.1281 1.5993 5.1651 1.2189 5.4578 1.236 7.1764 0.42052 2.2254-1.056 3.5189-3.5402 3.0539-5.865-0.18222-0.91109-1.926-4.1824-3.8752-7.2695-6.1214-9.6954-7.4334-10.949-10.056-9.6098-1.296 0.66203-1.3674 0.62977-1.6716-0.75549-0.43339-1.9732 0.0767-3.8156 2.049-7.4001 0.91941-1.671 2.2439-4.7969 2.9434-6.9466 1.5818-4.8615 1.9766-5.6069 4.6349-8.7503 1.1776-1.3925 2.8373-3.6368 3.6883-4.9874l1.5473-2.4557-0.3005-9.7988c-0.26485-8.6362-0.19374-10.078 0.59939-12.155 2.0219-5.2943 5.8462-7.6314 11.787-7.2032 5.4312 0.39141 9.1235 2.6265 11.635 7.0428 1.3902 2.4449 1.6514 3.8165 2.1031 11.044 0.37435 5.9909 0.43831 6.24 2.7993 10.903 1.3289 2.6244 3.542 6.0581 4.918 7.6305 4.739 5.4155 7.2651 12.192 7.26 19.475-3e-3 4.7302-0.0357 4.859-1.946 7.7326-2.4572 3.6963-3.5109 4.4198-6.4377 4.4198-3.6323 0-3.7424-0.30123-3.7757-10.332-0.0319-9.592-0.61967-12.244-3.6817-16.612-0.83692-1.1939-1.6752-2.9682-1.8629-3.9429-0.36044-1.8721-4.2138-10.158-4.9744-10.697-0.2458-0.17406-0.19472-0.47233 0.11351-0.66282 0.70146-0.43354 0.73842-3.1549 0.0486-3.5812-0.32395-0.20022-0.23103-0.71714 0.25317-1.4084 1.0438-1.4903 0.95996-3.563-0.23925-5.9137-1.1565-2.2669-2.5255-2.8871-4.5353-2.0546-1.8245 0.75571-2.7703 2.5599-2.4474 4.6686 0.28233 1.8442 0.0412 2.9392-0.64734 2.9392-0.24654 0-0.30364-0.37686-0.12689-0.83747 0.27593-0.71905 0.031-0.79852-1.7325-0.562l-2.0538 0.27548 0.24574-1.8432c0.1843-1.3824-0.0287-2.1913-0.85193-3.2356-2.2077-2.8006-4.5686-1.0261-4.5686 3.4338 0 2.7044 0.95445 4.6968 1.954 4.079 0.4327-0.26742 0.38599-0.65304-0.17636-1.4559-0.9079-1.2962-0.99961-3.4677-0.18103-4.2863 0.81511-0.81511 2.2618 0.05217 2.647 1.5869 0.1701 0.67771 0.44854 1.5952 0.61877 2.0388 0.17524 0.45665 0.0507 0.80656-0.28718 0.80656-0.82016 0-1.7507 1.0033-2.7842 3.0019-0.83542 1.6155-0.83158 1.727 0.0912 2.6498 2.1462 2.1462 7.3872 1.5054 11.852-1.4491 1.0909-0.72194 2.1025-1.1936 2.248-1.0481 0.25932 0.25932-1.9233 1.7977-5.0422 3.554-0.89883 0.50612-2.629 0.88567-4.0394 0.88612-2.1356 6.8e-4 -2.3824 0.10286-1.8368 0.76031 0.84046 1.0127 2.2808 0.95729 5.871-0.22582 2.9347-0.96707 2.9666-0.96728 1.7242-0.01135-3.8943 2.9964-6.4478 3.0434-9.6206 0.17703-2.0551-1.8566-2.5319-1.6313-2.5319 1.1965 0 0.7187-0.66989 2.352-1.4886 3.6296s-1.7678 3.4622-2.1091 4.8547c-0.34127 1.3925-1.7241 4.8106-3.073 7.5958-2.5273 5.2186-3.7154 10.589-2.967 13.412 0.20696 0.78062 2.2294 2.7945 5.2353 5.2132 5.2702 4.2406 6.2024 5.7426 4.6372 7.4721-0.49391 0.54576-1.2045 0.9923-1.5791 0.9923-1.879 0 0.64192 3.6056 3.2238 4.6109 2.0774 0.8089 7.9566 0.63067 10.845-0.32878 2.7782-0.92279 6.3905-3.4154 8.9218-6.1564l1.6456-1.782v5.1446c0 5.7907 0.69173 7.8429 2.9305 8.6941 1.9965 0.75908 4.3916 0.13871 9.1706-2.3753 4.8906-2.5728 5.7738-2.8381 2.7341-0.82119-1.1702 0.7764-3.1128 2.335-4.3169 3.4636-2.9292 2.7454-3.9383 3.2223-6.8139 3.2201-2.6211-2e-3 -5.7297-1.4759-5.7297-2.7165 0-1.108-1.677-1.318-10.581-1.3255l-8.3026-0.0069-2.26 1.8519c-2.7103 2.2209-5.8926 2.7216-8.7308 1.3736zm30.671-58.7c-1.2453-0.91921-1.5471-0.61412-0.79061 0.79938 0.45359 0.84753 0.73303 0.96961 1.1803 0.51563 0.44495-0.45162 0.35114-0.76818-0.38971-1.315zm-6.3664-22.28c0-0.12281-0.22785-0.22329-0.50635-0.22329-0.27849 0-0.50635 0.2413-0.50635 0.53623s0.22786 0.39541 0.50635 0.22329c0.2785-0.17211 0.50635-0.41342 0.50635-0.53623zm-41.477 62.657c-0.0526-1.4185 0.79815-3.1314 1.5554-3.1314 0.37189 0 0.35471 0.23595-0.0529 0.72716-0.33192 0.39993-0.79595 1.3683-1.0312 2.152-0.3849 1.2823-0.43205 1.3075-0.47122 0.25225zm4.5136-3.4906c1.7107-0.13684 2.5764-0.5249 3.4734-1.5572 0.65717-0.7562 1.0213-1.0331 0.8091-0.61539-1.022 2.0121-1.9216 2.5312-4.2344 2.4433l-2.3267-0.08846zm33.108-43.574c-1.0863-0.71562-1.3216-2.6543-0.47832-3.9413 1.4728-2.2477 3.8279-1.2979 3.8279 1.5438 0 2.3217-1.6605 3.5102-3.3496 2.3974z"/>
 <path d="m223.93 88.292c-0.97473-0.46293-5.2877-1.7903-9.5843-2.9496-4.698-1.2677-8.0128-2.4262-8.3157-2.9063-0.3524-0.55868-0.23061-1.6663 0.40567-3.6892 0.62712-1.9938 0.80989-3.6159 0.589-5.2275-0.23289-1.6991-0.16833-2.1847 0.23661-1.7798 0.57796 0.57797 0.39403 5.7855-0.29638 8.391-0.33093 1.2489-0.18799 1.4693 1.3772 2.1233 0.96057 0.40134 2.981 0.87759 4.4898 1.0583 1.5088 0.18073 5.1665 0.90041 8.1281 1.5993 5.1651 1.2189 5.4578 1.236 7.1764 0.42052 2.2254-1.056 3.5189-3.5402 3.0539-5.865-0.18222-0.91109-1.926-4.1824-3.8752-7.2695-6.1214-9.6954-7.4334-10.949-10.056-9.6098-1.296 0.66203-1.3674 0.62977-1.6716-0.75549-0.43339-1.9732 0.0767-3.8156 2.049-7.4001 0.91941-1.671 2.2439-4.7969 2.9434-6.9466 1.5818-4.8615 1.9766-5.6069 4.6349-8.7503 1.1776-1.3925 2.8373-3.6368 3.6883-4.9874l1.5473-2.4557-0.3005-9.7988c-0.26485-8.6362-0.19374-10.078 0.59939-12.155 2.0219-5.2943 5.8462-7.6314 11.787-7.2032 5.4312 0.39141 9.1235 2.6265 11.635 7.0428 1.3902 2.4449 1.6514 3.8165 2.1031 11.044 0.37435 5.9909 0.43831 6.24 2.7993 10.903 1.3289 2.6244 3.542 6.0581 4.918 7.6305 4.739 5.4155 7.2651 12.192 7.26 19.475-3e-3 4.7302-0.0357 4.859-1.946 7.7326-2.4572 3.6963-3.5109 4.4198-6.4377 4.4198-3.6323 0-3.7424-0.30123-3.7757-10.332-0.0319-9.592-0.61967-12.244-3.6817-16.612-0.83692-1.1939-1.6752-2.9682-1.8629-3.9429-0.36044-1.8721-4.2138-10.158-4.9744-10.697-0.2458-0.17406-0.19472-0.47233 0.11351-0.66282 0.70146-0.43354 0.73842-3.1549 0.0486-3.5812-0.32395-0.20022-0.23103-0.71714 0.25317-1.4084 1.0438-1.4903 0.95996-3.563-0.23925-5.9137-1.1565-2.2669-2.5255-2.8871-4.5353-2.0546-1.8245 0.75571-2.7703 2.5599-2.4474 4.6686 0.28233 1.8442 0.0412 2.9392-0.64734 2.9392-0.24654 0-0.30364-0.37686-0.12689-0.83747 0.27593-0.71905 0.0309-0.79852-1.7325-0.562l-2.0538 0.27548 0.24574-1.8432c0.1843-1.3824-0.0287-2.1913-0.85193-3.2356-2.2077-2.8006-4.5686-1.0261-4.5686 3.4338 0 2.7044 0.95445 4.6968 1.954 4.079 0.4327-0.26742 0.38599-0.65304-0.17636-1.4559-0.9079-1.2962-0.99961-3.4677-0.18103-4.2863 0.81511-0.81511 2.2618 0.05217 2.647 1.5869 0.1701 0.67771 0.44854 1.5952 0.61877 2.0388 0.17524 0.45665 0.0506 0.80656-0.28718 0.80656-0.82016 0-1.7507 1.0033-2.7842 3.0019-0.83542 1.6155-0.83158 1.727 0.0912 2.6498 2.1462 2.1462 7.3872 1.5054 11.852-1.4491 1.0909-0.72194 2.1025-1.1936 2.248-1.0481 0.25932 0.25932-1.9233 1.7977-5.0422 3.554-0.89883 0.50612-2.629 0.88567-4.0394 0.88612-2.1356 6.8e-4 -2.3824 0.10286-1.8368 0.76031 0.84046 1.0127 2.2808 0.95729 5.871-0.22582 2.9347-0.96707 2.9666-0.96728 1.7242-0.01135-3.8943 2.9964-6.4478 3.0434-9.6206 0.17703-2.0551-1.8566-2.5319-1.6313-2.5319 1.1965 0 0.7187-0.66989 2.352-1.4886 3.6296s-1.7678 3.4622-2.1091 4.8547c-0.34127 1.3925-1.7241 4.8106-3.073 7.5958-2.5273 5.2186-3.7154 10.589-2.967 13.412 0.20696 0.78062 2.2294 2.7945 5.2353 5.2132 5.2702 4.2406 6.2024 5.7426 4.6372 7.4721-0.49391 0.54576-1.2045 0.9923-1.5791 0.9923-1.879 0 0.64192 3.6056 3.2238 4.6109 2.0774 0.8089 7.9566 0.63067 10.845-0.32878 2.7782-0.92279 6.3905-3.4154 8.9218-6.1564l1.6456-1.782v5.1446c0 5.7907 0.69173 7.8429 2.9305 8.6941 1.9965 0.75908 4.3916 0.13871 9.1706-2.3753 4.8906-2.5728 5.7738-2.8381 2.7341-0.82119-1.1702 0.7764-3.1128 2.335-4.3169 3.4636-2.9292 2.7454-3.9383 3.2223-6.8139 3.2201-2.6211-2e-3 -5.7297-1.4759-5.7297-2.7165 0-1.108-1.677-1.318-10.581-1.3255l-8.3026-0.0069-2.26 1.8519c-2.7103 2.2209-5.8926 2.7216-8.7308 1.3736zm30.671-58.7c-1.2453-0.91921-1.5471-0.61412-0.79061 0.79938 0.45359 0.84753 0.73303 0.96961 1.1803 0.51563 0.44495-0.45162 0.35114-0.76818-0.38971-1.315zm-6.3664-22.28c0-0.12281-0.22785-0.22329-0.50635-0.22329-0.27849 0-0.50635 0.2413-0.50635 0.53623s0.22786 0.39541 0.50635 0.22329c0.2785-0.17211 0.50635-0.41342 0.50635-0.53623zm-41.477 62.657c-0.0526-1.4185 0.79815-3.1314 1.5554-3.1314 0.37189 0 0.35471 0.23595-0.0529 0.72716-0.33192 0.39993-0.79595 1.3683-1.0312 2.152-0.3849 1.2823-0.43205 1.3075-0.47122 0.25225zm4.5136-3.4906c1.7107-0.13684 2.5764-0.5249 3.4734-1.5572 0.65717-0.7562 1.0213-1.0331 0.8091-0.61539-1.022 2.0121-1.9216 2.5312-4.2344 2.4433l-2.3267-0.08846zm33.108-43.574c-1.0863-0.71562-1.3216-2.6543-0.47832-3.9413 1.4728-2.2477 3.8279-1.2979 3.8279 1.5438 0 2.3217-1.6605 3.5102-3.3496 2.3974z" fill="none" stroke="#000" stroke-width=".375"/>
</svg>
