<?xml version="1.0" encoding="UTF-8"?>
<svg width="300" height="132" version="1.1" viewBox="0 0 300 132" xmlns="http://www.w3.org/2000/svg" xmlns:xlink="http://www.w3.org/1999/xlink">
 <text x="74.831314" y="128.14566" display="block" fill="#000000" font-family="'Liberation Sans',Arial,sans-serif" stroke-width="1pt" text-anchor="middle" style="line-height:0%" xml:space="preserve"><tspan x="74.831314" y="128.14566" font-size="6px" style="line-height:1.1">Image originale</tspan></text>
 <text x="220.83432" y="124.44067" display="block" fill="#000000" font-family="'Liberation Sans',Arial,sans-serif" font-size="6px" stroke-width="1pt" text-anchor="middle" style="line-height:0%" xml:space="preserve"><tspan x="220.83432" y="124.44067" style="line-height:1.1">Image vectorisée / Chemin résultant</tspan><tspan x="220.83432" y="130.44067" style="line-height:1.1">(1 551 nœuds)</tspan></text>
 <image x="33.158" y="6.6406e-5" width="83.347" height="115.89" xlink:href="oldguitar.jpg"/>
 <path d="m178.93 89.583v-26.312l1.3688-0.0828-0.69068-0.1327-0.69069-0.1326 0.0432-29.918 0.95035-0.0679c0.5227-0.0374 1.0612-0.2427 1.1968-0.4563 0.1801-0.2838 0.24768-0.245 0.25109 0.144 8e-3 0.9214 1.0457 0.4975 1.303-0.5323 0.1165-0.4663 0.16024-0.413 0.18729 0.2281 0.0296 0.7025 0.16935 0.8358 0.87179 0.8319 0.63467-0.0036 0.72854-0.073 0.38904-0.2877-0.2461-0.1556-0.36506-0.3654-0.26435-0.4661 0.10072-0.1007 0.37785 0.0116 0.61585 0.2496 0.45525 0.4553 4.6189 0.6324 4.3423 0.1848-0.079-0.1278 0.0284-0.3113 0.23853-0.4076 0.21017-0.0964 0.0741-0.0989-0.30229-0.0055-0.37643 0.0934-0.68441 0.0465-0.68441-0.1042 0-0.5142 0.30846-0.5825 1.686-0.3734 0.75764 0.1149 1.4492 0.0931 1.5367-0.0486 0.22028-0.3564 0.73168-0.3239 0.73168 0.0466 0 0.1673-0.20533 0.3042-0.45628 0.3042s-0.45628 0.1273-0.45628 0.283-0.30799 0.3409-0.68441 0.4116c-0.37643 0.0707-0.16535 0.1263 0.46908 0.1235s1.2243-0.1196 1.3107-0.2595c0.0865-0.14 0.43101-0.2544 0.76561-0.2544s0.52889-0.1286 0.43175-0.2858c-0.0971-0.1572 0.0659-0.2938 0.36228-0.3036 1.911-0.0633 3.6867-0.2516 4.3412-0.4604 0.41826-0.1334 0.65867-0.1352 0.53426-0.0039-0.12441 0.1312 0.0703 0.4463 0.43277 0.7002 0.76963 0.5391 6.3334 0.8617 6.3334 0.3673 0-0.1644-0.20532-0.2201-0.45627-0.1238-0.25096 0.0963-0.45628 0.0463-0.45628-0.111s-0.20533-0.286-0.45628-0.286-0.45628 0.0912-0.45628 0.2028c0 0.1115-0.21097 0.2028-0.46882 0.2028-0.26745 0-0.42541-0.2069-0.36776-0.4817 0.0649-0.3094 0.36844-0.4541 0.84905-0.4046 0.58518 0.0602 0.64868 0.0115 0.29172-0.2235-0.66457-0.4376-1.253-0.3765-1.6539 0.1718-0.27285 0.3732-0.62193 0.4311-1.55 0.257-1.153-0.2164-1.1704-0.237-0.46517-0.5517 0.55007-0.2454 0.76373-0.2336 0.85737 0.0473 0.16949 0.5085 0.68241 0.4753 0.68241-0.0441 0-0.8625 1.7344-0.8097 4.0218 0.1224 1.2177 0.4962 2.2997 0.9027 2.4044 0.9032 0.35444 2e-3 0.50241-3.4874 0.15727-3.7087-0.18157-0.1163-0.23473-0.307-0.11814-0.4235 0.42819-0.4282 1.1939 0.5899 1.0369 1.3786-0.14051 0.7057 0.35803 1.8421 0.80811 1.8421 0.10032 0 0.33681-0.5133 0.52554-1.1407 0.52493-1.745 1.5099-2.8046 2.3193-2.4951 0.52248 0.1998 0.63162 0.4379 0.52137 1.1375-0.19491 1.2366 0.50269 1.7018 2.6344 1.7567l1.7782 0.0458-0.17232-0.9449c-0.0948-0.5197-0.56651-1.4501-1.0483-2.0677s-0.87599-1.3879-0.87599-1.7118c0-0.8419-0.61616-1.2429-2.2548-1.4675-0.89711-0.1229-1.7672-0.4897-2.3268-0.9807-1.2312-1.0803-1.1196-1.3794 0.2424-0.6494 1.2795 0.6858 2.8182 0.809 2.8182 0.2257 0-0.2109-0.30799-0.731-0.68442-1.1558-0.89666-1.0118-1.4449-1.989-1.4449-2.5753 0-0.506 0.38461-0.2883 1.4256 0.8067 0.2586 0.272 0.69384 0.4365 0.9672 0.3656 0.30529-0.0793 0.61435 0.1406 0.8012 0.57 0.30213 0.6943 3.231 2.0952 4.5593 2.1806 0.33654 0.0217 0.91499 0.3474 1.2854 0.7238l0.67355 0.6844h-0.68876c-0.37882 0-0.8188 0.1138-0.97773 0.2529-0.15894 0.1391-0.89324 0.4251-1.6318 0.6356-1.5731 0.4483-1.1708 0.9854 0.53117 0.7092 0.90486-0.1468 1.0365-0.0968 0.87216 0.3315-0.13592 0.3542-0.031 0.5043 0.35226 0.5043 0.55599 0 1.8608 1.1759 1.8782 1.6926 5e-3 0.1566 0.33907 0.5242 0.74181 0.8171l0.73224 0.5324 0.21318-1.4215c0.23689-1.5797-0.026-6.4395-0.42506-7.8564l-0.257-0.9125-0.21696 1.1407c-0.11933 0.6273-0.34456 1.1406-0.50051 1.1406s-1.0737-0.4193-2.0395-0.9318c-1.748-0.9276-3.1204-2.2223-3.1232-2.9465-2e-3 -0.556-0.93761-0.4643-1.3758 0.1349-0.34813 0.4761-0.41421 0.4775-0.87238 0.0194-0.35642-0.3565-0.39664-0.557-0.14311-0.7137 0.24504-0.1514 0.17616-0.3481-0.22581-0.6448-0.53828-0.3973-0.5196-0.4164 0.26933-0.2759 0.74282 0.1324 0.86987 0.0404 1.0266-0.7434 0.23619-1.181 0.56576-1.1427 0.56206 0.0652-2e-3 0.5491 0.17786 1.0215 0.41963 1.1041 0.23242 0.0795 0.3411 0.0127 0.24152-0.1484-0.0996-0.1612 0.0182-0.293 0.26185-0.293 0.24359 0 0.44289 0.1141 0.44289 0.2535s0.31484 0.2535 0.69963 0.2535 0.8536 0.1539 1.0418 0.3421c0.41125 0.4113 3.1256 0.0806 3.1256-0.3808 0-0.6935-0.63886-1.4515-1.0806-1.2819-0.25463 0.0977-0.75484-0.0785-1.1116-0.3916-0.54695-0.48-0.62007-0.4907-0.46652-0.0682 0.13834 0.3806-0.0394 0.5334-0.73996 0.6362-1.5834 0.2324-2.3808-0.0585-2.3808-0.8685 0-0.4247 0.18896-0.7407 0.45627-0.763 0.58708-0.0489 0.74235-0.0944 1.7464-0.5113 0.45863-0.1904 1.0746-0.2597 1.3688-0.1539 0.4048 0.1455 0.35349-0.0068-0.2109-0.6259-0.41023-0.45-0.92354-0.7499-1.1407-0.6666s-0.39483-0.0495-0.39483-0.2952c0-0.7707-0.5053-0.6012-1.9144 0.6423-0.20482 0.1808-0.53372 0.2749-0.7309 0.2092-0.19717-0.0658-0.65348 0.1754-1.014 0.536-0.39209 0.3921-0.88868 0.5945-1.2358 0.5037-0.31914-0.0834-0.58032-0.0619-0.58041 0.048-1e-4 0.1098-0.58185 0.1996-1.2928 0.1996-0.71095 0-1.3611 0.0812-1.4447 0.1803-0.0837 0.0992-0.63119 0.2714-1.2167 0.3826l-1.0646 0.2023 0.91255-0.6087c0.50191-0.3348 0.73606-0.6097 0.52034-0.6108-0.32018-0.0016-0.32018-0.0824 0-0.4398 0.34056-0.3802 0.43961-0.3762 0.75201 0.0302 0.72715 0.9459 4.3282-0.2867 6.3499-2.1734 0.49222-0.4594 1.99-1.3592 3.3284-1.9996 1.3384-0.6404 3.5289-1.7571 4.8677-2.4814 2.6304-1.4232 2.778-1.4433 7.359-1.0003 2.4639 0.2383 2.4948 0.2327 2.6746-0.4871 0.10002-0.4005 0.1418-1.7548 0.0928-3.0096l-0.089-2.2814 8.6693-0.0812c7.5332-0.0706 8.7144-0.0196 9.0135 0.3891 0.30157 0.4121 0.3658 0.4143 0.51796 0.0178 0.14494-0.3777 0.86868-0.4354 4.3706-0.3481 2.3083 0.0575 4.3014 0.1203 4.429 0.1395 0.17178 0.0259 0.12561 95.017-0.055 113.12l-0.025 2.5095h-83.043zm6.9856 25.115c0.41585-0.7771 0.3977-0.9326-0.10885-0.9326-0.39856 0-0.79301 0.6176-0.79301 1.2416 0 0.4951 0.57741 0.2972 0.90186-0.309zm2.3553-1.6346c0.14623-1.092-0.0797-1.0374-0.48186 0.1164-0.2418 0.6936-0.23584 0.9052 0.0231 0.8189 0.19201-0.0641 0.39846-0.4849 0.45878-0.9353zm1.1852-0.1282c-0.10108-0.101-0.17297 0.0786-0.15977 0.3993 0.0146 0.3543 0.0867 0.4264 0.18378 0.1838 0.0879-0.2196 0.0771-0.482-0.024-0.5831zm-2.3131-0.5137c0-0.4046 0.0812-0.9864 0.18041-1.2928 0.12884-0.398 3.6e-4 -0.3399-0.44952 0.2032-0.73999 0.8934-0.83555 1.8251-0.18717 1.8251 0.27979 0 0.45628-0.2845 0.45628-0.7355zm-1.8018 0.2032c0.11003-1.0786 1.0282-3.4218 1.344-3.4299 0.16819-4e-3 0.55662-0.5519 0.86317-1.2168 0.30656-0.6649 0.69914-1.2089 0.8724-1.2089 0.17327 0 0.78273-0.4106 1.3544-0.9125s0.93955-0.9126 0.81757-0.9126c-0.12197 0 0.24124-0.3416 0.80713-0.7591 0.5659-0.4175 1.1343-0.9297 1.2632-1.1381 0.17074-0.2763 0.32523-0.2881 0.56973-0.0436 0.55691 0.5569 2.2139 0.0318 2.7146-0.8604 0.46324-0.8253 0.47142-0.7832-0.58942-3.0309-0.39161-0.8298-0.20884-2.3809 0.28054-2.3809 0.54573 0-0.87248-2.3275-1.628-2.6717-0.68946-0.3141-0.83438-0.2714-1.2546 0.37-0.26133 0.3988-0.8609 2.1407-1.3324 3.8709-0.86944 3.1904-1.6895 5.252-2.3792 5.9811-0.20913 0.2211-0.38023 0.5592-0.38023 0.7513 0 0.4208-1.762 1.9745-2.5129 2.2158-0.6208 0.1996-1.2731 1.3604-1.5895 2.8288-0.17017 0.7896-0.13245 0.9718 0.16337 0.7889 0.39017-0.2411 0.33579 0.2367-0.16551 1.4544-0.15523 0.3771-0.0766 0.5324 0.26967 0.5324 0.26886 0 0.4993-0.1027 0.5121-0.2282zm55.064-3.0573c-0.18371-0.0612-0.33401-0.4421-0.33401-0.8464 0-0.4506-0.17657-0.7351-0.45628-0.7351-0.25095 0-0.45628 0.2053-0.45628 0.4563 0 0.2509 0.13689 0.4562 0.30419 0.4562s0.30419 0.128 0.30419 0.2844 0.16132 0.6697 0.35848 1.1407l0.3585 0.8563 0.1276-0.7505c0.0702-0.4128-0.0227-0.8006-0.20639-0.8619zm-1.7276-0.1674c-0.10512-0.2739-0.3123-0.4232-0.46041-0.3316-0.1481 0.0915-0.0995 0.3507 0.10792 0.5759 0.46667 0.5067 0.60411 0.4114 0.35249-0.2443zm-1.329-1.9943c-0.20132-0.3762-0.50985-0.5443-0.79669-0.4343-0.39324 0.1509-0.35696 0.298 0.22674 0.9194 0.75316 0.8017 1.1004 0.5061 0.56995-0.4851zm2.2768-1.5317c-0.0683-0.8704-0.77091-1.2483-0.77091-0.4146 0 0.3113-0.21326 0.8705-0.4739 1.2426-0.69239 0.9885-0.22458 1.4584 0.61127 0.614 0.39765-0.4017 0.66706-1.0149 0.63354-1.442zm-2.596-1.1969c0-0.1468-0.20532-0.4374-0.45627-0.6456-0.49528-0.4111-0.55719-0.3128-0.27164 0.4314 0.19545 0.5093 0.72791 0.666 0.72791 0.2142zm2.4335-0.3594c0-0.1772-0.13688-0.2375-0.30419-0.1341-0.1673 0.1034-0.30418 0.2483-0.30418 0.3221s0.13688 0.1341 0.30418 0.1341c0.16731 0 0.30419-0.1449 0.30419-0.3221zm-7.4883-2.4208c-0.17023-0.1703-0.76211-0.4393-1.3153-0.598-0.9865-0.2829-0.99542-0.277-0.46466 0.3095 0.29762 0.3289 0.88951 0.598 1.3153 0.598 0.52496 0 0.67453-0.0997 0.46467-0.3095zm6.0244-0.2025c-0.21959-0.0879-0.48195-0.0771-0.58303 0.024s0.0786 0.173 0.39925 0.1598c0.35436-0.0146 0.42643-0.0867 0.18378-0.1838zm-8.5742-0.5952c0-0.3453-1.0482-1.0025-1.6149-1.0125-0.30265-5e-3 -0.47454-0.1322-0.38198-0.282 0.0926-0.1497-0.0362-0.3508-0.28623-0.4467-0.60245-0.2312-0.58316-0.8019 0.0271-0.8019 0.79015 0 0.29796-0.7526-0.55887-0.8545-0.43494-0.0518-0.97191-0.3137-1.1933-0.5822-0.35886-0.4351-0.33047-0.4496 0.26192-0.134 0.36544 0.1947 1.0316 0.354 1.4804 0.354 0.70835 0 0.79657 0.1012 0.66916 0.7677-0.16888 0.8834 0.22095 1.2876 0.59582 0.6178 0.27125-0.4847 1.6093-0.3277 1.6093 0.1888 0 0.1577 0.13688 0.2021 0.30418 0.0987s0.30419-0.043 0.30419 0.1341c0 0.1772 0.39924 0.3222 0.88721 0.3222 0.48796 0 0.93283 0.1291 0.9886 0.2869 0.0558 0.1577 0.78581 0.4635 1.6223 0.6793 0.83651 0.2159 1.5972 0.497 1.6904 0.6248 0.26767 0.3668 1.8242-0.483 1.6645-0.9088-0.10792-0.2876 0.17494-0.3339 1.1406-0.1866 0.70625 0.1077 1.4552 0.3308 1.6643 0.4957 0.27167 0.2143 0.38023 0.1569 0.38023-0.2011 0-0.9516-2.3332-1.286-3.4981-0.5015-0.38022 0.2561-1.7986 0.2081-3.194-0.108-2.3643-0.5356-8.3367-4.0866-15.666-9.3142-3.1882-2.2741-5.3513-3.2933-8.7729-4.1338-1.6997-0.4175-3.501-0.9131-4.0029-1.1015-1.6997-0.6378-5.1146-2.8146-5.2547-3.3496-0.0902-0.3443-0.78656-0.7224-1.9754-1.0725-1.6097-0.4741-1.7821-0.5961-1.3981-0.9891 0.47377-0.485 1.7841-2.5483 1.7841-2.8094 0-0.3156-2.6169 0.4205-4.1786 1.1755-0.87614 0.4236-1.7329 0.6836-1.9039 0.578-1.0203-0.6306-2.666 1.7576-3.385 4.9124-0.31692 1.3905-0.29162 1.6795 0.22434 2.563 0.57481 0.9842 2.1853 2.146 2.6271 1.8951 0.12547-0.0713 0.22813 0.0629 0.22813 0.2981s0.26142 0.7291 0.58093 1.0975l0.58093 0.6698 0.20294-0.9239c0.25267-1.1504 0.63583-1.4073 1.2231-0.82 0.49159 0.4916 0.58933 0.823 0.2258 0.7656-0.73716-0.1164-1.2928 0.0951-1.2928 0.4923 0 0.2509 0.13689 0.4562 0.30419 0.4562s0.30418-0.1368 0.30418-0.3042c0-0.1673 0.13689-0.3041 0.30419-0.3041s0.30419 0.2027 0.30419 0.4504c0 0.5193 1.4054 0.9262 2.7377 0.7927 0.40558-0.0407 0.40558-0.0877 0-0.4233-0.25096-0.2077-0.60579-0.6482-0.78853-0.9789-0.18273-0.3308-0.69604-0.78-1.1407-0.9982-0.44465-0.2183-0.80845-0.5372-0.80845-0.7086 0-0.1909-0.36846-0.2308-0.95062-0.103-0.66091 0.1452-0.88719 0.1062-0.74251-0.1279 0.11446-0.1852 0.43957-0.3411 0.72247-0.3464 0.461-0.0087 0.45597-0.0539-0.0484-0.436-0.68484-0.5189-0.39108-1.1952 0.35311-0.813 0.28262 0.1452 0.68497 0.2026 0.89409 0.1276 0.20913-0.075 0.38024 0.0804 0.38024 0.3453s0.24331 0.4816 0.54068 0.4816c1.0185 0 1.8522 0.8695 1.9508 2.0343 0.0518 0.6119 0.26632 1.1692 0.47678 1.2383 0.29562 0.0972 0.31008-0.0651 0.0635-0.7136-0.24581-0.6465-0.22086-0.9375 0.10862-1.267 0.36751-0.3675 0.51915-0.3115 1.0772 0.3979 0.35718 0.4541 0.64943 1.0211 0.64943 1.26s0.23954 0.41 0.53232 0.3802c0.96797-0.0984 1.2203 0.0099 1.3718 0.5893 0.11329 0.4333 0.34499 0.5361 0.94803 0.4208 0.87153-0.1666 0.96359-0.4207 0.47984-1.3246-0.38948-0.7278-0.13235-1.2276 0.50559-0.9828 0.34805 0.1336 0.37521 0.241 0.10338 0.409-0.20489 0.1266-0.26445 0.3965-0.13407 0.6074 0.17099 0.2767 0.38589 0.1828 0.79267-0.3462 0.30695-0.3992 0.56113-0.5732 0.56485-0.3868 0.0206 1.0314 4.7278 4.3858 5.4919 3.9135 0.16446-0.1016 0.52871 0.0449 0.80945 0.3256 0.47777 0.4778 0.52575 0.469 0.75014-0.1376l0.23973-0.648 0.76845 0.6681c0.42264 0.3675 0.76844 0.8342 0.76844 1.0371 0 0.5106-0.9457 0.8266-1.3284 0.4439-0.51795-0.518-0.84934-0.3571-0.74597 0.3621 0.0759 0.5279 0.31447 0.6869 1.0879 0.725 0.54489 0.0268 1.1609 0.1857 1.3688 0.3532s0.85721 0.4008 1.4428 0.5185c0.58555 0.1177 1.8175 0.4649 2.7377 0.7717 0.92016 0.3068 2.3574 0.7659 3.1939 1.0202 0.83651 0.2542 2.3422 0.8367 3.346 1.2943 1.0038 0.4577 1.9146 0.8123 2.0241 0.788 0.10943-0.0242 0.36574 0.1569 0.56957 0.4025 0.36992 0.4458 1.2087 0.6206 1.2087 0.252zm-5.7795-3.4556c0-0.1673 0.13688-0.3042 0.30418-0.3042 0.16731 0 0.30419 0.1369 0.30419 0.3042s-0.13688 0.3042-0.30419 0.3042c-0.1673 0-0.30418-0.1369-0.30418-0.3042zm-1.2167-0.6084c0-0.1673-0.38784-0.3042-0.86186-0.3042-0.47403 0-0.96452-0.1026-1.09-0.2281-0.22785-0.2279-0.38313-0.2706-1.2421-0.3422-0.53535-0.0446-0.65161-1.8632-0.11912-1.8632 0.20547 0 0.26446 0.2897 0.15102 0.7417-0.17206 0.6855-0.0816 0.7573 1.1948 0.9487 1.2613 0.1892 3.2364 1.3177 2.3475 1.3414-0.20913 0.0055-0.38023-0.1268-0.38023-0.2941zm-4.9454-1.2425c-0.2941-0.1712-0.6715-0.2268-0.83866-0.1235-0.41034 0.2536-0.72119-0.6339-0.45379-1.2956 0.19111-0.473 0.24453-0.456 0.47902 0.1521 0.14515 0.3764 0.459 0.6844 0.69745 0.6844 0.23844 0 0.51232 0.2053 0.60863 0.4563 0.20431 0.5324 0.20454 0.5324-0.49265 0.1263zm-2.355-1.3251c0-0.5343 0.18253-0.613 0.44329-0.1911 0.0963 0.1558 0.0359 0.3692-0.13414 0.4742-0.17003 0.1051-0.30915-0.0223-0.30915-0.2831zm2.3574-0.0673c0.20913-0.0844 0.55134-0.0844 0.76047 0 0.20912 0.0843 0.038 0.1534-0.38024 0.1534-0.41825 0-0.58936-0.0691-0.38023-0.1534zm-21.825-4.4955c0-0.0738 0.13688-0.2187 0.30418-0.3221s0.30419-0.0431 0.30419 0.1341-0.13689 0.3221-0.30419 0.3221-0.30418-0.0603-0.30418-0.1341zm2.5384-3.0729c-0.26881-0.7005-0.025-0.739 0.63267-0.0998 0.52523 0.5105 0.53208 0.5692 0.0665 0.5692-0.28548 0-0.6001-0.2113-0.69917-0.4694zm1.4668 11.779c0.7249-0.3043 2.1157-0.7272 3.0907-0.9396 0.97497-0.2125 1.7004-0.4586 1.6121-0.5469-0.0883-0.0883-1.5297-0.3386-3.2032-0.5563-1.6735-0.2176-3.3571-0.4924-3.7414-0.6106-0.38432-0.1182-0.5958-0.1064-0.46996 0.0263s-9.6e-4 0.4952-0.28179 0.8055c-0.39143 0.4325-0.42708 0.6477-0.15276 0.922 0.19681 0.1968 0.35784 0.6042 0.35784 0.9054 0 0.7202 1.0643 0.718 2.7885-0.0058zm12.421-3.5749c0-0.3723-0.8771-1.0225-1.6363-1.213-1.1042-0.2771-0.98671 0.2163 0.1983 0.8331 1.0616 0.5525 1.438 0.652 1.438 0.3799zm-4.2586-1.043c0-0.1673-0.13688-0.3041-0.30419-0.3041-0.1673 0-0.30418 0.1368-0.30418 0.3041s0.13688 0.3042 0.30418 0.3042c0.16731 0 0.30419-0.1369 0.30419-0.3042zm1.4449-0.3802c-0.14354-0.4306-0.6327-0.3833-0.78581 0.0761-0.0558 0.1673 0.12674 0.3041 0.40558 0.3041s0.44994-0.1711 0.38023-0.3802zm-7.5286-2.9658c0-0.1673-0.20533-0.3042-0.45628-0.3042s-0.45628 0.1369-0.45628 0.3042 0.20533 0.3042 0.45628 0.3042 0.45628-0.1369 0.45628-0.3042zm23.574-8.213c-0.1034-0.1673-0.24836-0.3042-0.32214-0.3042-0.0738 0-0.13414 0.1369-0.13414 0.3042s0.14496 0.3042 0.32214 0.3042 0.23754-0.1369 0.13414-0.3042zm-3.346-0.6084c-0.1034-0.1673-0.32488-0.3042-0.49218-0.3042s-0.21959 0.1369-0.11619 0.3042 0.32488 0.3042 0.49218 0.3042 0.21959-0.1369 0.11619-0.3042zm13.269-0.8137c-0.35858-0.6166-0.44518-0.4192-0.15164 0.3457 0.10431 0.2718 0.25375 0.4302 0.33206 0.3519 0.0783-0.0784-3e-3 -0.3922-0.18042-0.6976zm-14.501 0.2395c-0.15894-0.1485-0.63119-0.3595-1.0494-0.4689l-0.76047-0.199 0.76047 0.4582c0.84752 0.5106 1.5141 0.6439 1.0494 0.2097zm3.5133-0.6605c0-0.1574-0.13688-0.2862-0.30419-0.2862-0.1673 0-0.30418 0.2134-0.30418 0.4742 0 0.2609 0.13688 0.3897 0.30418 0.2863 0.16731-0.1034 0.30419-0.3168 0.30419-0.4743zm-5.6274-0.2862c-0.1034-0.1673-0.35103-0.3021-0.55028-0.2995-0.21768 0.0028-0.18016 0.1223 0.094 0.2995 0.58438 0.3777 0.68968 0.3777 0.45628 0zm17.491-0.7351c0-0.237 0.1711-0.5108 0.38023-0.6084 0.30296-0.1414 0.30325-0.2134 1e-3 -0.3544-0.25921-0.1211-0.0912-0.4645 0.53233-1.088 0.5011-0.5011 0.909-1.0717 0.90643-1.268-3e-3 -0.2637-0.063-0.2664-0.22813-0.0102-0.15899 0.2465-0.3523 0.2079-0.6698-0.134-0.39556-0.4259-0.38691-0.4577 0.0761-0.28 0.31686 0.1215 0.52419 0.0546 0.52701-0.1703 3e-3 -0.2335 0.11204-0.2019 0.29491 0.0856 0.23999 0.3773 0.39719 0.39 0.9079 0.0735 0.49634-0.3076 0.61575-0.3076 0.60798 0-0.0148 0.5874-0.77989 1.4661-1.0575 1.2146-0.13559-0.1229-0.16575 0.0026-0.067 0.2789 0.11737 0.3284-0.0135 0.5528-0.37789 0.6481-0.37265 0.0975-0.54211 0.4002-0.51127 0.9134 0.0564 0.9394 0.319 0.8016 1.2279-0.6445 1.3992-2.2262 2.5752-7.8796 1.7457-8.3923-0.2411-0.149-0.34196 0.4369-0.34196 1.9866 0 1.2089-0.10266 2.0953-0.22814 1.9699-0.24102-0.2411-0.28117-0.4068-0.34221-1.4122-0.0209-0.3445-0.15543-0.5537-0.29894-0.465-0.1435 0.0886-0.23419-0.4802-0.20153-1.2642 0.0327-0.784-0.12483-2.0375-0.34997-2.7856-0.22514-0.748-0.33055-1.6084-0.23424-1.9118 0.1089-0.3431 0.0236-0.5499-0.22563-0.547-0.53569 0.0062-1.4492 0.5927-0.93306 0.599 0.20913 0.0026 0.38024 0.133 0.38024 0.2898s-0.56357 0.2773-1.2524 0.2678c-0.6888-0.0095-1.339 0.1223-1.4449 0.2929-0.25251 0.4068-0.94047 0.49-1.7895 0.2163-0.80774-0.2603-0.91931-1.0536-0.15209-1.0814 0.40785-0.0148 0.37229-0.0836-0.1521-0.2944-0.37643-0.1513-0.68441-0.4245-0.68441-0.607 0-0.1826 0.13688-0.2474 0.30418-0.144 0.44913 0.2776 0.36979-0.623-0.16834-1.9109-0.2599-0.622-0.431-1.1572-0.38024-1.1892 0.24778-0.1565-2.4644-3.3239-3.8867-4.5389-1.0988-0.9388-1.5544-1.5298-1.4297-1.8549 0.13597-0.3543 0.91034 0.2915 3.0102 2.5106 2.3711 2.5057 2.9386 3.3035 3.5183 4.9455 0.38014 1.0767 0.86466 2.0243 1.0767 2.1057s0.30983 0.2705 0.21727 0.4203c-0.0926 0.1497-0.0233 0.2723 0.15384 0.2723 0.48183 0 0.38825-0.6483-0.24299-1.6835-0.30957-0.5076-0.65607-1.5445-0.76998-2.3042-0.17426-1.162-0.51256-1.6914-2.1315-3.3356-1.0584-1.0749-2.3882-2.3267-2.9552-2.7817-0.56692-0.455-0.86943-0.8314-0.67226-0.8365 0.19718-5e-3 0.54608 0.1784 0.77534 0.4076 0.22926 0.2293 0.86518 0.6487 1.4132 0.9321s1.6611 1.2232 2.4735 2.0884c0.81248 0.8653 1.5697 1.4809 1.6826 1.3679 0.23197-0.232-1.6491-2.9801-2.0398-2.9801-0.13894 0-0.25262-0.1973-0.25262-0.4384 0-0.2412-0.82374-0.8775-1.8305-1.4141-1.0068-0.5366-1.7829-1.0234-1.7246-1.0816 0.0583-0.0583 0.74592 0.1121 1.5281 0.3786 1.4803 0.5044 2.0675 1.0281 4.1442 3.6962 0.68366 0.8784 1.3767 1.597 1.5401 1.597 0.58861 0 0.27862-0.8163-0.64258-1.6922-0.51683-0.4913-1.2777-1.4667-1.6909-2.1673-0.64824-1.0994-1.0174-1.3626-2.6941-1.9205-2.9399-0.9783-4.4277-2.433-2.4884-2.433 0.74852 0 1.0563-0.5657 2.3713-4.3587 0.45412-1.3099 0.90609-2.462 1.0044-2.5603s0.17871-0.3498 0.17871-0.559 0.29718-1.042 0.66039-1.8505c0.67543-1.5036 1.4561-3.4937 1.4643-3.7328 3e-3 -0.0734-0.27452 0.1662-0.61564 0.5323-0.82628 0.8869-1.3405 0.8513-0.74872-0.0519 0.2586-0.3946 0.384-0.9422 0.27865-1.2167-0.15269-0.3979 0.0156-0.5069 0.82961-0.5372 0.92833-0.0346 0.89673-0.0602-0.34769-0.2817-1.9407-0.3453-3.9131-0.3494-3.3721-7e-3 0.23659 0.1498 0.86799 0.2012 1.4031 0.1144 0.86093-0.1397 0.9904-0.0665 1.1246 0.6356 0.1034 0.5409 0.0199 0.7935-0.26241 0.7935-0.22775 0-0.4141 0.2579-0.4141 0.573 0 0.4636-0.18869 0.5544-0.9886 0.4757-0.54373-0.0535-1.0913-0.106-1.2167-0.1167s-0.19922-0.1221-0.16388-0.2476c0.0353-0.1255-0.0321-0.6852-0.14991-1.2438-0.21187-1.0049-0.22804-1.0134-1.5091-0.8006-1.7596 0.2924-2.7901 0.8654-3.774 2.0984-1.6014 2.007-1.8962 3.263-1.9147 8.159-0.012 3.1676-0.1198 4.4868-0.36666 4.4868-0.19232 0-1.8104 0.6704-3.5958 1.4899-3.3681 1.5459-5.4047 2.183-8.9175 2.7895-1.8367 0.3171-2.1175 0.4593-2.5466 1.2891-0.5806 1.1227-0.43151 4.1132 0.28466 5.7097 0.2569 0.5727 0.65099 1.6573 0.87577 2.4101 0.34858 1.1675 0.53822 1.3836 1.2895 1.4694 0.5298 0.0604 1.2002-0.1357 1.6824-0.4921 0.44087-0.326 1.3946-0.8952 2.1195-1.265 0.72483-0.3698 1.9184-1.2902 2.6523-2.0453 0.73393-0.7552 1.3344-1.1932 1.3344-0.9733 0 0.2527 0.23765 0.162 0.6464-0.2467 0.35551-0.3556 0.64639-1.002 0.64639-1.4365 0-0.4936 0.16839-0.79 0.44876-0.79 0.24682 0 1.0736-0.616 1.8372-1.3688 0.91752-0.9046 1.6552-1.3705 2.1748-1.3735 0.62261-0.0037 0.69136-0.067 0.33011-0.3038-0.32159-0.2108-0.14201-0.2425 0.60837-0.1072 0.58556 0.1055 1.2015 0.3308 1.3688 0.5006 0.20475 0.2078 0.13017 0.2475-0.22814 0.1214-0.80627-0.2837-0.6478 0.0228 0.60837 1.1765 0.62738 0.5762 1.4145 1.0539 1.7491 1.0615 0.79518 0.018 3.8528 2.3938 4.3121 3.3505 0.19673 0.4098 0.45677 1.1558 0.57788 1.6577l0.22018 0.9125-0.65578-0.5811c-0.36068-0.3197-0.74049-0.4965-0.84403-0.3929-0.36687 0.3668-0.18123 1.7624 0.30605 2.3008 0.27186 0.3005 0.4943 0.6854 0.4943 0.8554 0 0.4809 1.084 1.3445 1.3662 1.0885 0.13872-0.1259 0.15005-0.0517 0.0252 0.1647-0.12488 0.2165-0.0779 0.5733 0.1044 0.793 0.31105 0.3748 0.69351 2.7975 0.69387 4.3954 1.2e-4 0.5202 0.0914 0.6238 0.33491 0.3803 0.50335-0.5034 0.82144-0.4044 0.82144 0.2556 0 0.3248 0.13688 0.675 0.30419 0.7784 0.39735 0.2456 0.39202 1.2787-8e-3 1.5258-0.17163 0.1061-0.45879-0.228-0.63813-0.7425-0.17934-0.5144-0.45879-0.9353-0.621-0.9353-0.39406 0-3e-3 1.2259 0.61447 1.9285 0.27074 0.3079 0.49409 0.7185 0.49634 0.9126 6e-3 0.5416 0.88361 2.33 1.143 2.33 0.12646 0 0.22993-0.1939 0.22993-0.4309zm-0.39925-2.199c-0.39668-0.3967-0.2073-0.7161 0.4246-0.7161 0.35399 0 0.58057 0.1594 0.51331 0.3612-0.14817 0.4445-0.65609 0.6367-0.93791 0.3549zm0.0951-2.4071c0-0.2608 0.13689-0.3896 0.30419-0.2862s0.30418 0.3168 0.30418 0.4742-0.13688 0.2862-0.30418 0.2862-0.30419-0.2134-0.30419-0.4742zm3.5234 0.2109c-0.13104-0.2121-0.1561-0.4677-0.0557-0.5681 0.27223-0.2722 0.56906 0.1282 0.42202 0.5693-0.10303 0.3091-0.17468 0.3089-0.36633-0.0012zm-4.7401-6.1341c0-0.1621 0.20533-0.2947 0.45628-0.2947s0.45628 0.0538 0.45628 0.1196c0 0.0657-0.20533 0.1983-0.45628 0.2946s-0.45628 0.0425-0.45628-0.1195zm3.0659-1.6381c-0.0132-0.3207 0.0587-0.5004 0.15977-0.3993s0.11188 0.3635 0.024 0.583c-0.0971 0.2427-0.16918 0.1706-0.18378-0.1837zm-11.431-8.9989c-0.1034-0.1673-0.043-0.3042 0.13414-0.3042 0.17717 0 0.32214 0.1369 0.32214 0.3042s-0.0604 0.3042-0.13414 0.3042c-0.0738 0-0.21874-0.1369-0.32214-0.3042zm-1.2346-3.4884c-0.32476-0.2457-0.43612-0.451-0.24748-0.4563s0.51339 0.1956 0.72166 0.4466c0.48086 0.5794 0.28436 0.5834-0.47418 0.0097zm3.516-6.3976c0-0.251 0.11407-0.4563 0.25349-0.4563s0.25349 0.2053 0.25349 0.4563-0.11407 0.4563-0.25349 0.4563-0.25349-0.2053-0.25349-0.4563zm-1.3099-0.0424c-0.10699-0.107-0.12034-0.3146-0.0297-0.4613 0.19443-0.3146 0.73118-0.0433 0.73118 0.3696 0 0.327-0.41228 0.3809-0.7015 0.0917zm3.135-4.5024c0-0.0738 0.13689-0.2188 0.30419-0.3222s0.30418-0.043 0.30418 0.1342c0 0.1771-0.13688 0.3221-0.30418 0.3221s-0.30419-0.0604-0.30419-0.1341zm0-2.1293c0-0.2609 0.13689-0.4743 0.30419-0.4743s0.30418 0.1288 0.30418 0.2863c0 0.1574-0.13688 0.3708-0.30418 0.4742s-0.30419-0.0254-0.30419-0.2862zm0.60837-0.7784c0-0.1673 0.13689-0.3042 0.30419-0.3042s0.30418 0.1369 0.30418 0.3042-0.13688 0.3041-0.30418 0.3041-0.30419-0.1368-0.30419-0.3041zm-0.56034-0.6084c0-0.4183 0.069-0.5894 0.15343-0.3802 0.0844 0.2091 0.0844 0.5513 0 0.7604s-0.15343 0.038-0.15343-0.3802zm-4.8052-2.2441c-0.27211-0.3108-0.12024-0.4776 0.70719-0.7768 0.57955-0.2095 1.1309-0.3038 1.2252-0.2095 0.0943 0.0943-0.19792 0.312-0.64945 0.4836-0.45152 0.1717-0.7362 0.4493-0.63261 0.6169 0.27343 0.4424-0.24232 0.3519-0.65036-0.1142zm2.3284-0.7217c-3e-3 -0.3765 0.13223-0.6844 0.29953-0.6844 0.38112 0 0.38112 0.3228 0 0.9125-0.23844 0.369-0.29576 0.3253-0.29953-0.2281zm-10.548 41.427c-0.12054-0.3141 0.0298-0.5298 0.44478-0.6383 0.82153-0.2149 0.95921-0.6918 0.46902-1.6249l-0.3995-0.7605-0.0502 0.9126c-0.0377 0.686-0.0977 0.5727-0.24156-0.4563-0.10526-0.7529-0.0652-1.5433 0.089-1.7564 0.15423-0.2132 0.19019-0.4778 0.0799-0.5881-0.43171-0.4317-0.85777 0.5341-1.0187 2.3093-0.0928 1.0232-0.25614 1.8603-0.36302 1.8603-0.40976 0-1.2935-1.3014-1.0078-1.4841 0.4138-0.2646 0.63978-2.4834 0.33678-3.3068-0.3375-0.9172-0.87528-0.8705-0.87528 0.076 0 0.583-0.15975 0.7627-0.68442 0.7702-0.645 0.0091-0.65272 0.0337-0.13389 0.427 0.63732 0.4832 0.1877 0.942-0.64114 0.6541-0.47023-0.1632-0.46889-0.1417 0.0146 0.2348 0.29277 0.2279 0.53232 0.5078 0.53232 0.6219 0 0.2664 0.51179 0.9063 1.7546 2.1938 1.0394 1.0768 2.0176 1.3974 1.6945 0.5554zm-0.33665-2.2632c0-0.5856 0.0626-0.8251 0.13911-0.5324 0.0765 0.2928 0.0765 0.7719 0 1.0647s-0.13911 0.0532-0.13911-0.5323zm-2.3013-0.507c-0.11153-0.1115-0.20279-0.3442-0.20279-0.5171 0-0.1906 0.14168-0.1727 0.35995 0.0456 0.19798 0.198 0.28924 0.4307 0.2028 0.5171-0.0864 0.0865-0.24842 0.0659-0.35996-0.0456zm14.094 0.507c0-0.1673-0.13688-0.3042-0.30418-0.3042s-0.30419 0.1369-0.30419 0.3042 0.13689 0.3042 0.30419 0.3042 0.30418-0.1369 0.30418-0.3042zm-16.122-2.6995c0-0.1462-0.19926-0.8306-0.44279-1.5209-0.24353-0.6902-0.32338-1.255-0.17744-1.255s0.3977 0.3765 0.55946 0.8365c0.27175 0.7729 0.31191 0.7903 0.52787 0.2282 0.12856-0.3346 0.45248-0.8715 0.71983-1.193 0.39724-0.4778 0.40269-0.5349 0.0298-0.3127-0.98734 0.5883-1.2918 0.4361-1.0951-0.5474 0.24075-1.2037 0.30726-1.2583 1.0491-0.8613 0.33794 0.1808 0.89719 0.3288 1.2428 0.3288 0.53085 0 0.63392 0.2006 0.66414 1.2928l0.0358 1.2928 0.27267-1.521c0.14997-0.8365 0.29248-1.9288 0.31669-2.4274 0.0242-0.4986 0.23549-1.098 0.46951-1.332s0.34454-0.6365 0.2456-0.8943c-0.0989-0.2578-0.0283-0.5625 0.15708-0.677 0.23375-0.1445 0.19631-0.3489-0.12224-0.6675-0.34272-0.3427-0.37156-0.5468-0.11373-0.8046 0.25783-0.2579 0.22072-0.3455-0.1463-0.3455-0.27047 0-0.53739 0.1052-0.59316 0.2337-0.0558 0.1285-1.0596 0.7348-2.2307 1.3472-1.2805 0.6697-2.1659 1.3344-2.221 1.6675-0.0504 0.3046-0.24028 0.8537-0.42185 1.22-0.51081 1.0308 0.307 6.1781 0.98158 6.1781 0.16085 0 0.29246-0.1197 0.29246-0.266zm-0.86323-4.5249c0.0482-0.2928-0.0188-0.7019-0.14877-0.9091-0.16204-0.2583-0.0879-0.3198 0.23574-0.1956 0.52635 0.202 0.65677 1.637 0.14877 1.637-0.17782 0-0.2839-0.2396-0.23574-0.5323zm17.102 4.0411c0.2702-0.4123 0.49127-1.2063 0.49127-1.7643 0-0.5579 0.16197-1.1764 0.35995-1.3744 0.19797-0.198 0.28271-0.4372 0.1883-0.5316-0.0944-0.0944-0.40019 0.0569-0.67951 0.3362-0.46478 0.4648-0.53883 0.4665-0.87273 0.0202-0.26093-0.3488-0.49481-0.4027-0.82113-0.1892-0.40558 0.2653-0.40558 0.3318 0 0.598 0.27536 0.1808 0.31263 0.3014 0.094 0.3042-0.5684 0.0073-0.7602-0.5357-0.41623-1.1784 0.21255-0.3971 0.51828-0.5338 0.94459-0.4224 0.46475 0.1216 0.67488-0.0055 0.79993-0.4837 0.11173-0.4273 0.41082-0.6485 0.87663-0.6485 1.6716 0 1.0066-1.0218-0.85058-1.307-0.93367-0.1433-1.2187-0.0583-1.5923 0.4751-0.35518 0.5071-0.37263 0.7081-0.0795 0.916 0.29728 0.2109 0.29631 0.2985-5e-3 0.4207-0.20913 0.0848-0.38023 0.4166-0.38023 0.7373 0 0.3206-0.13688 0.583-0.30418 0.583-0.59785 0-0.28904 0.5829 0.5811 1.0969 0.87169 0.5149 1.4466 2.088 0.88911 2.4326-0.13941 0.0861-0.25347 0.2854-0.25347 0.4429 0 0.5318 0.53541 0.2907 1.0297-0.4636zm-1.1311-5.2325c-0.3092-0.3092-0.24185-0.7098 0.11935-0.7098 0.17718 0 0.24476 0.1252 0.1502 0.2782-0.0946 0.153 1e-5 0.3475 0.21018 0.4323 0.21132 0.0852 0.23483 0.1648 0.0526 0.178-0.18125 0.0133-0.42079-0.0672-0.53233-0.1787zm-3.9734 4.8479c-0.10108-0.1011-0.17297 0.0786-0.15977 0.3993 0.0146 0.3543 0.0867 0.4264 0.18378 0.1837 0.0879-0.2195 0.0771-0.4819-0.024-0.583zm8.0292 0.526c0-0.1673-0.13688-0.3042-0.30419-0.3042-0.1673 0-0.30418 0.1369-0.30418 0.3042s0.13688 0.3042 0.30418 0.3042c0.16731 0 0.30419-0.1369 0.30419-0.3042zm-13.997-0.9886c-4e-3 -0.5344-0.0659-0.5876-0.28412-0.2427-0.1537 0.243-0.21197 0.551-0.12948 0.6845 0.26384 0.4269 0.41838 0.2618 0.4136-0.4418zm12.643-0.1478c0.27432-0.3751 0.29696-0.6945 0.0782-1.1033-0.19163-0.3581-0.19925-0.6469-0.0202-0.7648 0.40823-0.2688 0.72228-2.1093 0.39448-2.3119-0.15026-0.0929-0.36056-0.0275-0.46734 0.1453-0.10677 0.1727-0.32155 0.2353-0.47729 0.1391-0.15574-0.0963-0.28317-0.0301-0.28317 0.1471s0.13688 0.3221 0.30419 0.3221c0.1673 0 0.30418 0.3422 0.30418 0.7605 0 0.4182-0.13688 0.7605-0.30418 0.7605-0.16731 0-0.30419 0.5475-0.30419 1.2167 0 1.3308 0.1854 1.4955 0.77529 0.6887zm1.6582-0.7259c0-0.7944-0.49859-0.7161-0.72084 0.1132-0.28552 1.0655-0.2285 1.2458 0.26456 0.8366 0.25095-0.2083 0.45628-0.6357 0.45628-0.9498zm-5.3194-3.9348c0.13635-0.6207 0.10353-0.9032-0.091-0.783-0.46048 0.2846-0.73523-1.2531-0.35188-1.9694 0.18491-0.3455 0.25428-0.7101 0.15417-0.8102-0.10012-0.1001-0.34654 0.2538-0.54762 0.7865-0.37749 1.0001-0.9513 1.3825-0.65454 0.4362 0.0964-0.3074-0.16842-0.1467-0.62679 0.3803l-0.79374 0.9125 0.17748-1.673c0.34862-3.2862 0.36503-3.1735-0.46391-3.1841-0.57901-0.0075-0.76893-0.178-0.79595-0.7145-0.0431-0.8553-0.72498-1.6803-0.72498-0.8771 0 0.2844 0.10266 0.5178 0.22814 0.5186s0.26578 0.6461 0.31179 1.4339c0.046 0.7877 0.29716 1.7581 0.55811 2.1564 0.27637 0.4218 0.39973 1.0219 0.29547 1.4373-0.0985 0.3922-0.0293 0.8057 0.15362 0.9187 0.19794 0.1224 0.26198 0.6534 0.15817 1.3115-0.15141 0.9597-0.13305 1.0068 0.13898 0.3565 0.43239-1.0337 0.49345-1.0629 1.0527-0.5036 0.27087 0.2708 0.35012 0.4925 0.17612 0.4925s-0.22896 0.2277-0.12213 0.5061c0.13061 0.3404 0.0777 0.4342-0.16164 0.2863-0.19573-0.121-0.35587-0.075-0.35587 0.1022 0 0.5736 0.52539 0.342 1.054-0.4648 0.28356-0.4327 0.59161-0.7108 0.68456-0.6178 0.0929 0.0929-0.0477 0.4998-0.31266 0.9041-0.26491 0.4043-0.39959 0.8171-0.2993 0.9174 0.23849 0.2385 0.88838-1.0288 1.1587-2.2595zm-7.8848 1.2019c-0.80204-0.6309-1.3967-0.7466-1.3967-0.2718 0 0.1673 0.20962 0.3042 0.46582 0.3042 0.25621 0 0.5413 0.1967 0.63355 0.4371 0.0922 0.2404 0.36161 0.3627 0.59859 0.2717 0.32776-0.1257 0.25565-0.3031-0.3013-0.7412zm2.7098-0.2718c-0.1034-0.1673-0.35102-0.302-0.55027-0.2995-0.21768 0.0028-0.18016 0.1224 0.094 0.2995 0.58438 0.3777 0.68968 0.3777 0.45628 0zm18.231-1.574c-0.28015-0.8693-0.41509-2.1252-0.41103-3.8253 2e-3 -0.711-0.1401-1.2927-0.31511-1.2927s-0.3182-0.2054-0.3182-0.4563c0-0.251 0.14496-0.4563 0.32214-0.4563 0.17717 0 0.22446-0.158 0.10509-0.3512-0.13447-0.2176-0.0834-0.2686 0.13414-0.1341 0.19315 0.1194 0.35119 0.0592 0.35119-0.1336s-0.25709-0.4178-0.5713-0.5-0.73689-0.5129-0.9393-0.9571c-0.33514-0.7356-0.40188-0.7614-0.74729-0.289-0.25773 0.3525-0.47868 0.4193-0.68945 0.2085-0.21077-0.2107-0.36854 0.2554-0.4923 1.4545-0.10017 0.9706-0.0591 1.8878 0.0914 2.0382 0.15041 0.1504 0.19534 0.6641 0.0998 1.1416-0.1133 0.5665-0.0476 0.8682 0.18906 0.8682 0.2239 0 0.28905-0.232 0.17023-0.6064-0.15548-0.4899-0.0883-0.5665 0.34932-0.3986 0.42927 0.1648 0.39748 0.0538-0.15308-0.5342-0.5171-0.5523-0.65063-0.9659-0.52192-1.6167 0.0951-0.481 0.1826-1.0969 0.19436-1.3688 0.0164-0.3803 0.0825-0.354 0.28646 0.1141 0.25755 0.591 0.27091 0.5889 0.47038-0.0761 0.11291-0.3764 0.33429-0.6844 0.49195-0.6844s0.19643 0.146 0.0862 0.3244c-0.11028 0.1784 0.0527 0.5181 0.36227 0.7547 0.48904 0.3739 0.50299 0.4698 0.10651 0.7322-0.3337 0.2209-0.48357 0.177-0.55787-0.1631-0.0559-0.2558-0.2612-0.4082-0.45628-0.3387-0.41457 0.1477-0.32717 1.4265 0.12836 1.878 0.21468 0.2127 0.24458 0.1298 0.0949-0.2632-0.15767-0.4139-0.10146-0.5348 0.20173-0.4337 0.65301 0.2176 0.85864 1.5551 0.30314 1.9716-0.42095 0.3156-0.39631 0.4389 0.2186 1.0934 0.40523 0.4314 0.61669 0.9366 0.50921 1.2167-0.1011 0.2634 0.0505 0.8365 0.33679 1.2735 0.60597 0.9249 0.8979 0.8275 0.56997-0.1901zm-21.597 0.3892c0.0926-0.1498-0.0362-0.3508-0.28623-0.4468-0.2761-0.1059-0.45453 1e-3 -0.45453 0.2724 0 0.4919 0.47532 0.6039 0.74076 0.1744zm2.3011-0.6728c0-0.1852-0.20532-0.258-0.45627-0.1617-0.25096 0.0963-0.45628 0.0425-0.45628-0.1195 0-0.1621 0.20532-0.2946 0.45628-0.2946 0.25095 0 0.45627-0.1516 0.45627-0.3368s-0.21652-0.2536-0.48115-0.1521c-0.26464 0.1016-0.60685 0.1847-0.76047 0.1847-0.15361 0-0.2793 0.2737-0.2793 0.6083 0 0.4462 0.20279 0.6084 0.76046 0.6084 0.41825 0 0.76046-0.1515 0.76046-0.3367zm1.9902 0.0535c-0.0962-0.1557-0.053-0.3585 0.0961-0.4507 0.14912-0.0921 0.27112-0.4951 0.27112-0.8955 0-0.6744-0.0373-0.6916-0.50703-0.2337-0.5169 0.5039-0.49639 1.8631 0.0281 1.8631 0.15767 0 0.20792-0.1274 0.11167-0.2832zm-25.302-1.694c-0.19077-0.4971-0.71838-0.6274-0.71838-0.1774 0 0.2308 0.21319 0.388 0.82697 0.6097 0.0366 0.0132-0.0123-0.1813-0.10859-0.4323zm3.6713 0.118c-0.0918-0.1485 0.1149-0.2701 0.45938-0.2701 0.84364 0 0.7993-0.5327-0.0581-0.6979l-0.68442-0.1318 0.68442-0.0414c0.41151-0.0249 0.68441-0.2382 0.68441-0.535 0-0.3839-0.0927-0.4165-0.41772-0.1468-0.22975 0.1907-0.62655 0.2665-0.88179 0.1686-0.25523-0.098-0.55854-0.0252-0.67401 0.1616-0.15337 0.2482-0.32558 0.2437-0.63914-0.0165-0.35091-0.2912-0.42919-0.2107-0.42919 0.4415 0 0.4387-0.13689 0.7977-0.30419 0.7977s-0.30418 0.1047-0.30418 0.2325c0 0.1279 0.61458 0.2495 1.3657 0.2702 0.75116 0.0206 1.2906-0.084 1.1988-0.2326zm4.2976-0.6896c0.28591-1.1392 0.0403-2.4826-0.43551-2.3818-0.26572 0.0564-0.35215-0.0819-0.23768-0.3802 0.11396-0.297 8e-3 -0.4687-0.28803-0.4687-0.31123 0-0.43534 0.2292-0.37068 0.6844 0.0535 0.3764 0.2683 0.6844 0.47743 0.6844s0.34601 0.1369 0.30419 0.3042c-0.0418 0.1673-0.17871 0.27-0.30419 0.2281-0.27413-0.0913-0.30155 0.8997-0.0435 1.5721 0.26934 0.7019 0.68941 0.5885 0.89797-0.2425zm13.822 0.4195c-0.59515-0.3846-1.2168-0.3846-1.2168 0 0 0.1673 0.37643 0.3021 0.83651 0.2995 0.65186-0.0036 0.73579-0.0697 0.38024-0.2995zm1.66-0.2831c0.0963-0.1558 0.0502-0.3603-0.10226-0.4546-0.1525-0.0942-0.35576 0.0332-0.45169 0.2832-0.18912 0.4928 0.26791 0.6342 0.55395 0.1714zm-16.869-0.9406c0-0.7363-1.0754-0.4551-1.132 0.296-0.0306 0.4067 0.11527 0.5143 0.54507 0.4019 0.32279-0.0844 0.5869-0.3985 0.5869-0.6979zm-9.7553-0.6774c0.0118-0.1255-0.11551-0.2282-0.28281-0.2282s-0.29456 0.3764-0.2828 0.8365c0.0189 0.7413 0.0512 0.7673 0.2828 0.2282 0.14379-0.3346 0.27105-0.7111 0.28281-0.8365zm25.435 0.152c-0.027-0.7787-0.18042-1.1406-0.48336-1.1406-0.29178 0-0.41646 0.2604-0.36408 0.7604 0.19128 1.826 0.90882 2.1479 0.84744 0.3802zm6.5254 0.0581c0-0.2608-0.13688-0.3896-0.30418-0.2862s-0.30419 0.3168-0.30419 0.4742c0 0.1575 0.13689 0.2863 0.30419 0.2863s0.30418-0.2134 0.30418-0.4743zm-5.0191-0.1341c-0.1034-0.1673 0.0254-0.3042 0.28623-0.3042s0.47424-0.2265 0.47424-0.5034c0-0.4547-0.0582-0.4508-0.6012 0.0406-0.52041 0.471-0.58953 1.0712-0.12337 1.0712 0.0837 0 0.0675-0.1369-0.0359-0.3042zm9.3839-0.1423c0.25448-0.6632-0.27869-0.841-0.75622-0.2522-0.28521 0.3516-0.29598 0.44-0.0345 0.2828 0.20913-0.1256 0.38024-0.0834 0.38024 0.0937 0 0.4611 0.21023 0.3974 0.41045-0.1243zm-30.984-0.8464c0.0291-0.4166 0.3753-0.8439 0.88476-1.0922 0.46035-0.2243 0.77416-0.4707 0.69738-0.5475-0.28176-0.2817-3.2525-0.3623-3.2525-0.0882 0 0.1557 0.22208 0.2831 0.49352 0.2831 0.38899 0 0.41852 0.0904 0.1394 0.4267-0.27184 0.3276-0.26283 0.4689 0.0388 0.6084 0.32009 0.148 0.31945 0.2155-3e-3 0.3645-0.30033 0.1385-0.2636 0.2799 0.15161 0.5835 0.64519 0.4718 0.7862 0.3825 0.85049-0.5383zm-13.534 0.3135c0-0.1503 0.12254-0.1975 0.27231-0.105 0.14977 0.0926 0.3508-0.0362 0.44673-0.2862 0.0959-0.25 0.43784-0.4545 0.75979-0.4545 0.32196 0 0.6675-0.214 0.76787-0.4756 0.10037-0.2615 0.31088-0.3962 0.4678-0.2992s0.37642 0.0289 0.48777-0.1512c0.24325-0.3936-3.3439-0.0693-4.2146 0.381-0.30586 0.1582-0.74864 0.2138-0.98397 0.1234-0.61618-0.2364-1.1871 0.9205-0.61282 1.2418 0.60621 0.3393 2.6092 0.3588 2.6092 0.0255zm0.024-0.9725c-0.0132-0.3206 0.0587-0.5003 0.15977-0.3992s0.11188 0.3634 0.024 0.583c-0.0971 0.2427-0.16918 0.1706-0.18378-0.1838zm10.552 0.4307c-0.4488-0.7187-0.56732-0.6353-0.33887 0.2383 0.096 0.3672 0.29313 0.5944 0.43799 0.5049 0.14485-0.0895 0.10025-0.424-0.0991-0.7432zm-6.3171 0.3044c0-0.1673-0.14497-0.3041-0.32214-0.3041-0.17718 0-0.23754 0.1368-0.13414 0.3041s0.24836 0.3042 0.32214 0.3042c0.0738 0 0.13414-0.1369 0.13414-0.3042zm3.641-0.5975c-8e-3 -0.6765-0.0478-0.7051-0.32288-0.2326-0.1725 0.2963-0.4421 0.4594-0.59912 0.3623-0.15702-0.097-0.28549 0.0076-0.28549 0.2326s0.27377 0.4091 0.60837 0.4091c0.45086 0 0.60598-0.1997 0.59912-0.7714zm9.7432 0.4526c0-0.1985-0.47853-0.2818-1.215-0.2115-0.66827 0.0637-1.1562 0.211-1.0843 0.3274 0.21347 0.3454 2.2993 0.2403 2.2993-0.1159zm22.358-0.1592c0.22307 0 0.46262 0.1026 0.53233 0.2281 0.0697 0.1255 0.10783 0.103 0.0847-0.05-0.0231-0.153-0.3254-0.4663-0.67174-0.6963-0.58651-0.3894-0.62932-0.3599-0.62372 0.4303 3e-3 0.4666 0.066 0.6772 0.13942 0.4681 0.0734-0.2091 0.31592-0.3802 0.53899-0.3802zm2.5037 0.3975c-0.29596-0.0771-0.70661-0.072-0.91255 0.0113-0.20595 0.0833 0.0362 0.1464 0.53811 0.1402s0.67041-0.0743 0.37444-0.1515zm12.455-2.2987c0.51955-1.0456 1.673-2.8593 2.5633-4.0305 1.4103-1.8552 1.6201-2.312 1.6302-3.5488 6e-3 -0.7807 0.12146-1.5294 0.25578-1.6637 0.13432-0.1344 0.15389-0.0089 0.0435 0.2788-0.11531 0.3005-0.0574 0.5231 0.13602 0.5231 0.1852 0 0.34287-0.3765 0.35037-0.8366 7e-3 -0.46 0.088-1.562 0.17876-2.4488 0.21188-2.069-0.29658-4.1604-1.425-5.8614-0.49175-0.7412-0.89467-1.2265-0.89539-1.0785s-0.28857-0.096-0.63968-0.5424c-0.68605-0.8722-3.4232-2.408-3.7353-2.0959-0.37042 0.3704-0.18128 0.7582 0.28294 0.5801 0.2707-0.1039 0.3928-0.0529 0.28623 0.1195-0.10221 0.1654 0.0848 0.3007 0.41561 0.3007 0.9343 0 1.5638 0.3264 1.5638 0.811 0 0.265 0.15206 0.3558 0.38024 0.227 0.30418-0.1717 0.30418-0.1328 0 0.195-0.58514 0.6304-0.45802 1.1805 0.24164 1.0458 0.4356-0.0839 0.78523 0.1488 1.1671 0.7768 0.29989 0.4932 0.66304 0.7945 0.80698 0.6696 0.14395-0.1249 0.0151 0.1663-0.28625 0.6471-0.44015 0.7021-0.48189 1.0192-0.21212 1.6113 0.45788 1.0049 0.42258 1.1591-0.1555 0.6794-0.42667-0.3541-0.47575-0.329-0.37274 0.1909 0.0832 0.4196 0.32109 0.5702 0.79555 0.5035 0.37231-0.0523 0.67692 0.0503 0.67692 0.2281s-0.13688 0.3233-0.30419 0.3233c-0.38652 0-0.38413 0.6245 5e-3 1.2168 0.26625 0.4056 0.33281 0.4056 0.59906 0 0.25848-0.3938 0.30016-0.3858 0.30418 0.0581 7e-3 0.7254-0.46618 0.9304-0.91068 0.3948-0.5238-0.6311-0.83135-0.5661-1.095 0.2315l-0.22626 0.6844-0.17447-0.7024c-0.19234-0.7742-0.78285-0.7978-0.78285-0.0312 0 0.5472-0.69836 1.4941-1.1019 1.4941-0.14682 0-0.26694-0.2053-0.26694-0.4563 0-0.55-0.35492-0.5881-0.85172-0.0913-0.25978 0.2598-0.36502 0.2657-0.36502 0.0205 0-0.1894 0.30798-0.4417 0.68441-0.5605 1.1696-0.3691 2.0447-1.4018 1.7131-2.0215-0.1909-0.3567-0.18228-0.5411 0.0253-0.5411 0.17319 0 0.31489 0.1893 0.31489 0.4208 0 0.2314 0.27376 0.4923 0.60837 0.5798 0.71649 0.1874 0.80897-0.3306 0.14562-0.8157-0.51708-0.3781-0.7825-1.4801-0.85644-3.5561-0.036-1.0116-0.17478-1.3953-0.50593-1.3988-0.25095-0.0028-0.54183 0.1258-0.64639 0.2857-0.11591 0.1772-0.27132 0.1592-0.39818-0.0461-0.11444-0.1851-0.0631-0.3366 0.11406-0.3366 0.17718 0 0.32214-0.2053 0.32214-0.4563 0-0.5504-0.50684-0.6088-0.68351-0.0788-0.093 0.2789-0.25133 0.2521-0.60612-0.1027-0.30243-0.3025-0.38529-0.634-0.22376-0.8953 0.14108-0.2283 0.18033-0.5383 0.0872-0.689-0.0931-0.1506-0.41521 0.2535-0.71577 0.898-0.57822 1.24-0.80202 0.9937-0.29907-0.3291 0.16316-0.4292 0.1881-0.7803 0.0554-0.7803-0.13268 0-0.69297 1.1293-1.2451 2.5095-0.55212 1.3803-1.2692 3.1064-1.5936 3.8358-0.32436 0.7294-0.4948 1.4138-0.37875 1.5209 0.11606 0.1071 0.27241 0.0228 0.34744-0.1874 0.075-0.2102 0.26162-0.3048 0.41463-0.2102 0.15302 0.0946 0.27821-4e-4 0.27821-0.211 0-0.2979 0.0811-0.3019 0.36502-0.018 0.56704 0.5671 0.85172 0.4349 0.85172-0.3954 0-0.4183 0.11977-0.7605 0.26616-0.7605s0.3483-0.4106 0.44868-0.9125c0.1866-0.9331 1.1103-1.3127 1.1103-0.4563 0 0.2509-0.18937 0.4563-0.42081 0.4563-0.4936 0-0.78597 0.92-0.79179 2.4915-4e-3 1.0942-0.60533 1.9407-0.85229 1.1998-0.0957-0.287-0.22978-0.2826-0.59415 0.0198-0.40979 0.3401-0.44162 0.2927-0.24644-0.3675l0.22413-0.7581-0.52339 0.7154c-0.40143 0.5487-0.58134 0.6217-0.77209 0.313-0.31154-0.5041-0.29345-0.5315-1.2833 1.9435-1.0063 2.5161-1.0147 2.7632-0.0537 1.5909l0.74801-0.9125 2e-3 0.9886c8.3e-4 0.5437 0.13839 0.9886 0.3057 0.9886 0.1673 0 0.30418-0.2054 0.30418-0.4563 0-0.7138 0.55067-0.5345 0.70069 0.2281l0.13464 0.6844 0.23291-0.7101c0.1793-0.5467 0.29779-0.6167 0.51482-0.3042 0.19521 0.2811 0.2252 0.2034 0.0975-0.2528-0.24211-0.8651 0.34528-1.2022 1.0242-0.5878 0.29541 0.2674 0.69744 0.4861 0.89339 0.4861 0.19596 0 0.35629 0.1369 0.35629 0.3042s-0.11791 0.3042-0.26201 0.3042-0.19048 0.3764-0.10306 0.8365c0.13067 0.6877 0.0826 0.7767-0.27032 0.5002-0.73523-0.576-1.7981-0.72-1.7981-0.2436 0 0.2353 0.1711 0.3936 0.38023 0.3518 0.20913-0.0419 0.38023 0.1977 0.38023 0.5323s-0.1711 0.5741-0.38023 0.5323-0.39611 0.232-0.41552 0.6084c-0.0279 0.5414-0.065 0.5696-0.17772 0.1348-0.0783-0.3023-0.4705-0.6743-0.87146-0.8268-0.48367-0.1839-0.66839-0.4351-0.54887-0.7466 0.1301-0.339 0.044-0.4172-0.31-0.2814-0.5883 0.2258-0.61752 0.4823-0.11246 0.9874 0.3008 0.3008 0.28532 0.4411-0.076 0.6891-0.35799 0.2457-0.32008 0.2743 0.17964 0.1352 0.41091-0.1144 0.82162 0.0316 1.1693 0.4158 0.29474 0.3257 0.73863 0.5144 0.98641 0.4193 0.31393-0.1205 0.42055-0.0027 0.35165 0.3884-0.074 0.42 0.0926 0.5644 0.6616 0.5736 0.61049 0.0099 0.74556 0.1508 0.68488 0.7144-0.0416 0.3862 0.0269 0.6401 0.15209 0.5643 0.12522-0.0758 0.39042 0.0384 0.58933 0.2538 0.2805 0.3037 0.26561 0.5184-0.0664 0.9566-0.47135 0.6223-0.58195 1.3256-0.20847 1.3256 0.13139 0 0.66397-0.8556 1.1835-1.9012zm-1.8147-3.27c-0.1034-0.3954-9e-3 -0.6084 0.2687-0.6084 0.2353 0 0.42781 0.2738 0.42781 0.6084s-0.12092 0.6084-0.26871 0.6084-0.3403-0.2738-0.4278-0.6084zm-1.4328-0.3042c0-0.1673 0.13688-0.3042 0.30418-0.3042s0.30419 0.1369 0.30419 0.3042-0.13689 0.3042-0.30419 0.3042-0.30418-0.1369-0.30418-0.3042zm2.4829-1.0966c0.12679-0.6584 1.0794-0.9381 1.5596-0.4579 0.40964 0.4096 0.28312 0.5372-0.80323 0.8099-0.73985 0.1857-0.85003 0.1344-0.75635-0.352zm2.6882-0.5764c0-0.251 0.23955-0.4606 0.53233-0.466 0.48574-0.0088 0.48154-0.0481-0.048-0.4488-0.51235-0.3877-0.63005-0.3777-1.0054 0.0857-0.38251 0.4723-0.39294 0.4583-0.10414-0.1395 0.40513-0.8386 0.41333-1.4058 0.0168-1.1607-0.1673 0.1034-0.30419-0.0173-0.30419-0.2683 0-0.2509 0.14622-0.5466 0.32493-0.6571 0.17871-0.1104 0.26219-0.3643 0.18551-0.5641-0.0795-0.2072 0.14024-0.3767 0.51159-0.3945 0.35805-0.0172 0.47989 0.0347 0.27076 0.1152-0.23045 0.0888-0.36322 0.6457-0.33706 1.4139l0.0432 1.2675 0.20645-1.2168c0.19973-1.1772 0.21676-1.192 0.524-0.4563 0.17466 0.4183 0.43877 0.6921 0.5869 0.6084 0.14814-0.0836 0.28609 0.1813 0.30656 0.5888 0.0357 0.7098 0.0192 0.7163-0.39057 0.1559-0.40006-0.5471-0.42326-0.5256-0.35788 0.3324 0.0743 0.9753-0.20449 1.6606-0.67556 1.6606-0.15742 0-0.28623-0.2053-0.28623-0.4563zm-2.1293-1.3688c0-0.356 0.20279-0.6084 0.48883-0.6084 0.32077 0 0.42534 0.1654 0.30418 0.4812-0.10155 0.2646-0.18464 0.5384-0.18464 0.6083 0 0.07-0.13688 0.1272-0.30418 0.1272s-0.30419-0.2737-0.30419-0.6083zm-0.30418-1.1988c0-0.1772 0.13688-0.3222 0.30418-0.3222s0.30419 0.0604 0.30419 0.1342-0.13689 0.2187-0.30419 0.3221-0.30418 0.0431-0.30418-0.1341zm-5.1712-1.9772c0-0.0738 0.13688-0.2188 0.30419-0.3222 0.1673-0.1034 0.30418-0.043 0.30418 0.1342 0 0.1771-0.13688 0.3221-0.30418 0.3221-0.16731 0-0.30419-0.0604-0.30419-0.1341zm5.0612-1.8431c-0.0963-0.251-0.0425-0.4563 0.11955-0.4563s0.29464 0.2053 0.29464 0.4563-0.0538 0.4563-0.11955 0.4563c-0.0658 0-0.19833-0.2053-0.29464-0.4563zm4.9874-1.7986c-0.23548-0.6001-0.60793-1.0912-0.82765-1.0912-0.52568 0-0.50456-0.2425 0.0713-0.8184 0.55626-0.5562 0.52529-0.5866 1.0307 1.0114 0.5103 1.6134 0.28969 2.3357-0.27434 0.8982zm-5.0295 0.4298c-0.1034-0.1673 0.0254-0.3042 0.28624-0.3042 0.26082 0 0.47423 0.1369 0.47423 0.3042s-0.12881 0.3042-0.28623 0.3042c-0.15743 0-0.37084-0.1369-0.47424-0.3042zm-2.5856-2.8898c0.20827-0.2509 0.43035-0.4563 0.49352-0.4563 0.0632 0 0.11485 0.2054 0.11485 0.4563 0 0.251-0.22209 0.4563-0.49353 0.4563-0.4042 0-0.42498-0.0826-0.11484-0.4563zm2.4335 0.1521c0-0.1673 0.21341-0.3042 0.47423-0.3042 0.26083 0 0.38963 0.1369 0.28623 0.3042-0.10339 0.1673-0.3168 0.3042-0.47423 0.3042-0.15742 0-0.28623-0.1369-0.28623-0.3042zm-58.955 17.131c-0.21958-0.0879-0.48194-0.0771-0.58302 0.024s0.0786 0.173 0.39924 0.1598c0.35436-0.0146 0.42644-0.0867 0.18378-0.1838zm15.96-1.215c-0.0846-0.0845-0.4698-0.0534-0.85609 0.0692l-0.70234 0.2229 0.67942 0.2514c0.37368 0.1382 0.69806 0.4268 0.72084 0.6413 0.0228 0.2146 0.10229 0.0703 0.17668-0.3205 0.0744-0.3908 0.0661-0.7797-0.0185-0.8643zm-17.082 0.8144c-0.1034-0.1673-0.3168-0.3042-0.47423-0.3042s-0.28623 0.1369-0.28623 0.3042 0.2134 0.3042 0.47423 0.3042c0.26082 0 0.38963-0.1369 0.28623-0.3042zm13.066-0.8593c-0.12189-0.1129-0.27789-0.0488-0.34666 0.1426-0.0688 0.1914-0.42645 0.2827-0.79486 0.2029-0.60441-0.1308-0.59555-0.1034 0.0906 0.2799 0.64858 0.3623 0.79813 0.3627 1.0165 0.0024 0.14081-0.2324 0.15629-0.5149 0.0344-0.6278zm1.6868 0.5551c0-0.1673-0.23955-0.3021-0.53233-0.2995-0.45492 4e-3 -0.46598 0.0475-0.076 0.2995 0.57406 0.371 0.60837 0.371 0.60837 0zm-4.0362-0.2108c-0.29596-0.0771-0.70661-0.072-0.91256 0.0113-0.20594 0.0833 0.0362 0.1464 0.53812 0.1402 0.5019-0.0062 0.6704-0.0744 0.37444-0.1515zm11.394 3e-3c-0.21959-0.0878-0.48195-0.077-0.58302 0.024-0.10108 0.1011 0.0786 0.173 0.39924 0.1598 0.35436-0.0146 0.42644-0.0867 0.18378-0.1838zm22.072-0.8822c-0.28987-0.2899-0.87103 0.1796-0.655 0.5292 0.1284 0.2077 0.29854 0.2025 0.517-0.016 0.1791-0.1791 0.2412-0.41 0.138-0.5132zm-22.554-0.9569c-0.10108-0.1011-0.17297 0.0786-0.15976 0.3992 0.0146 0.3544 0.0867 0.4265 0.18378 0.1838 0.0879-0.2196 0.0771-0.4819-0.024-0.583zm-0.48796-0.0824c0-0.1673-0.12881-0.3042-0.28624-0.3042s-0.37083 0.1369-0.47423 0.3042 0.0254 0.3042 0.28624 0.3042c0.26082 0 0.47423-0.1369 0.47423-0.3042zm22.814-0.2946c0-0.1621-0.20532-0.2159-0.45627-0.1196-0.25096 0.0963-0.45628 0.2289-0.45628 0.2947 0 0.0657 0.20532 0.1195 0.45628 0.1195 0.25095 0 0.45627-0.1326 0.45627-0.2946zm13.264-0.5356c-0.10108-0.101-0.17297 0.0786-0.15976 0.3993 0.0146 0.3543 0.0867 0.4264 0.18378 0.1838 0.0879-0.2196 0.0771-0.482-0.024-0.5831zm-0.87181-0.5966c-0.28283-0.2828-0.61618-0.4122-0.74079-0.2876-0.12462 0.1246-0.0252 0.3539 0.22089 0.5096 0.74056 0.4683 1.0697 0.3278 0.5199-0.222zm-2.154-2.358c-0.44448-0.4119-0.80814-0.6004-0.80814-0.4189 0 0.4018 1.2538 1.5303 1.4653 1.3189 0.083-0.083-0.21266-0.488-0.65714-0.9zm-26.208-0.4738c0.1034-0.1673-0.0254-0.3042-0.28623-0.3042s-0.47423 0.1369-0.47423 0.3042 0.1288 0.3042 0.28623 0.3042 0.37083-0.1369 0.47423-0.3042zm26.776-0.6313c0.1102-0.3472 0.11942-0.7122 0.0205-0.8111-0.0989-0.099-0.17987 0.0482-0.17987 0.3271 0 0.2788-0.13688 0.5069-0.30419 0.5069-0.1673 0-0.30418 0.1369-0.30418 0.3042 0 0.555 0.56404 0.3147 0.76774-0.3271zm-25.72-0.2694c0.75161-0.4753 0.21808-0.5893-0.75165-0.1605-0.70616 0.3122-0.77496 0.408-0.30419 0.4235 0.33461 0.011 0.80973-0.1073 1.0558-0.263zm2.775-1.6259c-0.24083-0.2408-0.33271-0.1619-0.33271 0.2858 0 0.8042 0.42538 1.231 0.56085 0.5628 0.0575-0.2838-0.0452-0.6656-0.22814-0.8486zm-2.462-1.8334c0-0.6313-0.36003-0.8393-0.80853-0.4671-0.58962 0.4894-0.5017 0.8727 0.20016 0.8727 0.3346 0 0.60837-0.1825 0.60837-0.4056zm2.1956-1.4749c-0.19047-0.1904-0.23286 0.0096-0.11969 0.5647 0.12981 0.6366 0.2063 0.7131 0.29494 0.2949 0.0658-0.3106-0.013-0.6974-0.17525-0.8596zm-0.67467 0.6638c0-0.1673-0.14497-0.3042-0.32214-0.3042-0.17718 0-0.23754 0.1369-0.13414 0.3042s0.24836 0.3042 0.32214 0.3042c0.0738 0 0.13414-0.1369 0.13414-0.3042zm-2.3161-0.7413c-0.0922-0.2404-0.36093-0.3629-0.59707-0.2723-0.51369 0.1971-0.27104 0.7094 0.33601 0.7094 0.24779 0 0.35799-0.1845 0.26106-0.4371zm2.9245-2.3195c0-0.8185-0.0895-0.8936-1.0646-0.8936-0.58556 0-1.0646 0.1368-1.0646 0.3041s0.20532 0.3042 0.45628 0.3042c0.25095 0 0.45627 0.2447 0.45627 0.5437 0 0.3255 0.24404 0.562 0.60838 0.5894 0.48071 0.0362 0.60837-0.1417 0.60837-0.8478zm-17.643-0.8936c0-0.1673-0.14496-0.3042-0.32213-0.3042-0.17718 0-0.23754 0.1369-0.13415 0.3042 0.1034 0.1673 0.24836 0.3041 0.32214 0.3041 0.0738 0 0.13414-0.1368 0.13414-0.3041zm16.566-1.4153c-0.84048-0.6146-1.2224-0.4933-0.60281 0.1913 0.29925 0.3307 0.68341 0.5151 0.85369 0.4099 0.18434-0.1139 0.0828-0.3572-0.25088-0.6012zm10.404-1.0943c-0.0844-0.2091-0.15343-0.038-0.15343 0.3803 0 0.4182 0.0691 0.5893 0.15343 0.3802 0.0844-0.2091 0.0844-0.5514 0-0.7605zm-11.456-0.2461c0-0.1574-0.13689-0.2862-0.30419-0.2862s-0.30418 0.2134-0.30418 0.4742c0 0.2609 0.13688 0.3897 0.30418 0.2863s0.30419-0.3168 0.30419-0.4743zm1.1559-0.347c0.20076-0.2008 0.36503-0.5642 0.36503-0.8076 0-0.3514-0.12544-0.3291-0.60838 0.1079-0.62491 0.5656-0.79603 1.0647-0.36502 1.0647 0.13384 0 0.40761-0.1643 0.60837-0.365zm-24.578-0.3955c0-0.2509-0.13259-0.4563-0.29464-0.4563s-0.21585 0.2054-0.11955 0.4563c0.0963 0.251 0.22889 0.4563 0.29464 0.4563 0.0658 0 0.11955-0.2053 0.11955-0.4563zm34.572-1.4507c-0.0833-0.2059-0.14643 0.0363-0.14023 0.5382 6e-3 0.5019 0.0744 0.6704 0.1515 0.3744s0.0721-0.7066-0.0113-0.9126zm20.863 0.7924c-0.21017-0.0848-0.30475-0.2793-0.21018-0.4323 0.0946-0.153 0.035-0.2782-0.13225-0.2782-0.1673 0-0.38156 0.1252-0.47612 0.2782-0.16988 0.2749 0.30635 0.5863 0.8965 0.5863 0.1673 0 0.13223-0.0693-0.078-0.154zm-31.25-0.7155c0.10508-0.17 0.31849-0.2304 0.47423-0.1341 0.3399 0.21 0.33281-0.1022-0.021-0.9256-0.22884-0.5325-0.26409-0.5408-0.2828-0.0665-0.0118 0.2981-0.22671 0.6207-0.47766 0.717-0.50136 0.1924-0.62587 0.7184-0.17005 0.7184 0.15743 0 0.37221-0.1391 0.4773-0.3092zm-30.07-4.3354c-0.0833-0.206-0.14642 0.0362-0.14022 0.5381 6e-3 0.5019 0.0744 0.6704 0.15149 0.3744 0.0771-0.296 0.0721-0.7066-0.0113-0.9125zm18.356-0.2583c0-0.1673-0.13689-0.2196-0.30419-0.1162s-0.30418 0.3249-0.30418 0.4922 0.13688 0.2196 0.30418 0.1162 0.30419-0.3249 0.30419-0.4922zm53.043-5.9876c0.11237-0.1818 0.27106-1.7412 0.35263-3.4654 0.0816-1.7241 0.36059-3.7779 0.62005-4.5638 0.34966-1.0592 0.38806-1.5854 0.14838-2.0333-0.17785-0.3323-0.32337-0.8174-0.32337-1.0779s-0.46591-1.084-1.0354-1.83c-0.56973-0.7464-1.1288-1.9097-1.2432-2.5866-0.24575-1.4546-0.76339-1.9423-0.76304-0.719 1.3e-4 0.4699 0.41078 1.7222 0.91256 2.7829 0.55071 1.1641 0.91231 2.4217 0.91231 3.1729 0 1.1872-1.8681 8.2858-2.4846 9.4413-0.4684 0.8779-4e-3 2.1826 1.2086 3.3975l1.124 1.126 0.18341-1.657c0.10087-0.9113 0.27535-1.8057 0.38773-1.9876zm-53.043 2.6775c0-0.1673-0.51332-0.2906-1.1407-0.2739-1.018 0.0271-1.0589 0.0565-0.38023 0.2739 1.0873 0.3482 1.5209 0.3482 1.5209 0zm22.51-1.3689c0-0.2509-0.0538-0.4563-0.11955-0.4563-0.0657 0-0.19834 0.2054-0.29464 0.4563-0.0963 0.251-0.0425 0.4563 0.11955 0.4563s0.29464-0.2053 0.29464-0.4563zm-8.2177-1.4628c-3e-3 -0.3666-0.13735-0.8718-0.29953-1.1228-0.21559-0.3336-0.29612-0.1039-0.29953 0.8545-3e-3 0.7974 0.11448 1.2371 0.29953 1.1228 0.1673-0.1034 0.30209-0.488 0.29953-0.8545zm9.1302-8.8795c-0.20828-0.2509-0.51557-0.4563-0.68287-0.4563-0.16968 0-0.13674 0.2018 0.0745 0.4563 0.20828 0.251 0.51557 0.4563 0.68287 0.4563 0.16968 0 0.13674-0.2018-0.0745-0.4563zm0.76046-0.7605c-0.1034-0.1673-0.24836-0.3041-0.32214-0.3041-0.0738 0-0.13414 0.1368-0.13414 0.3041 0 0.1674 0.14496 0.3042 0.32214 0.3042s0.23754-0.1368 0.13414-0.3042zm-0.91256-1.2167c-0.1034-0.1673-0.24836-0.3042-0.32214-0.3042-0.0738 0-0.13414 0.1369-0.13414 0.3042s0.14497 0.3042 0.32214 0.3042c0.17718 0 0.23754-0.1369 0.13414-0.3042zm15.666-3.346c0-0.3346-0.13688-0.6084-0.30419-0.6084-0.1673 0-0.30418-0.1514-0.30418-0.3365 0-0.185-0.3533-0.6143-0.7851-0.954-0.49151-0.3866-0.73158-0.8222-0.64199-1.1648 0.0787-0.301-0.0261-0.6122-0.23298-0.6916-0.26627-0.1022-0.33841-0.7544-0.24706-2.2335l0.12905-2.0891-1.1139-0.5312c-1.4674-0.6998-4.411-1.0035-5.27-0.5438-0.85623 0.4582-0.83511 0.6119 0.24694 1.7966 0.71433 0.7821 0.81098 1.0288 0.45627 1.1649-0.24752 0.095-0.45004 0.295-0.45004 0.4444 0 0.3977 1.0352 0.3315 1.4601-0.0934 0.28391-0.2839 0.36511-0.267 0.3654 0.076 4.5e-4 0.5323 0.88036 1.5974 3.5684 4.3195 2.0584 2.0844 3.1233 2.5771 3.1233 1.4449zm12.405-5.3391c-0.0714-0.0715-0.5648-0.2169-1.0963-0.3232-1.3015-0.2603-1.2818 0.3902 0.0222 0.7354 0.86427 0.2287 1.4791-0.0073 1.0742-0.4122zm-3.7727-0.1466c0.14699-0.1377-0.53743-0.2499-1.5209-0.2493-1.6378 1e-3 -1.7375 0.0383-1.1857 0.4433 0.60435 0.4436 2.1439 0.3333 2.7066-0.194zm1.8195-1.6491c1.1477 0.0572 2.1629 0.1802 2.256 0.2734 0.31998 0.3199 0.67631 0.1687 0.67631-0.287 0-0.3336-0.34761-0.457-1.2928-0.4589-0.71104-0.0015-2.0114-0.089-2.8898-0.1945-1.5123-0.1816-1.597-0.1553-1.597 0.4962 0 0.5132 0.0966 0.6091 0.38023 0.3774 0.20913-0.1709 1.3192-0.2638 2.467-0.2066zm4.0441-1.5214c-0.0991-0.2582-0.41514-0.4694-0.70239-0.4694s-0.80486-0.2529-1.1502-0.5621c-0.75294-0.6739-3.0684-1.611-3.3312-1.3482-0.38028 0.3803-0.18131 1.0608 0.26059 0.8912 0.44535-0.1708 2.2278 0.549 3.9636 1.6008 1.0111 0.6127 1.2281 0.5873 0.95968-0.1123zm-5.9884-0.9078c-5e-3 -0.1771-0.21064-0.0564-0.45627 0.2684-0.24564 0.3248-0.44226 0.7354-0.43694 0.9126 5e-3 0.1771 0.21065 0.0563 0.45628-0.2684 0.24563-0.3248 0.44225-0.7354 0.43693-0.9126zm6.7018-0.9038c0-0.6384-0.32342-0.8573-2.4854-1.683-1.9346-0.7387-2.5396-0.8626-2.73-0.5589-0.15583 0.2486-0.0542 0.463 0.28011 0.5909 0.28854 0.1104 1.3063 0.5005 2.2617 0.867 0.95542 0.3664 1.8961 0.8578 2.0905 1.092 0.48848 0.5886 0.58308 0.5386 0.58308-0.308zm-67.307 27.014c-0.12199-0.122-0.2218-0.4317-0.2218-0.6882 0-0.3424 0.09-0.3765 0.33841-0.128 0.18612 0.1861 0.28593 0.4958 0.2218 0.6882-0.0641 0.1924-0.21642 0.25-0.33841 0.128zm1.1977-0.019c-0.37169-0.3717-0.2091-0.7101 0.32954-0.6858 0.32114 0.0145 0.38073 0.0852 0.1502 0.1781-0.21017 0.0847-0.30476 0.2793-0.21019 0.4323 0.19972 0.3231 0.0266 0.3716-0.26955 0.0754zm6.9628-0.6418c-0.0568-0.0568-0.0351-0.3637 0.0482-0.6821 0.12783-0.4888 0.37106-0.5593 1.5639-0.453 0.77689 0.0692 1.6601 0.1322 1.9628 0.1402 0.3167 0.0082 0.46352 0.1547 0.3459 0.345-0.11241 0.1819-0.46269 0.2632-0.77842 0.1806-0.31572-0.0825-0.57404-0.0404-0.57404 0.0937 0 0.2368-2.3617 0.5822-2.5683 0.3756zm1.4086-0.58c-0.21958-0.0878-0.48194-0.077-0.58302 0.0241-0.10108 0.101 0.0786 0.1729 0.39925 0.1597 0.35435-0.0146 0.42643-0.0867 0.18377-0.1838zm-7.3575 0.2078c0-0.1673 0.13688-0.3042 0.30418-0.3042s0.30419 0.1369 0.30419 0.3042-0.13689 0.3042-0.30419 0.3042-0.30418-0.1369-0.30418-0.3042zm-2.1293-0.5662c0-0.1441 0.34221-0.1965 0.76046-0.1166 0.41826 0.08 0.76046 0.1979 0.76046 0.262 0 0.0642-0.3422 0.1166-0.76046 0.1166-0.41825 0-0.76046-0.1179-0.76046-0.262zm4.4161-0.0334c-0.0884-0.143-0.74172-0.3481-1.4519-0.4558-2.16-0.3276-2.6172-0.6753-2.364-1.798 0.11997-0.5319 0.17281-1.2641 0.11741-1.6271s0.0365-0.7448 0.20418-0.8484c0.45147-0.279 0.0443-0.7562-0.47523-0.5569-0.24559 0.0943-0.44653 0.0039-0.44653-0.2008 0-0.2194 0.24377-0.3085 0.59378-0.2169 0.78999 0.2065 0.84999-0.0903 0.51644-2.5544-0.23635-1.746-0.34397-2.0089-0.65056-1.5897-0.20206 0.2764-0.52502 0.405-0.7177 0.2859-0.43009-0.2658-0.46501-1.0931-0.0462-1.0931 0.1673 0 0.30419-0.1461 0.30419-0.3247 0-0.1939-0.26366-0.241-0.65439-0.117-0.5203 0.1651-0.61575 0.107-0.46582-0.2837 0.1037-0.2703 0.0706-0.4914-0.0735-0.4914-0.14415 0-0.34088 0.2053-0.43718 0.4563-0.27749 0.7231-1.1873 0.5809-0.95551-0.1494 0.10572-0.3331 0.0836-0.7779-0.0491-0.9886-0.16162-0.2564-0.30692-0.0815-0.43993 0.5296-0.19092 0.8773-0.19999 0.8677-0.23459-0.2486-0.0329-1.0625-0.0942-1.142-0.7204-0.9359-1.5661 0.5154-1.8799 0.3517-2.1022-1.0969-0.27326-1.7803-0.30917-5.2849-0.0608-5.9322 0.1551-0.4042 0.24646-0.4246 0.45162-0.1009 0.19258 0.3038 0.25837 0.3102 0.26186 0.0255 3e-3 -0.2092 0.15076-0.3803 0.32934-0.3803 0.18626 0 0.24236 0.2594 0.13159 0.6084-0.11076 0.349-0.0547 0.6084 0.1316 0.6084 0.17858 0 0.32468-0.2134 0.32468-0.4742 0-0.2609 0.13689-0.3897 0.30419-0.2863s0.30418-0.0838 0.30418-0.416c0-0.7029 0.71446-0.9316 1.907-0.6104 0.50416 0.1358 0.77175 0.1126 0.66647-0.0578-0.10233-0.1656 0.65115-0.2846 1.8013-0.2846 1.0875 0 2.0676 0.1462 2.178 0.3249s0.37561 0.2579 0.58926 0.1759c0.21364-0.082 0.5328-0.0047 0.70925 0.1717 0.17741 0.1774 0.56788 0.2184 0.87357 0.0917 0.30403-0.1261 1.2345-0.2906 2.0678-0.3656s1.6672-0.2626 1.8531-0.417c0.18594-0.1543 0.42695-0.1916 0.53558-0.083 0.31896 0.319-0.42444 1.0109-1.1272 1.0492-0.51954 0.0284-0.54145 0.0629-0.11112 0.1751 0.29483 0.0769 0.45785 0.2664 0.36228 0.421-0.28699 0.4644 0.39137 0.3169 0.90503-0.1968 0.52841-0.5284 2.6403-0.7559 3.8241-0.412 0.53856 0.1565 0.22789 0.2302-1.0646 0.2526-1.4489 0.0251-2.0843 0.2038-3.0824 0.8668-1.0278 0.6828-1.1835 0.9041-0.85286 1.2122 0.22246 0.2073 0.61715 0.2953 0.8771 0.1956 0.25994-0.0998 0.47262-0.0298 0.47262 0.1554s-0.22877 0.3367-0.50837 0.3367c-0.27961 0-0.73891 0.2086-1.0207 0.4636-0.63113 0.5712-1.5128 0.282-1.5128-0.4961 0-0.3168-0.19554-0.5759-0.43455-0.5759-0.6035 0-1.5126 0.9534-1.1328 1.1881 0.17473 0.108-0.0729 0.6908-0.58589 1.3788-0.48873 0.6554-0.89821 0.9962-0.90997 0.7573-0.0129-0.2613-0.12555-0.192-0.28281 0.174-0.35978 0.8372-0.35978 1.1349 0 0.9125 0.2566-0.1586 0.4939 1.7561 0.33267 2.6842-0.0239 0.138 0.0812 0.1737 0.23358 0.0795 0.33171-0.205 0.65284 0.7421 0.8163 2.4075 0.0882 0.8986 0.048 1.0577-0.15391 0.6083-0.15033-0.3346-0.28294-0.9163-0.2947-1.2927-0.0257-0.8216-0.62975-0.9312-0.62975-0.1143 0 0.3135 0.22242 1.1691 0.49426 1.9011 0.27184 0.7321 0.47808 1.6466 0.4583 2.0322-0.0234 0.4558 0.0862 0.6256 0.3132 0.4853 0.21236-0.1312 0.26629-0.0817 0.13764 0.1265-0.29458 0.4766 0.47564 1.8353 1.756 3.0977 1.1121 1.0965 1.3854 1.8019 0.71891 1.856-0.20912 0.017-0.89039 0.0775-1.5139 0.1344-0.62354 0.0569-1.206-0.0135-1.2944-0.1565zm-2.2868-2.4422c0-0.1673-0.21341-0.3042-0.47423-0.3042-0.26083 0-0.38964 0.1369-0.28624 0.3042s0.3168 0.3042 0.47423 0.3042 0.28624-0.1369 0.28624-0.3042zm-2.6589-15.818c0.31102 0 0.48089-0.1369 0.37749-0.3042-0.26323-0.4259 0.25822-0.3805 0.69963 0.0609 0.28391 0.2839 0.36502 0.212 0.36502-0.3233 0-0.5393-0.14825-0.6677-0.68441-0.5932-0.51424 0.0715-0.70859-0.075-0.78162-0.5892-0.1333-0.9386-0.67178-0.8696-0.59351 0.076 0.0346 0.4183 0.16996 0.7605 0.30078 0.7605 0.49937 0 0.20954 0.5448-0.37054 0.6965-0.3346 0.0875-0.60837 0.3361-0.60837 0.5526 0 0.306 0.0811 0.3124 0.36503 0.0284 0.20076-0.2007 0.61949-0.365 0.9305-0.365zm2.2937-0.9886c-0.46628-1.3821-0.54739-1.4009-0.54739-0.1267 0 0.7708 0.13605 1.1153 0.44045 1.1153 0.36255 0 0.38147-0.1748 0.10694-0.9886zm4.9436-0.1761c-0.85125-0.1275-1.6269 0.1641-1.4024 0.5273 0.10189 0.1648 0.56175 0.1345 1.1217-0.0739 0.83858-0.3122 0.87124-0.365 0.28075-0.4534zm-8.5328-0.3383c0-0.4107-0.55451-0.6955-0.91752-0.4711-0.17003 0.1051-0.23039 0.3185-0.13414 0.4742 0.22835 0.3695 1.0517 0.3671 1.0517-0.0031zm3.4031-1.4424c-0.21958-0.0879-0.48194-0.0771-0.58302 0.024s0.0786 0.1729 0.39924 0.1597c0.35436-0.0146 0.42644-0.0866 0.18378-0.1837zm11.426 21.286c0.37643-0.0725 0.99241-0.0725 1.3688 0 0.37642 0.0725 0.0684 0.1318-0.68442 0.1318-0.75286 0-1.0608-0.0593-0.68442-0.1318zm-16.836-1.8748c0.0164-0.4126 0.21533-0.8119 0.44201-0.8873 0.29799-0.0991 0.3555 0.0414 0.20764 0.5073-0.12113 0.3816-0.0721 0.6443 0.12017 0.6443 0.17858 0 0.32469 0.1284 0.32469 0.2853s-0.25298 0.2662-0.56218 0.2429c-0.39251-0.0295-0.55317-0.2687-0.53233-0.7925zm33.718 0.459c-0.84884-0.4204-0.8935-0.8084-0.0749-0.6507 0.79432 0.1529 1.2156 0.4226 1.2156 0.7782 0 0.3455-0.23975 0.3187-1.1407-0.1275zm-13.248-0.1186c-0.35634-0.6352-0.49643-1.9012-0.21037-1.9012 0.17463 0 0.44855-0.3446 0.60871-0.7659 0.25647-0.6746 1.3377-1.3634 2.14-1.3634 0.15255 0 0.49765 0.3362 0.76688 0.7471 0.56362 0.8602 0.32803 1.6187-0.3325 1.0705-0.32866-0.2728-0.4523-0.1224-0.61578 0.749-0.28993 1.5455-0.89111 1.8165-0.65322 0.2944 0.16885-1.0804 0.14619-1.1353-0.25016-0.6065-0.25005 0.3337-0.35974 0.8848-0.25732 1.2928 0.14363 0.5723 0.0567 0.7113-0.44488 0.7113-0.34286 0-0.68099-0.1026-0.75138-0.2281zm4.8577-0.8872c-0.33233-0.3324-0.23008-1.014 0.15209-1.014 0.19519 0 0.26482 0.0901 0.15473 0.2002-0.11008 0.1101-0.0477 0.3838 0.13864 0.6083 0.33825 0.4076-0.0598 0.5911-0.44546 0.2055zm-16.012-1.4479c-0.45201-1.1888-0.36255-1.376 0.17956-0.3757 0.25735 0.4749 0.39258 0.9387 0.30052 1.0308-0.0921 0.0921-0.3081-0.2027-0.48008-0.6551zm19.62 0.4483c-0.25049-0.4053 1.0007-1.511 1.7259-1.5252 0.79844-0.0156 2.0676 0.6506 2.0676 1.0853 0 0.3051-0.18124 0.2949-0.83651-0.0469-1.0984-0.573-1.2822-0.5561-2.0776 0.1911-0.44665 0.4196-0.74146 0.5188-0.87932 0.2957zm-2.3953-0.894c0.2566-1.0765 0.37618-1.2497 0.86292-1.2497 0.45564 0 0.90412 1.0465 0.63505 1.4819-0.092 0.1488-0.5092 0.336-0.92716 0.4159-0.6868 0.1313-0.74173 0.0689-0.57081-0.6481zm-23.853-0.0824c-0.20704-0.207-0.37643-0.5837-0.37643-0.837 0-0.3986 0.0662-0.3945 0.49158 0.0309 0.27038 0.2704 0.43977 0.6471 0.37643 0.8371-0.0832 0.2495-0.21973 0.2409-0.49158-0.031zm37.261-0.4543c0.20594-0.0833 0.61659-0.0883 0.91255-0.0112 0.29597 0.0771 0.12746 0.1453-0.37444 0.1515-0.50191 0.0062-0.74406-0.0569-0.53811-0.1403zm-42.301-1.5241c-0.30334-0.3034-0.24477-1.38 0.0647-1.1888 0.34868 0.2155 0.65557 1.3915 0.36312 1.3915-0.12376 0-0.31627-0.0912-0.4278-0.2027zm28.013-1.3913c-0.77146-0.8767-1.356-1.6407-1.299-1.6976 0.26335-0.2634 1.382 0.6496 1.9785 1.6148 0.47837 0.774 0.88408 1.0744 1.4721 1.0899 0.72695 0.0191 0.74818 0.0486 0.20333 0.2828-0.3346 0.1437-0.68573 0.271-0.78028 0.2828-0.0945 0.0117-0.80311-0.696-1.5746-1.5727zm-23.763-0.079c0.11087-0.2889-4e-3 -0.4563-0.31373-0.4563-0.26885 0-0.48882-0.1028-0.48882-0.2285s0.71863-0.2468 1.597-0.2691c0.87834-0.0222 1.4259 0.0236 1.2167 0.1019-0.20912 0.0782-0.38023 0.3215-0.38023 0.5406 0 0.4109-0.6434 0.7677-1.3842 0.7677-0.25 0-0.35052-0.1859-0.24676-0.4563zm-3.6416-0.659c-0.11153-0.1116-0.19102-0.5564-0.17664-0.9886 0.0257-0.7716 0.031-0.7696 0.29412 0.1114 0.27651 0.9258 0.23572 1.2304-0.11748 0.8772zm35.843-1.014c-0.1034-0.1673-0.043-0.3042 0.13414-0.3042 0.17718 0 0.32214 0.1369 0.32214 0.3042s-0.0604 0.3042-0.13414 0.3042c-0.0738 0-0.21874-0.1369-0.32214-0.3042zm-33.004-0.7425c0-0.5343 0.18252-0.613 0.44328-0.1911 0.0963 0.1558 0.0359 0.3692-0.13414 0.4743-0.17003 0.105-0.30914-0.0224-0.30914-0.2832zm18.801-2.3315c-0.47744-0.5358-0.74464-1.1145-0.64022-1.3867 0.35531-0.9259 1.5287-1.8252 2.2399-1.7166 0.90674 0.1383 1.1694 0.3978 0.40275 0.3978-1.0323 0-1.988 0.8898-1.8848 1.755 0.0514 0.431 0.24657 0.8338 0.43377 0.8952 0.21846 0.0716 0.28421-0.1821 0.18359-0.7085-0.31291-1.6369 2.1144-2.2455 3.6586-0.9174 0.46008 0.3957 0.83651 0.8184 0.83651 0.9393s-0.42116-0.1346-0.9359-0.5677c-0.51474-0.4332-1.1397-0.7875-1.3888-0.7875-0.73052 0-1.6297 0.5933-1.6297 1.0753 0 0.5819 0.49378 0.5746 0.71838-0.0107 0.26186-0.6824 1.6112-0.5553 2.1414 0.2017 0.56183 0.8021 0.38092 1.1671-0.57843 1.1671-0.39851 0-0.79068 0.107-0.87148 0.2378-0.0808 0.1307-0.53376 0.2619-1.0066 0.2916-0.61471 0.0385-1.0931-0.2081-1.6791-0.8657zm4.7914 0.6689c-0.0937-0.1517 0.10349-0.2042 0.43833-0.1166 0.71027 0.1857 0.80005 0.3924 0.17046 0.3924-0.24108 0-0.51503-0.1241-0.60879-0.2758zm-17.052-0.3326c-0.1034-0.1673-0.043-0.3042 0.13414-0.3042 0.17717 0 0.32213 0.1369 0.32213 0.3042s-0.0604 0.3042-0.13414 0.3042c-0.0738 0-0.21874-0.1369-0.32213-0.3042zm18.403-0.6216c0-0.1746-0.33739-0.6813-0.74976-1.1261-0.41237-0.4447-0.67969-0.8786-0.59403-0.9643 0.20255-0.2025 1.9522 1.6681 1.9522 2.0872 0 0.1763-0.13688 0.3206-0.30418 0.3206s-0.30419-0.1428-0.30419-0.3174zm1.597-1.1007c-0.20913-0.0844-0.38023-0.2936-0.38023-0.4649 0-0.1797 0.22503-0.2159 0.53232-0.0856 0.29278 0.1241 1.0114 0.3283 1.597 0.4538l1.0646 0.2281-1.2167 0.011c-0.66921 6e-3 -1.3878-0.0581-1.597-0.1424zm-1.2167-3.6503c-0.20913-0.0844-0.38024-0.2956-0.38024-0.4695 0-0.2074 0.1404-0.1995 0.40822 0.0227 0.22452 0.1864 0.49829 0.2487 0.60837 0.1387 0.11009-0.1101 0.20016-0.0405 0.20016 0.1547 0 0.3718-0.20296 0.4091-0.83651 0.1534zm-3.27-0.8512c-2.0841-0.3321-3.9797-1.0467-2.8317-1.0674 0.28291-0.0051 0.58721 0.1086 0.67623 0.2527 0.089 0.144 1.0629 0.3342 2.1643 0.4226 1.8165 0.1458 2.5891 0.363 2.2472 0.6319-0.0697 0.0548-1.0849-0.0531-2.256-0.2398zm-5.0191-1.667c0-0.1772 0.13688-0.3222 0.30418-0.3222 0.16731 0 0.30419 0.0604 0.30419 0.1342 0 0.0737-0.13688 0.2187-0.30419 0.3221-0.1673 0.1034-0.30418 0.043-0.30418-0.1341zm1.9075 0.1024c0.10107-0.1011 0.36343-0.1119 0.58302-0.024 0.24266 0.0971 0.17058 0.1692-0.18378 0.1838-0.32066 0.0132-0.50032-0.0587-0.39924-0.1598zm-21.375-1.3371c0.58974-0.3812 0.91256-0.3812 0.91256 0 0 0.1673-0.30799 0.3021-0.68442 0.2995-0.55345-0.0038-0.5971-0.0611-0.22814-0.2995zm18.167 0.1187c-0.10274-0.1028-0.57073-0.2236-1.04-0.2686-1.128-0.108-1.9178-0.4509-1.9178-0.8325 0-0.1699 0.22014-0.1262 0.4892 0.0971 0.41578 0.3451 0.55323 0.3184 0.91597-0.1776 0.41712-0.5705 0.43741-0.5685 0.89689 0.0875 0.51746 0.7388 1.1185 0.9151 0.86469 0.2537-0.11836-0.3084 0.0464-0.378 0.63071-0.2663 0.435 0.0832 0.75093 0.1698 0.70207 0.1926-0.0489 0.0228-0.37371 0.2798-0.72189 0.5711-0.34819 0.2914-0.71713 0.4457-0.81988 0.343zm-11.088-0.9109c0.10108-0.1011 0.36344-0.1119 0.58303-0.024 0.24265 0.0971 0.17058 0.1692-0.18378 0.1838-0.32066 0.0132-0.50032-0.0587-0.39925-0.1598zm4.954-0.5006c0.28588-0.9301 0.39084-1.0064 0.80908-0.5881 0.27204 0.272 0.27314 0.3599 4e-3 0.3599-0.19551 0-0.27669 0.2054-0.18039 0.4563 0.11268 0.2936-6e-3 0.4563-0.33423 0.4563-0.38773 0-0.45909-0.1634-0.29894-0.6844zm-6.7791 0.1964c0.10108-0.101 0.36344-0.1119 0.58302-0.024 0.24266 0.0971 0.17058 0.1692-0.18378 0.1838-0.32066 0.0132-0.50032-0.0587-0.39924-0.1598zm3.9562-1.0254c-0.0553-0.7347 0.10839-0.771 0.71972-0.1596 0.25095 0.2509 0.38925 0.4563 0.30733 0.4563-0.0819 0-0.33607 0.0718-0.5648 0.1595-0.26052 0.1-0.43319-0.0704-0.46225-0.4562zm-9.5957-1.2487c0.10756-0.4113 0.24544-0.5492 0.32138-0.3213 0.0731 0.2194-0.0116 0.5436-0.18838 0.7203-0.22573 0.2258-0.26532 0.107-0.133-0.399zm1.9803-0.2695c-0.28142-0.4548-0.7044-0.6186-1.597-0.6186-1.1917 0-1.2142-0.0203-1.2142-1.0972 0-0.8755 0.0972-1.0599 0.48116-0.9126 0.26463 0.1016 0.64106 0.189 0.83651 0.1943 0.19544 0.0054 0.1182 0.1898-0.17165 0.4099-0.48738 0.3701-0.46945 0.4264 0.23839 0.7489 0.62342 0.2841 0.79775 0.2645 0.93978-0.1056 0.18137-0.4727 0.92952-0.5875 1.7574-0.2698 0.86014 0.33 0.52507 0.8127-0.4314 0.6214-0.8501-0.17-1.3258 0.2222-0.57365 0.4729 0.18639 0.0622 0.28906 0.352 0.22813 0.644-0.0996 0.4777-0.14916 0.4689-0.49357-0.0876zm2.1382-1.1066c0.10108-0.1011 0.36344-0.1119 0.58302-0.024 0.24266 0.0971 0.17058 0.1692-0.18377 0.1838-0.32067 0.0132-0.50033-0.0587-0.39925-0.1598zm3.0075-1.033c0-0.4182 0.0691-0.5893 0.15343-0.3802 0.0844 0.2091 0.0844 0.5513 0 0.7605-0.0844 0.2091-0.15343 0.038-0.15343-0.3803z"/>
</svg>
