<?xml version="1.0" encoding="UTF-8"?>
<svg width="300" height="105" version="1.1" viewBox="0 0 300 105" xmlns="http://www.w3.org/2000/svg" xmlns:xlink="http://www.w3.org/1999/xlink">
 <text x="62.955002" y="97.154671" display="block" fill="#000000" font-family="'Liberation Sans',Arial,sans-serif" stroke-width="1pt" text-anchor="middle" style="line-height:0%" xml:space="preserve"><tspan x="62.955002" y="97.154671" font-size="6px" style="line-height:1.1">Image originale</tspan></text>
 <text x="151.3282" y="97.37867" display="block" fill="#000000" font-family="'Liberation Sans',Arial,sans-serif" font-size="6px" stroke-width="1pt" text-anchor="middle" style="line-height:0%" xml:space="preserve"><tspan x="151.3282" y="97.37867" style="line-height:1.1">Arêtes détectées</tspan><tspan x="151.3282" y="103.37867" style="line-height:1.1">Rempli, sans contour</tspan></text>
 <text x="238.3732" y="97.37867" display="block" fill="#000000" font-family="'Liberation Sans',Arial,sans-serif" font-size="6px" stroke-width="1pt" text-anchor="middle" style="line-height:0%" xml:space="preserve"><tspan x="238.3732" y="97.37867" style="line-height:1.1">Arêtes détectées</tspan><tspan x="238.3732" y="103.37867" style="line-height:1.1">Contour, non rempli</tspan></text>
 <image x="24.472" y="3.6133e-5" width="76.965" height="91.143" xlink:href="tux.png"/>
 <path d="m132.66 89.101c-1.2208-0.5539-3.4994-1.3627-5.0635-1.7974-9.1856-2.5526-12.025-3.4276-12.591-3.8802-0.82809-0.66204-0.79309-3.1694 0.0792-5.6757 0.4703-1.3513 0.61045-3.2639 0.43101-5.8819-0.23881-3.4842-0.15582-3.9896 0.81451-4.9599 0.78355-0.78356 1.7078-1.0804 3.3639-1.0804 3.1235 0 4.0458-1.1354 4.0458-4.9806 0-2.4394 0.34592-3.5851 2.0969-6.9453 1.1533-2.2132 2.4354-5.1634 2.8491-6.5558 1.2859-4.3279 2.2913-6.2979 4.6025-9.0182 1.2279-1.4453 2.916-3.7126 3.7513-5.0385l1.5187-2.4107-0.2668-9.8334c-0.25243-9.3032-0.20664-9.9816 0.84939-12.583 2.0287-4.9984 5.8026-7.4469 11.478-7.4469 6.4754 0 11.636 3.1302 14.058 8.5268 1.1058 2.4641 1.4038 4.1031 1.7528 9.6406 0.41692 6.6165 0.44039 6.7112 2.8354 11.441 1.3283 2.6231 3.5391 6.0538 4.913 7.6238 2.8403 3.2457 3.8161 5.0062 5.7275 10.333 1.532 4.2694 2.163 10.332 1.4112 13.559-0.37967 1.6302-0.33513 2.3477 0.18856 3.0381 0.37708 0.49711 0.69285 1.5385 0.70172 2.3141 0.0219 1.9204 1.2667 3.673 3.8907 5.4784 1.7347 1.1935 2.2016 1.8229 2.2016 2.968 0 2.4635-0.48163 2.9967-4.9408 5.4701-2.3752 1.3175-5.3683 3.3941-6.6512 4.6146-3.433 3.2661-5.0271 4.1061-7.7961 4.1083-2.718 0.0021-5.837-1.3672-6.8198-2.9941-0.60506-1.0016-1.0658-1.0548-9.1255-1.0548h-8.4883l-1.8328 1.5108c-3.3791 2.7853-6.2264 3.2161-9.985 1.5107zm8.7591-3.2123 2.2389-1.8346 19.071-0.0088 0.0702-4.0817 0.0702-4.0817-1.0829 0.98543c-3.6843 3.3527-9.6741 5.4357-14.471 5.0325-1.5485-0.13018-3.2404-0.41676-3.7599-0.63685-0.78476-0.33247-0.88985-0.22783-0.62122 0.61856 0.21041 0.66292-0.0438 1.4413-0.72785 2.2286-0.98085 1.1289-1.0318 1.1388-0.76148 0.14729 0.15934-0.58441-0.0448-1.7074-0.45367-2.4954-0.40886-0.78809-0.62438-1.6254-0.47892-1.8608 0.43148-0.69815-0.91765-3.2401-1.9847-3.7395-0.54337-0.25429-2.2291-2.5131-3.7461-5.0195-3.515-5.8078-6.0092-8.3894-7.7506-8.0222-0.69623 0.14681-1.7248 0.98413-2.2856 1.8607-0.83416 1.3038-1.4654 1.6575-3.4686 1.9441-1.3468 0.19266-2.7712 0.47401-3.1653 0.62521-1.2081 0.46359-1.665 2.5496-1.2417 5.6688 0.29168 2.1494 0.19173 3.6935-0.36602 5.6541-0.52866 1.8584-0.60435 2.8601-0.24338 3.2211 0.28815 0.28815 3.5858 1.2955 7.328 2.2385 3.7422 0.94302 7.8136 2.1851 9.0475 2.7602 3.2193 1.5005 5.937 1.1279 8.7829-1.2041zm-4.7673-0.01238c0-0.11174 0.7975-0.6737 1.7722-1.2488 1.3878-0.81885 1.7722-0.88847 1.7722-0.321 0 0.39854-0.44074 0.96051-0.97942 1.2488-0.96546 0.51669-2.565 0.71687-2.565 0.321zm38.252-0.59433c1.8302-1.5526 4.8524-3.6258 6.716-4.6072 3.6937-1.9452 5.6669-3.5235 5.6669-4.533 0-0.35582-0.9907-1.3286-2.2016-2.1616-2.478-1.7049-3.8746-3.5547-3.8746-5.132 0-0.58509-0.25226-1.5351-0.56056-2.1112-0.535-0.99964-0.64778-0.94616-2.4726 1.1726-1.9048 2.2116-1.9248 2.22-5.3072 2.22-2.9572 0-3.5201-0.15419-4.3632-1.1954-0.53238-0.65747-0.96796-1.9398-0.96796-2.8495 0-3.455-2.7311-3.0173-3.1223 0.50045-0.0929 0.83547-0.39681 1.4051-0.6753 1.2659-0.6075-0.30375-0.35684-3.549 0.33987-4.4002 0.27126-0.3314 0.97399-0.67318 1.5616-0.75952 3.1762-0.46669 1.9372-12.992-1.8402-18.602-0.6701-0.99516-1.4964-2.7208-1.8363-3.8348s-1.4359-3.6204-2.4356-5.5699c-1.4356-2.7996-1.8483-4.2361-1.9634-6.8357-0.0802-1.8102-0.18092-3.6331-0.22379-4.0508-0.0429-0.41774 0.0834-1.2152 0.28064-1.7722 0.19723-0.55699 0.01-0.41468-0.41604 0.31623-1.3748 2.3586-4.0169 2.3556-4.9588-0.0055-0.30243-0.75814-0.6283-1.0531-0.76294-0.69046-0.30565 0.82316-4.0215 0.82735-4.5297 0.0051-0.26178-0.42356-0.48395-0.21762-0.68285 0.63294-0.40964 1.7518-2.6417 2.0002-3.7503 0.41749-0.44466-0.63485-0.80123-0.93269-0.79238-0.66185 9e-3 0.27084 0.33604 0.91476 0.72707 1.4309 0.51811 0.68392 0.57937 1.2846 0.22583 2.2145-0.50091 1.3175-0.12923 1.853 2.2391 3.2259 1.2986 0.75281 0.67007 1.1773-0.67631 0.45677-2.0234-1.0829-1.5628-0.16962 0.87675 1.7383 2.8772 2.2502 4.3582 2.2159 8.2708-0.19157 1.3826-0.8507 2.7382-1.5467 3.0125-1.5467 1.1063 0 0.34252 0.85473-2.3755 2.6583-4.1017 2.7218-8.0442 2.6035-10.406-0.31244-0.87162-1.076-0.87489-1.074-0.88611 0.54819-6e-3 0.89551-0.7946 3.0602-1.752 4.8103-0.95741 1.7502-1.8316 4.12-1.9427 5.2664-0.11106 1.1463-0.70701 2.7936-1.3243 3.6605-2.4935 3.5018-4.2548 8.305-4.4975 12.265l-0.23482 3.8318 4.623 3.6866c2.5426 2.0276 4.962 4.1707 5.3764 4.7623 1.1541 1.6478 0.93027 3.6834-0.55671 5.0622l-1.3101 1.2148 1.3924 1.0953c1.8608 1.4637 3.1392 1.7298 7.1848 1.4955 4.4198-0.25598 7.582-1.7876 11.587-5.6123l3.113-2.9728 0.36012 2.6184c0.43637 3.1728-0.16511 11.231-0.80862 10.833-1.0021-0.61935-0.38626 1.4146 0.78211 2.5829 1.02 1.02 1.7451 1.2429 4.044 1.2429 2.6644 0 2.9636-0.1378 6.1287-2.8229zm-33.695-12.607c0-0.34188-1.3102-1.7529-2.9115-3.1356-3.419-2.9522-4.8674-3.8754-3.3732-2.1501 0.58156 0.67152 1.5875 2.1324 2.2355 3.2463 1.8649 3.2061 2.5736 3.8856 3.3665 3.2275 0.37547-0.31161 0.68267-0.84628 0.68267-1.1882zm35.746-6.9738c1.7991-1.8941 2.1192-2.584 2.416-5.2073 0.18817-1.6631 0.12157-4.1631-0.14799-5.5554-1.032-5.3304-4.0494-12.319-6.121-14.178-1.8981-1.7026-5.1126-6.7866-6.9024-10.917-1.3736-3.1697-1.7006-4.5837-1.7088-7.3882-0.0172-5.9356-0.85931-10.132-2.6614-13.262-1.3809-2.3983-2.1252-3.0964-4.5673-4.2833-7.0648-3.4339-12.972-1.7826-15.868 4.4355-0.8315 1.7856-1.1724 3.3891-1.1348 5.3374 0.0296 1.5317 0.16581 2.3292 0.30272 1.7722 0.41056-1.6703 1.1882-2.2786 2.9129-2.2786 1.8178 0 4.2657 1.8911 4.393 3.3937 0.0424 0.50066 0.0998 1.249 0.1275 1.6631s0.44791 0.82933 0.9338 0.9229c0.61797 0.11901 0.79402-0.06287 0.58587-0.6053-0.47285-1.2322 0.74467-4.204 2.0811-5.0797 1.5603-1.0223 4.254-1.0274 5.7055-0.01073 2.1876 1.5323 2.6838 3.346 2.5041 9.1542-0.16223 5.245-0.12362 5.4663 1.5234 8.7316 0.92943 1.8426 2.0488 4.5789 2.4874 6.0807 0.43863 1.5018 1.4623 3.7788 2.2749 5.0601 2.6176 4.1276 3.4862 8.1665 3.4398 15.996-0.0356 6.0237 0.08 7.0731 0.87595 7.9527 1.4512 1.6035 4.0228 0.92168 6.5471-1.7359zm-0.47045-2.2388c-0.18567-0.18566-0.33757-0.57302-0.33757-0.8608 0-0.31728 0.23584-0.28738 0.59918 0.07596 0.32955 0.32955 0.48145 0.71691 0.33757 0.86079-0.14389 0.14389-0.41353 0.10971-0.59918-0.07595zm1.4767-1.1135c-0.21813-0.35292-0.25984-0.77842-0.0927-0.94556 0.45317-0.45316 0.94726 0.21333 0.7025 0.94761-0.17151 0.51454-0.29078 0.51414-0.60979-2e-3zm-16.273-31.179c-0.95907-1.4637-0.79598-3.5601 0.28055-3.6064 2.2778-0.09805 4.3211 2.26 3.6647 4.2292-0.37767 1.133-3.0736 0.70744-3.9452-0.62278zm1.8924-1.4049c-0.36333-0.36334-0.59918-0.39323-0.59918-0.07595 0 0.67587 0.59882 1.2747 0.93675 0.93675 0.14389-0.14389-8e-3 -0.53125-0.33757-0.8608zm-8.3632-19.976c-0.18566-0.18566-0.33757-1.211-0.33757-2.2786 0-1.8673 0.0649-1.941 1.7102-1.941 0.94062 0 1.9375 0.28482 2.2153 0.63293 0.70013 0.87735 0.45607 2.8983-0.41671 3.4506-0.85192 0.53913-2.6894 0.61796-3.1713 0.13605zm2.1942-2.2241c0-0.26205-0.22786-0.47646-0.50635-0.47646-0.2785 0-0.50636 0.35523-0.50636 0.78941 0 0.43417 0.22786 0.64858 0.50636 0.47646 0.27849-0.17211 0.50635-0.52735 0.50635-0.78941zm-25.201 56.037c-1.4474-1.6485-1.4976-1.8666-1.2538-5.4433 0.26127-3.8325 0.7429-5.3691 3.866-12.334 0.99905-2.2279 1.8192-4.4785 1.8226-5.0012 3e-3 -0.5227 0.91761-2.6015 2.0316-4.6195 2.491-4.5126 2.6675-5.5638 0.26397-1.5724-0.96879 1.6088-2.6444 3.9879-3.7236 5.2869-2.3874 2.8736-2.7564 3.5597-4.449 8.2716-0.73311 2.0409-2.1018 5.2431-3.0415 7.116-2.1105 4.2061-2.2553 5.9263-0.47019 5.5851 0.95385-0.18234 1.7974 0.29651 3.671 2.0839 2.8932 2.76 3.3532 2.9847 1.2829 0.62677zm-3.6606-4.9496c0-1.8438 0.22104-1.777 0.69794 0.21098 0.19832 0.82664 0.12438 1.3925-0.18194 1.3925-0.2838 0-0.516-0.72155-0.516-1.6034zm12.501-30.17c-0.12736-0.48736-0.23157-0.08861-0.23157 0.88611 0 0.97473 0.10421 1.3735 0.23157 0.88611 0.12736-0.48736 0.12736-1.2849 0-1.7722zm-0.54947-5.053c-0.16826-0.16825-0.28793 0.13081-0.26595 0.66459 0.0243 0.58987 0.14428 0.70985 0.30592 0.30592 0.14627-0.36553 0.12828-0.80225-0.04-0.97051zm3.3003-3.0107c-0.44131-0.75891-0.54012-0.78078-0.55276-0.12237-0.0164 0.85273 0.51607 1.6205 0.87493 1.2617 0.11836-0.11836-0.0266-0.63104-0.32217-1.1393zm11.782 0.93845c0.14141-0.22881-0.18693-0.79623-0.72965-1.2609-0.92625-0.79308-0.98676-0.78826-0.98676 0.07847 0 1.4028 1.1083 2.1663 1.7164 1.1824zm-9.5121-2.4849c-0.16825-0.16826-0.28793 0.1308-0.26594 0.66458 0.0243 0.58987 0.14428 0.70985 0.30592 0.30592 0.14627-0.36552 0.12828-0.80225-0.04-0.9705zm10.8-1.4392c-0.63537-0.67633-1.6102-1.2297-2.1664-1.2297-1.0985 0-2.8631 1.3564-2.8631 2.2007 0 0.28855 0.28482 0.1684 0.63294-0.26702 1.4249-1.7822 4.8794-1.0835 4.9769 1.0066 0.0272 0.58292 0.1256 0.64319 0.30744 0.18827 0.1471-0.36802-0.25239-1.2225-0.88777-1.8988zm-12.943-0.21698c0.34215 0 0.9415 0.28482 1.3319 0.63294 0.60384 0.53845 0.6097 0.50066 0.0393-0.25318-0.36879-0.48736-1.0528-0.88611-1.52-0.88611-0.90736 0-2.0647 0.92851-2.0647 1.6565 0 0.24268 0.35806 0.08318 0.79569-0.35445s1.0756-0.79569 1.4178-0.79569z"/>
 <path d="m219.7 89.101c-1.2208-0.5539-3.4994-1.3627-5.0635-1.7974-9.1856-2.5526-12.025-3.4276-12.591-3.8802-0.82809-0.66204-0.79309-3.1694 0.0792-5.6757 0.4703-1.3513 0.61045-3.2639 0.43101-5.8819-0.23881-3.4842-0.15582-3.9896 0.81451-4.9599 0.78355-0.78356 1.7078-1.0804 3.3639-1.0804 3.1235 0 4.0458-1.1354 4.0458-4.9806 0-2.4394 0.34592-3.5851 2.0969-6.9453 1.1533-2.2132 2.4354-5.1634 2.8491-6.5558 1.2859-4.3279 2.2913-6.2979 4.6025-9.0182 1.2279-1.4453 2.916-3.7126 3.7513-5.0385l1.5187-2.4107-0.2668-9.8334c-0.25243-9.3032-0.20664-9.9816 0.84939-12.583 2.0287-4.9984 5.8026-7.4469 11.478-7.4469 6.4754 0 11.636 3.1302 14.058 8.5268 1.1058 2.4641 1.4038 4.1031 1.7528 9.6406 0.41692 6.6165 0.44039 6.7112 2.8354 11.441 1.3283 2.6231 3.5391 6.0538 4.913 7.6238 2.8403 3.2457 3.8161 5.0062 5.7275 10.333 1.532 4.2694 2.163 10.332 1.4112 13.559-0.37967 1.6302-0.33513 2.3477 0.18856 3.0381 0.37708 0.49711 0.69285 1.5385 0.70172 2.3141 0.0219 1.9204 1.2667 3.673 3.8907 5.4784 1.7347 1.1935 2.2016 1.8229 2.2016 2.968 0 2.4635-0.48163 2.9967-4.9408 5.4701-2.3752 1.3175-5.3683 3.3941-6.6512 4.6146-3.433 3.2661-5.0271 4.1061-7.7961 4.1083-2.718 0.0021-5.837-1.3672-6.8198-2.9941-0.60506-1.0016-1.0658-1.0548-9.1255-1.0548h-8.4883l-1.8328 1.5108c-3.3791 2.7853-6.2264 3.2161-9.985 1.5107zm8.7591-3.2123 2.2389-1.8346 19.071-0.0088 0.0702-4.0817 0.0702-4.0817-1.0829 0.98543c-3.6843 3.3527-9.6741 5.4357-14.471 5.0325-1.5485-0.13018-3.2404-0.41676-3.7599-0.63685-0.78476-0.33247-0.88985-0.22783-0.62122 0.61856 0.21041 0.66292-0.0438 1.4413-0.72785 2.2286-0.98085 1.1289-1.0318 1.1388-0.76148 0.14729 0.15934-0.58441-0.0448-1.7074-0.45367-2.4954-0.40886-0.78809-0.62438-1.6254-0.47892-1.8608 0.43148-0.69815-0.91765-3.2401-1.9847-3.7395-0.54337-0.25429-2.2291-2.5131-3.7461-5.0195-3.515-5.8078-6.0092-8.3894-7.7506-8.0222-0.69623 0.14681-1.7248 0.98413-2.2856 1.8607-0.83416 1.3038-1.4654 1.6575-3.4686 1.9441-1.3468 0.19266-2.7712 0.47401-3.1653 0.62521-1.2081 0.46359-1.665 2.5496-1.2417 5.6688 0.29168 2.1494 0.19173 3.6935-0.36602 5.6541-0.52866 1.8584-0.60435 2.8601-0.24338 3.2211 0.28815 0.28815 3.5858 1.2955 7.328 2.2385 3.7422 0.94302 7.8136 2.1851 9.0475 2.7602 3.2193 1.5005 5.937 1.1279 8.7829-1.2041zm-4.7673-0.01238c0-0.11174 0.7975-0.6737 1.7722-1.2488 1.3878-0.81885 1.7722-0.88847 1.7722-0.321 0 0.39854-0.44074 0.96051-0.97942 1.2488-0.96546 0.51669-2.565 0.71687-2.565 0.321zm38.252-0.59433c1.8302-1.5526 4.8524-3.6258 6.716-4.6072 3.6937-1.9452 5.6669-3.5235 5.6669-4.533 0-0.35582-0.9907-1.3286-2.2016-2.1616-2.478-1.7049-3.8746-3.5547-3.8746-5.132 0-0.58509-0.25226-1.5351-0.56056-2.1112-0.535-0.99964-0.64778-0.94616-2.4726 1.1726-1.9048 2.2116-1.9248 2.22-5.3072 2.22-2.9572 0-3.5201-0.15419-4.3632-1.1954-0.53238-0.65747-0.96796-1.9398-0.96796-2.8495 0-3.455-2.7311-3.0173-3.1223 0.50045-0.0929 0.83547-0.39681 1.4051-0.6753 1.2659-0.6075-0.30375-0.35684-3.549 0.33987-4.4002 0.27126-0.3314 0.97399-0.67318 1.5616-0.75952 3.1762-0.46669 1.9372-12.992-1.8402-18.602-0.6701-0.99516-1.4964-2.7208-1.8363-3.8348s-1.4359-3.6204-2.4356-5.5699c-1.4356-2.7996-1.8483-4.2361-1.9634-6.8357-0.0802-1.8102-0.18092-3.6331-0.22379-4.0508-0.0429-0.41774 0.0834-1.2152 0.28064-1.7722 0.19723-0.55699 0.01-0.41468-0.41604 0.31623-1.3748 2.3586-4.0169 2.3556-4.9588-0.0055-0.30243-0.75814-0.6283-1.0531-0.76294-0.69046-0.30565 0.82316-4.0215 0.82735-4.5297 0.0051-0.26178-0.42356-0.48395-0.21762-0.68285 0.63294-0.40964 1.7518-2.6417 2.0002-3.7503 0.41749-0.44466-0.63485-0.80123-0.93269-0.79238-0.66185 9e-3 0.27084 0.33604 0.91476 0.72707 1.4309 0.51811 0.68392 0.57937 1.2846 0.22583 2.2145-0.50091 1.3175-0.12923 1.853 2.2391 3.2259 1.2986 0.75281 0.67007 1.1773-0.67631 0.45677-2.0234-1.0829-1.5628-0.16962 0.87675 1.7383 2.8772 2.2502 4.3582 2.2159 8.2708-0.19157 1.3826-0.8507 2.7382-1.5467 3.0125-1.5467 1.1063 0 0.34252 0.85473-2.3755 2.6583-4.1017 2.7218-8.0442 2.6035-10.406-0.31244-0.87162-1.076-0.87489-1.074-0.88611 0.54819-6e-3 0.89551-0.7946 3.0602-1.752 4.8103-0.95741 1.7502-1.8316 4.12-1.9427 5.2664-0.11106 1.1463-0.70701 2.7936-1.3243 3.6605-2.4935 3.5018-4.2548 8.305-4.4975 12.265l-0.23482 3.8318 4.623 3.6866c2.5426 2.0276 4.962 4.1707 5.3764 4.7623 1.1541 1.6478 0.93027 3.6834-0.55671 5.0622l-1.3101 1.2148 1.3924 1.0953c1.8608 1.4637 3.1392 1.7298 7.1848 1.4955 4.4198-0.25598 7.582-1.7876 11.587-5.6123l3.113-2.9728 0.36012 2.6184c0.43637 3.1728-0.16511 11.231-0.80862 10.833-1.0021-0.61935-0.38626 1.4146 0.78211 2.5829 1.02 1.02 1.7451 1.2429 4.044 1.2429 2.6644 0 2.9636-0.1378 6.1287-2.8229zm-33.695-12.607c0-0.34188-1.3102-1.7529-2.9115-3.1356-3.419-2.9522-4.8674-3.8754-3.3732-2.1501 0.58156 0.67152 1.5875 2.1324 2.2355 3.2463 1.8649 3.2061 2.5736 3.8856 3.3665 3.2275 0.37547-0.31161 0.68267-0.84628 0.68267-1.1882zm35.746-6.9738c1.7991-1.8941 2.1192-2.584 2.416-5.2073 0.18817-1.6631 0.12157-4.1631-0.14799-5.5554-1.032-5.3304-4.0494-12.319-6.121-14.178-1.8981-1.7026-5.1126-6.7866-6.9024-10.917-1.3736-3.1697-1.7006-4.5837-1.7088-7.3882-0.0172-5.9356-0.85931-10.132-2.6614-13.262-1.3809-2.3983-2.1252-3.0964-4.5673-4.2833-7.0648-3.4339-12.972-1.7826-15.868 4.4355-0.8315 1.7856-1.1724 3.3891-1.1348 5.3374 0.0296 1.5317 0.16581 2.3292 0.30272 1.7722 0.41056-1.6703 1.1882-2.2786 2.9129-2.2786 1.8178 0 4.2657 1.8911 4.393 3.3937 0.0424 0.50066 0.0998 1.249 0.1275 1.6631s0.44791 0.82933 0.9338 0.9229c0.61797 0.11901 0.79402-0.06287 0.58587-0.6053-0.47285-1.2322 0.74467-4.204 2.0811-5.0797 1.5603-1.0223 4.254-1.0274 5.7055-0.01073 2.1876 1.5323 2.6838 3.346 2.5041 9.1542-0.16223 5.245-0.12362 5.4663 1.5234 8.7316 0.92943 1.8426 2.0488 4.5789 2.4874 6.0807 0.43863 1.5018 1.4623 3.7788 2.2749 5.0601 2.6176 4.1276 3.4862 8.1665 3.4398 15.996-0.0356 6.0237 0.0799 7.0731 0.87595 7.9527 1.4512 1.6035 4.0228 0.92168 6.5471-1.7359zm-0.47045-2.2388c-0.18567-0.18566-0.33757-0.57302-0.33757-0.8608 0-0.31728 0.23584-0.28738 0.59918 0.07596 0.32955 0.32955 0.48145 0.71691 0.33757 0.86079-0.14389 0.14389-0.41353 0.10971-0.59918-0.07595zm1.4767-1.1135c-0.21813-0.35292-0.25984-0.77842-0.0927-0.94556 0.45317-0.45316 0.94726 0.21333 0.7025 0.94761-0.17151 0.51454-0.29078 0.51414-0.60979-2e-3zm-16.273-31.179c-0.95907-1.4637-0.79598-3.5601 0.28055-3.6064 2.2778-0.09805 4.3211 2.26 3.6647 4.2292-0.37767 1.133-3.0736 0.70744-3.9452-0.62278zm1.8924-1.4049c-0.36333-0.36334-0.59918-0.39323-0.59918-0.07595 0 0.67587 0.59882 1.2747 0.93675 0.93675 0.14389-0.14389-8e-3 -0.53125-0.33757-0.8608zm-8.3632-19.976c-0.18566-0.18566-0.33757-1.211-0.33757-2.2786 0-1.8673 0.0649-1.941 1.7102-1.941 0.94062 0 1.9375 0.28482 2.2153 0.63293 0.70013 0.87735 0.45607 2.8983-0.41671 3.4506-0.85192 0.53913-2.6894 0.61796-3.1713 0.13605zm2.1942-2.2241c0-0.26205-0.22786-0.47646-0.50635-0.47646-0.2785 0-0.50636 0.35523-0.50636 0.78941 0 0.43417 0.22786 0.64858 0.50636 0.47646 0.27849-0.17211 0.50635-0.52735 0.50635-0.78941zm-25.201 56.037c-1.4474-1.6485-1.4976-1.8666-1.2538-5.4433 0.26127-3.8325 0.7429-5.3691 3.866-12.334 0.99905-2.2279 1.8192-4.4785 1.8226-5.0012 3e-3 -0.5227 0.91761-2.6015 2.0316-4.6195 2.491-4.5126 2.6675-5.5638 0.26397-1.5724-0.96879 1.6088-2.6444 3.9879-3.7236 5.2869-2.3874 2.8736-2.7564 3.5597-4.449 8.2716-0.73311 2.0409-2.1018 5.2431-3.0415 7.116-2.1105 4.2061-2.2553 5.9263-0.47019 5.5851 0.95385-0.18234 1.7974 0.29651 3.671 2.0839 2.8932 2.76 3.3532 2.9847 1.2829 0.62677zm-3.6606-4.9496c0-1.8438 0.22104-1.777 0.69794 0.21098 0.19832 0.82664 0.12438 1.3925-0.18194 1.3925-0.2838 0-0.516-0.72155-0.516-1.6034zm12.501-30.17c-0.12736-0.48736-0.23157-0.08861-0.23157 0.88611 0 0.97473 0.10421 1.3735 0.23157 0.88611 0.12736-0.48736 0.12736-1.2849 0-1.7722zm-0.54947-5.053c-0.16826-0.16825-0.28793 0.13081-0.26595 0.66459 0.0243 0.58987 0.14428 0.70985 0.30592 0.30592 0.14627-0.36553 0.12828-0.80225-0.04-0.97051zm3.3003-3.0107c-0.44131-0.75891-0.54012-0.78078-0.55276-0.12237-0.0164 0.85273 0.51607 1.6205 0.87493 1.2617 0.11836-0.11836-0.0266-0.63104-0.32217-1.1393zm11.782 0.93845c0.14141-0.22881-0.18693-0.79623-0.72965-1.2609-0.92625-0.79308-0.98676-0.78826-0.98676 0.07847 0 1.4028 1.1083 2.1663 1.7164 1.1824zm-9.5121-2.4849c-0.16825-0.16826-0.28793 0.1308-0.26594 0.66458 0.0243 0.58987 0.14428 0.70985 0.30592 0.30592 0.14627-0.36552 0.12828-0.80225-0.04-0.9705zm10.8-1.4392c-0.63537-0.67633-1.6102-1.2297-2.1664-1.2297-1.0985 0-2.8631 1.3564-2.8631 2.2007 0 0.28855 0.28482 0.1684 0.63294-0.26702 1.4249-1.7822 4.8794-1.0835 4.9769 1.0066 0.0272 0.58292 0.1256 0.64319 0.30744 0.18827 0.1471-0.36802-0.25239-1.2225-0.88777-1.8988zm-12.943-0.21698c0.34215 0 0.9415 0.28482 1.3319 0.63294 0.60384 0.53845 0.6097 0.50066 0.0393-0.25318-0.36879-0.48736-1.0528-0.88611-1.52-0.88611-0.90736 0-2.0647 0.92851-2.0647 1.6565 0 0.24268 0.35806 0.08318 0.79569-0.35445s1.0756-0.79569 1.4178-0.79569z" fill="none" stroke="#000" stroke-width=".375"/>
</svg>
