<?xml version="1.0" encoding="UTF-8"?>
<svg width="300" height="105" version="1.1" viewBox="0 0 300 105" xmlns="http://www.w3.org/2000/svg" xmlns:xlink="http://www.w3.org/1999/xlink">
 <text x="61.241219" y="97.153664" display="block" fill="#000000" font-family="'Liberation Sans',Arial,sans-serif" stroke-width="1pt" text-anchor="middle" style="line-height:0%" xml:space="preserve"><tspan x="61.241219" y="97.153664" font-size="6px" style="line-height:1.1">Image originale</tspan></text>
 <text x="148.03831" y="97.37867" display="block" fill="#000000" font-family="'Liberation Sans',Arial,sans-serif" font-size="6px" stroke-width="1pt" text-anchor="middle" style="line-height:0%" xml:space="preserve"><tspan x="148.03831" y="97.37867" style="line-height:1.1">Quantification (12 coul.)</tspan><tspan x="148.03831" y="103.37867" style="line-height:1.1">Rempli, sans contour</tspan></text>
 <text x="236.78831" y="97.37867" display="block" fill="#000000" font-family="'Liberation Sans',Arial,sans-serif" font-size="6px" stroke-width="1pt" text-anchor="middle" style="line-height:0%" xml:space="preserve"><tspan x="236.78831" y="97.37867" style="line-height:1.1">Quantification (12 coul.)</tspan><tspan x="236.78831" y="103.37867" style="line-height:1.1">Contour, non rempli</tspan></text>
 <image x="22.759" y="-9.7656e-5" width="76.965" height="91.143" xlink:href="tux.png"/>
 <path d="m130.02 88.785c-1.0695-0.4436-1.7527-1.0181-1.5674-1.318 0.18412-0.2979 0.0875-0.3826-0.2199-0.1926-0.30163 0.1864-3.0749-0.348-6.1629-1.1877-3.088-0.8396-5.7816-1.541-5.9858-1.5587-0.20423-0.0176 0.12212-0.231 0.72521-0.4742 1.222-0.4927 6.3452 0.1108 10.85 1.278 4.2683 1.1061 5.7671 0.9674 7.6411-0.707 1.4016-1.2523 1.6393-1.8171 1.7106-4.064 0.0455-1.4352-0.11371-2.731-0.3539-2.8794-0.24019-0.1485-0.43671 0.7514-0.43671 1.9997 0 3.3298-1.8407 5.3854-4.8224 5.3854-1.2103 0-2.8305-0.2395-3.6004-0.5322-0.76992-0.2928-4.029-0.9817-7.2424-1.5311-6.8772-1.1757-7.5438-1.6164-6.7009-4.4296 0.7348-2.4526 0.77712-4.8204 0.0784-4.3885-0.28303 0.1749-0.39969 0.5039-0.25924 0.7312 0.26503 0.4288-0.44844 3.0281-1.3432 4.8935-0.81455 1.6982-0.30205 2.8343 1.6107 3.5708 1.6059 0.6183 1.6299 0.6543 0.25601 0.3839-2.9289-0.5766-3.3845-1.811-2.0422-5.5337 0.51882-1.439 0.64377-3.1423 0.43153-5.8825-0.26983-3.4837-0.19424-3.9615 0.78115-4.9369 0.75984-0.7598 1.7177-1.0822 3.2319-1.0876 2.4115-0.0087 2.8662-0.2295 4.0561-1.9694 0.62914-0.9199 0.70347-1.459 0.30407-2.2053-0.76332-1.4262-0.0899-4.2247 1.857-7.7168 0.93156-1.671 2.266-4.7969 2.9655-6.9466 1.5818-4.8615 1.9766-5.6069 4.6349-8.7503 1.1776-1.3924 2.8373-3.6368 3.6883-4.9874l1.5473-2.4557-0.3005-9.7988c-0.34029-11.096 0.0149-12.897 3.2509-16.479 2.4056-2.6627 5.3468-3.6957 9.6418-3.3861 5.479 0.3948 9.4985 2.8938 12.143 7.5492 1.3891 2.4457 1.6503 3.8184 2.1018 11.044 0.37435 5.9909 0.4383 6.24 2.7993 10.903 1.3289 2.6243 3.5403 6.0561 4.9142 7.6261 2.8611 3.2695 4.1441 5.5948 5.8429 10.59 1.4508 4.2654 1.946 9.2555 1.259 12.687-0.40016 1.9992-0.35426 2.7677 0.21819 3.6533 0.39872 0.6168 0.72495 1.7071 0.72495 2.4229 0 1.8065 1.286 3.5887 3.8746 5.3697 3.6724 2.5267 3.0699 4.2001-2.6615 7.3915-2.3325 1.2988-5.2675 3.3592-6.5222 4.5788-1.2547 1.2195-2.4945 2.0855-2.7551 1.9245-0.26058-0.1611-0.63866-0.026-0.84018 0.3-0.22883 0.3703-0.14691 0.4572 0.21819 0.2316 0.32152-0.1987 0.58458-0.2398 0.58458-0.0913 0 0.6232-3.1208 1.8151-4.7522 1.8151-2.1394 0-4.5275-0.8417-4.1448-1.4609 0.15301-0.2476-0.1181-0.4189-0.60247-0.3807-0.51245 0.0404-0.88336-0.2861-0.88712-0.781-4e-3 -0.4677-0.21098-1.0373-0.46094-1.2658-0.26311-0.2406-0.28796-0.1277-0.059 0.2679 0.31745 0.5487 0.19021 0.5736-0.64506 0.1266-0.63725-0.341-4.3122-0.5569-9.4823-0.5569h-8.4418l-1.8988 1.5039c-3.3616 2.6624-5.4621 3.0725-8.7508 1.7083zm4.0479-0.0167c-0.48737-0.1274-1.2849-0.1274-1.7722 0-0.48736 0.1273-0.0886 0.2315 0.88611 0.2315 0.97473 0 1.3735-0.1042 0.88612-0.2315zm32.153-0.0084c-0.62661-0.1206-1.652-0.1206-2.2786 0-0.62661 0.1207-0.11393 0.2195 1.1393 0.2195s1.7659-0.0988 1.1393-0.2195zm-26.774-2.8291c0.16133 0.1613 0.437-0.0811 0.6126-0.5387 0.27922-0.7276 1.424-0.832 9.1262-0.832 4.8438 0 8.807 0.2038 8.807 0.4528 0 0.2491 0.51268 0.42 1.1393 0.3798 1.1025-0.0707 1.1411-0.2488 1.1961-5.5163 0.0312-2.9938-0.11176-5.4433-0.31776-5.4433s-0.65612 0.3393-1.0003 0.754-0.80284 0.6445-1.0193 0.5107c-0.21647-0.1338-0.77031 0.3317-1.2307 1.0344-0.46044 0.7027-1.055 1.143-1.3213 0.9785-0.26626-0.1646-0.4841-0.0445-0.4841 0.2669 0 0.3113-0.20398 0.44-0.4533 0.2859-0.24931-0.154-0.58948 0.0748-0.75595 0.5086-0.16646 0.4338-0.53212 0.6469-0.81258 0.4736-0.28046-0.1734-0.50993-0.0495-0.50993 0.2752s-0.34178 0.4593-0.75952 0.299-0.75953-0.0554-0.75953 0.2331c0 0.2942-0.44484 0.3834-1.0127 0.2032-0.55698-0.1768-1.0127-0.1352-1.0127 0.0924 0 0.2277-1.8229 0.4139-4.0508 0.4139-2.228 0-4.0508-0.1637-4.0508-0.3639 0-0.2001-0.37916-0.2183-0.84259-0.0405-0.60527 0.2323-0.72803 0.138-0.43587-0.3348 0.27352-0.4425 0.17635-0.58-0.2967-0.4197-0.40653 0.1377-0.71698 0.9668-0.73554 1.9645-0.0545 2.9305-0.18092 3.3202-1.5071 4.6463-0.9063 0.9063-1.0932 1.3612-0.63294 1.5405 0.3592 0.14 1.1423-0.2791 1.7403-0.9314s1.2192-1.054 1.3806-0.8927zm-2.2146 0.9079c0.34669-0.4177 0.74428-0.7595 0.88352-0.7595 0.13925 0-0.0305 0.3418-0.37717 0.7595-0.3467 0.4178-0.74428 0.7595-0.88353 0.7595-0.13924 0 0.0305-0.3417 0.37718-0.7595zm32.331-1.2752c1.2118-0.5499 2.3732-0.8947 2.5809-0.7664 0.20768 0.1284 1.0247-0.4421 1.8157-1.2677 1.8028-1.8817 1.4622-1.879-2.2958 0.018-3.4113 1.722-6.5422 1.9935-7.8547 0.681-1.3994-1.3994-1.766-3.0655-1.766-8.0261 0-2.641-0.22625-4.8873-0.50992-5.0627-0.76215-0.471-1.2116 1.1735-0.54148 1.981 0.36092 0.4349 0.54274 2.4319 0.48004 5.2725-0.0794 3.5971 0.0851 4.8564 0.7711 5.9034 1.5765 2.406 3.9172 2.8112 7.3202 1.267zm-18.946-6.3146c1.0956-0.3903 2.2131-0.573 2.4834-0.4059 0.27031 0.1671 0.33903 0.0571 0.15271-0.2444-0.34257-0.5543 1.5184-1.4508 2.4609-1.1855 0.2785 0.0784 0.33691-0.0269 0.12981-0.234-0.32234-0.3224 1.4122-1.9374 2.1488-2.0008 0.61807-0.0532 2.5318-1.5407 2.5318-1.9679 0-0.2601-0.61971 0.0795-1.3771 0.7547s-1.0516 0.8051-0.65382 0.2888c0.39782-0.5163 0.89751-2.1113 1.1104-3.5445 1.0175-6.8493 1.129-7.1107 3.1952-7.4943 1.1316-0.21 1.6222-1.8244 1.7162-5.648 0.0364-1.4813 0.25822-2.3125 0.56626-2.1221 0.62486 0.3862 0.67848 4.8103 0.0583 4.8103-0.24642 0-0.3394 1.5381-0.20662 3.4179 0.20183 2.8573 0.4557 3.613 1.548 4.6079 1.096 0.9982 1.6394 1.1368 3.3709 0.86 1.1973-0.1915 2.6494-0.8907 3.4572-1.6646 0.76608-0.7339 1.3929-1.1037 1.3929-0.8216 0 0.7747-2.0956 2.5779-3.704 3.1873-3.2372 1.2266-5.6846 0.0751-6.4117-3.0165l-0.41396-1.7601-0.0518 1.9321c-0.0697 2.5977 0.61122 3.697 2.7213 4.3934 2.038 0.6726 3.4427 0.355 5.5817-1.2619 1.4505-1.0965 4.0629-4.8407 2.8578-4.0959-0.72843 0.4502-0.7282 0.1665 1e-3 -1.4343 0.31922-0.7006 0.77151-1.1557 1.0051-1.0114 0.23358 0.1444 0.28571-0.4324 0.11584-1.2817-0.16986-0.8493-0.10947-1.5442 0.13421-1.5442 0.24369 0 0.44306-1.2533 0.44306-2.785s-0.19937-2.7849-0.44306-2.7849c-0.24368 0-0.30634-0.6836-0.13924-1.519 0.18781-0.9391 0.0946-1.5191-0.24406-1.5191-0.30132 0-0.41671-0.3418-0.2564-0.7595 0.1603-0.4178 0.0464-0.7595-0.25318-0.7595-0.29956 0-0.41348-0.3418-0.25318-0.7596 0.1603-0.4177 0.0464-0.7595-0.25317-0.7595-0.29956 0-0.41349-0.3418-0.25318-0.7595 0.1603-0.4178 0.0464-0.7595-0.25317-0.7595-0.29956 0-0.41349-0.3418-0.25318-0.7596 0.1603-0.4177 0.0573-0.7595-0.22889-0.7595s-0.37952-0.2279-0.2074-0.5064c0.17212-0.2784 0.0582-0.5063-0.25317-0.5063s-0.4253-0.2279-0.25318-0.5064c0.17212-0.2784 0.0582-0.5063-0.25317-0.5063s-0.4253-0.2279-0.25318-0.5064c0.17212-0.2784 0.0582-0.5063-0.25317-0.5063s-0.4243-0.2295-0.25097-0.5099c0.17333-0.2805-0.0398-0.6462-0.47356-0.8126-0.43379-0.1665-0.67683-0.4837-0.54008-0.705 0.13674-0.2212-0.60511-1.1539-1.6486-2.0726-1.0434-0.9187-1.8381-1.8595-1.7659-2.0905 0.0722-0.2311-0.21131-0.5516-0.63003-0.7123s-0.63525-0.4961-0.48116-0.7454c0.15408-0.2493 0.0254-0.4533-0.28597-0.4533s-0.4243-0.2295-0.25096-0.5099c0.17333-0.2805-0.0398-0.6462-0.47356-0.8126-0.4338-0.1665-0.66265-0.5067-0.50857-0.756 0.15409-0.2493 0.0254-0.4533-0.28596-0.4533-0.31137 0-0.4253-0.2278-0.25318-0.5063s0.0582-0.5064-0.25317-0.5064-0.4253-0.2278-0.25318-0.5063 0.0582-0.5064-0.25317-0.5064-0.4253-0.2278-0.25318-0.5063 0.0582-0.5064-0.25317-0.5064-0.4253-0.2278-0.25318-0.5063 0.0473-0.5064-0.27746-0.5064c-0.32473 0-0.45926-0.3418-0.29895-0.7595 0.1603-0.4177 0.0464-0.7595-0.25318-0.7595-0.29955 0-0.41348-0.3418-0.25317-0.7595 0.1603-0.4178 0.0474-0.7596-0.25097-0.7596-0.35712 0-0.48142-1.4703-0.36387-4.304 0.0982-2.3673-0.0223-4.304-0.26788-4.304-0.24554 0-0.32419-0.9114-0.17478-2.0253 0.15565-1.1605 0.0614-2.0254-0.22062-2.0254-0.27076 0-0.34729-0.4569-0.17008-1.0152 0.21384-0.6738 0.056-1.1174-0.46932-1.319-0.43534-0.167-0.66546-0.5077-0.51138-0.757s0.0254-0.4533-0.28597-0.4533c-0.31136 0-0.42529-0.2278-0.25317-0.5063 0.17211-0.2785 0.0582-0.5064-0.25318-0.5064-0.31136 0-0.44684-0.193-0.30106-0.4289 0.34429-0.557-2.4459-3.2379-2.8987-2.7851-0.18956 0.1896-0.34465 0.0654-0.34465-0.2759 0-0.3414-0.22786-0.4798-0.50635-0.3077-0.2785 0.1721-0.50635 0.0582-0.50635-0.2532s-0.22786-0.4253-0.50635-0.2532c-0.2785 0.1721-0.50635 0.0582-0.50635-0.2531 0-0.3114-0.22786-0.4253-0.50636-0.2532-0.27849 0.1721-0.50635 0.0563-0.50635-0.2574 0-0.34-0.40913-0.4405-1.0127-0.249-0.55698 0.1768-1.0127 0.1352-1.0127-0.0924 0-0.2277-1.4811-0.4139-3.2913-0.4139-1.8102 0-3.2913 0.1952-3.2913 0.4339s-0.34178 0.3028-0.75952 0.1425-0.75953-0.0573-0.75953 0.2289-0.22786 0.3795-0.50635 0.2074-0.50635-0.0582-0.50635 0.2532c0 0.3113-0.19299 0.4468-0.42886 0.301-0.55708-0.3443-3.2379 2.4459-2.7851 2.8988 0.18956 0.1895 0.0654 0.3446-0.27597 0.3446-0.34135 0-0.47981 0.2279-0.30769 0.5064s0.0582 0.5063-0.25317 0.5063-0.4253 0.2279-0.25318 0.5064 0.0788 0.5063-0.2074 0.5063c-0.28619 0-0.38919 0.3418-0.22888 0.7595 0.1603 0.4178 0.0962 0.7596-0.14248 0.7596-0.23867 0-0.43394 3.4178-0.43394 7.5952s0.13574 7.5953 0.30164 7.5953 0.34259 1.2532 0.39264 2.7849c0.0562 1.7196-0.11905 2.7849-0.45811 2.7849-0.30201 0-0.40829 0.2279-0.23617 0.5064s0.0582 0.5063-0.25317 0.5063-0.44005 0.204-0.28597 0.4533-0.0748 0.5895-0.50856 0.756c-0.43379 0.1664-0.66165 0.5082-0.50635 0.7595s-0.0726 0.5931-0.50635 0.7595c-0.43379 0.1665-0.6623 0.5072-0.50779 0.7572 0.1545 0.25-0.29403 0.8313-0.99675 1.2917-0.70271 0.4605-1.1654 1.0188-1.0282 1.2408 0.13718 0.2219-0.43154 0.907-1.2638 1.5223-0.83229 0.6154-1.3795 1.3352-1.2161 1.5996 0.16342 0.2644 0.0424 0.4808-0.26898 0.4808-0.31137 0-0.4253 0.2279-0.25318 0.5063 0.17212 0.2785 0.0582 0.5064-0.25317 0.5064s-0.4253 0.2279-0.25318 0.5063c0.17212 0.2785 0.0788 0.5064-0.2074 0.5064-0.28619 0-0.38919 0.3418-0.22888 0.7595 0.1603 0.4178 0.0239 0.7595-0.30319 0.7595-0.36422 0-0.4701 0.3925-0.27323 1.0127 0.18023 0.5679 0.091 1.0128-0.20316 1.0128-0.28852 0-0.39343 0.3417-0.23312 0.7595 0.1603 0.4177 0.0258 0.7595-0.29895 0.7595-0.32473 0-0.44959 0.2279-0.27747 0.5064 0.17212 0.2784 0.0788 0.5063-0.2074 0.5063-0.28619 0-0.38919 0.3418-0.22889 0.7595 0.16031 0.4178 0.0258 0.7596-0.29895 0.7596-0.32472 0-0.44958 0.2278-0.27746 0.5063s0.0582 0.5064-0.25318 0.5064c-0.31136 0-0.42529 0.2278-0.25317 0.5063s0.0582 0.5064-0.25318 0.5064c-0.31136 0-0.44005 0.2039-0.28596 0.4533 0.15408 0.2493-0.0748 0.5894-0.50857 0.7559-0.43379 0.1665-0.64689 0.5321-0.47355 0.8126 0.17333 0.2804 0.0604 0.5099-0.25097 0.5099-0.31136 0-0.42529 0.2279-0.25317 0.5064 0.17211 0.2785 0.0563 0.5063-0.25742 0.5063-0.33993 0-0.4405 0.4091-0.24894 1.0127 0.17678 0.557 0.0924 1.0127-0.18758 1.0127-0.63804 0-0.53894 2.1608 0.11984 2.613 0.26795 0.184 1.2119 0.2169 2.0977 0.0731 1.3014-0.2112 1.9658 0.0505 3.4613 1.3637 1.0179 0.8937 1.8508 1.8755 1.8508 2.1816 0 0.3062-0.86748-0.2904-1.9277-1.3257-1.5997-1.562-2.2375-1.8595-3.7483-1.7484-1.0013 0.0737-1.72 0.2974-1.5971 0.4972 0.12291 0.1997 0.9133 0.2252 1.7564 0.0566 1.2882-0.2577 1.8308-0.0158 3.3982 1.5147 1.0259 1.0018 2.0931 1.8308 2.3716 1.8423 0.2785 0.0114 0.59288 0.2804 0.69863 0.5977 0.11843 0.3552-0.0575 0.4224-0.458 0.1749-0.42957-0.2655-0.52592-0.2007-0.28387 0.1909 0.20152 0.3261 0.55683 0.4752 0.78958 0.3313 0.23275-0.1438 1.0145 0.7475 1.7372 1.9808 1.4642 2.4985 1.6146 3.0542 0.68111 2.517-0.36773-0.2117-0.45613-0.1711-0.21098 0.0967 0.23208 0.2535 0.66881 0.4609 0.97051 0.4609s0.65406 0.3165 0.78302 0.7034c0.1563 0.4689 0.0177 0.5695-0.4158 0.3016-0.43898-0.2714-0.52612-0.201-0.26816 0.2163 0.21016 0.3401 0.51328 0.4871 0.6736 0.3268 0.16033-0.1603 0.85783 0.2233 1.55 0.8524 0.69218 0.6292 1.0761 0.8296 0.8532 0.4453-0.27254-0.4697-0.18525-0.6252 0.26647-0.4747 0.36947 0.1232 1.0848-0.189 1.5895-0.6938 1.006-1.006 1.23-2.4368 0.38153-2.4368-0.29493 0-0.41424-0.1974-0.26512-0.4387 0.32518-0.5262-1.4303-2.2244-1.8576-1.7971-0.16402 0.164-0.68313-0.2892-1.1536-1.0072-0.47045-0.718-1.0483-1.1862-1.2841-1.0405-0.23579 0.1457-0.80544-0.31-1.2659-1.0127-0.46044-0.7027-1.0052-1.1738-1.2106-1.0469-0.20542 0.127-0.99115-0.4138-1.7461-1.2018-1.201-1.2536-1.3873-1.8888-1.49-5.0815-0.0646-2.0068 0.078-3.7695 0.31693-3.9172 0.23889-0.1476 0.31204-0.5872 0.16254-0.9767-0.14949-0.3896-0.0267-0.7083 0.27283-0.7083 0.29955 0 0.41348-0.3418 0.25318-0.7596-0.1603-0.4177-0.0779-0.7595 0.18311-0.7595s0.34341-0.3418 0.18311-0.7595c-0.1603-0.4178-0.0258-0.7595 0.29895-0.7595 0.32472 0 0.44958-0.2279 0.27746-0.5064-0.17211-0.2785-0.0582-0.5063 0.25318-0.5063 0.31136 0 0.42529-0.2279 0.25317-0.5064-0.17211-0.2785-0.0582-0.5063 0.25318-0.5063 0.31136 0 0.42529-0.2279 0.25318-0.5064-0.17212-0.2785-0.0582-0.5063 0.25317-0.5063s0.42529-0.2279 0.25318-0.5064c-0.17212-0.2785-0.0582-0.5064 0.25317-0.5064s0.4243-0.2294 0.25097-0.5099c-0.17334-0.2804 0.0398-0.6461 0.47356-0.8126 0.43379-0.1664 0.66264-0.5066 0.50856-0.7559-0.15409-0.2493-0.0602-0.4533 0.20868-0.4533 0.26885 0 0.37646-0.5127 0.23913-1.1393-0.20741-0.9464-0.14941-1.0107 0.34251-0.3798 0.47215 0.6056 0.53884 0.3746 0.32894-1.1392-0.15247-1.0997-0.051-1.8989 0.24112-1.8989 0.27742 0 0.36358-0.2278 0.19146-0.5063s-0.0582-0.5064 0.25317-0.5064 0.4253-0.2278 0.25318-0.5063-0.0582-0.5064 0.25318-0.5064c0.31136 0 0.42529-0.2278 0.25317-0.5063s-0.0582-0.5064 0.25318-0.5064c0.31136 0 0.42429-0.2294 0.25096-0.5099-0.17333-0.2804 0.0398-0.6461 0.47356-0.8126 0.43379-0.1664 0.66264-0.5066 0.50856-0.7559s-0.0254-0.4533 0.28597-0.4533c0.31136 0 0.42529-0.2279 0.25317-0.5064s-0.069-0.5063 0.22924-0.5063c0.5905 0 0.44619-3.6958-0.20241-5.1838-0.21092-0.4838-0.1442-1.5662 0.14827-2.4051 0.30509-0.8752 0.33392-1.5254 0.0676-1.5254-0.25527 0-0.31862-0.3792-0.14079-0.8426 0.19314-0.5033 0.11823-0.7158-0.186-0.5278-0.69913 0.4321-0.50579-5.4623 0.20735-6.3216 1.0851-1.3074 5.7483-0.1981 4.9048 1.1668-0.15262 0.2469-0.0219 0.449 0.29058 0.449 0.31243 0 0.5275 0.3987 0.47792 0.8861-0.18326 1.8016 0.0595 2.152 1.4914 2.152 1.5929 0 2.1669-0.8226 1.7327-2.4829-0.1656-0.6333-0.0374-1.0616 0.3177-1.0616 0.3274 0 0.45663-0.2243 0.28716-0.4985-0.39513-0.6394 2.7147-2.5511 4.046-2.4872 0.84737 0.0406 0.80603 0.119-0.25318 0.48-1.2204 0.4159-1.2113 0.4284 0.25348 0.3479 1.7233-0.0946 2.9432 0.4789 2.5098 1.1801-0.16023 0.2593-0.0366 0.4714 0.2748 0.4714 0.31136 0 0.42529 0.2278 0.25317 0.5063s-0.0788 0.5064 0.2074 0.5064c0.28619 0 0.38919 0.3418 0.22889 0.7595-0.16031 0.4177-0.0392 0.7595 0.26906 0.7595 0.30829 0 0.56053 0.5697 0.56053 1.2659s-0.25224 1.2659-0.56053 1.2659-0.42937 0.3418-0.26906 0.7595c0.1603 0.4177 0.0627 0.7595-0.21682 0.7595-0.33044 0-0.32037 0.3511 0.0288 1.0036 0.29539 0.5519 0.52714 1.8621 0.515 2.9115-0.0333 2.8794 0.16682 4.1865 0.641 4.1865 0.23525 0 0.2869 0.2279 0.11478 0.5064-0.17211 0.2785-0.0582 0.5063 0.25318 0.5063 0.31136 0 0.42529 0.2279 0.25317 0.5064-0.17211 0.2785-0.0582 0.5063 0.25318 0.5063 0.31136 0 0.44005 0.204 0.28597 0.4533-0.15409 0.2493 0.084 0.593 0.529 0.7638 0.46134 0.1771 0.68457 0.6352 0.51933 1.0658-0.1594 0.4154-0.0557 0.7552 0.23053 0.7552 0.28618 0 0.37951 0.2279 0.2074 0.5064-0.17212 0.2785-0.0563 0.5063 0.25741 0.5063 0.33993 0 0.4405 0.4092 0.24894 1.0127-0.19789 0.6235-0.091 1.0127 0.27811 1.0127 0.35023 0 0.48941 0.4211 0.3347 1.0127-0.14566 0.557-0.0203 1.0127 0.27851 1.0127 0.29883 0 0.39288 0.1505 0.20899 0.3344s0.12373 0.6552 0.68361 1.0473c0.55987 0.3922 0.88676 0.9253 0.72642 1.1847-0.16035 0.2595-0.0368 0.4717 0.27458 0.4717 0.31137 0 0.4253 0.2279 0.25318 0.5064s-0.0582 0.5063 0.25318 0.5063c0.31136 0 0.42529 0.2279 0.25317 0.5064s-0.0582 0.5063 0.25318 0.5063c0.31136 0 0.42529 0.2279 0.25317 0.5064s-0.0788 0.5064 0.2074 0.5064c0.28619 0 0.37484 0.3791 0.19701 0.8425-0.2339 0.6096-0.13906 0.7287 0.34291 0.4309 0.51083-0.3157 0.59017-0.1086 0.3401 0.8877-0.19201 0.765-0.10036 1.3748 0.22285 1.4825 0.37348 0.1245 0.40193 0.745 0.089 1.9407l-0.46003 1.7577-0.32772-2.7305c-0.32591-2.7155-2.1882-6.9817-3.8917-8.9155-0.49067-0.557-1.0411-1.9984-1.2232-3.2032-0.38291-2.5331-2.7732-7.5203-4.2386-8.8435-0.96953-0.8755-1.055-0.8656-2.4605 0.2859-2.4922 2.0418-6.2465 4.3944-7.5245 4.7151-1.2364 0.3104-3.3566-1.2283-3.8876-2.8214-0.43853-1.3156-1.854-0.0777-3.7138 3.2479-1.4842 2.654-1.7874 3.6329-1.5126 4.8841 0.25796 1.1745 0.0992 1.8386-0.63644 2.6626-3.0929 3.4644-5.7011 10.213-5.7011 14.751v3.2499l3.1486 2.6882c8.0424 6.8663 8.678 7.9848 5.9521 10.474l-1.5326 1.3997 1.0382 0.9396c0.80206 0.7259 0.89151 1.0419 0.39329 1.3898-0.43558 0.304-0.3162 0.361 0.36779 0.1754 0.55699-0.1511 1.3545-0.0556 1.7722 0.2122 1.1359 0.7285 8.0692 0.5599 10.347-0.2515zm-22.926-18.487c0-0.6963 0.11492-0.9811 0.25539-0.633s0.14047 0.9178 0 1.2659-0.25539 0.0633-0.25539-0.6329zm31.332-30.348c-0.7269-1.3582-0.66803-1.5523 0.47072-1.5523 1.0172 0 2.2648 1.635 1.6878 2.212-0.62018 0.6202-1.6405 0.3084-2.1586-0.6597zm1.5012-0.0034c0-0.262-0.22785-0.6173-0.50635-0.7894-0.27849-0.1721-0.50635 0.0423-0.50635 0.4765 0 0.4341 0.22786 0.7894 0.50635 0.7894 0.2785 0 0.50635-0.2144 0.50635-0.4765zm-8.1016-22.562c0-0.9044 0.27367-1.2658 0.95853-1.2658 1.3493 0 1.7457 1.3911 0.57496 2.0176-1.378 0.7375-1.5335 0.6613-1.5335-0.7518zm-16.203 68.942c0-0.0961-0.51268-0.6088-1.1393-1.1393l-1.1393-0.9646 0.96459 1.1393c0.90648 1.0706 1.314 1.3698 1.314 0.9646zm-22.178-8.925c-0.32848-0.5006-1.099 1.3116-1.1064 2.6023-0.0167 2.91 0.74955 3.2304 1.0073 0.4212 0.14055-1.5317 0.18512-2.8923 0.0991-3.0235zm17.114 1.5044c-0.29809-0.557-0.65591-1.0127-0.79516-1.0127-0.13924 0-9e-3 0.4557 0.28881 1.0127 0.29809 0.557 0.65591 1.0127 0.79516 1.0127 0.13924 0 9e-3 -0.4557-0.28881-1.0127zm-12.406-2.0254c0.17212-0.2785 0.0851-0.5063-0.19341-0.5063-0.27849 0-0.64717 0.2278-0.81929 0.5063s-0.0851 0.5064 0.19341 0.5064c0.27849 0 0.64717-0.2279 0.81929-0.5064zm35.713-39.859c0.40921-1.193 0.40772-1.8715-6e-3 -2.5318-0.49475-0.7904-0.52605-0.7611-0.25309 0.2373 0.21583 0.7895 0.0926 1.1393-0.40129 1.1393-0.39203 0-2.1427 0.7146-3.8904 1.5879-4.4182 2.2078-7.0004 2.4388-8.9089 0.7972l-1.4767-1.2702 0.87114-1.8268c0.47912-1.0047 1.6146-2.2801 2.5233-2.8341s1.3463-1.0082 0.97252-1.0092c-0.37381-0.0011-1.259 0.4538-1.9671 1.0108s-1.5985 1.0127-1.9787 1.0127-0.69435 0.2848-0.69815 0.6329c-4e-3 0.3481-0.1407 1.1318-0.30421 1.7415-0.22999 0.8577 0.2346 1.6256 2.0523 3.3921 2.0937 2.0349 2.6369 2.3001 4.9879 2.4359 3.4611 0.1999 7.6192-2.0151 8.4768-4.5155zm-1.8302-4.5181c0.23859-0.6217 0.15657-0.7026-0.32559-0.3211-0.35449 0.2805-0.98632 0.6365-1.4041 0.7911-0.51842 0.192-0.41507 0.2939 0.32559 0.3212 0.59681 0.022 1.2286-0.334 1.4041-0.7912zm-10.844-1.4493c0-0.4623 0.32174-0.6223 0.88612-0.4408 0.72243 0.2324 0.75027 0.1889 0.15076-0.2357-0.40444-0.2863-0.87152-0.4365-1.0379-0.3336-0.16643 0.1028-0.61267-0.311-0.99164-0.9196-0.65287-1.0484-0.63825-1.0666 0.27842-0.347 0.88238 0.6928 0.90985 0.6858 0.3124-0.0785-1.0596-1.3556-2.403-0.8288-2.2646 0.888 0.10069 1.2494 0.0492 1.3177-0.34417 0.4564-0.32438-0.7102-0.47321-0.7816-0.49816-0.2393-0.0196 0.4254 0.31968 1.2807 0.75389 1.9006 0.63731 0.9099 0.97892 1.0258 1.7722 0.6012 0.54051-0.2892 0.98274-0.8525 0.98274-1.2517zm7.5953 1.0146c-0.74217-0.8943 0.0301-1.0332 0.9012-0.1621 0.95041 0.9504 2.9405-0.3556 2.8735-1.8858-0.0298-0.6798-0.24419-1.4086-0.47652-1.6195-0.23232-0.2109-0.22821-0.0416 9e-3 0.3761 0.37111 0.6532 0.31234 0.6629-0.4196 0.0692-0.46813-0.3796-0.72628-0.8923-0.57366-1.1393 0.15261-0.2469 0.0199-0.4489-0.29492-0.4489-0.77217 0-2.0498 1.3196-1.6574 1.7119 0.1724 0.1724 0.0476 0.3135-0.27729 0.3135-0.32491 0-0.59074 0.4557-0.59074 1.0127 0 0.8285-0.33757 1.0127-1.8566 1.0127-1.0211 0-1.7079 0.1487-1.5262 0.3304s1.0133 0.311 1.8478 0.2873 1.6487 0.1694 1.8092 0.4291 0.42024 0.4722 0.57715 0.4722 2e-3 -0.3418-0.34506-0.7595zm5.3744-2.7211c-0.34476-2.2006-1.638-3.6083-3.3149-3.6083-1.809 0-3.5825 1.3385-3.5604 2.6871 0.0174 1.0627 0.0673 1.0505 1.1583-0.2819 2.2833-2.7888 5.2562-1.0528 4.7497 2.7735-0.26591 2.0091-0.23208 2.0912 0.47429 1.1507 0.48869-0.6507 0.66492-1.6235 0.49295-2.7211zm-12.201-2.0971c-0.0413-0.5614-0.37849-1.3019-0.74919-1.6457-0.53971-0.5005-0.59612-0.4881-0.28313 0.0622 0.29404 0.5169 0.13485 0.6059-0.64263 0.3591-0.56842-0.1804-1.18-0.0909-1.3592 0.199-0.17912 0.2898 2e-3 0.5269 0.40174 0.5269 0.40008 0 1.0111 0.3418 1.3578 0.7595 0.87169 1.0504 1.3638 0.9496 1.2746-0.261z"/>
 <path d="m218.77 88.785c-1.0695-0.4436-1.7527-1.0181-1.5674-1.318 0.18412-0.2979 0.0875-0.3826-0.2199-0.1926-0.30163 0.1864-3.0749-0.348-6.1629-1.1877-3.088-0.8396-5.7816-1.541-5.9858-1.5587-0.20423-0.0176 0.12212-0.231 0.72521-0.4742 1.222-0.4927 6.3452 0.1108 10.85 1.278 4.2683 1.1061 5.7671 0.9674 7.6411-0.707 1.4016-1.2523 1.6393-1.8171 1.7106-4.064 0.0455-1.4352-0.11371-2.731-0.3539-2.8794-0.24019-0.1485-0.43671 0.7514-0.43671 1.9997 0 3.3298-1.8407 5.3854-4.8224 5.3854-1.2103 0-2.8305-0.2395-3.6004-0.5322-0.76992-0.2928-4.029-0.9817-7.2424-1.5311-6.8772-1.1757-7.5438-1.6164-6.7009-4.4296 0.7348-2.4526 0.77712-4.8204 0.0784-4.3885-0.28303 0.1749-0.39969 0.5039-0.25924 0.7312 0.26503 0.4288-0.44844 3.0281-1.3432 4.8935-0.81455 1.6982-0.30205 2.8343 1.6107 3.5708 1.6059 0.6183 1.6299 0.6543 0.25601 0.3839-2.9289-0.5766-3.3845-1.811-2.0422-5.5337 0.51882-1.439 0.64377-3.1423 0.43153-5.8825-0.26983-3.4837-0.19424-3.9615 0.78115-4.9369 0.75984-0.7598 1.7177-1.0822 3.2319-1.0876 2.4115-0.0087 2.8662-0.2295 4.0561-1.9694 0.62914-0.9199 0.70347-1.459 0.30407-2.2053-0.76332-1.4262-0.0899-4.2247 1.857-7.7168 0.93156-1.671 2.266-4.7969 2.9655-6.9466 1.5818-4.8615 1.9766-5.6069 4.6349-8.7503 1.1776-1.3924 2.8373-3.6368 3.6883-4.9874l1.5473-2.4557-0.3005-9.7988c-0.34029-11.096 0.0149-12.897 3.2509-16.479 2.4056-2.6627 5.3468-3.6957 9.6418-3.3861 5.479 0.3948 9.4985 2.8938 12.143 7.5492 1.3891 2.4457 1.6503 3.8184 2.1018 11.044 0.37435 5.9909 0.4383 6.24 2.7993 10.903 1.3289 2.6243 3.5403 6.0561 4.9142 7.6261 2.8611 3.2695 4.1441 5.5948 5.8429 10.59 1.4508 4.2654 1.946 9.2555 1.259 12.687-0.40016 1.9992-0.35426 2.7677 0.21819 3.6533 0.39872 0.6168 0.72495 1.7071 0.72495 2.4229 0 1.8065 1.286 3.5887 3.8746 5.3697 3.6724 2.5267 3.0699 4.2001-2.6615 7.3915-2.3325 1.2988-5.2675 3.3592-6.5222 4.5788-1.2547 1.2195-2.4945 2.0855-2.7551 1.9245-0.26058-0.1611-0.63866-0.026-0.84018 0.3-0.22883 0.3703-0.14691 0.4572 0.21819 0.2316 0.32152-0.1987 0.58458-0.2398 0.58458-0.0913 0 0.6232-3.1208 1.8151-4.7522 1.8151-2.1394 0-4.5275-0.8417-4.1448-1.4609 0.15301-0.2476-0.1181-0.4189-0.60247-0.3807-0.51245 0.0404-0.88336-0.2861-0.88712-0.781-4e-3 -0.4677-0.21098-1.0373-0.46094-1.2658-0.26311-0.2406-0.28796-0.1277-0.059 0.2679 0.31745 0.5487 0.19021 0.5736-0.64506 0.1266-0.63725-0.341-4.3122-0.5569-9.4823-0.5569h-8.4418l-1.8988 1.5039c-3.3616 2.6624-5.4621 3.0725-8.7508 1.7083zm4.0479-0.0167c-0.48737-0.1274-1.2849-0.1274-1.7722 0-0.48736 0.1273-0.0886 0.2315 0.88611 0.2315 0.97473 0 1.3735-0.1042 0.88612-0.2315zm32.153-0.0084c-0.62661-0.1206-1.652-0.1206-2.2786 0-0.62661 0.1207-0.11393 0.2195 1.1393 0.2195s1.7659-0.0988 1.1393-0.2195zm-26.774-2.8291c0.16133 0.1613 0.437-0.0811 0.6126-0.5387 0.27922-0.7276 1.424-0.832 9.1262-0.832 4.8438 0 8.807 0.2038 8.807 0.4528 0 0.2491 0.51268 0.42 1.1393 0.3798 1.1025-0.0707 1.1411-0.2488 1.1961-5.5163 0.0312-2.9938-0.11176-5.4433-0.31776-5.4433s-0.65612 0.3393-1.0003 0.754-0.80284 0.6445-1.0193 0.5107c-0.21647-0.1338-0.77031 0.3317-1.2307 1.0344-0.46044 0.7027-1.055 1.143-1.3213 0.9785-0.26626-0.1646-0.4841-0.0445-0.4841 0.2669 0 0.3113-0.20398 0.44-0.4533 0.2859-0.24931-0.154-0.58948 0.0748-0.75595 0.5086-0.16646 0.4338-0.53212 0.6469-0.81258 0.4736-0.28046-0.1734-0.50993-0.0495-0.50993 0.2752s-0.34178 0.4593-0.75952 0.299-0.75953-0.0554-0.75953 0.2331c0 0.2942-0.44484 0.3834-1.0127 0.2032-0.55698-0.1768-1.0127-0.1352-1.0127 0.0924 0 0.2277-1.8229 0.4139-4.0508 0.4139-2.228 0-4.0508-0.1637-4.0508-0.3639 0-0.2001-0.37916-0.2183-0.84259-0.0405-0.60527 0.2323-0.72803 0.138-0.43587-0.3348 0.27352-0.4425 0.17635-0.58-0.2967-0.4197-0.40653 0.1377-0.71698 0.9668-0.73554 1.9645-0.0545 2.9305-0.18092 3.3202-1.5071 4.6463-0.9063 0.9063-1.0932 1.3612-0.63294 1.5405 0.3592 0.14 1.1423-0.2791 1.7403-0.9314s1.2192-1.054 1.3806-0.8927zm-2.2146 0.9079c0.34669-0.4177 0.74428-0.7595 0.88352-0.7595 0.13925 0-0.0305 0.3418-0.37717 0.7595-0.3467 0.4178-0.74428 0.7595-0.88353 0.7595-0.13924 0 0.0305-0.3417 0.37718-0.7595zm32.331-1.2752c1.2118-0.5499 2.3732-0.8947 2.5809-0.7664 0.20768 0.1284 1.0247-0.4421 1.8157-1.2677 1.8028-1.8817 1.4622-1.879-2.2958 0.018-3.4113 1.722-6.5422 1.9935-7.8547 0.681-1.3994-1.3994-1.766-3.0655-1.766-8.0261 0-2.641-0.22625-4.8873-0.50992-5.0627-0.76215-0.471-1.2116 1.1735-0.54148 1.981 0.36092 0.4349 0.54274 2.4319 0.48004 5.2725-0.0794 3.5971 0.0851 4.8564 0.7711 5.9034 1.5765 2.406 3.9172 2.8112 7.3202 1.267zm-18.946-6.3146c1.0956-0.3903 2.2131-0.573 2.4834-0.4059 0.27031 0.1671 0.33903 0.0571 0.15271-0.2444-0.34257-0.5543 1.5184-1.4508 2.4609-1.1855 0.2785 0.0784 0.33691-0.0269 0.12981-0.234-0.32234-0.3224 1.4122-1.9374 2.1488-2.0008 0.61807-0.0532 2.5318-1.5407 2.5318-1.9679 0-0.2601-0.61971 0.0795-1.3771 0.7547s-1.0516 0.8051-0.65382 0.2888c0.39782-0.5163 0.89751-2.1113 1.1104-3.5445 1.0175-6.8493 1.129-7.1107 3.1952-7.4943 1.1316-0.21 1.6222-1.8244 1.7162-5.648 0.0364-1.4813 0.25822-2.3125 0.56626-2.1221 0.62486 0.3862 0.67848 4.8103 0.0583 4.8103-0.24642 0-0.3394 1.5381-0.20662 3.4179 0.20183 2.8573 0.4557 3.613 1.548 4.6079 1.096 0.9982 1.6394 1.1368 3.3709 0.86 1.1973-0.1915 2.6494-0.8907 3.4572-1.6646 0.76608-0.7339 1.3929-1.1037 1.3929-0.8216 0 0.7747-2.0956 2.5779-3.704 3.1873-3.2372 1.2266-5.6846 0.0751-6.4117-3.0165l-0.41396-1.7601-0.0518 1.9321c-0.0697 2.5977 0.61122 3.697 2.7213 4.3934 2.038 0.6726 3.4427 0.355 5.5817-1.2619 1.4505-1.0965 4.0629-4.8407 2.8578-4.0959-0.72843 0.4502-0.7282 0.1665 1e-3 -1.4343 0.31922-0.7006 0.77151-1.1557 1.0051-1.0114 0.23358 0.1444 0.28571-0.4324 0.11584-1.2817-0.16986-0.8493-0.10947-1.5442 0.13421-1.5442 0.24369 0 0.44306-1.2533 0.44306-2.785s-0.19937-2.7849-0.44306-2.7849c-0.24368 0-0.30634-0.6836-0.13924-1.519 0.18781-0.9391 0.0946-1.5191-0.24406-1.5191-0.30132 0-0.41671-0.3418-0.2564-0.7595 0.1603-0.4178 0.0464-0.7595-0.25318-0.7595-0.29956 0-0.41348-0.3418-0.25318-0.7596 0.1603-0.4177 0.0464-0.7595-0.25317-0.7595-0.29956 0-0.41349-0.3418-0.25318-0.7595 0.1603-0.4178 0.0464-0.7595-0.25317-0.7595-0.29956 0-0.41349-0.3418-0.25318-0.7596 0.1603-0.4177 0.0573-0.7595-0.22889-0.7595s-0.37952-0.2279-0.2074-0.5064c0.17212-0.2784 0.0582-0.5063-0.25317-0.5063s-0.4253-0.2279-0.25318-0.5064c0.17212-0.2784 0.0582-0.5063-0.25317-0.5063s-0.4253-0.2279-0.25318-0.5064c0.17212-0.2784 0.0582-0.5063-0.25317-0.5063s-0.4243-0.2295-0.25097-0.5099c0.17333-0.2805-0.0398-0.6462-0.47356-0.8126-0.43379-0.1665-0.67683-0.4837-0.54008-0.705 0.13674-0.2212-0.60511-1.1539-1.6486-2.0726-1.0434-0.9187-1.8381-1.8595-1.7659-2.0905 0.0722-0.2311-0.21131-0.5516-0.63003-0.7123s-0.63525-0.4961-0.48116-0.7454c0.15408-0.2493 0.0254-0.4533-0.28597-0.4533s-0.4243-0.2295-0.25096-0.5099c0.17333-0.2805-0.0398-0.6462-0.47356-0.8126-0.4338-0.1665-0.66265-0.5067-0.50857-0.756 0.15409-0.2493 0.0254-0.4533-0.28596-0.4533-0.31137 0-0.4253-0.2278-0.25318-0.5063s0.0582-0.5064-0.25317-0.5064-0.4253-0.2278-0.25318-0.5063 0.0582-0.5064-0.25317-0.5064-0.4253-0.2278-0.25318-0.5063 0.0582-0.5064-0.25317-0.5064-0.4253-0.2278-0.25318-0.5063 0.0473-0.5064-0.27746-0.5064c-0.32473 0-0.45926-0.3418-0.29895-0.7595 0.1603-0.4177 0.0464-0.7595-0.25318-0.7595-0.29955 0-0.41348-0.3418-0.25317-0.7595 0.1603-0.4178 0.0474-0.7596-0.25097-0.7596-0.35712 0-0.48142-1.4703-0.36387-4.304 0.0982-2.3673-0.0224-4.304-0.26788-4.304-0.24554 0-0.32419-0.9114-0.17478-2.0253 0.15565-1.1605 0.0614-2.0254-0.22062-2.0254-0.27076 0-0.34729-0.4569-0.17008-1.0152 0.21384-0.6738 0.056-1.1174-0.46932-1.319-0.43534-0.167-0.66546-0.5077-0.51138-0.757s0.0254-0.4533-0.28597-0.4533c-0.31136 0-0.42529-0.2278-0.25317-0.5063 0.17211-0.2785 0.0582-0.5064-0.25318-0.5064-0.31136 0-0.44684-0.193-0.30106-0.4289 0.34429-0.557-2.4459-3.2379-2.8987-2.7851-0.18956 0.1896-0.34465 0.0654-0.34465-0.2759 0-0.3414-0.22786-0.4798-0.50635-0.3077-0.2785 0.1721-0.50635 0.0582-0.50635-0.2532s-0.22786-0.4253-0.50635-0.2532c-0.2785 0.1721-0.50635 0.0582-0.50635-0.2531 0-0.3114-0.22786-0.4253-0.50636-0.2532-0.27849 0.1721-0.50635 0.0563-0.50635-0.2574 0-0.34-0.40913-0.4405-1.0127-0.249-0.55698 0.1768-1.0127 0.1352-1.0127-0.0924 0-0.2277-1.4811-0.4139-3.2913-0.4139-1.8102 0-3.2913 0.1952-3.2913 0.4339s-0.34178 0.3028-0.75952 0.1425-0.75953-0.0573-0.75953 0.2289-0.22786 0.3795-0.50635 0.2074-0.50635-0.0582-0.50635 0.2532c0 0.3113-0.19299 0.4468-0.42886 0.301-0.55708-0.3443-3.2379 2.4459-2.7851 2.8988 0.18956 0.1895 0.0654 0.3446-0.27597 0.3446-0.34135 0-0.47981 0.2279-0.30769 0.5064s0.0582 0.5063-0.25317 0.5063-0.4253 0.2279-0.25318 0.5064 0.0788 0.5063-0.2074 0.5063c-0.28619 0-0.38919 0.3418-0.22888 0.7595 0.1603 0.4178 0.0962 0.7596-0.14248 0.7596-0.23867 0-0.43394 3.4178-0.43394 7.5952s0.13574 7.5953 0.30164 7.5953 0.34259 1.2532 0.39264 2.7849c0.0562 1.7196-0.11905 2.7849-0.45811 2.7849-0.30201 0-0.40829 0.2279-0.23617 0.5064s0.0582 0.5063-0.25317 0.5063-0.44005 0.204-0.28597 0.4533-0.0748 0.5895-0.50856 0.756c-0.43379 0.1664-0.66165 0.5082-0.50635 0.7595s-0.0726 0.5931-0.50635 0.7595c-0.43379 0.1665-0.6623 0.5072-0.50779 0.7572 0.1545 0.25-0.29403 0.8313-0.99675 1.2917-0.70271 0.4605-1.1654 1.0188-1.0282 1.2408 0.13718 0.2219-0.43154 0.907-1.2638 1.5223-0.83229 0.6154-1.3795 1.3352-1.2161 1.5996 0.16342 0.2644 0.0424 0.4808-0.26898 0.4808-0.31137 0-0.4253 0.2279-0.25318 0.5063 0.17212 0.2785 0.0582 0.5064-0.25317 0.5064s-0.4253 0.2279-0.25318 0.5063c0.17212 0.2785 0.0788 0.5064-0.2074 0.5064-0.28619 0-0.38919 0.3418-0.22888 0.7595 0.1603 0.4178 0.0239 0.7595-0.30319 0.7595-0.36422 0-0.4701 0.3925-0.27323 1.0127 0.18023 0.5679 0.091 1.0128-0.20316 1.0128-0.28852 0-0.39343 0.3417-0.23312 0.7595 0.1603 0.4177 0.0258 0.7595-0.29895 0.7595-0.32473 0-0.44959 0.2279-0.27747 0.5064 0.17212 0.2784 0.0788 0.5063-0.2074 0.5063-0.28619 0-0.38919 0.3418-0.22889 0.7595 0.16031 0.4178 0.0258 0.7596-0.29895 0.7596-0.32472 0-0.44958 0.2278-0.27746 0.5063s0.0582 0.5064-0.25318 0.5064c-0.31136 0-0.42529 0.2278-0.25317 0.5063s0.0582 0.5064-0.25318 0.5064c-0.31136 0-0.44005 0.2039-0.28596 0.4533 0.15408 0.2493-0.0748 0.5894-0.50857 0.7559-0.43379 0.1665-0.64689 0.5321-0.47355 0.8126 0.17333 0.2804 0.0604 0.5099-0.25097 0.5099-0.31136 0-0.42529 0.2279-0.25317 0.5064 0.17211 0.2785 0.0563 0.5063-0.25742 0.5063-0.33993 0-0.4405 0.4091-0.24894 1.0127 0.17678 0.557 0.0924 1.0127-0.18758 1.0127-0.63804 0-0.53894 2.1608 0.11984 2.613 0.26795 0.184 1.2119 0.2169 2.0977 0.0731 1.3014-0.2112 1.9658 0.0505 3.4613 1.3637 1.0179 0.8937 1.8508 1.8755 1.8508 2.1816 0 0.3062-0.86748-0.2904-1.9277-1.3257-1.5997-1.562-2.2375-1.8595-3.7483-1.7484-1.0013 0.0737-1.72 0.2974-1.5971 0.4972 0.12291 0.1997 0.9133 0.2252 1.7564 0.0566 1.2882-0.2577 1.8308-0.0158 3.3982 1.5147 1.0259 1.0018 2.0931 1.8308 2.3716 1.8423 0.2785 0.0114 0.59288 0.2804 0.69863 0.5977 0.11843 0.3552-0.0575 0.4224-0.458 0.1749-0.42957-0.2655-0.52592-0.2007-0.28387 0.1909 0.20152 0.3261 0.55683 0.4752 0.78958 0.3313 0.23275-0.1438 1.0145 0.7475 1.7372 1.9808 1.4642 2.4985 1.6146 3.0542 0.68111 2.517-0.36773-0.2117-0.45613-0.1711-0.21098 0.0967 0.23208 0.2535 0.66881 0.4609 0.97051 0.4609s0.65406 0.3165 0.78302 0.7034c0.1563 0.4689 0.0177 0.5695-0.4158 0.3016-0.43898-0.2714-0.52612-0.201-0.26816 0.2163 0.21016 0.3401 0.51328 0.4871 0.6736 0.3268 0.16033-0.1603 0.85783 0.2233 1.55 0.8524 0.69218 0.6292 1.0761 0.8296 0.8532 0.4453-0.27254-0.4697-0.18525-0.6252 0.26647-0.4747 0.36947 0.1232 1.0848-0.189 1.5895-0.6938 1.006-1.006 1.23-2.4368 0.38153-2.4368-0.29493 0-0.41424-0.1974-0.26512-0.4387 0.32518-0.5262-1.4303-2.2244-1.8576-1.7971-0.16402 0.164-0.68313-0.2892-1.1536-1.0072-0.47045-0.718-1.0483-1.1862-1.2841-1.0405-0.23579 0.1457-0.80544-0.31-1.2659-1.0127-0.46044-0.7027-1.0052-1.1738-1.2106-1.0469-0.20542 0.127-0.99115-0.4138-1.7461-1.2018-1.201-1.2536-1.3873-1.8888-1.49-5.0815-0.0646-2.0068 0.078-3.7695 0.31693-3.9172 0.23889-0.1476 0.31204-0.5872 0.16254-0.9767-0.14949-0.3896-0.0267-0.7083 0.27283-0.7083 0.29955 0 0.41348-0.3418 0.25318-0.7596-0.1603-0.4177-0.0779-0.7595 0.18311-0.7595s0.34341-0.3418 0.18311-0.7595c-0.1603-0.4178-0.0258-0.7595 0.29895-0.7595 0.32472 0 0.44958-0.2279 0.27746-0.5064-0.17211-0.2785-0.0582-0.5063 0.25318-0.5063 0.31136 0 0.42529-0.2279 0.25317-0.5064-0.17211-0.2785-0.0582-0.5063 0.25318-0.5063 0.31136 0 0.42529-0.2279 0.25318-0.5064-0.17212-0.2785-0.0582-0.5063 0.25317-0.5063s0.42529-0.2279 0.25318-0.5064c-0.17212-0.2785-0.0582-0.5064 0.25317-0.5064s0.4243-0.2294 0.25097-0.5099c-0.17334-0.2804 0.0398-0.6461 0.47356-0.8126 0.43379-0.1664 0.66264-0.5066 0.50856-0.7559-0.15409-0.2493-0.0602-0.4533 0.20868-0.4533 0.26885 0 0.37646-0.5127 0.23913-1.1393-0.20741-0.9464-0.14941-1.0107 0.34251-0.3798 0.47215 0.6056 0.53884 0.3746 0.32894-1.1392-0.15247-1.0997-0.051-1.8989 0.24112-1.8989 0.27742 0 0.36358-0.2278 0.19146-0.5063s-0.0582-0.5064 0.25317-0.5064 0.4253-0.2278 0.25318-0.5063-0.0582-0.5064 0.25318-0.5064c0.31136 0 0.42529-0.2278 0.25317-0.5063s-0.0582-0.5064 0.25318-0.5064c0.31136 0 0.42429-0.2294 0.25096-0.5099-0.17333-0.2804 0.0398-0.6461 0.47356-0.8126 0.43379-0.1664 0.66264-0.5066 0.50856-0.7559s-0.0254-0.4533 0.28597-0.4533c0.31136 0 0.42529-0.2279 0.25317-0.5064s-0.069-0.5063 0.22924-0.5063c0.5905 0 0.44619-3.6958-0.20241-5.1838-0.21092-0.4838-0.1442-1.5662 0.14827-2.4051 0.30509-0.8752 0.33392-1.5254 0.0676-1.5254-0.25527 0-0.31862-0.3792-0.14079-0.8426 0.19314-0.5033 0.11823-0.7158-0.186-0.5278-0.69913 0.4321-0.50579-5.4623 0.20735-6.3216 1.0851-1.3074 5.7483-0.1981 4.9048 1.1668-0.15262 0.2469-0.0219 0.449 0.29058 0.449 0.31243 0 0.5275 0.3987 0.47792 0.8861-0.18326 1.8016 0.0595 2.152 1.4914 2.152 1.5929 0 2.1669-0.8226 1.7327-2.4829-0.1656-0.6333-0.0374-1.0616 0.3177-1.0616 0.3274 0 0.45663-0.2243 0.28716-0.4985-0.39513-0.6394 2.7147-2.5511 4.046-2.4872 0.84737 0.0406 0.80603 0.119-0.25318 0.48-1.2204 0.4159-1.2113 0.4284 0.25348 0.3479 1.7233-0.0946 2.9432 0.4789 2.5098 1.1801-0.16023 0.2593-0.0366 0.4714 0.2748 0.4714 0.31136 0 0.42529 0.2278 0.25317 0.5063s-0.0788 0.5064 0.2074 0.5064c0.28619 0 0.38919 0.3418 0.22889 0.7595-0.16031 0.4177-0.0392 0.7595 0.26906 0.7595 0.30829 0 0.56053 0.5697 0.56053 1.2659s-0.25224 1.2659-0.56053 1.2659-0.42937 0.3418-0.26906 0.7595c0.1603 0.4177 0.0627 0.7595-0.21682 0.7595-0.33044 0-0.32037 0.3511 0.0288 1.0036 0.29539 0.5519 0.52714 1.8621 0.515 2.9115-0.0333 2.8794 0.16682 4.1865 0.641 4.1865 0.23525 0 0.2869 0.2279 0.11478 0.5064-0.17211 0.2785-0.0582 0.5063 0.25318 0.5063 0.31136 0 0.42529 0.2279 0.25317 0.5064-0.17211 0.2785-0.0582 0.5063 0.25318 0.5063 0.31136 0 0.44005 0.204 0.28597 0.4533-0.15409 0.2493 0.084 0.593 0.529 0.7638 0.46134 0.1771 0.68457 0.6352 0.51933 1.0658-0.1594 0.4154-0.0557 0.7552 0.23053 0.7552 0.28618 0 0.37951 0.2279 0.2074 0.5064-0.17212 0.2785-0.0563 0.5063 0.25741 0.5063 0.33993 0 0.4405 0.4092 0.24894 1.0127-0.19789 0.6235-0.091 1.0127 0.27811 1.0127 0.35023 0 0.48941 0.4211 0.3347 1.0127-0.14566 0.557-0.0203 1.0127 0.27851 1.0127 0.29883 0 0.39288 0.1505 0.20899 0.3344s0.12373 0.6552 0.68361 1.0473c0.55987 0.3922 0.88676 0.9253 0.72642 1.1847-0.16035 0.2595-0.0368 0.4717 0.27458 0.4717 0.31137 0 0.4253 0.2279 0.25318 0.5064s-0.0582 0.5063 0.25318 0.5063c0.31136 0 0.42529 0.2279 0.25317 0.5064s-0.0582 0.5063 0.25318 0.5063c0.31136 0 0.42529 0.2279 0.25317 0.5064s-0.0788 0.5064 0.2074 0.5064c0.28619 0 0.37484 0.3791 0.19701 0.8425-0.2339 0.6096-0.13906 0.7287 0.34291 0.4309 0.51083-0.3157 0.59017-0.1086 0.3401 0.8877-0.19201 0.765-0.10036 1.3748 0.22285 1.4825 0.37348 0.1245 0.40193 0.745 0.089 1.9407l-0.46003 1.7577-0.32772-2.7305c-0.32591-2.7155-2.1882-6.9817-3.8917-8.9155-0.49067-0.557-1.0411-1.9984-1.2232-3.2032-0.38291-2.5331-2.7732-7.5203-4.2386-8.8435-0.96953-0.8755-1.055-0.8656-2.4605 0.2859-2.4922 2.0418-6.2465 4.3944-7.5245 4.7151-1.2364 0.3104-3.3566-1.2283-3.8876-2.8214-0.43853-1.3156-1.854-0.0777-3.7138 3.2479-1.4842 2.654-1.7874 3.6329-1.5126 4.8841 0.25796 1.1745 0.0992 1.8386-0.63644 2.6626-3.0929 3.4644-5.7011 10.213-5.7011 14.751v3.2499l3.1486 2.6882c8.0424 6.8663 8.678 7.9848 5.9521 10.474l-1.5326 1.3997 1.0382 0.9396c0.80206 0.7259 0.89151 1.0419 0.39329 1.3898-0.43558 0.304-0.3162 0.361 0.36779 0.1754 0.55699-0.1511 1.3545-0.0556 1.7722 0.2122 1.1359 0.7285 8.0692 0.5599 10.347-0.2515zm-22.926-18.487c0-0.6963 0.11492-0.9811 0.25539-0.633s0.14047 0.9178 0 1.2659-0.25539 0.0633-0.25539-0.6329zm31.332-30.348c-0.7269-1.3582-0.66803-1.5523 0.47072-1.5523 1.0172 0 2.2648 1.635 1.6878 2.212-0.62018 0.6202-1.6405 0.3084-2.1586-0.6597zm1.5012-0.0034c0-0.262-0.22785-0.6173-0.50635-0.7894-0.27849-0.1721-0.50635 0.0423-0.50635 0.4765 0 0.4341 0.22786 0.7894 0.50635 0.7894 0.2785 0 0.50635-0.2144 0.50635-0.4765zm-8.1016-22.562c0-0.9044 0.27367-1.2658 0.95853-1.2658 1.3493 0 1.7457 1.3911 0.57496 2.0176-1.378 0.7375-1.5335 0.6613-1.5335-0.7518zm-16.203 68.942c0-0.0961-0.51268-0.6088-1.1393-1.1393l-1.1393-0.9646 0.96459 1.1393c0.90648 1.0706 1.314 1.3698 1.314 0.9646zm-22.178-8.925c-0.32848-0.5006-1.099 1.3116-1.1064 2.6023-0.0167 2.91 0.74955 3.2304 1.0073 0.4212 0.14055-1.5317 0.18512-2.8923 0.0991-3.0235zm17.114 1.5044c-0.29809-0.557-0.65591-1.0127-0.79516-1.0127-0.13924 0-9e-3 0.4557 0.28881 1.0127 0.29809 0.557 0.65591 1.0127 0.79516 1.0127 0.13924 0 9e-3 -0.4557-0.28881-1.0127zm-12.406-2.0254c0.17212-0.2785 0.0851-0.5063-0.19341-0.5063-0.27849 0-0.64717 0.2278-0.81929 0.5063s-0.0851 0.5064 0.19341 0.5064c0.27849 0 0.64717-0.2279 0.81929-0.5064zm35.713-39.859c0.40921-1.193 0.40772-1.8715-6e-3 -2.5318-0.49475-0.7904-0.52605-0.7611-0.25309 0.2373 0.21583 0.7895 0.0926 1.1393-0.40129 1.1393-0.39203 0-2.1427 0.7146-3.8904 1.5879-4.4182 2.2078-7.0004 2.4388-8.9089 0.7972l-1.4767-1.2702 0.87114-1.8268c0.47912-1.0047 1.6146-2.2801 2.5233-2.8341s1.3463-1.0082 0.97252-1.0092c-0.37381-0.0011-1.259 0.4538-1.9671 1.0108s-1.5985 1.0127-1.9787 1.0127-0.69435 0.2848-0.69815 0.6329c-4e-3 0.3481-0.1407 1.1318-0.30421 1.7415-0.22999 0.8577 0.2346 1.6256 2.0523 3.3921 2.0937 2.0349 2.6369 2.3001 4.9879 2.4359 3.4611 0.1999 7.6192-2.0151 8.4768-4.5155zm-1.8302-4.5181c0.23859-0.6217 0.15657-0.7026-0.32559-0.3211-0.35449 0.2805-0.98632 0.6365-1.4041 0.7911-0.51842 0.192-0.41507 0.2939 0.32559 0.3212 0.59681 0.022 1.2286-0.334 1.4041-0.7912zm-10.844-1.4493c0-0.4623 0.32174-0.6223 0.88612-0.4408 0.72243 0.2324 0.75027 0.1889 0.15076-0.2357-0.40444-0.2863-0.87152-0.4365-1.0379-0.3336-0.16643 0.1028-0.61267-0.311-0.99164-0.9196-0.65287-1.0484-0.63825-1.0666 0.27842-0.347 0.88238 0.6928 0.90985 0.6858 0.3124-0.0785-1.0596-1.3556-2.403-0.8288-2.2646 0.888 0.10069 1.2494 0.0492 1.3177-0.34417 0.4564-0.32438-0.7102-0.47321-0.7816-0.49816-0.2393-0.0196 0.4254 0.31968 1.2807 0.75389 1.9006 0.63731 0.9099 0.97892 1.0258 1.7722 0.6012 0.54051-0.2892 0.98274-0.8525 0.98274-1.2517zm7.5953 1.0146c-0.74217-0.8943 0.0301-1.0332 0.9012-0.1621 0.95041 0.9504 2.9405-0.3556 2.8735-1.8858-0.0298-0.6798-0.24419-1.4086-0.47652-1.6195-0.23232-0.2109-0.22821-0.0416 9e-3 0.3761 0.37111 0.6532 0.31234 0.6629-0.4196 0.0692-0.46813-0.3796-0.72628-0.8923-0.57366-1.1393 0.15261-0.2469 0.0199-0.4489-0.29492-0.4489-0.77217 0-2.0498 1.3196-1.6574 1.7119 0.1724 0.1724 0.0476 0.3135-0.27729 0.3135-0.32491 0-0.59074 0.4557-0.59074 1.0127 0 0.8285-0.33757 1.0127-1.8566 1.0127-1.0211 0-1.7079 0.1487-1.5262 0.3304s1.0133 0.311 1.8478 0.2873 1.6487 0.1694 1.8092 0.4291 0.42024 0.4722 0.57715 0.4722 2e-3 -0.3418-0.34506-0.7595zm5.3744-2.7211c-0.34476-2.2006-1.638-3.6083-3.3149-3.6083-1.809 0-3.5825 1.3385-3.5604 2.6871 0.0174 1.0627 0.0673 1.0505 1.1583-0.2819 2.2833-2.7888 5.2562-1.0528 4.7497 2.7735-0.26591 2.0091-0.23208 2.0912 0.47429 1.1507 0.48869-0.6507 0.66492-1.6235 0.49295-2.7211zm-12.201-2.0971c-0.0414-0.5614-0.37849-1.3019-0.74919-1.6457-0.53971-0.5005-0.59612-0.4881-0.28313 0.0622 0.29404 0.5169 0.13485 0.6059-0.64263 0.3591-0.56842-0.1804-1.18-0.0909-1.3592 0.199-0.17912 0.2898 2e-3 0.5269 0.40174 0.5269 0.40008 0 1.0111 0.3418 1.3578 0.7595 0.87169 1.0504 1.3638 0.9496 1.2746-0.261z" fill="none" stroke="#000" stroke-width=".375"/>
</svg>
