<?xml version="1.0" encoding="UTF-8"?>
<svg width="300" height="155" version="1.1" viewBox="0 0 300 155" xmlns="http://www.w3.org/2000/svg" xmlns:xlink="http://www.w3.org/1999/xlink">
 <g id="a" transform="matrix(.63768 0 0 .63768 48.609 -470.92)">
  <path d="m210.17 859.92c4.533-2.0828 15.804-3.798 15.804-0.12252 0 3.6754-15.804 0.12252-15.804 0.12252z" color="#000000" fill-rule="evenodd"/>
  <rect x="90" y="853.5" width="138" height="11.5" color="#000000" opacity="0" stroke-width=".25px"/>
 </g>
 <use transform="matrix(1.5824 -.94905 .94905 1.5824 -160.44 97.51)" width="744.09448" height="1052.3622" xlink:href="#a"/>
 <use transform="matrix(.15802 -.1467 .1467 .15802 115 86.842)" width="744.09448" height="1052.3622" xlink:href="#a"/>
 <use transform="matrix(.3812 -.31038 .31038 .3812 68.919 94.208)" width="744.09448" height="1052.3622" xlink:href="#a"/>
 <use transform="matrix(.9161 -.77244 .77244 .9161 -46.896 122.33)" width="744.09448" height="1052.3622" xlink:href="#a"/>
 <use transform="matrix(.27118 1.0204 -1.0204 .27118 187.9 -96.936)" width="744.09448" height="1052.3622" xlink:href="#a"/>
 <use transform="matrix(.054495 1.1179 -1.1179 .054495 227.91 -94.879)" width="744.09448" height="1052.3622" xlink:href="#a"/>
 <use transform="matrix(1.3012 -.34248 .34248 1.3012 -71.549 28.181)" width="744.09448" height="1052.3622" xlink:href="#a"/>
 <use transform="matrix(.43783 -.057061 .057061 .43783 79.931 51.849)" width="744.09448" height="1052.3622" xlink:href="#a"/>
 <use transform="matrix(.30681 .099409 -.099409 .30681 111.63 38.468)" width="744.09448" height="1052.3622" xlink:href="#a"/>
 <use transform="matrix(-.0307 .73379 -.73379 -.0307 211.11 -30.699)" width="744.09448" height="1052.3622" xlink:href="#a"/>
 <use transform="matrix(.5877 1.5039 -1.5039 .5877 177.65 -193.84)" width="744.09448" height="1052.3622" xlink:href="#a"/>
 <use transform="matrix(-.063589 .24175 -.24175 -.063589 178.15 45.64)" width="744.09448" height="1052.3622" xlink:href="#a"/>
 <use transform="matrix(-.11279 .4804 -.4804 -.11279 203.91 13.632)" width="744.09448" height="1052.3622" xlink:href="#a"/>
 <use transform="matrix(.47048 .34479 -.34479 .47048 105.98 -10.941)" width="744.09448" height="1052.3622" xlink:href="#a"/>
 <use transform="matrix(.90328 1.2976 -1.2976 .90328 114.43 -187.19)" width="744.09448" height="1052.3622" xlink:href="#a"/>
 <use transform="matrix(1.6387 .41348 -.41348 1.6387 -63.969 -111.21)" width="744.09448" height="1052.3622" xlink:href="#a"/>
 <use transform="matrix(1.3754 .84138 -.84138 1.3754 8.4863 -155.11)" width="744.09448" height="1052.3622" xlink:href="#a"/>
 <use transform="matrix(.37243 1.258 -1.258 .37243 191.01 -140.37)" width="744.09448" height="1052.3622" xlink:href="#a"/>
 <use transform="matrix(.97419 .80737 -.80737 .97419 66.043 -119.12)" width="744.09448" height="1052.3622" xlink:href="#a"/>
 <use transform="matrix(-.73194 1.6333 -1.6333 -.73194 385.56 -111.62)" width="744.09448" height="1052.3622" xlink:href="#a"/>
 <use transform="matrix(.67313 .51862 -.51862 .67313 88.967 -52.623)" width="744.09448" height="1052.3622" xlink:href="#a"/>
 <use transform="matrix(.02547 .99819 -.99819 .02547 223.05 -74.684)" width="744.09448" height="1052.3622" xlink:href="#a"/>
 <use transform="matrix(-.036052 .53209 -.53209 -.036052 196.38 -.031024)" width="744.09448" height="1052.3622" xlink:href="#a"/>
 <use transform="matrix(-1.0903 .48582 -.48582 -1.0903 350.95 88.09)" width="744.09448" height="1052.3622" xlink:href="#a"/>
 <use transform="matrix(-.69835 .18974 -.18974 -.69835 269.36 102.32)" width="744.09448" height="1052.3622" xlink:href="#a"/>
 <use transform="matrix(.058852 .81222 -.81222 .058852 203.72 -49.36)" width="744.09448" height="1052.3622" xlink:href="#a"/>
 <use transform="matrix(.72687 1.5656 -1.5656 .72687 161.53 -213.81)" width="744.09448" height="1052.3622" xlink:href="#a"/>
 <use transform="matrix(-.93737 .98403 -.98403 -.93737 366.38 1.5841)" width="744.09448" height="1052.3622" xlink:href="#a"/>
 <use transform="matrix(-1.744 -.33229 .33229 -1.744 386.02 261.15)" width="744.09448" height="1052.3622" xlink:href="#a"/>
 <use transform="matrix(.22296 1.1443 -1.1443 .22296 204.67 -111.81)" width="744.09448" height="1052.3622" xlink:href="#a"/>
 <use transform="matrix(-.34393 1.1531 -1.1531 -.34393 290.38 -69.467)" width="744.09448" height="1052.3622" xlink:href="#a"/>
 <use transform="matrix(-.18401 .80395 -.80395 -.18401 239.51 -29.417)" width="744.09448" height="1052.3622" xlink:href="#a"/>
 <use transform="matrix(-.65776 .631 -.631 -.65776 297.25 33.007)" width="744.09448" height="1052.3622" xlink:href="#a"/>
 <use transform="matrix(-1.1784 .0080053 -.0080053 -1.1784 327.38 166.55)" width="744.09448" height="1052.3622" xlink:href="#a"/>
 <use transform="matrix(-1.1888 .96076 -.96076 -1.1888 402.3 24.434)" width="744.09448" height="1052.3622" xlink:href="#a"/>
 <use transform="matrix(-.58046 -.030743 .030743 -.58046 234.7 126.32)" width="744.09448" height="1052.3622" xlink:href="#a"/>
 <use transform="matrix(-.867 .42505 -.42505 -.867 312.78 80.012)" width="744.09448" height="1052.3622" xlink:href="#a"/>
 <use transform="matrix(-.70082 .10013 -.10013 -.70082 262.83 115.95)" width="744.09448" height="1052.3622" xlink:href="#a"/>
 <use transform="matrix(-1.7631 -.2264 .2264 -1.7631 397.02 246.73)" width="744.09448" height="1052.3622" xlink:href="#a"/>
 <use transform="matrix(-.98245 -1.0913 1.0913 -.98245 213.33 316.36)" width="744.09448" height="1052.3622" xlink:href="#a"/>
 <use transform="matrix(-.1126 -.1117 .1117 -.1126 158.29 102.43)" width="744.09448" height="1052.3622" xlink:href="#a"/>
 <use transform="matrix(-.46512 -.23192 .23192 -.46512 201.91 147.61)" width="744.09448" height="1052.3622" xlink:href="#a"/>
 <use transform="matrix(-1.3449 .031643 -.031643 -1.3449 354.17 175.82)" width="744.09448" height="1052.3622" xlink:href="#a"/>
 <use transform="matrix(-.8418 .7111 -.7111 -.8418 331.03 35.164)" width="744.09448" height="1052.3622" xlink:href="#a"/>
 <use transform="matrix(-.40673 -1.7162 1.7162 -.40673 78.85 365.76)" width="744.09448" height="1052.3622" xlink:href="#a"/>
 <use transform="matrix(-.51273 -1.1191 1.1191 -.51273 140.74 284.35)" width="744.09448" height="1052.3622" xlink:href="#a"/>
 <use transform="matrix(-1.0098 .39705 -.39705 -1.0098 332.04 95.207)" width="744.09448" height="1052.3622" xlink:href="#a"/>
 <use transform="matrix(-.34237 -1.2544 1.2544 -.34237 104.76 291.53)" width="744.09448" height="1052.3622" xlink:href="#a"/>
 <use transform="matrix(-1.3214 -.056325 .056325 -1.3214 343.87 187.21)" width="744.09448" height="1052.3622" xlink:href="#a"/>
 <use transform="matrix(.081244 -1.4924 1.4924 .081244 22.892 294.61)" width="744.09448" height="1052.3622" xlink:href="#a"/>
 <use transform="matrix(-.73546 -.52141 .52141 -.73546 220.17 211.85)" width="744.09448" height="1052.3622" xlink:href="#a"/>
 <use transform="matrix(-.82671 -.39099 .39099 -.82671 243.9 199.31)" width="744.09448" height="1052.3622" xlink:href="#a"/>
 <use transform="matrix(.095044 -1.2019 1.2019 .095044 43.189 249.98)" width="744.09448" height="1052.3622" xlink:href="#a"/>
 <use transform="matrix(-.40752 -.94837 .94837 -.40752 138.1 250.64)" width="744.09448" height="1052.3622" xlink:href="#a"/>
 <use transform="matrix(.23737 -.78446 .78446 .23737 53.988 176.4)" width="744.09448" height="1052.3622" xlink:href="#a"/>
 <use transform="matrix(.29723 -.3316 .3316 .29723 79.881 103.86)" width="744.09448" height="1052.3622" xlink:href="#a"/>
 <use transform="matrix(-.070897 -.56023 .56023 -.070897 117.49 166.5)" width="744.09448" height="1052.3622" xlink:href="#a"/>
 <use transform="matrix(-.0092847 -.5912 .5912 -.0092847 105.87 166.4)" width="744.09448" height="1052.3622" xlink:href="#a"/>
 <use transform="matrix(.64749 -.89537 .89537 .64749 -16.071 161.45)" width="744.09448" height="1052.3622" xlink:href="#a"/>
 <use transform="matrix(.20617 -.6552 .6552 .20617 68.62 159.41)" width="744.09448" height="1052.3622" xlink:href="#a"/>
 <use transform="matrix(-.22868 -1.0741 1.0741 -.22868 101.59 255.73)" width="744.09448" height="1052.3622" xlink:href="#a"/>
 <use transform="matrix(-1.157 -1.3956 1.3956 -1.157 216.09 375.44)" width="744.09448" height="1052.3622" xlink:href="#a"/>
 <use transform="matrix(-1.0291 -1.2779 1.2779 -1.0291 205.95 347.94)" width="744.09448" height="1052.3622" xlink:href="#a"/>
 <use transform="matrix(.83814 -1.3323 1.3323 .83814 -78.313 212.31)" width="744.09448" height="1052.3622" xlink:href="#a"/>
 <use transform="matrix(-.097413 -1.1509 1.1509 -.097413 75.99 257.14)" width="744.09448" height="1052.3622" xlink:href="#a"/>
 <use transform="matrix(-.21499 -.73072 .73072 -.21499 125.98 203.17)" width="744.09448" height="1052.3622" xlink:href="#a"/>
 <use transform="matrix(1.6883 -.17049 .17049 1.6883 -116.37 -27.429)" width="744.09448" height="1052.3622" xlink:href="#a"/>
 <use transform="matrix(.55378 -.20385 .20385 .55378 51.236 64.939)" width="744.09448" height="1052.3622" xlink:href="#a"/>
 <use transform="matrix(1.1627 -.6377 .6377 1.1627 -73.507 83.13)" width="744.09448" height="1052.3622" xlink:href="#a"/>
 <use transform="matrix(1.5217 -.57461 .57461 1.5217 -122.51 46.016)" width="744.09448" height="1052.3622" xlink:href="#a"/>
 <use transform="matrix(.54625 -.90456 .90456 .54625 -1.5938 170.63)" width="744.09448" height="1052.3622" xlink:href="#a"/>
</svg>
