<?xml version="1.0" encoding="UTF-8"?>
<svg width="300" height="144" version="1.1" viewBox="0 0 300 144" xmlns="http://www.w3.org/2000/svg" xmlns:xlink="http://www.w3.org/1999/xlink">
 <path id="a" d="m78.5 71.65h143" color="#000000" fill="none" stroke="#000" stroke-width=".3"/>
 <use transform="rotate(1.5 150.01 71.648)" width="320" height="2150.5" xlink:href="#a"/>
 <use transform="rotate(3 150 71.652)" width="320" height="2150.5" xlink:href="#a"/>
 <use transform="rotate(4.5 150 71.649)" width="320" height="2150.5" xlink:href="#a"/>
 <use transform="rotate(6 150 71.653)" width="320" height="2150.5" xlink:href="#a"/>
 <use transform="rotate(7.5 150 71.651)" width="320" height="2150.5" xlink:href="#a"/>
 <use transform="rotate(9 150 71.652)" width="320" height="2150.5" xlink:href="#a"/>
 <use transform="rotate(10.5 150 71.648)" width="320" height="2150.5" xlink:href="#a"/>
 <use transform="rotate(18 150 71.65)" width="320" height="2150.5" xlink:href="#a"/>
 <use transform="rotate(19.5 150 71.649)" width="320" height="2150.5" xlink:href="#a"/>
 <use transform="rotate(21 150 71.649)" width="320" height="2150.5" xlink:href="#a"/>
 <use transform="rotate(22.5 150 71.651)" width="320" height="2150.5" xlink:href="#a"/>
 <use transform="rotate(24 150 71.649)" width="320" height="2150.5" xlink:href="#a"/>
 <use transform="rotate(25.5 150 71.65)" width="320" height="2150.5" xlink:href="#a"/>
 <use transform="rotate(27 150 71.651)" width="320" height="2150.5" xlink:href="#a"/>
 <use transform="rotate(28.5 150 71.65)" width="320" height="2150.5" xlink:href="#a"/>
 <use transform="rotate(36 150 71.651)" width="320" height="2150.5" xlink:href="#a"/>
 <use transform="matrix(.79335 .60876 -.60876 .79335 74.615 -76.508)" width="320" height="2150.5" xlink:href="#a"/>
 <use transform="rotate(39 150 71.65)" width="320" height="2150.5" xlink:href="#a"/>
 <use transform="rotate(40.5 150 71.65)" width="320" height="2150.5" xlink:href="#a"/>
 <use transform="rotate(42 150 71.65)" width="320" height="2150.5" xlink:href="#a"/>
 <use transform="rotate(43.5 150 71.65)" width="320" height="2150.5" xlink:href="#a"/>
 <use transform="rotate(45 150 71.65)" width="320" height="2150.5" xlink:href="#a"/>
 <use transform="rotate(46.5 150 71.65)" width="320" height="2150.5" xlink:href="#a"/>
 <use transform="rotate(54 150 71.65)" width="320" height="2150.5" xlink:href="#a"/>
 <use transform="rotate(55.5 150 71.65)" width="320" height="2150.5" xlink:href="#a"/>
 <use transform="rotate(57 150 71.65)" width="320" height="2150.5" xlink:href="#a"/>
 <use transform="rotate(58.5 150 71.65)" width="320" height="2150.5" xlink:href="#a"/>
 <use transform="rotate(60 150 71.65)" width="320" height="2150.5" xlink:href="#a"/>
 <use transform="rotate(61.5 150 71.65)" width="320" height="2150.5" xlink:href="#a"/>
 <use transform="rotate(63 150 71.65)" width="320" height="2150.5" xlink:href="#a"/>
 <use transform="rotate(64.5 150 71.65)" width="320" height="2150.5" xlink:href="#a"/>
 <use transform="rotate(72 150 71.65)" width="320" height="2150.5" xlink:href="#a"/>
 <use transform="rotate(73.5 150 71.65)" width="320" height="2150.5" xlink:href="#a"/>
 <use transform="rotate(75 150 71.65)" width="320" height="2150.5" xlink:href="#a"/>
 <use transform="rotate(76.5 150 71.65)" width="320" height="2150.5" xlink:href="#a"/>
 <use transform="rotate(78 150 71.65)" width="320" height="2150.5" xlink:href="#a"/>
 <use transform="rotate(79.5 150 71.65)" width="320" height="2150.5" xlink:href="#a"/>
 <use transform="rotate(81 150 71.65)" width="320" height="2150.5" xlink:href="#a"/>
 <use transform="rotate(82.5 150 71.65)" width="320" height="2150.5" xlink:href="#a"/>
 <use transform="rotate(90,150,71.65)" width="320" height="2150.5" xlink:href="#a"/>
 <use transform="rotate(91.5 150 71.65)" width="320" height="2150.5" xlink:href="#a"/>
 <use transform="rotate(93 150 71.65)" width="320" height="2150.5" xlink:href="#a"/>
 <use transform="rotate(94.5 150 71.65)" width="320" height="2150.5" xlink:href="#a"/>
 <use transform="rotate(96 150 71.65)" width="320" height="2150.5" xlink:href="#a"/>
 <use transform="rotate(97.5 150 71.65)" width="320" height="2150.5" xlink:href="#a"/>
 <use transform="rotate(99 150 71.65)" width="320" height="2150.5" xlink:href="#a"/>
 <use transform="rotate(100.5 150 71.65)" width="320" height="2150.5" xlink:href="#a"/>
 <use transform="rotate(108 150 71.65)" width="320" height="2150.5" xlink:href="#a"/>
 <use transform="rotate(109.5 150 71.65)" width="320" height="2150.5" xlink:href="#a"/>
 <use transform="rotate(111 150 71.65)" width="320" height="2150.5" xlink:href="#a"/>
 <use transform="rotate(112.5 150 71.65)" width="320" height="2150.5" xlink:href="#a"/>
 <use transform="rotate(114 150 71.65)" width="320" height="2150.5" xlink:href="#a"/>
 <use transform="rotate(115.5 150 71.65)" width="320" height="2150.5" xlink:href="#a"/>
 <use transform="rotate(117 150 71.65)" width="320" height="2150.5" xlink:href="#a"/>
 <use transform="rotate(118.5 150 71.65)" width="320" height="2150.5" xlink:href="#a"/>
 <use transform="rotate(126 150 71.65)" width="320" height="2150.5" xlink:href="#a"/>
 <use transform="matrix(-.60876 .79335 -.79335 -.60876 298.16 -3.735)" width="320" height="2150.5" xlink:href="#a"/>
 <use transform="rotate(129 150 71.65)" width="320" height="2150.5" xlink:href="#a"/>
 <use transform="rotate(130.5 150 71.65)" width="320" height="2150.5" xlink:href="#a"/>
 <use transform="rotate(132 150 71.65)" width="320" height="2150.5" xlink:href="#a"/>
 <use transform="rotate(133.5 150 71.65)" width="320" height="2150.5" xlink:href="#a"/>
 <use transform="rotate(135 150 71.65)" width="320" height="2150.5" xlink:href="#a"/>
 <use transform="rotate(136.5 150 71.65)" width="320" height="2150.5" xlink:href="#a"/>
 <use transform="rotate(144 150 71.65)" width="320" height="2150.5" xlink:href="#a"/>
 <use transform="rotate(145.5 150 71.651)" width="320" height="2150.5" xlink:href="#a"/>
 <use transform="rotate(147 150 71.649)" width="320" height="2150.5" xlink:href="#a"/>
 <use transform="rotate(148.5 150 71.651)" width="320" height="2150.5" xlink:href="#a"/>
 <use transform="rotate(150 150 71.65)" width="320" height="2150.5" xlink:href="#a"/>
 <use transform="rotate(151.5 150 71.65)" width="320" height="2150.5" xlink:href="#a"/>
 <use transform="rotate(153 150 71.65)" width="320" height="2150.5" xlink:href="#a"/>
 <use transform="rotate(154.5 150 71.65)" width="320" height="2150.5" xlink:href="#a"/>
 <use transform="rotate(162 150 71.649)" width="320" height="2150.5" xlink:href="#a"/>
 <use transform="rotate(163.5 150 71.65)" width="320" height="2150.5" xlink:href="#a"/>
 <use transform="rotate(165 150 71.65)" width="320" height="2150.5" xlink:href="#a"/>
 <use transform="rotate(166.5 150 71.649)" width="320" height="2150.5" xlink:href="#a"/>
 <use transform="rotate(168 150 71.651)" width="320" height="2150.5" xlink:href="#a"/>
 <use transform="rotate(169.5 150 71.649)" width="320" height="2150.5" xlink:href="#a"/>
 <use transform="rotate(171 150 71.65)" width="320" height="2150.5" xlink:href="#a"/>
 <use transform="rotate(172.5 150 71.651)" width="320" height="2150.5" xlink:href="#a"/>
</svg>
