<?xml version="1.0" encoding="utf-8"?>
<!-- Generator: Adobe Illustrator 24.1.3, SVG Export Plug-In . SVG Version: 6.00 Build 0)  -->
<svg version="1.1" id="Calque_1" xmlns="http://www.w3.org/2000/svg" xmlns:xlink="http://www.w3.org/1999/xlink" x="0px" y="0px"
	 viewBox="0 0 100 100" style="enable-background:new 0 0 100 100;" xml:space="preserve">
<style type="text/css">
	.st0{fill:#003052;}
</style>
<g id="Calque_2_1_">
	<g id="Calque_1-2">
		<path class="st0" d="M3.4,3.4c4.7-4.5,12-4.5,16.7,0l29.9,30l29.9-30c4.7-4.5,12-4.5,16.7,0c4.5,4.7,4.5,12,0,16.7L66.6,50
			l30,29.9c4.6,4.6,4.6,12.1,0,16.7s-12.1,4.6-16.7,0L50,66.6l-29.9,30c-4.7,4.5-12,4.5-16.7,0c-4.5-4.7-4.5-12,0-16.7l30-29.9
			l-30-29.9C-1.1,15.4-1.1,8.1,3.4,3.4z"/>
	</g>
</g>
</svg>
