<?xml version="1.0" encoding="utf-8"?>
<!-- Generator: Adobe Illustrator 24.3.0, SVG Export Plug-In . SVG Version: 6.00 Build 0)  -->
<svg version="1.1" id="Calque_1" xmlns="http://www.w3.org/2000/svg" xmlns:xlink="http://www.w3.org/1999/xlink" x="0px" y="0px"
	 viewBox="0 0 722.5 266.4" style="enable-background:new 0 0 722.5 266.4;" xml:space="preserve">
<style type="text/css">
	.st0{fill:#003052;}
</style>
<g>
	<path class="st0" d="M336,20.8L328.8,62c-2,11.5-13,20.8-24.5,20.8H327h22.7h22.8h22.7c11.5,0,22.4-9.3,24.5-20.8l7.3-41.2
		C429,9.3,421.3,0,409.9,0h-22.7h-22.8h-22.7H319C330.4,0,338,9.3,336,20.8z"/>
	<path class="st0" d="M428.7,135.8L428.7,135.8H467l1.6-9.1c-24,0-40.1-19.5-35.8-43.5l1.4-8h-4.8c-1.5,8.4-9.5,15.2-17.9,15.2h-20
		l0,0H303c-10,0-16.7-8.1-14.9-18.1c1.8-10,11.3-18.1,21.3-18.1c5.1,0,9.3,2.1,12,5.5c0.2-0.5,0.3-1,0.4-1.6l1.9-11
		c-3.9-1.2-8.2-1.9-12.7-1.9c-25,0-48.8,20.3-53.2,45.3c-4.4,25,12.3,45.3,37.3,45.3l0,0h45.2H428.7z"/>
	<path class="st0" d="M29.6,201.9c-7.7-2.6-14.3-5.3-14.3-12.9c0-6.8,5.2-10.2,11.4-10.2c4.9,0,11.2,2.3,14.9,6.3l6.4-8.2
		c-5.1-5-12.5-8.2-20.5-8.2c-11.5,0-23.9,6.3-23.9,21.1s12.1,19,21.5,22.4c7.7,2.8,14.4,5,14.4,11.7c0,6.4-6,9.3-12.6,9.3
		c-6.8,0-14-3.1-18.7-9l-7.8,9.4c7.1,7.1,16.8,10.5,25.9,10.5c13.3,0,25.4-7.1,25.4-21.4C51.7,208.8,40.3,205.5,29.6,201.9z"/>
	<path class="st0" d="M116.9,233.1c-2,0-3.8-1.1-3.8-4.7v-37.8h-11.2v6.4c-3.6-5.8-10.5-7.7-16.5-7.7c-12.9,0-26,8.9-26,27.2
		c0,17.6,12.2,27,24.8,27c6.9,0,14.5-2.9,18.9-9c1.4,6.2,6.8,8.9,11.8,8.9c3.4,0,6.9-1.2,9.4-4l-3.3-7.6
		C120,232.4,118.2,233.1,116.9,233.1z M86,233.1c-7.7,0-15.2-5.6-15.2-16.9c0-11.5,7.7-16.9,15.3-16.9c7.8,0,15.6,5.5,15.6,16.8
		C101.7,227.4,93.8,233.1,86,233.1z"/>
	<path class="st0" d="M150.6,233.5c-3.7,0-6.6-2.1-6.6-7.9v-55.2h-11.4v55.8c0,12.3,7.7,17.3,16.1,17.3c3.4,0,6.9-0.8,10.1-2.4
		l-3.7-8.5C153.5,233.2,152,233.5,150.6,233.5z"/>
	<path class="st0" d="M188.3,189.2c-13.5,0-26.4,9.3-26.4,26.9c0,17.8,13.5,27.3,26.9,27.3c8.6,0,16.6-3.6,22.3-10.9l-7.3-7.1
		c-3.6,5-8.9,7.3-14.6,7.3c-6.7,0-13.3-3.2-15-11.3h37.3c0.4-2.7,0.4-4.7,0.4-6.5C212,197.5,201,189.2,188.3,189.2z M173.9,212
		c0.9-8.4,7.2-12.6,13.9-12.6c6.6,0,12.5,4.1,12.7,12.6H173.9z"/>
	<path class="st0" d="M246.3,212c-6.9-1.2-12.2-2.5-12.2-7c0-3.9,4.1-5.9,9.2-5.9c4.6,0,9.3,1.6,12.6,4.4l6.5-8.4
		c-5.1-3.8-11.9-6-19.1-6c-10.9,0-20.7,4.9-20.7,16c0,11.7,10.6,14.6,19,16.5c6.5,1.4,12,2.4,12,6.3c0,3-3.9,5.3-9.4,5.3
		s-11.9-2.2-16.7-8l-8.4,7.9c5.6,6.9,15.4,10.3,24.1,10.3c11.7,0,21.9-6.3,21.9-17C265.1,215.9,255.1,213.7,246.3,212z"/>
	<path class="st0" d="M333.8,168.7c-21.1,0-37.2,16.2-37.2,37.6c0,21.3,16.1,37.6,37.2,37.6s37.2-16.3,37.2-37.6
		C371,184.9,354.8,168.7,333.8,168.7z M333.8,232.6c-14,0-25.2-11.1-25.2-26.3s11.2-26.3,25.2-26.3c13.9,0,25.2,11.1,25.2,26.3
		S347.6,232.6,333.8,232.6z"/>
	<path class="st0" d="M422.5,196c-3.6-4.6-10.1-6.9-16.4-6.9c-12.7,0-25.9,9.3-25.9,27c0,17.4,11.9,27.2,24.7,27.2
		c6.6,0,13-2.4,17.8-7.8v6.7h11.2v-72h-11.4L422.5,196L422.5,196z M406.8,233.1c-8.1,0-15.3-5.7-15.3-16.8c0-11.4,7.5-17,15.4-17
		c7.8,0,15.6,5.7,15.6,16.9S414.6,233.1,406.8,233.1z"/>
	<path class="st0" d="M485.3,215.4c0,10.1-6.4,15.4-13.5,15.4c-6.4,0-11-4.3-11-12.2v-28.1h-11.4v29.8c0,14.8,10.8,21.5,20.6,21.5
		c7.4,0,12.5-4.1,15.5-9.3v8.3c0,10-6.7,15-14.1,15c-7.1,0-13.7-4.6-15.3-12.6l-10.8,3.7c3.1,13.3,14.6,19.4,25.6,19.4
		c13,0,25.8-8.6,25.8-25.5v-50.4h-11.4L485.3,215.4L485.3,215.4z"/>
	<path class="st0" d="M534.2,212c-6.9-1.2-12.2-2.5-12.2-7c0-3.9,4.1-5.9,9.2-5.9c4.6,0,9.3,1.6,12.6,4.4l6.5-8.4
		c-5.1-3.8-11.9-6-19.1-6c-10.9,0-20.7,4.9-20.7,16c0,11.7,10.6,14.6,19,16.5c6.5,1.4,12,2.4,12,6.3c0,3-3.9,5.3-9.4,5.3
		c-5.4,0-11.9-2.2-16.7-8l-8.4,7.9c5.6,6.9,15.4,10.3,24.1,10.3c11.7,0,21.9-6.3,21.9-17C553,215.9,542.9,213.7,534.2,212z"/>
	<path class="st0" d="M586.3,212c-6.9-1.2-12.2-2.5-12.2-7c0-3.9,4.1-5.9,9.2-5.9c4.6,0,9.3,1.6,12.6,4.4l6.5-8.4
		c-5.1-3.8-11.9-6-19.1-6c-10.9,0-20.7,4.9-20.7,16c0,11.7,10.6,14.6,19,16.5c6.5,1.4,12,2.4,12,6.3c0,3-3.9,5.3-9.4,5.3
		c-5.4,0-11.9-2.2-16.7-8l-8.4,7.9c5.6,6.9,15.4,10.3,24.1,10.3c11.7,0,21.9-6.3,21.9-17C605.1,215.9,595.1,213.7,586.3,212z"/>
	<path class="st0" d="M638.8,189.2c-13.5,0-26.4,9.3-26.4,26.9c0,17.8,13.5,27.3,26.9,27.3c8.6,0,16.6-3.6,22.3-10.9l-7.3-7.1
		c-3.6,5-8.9,7.3-14.6,7.3c-6.7,0-13.3-3.2-15-11.3H662c0.4-2.7,0.4-4.7,0.4-6.5C662.4,197.5,651.4,189.2,638.8,189.2z M624.4,212
		c0.9-8.4,7.2-12.6,13.9-12.6c6.6,0,12.5,4.1,12.8,12.6H624.4z"/>
	<path class="st0" d="M710.7,190.5v24.9c0,10.1-6.4,15.4-13.5,15.4c-6.4,0-11-4.3-11-12.2v-28.1h-11.4v29.8
		c0,14.8,10.8,21.5,20.6,21.5c7.4,0,12.5-4.1,15.5-9.3v8.3c0,10-6.7,15-14.1,15c-7.1,0-13.7-4.6-15.3-12.6l-10.8,3.7
		c3.1,13.3,14.6,19.4,25.6,19.4c13,0,25.8-8.6,25.8-25.5v-50.4h-11.4V190.5z"/>
</g>
</svg>
