<?xml version="1.0" encoding="UTF-8"?>
<svg width="300" height="134" version="1.1" viewBox="0 0 300 134" xmlns="http://www.w3.org/2000/svg">
 <text x="54.970478" y="6" fill="#000000" font-family="'Liberation Sans',Arial,sans-serif" stroke-width="3pt" text-align="center" text-anchor="middle" style="line-height:0%" xml:space="preserve"><tspan x="54.970478" y="6" font-size="6px" text-align="center" text-anchor="middle" style="line-height:1.1">Original</tspan></text>
 <text x="149.85327" y="6" fill="#000000" font-family="'Liberation Sans',Arial,sans-serif" stroke-width="3pt" text-align="center" text-anchor="middle" style="line-height:0%" xml:space="preserve"><tspan x="149.85327" y="6" font-size="6px" text-align="center" text-anchor="middle" style="line-height:1.1">Simplification légère</tspan></text>
 <text x="245.08183" y="6" fill="#000000" font-family="'Liberation Sans',Arial,sans-serif" stroke-width="3pt" text-align="center" text-anchor="middle" style="line-height:0%" xml:space="preserve"><tspan x="245.08183" y="6" font-size="6px" text-align="center" text-anchor="middle" style="line-height:1.1">Simplification agressive</tspan></text>
 <path d="m92.283 92.194 0.3215 9.6448-1.286 4.0724-1.6075 0.6431v3.8581l-0.96451-0.1072 0.21434 4.8226-1.7147 0.2144-0.85734 10.61 6.5372 4.1795-1.7147 2.6791-10.717-1.9288-10.395 1.9288-1.7147-2.6791 5.2512-3.3221-5.7871-1.179-11.253 2.3575v-1.3928l7.0731-5.3586-1.929-18.862c-1.2146-0.2143-2.3934-0.5359-3.5365-0.9646l-1.5004-16.075-2.572-0.4287-1.1788-3.3222-0.96451 0.2144-2.4649 33.008-2.0362 0.5359 9.1093 5.894-1.1788 3.0006-14.789-3.215-6.0014 1.3934-0.42867 4.7155 5.4656 4.9293c-0.28578 0.2862-0.4644 0.679-0.53584 1.179-0.07145 0.5-0.28578 0.7503-0.64301 0.7503-0.21433 0-0.35722-0.0359-0.42867-0.1072l-9.2164-1.6077-9.8594 1.7149-0.85734-1.9293 5.4656-4.715-1.1788-12.217h-1.3932c-0.14289-1.2148-0.25006-2.4292-0.3215-3.6436-0.07145-1.1431-0.14289-2.3221-0.21434-3.5365l-1.1788-0.8575-2.2505-4.0724 0.64301-11.788h-1.286l1.286-7.7161c0.28578-0.8574 0.71445-1.5005 1.286-1.9293 0.643-0.4287 1.3217-0.7498 2.0362-0.9641 0.7859-0.2144 1.5718-0.3933 2.3577-0.5359 0.85734-0.1431 1.6432-0.3574 2.3577-0.6431l0.53584 2.3575-5.7871 1.3934c-0.42867 0.357-0.643 0.7856-0.643 1.2861l-0.85734 4.3935h2.572v-1.6072h2.1434v6.3227h10.288v-6.3227h2.1434v1.6072h2.572l-0.96451-4.715c-0.07144-0.3574-0.21433-0.6076-0.42867-0.7503-0.14289-0.143-0.28578-0.2856-0.42867-0.4287l-5.8942-1.3934 0.64301-2.1431 6.2157 1.7144c0.57156 0.2862 1.1074 0.7862 1.6075 1.5006v-6.9658c-0.35722 0.5713-0.85734 1.0718-1.5003 1.5-0.64301 0.3574-1.3217 0.6431-2.0362 0.8575-0.28578-1.1431-0.42867-2.2504-0.42867-3.3222v-1.2862c0-0.5 0.07145-1.0713 0.21434-1.7144 0-0.7143-0.17862-1.1431-0.53584-1.2861-0.28578-0.1426-0.64301-0.2144-1.0717-0.2144 0.14289 0.3574 0.25006 0.7503 0.3215 1.179 0.07144 0.3574 0.10717 0.7857 0.10717 1.2862 0 1.7857-0.57156 3.3221-1.7147 4.6078-1.1431 1.2149-2.5363 1.8221-4.1795 1.8221-1.5718 0-2.9293-0.6072-4.0724-1.8221-1.1431-1.2857-1.7147-2.8221-1.7147-4.6078 0-1.0005 0.17861-1.8221 0.53584-2.4652-0.42867 0-0.82162 0.0718-1.1788 0.2144-0.35722 0.143-0.53584 0.5-0.53584 1.0718v0.2143c0.21433 1.2144 0.3215 2.1791 0.3215 2.8934 0 1.0006-0.21434 2.1437-0.64301 3.4294-0.78589-0.2144-1.6075-0.6072-2.4649-1.1785-0.7859-0.5718-1.2503-1.2862-1.3932-2.1437-0.14289-0.5713-0.21433-1-0.21433-1.2862 0-1.3574 0.57156-2.5005 1.7147-3.4293 0.85734-0.5 1.7504-0.7501 2.6792-0.7501l1.0717 0.1071-1.3932-32.579 15.646-4.2868c-1.2146-0.7143-2.1791-1.7503-2.8935-3.1077-0.71445-1.3575-1.0717-2.858-1.0717-4.5012 0-2.5005 0.71445-4.5724 2.1434-6.2157 1.5003-1.7147 3.2865-2.5721 5.3584-2.5721 2.0719 0 3.858 0.8574 5.3584 2.5721 1.5003 1.6433 2.2505 3.7152 2.2505 6.2157 0 1.6432-0.39295 3.1437-1.1788 4.5012-0.71445 1.3574-1.679 2.3934-2.8935 3.1077l16.075 4.2868-0.21433 5.4652 4.8225-1.1785 0.643 2.3575c-0.50011 0.2144-0.82162 0.5718-0.96451 1.0719-0.14289 0.4287-0.21434 0.9287-0.21434 1.5 0 0.7862 0.07145 1.5718 0.21434 2.358 0.21433 0.7856 0.39295 1.3216 0.53584 1.6072h6.1086c0.57156-1.6431 0.85734-3.0006 0.85734-4.0721 0-0.929-0.21434-1.6075-0.64301-2.0362-0.21433-0.2144-0.39295-0.3575-0.53584-0.4288l0.53584-2.3575 11.253 2.3575 2.1434 21.862h0.75018l-0.21434 2.6792c1.0002 1.3575 1.5003 2.7862 1.5003 4.2868 0 0.7143-0.10717 1.3215-0.3215 1.8215-0.35723 0.9288-0.89307 1.7503-1.6075 2.4652-0.71445 0.6426-1.5003 1.1431-2.3577 1.5001l7.0731 1.9292c0.35722 0.2144 0.75018 0.4641 1.1788 0.7503 0.42867 0.2856 0.67873 0.7498 0.75017 1.3928l2.2505 10.074zm-52.834-44.582-5.8942-11.574c-1.5718 0.5-3.1793 0.9646-4.8225 1.3934-1.5718 0.4287-3.1793 0.8569-4.8225 1.2857l1.1788 28.936c0.35722-0.1431 0.67873-0.3216 0.96451-0.536 0.35722-0.2856 0.71445-0.5 1.0717-0.643v-24.22h2.4649v24.22c0.92878 0.143 1.7147 0.4646 2.3577 0.9646 0.71445 0.5 1.2503 1.1431 1.6075 1.9288 0.28578-0.0713 0.78589-0.1071 1.5003-0.1071 0.71445 0 1.2146 0.0358 1.5004 0.1071l2.8935-1.1785zm50.154 36.223c-0.07144-0.4288-0.25006-0.8216-0.53584-1.179-0.21434-0.4288-0.64301-0.7144-1.286-0.8575l-7.2874-1.8216-7.3946 1.8216c-0.64301 0.1431-1.0717 0.3931-1.286 0.7503-0.14289 0.2856-0.3215 0.7144-0.53584 1.2862l-1.286 6.0011h2.8935l0.3215-3.9652 2.2505 0.2144-1.8218 20.791 13.717 1.0718-1.8218-21.862 2.2505-0.2144 0.53584 3.9652h2.7864zm-36.973-46.404c-1.6432-0.4288-3.2865-0.8934-4.9297-1.3934l-5.8942 11.574v20.576l9.2164 3.0005 2.4649-27.756 3.7509-0.7502 0.3215-3.9652zm-10.824 33.543v43.832l5.3584-1.8221 2.8935-39.116zm24.756-12.217c-1.0002-2.0006-2.0719-4.0365-3.215-6.1084-1.0717-2.0718-1.6075-4.3939-1.6075-6.9658 0-0.7148 0.03572-1.2502 0.10717-1.6077-0.14289 0.0713-0.53584 0.1785-1.1788 0.3216-0.57156 0.143-1.2146 0.3215-1.929 0.5359-0.643 0.1426-1.2503 0.2856-1.8218 0.4287-0.57156 0.0713-0.92879 0.1072-1.0717 0.1072l-2.7864 30.757 3.3222 0.2143 1.3932-25.292 2.4649 0.2144-1.3932 25.399c1.2146 0 2.4649-0.1072 3.7509-0.3216 1.286-0.2143 2.4649-0.679 3.5365-1.3933-1.286-1.7149-1.929-3.7868-1.929-6.2156 0-1.7149 0.25006-3.4652 0.75018-5.2513 0.50012-1.7862 1.036-3.3938 1.6075-4.8227zm13.61-13.288-6.0014-1.179c0.07145 0.2856 0.10717 0.5713 0.10717 0.8574v0.6431c0 1.2144-0.17861 2.3934-0.53584 3.5365-0.28578 1.0713-0.67873 2.1431-1.1788 3.215-0.50011 1-1.036 2.0359-1.6075 3.1077-0.50012 1.0001-1.0002 2.036-1.5004 3.1078-0.71445 1.5718-1.3575 3.2149-1.929 4.9298-0.57156 1.6432-0.85734 3.3222-0.85734 5.0371 0 1 0.17861 2.1431 0.53584 3.4293 0.7859 1.7144 2.0005 2.8934 3.6437 3.5365 1.6432 0.5713 3.3579 0.9287 5.144 1.0718-0.35722-0.4288-0.71445-0.9293-1.0717-1.5006-0.35723-0.5718-0.60728-1.1431-0.75018-1.7149-0.07144-0.2856-0.14289-0.5354-0.21433-0.7497v-0.7503c0-0.6431 0.07144-1.2503 0.21433-1.8221 0.21434-0.5713 0.4644-1.1072 0.75018-1.6072l-0.10717-2.7867 1.7147-0.2144-0.75017-14.253h2.4649l0.75018 13.932 1.0717-0.2142h1.929zm-5.2512 33.65c-1.2146-0.1431-2.4291-0.3575-3.6437-0.6431-1.1431-0.357-2.1791-0.8929-3.1079-1.6072-1.4289 1-2.965 1.6431-4.6082 1.9287-1.5718 0.2857-3.1793 0.4287-4.8225 0.4287l1.7147 20.255 7.3946 2.3575h0.53584v-0.4287l0.42867-9.2161c-0.21434-0.1431-0.46439-0.2144-0.75018-0.2144h-0.75017l2.1434-9.8597c0.14289-0.643 0.39295-1.1072 0.75018-1.3928 0.42867-0.2862 0.82162-0.5359 1.1788-0.7503zm-40.295 32.794 0.21434-3.8582c0.07144-1.286 0.10717-2.5363 0.10717-3.7512 0-1.4287-0.07144-2.8575-0.21433-4.2862-0.07145-1.4293-0.28578-2.7868-0.64301-4.0724h-10.502c-0.35722 1.3574-0.60728 2.7503-0.75017 4.1795-0.07145 1.3575-0.10717 2.7504-0.10717 4.1791 0 1.4293 0.03572 2.858 0.10717 4.2868 0.07144 1.4292 0.17861 2.8221 0.3215 4.1795h11.467zm39.545-76.732c-0.21433 1.2149-0.78589 2.3934-1.7147 3.5365-0.85734 1.1431-1.8933 1.8579-3.1079 2.1436-0.28578 0.0713-0.71445 0.1072-1.286 0.1072-1.929 0-3.5723-0.8575-4.9297-2.5724-0.35722-0.5713-0.643-1.1072-0.85734-1.6072-0.21433-0.5-0.35722-1.0359-0.42867-1.6077h-1.3932v-0.7503c0-1.7857 0.35722-3.4293 1.0717-4.9294 0.71445-1.5005 1.8576-2.7508 3.4294-3.7508 0.57156-0.2862 1.2146-0.4287 1.929-0.4287 0.71445-0.0718 1.4289-0.1072 2.1434-0.1072 1.6432 0.3569 2.8935 1 3.7509 1.9288 0.92878 0.9287 1.5718 1.9292 1.929 3.001 0.42867 1.0001 0.67873 2.0001 0.75018 3.0006 0.07144 0.9288 0.10717 1.6072 0.10717 2.036zm-29.685-12.432c-0.57156-0.3569-1.1431-0.6426-1.7147-0.8569-0.21434-0.0718-0.50012-0.1072-0.85734-0.1072-0.71445 0-1.4646 0.1784-2.2505 0.5359-0.71445 0.3569-1.3932 0.7144-2.0362 1.0713-0.78589 0.4287-1.5003 0.9287-2.1434 1.5005v0.3216c0.14289 1.2144 0.50012 2.3934 1.0717 3.5365 0.643 1.0718 1.5718 1.8575 2.7864 2.3575 0.28578 0.0718 0.67873 0.1071 1.1788 0.1071 1.2146 0 2.2505-0.4287 3.1079-1.2856 1.286-1.3575 1.929-3.0011 1.929-4.9299 0-0.3574-0.07144-0.8933-0.21433-1.6077zm39.866 49.298c0-1.5718-0.50011-2.6437-1.5003-3.215l-2.572-0.9646-3.0007 1.2861c-0.35722 0.4283-0.643 0.8929-0.85734 1.3929-0.21433 0.4288-0.3215 0.9288-0.3215 1.5006 0 1.2144 0.42867 2.2149 1.286 3.0006 0.85734 0.7143 1.8218 1.0718 2.8935 1.0718 1.1431 0 2.1076-0.3575 2.8935-1.0718 0.7859-0.7857 1.1788-1.7862 1.1788-3.0006zm-43.832-38.044-4.3939 1.5 4.501 8.7879 4.6082-8.7879zm-8.2519 38.902c0-0.2861-0.03572-0.6077-0.10717-0.9646-0.07145-0.3574-0.17861-0.6072-0.3215-0.7503l-1.0717-0.4287c-0.35723-0.1431-0.71445-0.25-1.0717-0.3215-0.35722-0.0713-0.71445-0.1072-1.0717-0.1072-0.35723 0-0.71445 0.0359-1.0717 0.1072-0.35722 0.0715-0.71445 0.1784-1.0717 0.3215-0.35723 0.1431-0.75018 0.2857-1.1788 0.4287-0.14289 0.7144-0.21433 1.2862-0.21433 1.7149 0 1.0714 0.3215 2.0001 0.96451 2.7863 0.71445 0.7856 1.5718 1.179 2.572 1.179s1.8576-0.3934 2.572-1.179c0.71445-0.7862 1.0717-1.7149 1.0717-2.7863zm39.009-41.796c-1.1431 0.8574-2.322 1.6436-3.5365 2.358-1.1431 0.643-2.322 1.1431-3.5365 1.5 0.21434 0.7144 0.50012 1.3221 0.85734 1.8221 0.35723 0.4287 0.75018 0.8215 1.1788 1.179 0.50012 0.3569 1.1074 0.5354 1.8218 0.5354h0.21434c1.286-0.1426 2.2148-0.857 2.7864-2.1431 0.42867-0.7144 0.643-1.6078 0.643-2.6791 0-0.4287-0.03572-0.8574-0.10717-1.2862-0.07144-0.5-0.17861-0.9287-0.3215-1.2861zm-4.2867 73.088-2.7864-0.8572 1.929 18.111 0.85734 0.2144zm-37.08 10.931v12.217h2.0362v-0.2143l1.0717-12.003zm-2.2505 0h-3.0007l1.1788 12.217h1.8219zm51.655 0.2144h-3.3222l0.96451 10.074h2.4649zm2.3577 0v10.074h2.4649l0.85734-10.074zm-10.288-8.7879-1.7147-0.6431-0.21434-1.3933v17.147l0.53584-0.2144 1.3932-12.539zm-32.043-1.179-1.0717 1.7149-1.1788 0.6431-0.42867 6.2155c0.21433 0.0713 0.46439 0.1431 0.75018 0.2144 0.21433 0.0713 0.50011 0.1431 0.85734 0.2144 0.35722 0.143 0.75017 0.2856 1.1788 0.4287zm-19.397-14.146-0.643 11.145 1.1788 2.3575v-1.3928c0-1.8575 0.14289-3.6083 0.42867-5.2514 0.35723-1.6431 0.53584-3.3934 0.53584-5.2514l-0.10717-1.6072zm59.478 19.933c0-0.5718-0.03572-1.1431-0.10717-1.7149l-4.501-0.2143-0.21434 3.7508h4.8225zm-41.795-19.933h-1.286c-0.07144 0.3569-0.10717 0.6785-0.10717 0.9646v0.7498l0.96451 10.181-0.10717 1.6072 1.1788-2.1431zm52.405 0.9646h-1.6075l0.96451 12.003 0.10717 0.1069 0.10717-0.1069 0.96451-2.7865zm-18.969 0-0.42867 9.2161 0.75018 2.7865c0.14289 0 0.21433 0.0356 0.21433 0.1069h0.10717l0.10717-0.1069 0.75017-12.003zm15.325 17.897c-0.7859 0-1.5718-0.0359-2.3577-0.1072-0.78589-0.0713-1.5718-0.1784-2.3577-0.3215v3.3221h4.9297zm-12.646 5.2514h-0.53584l-0.64301 5.6796 1.8219 1.179zm-17.683-36.223-1.7147-0.3216 1.5003 3.9652 0.64301 0.2144z" stroke-width="1pt"/>
 <path d="m187.06 92.195c1.452 7.0463-0.76618 13.094-3.4692 18.972 0.78347 4.1625-3.3121 6.6127-2.1547 11.439-3.3065 5.288 11.684 7.0419 3.1547 10.095-4.7047-1.016-9.6478-2.5599-14.413-0.8741-2.6518 1.7215-9.1775 0.4874-5.3229-2.956 7.4101-2.6935-3.7387-3.9747-6.3527-2.4077-2.3336 1.0446-10.385 2.3497-5.0656-1.4313 8.0219-3.0081 3.4682-11.485 3.5625-17.941 0.0902-3.3309-0.36723-4.9391-3.527-5.6464-1.5597-4.6581-1.1027-9.8514-1.8635-14.731-0.11608-2.0688-4.2876-1.7831-3.8795-5.1291-2.5156 4.029-1.0625 10.228-2.0763 15.103-0.45102 6.0397-0.90203 12.08-1.353 18.119-4.7708 2.2218 10.085 4.4376 6.216 8.6226-4.3071 1.291-9.2896-1.8963-13.923-2.1021-5.6801-1.8935-10.973 4.9395-4.8046 8.39 4.7288 2.4133 0.90356 5.4893-2.7691 3.5193-5.1093-2.7085-12.375 2.3118-15.947-0.6695 3.119-3.3143 7.1357-6.3197 4.6684-11.697-0.10091-5.1647-2.817-8.0054-2.8544-13.32-5.6589-3.7747-1.0124-12.318-3.1622-16.36-0.75714-4.2132 0.61751-10.907 6.2846-11.275 6.4027 0.3504-0.0491 3.2315-2.8207 3.5378-2.2266 3.1256-1.0704 7.8499 2.4944 3.8122 1.1611 3.3899 0.19128 8.3557 6.2028 6.3226 5.698 1.8998 4.5856-2.9333 5.4476-6.3135 1.7047 1.2812 5.0596 2.9453 3.6227-1.1032 1.3938-5.0937-9.9162-2.9581-5.9066-6.4834 3.1826-0.4143 8.6865 5.4118 7.1457-0.844 1.9049-5.8882-5.2375 2.0491-3.9066-3.3068 0.92644-3.027-1.589-7.4802-0.99268-1.9296-0.18174 9.2257-15.777 4.4031-11.144-3.3819-3.6305 0.9074 0.50271 11.323-5.2807 5.8975-4.1433-6.165 7.9137-6.1258 4.3956-12.416-0.38371-8.9726-0.76741-17.945-1.1511-26.918 4.584-1.6194 12.603-2.7277 15.047-4.6651-6.2791-4.2539-3.3079-16.718 4.8412-15.975 9.2567 1.0241 6.7103 13.153 4.2247 16.804 4.566 1.8506 12.521 1.4654 14.694 5.2836-2.1356 5.5197 2.9025 2.2573 5.0405 3.8358-2.6209 4.3174 3e-3 10.211 5.4375 7.7532 3.1062-3.1678-2.5652-11.291 4.96-7.8481 5.7418-0.1087 8.3048 2.6325 7.6182 8.288 0.70495 5.2681 0.6696 10.733 1.8518 15.874 2.4938 4.1772 1.616 9.1674-1.7068 12.093 6.2527 0.252 9.612 4.5858 9.5974 10.68-0.27146 1.3261 2.2593 4.0244-0.65984 3.2826zm-52.834-44.582c-2.9411-3.1699-3.3623-12.428-8.2595-10.76-5.473-0.2657-8.9586 3.3975-6.9999 8.736 0.29962 7.3548 0.59929 14.71 0.89891 22.065 4.5417-4.5204 0.81925-13.392 2.0362-19.627-1.3175-2.9602 1.4966-9.1226 2.5438-3.6759 0.5324 7.4424-1.479 16.415 1.0341 22.883 3.9374 3.6779 11.187 2.0042 8.7465-4.4418v-15.179zm50.154 36.223c-4.1779-4.8562-13.832-4.6397-18.231-0.2574-1.4297 2.3698-1.6842 9.3141 1.9031 5.0521-1.8353-4.0276 4.2684-2.8062 1.902 0.6508 0.0839 5.623-2.323 13.356-0.68456 17.663 3.8318-0.5353 11.355 2.6011 12.746-0.3623-0.56931-6.8314-1.1387-13.664-1.708-20.496 3.4931-1.9404 2.3444 7.3921 5.3602 2.7501-0.24314-1.6982-0.99142-3.2975-1.2878-5.0006zm-36.973-46.403c-6.9078-4.1382-9.3038 7.4839-10.824 12.1 0.7487 6.0795-1.5101 14.342 1.1521 19.032 3.8279 0.9607 9.7002 5.0165 8.4495-1.7114 0.69327-7.807 1.3865-15.613 2.0797-23.42 5.9141 0.0203 5.6146-5.9972-0.8573-6.0008zm-10.824 33.543v43.831c8.4108-0.3391 5.0562-10.09 6.3858-15.711 0.62204-8.4088 1.2441-16.818 1.8661-25.228-2.7506-0.9641-5.5012-1.9287-8.2519-2.8933zm24.756-12.218c-2.9946-4.1937-4.7935-10.901-5.4449-14.57-7.537-0.1481-5.4323 8.1286-6.3408 13.08-0.5725 6.3192-1.145 12.639-1.7175 18.959 5.9696 1.4092 2.73-7.0904 3.911-10.474 0.26813-4.8677 0.53624-9.7352 0.80437-14.603 4.9474 0.2863 0.99096 7.9454 1.8522 11.384-0.26014 4.7428-0.52034 9.4861-0.78049 14.23 4.852 0.9843 8.5363-2.6049 5.3995-6.9665-0.29136-3.8172 1.0004-7.5186 2.3165-11.038zm13.61-13.288c-3.3283-0.6295-7.1812-2.5226-6.1581 2.4695-1.5177 7.7784-8.3747 14.123-7.3152 22.445-0.23578 4.8082 12.224 9.7856 7.4518 3.213-0.37482-4.226 1.2656-7.2062 2.3208-10.033 0.53407-3.7426-2.5633-11.163 0.97356-12.327 3.0984 3.5515-1.1642 12.715 3.1795 13.975 3.104-3.9587-0.7626-11.393-0.16353-16.634-0.0963-1.036-0.19253-2.0725-0.2888-3.1087zm-5.2512 33.65c-5.0074-2.2722-10.202-0.9806-15.119-0.2324-2.0634 5.2774 0.61558 11.973 0.41592 17.808-1.2708 3.8839 7.5462 5.8323 8.2086 3.9388 1.021-6.7661-2.0006-10.416 0.67482-17.083 0.29498-3.3596 3.0499-3.9581 5.8201-4.4311zm-40.295 32.794c-0.6437-5.1307 3.4074-16.984-4.4743-15.968-3.7912-0.2002-8.0744-0.9026-7.1811 4.2921-0.75328 5.1339-1.7328 15.098 6.4293 12.533 0.98304-0.5792 5.8897 1.1267 5.226-0.857zm39.545-76.732c-0.81927 7.8287-11.621 6.6607-13.293 0.0017-1.9462-5.6048 4.8186-12.889 10.373-9.0906 2.5075 1.071 6.5382 8.2024 2.9194 9.0889zm-29.685-12.432c-6.9261-5.1624-12.886 8.6387-3.5568 8.5175 3.4969-0.4907 6.3381-5.745 3.5568-8.5175zm39.866 49.298c-0.62527-8.6567-13.572-0.7179-5.8308 3.7227 2.5441 1.6038 6.038-0.8345 5.8308-3.7227zm-43.832-38.044c-7.5296 0.3403-1.2702 6.5537 0.10716 10.288 1.2209-4.5696 8.6645-9.6235-0.10716-10.288zm-8.2519 38.902c-1.7939-7.1105-12.387 2.1496-4.1137 3.9536 2.2033 0.311 4.222-1.8 4.1137-3.9536zm39.009-41.796c-3.4136 1.3754-10.451 6.3337-2.8239 7.3742 3.1605-0.6025 3.8326-4.8351 2.8239-7.3742zm-4.2867 73.089c-5.5841-2.0306-0.75096 7.7952-1.5445 10.802-0.22927 2.4879 1.4938 9.8064 1.5575 3.6313-0.0776-4.7921 0.0286-9.6241-0.013-14.433zm-37.08 10.931c0.86395 3.7309-1.8314 11.023 1.5464 12.28 1.0241-3.4962 1.9639-9.7752 0.78447-12.28h-2.3309zm-2.2505 0c-6.0719-0.475-0.88655 8.6483-1.8218 12.218 4.0819-0.5104 0.70179-8.9787 1.8218-12.218zm51.655 0.2146c-5.777-1.4146-2.6095 8.6046-1.3778 10.278 3.2244-0.8547 0.59467-7.7202 1.3778-10.278zm2.3577 0c0.22869 2.5876-1.2843 13.69 2.6365 8.7345-0.70231-3.2402 3.3138-10.524-2.6365-8.7345zm-10.288-8.7877c-4.0574-3.5274-0.97287 6.3116-1.929 8.7927-0.35153 3.243 0.3221 9.0988 0.91328 2.7498 0.25196-3.8467 1.1397-7.6663 1.0157-11.542zm-32.043-1.1794c-2.9312 1.7348-4.3458 10.351 0.0987 8.5563-0.0357-2.8522-0.0655-5.7044-0.0987-8.5563zm-19.397-14.146c0.27896 4.2142-1.6792 9.0292 0.33219 12.841-0.54871-3.3984 3.2161-11.641-0.33219-12.841zm59.478 19.933c-0.71404-5.8898-9.1427 1.9565-2.3108 1.9214 1.7052-0.1431 2.7653 0.4052 2.3108-1.9214zm-41.795-19.933c-3.4013 2.6354 0.613 9.3145-0.53581 13.503 2.4389-3.9582 0.15592-9.1176 0.53581-13.503zm52.405 0.9647c-3.3138 0.8401-0.30774 10.882-0.20622 11.43 1.4915-3.6721 0.0679-7.6309 0.20622-11.43zm-18.969 0c0.12717 3.0721-1.3937 11.448 0.83534 11.065-0.73769-3.0813 2.4702-10.575-0.83534-11.065zm15.325 17.896c-6.1321-2.7606-5.5902 5.5065 0.0533 2.6325 0.62531-0.8149-0.40195-1.7521-0.0533-2.6325zm-12.646 5.2516c-3.0122 2.3591 1.0951 10.315 0.32945 3.5803-0.0992-1.195-0.22049-2.387-0.32945-3.5803zm-17.683-36.223c-3.894-1.7798 1.682 7.5285 0.19067 1.646-0.0467-0.2391-0.17384-1.3364-0.19067-1.646z" stroke-width="1pt"/>
 <path d="m281.84 92.195c1.7345 10.242-3.7675 20.233-6.7905 29.38 2.7628 4.4226 9.2809 12.635-1.0654 9.64-5.6521-0.3099-16.366 3.8161-14.052-4.6042-2.8386-3.1815-14.351 4.4583-10.781-2.8403 7.705-6.5417 2.3406-17.842-1.357-25.229-0.62385-4.229-1.2098-17.585-6.1445-13.717-1.7071 8.9951-0.9698 18.269-2.473 27.315-1.2885 4.2467 10.982 12.59 0.7126 11.01-6.9807-4.4344-21.112-1.2233-12.582 8.345-2.1474 3.3964-10.611 0.3629-15.3 1.6681-4.6796-3.0232 4.889-11.491-0.25129-17.162-3.7101-9.716-6.6791-20.33-4.7875-30.691 0.0704-6.5467 11.78-4.8467 3.2263-1.6705-2.7334 6.0454 9.8826 15.008 14.394 6.8409-0.61137-3.7514 6.1388-2.573 1.1194-6.6952-7.6887-5.0893 5.2589-0.1494 2.7412-6.2025-4.7532 1.0886-3.5905-9.1622-5.0125-1.0201-4.1636 7.9487-12.66-7.6721-12.142-1.3173-9.6493 2.9406 4.6965-10.841 1.3065-16.479 0.20707-7.5759-6.0079-18.798 2.7266-23.543 7.6036 1.2535 10.788-5.2964 6.963-11.08-0.14918-8.6193 14.653-11.134 14.679-1.3712-2.3951 7.5619 1.5148 13.53 9.579 13.368 6.7598 1.8074 6.219 18.387 14.222 12.035-0.6296-12.042 13.97-5.3595 12.738 2.9355-1.9557 7.935 3.392 15.402 1.7361 23.297-1.8985 6.0141 12.282 9.7306 7.2651 17.832-0.22332-0.0143-0.66999-0.0438-0.66999-0.0438zm-52.834-44.582c-0.0826-7.1503-11.884-16.201-14.998-6.2132-1.1822 8.0354 0.92261 16.178 0.58401 24.281 4.0145-0.0523 1.6656-12.919 1.6326-17.956 2.7019-10.251 4.4949 8.1316 2.3007 12.268-3.0236 10.592 14.842 10.949 10.977 0.2046-0.61555-4.1607-0.83686-8.3886-0.49637-12.585zm50.154 36.223c-4.3257-8.3686-23.71-1.3583-16.932 4.7285 5.7765-3.0428-0.90647 10.326 1.5326 13.899 2.2244 10.396 17.003 5.3306 12.854-4.4854-2.256-4.4034-1.8681-13.59 3.4539-9.0254 0.2652-1.7703-0.40336-3.4644-0.90808-5.1165zm-36.973-46.403c-8.8564-1.8367-10.791 9.5207-10.697 16.008-2.8653 5.9992 1.1558 21.939 9.0223 14.339 1.9396-7.8492 1.3025-16.276 2.532-24.346 5.9729 1.4284 4.0764-7.9405-0.85735-6.0008zm-10.824 33.543c-1e-5 14.61-1e-5 29.221-1e-5 43.831 8.5467-2.1123 5.7792-12.669 6.3567-19.118-0.98282-7.7491 6.6065-20.034-3.2311-23.892-0.51321-0.148-2.597-0.6954-3.1256-0.821zm24.756-12.218c-2.3554-3.9014-6.1855-19.179-10.903-9.3378-1.0671 7.9842-1.5662 16.114-2.1019 24.152 5.9315 1.0682 2.3856-12.048 3.5044-16.872 2.5354-9.6356 4.5251 4.4799 2.2882 7.9483-3.2253 5.0416 2.8208 17.762 5.6388 7.0025 1.0396-4.3655-2.0847-9.1963 1.574-12.894zm13.61-13.288c-9.5137-2.0656-7.1759 11.28-11.886 15.95-6.0271 4.7169 2.2936 20.544 6.4827 11.121 1.2327-6.2616 0.24459-14.011 2.8944-19.233 1.3574 2.7378 2.0476 14.588 3.9373 5.9692 0.15257-4.6618-1.943-9.1314-1.429-13.807zm-5.2512 33.65c-6.4425-3.6027-17.884-1.2554-15.837 8.0976-2.7461 6.3991 6.5063 20.195 9.6687 8.9625-0.7898-6.0701-2.551-16.071 6.1682-17.06zm-40.295 32.794c2.3124-6.5524-0.27765-21.302-9.8183-14.879-6.9857 6.5754-0.11983 21.896 9.8183 14.879zm39.545-76.732c-0.72315 8.4828-14.809 5.4647-13.975-2.306-0.31404-9.7021 15.261-9.8288 15.19-0.2748-0.12384 0.4402-0.93355 2.1608-1.2146 2.5808zm-29.685-12.432c-8.5058-7.3293-9.6326 15.325-0.44546 6.6933 1.6121-1.7593 2.3109-4.8396 0.44546-6.6933zm39.866 49.298c-1.7421-10.586-13.823 6.942-2.444 3.8609 1.4623-0.6652 2.5562-2.2152 2.444-3.8609zm-43.832-38.044c-8.893 0.8542 3.0996 14.814 3.7879 4.0934 1.1835-2.2613-1.4528-5.0394-3.7879-4.0934zm-8.2519 38.902c-3.0196-8.5046-10.105 8.3043-1.3439 3.0408 0.89663-0.7313 1.3598-1.9013 1.3439-3.0408zm39.009-41.796c-8.6643-1.5257-1.7709 13.236 0.41312 3.0823-0.0143-0.521-0.28973-2.5757-0.41312-3.0823zm-4.2867 73.089c-6.9046 1.8002 1.3728 20.576 0.0241 8.496-0.0133-2.8318-0.0713-5.664-0.0241-8.496zm-37.08 10.931c-1.7128 4.4473 1.4221 14.82 2.9944 5.1431 0.48132-2.1762-0.16132-5.2367-2.9944-5.1431zm-2.2505 0c-7.7312-0.0512 0.73931 16.72 0.0603 5.5358-0.25841-1.8242-0.57315-3.717-0.0603-5.5358zm51.655 0.2146c-8.4317-1.4398 1.0566 15.238 0.0385 3.955-0.15412-1.3092-0.28543-2.6463-0.0385-3.955zm2.3577 0c-3.2519 4.6683 3.5035 12.297 3.2683 3.4441 0.41612-1.9592-0.74528-5.126-3.2683-3.4441zm-10.288-8.7877c-5.4669 1.619-0.50264 18.148-0.56601 7.5927 0.30896-2.5193 0.57033-5.0514 0.56601-7.5927zm-32.043-1.1794c-6.2588 0.2851 0.77565 12.714 0.0404 3.5135-0.023-1.1707-0.0196-2.3421-0.0404-3.5135zm-19.397-14.146c-1.2933 4.6757 0.17836 15.024 1.5244 4.8823 0.30778-1.7371-0.0346-3.7487-1.5244-4.8823zm59.478 19.933c-3.0928-6.3548-5.4042 6.7483-0.15624 1.288 0.0521-0.4294 0.15624-1.288 0.15624-1.288zm-41.795-19.933c-4.531 4.083 1.9577 15.725 0.29293 5.0776-0.20931-1.6825-0.42227-3.3793-0.29293-5.0776zm52.405 0.9647c-5.3482 2.1627 2.0738 13.993 0.24733 4.1561-0.15142-1.3796-0.28666-2.7662-0.24733-4.1561zm-18.969 0c-1.315 2.8262 0.22678 13.622 1.426 5.0558 0.36182-1.7269 0.27548-4.0362-1.426-5.0558zm15.325 17.896c-6.561-4.0309-0.91358 9.0528 0 0zm-12.646 5.2516c-3.38 3.2529 2.599 7.4997 0 0zm-17.683-36.223c-3.6258 2.1663 3.8363 3.8742 0 0z" stroke-width="1pt"/>
</svg>
