<?xml version="1.0" encoding="UTF-8"?>
<svg width="300" height="85" version="1.1" viewBox="0 0 300 85" xmlns="http://www.w3.org/2000/svg">
 <path d="m106.27 0.45441c-0.10112 0.1152-0.14628 0.129-0.29492 0.3809-3.8807 6.5756-5.69 15.322-6.7617 23.506-2.2001 16.8 5.6253 36.574 21.996 42.703 7.9689 2.8582 13.099 5.0208 16.59 7.3613 3.1146 2.0883 4.8809 4.3803 6.1445 7.3164 0.83628-3.3298 2.1612-5.698 4.1113-7.1973 2.1712-1.6691 5.0309-2.3008 8.6074-2.3183 8.1602-0.04 14.631 4.8099 20.459 9.205 3.1146 2.349 7.2519 3.2345 11.002 2.6153 3.7501-0.6193 7.0928-2.7204 8.7109-6.336 1.6276-3.6366 1.0018-7.3141-0.78906-10.666s-4.7581-6.3445-7.7363-8.4746c-7.492-5.3587-17.331-5.609-25.744-2.1738-3.339 1.3634-6.1945 4.1375-9.0957 6.6406-2.9012 2.5031-5.8756 4.7546-9.5098 4.8887-3.8591 0.1425-8.0918-1.0526-11.383-3.666-3.291-2.6135-5.6211-6.6662-5.6211-12.137a0.39691 0.39691 0 0 1 0.39648-0.3964c3.0726 0 8.0122 0.5596 13.49 0.9355 5.478 0.376 11.484 0.5678 16.611-0.1504 8.1781-1.1457 17.345-5.8907 21.264-13.6 3.7815-7.4384 10.474-16.43 22.701-18.678-10.736-0.4389-19.366-0.4494-27.271 0.4394-3.8911 0.4375-6.5398 2.3824-8.3496 5.1133s-2.7533 6.2608-3.1133 9.7832c-0.46666 4.5663-3.4945 7.8367-7.373 9.8164-3.8785 1.9797-8.6221 2.711-12.691 2.2559-3.2374-0.362-6.9091-0.9975-9.9941-2.5391-3.085-1.5416-5.5895-4.0329-6.3516-8-0.29262-1.5232 0.12629-3.2173 0.9043-4.7988s1.9241-3.0553 3.1719-4.125 2.6009-1.764 3.8594-1.6465c0.62923 0.059 1.2247 0.3446 1.6875 0.8652 0.4628 0.5207 0.79856 1.2598 1 2.2383 0.74509 3.6194 3.4674 6.2523 6.1602 6.9883 1.3464 0.368 2.6674 0.2684 3.7637-0.377 1.0962-0.6453 1.9987-1.8478 2.457-3.8085 1.7046-7.293-3.7374-14.304-10.67-16.5-4.459-1.4122-9.9397-0.3002-14 2.3183s-6.665 6.662-5.6191 11.15c0.36975 1.5869 0.35132 2.788-2e-3 3.6758-0.35328 0.8877-1.076 1.4223-1.916 1.5879-1.68 0.3311-3.8147-0.579-5.5977-2.0547-7.0565-5.8407-7.3072-15.578-6.3906-23.664 0.10448-0.9216 0.59178-3.3392 0.91601-5.4863 0.16212-1.0735 0.28212-2.0765 0.29297-2.7344 2e-3 -0.1312-0.0143-0.158-0.0215-0.2578z" fill="none" stroke="#ff0100" stroke-width=".675"/>
</svg>
