<?xml version="1.0" encoding="UTF-8"?>
<svg width="300" height="47" version="1.1" viewBox="0 0 300 47" xmlns="http://www.w3.org/2000/svg">
 <path d="m47.663 34.708c10.658-12.173 21.176-24.395 36.677-28.281 9.2924-2.3296 11.787 2.3947 4.8609 10.164-5.1644 5.7927-10.411 10.152-12.815 16.792-2.9726 8.2119 2.8857 9.4864 11.489 7.9541 8.4682-1.5081 14.084-8.5052 19.885-15.466 4.2144-5.0566 8.7741-5.2626 10.606-0.8838 7.1048 15.93 20.13 0.9771 22.095-0.4419" fill="none" stroke="#000" stroke-width="9"/>
 <path d="m199.68 0.0677c-1.2373 0.1038-2.5164 0.3156-3.875 0.6562-8.5973 2.1554-15.755 6.6404-22 12s-11.648 11.611-16.969 17.688l6.75 5.9375c5.3376-6.0961 10.509-12.046 16.062-16.812 5.5537-4.7663 11.439-8.3316 18.344-10.062 1.2641-0.3169 1.7958-0.2322 2.5-0.25-0.42543 0.8115-0.91325 1.7071-2.0938 3.0312-2.4516 2.7499-5.0879 5.295-7.5312 8.1563s-4.705 6.1161-6.1562 10.125c-0.91687 2.5328-1.3647 4.9227-0.84375 7.375 0.26049 1.2262 0.78386 2.4374 1.5625 3.4375s1.766 1.7724 2.7812 2.3125c2.0304 1.0801 4.1397 1.3658 6.2812 1.4063 2.1416 0.0404 4.375-0.2076 6.7188-0.625 5.2478-0.9346 9.5496-3.6005 13.125-6.75 3.5754-3.1496 6.5542-6.8218 9.4375-10.281 0.80771-0.9691 1.5646-1.5838 2.125-1.9375 0.44557-0.2813 0.62372-0.2855 0.75-0.3125 0.0444 0.0576 0.0216 0.0029 0.125 0.25v0.0313l0.0312 0.0624c1.0456 2.3445 2.2571 4.2796 3.7188 5.8438s3.2003 2.7424 5.0312 3.4062c1.831 0.6639 3.7183 0.8102 5.4375 0.625 1.7192-0.1851 3.2684-0.6904 4.6875-1.3124 2.8382-1.2442 5.1565-3.0025 6.9375-4.5 0.89048-0.7488 1.6525-1.4477 2.2188-1.9688 0.2831-0.2605 0.52513-0.4796 0.6875-0.625 0.16236-0.1454 0.28418-0.2087 0.125-0.0938l-5.2812-7.3124c-0.40478 0.2923-0.596 0.4969-0.84375 0.7187-0.24776 0.2218-0.50629 0.4345-0.78125 0.6875-0.54994 0.5061-1.1883 1.115-1.9062 1.7188-1.4359 1.2074-3.1982 2.4447-4.75 3.125-0.77591 0.3401-1.4924 0.5323-2.0625 0.5937s-0.98627 0.0273-1.4062-0.125-0.88174-0.4321-1.5-1.0937c-0.61827-0.6617-1.3632-1.7369-2.0938-3.375-0.71919-1.7196-1.8187-3.1872-3.4062-4.2813s-3.5804-1.6022-5.4375-1.4687c-1.8571 0.1334-3.5566 0.811-5.0938 1.7812s-2.9505 2.2533-4.25 3.8125c-2.9184 3.5017-5.6377 6.8149-8.4375 9.2813-2.7998 2.4663-5.5608 4.0514-8.7812 4.625-1.9581 0.3487-3.685 0.5242-4.9688 0.5-1.1377-0.0215-1.6851-0.2152-1.9375-0.3126-0.0114-0.2031-0.066-0.7652 0.4375-2.1562 0.95234-2.6308 2.4903-4.9171 4.5625-7.3438 2.0722-2.4266 4.6935-4.9572 7.4062-8 1.9716-2.2114 3.4009-4.3132 4.2812-6.5312 0.44015-1.109 0.7547-2.2601 0.8125-3.5s-0.171-2.5773-0.78125-3.8125c-0.61026-1.2352-1.6187-2.2794-2.7188-2.9687-1.1001-0.6894-2.2635-1.0873-3.4375-1.2813s-2.3565-0.1976-3.5938-0.0937z" fill-rule="evenodd"/>
</svg>
