<?xml version="1.0" encoding="UTF-8"?>
<svg width="300" height="61" version="1.1" viewBox="0 0 300 61" xmlns="http://www.w3.org/2000/svg">
 <g fill="#ff0" fill-opacity=".75" fill-rule="evenodd" stroke="#000" stroke-width="1pt">
  <polygon transform="translate(49.934 -3814.8)" d="m 48.608655,3873.8302 -10.588534,-19.6519 -16.322272,20.7376 8.762624,-20.5312 -26.390037,0.1684 21.515348,-5.9501 -16.5855664,-20.5276 18.0665754,13.1115 5.708175,-25.7658 1.013303,22.2999 23.703543,-11.6019 -16.803007,14.696 23.849661,11.2985 -21.96631,-3.9743 z" points="48.609 3873.8 38.02 3854.2 21.698 3874.9 30.46 3854.4 4.0704 3854.6 25.586 3848.6 9.0002 3828.1 27.067 3841.2 32.775 3815.4 33.788 3837.7 57.492 3826.1 40.689 3840.8 64.538 3852.1 42.572 3848.1"/>
  <path d="m217.4 59.034-10.589-19.652-16.322 20.738 8.7626-20.531-26.39 0.1684 21.515-5.9501-16.586-20.528 18.067 13.112 5.7082-25.766 1.0133 22.3 23.704-11.602-16.803 14.696 23.85 11.298-21.966-3.9743z"/>
 </g>
</svg>
