<?xml version="1.0" encoding="UTF-8"?>
<svg width="300" height="74" version="1.1" viewBox="0 0 300 74" xmlns="http://www.w3.org/2000/svg">
 <g fill="none" stroke="#000" stroke-width="1pt">
  <path d="m39.035 8.4053h23.457s-12.69-18.802-12.69 2.0512c0 20.853 0.38453 55.381 0.38453 55.381h16.919s-47.49 14.529-31.147 0"/>
  <path d="m82.323 37.319h-11.117s15.087 27.151 0 27.151"/>
  <path d="m79.002 43.654c7.8302-15.458 13-8.555 13-8.555v28.918h-5.8541"/>
  <path d="m93.639 29.942 9.3005-14.321v48.849s-0.84079-24.272 9.9261-29.4c10.767-5.1278 11.794 12.616 0.64274 12.616s-7.5643 0.0326-7.5643 0.0326l18.65 16.58h-13.266"/>
  <path d="m148.49 45.326s6.1576-15.125 0-11.965c-6.1576 3.1606-21.149 17.264-19.419 17.264 1.7304 0 19.854-1.8543 18.65 0-1.2042 1.8542-5.768 15.213-11.536 14.187-5.768-1.0255-9.2288-10.94-9.2288-10.94"/>
  <path d="m174.77 46.693c-7.802-12.014-18.458-12.648-18.458-12.648v20.511l12.305 10.94s9.6133 3.0768 9.6133-8.2046"/>
  <path d="m171.94 33.515h25.411s-15.372 0.2789-15.999 13.387c-0.62742 13.108 7.398 17.195 13.019 11.574 5.952-5.952 7.4291-24.649 7.4291-24.649v31.203"/>
  <path d="m208.33 73.397v-40.161h13.6c14.158 0 5.224 11.84-0.83268 18.686-6.025 6.8097-8.8001 5.641-8.8001-2.2312"/>
  <path d="m229.79 44.95h37.646s-0.31371-11.156-17.568-11.435c-17.254-0.2789-15.686 17.849-15.686 23.427s5.0194 15.897 17.882 15.897c12.862 0 15.372-13.666 15.372-20.081"/>
 </g>
</svg>
