<?xml version="1.0" encoding="UTF-8"?>
<svg width="300" height="53" version="1.1" viewBox="0 0 300 53" xmlns="http://www.w3.org/2000/svg">
 <g fill="none" stroke="#000" stroke-width=".75128pt">
  <path d="m67.897 41.902c-0.16654-1.3656-0.72364-7.8714-1.13-10.17 0.13455-2.9025-0.09193-6.623-0.37665-9.793-0.74347-4.0763-0.18739-7.7427 0-12.053 2.0612-4.2646 3.993-6.8304 6.7798-9.4163 4.6922 1.1534 5.8937 2.56 6.7798 7.1564 1.0873 3.7603 0.98858 7.7004 0.75331 12.053 0 4.0016-0.0053 5.616 2.2599 8.6631 5.424 0.4687 6.2942-0.011 8.2864-4.8966 1.9055-3.3123 2.5521-6.9294 3.7665-10.546 3.1668-2.2695 5.8839-3.094 9.4163-4.5198 4.767-1.225 7.699-0.0601 10.923 2.2599 1.736 4.9146 2.8524 8.223 0.37665 12.43-1.7277 2.3249-4.1847 4.0172-7.1564 5.6498-2.2199 1.4059-5.2043 2.9242-7.5331 4.5198-3.6775 0.4819-3.8613 3.5006-2.2599 6.4031 2.5469 1.4512 5.7288 0.5687 7.5331-1.8832 3.4855-1.6744 4.9982-3.1988 9.4163-3.3899 3.8053 0.5469 6.0402 1.173 8.2864 3.0133 2.3986 3.4645 3.2622 5.6753 4.1432 8.6629-1.8069 2.5195-2.944 3.8679-5.6498 5.6498-3.431 0-6.863 0.0343-10.17-0.3766-3.0962-0.3198-5.738-1.1251-8.663-1.5066-4.1553 0-8.0759 0.2078-12.053 0.7533-2.6627 0.0563-3.6157 0.3446-6.4031 0.3766-2.3716 0.1552-4.7144 0.5206-6.0265 0.7533-2.9372-0.0253-5.5423-0.5306-5.6498-0.7533-2.1192 0.0433-3.8993 0.0578-4.1432 0.3767"/>
  <path d="m174.38 41.902c-0.87182-10.336-2.3797-20.745-1.3851-31.119 0.98583-3.9091 3.0172-8.0874 6.9661-9.6972 4.6871-0.4192 6.7583 4.9465 7.1422 8.7906 0.72905 5.62-0.93401 11.529 1.2794 16.937 2.7348 3.4226 8.2837 1.0433 9.5588-2.5881 1.709-4.4388 1.8405-10.153 6.203-13.01 4.7286-2.6661 11.107-4.9245 16.057-1.5362 5.7957 4.6363 3.8145 14.882-2.8275 17.711-4.0297 2.8587-9.1072 4.2674-12.62 7.7871-1.8217 4.4839 5.5913 7.2763 7.7162 3.1412 4.2577-3.7219 10.892-5.473 15.921-2.2173 3.932 2.2476 7.1114 7.4635 4.8426 11.89-2.5558 4.1052-8.09 4.2833-12.365 3.5308-6.4891-1.0027-13.049-2.3289-19.634-1.397-7.7471 0.632-15.57 2.1598-23.332 0.8446-0.6842 0.0094-1.3732 0.1076-2.0162 0.349"/>
 </g>
</svg>
