<?xml version="1.0" encoding="UTF-8"?>
<svg width="300" height="98" version="1.1" viewBox="0 0 300 98" xmlns="http://www.w3.org/2000/svg" xmlns:xlink="http://www.w3.org/1999/xlink">
 <g transform="translate(-27.681)">
  <path id="a" d="m113.67 73.853c-16.593-6.2126-28.727-20.624-26.506-37.584 1.0744-8.2045 7.151-22.522 11.082-29.183 2.3174-3.9267 0.06287 6.3871-0.15929 8.3469-0.91169 8.0423-0.66462 17.609 6.2279 23.314 3.4417 2.8487 8.3216 3.3459 6.8865-2.8132-2.1819-9.3644 10.903-16.851 20.11-13.935 7.1073 2.2509 12.728 9.4197 10.968 16.949-1.9067 8.1575-11.609 4.7505-13.16-2.7849-1.5341-7.452-10.93 1.6922-9.8554 7.2857 1.4757 7.6817 9.5717 9.5136 16.01 10.234 7.9762 0.892 18.699-2.9107 19.601-11.738 0.7287-7.1304 3.8134-14.344 11.819-15.244 9.3783-1.0545 19.572-0.8772 33.297-0.1784-15.926 0-23.984 10.502-28.311 19.012-4.0019 7.8719-13.273 12.644-21.559 13.805-10.357 1.4509-24.134-0.7852-30.181-0.7852 0 10.717 9.0837 15.683 16.616 15.405 6.9546-0.2568 11.568-8.6819 18.445-11.49 8.5192-3.4786 18.514-3.2501 26.134 2.2007 6.039 4.3193 12.03 12.117 8.6618 19.643-3.3562 7.4991-13.903 8.7109-20.324 3.8681-5.8264-4.3942-12.202-9.1596-20.204-9.1204-7.0617 0.0345-11.043 2.4957-12.624 10.319-2.5288-6.8607-7.0498-9.8139-22.975-15.526z" fill="none" stroke="#ff0100" stroke-width=".675"/>
  <path d="m98.58 0.75391c-0.98964 0.079946-1.8669 0.3604-2.3887 0.6543-2.3892 1.3457-2.2609 2.0823-2.7207 2.8613-4.4275 7.5022-10.487 21.232-11.803 31.281-2.6109 19.937 11.658 36.604 30.057 43.492a5.5425 5.5425 0 0 0 0.0723 0.02734c7.8338 2.8097 12.635 4.9291 15.293 6.7148 2.6575 1.7858 3.3726 2.8432 4.3555 5.5098a5.5425 5.5425 0 0 0 10.631-0.81836c0.63397-3.137 1.4593-4.2111 2.2051-4.7852s2.1214-1.0757 5.0137-1.0898c5.7874-0.02835 11.028 3.6188 16.84 8.002 4.5525 3.4334 10.213 4.616 15.549 3.7383s10.655-4.142 13.172-9.7656c2.4762-5.5328 1.4079-11.441-0.97266-15.898-2.3805-4.4576-5.9259-7.9426-9.5234-10.516-3.9468-2.823-8.356-4.4351-12.875-5.123 2.0156-2.0118 3.7773-4.3239 5.1348-6.9941 3.901-7.6734 9.8815-15.982 23.371-15.982a5.5425 5.5425 0 0 0 0.28125-11.076c-13.817-0.70348-24.308-0.90494-34.197 0.20703-5.5572 0.62485-10.053 3.8357-12.637 7.7285s-3.6506 8.295-4.0762 12.459c-0.23342 2.2841-1.5174 3.7891-4.1621 5.1445-0.54205 0.2778-1.255 0.38-1.877 0.59375 2.1733-1.6455 3.7068-4.1436 4.3535-6.9102 2.5326-10.835-5.1568-20.475-14.691-23.494-6.6257-2.0983-13.56-0.52394-19.006 2.9902-4.0425 2.6087-7.5131 6.9193-8.3418 11.984-2.4311-4.0206-2.7176-9.697-2.0449-15.631-2e-3 0.01987 0.52926-2.9245 0.88086-5.2871 0.17579-1.1813 0.3338-2.2696 0.35156-3.5273 9e-3 -0.62885 0.15618-1.1682-0.39844-2.7246-0.27731-0.77819-0.83254-2.2064-2.7793-3.2188-0.9734-0.50618-2.0768-0.62682-3.0664-0.54687zm26.525 40.596c1.2077 2.3778 2.9942 4.286 5.1133 5.6543-0.81851-0.24598-1.6957-0.46762-2.3301-0.78516-1.978-0.99019-2.7826-1.7393-3.1816-3.8164 0.0664 0.3458-1e-3 -0.2433 0.39649-1.0488 6e-4 -0.0012 1e-3 -0.0027 2e-3 -0.0039zm2.5879 23.291c1.973 0.16104 3.041 0.21882 5.3418 0.37695 2.7548 0.18934 5.6754 0.33805 8.625 0.35156-2.3765 1.9783-4.1195 3.0068-5.3106 3.0508-2.4684 0.09117-5.4459-0.76672-7.4844-2.3828-0.48633-0.38556-0.77328-0.94162-1.1719-1.3965z" fill="none" stroke="#000" stroke-width=".675" xlink:href="#a"/>
  <path transform="matrix(.39324 0 0 .39324 199.77 1.5238)" d="m97.723 10.586c-3.7538 7.2006-8.5193 18.94-9.4219 25.832-2.1395 16.337 9.544 30.278 25.756 36.354 2e-3 5.79e-4 2e-3 0.0014 4e-3 2e-3 3e-3 0.0012 6e-3 0.0027 0.01 0.0039 7.9799 2.8625 13.153 5.0363 16.75 7.4531 2.6841 1.8036 4.2999 3.922 5.582 6.3027 0.8814-2.6116 2.0342-4.7878 3.7969-6.1445 2.3512-1.8096 5.3992-2.4587 9.0625-2.4766 8.4606-0.04145 15.073 4.9531 20.902 9.3496 2.9324 2.2115 6.881 3.0629 10.434 2.4785 3.5526-0.58437 6.6462-2.5356 8.1504-5.8965 1.52-3.3962 0.95032-6.7969-0.76758-10.014-1.7179-3.2168-4.614-6.1507-7.5137-8.2246-7.2465-5.1831-16.822-5.4253-25.033-2.0723-3.1497 1.2861-5.9569 3.9858-8.877 6.5078-2.92 2.522-6.0279 4.9212-9.959 5.0664-4.0353 0.14904-8.433-1.0885-11.889-3.8281-3.4557-2.7396-5.918-7.0432-5.918-12.727a1.1494 1.1494 0 0 1 1.1484-1.1484c3.1654 0 8.0881 0.56388 13.553 0.93945 5.4646 0.37557 11.44 0.55995 16.469-0.14453 7.9741-1.1171 16.931-5.7875 20.693-13.188 3.2828-6.4575 8.8361-14.155 18.217-17.686-8.208-0.21907-15.591-0.2085-22.049 0.51758-3.6802 0.4138-6.0952 2.1958-7.8086 4.7773-1.7134 2.5815-2.6444 5.9984-2.9961 9.4395-0.49616 4.855-3.7374 8.3554-7.7656 10.42-4.0282 2.0645-8.8815 2.8161-13.105 2.3438-3.2732-0.36601-7.026-1.0052-10.254-2.6211s-5.9497-4.3325-6.7578-8.5391c-0.33813-1.7601 0.14115-3.5944 0.96875-5.2715 0.82759-1.6771 2.0263-3.2126 3.3633-4.3535 1.337-1.1409 2.8246-1.9655 4.4238-1.8125 0.79959 0.07651 1.6004 0.46498 2.1797 1.1172s0.95403 1.5182 1.1738 2.5859c0.68711 3.3377 3.2411 5.7552 5.623 6.4004 1.191 0.32259 2.2876 0.22376 3.1855-0.30664 0.89793-0.5304 1.6839-1.5261 2.1074-3.3379 1.5995-6.8433-3.5933-13.5-10.197-15.592-4.1846-1.3252-9.4746-0.27198-13.355 2.2324-3.8809 2.5044-6.2494 6.2239-5.2891 10.346 0.39065 1.6766 0.40097 3.0251-0.0391 4.127-0.44004 1.1018-1.4307 1.8419-2.4727 2.0469-2.0839 0.40992-4.3255-0.64135-6.2266-2.2148-7.3683-6.0988-7.5625-16.16-6.6367-24.326 0.10076-0.88889 0.47865-2.8736 0.7793-4.7188z" fill-rule="evenodd" stroke-width=".425" xlink:href="#a"/>
 </g>
</svg>
