<?xml version="1.0" encoding="UTF-8"?>
<svg width="300" height="211" version="1.1" viewBox="0 0 300 211" xmlns="http://www.w3.org/2000/svg">
 <text x="150.05299" y="4.2369075" fill="#000000" font-family="'Liberation Sans',Arial,sans-serif" stroke-width="3pt" text-align="center" text-anchor="middle" style="line-height:0%" xml:space="preserve"><tspan x="150.05299" y="4.2369075" font-size="6px" text-align="center" text-anchor="middle" style="line-height:1.1">Formes originales</tspan></text>
 <text x="87.519615" y="75.103027" fill="#000000" font-family="'Liberation Sans',Arial,sans-serif" font-size="6px" stroke-width="3pt" text-align="center" text-anchor="middle" style="line-height:0%" xml:space="preserve"><tspan x="87.519615" y="75.103027" text-align="center" style="line-height:1.1">Union</tspan><tspan x="87.519615" y="81.236847" text-align="center" style="line-height:1.1">(Ctrl++)</tspan></text>
 <text x="149.67059" y="75.103027" fill="#000000" font-family="'Liberation Sans',Arial,sans-serif" font-size="6px" stroke-width="3pt" text-align="center" text-anchor="middle" style="line-height:0%" xml:space="preserve"><tspan x="149.67059" y="75.103027" text-align="center" style="line-height:1.1">Différence (Ctrl+-)</tspan><tspan x="149.67059" y="81.236847" text-align="center" style="line-height:1.1">(dessous moins dessus)</tspan></text>
 <text x="220.44482" y="75.103027" fill="#000000" font-family="'Liberation Sans',Arial,sans-serif" font-size="6px" stroke-width="3pt" text-align="center" text-anchor="middle" style="line-height:0%" xml:space="preserve"><tspan x="220.44482" y="75.103027" text-align="center" style="line-height:1.1">Intersection</tspan><tspan x="220.44482" y="81.236847" text-align="center" style="line-height:1.1">(Ctrl+*)</tspan></text>
 <text x="85.409157" y="149.98067" fill="#000000" font-family="'Liberation Sans',Arial,sans-serif" font-size="6px" stroke-width="3pt" text-align="center" text-anchor="middle" style="line-height:0%" xml:space="preserve"><tspan x="85.409157" y="149.98067" text-align="center" style="line-height:1.1">Exclusion</tspan><tspan x="85.409157" y="156.11449" text-align="center" style="line-height:1.1">(Ctrl+^)</tspan></text>
 <text x="148.76306" y="149.98067" fill="#000000" font-family="'Liberation Sans',Arial,sans-serif" font-size="6px" stroke-width="3pt" text-align="center" text-anchor="middle" style="line-height:0%" xml:space="preserve"><tspan x="148.76306" y="149.98067" text-align="center" style="line-height:1.1">Division</tspan><tspan x="148.76306" y="156.11449" text-align="center" style="line-height:1.1">(Ctrl+/)</tspan></text>
 <text x="214.10063" y="149.98067" fill="#000000" font-family="'Liberation Sans',Arial,sans-serif" font-size="6px" stroke-width="3pt" text-align="center" text-anchor="middle" style="line-height:0%" xml:space="preserve"><tspan x="214.10063" y="149.98067" text-align="center" style="line-height:1.1">Découper le chemin</tspan><tspan x="214.10063" y="156.11449" text-align="center" style="line-height:1.1">(Ctrl+Alt+/)</tspan></text>
 <rect x="130.69" y="12.863" width="37.561" height="27.398" fill="#00f" fill-opacity=".75" fill-rule="evenodd" stroke="#000" stroke-width="1pt"/>
 <ellipse cx="158.75" cy="41.368" rx="15.245" ry="15.687" fill="#f00" fill-opacity=".75" fill-rule="evenodd" stroke="#000" stroke-width="1pt"/>
 <path d="m66.919 90.828v27.375h12.938c-0.02672 0.3793-0.125 0.7387-0.125 1.125 0 8.6594 6.8345 15.688 15.25 15.688 8.4155 0 15.25-7.0281 15.25-15.688 0-4.9389-2.2794-9.3113-5.75-12.188v-16.312z" fill="#00f" fill-opacity=".75" fill-rule="evenodd" stroke="#000" stroke-width="1pt"/>
 <path d="m130.69 90.828v27.375h12.938c0.57218-8.1239 7.0849-14.562 15.125-14.562 3.6109 1e-4 6.8872 1.3385 9.5 3.5v-16.312z" fill="#00f" fill-opacity=".75" fill-rule="evenodd" stroke="#000" stroke-width="1pt"/>
 <path d="m222.53 103.64c-8.0401 0-14.553 6.4386-15.125 14.562h24.625v-11.062c-2.6128-2.1615-5.8891-3.4999-9.5-3.5z" fill="#00f" fill-opacity=".75" fill-rule="evenodd" stroke="#000" stroke-width="1pt"/>
 <path d="m66.903 165.7v27.375h12.938c0.57218-8.1239 7.0849-14.562 15.125-14.562 3.6109 1e-4 6.8872 1.3385 9.5 3.5v-16.312zm37.563 16.312v11.062h-24.625c-0.02671 0.3793-0.125 0.7387-0.125 1.125 0 8.6594 6.8345 15.688 15.25 15.688 8.4155 0 15.25-7.0281 15.25-15.688 0-4.9438-2.2735-9.3115-5.75-12.188z" fill="#00f" fill-opacity=".75" fill-rule="evenodd" stroke="#000" stroke-width="1pt"/>
 <path d="m130.71 165.74v27.375h12.938c0.0481-0.6835 0.0568-1.3746 0.1875-2.0312 0.20319-1.0209 0.4891-2.0304 0.875-2.9688 0.3859-0.9383 0.85813-1.8216 1.4062-2.6562s1.1851-1.6027 1.875-2.3125c0.68985-0.7098 1.4389-1.3735 2.25-1.9375 0.8111-0.564 1.6819-1.0404 2.5938-1.4375s1.8516-0.6972 2.8438-0.9063c0.99214-0.209 2.0106-0.3124 3.0625-0.3124 1.0519 0 2.1016 0.1034 3.0938 0.3124 0.99214 0.2091 1.9319 0.5092 2.8438 0.9063s1.7826 0.8735 2.5938 1.4375c0.35093 0.244 0.63943 0.5713 0.96875 0.8438v-16.313z" fill="#00f" fill-opacity=".75" fill-rule="evenodd" stroke="#000" stroke-width="1pt"/>
 <path d="m168.24 182.05c-0.32932-0.2725-0.61782-0.5998-0.96875-0.8438-0.81111-0.564-1.6819-1.0404-2.5938-1.4375s-1.8516-0.6972-2.8438-0.9063c-0.99215-0.209-2.0418-0.3124-3.0938-0.3124-1.0519 0-2.0704 0.1034-3.0625 0.3124-0.99215 0.2091-1.9319 0.5092-2.8438 0.9063s-1.7826 0.8735-2.5938 1.4375c-0.81111 0.564-1.5602 1.2277-2.25 1.9375-0.68986 0.7098-1.3269 1.4779-1.875 2.3125s-1.0204 1.7179-1.4062 2.6562c-0.3859 0.9384-0.67181 1.9479-0.875 2.9688-0.13068 0.6566-0.13936 1.3477-0.1875 2.0312h24.594z" fill="#00f" fill-opacity=".75" fill-rule="evenodd" stroke="#000" stroke-width="1pt"/>
 <path d="m208.47 194.75h24.624v-11.09" fill="none" stroke="#000" stroke-width="1pt"/>
 <path d="m232.03 182.24v-16.307h-37.561v27.398h12.937" fill="none" stroke="#000" stroke-width="1pt"/>
</svg>
