<?xml version="1.0" encoding="UTF-8"?>
<svg width="300" height="134" version="1.1" viewBox="0 0 300 134" xmlns="http://www.w3.org/2000/svg">
 <g fill="none">
  <path d="m116.32 90.263c-16.593-6.2126-24.466-26.139-22.245-43.098 1.0744-8.2045 2.8895-17.007 6.8208-23.668 2.3174-3.9267 0.0629 6.3871-0.15929 8.3469-0.91169 8.0423-0.66462 17.609 6.2279 23.314 3.4417 2.8487 8.3216 3.3459 6.8865-2.8132-2.1819-9.3644 10.903-16.851 20.11-13.935 7.1073 2.2509 12.728 9.4197 10.968 16.949-1.9067 8.1575-11.609 4.7505-13.16-2.7849-1.5341-7.452-10.93 1.6922-9.8554 7.2857 1.4757 7.6817 9.5717 9.5136 16.01 10.234 7.9762 0.892 18.699-2.9107 19.601-11.738 0.7287-7.1304 3.8134-14.344 11.819-15.244 9.3783-1.0545 19.572-0.8772 33.297-0.1784-15.926 0-23.984 10.502-28.311 19.012-4.0019 7.8719-13.273 12.644-21.559 13.805-10.357 1.4509-24.134-0.7852-30.181-0.7852 0 10.717 9.0837 15.683 16.616 15.405 6.9546-0.2568 11.568-8.6819 18.445-11.49 8.5192-3.4786 18.514-3.2501 26.134 2.2007 6.039 4.3193 12.03 12.117 8.6618 19.643-3.3562 7.4991-13.903 8.7109-20.324 3.8681-5.8264-4.3942-12.202-9.1596-20.204-9.1204-7.0617 0.0345-11.043 2.4957-12.624 10.319-2.5288-6.8607-7.0498-9.8139-22.975-15.526z" stroke="#ff0100" stroke-width=".675"/>
  <path d="m100.01 21.398c-6.5865 11.012-8.8588 24.639-7.8542 37.357 1.4662 15.945 12.325 30.921 28.108 35.206 8.3922 2.5896 16.351 7.4826 19.142 16.289 2.3025-2.1431 2.2379-11.427 8.3234-12.289 10.677-2.6818 18.681 5.9355 27.259 10.385 9.4986 4.4389 22.718-3.6319 20.134-14.646-3.6865-15.148-22.175-22.945-36.234-17.278-9.1641 2.0952-14.334 15.051-24.909 11.226-4.1563-0.3014-12.225-9.4724-7.1299-10.391 15.564 1.3074 34.077 3.2518 45.778-9.433 5.9677-8.4026 10.844-19.433 22.1-21.742 3.949-0.6228 17.73-2.3353 7.9707-5.1525-12.562-0.039-25.679-1.841-37.902 1.4328-8.5162 3.3589-7.7464 13.673-11.223 20.474-7.1627 7.4124-21.558 7.1071-28.43-0.3946-2.9717-3.595 0.097-9.54 4.1172-10.512 0.97348 6.9627 10.4 14.117 16 7.4063 7.6403-12.419-8.4226-27.667-21.085-22.691-8.1936 1.7471-14.36 9.9352-12.196 18.285-9.1218-1.8444-10.219-14.06-9.3163-21.897-0.37932-4.2875 3.9777-10.872-1.4649-13.103-0.20957 0.2592-1.0012 1.2384-1.1875 1.4688z" stroke="#000" stroke-width=".175"/>
  <path d="m100.67 15.711c-5.3526 2.7225-6.7668 10.347-9.2507 15.553-7.1213 20.678-3.8843 47.792 15.681 60.581 8.9049 7.0478 22.798 6.8743 28.038 18.397 2.06 6.3998 4.0922 12.406 7.2942 3.1594 2.6927-4.7914 3.3468-13.579 11.018-11.753 11.521 2.4269 20.788 15.648 33.522 10.868 12.265-3.2141 16.175-19.86 7.7314-28.903-4.8084-6.463-12.316-11.053-20.285-12.277 7.4577-8.2699 12.175-21.683 25.232-22.073 4.6717-0.4744 9.6944-2.1459 11.706-6.8023-6.6042-8.8109-18.346-4.8602-27.625-5.9566-10.391 0.0672-24.542-0.3382-29.275 11.105-2.2007 4.6227-2.0086 10.542-6.0382 14.133 7.8728-11.785-2.7444-27.82-15.753-29.513-10.109-2.0668-21.563 4.4545-24.341 14.513-4.7235-8.6206 1.6573-18.924-1.875-27.5-1.3705-1.7725-3.4562-3.7795-5.7812-3.5312zm28.719 44.906c-1.4226-1.6069-1.6139-2.3151 0 0zm9.2188 21.5c7.657-0.9517 1.6634 2.7741-2.5625 1.8125-7.8782-2.432-2.693-2.4662 2.5625-1.8125z" stroke="#000" stroke-width=".175"/>
  <path d="m98.543 12.804c-9.9801 7.226-12.053 20.852-13.978 32.2-2.9275 22.271 8.3957 47.031 30.166 55.285 8.3496 3.2244 17.239 8.4397 19.094 17.945 2.7009 6.1293 12.396 2.9429 12.267-3.3748 0.72995-6.1709 8.0128-12.219 13.108-6.212 10.174 5.6612 23.737 13.35 34.52 4.6229 13.252-8.5197 11.133-30.148-1.9383-37.964-2.453-4.1967-14.458-4.5851-7.9695-9.9418 4.815-7.4108 12.601-12.878 21.502-13.479 4.5688-1.4485 10.586-6.1835 10.552-10.684-9.8728-12.008-27.116-8.1234-40.729-8.4299-8.4006 0.4504-17.037 2.8888-22.594 9.625-7.2045-13.727-26.602-18.65-39.153-9.291-4.7693 2.4039-0.34659-9.0668-2.6284-12.428-1.1398-5.1329-6.723-11.096-12.219-7.875z" stroke="#000" stroke-width=".175"/>
  <path d="m99.543 0.2108c-17.313 5.1828-24.394 24.397-26.032 40.813-5.4969 29.384 12.02 61.126 39.907 71.937 9.9812 4.588 11.898 20.445 24.75 20.312 7.8321-0.3208 15.773-4.7118 18.875-12.125 14.367 9.2063 36.369 11.521 48.336-2.7873 13.772-14.314 10.554-40.31-5.3357-51.744 10.821-4.4843 25.057-9.1355 27.323-22.432 1.5943-12.408-11.823-19.936-22.401-21.838-14.933-3.2908-30.593-1.8182-45.359 1.3955-5.9241 5.4855-11.165-3.336-16.969-4.5937-6.5719-2.2932-13.698-3.2867-20.562-1.7813-2.55-9.8036-11.941-18.42-22.531-17.156z" stroke="#000" stroke-width=".175"/>
  <path d="m97.7 38.023c-4.5857 17.701-0.39592 40.201 17.089 49.215 8.2218 4.2031 18.471 6.1306 24.161 14.035 3.9589-10.467 17.834-8.9924 25.571-3.876 6.9977 3.8006 16.334 12.487 23.862 4.9891 7.3164-7.2849-1.5032-17.85-8.7477-21.066-11.117-5.697-24.487-0.993-32.373 7.9532-9.0445 6.3674-23.914 1.3981-26-9.6875-0.0135-6.3089 7.2159-7.4949 11.994-5.9339 14.442 1.7126 32.622 0.347 40.147-14.168 3.7002-5.8961 8.3419-11.596 14.516-14.992-8.5013 0.477-19.009-1.6596-25.5 5.0313-3.0589 8.1983-4.742 19.917-15.313 21.557-9.7947 3.0192-23.684 0.0034-26.968-10.776-0.93127-7.3476 5.8757-11.959 11.844-14.375-0.0215 4.9617 3.8862 14.357 10 10.812 4.9242-11.553-11.492-21.628-20.906-14.594-6.3962 3.8926-6.2125 12.384-3.9375 18.625-10.62-0.8239-19.234-10.23-18.501-20.963-0.57914-2.052 0.50275-7.6223-0.93634-1.7874z" stroke="#000" stroke-width=".175"/>
  <path d="m125.82 44.211c-10.253 7.0883-1.6599 2.4297 0 0zm10.531 4.5312c4.8517 10.668 0.92478-3.9624 0 0zm39.312-0.0625c-5.9943-0.4187-11.652 3.6412-12.046 9.7775 0.0298 2.4492-6.3154 10.556-1.9857 7.4725 6.8221-4.1288 9.6826-11.849 15.125-17.312-0.33279 0.019-1.062 0.0607-1.0938 0.0625zm-75.406 8.5938c1.3678 11.282 7.6652 22.743 18.469 27.344-2.9767-4.8662-0.6692-11.372 3.5938-14.094-2.9137-5.5236-8.4844-6.4922-13.906-8.0938-2.5857 0.0742-8.3962-7.927-8.1562-5.1562zm64 26.031c-2.7667 0.7464-13.161 5.4731-9.3636 6.3856 10.872 0.475 17.916 12.25 28.989 11.021 7.1396-4.9862-0.84244-14.642-7.1332-16.048-3.8781-1.725-8.3266-1.9523-12.492-1.3579z" stroke="#000" stroke-width=".175"/>
 </g>
</svg>
