<?xml version="1.0" encoding="UTF-8"?>
<svg width="300" height="113" version="1.1" viewBox="0 0 300 113" xmlns="http://www.w3.org/2000/svg">
 <g fill="none" stroke="#000" stroke-width="1pt">
  <path d="m49.467 13.757c0.0963 0.12038-6.0458-10.694 2.2957-8.6089 13.014 3.2535 36.676 11.755 39.601-2.8696 0.66483-3.3242-1.8955 6.5097-2.8696 9.7567-11.022 36.74-10.376 90.106-60.836 90.106-3.9439 0 1.6233-8.3075 4.5914-10.905" color="#000000"/>
  <path d="m83.838 57.809c2.6505 0.33132-2.1287-10.644 0 0 0.78564 3.9282-17.812 41.364-8.6089 22.957 15.013-30.025 26.377-37.167 20.087 0.57392-1.2616 7.5694 5.8759 5.7002 9.7567 4.5914" color="#000000"/>
  <path d="m149.33 49.915c0.85555 1.2833-3.0609-0.38262-4.5914-0.57393-6.7729-0.84661-15.446 12.452-4.5914 16.07 18.47 6.1566-6.9474 13.098-13.2 14.348" color="#000000"/>
  <path d="m187.78 45.323c0.67931-0.42456-5.3153 1.4479-9.1828 9.1828-11.902 23.804 20.087 8.7896 20.087-5.1653 0-11.549-31.716 4.4167-21.235 8.6089" color="#000000"/>
  <path d="m198.11 47.619c0-1.0308-3.2869 11.218 1.7218 21.235" color="#000000"/>
  <path d="m212.46 38.436c4.8081 24.04-7.0147 48.593-14.348 70.593-4.0844 12.253-0.0582-14.798 0.57392-22.383 3.2112-38.534 52.432-71.095 27.548-27.548-2.5136 4.3988-8.0755 5.7392-12.626 5.7392" color="#000000"/>
  <path d="m128.22 10.791c0.45322 0.67983-16.446 58.368-18.214 65-6.2285 23.357-13.256 15.48 2.8572-12.143 7.9942-13.704 20.377-26.489 12.5-2.8571-3.6409 10.923-12.324-1.9714-8.5714 9.2857 2.1318 6.3955 3.5815 10.662 10.714 9.6429" color="#000000"/>
  <path d="m171.79 48.291c-0.9245 1.3868-3.4525-0.61898-5 0-15.47 6.1878-25.187 28.823-0.71428 23.929 2.5602-0.51204 4.7619-2.1428 7.1428-3.2143" color="#000000"/>
  <path d="m233.57 51.862c-0.0235 0.04222 8.2119-2.601 14.643-5.3571 13.015-5.578 12.875-20.01-2.1428-11.429-10.41 5.9488-18.703 23.929-1.0714 23.929 9.3689 0 21.654-3.8909 28.929-10.357" color="#000000"/>
 </g>
</svg>
