<?xml version="1.0" encoding="UTF-8"?>
<svg width="300" height="56" version="1.1" viewBox="0 0 300 56" xmlns="http://www.w3.org/2000/svg">
 <g fill="none" stroke="#000" stroke-width="1pt">
  <path d="m92.706 6.445c-6.51-7.5367-18.171-7.0049-26.384-2.6524-5.7006 3.0209-11.538 6.5132-15.338 11.723-5.1988 7.1283-0.61272 18.406 8.263 21.306 6.6534 1.8189 14.244-3.4636 8.9076-12.673m4.9249-10.671c6.417-6.6213 17.628-1.3468 20.29 6.4263 2.2626 6.6075 2.766 14.498 9.1421 18.923 6.4116 4.4501 17.112 5.3114 21.246-2.2553 3.5305-6.4613-3.156-14.74-10.265-12.459m-56.928 26.977c7.0405 4.8966 14.771-1.7301 19.71-6.7631 5.2389-5.3392 13.278-1.1573 16.921 4.3694 3.321 5.0383 11.7 8.3208 15.913 2.3237"/>
  <path d="m219.19 6.7994c-6.51-7.5367-18.171-7.0049-26.384-2.6524-5.7006 3.0209-11.538 6.5132-15.338 11.723-5.1988 7.1283-0.61273 18.406 8.263 21.306 6.6534 1.8189 14.244-3.4636 8.9076-12.673"/>
  <path d="m199.57 13.832c6.417-6.6213 17.628-1.3468 20.29 6.4263 2.2626 6.6075 2.766 14.498 9.1421 18.923 6.4116 4.4501 17.112 5.3114 21.246-2.2553 3.5305-6.4613-3.156-14.74-10.265-12.459"/>
  <path d="m183.05 51.444c7.0405 4.8966 14.771-1.7301 19.71-6.7631 5.2389-5.3392 13.278-1.1573 16.921 4.3694 3.321 5.0383 11.7 8.3208 15.913 2.3237"/>
 </g>
</svg>
