<?xml version="1.0" encoding="UTF-8"?>
<svg width="300" height="41" version="1.1" viewBox="0 0 300 41" xmlns="http://www.w3.org/2000/svg">
 <g transform="translate(10 .011378)">
  <g transform="matrix(.52187 0 0 .52187 -7.8862 -265.18)" fill="#0cf" stroke="#2e75ac" stroke-linejoin="round" stroke-width="7.757">
   <path d="m53.99 511.98c19.39 0 35 15.61 35 35 0 5.8759-1.4335 11.405-3.9713 16.257-5.8367 11.16-17.515 18.743-31.029 18.743-11.965 0-22.492-5.9444-28.798-15.053-3.9132-5.652-6.2019-12.522-6.2019-19.947 0-19.39 15.61-35 35-35"/>
   <path d="m110.62 513.98c16.62 0 32.347 17.135 33.825 36.12 0.67929 6.1234-0.0537 11.656-2.229 15.815-5.0029 9.5659-13.66 13.902-23.946 11.825-9.0581-1.9168-16.929-8.8551-22.334-16.663-3.3542-4.8445-6.5233-10.733-8.099-17.097-2.959-16.62 6.1631-30 22.783-30"/>
   <path d="m167.26 515.98c13.85 0 29.694 18.66 32.65 37.24 1.3586 6.3708 1.3262 11.906-0.48657 15.372-4.1691 7.9716-9.8062 9.061-16.863 4.9075-6.1507-3.8337-11.366-11.766-15.87-18.272-2.7952-4.0371-6.8447-8.9445-9.996-14.248-5.918-13.85-3.2839-25 10.566-25"/>
   <path d="m223.89 517.98c11.08 0 27.041 20.185 31.475 38.36 2.0379 6.6183 2.706 12.157 1.2558 14.93-3.3353 6.3772-5.952 4.2201-9.7805-2.0102-3.2433-5.7505-5.8025-14.676-9.4063-19.882-2.2361-3.2297-7.1661-7.1556-11.893-11.398-8.8771-11.08-12.731-20-1.6508-20"/>
   <path d="m280.52 519.98c8.31 0 24.388 21.71 30.3 39.48 2.7172 6.8657 4.0858 12.408 2.9982 14.488-2.5014 4.7829-2.0979-0.62082-2.6977-8.9278-0.33596-7.6674-0.23949-17.587-2.9423-21.491-1.6771-2.4223-7.4874-5.3667-13.79-8.5486-11.836-8.31-22.178-15-13.868-15"/>
   <path d="m337.15 521.98c5.54 0 21.735 23.236 29.125 40.6 3.3965 7.1132 5.4656 12.659 4.7406 14.045-1.6676 3.1886 1.7563-5.4617 4.385-15.845 2.5714-9.5842 5.3235-20.498 3.5216-23.1-1.118-1.6148-7.8088-3.5778-15.687-5.6991-14.795-5.54-31.625-10-26.085-10"/>
   <path d="m393.79 523.98c2.77 0 19.082 24.761 27.95 41.72 4.0758 7.3606 6.8455 12.91 6.4829 13.603-0.83381 1.5943 5.6105-10.303 11.468-22.763 5.4788-11.501 10.887-23.409 9.9856-24.71-0.55903-0.80742-8.1302-1.7889-17.584-2.8495-17.754-2.77-41.072-5-38.302-5"/>
   <path d="m450.42 525.98s16.429 26.286 26.775 42.84c4.755 7.6081 8.2253 13.16 8.2253 13.16s9.4647-15.144 18.55-29.681c8.3862-13.418 16.45-26.319 16.45-26.319h-19.481-50.519"/>
  </g>
 </g>
</svg>
