<?xml version="1.0" encoding="UTF-8"?>
<svg width="300" height="31" version="1.1" viewBox="0 0 300 31" xmlns="http://www.w3.org/2000/svg">
 <g transform="translate(-14.75 -18.391)" fill="#0f0" stroke="#17a500" stroke-linejoin="round">
  <path d="m272.35 45.832h-10.653l-5.3267-9.226 5.3267-9.2261h10.653l5.3267 9.2261z" stroke-width=".86884"/>
  <path d="m47.747 47.01s-3.4902-3.2745-3.621-3.2745c-0.06542 0-0.78972 4.8295-0.87149 4.8295-0.08178 0-2.3935-4.1658-2.4807-4.1658-0.08723 0-2.2831 4.3928-2.3649 4.3928-0.08178 0-0.98643-4.6493-1.0518-4.6493-0.13084 0-3.581 3.5263-3.581 3.5263s0.60532-4.7532 0.5399-4.8665c-0.03271-0.0567-4.3589 2.1917-4.3998 2.1209-0.04089-0.0709 1.9782-4.3947 1.9346-4.4702-0.04361-0.0756-4.8806 0.725-4.9215 0.6542-0.04089-0.0708 3.1954-3.5398 3.1627-3.5965-0.06542-0.1133-4.9385-0.8368-4.9385-0.8368s4.2094-2.3001 4.2748-2.4134c0.03271-0.0566-4.322-2.2314-4.2811-2.3022 0.02044-0.0354 4.6909-0.9003 4.7124-0.9375 0.02147-0.0372-3.483-3.4379-3.4612-3.4757 0.02181-0.0377 4.7213 0.5734 4.7428 0.5363 0.02147-0.0372-2.2719-4.3618-2.2514-4.3972 0.04089-0.0708 4.3273 1.9257 4.36 1.8691 0.06542-0.1133-0.7671-4.9822-0.7671-4.9822s3.4902 3.2744 3.621 3.2744c0.06542 0 0.78972-4.8295 0.87149-4.8295 0.08177 0 2.3935 4.1658 2.4807 4.1658 0.08723 0 2.2831-4.3928 2.3649-4.3928 0.08178 0 0.98643 4.6493 1.0518 4.6493 0.13084 0 3.581-3.5263 3.581-3.5263s-0.60532 4.7533-0.5399 4.8666c0.03271 0.0567 4.3589-2.1918 4.3998-2.1209 0.04088 0.0708-1.9782 4.3946-1.9346 4.4702 0.02181 0.0377 4.837-0.8006 4.8584-0.7635 0.02147 0.0372-3.2319 3.4767-3.2115 3.5122 0.04088 0.0708 4.9085 0.7848 4.9412 0.8415 0.06542 0.1133-4.0568 2.4134-4.0568 2.4134s4.3493 2.1842 4.2838 2.2975c-0.03271 0.0566-4.7202 0.951-4.7611 1.0218-0.02044 0.0355 3.4847 3.435 3.4632 3.4721-0.02146 0.0373-4.721-0.5739-4.7428-0.5362-0.04361 0.0756 2.2273 4.4392 2.1864 4.51s-4.3273-1.9258-4.36-1.8692c-0.06542 0.1134 0.7671 4.9823 0.7671 4.9823" stroke-width=".79675"/>
  <g transform="matrix(.52187 0 0 .52187 15.004 -683.71)" stroke-width="1.6649">
   <path d="m330.45 1398.8s-3.2854-2.3716-4.5253-2.3716c-0.60702 0-1.7838 3.4978-2.5446 3.4978-0.66182 0-2.9751-3.0171-3.6863-3.0171-0.71141 0-2.959 3.1816-3.6572 3.1816-0.70686 0-1.9908-3.3673-2.6195-3.3673-0.84803 0-4.0205 2.5539-4.5524 2.5539-0.7604 0-1.0708-1.2605-0.95447-2.2742 0.0759-0.6615 9e-3 -1.4332-0.22377-1.8358-0.2526-0.4375-3.7174 0.6166-4.1385-0.1128-0.31893-0.5524 0.82131-4.2417 0.45217-4.8811-0.3453-0.5981-4.1756-0.5848-4.5318-1.2019-0.34543-0.5983 1.6831-3.657 1.3569-4.2219-0.39642-0.6866-4.2576-1.7854-4.553-2.297-0.40265-0.6974 2.311-2.9434 2.1398-3.4042-0.16741-0.3193-0.66548-0.7042-1.1784-0.9712-0.9222-0.48-1.9592-1.5898-1.5274-2.3376 0.27437-0.4753 3.9775-1.6569 4.3486-2.2997 0.31449-0.5448-1.8999-3.5684-1.5511-4.1726 0.32173-0.5572 4.0392-0.6581 4.3644-1.2215 0.34569-0.5988-0.98976-4.2947-0.66855-4.851 0.36753-0.6366 3.7866 0.2644 4.0824-0.2478 0.62741-1.0867 0.49026-4.8455 0.42197-5.2462-5e-3 -0.028 5.9e-4 -0.043 0.0159-0.043 0.13627 0 3.3895 2.3715 4.5248 2.3715 0.60789 0 1.7844-3.4978 2.5442-3.4978 0.6622 0 2.9755 3.0171 3.6863 3.0171 0.71182 0 2.9596-3.1815 3.6574-3.1815 0.70753 0 1.9918 3.3672 2.6202 3.3672 0.84938 0 4.0219-2.5539 4.5519-2.5539 0.74698 0 1.0524 1.2252 0.93659 2.2312-0.0783 0.6803-9e-3 1.4835 0.23066 1.8994 0.25444 0.4407 3.7189-0.6141 4.1384 0.1125 0.31931 0.5531-0.82089 4.2425-0.45196 4.8815 0.32671 0.5658 4.138 0.5196 4.4769 1.1067 0.32907 0.57-1.7141 3.6033-1.3989 4.1493 0.37859 0.6557 4.2358 1.7477 4.5551 2.3006 0.42807 0.7414-2.2369 2.9624-2.0177 3.3421 0.20041 0.3471 0.78853 0.785 1.3646 1.0804 0.91167 0.4676 1.8411 1.5006 1.4223 2.226-0.28363 0.4913-4.0041 1.7029-4.3969 2.3832-0.31298 0.5422 1.9021 3.5646 1.5532 4.1688-0.32127 0.5565-4.0389 0.6577-4.3649 1.2223-0.36648 0.6348 0.94766 4.3676 0.60695 4.9577-0.36727 0.6362-3.7865-0.2647-4.0828 0.2485-0.63698 1.1033-0.42635 5.3091-0.42635 5.3091"/>
   <path d="m263.07 1399.1s-4.1417-3.3539-5.1326-3.3539c-0.4858 0-1.7157 4.9466-2.3244 4.9466-0.53469 0-3.3806-4.2668-3.9549-4.2668-0.57442 0-3.3154 4.4994-3.8772 4.4994-0.56839 0-1.9655-4.762-2.4675-4.762-0.69768 0-4.7356 3.6117-5.1337 3.6117-0.56902 0-0.69437-1.7826-0.52992-3.2162 0.10732-0.9355 0.095-1.8835-0.0914-2.2064-0.2048-0.3547-4.884 1.5184-5.2188 0.9385-0.25838-0.4476 1.5686-5.2936 1.2714-5.8085-0.27943-0.484-5.4784-0.088-5.7648-0.5838-0.27821-0.4819 2.8006-4.4438 2.5407-4.8939-0.3282-0.5685-5.5678-1.7395-5.7888-2.1224-0.3013-0.5219 3.7595-3.3119 3.6629-3.7113-0.11963-0.2487-0.75702-0.677-1.4824-1.0546-1.3042-0.6788-2.9428-1.9503-2.6071-2.5318 0.21518-0.3727 5.2387-1.6741 5.5268-2.173 0.24569-0.4256-3.1015-4.3283-2.8299-4.7986 0.25126-0.4353 5.2996-0.216 5.5533-0.6555 0.26903-0.4661-1.8363-5.3174-1.5861-5.7508 0.29474-0.5105 4.9205 1.1266 5.1576 0.716 0.499-0.8643 0.0472-5.7334-0.0493-6.3001-7e-3 -0.039-4e-3 -0.06 7e-3 -0.06 0.10197 0 4.2196 3.3538 5.1323 3.3538 0.48644 0 1.7162-4.9466 2.3241-4.9466 0.53498 0 3.3809 4.2668 3.9549 4.2668 0.57473 0 3.3158-4.4993 3.8774-4.4993 0.5689 0 1.9662 4.762 2.468 4.762 0.69871 0 4.7367-3.6118 5.1333-3.6118 0.55897 0 0.68364 1.7326 0.51984 3.1553-0.11079 0.9621-0.0991 1.9495 0.0932 2.2827 0.20618 0.3571 4.8851-1.5165 5.2187-0.9387 0.25866 0.4481-1.5683 5.2942-1.2712 5.8088 0.255 0.4416 5.4292 0 5.6932 0.46 0.2566 0.4444-2.8414 4.3731-2.5956 4.7987 0.30302 0.5249 5.537 1.6864 5.7917 2.1275 0.35188 0.6094-3.6304 3.3807-3.4663 3.6649 0.14997 0.2597 0.90456 0.7453 1.7192 1.1631 1.2893 0.6612 2.765 1.8428 2.4322 2.4191-0.22802 0.3949-5.2728 1.733-5.5864 2.2762-0.24407 0.4228 3.104 4.324 2.8326 4.7941-0.25076 0.4344-5.2992 0.2153-5.5536 0.6561-0.29527 0.5114 1.7833 5.4092 1.5086 5.8849-0.29455 0.5102-4.9204-1.1268-5.1579-0.7155-0.50821 0.8803 0.0509 6.3757 0.0509 6.3757"/>
   <path d="m211.37 1399.4s-4.7988-4.1076-5.5987-4.1076c-0.39277 0-1.6634 6.0583-2.1555 6.0583-0.43714 0-3.6918-5.2257-4.161-5.2257-0.46931 0-3.5888 5.5106-4.0461 5.5106-0.46214 0-1.946-5.8323-2.3509-5.8323-0.58233 0-5.2843 4.4235-5.5797 4.4235-0.42216 0-0.40555-2.1832-0.20415-3.939 0.13144-1.1458 0.16126-2.2291 0.0102-2.4908-0.16812-0.2912-5.7791 2.2104-6.0478 1.7451-0.21192-0.367 2.142-6.1007 1.8999-6.52-0.22889-0.3965-6.4782 0.2933-6.7108-0.1096-0.22663-0.3926 3.658-5.0475 3.4491-5.4095-0.27585-0.4778-6.5731-1.7044-6.7371-1.9885-0.22354-0.3872 4.8709-3.5946 4.8316-3.947-0.083-0.1945-0.82727-0.6561-1.7157-1.1185-1.5973-0.8314-3.6976-2.2268-3.4355-2.6808 0.16975-0.294 6.2065-1.6872 6.4308-2.0758 0.1929-0.3341-4.0235-4.9113-3.8112-5.279 0.1972-0.3416 6.2667 0.1233 6.4656-0.2211 0.21021-0.3642-2.4859-6.1021-2.2902-6.4412 0.23889-0.4137 5.7906 1.7882 5.9827 1.4556 0.40047-0.6937-0.29271-6.4148-0.41098-7.1089-8e-3 -0.048-8e-3 -0.074 2.7e-4 -0.074 0.0757 0 4.8566 4.1076 5.5985 4.1076 0.39325 0 1.6638-6.0583 2.1553-6.0583 0.43734 0 3.692 5.2257 4.161 5.2257 0.46954 0 3.5891-5.5105 4.0462-5.5105 0.46252 0 1.9466 5.8322 2.3512 5.8322 0.58309 0 5.2851-4.4235 5.5794-4.4235 0.41472 0 0.40068 2.122 0.20006 3.8644-0.13568 1.1784-0.16799 2.307-0.0122 2.5769 0.16915 0.293 5.7799-2.2091 6.0477-1.7453 0.21213 0.3675-2.1418 6.1011-1.8998 6.5202 0.19997 0.3464 6.4201-0.3938 6.6266-0.036 0.20099 0.3481-3.7063 4.9638-3.5139 5.2971 0.24504 0.4244 6.5354 1.6393 6.7406 1.9946 0.29342 0.5082-4.6997 3.7017-4.5779 3.9125 0.11126 0.1927 0.99358 0.7149 1.9913 1.2266 1.579 0.8099 3.4739 2.1054 3.2072 2.5673-0.18535 0.3211-6.2462 1.7561-6.4992 2.1941-0.19119 0.3312 4.0262 4.9068 3.8142 5.2739-0.19666 0.3407-6.2662-0.1241-6.4658 0.2216-0.24063 0.4168 2.4245 6.2085 2.2005 6.5965-0.23875 0.4135-5.7905-1.7884-5.9829-1.4552-0.4094 0.7091 0.41713 7.194 0.41713 7.194"/>
   <path d="m167.78 1399.6s-5.3528-4.7431-5.9916-4.7431c-0.31435 0-1.6194 6.9955-2.0131 6.9955-0.3549 0-3.9542-6.0341-4.3348-6.0341-0.3807 0-3.8193 6.363-4.1885 6.363-0.37257 0-1.9297-6.7345-2.2525-6.7345-0.48509 0-5.747 5.1078-5.9557 5.1078-0.29836 0-0.16208-2.5209 0.0705-4.5483 0.15177-1.3232 0.21711-2.5205 0.0958-2.7306-0.1372-0.2376-6.5337 2.7938-6.7466 2.4252-0.17275-0.2992 2.6255-6.7811 2.4299-7.1199-0.18627-0.3227-7.321 0.6147-7.5084 0.2901-0.18314-0.3172 4.3809-5.5564 4.2149-5.8441-0.23171-0.4013-7.4206-1.6748-7.5365-1.8755-0.15798-0.2737 5.8079-3.833 5.8169-4.1457-0.0521-0.1489-0.88649-0.6385-1.9124-1.1725-1.8444-0.96-4.3339-2.46-4.1339-2.8064 0.13146-0.2277 7.0224-1.6984 7.193-1.9938 0.14839-0.2571-4.8008-5.403-4.6385-5.684 0.15163-0.2627 7.082 0.4093 7.2346 0.145 0.16063-0.2783-3.0336-6.7637-2.8837-7.0231 0.19182-0.3323 6.5242 2.3459 6.6783 2.0789 0.3174-0.5497-0.5793-6.9891-0.71587-7.7907-9e-3 -0.056-0.0115-0.085-5e-3 -0.085 0.0535 0 5.3936 4.7431 5.9914 4.7431 0.31469 0 1.6196-6.9955 2.013-6.9955 0.35504 0 3.9543 6.0341 4.3348 6.0341 0.38085 0 3.8195-6.363 4.1886-6.363 0.37284 0 1.93 6.7345 2.2528 6.7345 0.48561 0 5.7475-5.1078 5.9555-5.1078 0.29309 0 0.16212 2.4503-0.0695 4.4622-0.15666 1.3607-0.22602 2.6084-0.10108 2.8248 0.13792 0.2389 6.5343-2.7929 6.7465-2.4253 0.1729 0.2995-2.6253 6.7814-2.4298 7.1201 0.15359 0.2659 7.2554-0.7283 7.4134-0.4547 0.15411 0.267-4.4356 5.4619-4.2881 5.7174 0.19616 0.3397 7.3772 1.5996 7.5405 1.8825 0.24413 0.4228-5.6011 3.9723-5.5151 4.1213 0.0786 0.1362 1.0686 0.6893 2.2208 1.2802 1.8233 0.9351 4.0715 2.3267 3.8605 2.6921-0.14938 0.2588-7.0669 1.7756-7.2686 2.125-0.14661 0.2539 4.8036 5.398 4.6418 5.6783-0.15105 0.2617-7.0815-0.4102-7.2348-0.1447-0.19458 0.337 2.9651 6.8823 2.7838 7.1963-0.19171 0.3321-6.5241-2.346-6.6784-2.0788-0.3261 0.5649 0.72586 7.8841 0.72586 7.8841"/>
   <path d="m129.38 1399.8s-5.8408-5.303-6.3378-5.303c-0.24526 0-1.5806 7.8213-1.8877 7.8213-0.28244 0-4.1853-6.7464-4.4879-6.7464-0.30262 0-4.0224 7.1141-4.3139 7.1141-0.29365 0-1.9152-7.5294-2.1659-7.5294-0.3994 0-6.1545 5.7107-6.287 5.7107-0.18928 0 0.0524-2.8185 0.31245-5.0852 0.16968-1.4793 0.26631-2.7771 0.17126-2.9417-0.10995-0.1905-7.1986 3.3077-7.3623 3.0242-0.13824-0.2394 3.0514-7.3806 2.8967-7.6484-0.14873-0.2576-8.0635 0.8979-8.211 0.6423-0.14483-0.2508 5.0178-6.0048 4.8895-6.227-0.19283-0.334-8.1673-1.6487-8.2408-1.776-0.10023-0.1736 6.6334-4.043 6.6849-4.3208-0.02485-0.1086-0.93866-0.623-2.0857-1.22-2.0621-1.0733-4.8945-2.6653-4.7492-2.917 0.09772-0.1693 7.7412-1.7082 7.8644-1.9217 0.10918-0.1891-5.4856-5.836-5.3674-6.0408 0.11147-0.1931 7.8003 0.6614 7.9122 0.4677 0.11695-0.2026-3.516-7.3465-3.4067-7.5359 0.15033-0.2604 7.1704 2.8373 7.2911 2.6282 0.24422-0.423-0.83178-7.4952-0.98447-8.3913-0.0106-0.062-0.0143-0.095-0.0105-0.095 0.0339 0 5.8667 5.3029 6.3376 5.3029 0.24548 0 1.5808-7.8212 1.8876-7.8212 0.28253 0 4.1854 6.7463 4.4879 6.7463 0.30273 0 4.0225-7.1141 4.314-7.1141 0.29382 0 1.9155 7.5294 2.166 7.5294 0.39974 0 6.1549-5.7107 6.2868-5.7107 0.18595 0-0.0481 2.7395-0.30705 4.989-0.17516 1.5212-0.27715 2.8739-0.1794 3.0432 0.11042 0.1912 7.199-3.3072 7.3622-3.0244 0.13833 0.2397-3.0513 7.3807-2.8967 7.6485 0.11272 0.1952 7.9913-1.0228 8.1066-0.8232 0.11281 0.1954-5.078 5.9006-4.9701 6.0875 0.15309 0.2652 8.1187 1.5647 8.2453 1.7838 0.20071 0.3476-6.3952 4.2107-6.3407 4.3053 0.0499 0.086 1.1348 0.6667 2.4229 1.3273 2.0386 1.0455 4.5981 2.5217 4.4361 2.8022-0.11768 0.2039-7.79 1.7927-7.9466 2.064-0.10733 0.1859 5.4886 5.8308 5.3709 6.0347-0.11087 0.1921-7.7998-0.6623-7.9123-0.4674-0.15399 0.2667 3.4413 7.4759 3.2977 7.7247-0.15027 0.2603-7.1703-2.8374-7.2912-2.6281-0.25272 0.4378 0.99786 8.4919 0.99786 8.4919"/>
   <path d="m94.667 1400s-6.282-5.8091-6.6507-5.8091c-0.1828 0-1.5455 8.5677-1.7742 8.5677-0.21694 0-4.3942-7.3902-4.6263-7.3902-0.23205 0-4.206 7.793-4.4273 7.793-0.2223 0-1.9022-8.248-2.0876-8.248-0.32194 0-6.523 6.2558-6.5864 6.2558-0.09068 0 0.24636-3.0876 0.53119-5.5706 0.18588-1.6205 0.31079-3.0092 0.23947-3.1327-0.08532-0.1478-7.7997 3.7724-7.9189 3.5659-0.10704-0.1854 3.4364-7.9225 3.3188-8.1262-0.11479-0.1989-8.7348 1.1539-8.8463 0.9608-0.1102-0.1909 5.5936-6.4102 5.4995-6.5733-0.15768-0.2731-8.8423-1.6251-8.8776-1.6861-0.04802-0.083 7.3797-4.2328 7.4697-4.479-2.34e-4 -0.072-0.98583-0.609-2.2423-1.2629-2.2589-1.1758-5.4013-2.8511-5.3055-3.0171 0.06722-0.1164 8.391-1.717 8.4715-1.8564 0.07373-0.1277-6.1047-6.2275-6.0263-6.3633 0.07517-0.1303 8.4498 0.8891 8.5248 0.7593 0.07745-0.1342-3.9522-7.8735-3.8794-7.9995 0.11283-0.1955 7.7546 3.2815 7.8451 3.1248 0.17806-0.3084-1.0601-7.9527-1.2273-8.9344-0.01162-0.068-0.01691-0.1046-0.01507-0.1046 0.01625 0 6.2944 5.809 6.6507 5.809 0.1829 0 1.5456-8.5677 1.7742-8.5677 0.21698 0 4.3943 7.3903 4.6263 7.3903 0.2321 0 4.2061-7.7931 4.4273-7.7931 0.22239 0 1.9023 8.248 2.0876 8.248 0.3221 0 6.5232-6.2557 6.5864-6.2557 0.08908 0-0.23805 3.0009-0.52178 5.4651-0.19188 1.6664-0.32337 3.1139-0.25019 3.2407 0.08555 0.1482 7.7998-3.7722 7.9189-3.5661 0.10708 0.1856-3.4364 7.9226-3.3188 8.1264 0.07576 0.1311 8.6567-1.2892 8.7333-1.1565 0.0755 0.1308-5.6588 6.2973-5.5867 6.4222 0.11415 0.1977 8.7891 1.533 8.8824 1.6945 0.16145 0.2797-7.1132 4.4263-7.0871 4.4716 0.0239 0.041 1.1945 0.6463 2.6056 1.37 2.2331 1.1452 5.0741 2.698 4.9565 2.9017-0.089 0.1542-8.4436 1.8082-8.5595 2.0088-0.07182 0.1245 6.1079 6.2222 6.03 6.3569-0.0745 0.1292-8.4491-0.8902-8.5248-0.7592-0.11731 0.2033 3.8719 8.0127 3.7623 8.2026-0.11281 0.1953-7.7546-3.2816-7.8452-3.1249-0.18637 0.3229 1.2438 9.0415 1.2438 9.0415"/>
  </g>
 </g>
</svg>
