<?xml version="1.0" encoding="UTF-8"?>
<svg width="300" height="37" version="1.1" viewBox="0 0 300 37" xmlns="http://www.w3.org/2000/svg">
 <g transform="translate(-11.812 -16.973)">
  <path d="m52.663 48.163c-2.9976 2.9047-3.5071-5.427-7.1207-3.1925-3.6849 2.2787 1.1326 7.9413-3.2277 8.4695-4.2758 0.518 1.5441-6.9599-2.6777-7.5296-4.3051-0.581-3.831 7.2721-7.9079 5.6902-3.9979-1.5513 4.5381-5.7159 1.6296-8.8711-2.9659-3.2174-6.2133 5.7226-8.4629 1.9619-2.206-3.6879 5.5681-2.5544 4.9588-6.6857-0.62133-4.2129-8.4029-0.204-8.0303-4.4441 0.36534-4.1581 8.0153 2.7473 9.9006-1.0625 1.9225-3.8849-6.9532-4.6723-4.2767-7.8973 2.6247-3.1626 4.6708 4.5784 8.3708 2.3642 3.773-2.2578-2.7067-7.438 1.4582-8.4264 4.0843-0.9693 0.18368 7.8024 4.3501 8.2857 4.2486 0.4929 2.8247-8.4766 6.6595-6.6728 3.7606 1.769-3.6131 6.4805-0.83385 9.63 2.8341 3.2116 5.5873-5.8283 7.7624-2.1005 2.1329 3.6555-5.5152 3.2348-4.8635 7.5015 0.66462 4.351 8.8783 0.2244 8.0285 4.4871-0.83336 4.1802-8.3722-3.7561-9.9941 0.2035-1.6539 4.0378 7.3336 5.3268 4.2768 8.2889z" fill="#fc0"/>
  <path d="m276.7 46.671c-2.9976 2.9048-3.5071-5.4269-7.1207-3.1924-3.6849 2.2786 1.1326 7.9413-3.2277 8.4695-4.2758 0.518 1.5441-6.96-2.6777-7.5297-4.3052-0.5809-3.831 7.2721-7.9079 5.6902-3.9979-1.5512 4.5381-5.7159 1.6296-8.871-2.9659-3.2174-6.2133 5.7225-8.4629 1.9618-2.206-3.6879 5.568-2.5543 4.9588-6.6857-0.62133-4.2129-8.4029-0.2039-8.0303-4.4441 0.36534-4.158 8.0153 2.7474 9.9006-1.0624 1.9225-3.885-6.9532-4.6724-4.2767-7.8974 2.6247-3.1626 4.6708 4.5785 8.3708 2.3643 3.773-2.2578-2.7067-7.438 1.4582-8.4264 4.0843-0.9693 0.18367 7.8024 4.35 8.2857 4.2486 0.4928 2.8247-8.4766 6.6595-6.6728 3.7606 1.7689-3.6131 6.4805-0.83385 9.6299 2.8341 3.2117 5.5873-5.8282 7.7624-2.1005 2.133 3.6556-5.5152 3.2348-4.8635 7.5016 0.66462 4.351 8.8783 0.2244 8.0285 4.4871-0.83336 4.1802-8.3722-3.7561-9.9941 0.2035-1.6539 4.0378 7.3336 5.3268 4.2768 8.2888z" fill="#d40000"/>
  <g transform="matrix(.52187 0 0 .52187 16.74 -799.46)">
   <path d="m436.79 1621.7c-5.744 5.566-6.7202-10.399-13.644-6.1173-1.9e-4 1e-4 -3.7e-4 2e-4 -5.5e-4 3e-4 -7.06 4.3665 2.1706 15.217-6.1842 16.229h-1.1e-4c-8.193 0.9924 2.9588-13.336-5.1309-14.428-2.2e-4 -1e-4 -4.3e-4 -1e-4 -6.5e-4 -1e-4 -8.2487-1.1124-7.3405 13.935-15.152 10.904-3e-5 -1e-4 -7e-5 -1e-4 -1e-4 -1e-4 -7.6605-2.9725 8.6958-10.953 3.1228-16.998-3e-5 -1e-4 -5e-5 -1e-4 -8e-5 -1e-4 -5.6831-6.165-11.906 10.965-16.216 3.7593-2e-5 -1e-4 -4e-5 -1e-4 -6e-5 -1e-4 -4.227-7.0666 10.669-4.8946 9.5019-12.811-1e-5 -1e-4 -1e-5 -1e-4 -2e-5 -1e-4 -1.1907-8.0726-16.101-0.3908-15.388-8.5156 0-1e-4 1e-5 -1e-4 1e-5 -1e-4 0.70017-7.9674 15.359 5.2644 18.971-2.0357 2e-5 -1e-4 3e-5 -1e-4 5e-5 -1e-4 3.6836-7.4443-13.324-8.9531-8.195-15.133 2e-5 -1e-4 4e-5 -1e-4 6e-5 -1e-4 5.0294-6.0599 8.95 8.7731 16.04 4.5305 3e-5 -1e-4 6e-5 -1e-4 9e-5 -1e-4 7.2296-4.3264-5.1866-14.253 2.7941-16.146 3e-5 -1e-4 7e-5 -1e-4 1e-4 -1e-4 7.8261-1.8571 0.35189 14.951 8.3354 15.877h1.1e-4c8.141 0.9442 5.4125-16.243 12.761-12.786h9e-5c7.2058 3.3896-6.9234 12.418-1.5979 18.453h7e-5c5.4306 6.1539 10.706-11.168 14.874-4.025 1.1e-4 1e-4 2.1e-4 3e-4 3.2e-4 5e-4 4.086 7.0041-10.568 6.1982-9.3196 14.374 3e-5 2e-4 7e-5 4e-4 1e-4 6e-4 1.2742 8.3361 17.012 0.4295 15.384 8.5974-4e-5 2e-4 -8e-5 4e-4 -1.3e-4 6e-4 -1.5975 8.0087-16.043-7.1977-19.15 0.3894-8e-5 2e-4 -1.7e-4 4e-4 -2.5e-4 6e-4 -3.1681 7.7367 14.053 10.207 8.1953 15.882" fill="#da1d00"/>
   <path d="m375.47 1622.1c-5.744 5.566-6.7202-10.399-13.644-6.1173-1.6e-4 1e-4 -3.1e-4 2e-4 -4.6e-4 3e-4 -7.0601 4.3665 2.1705 15.217-6.1843 16.229h-2.1e-4c-8.1928 0.9924 2.9589-13.336-5.1308-14.428-1.8e-4 0-3.6e-4 0-5.4e-4 -1e-4 -8.2488-1.1124-7.3406 13.935-15.152 10.904-7e-5 0-1.4e-4 0-2e-4 -1e-4 -7.6603-2.9725 8.6959-10.953 3.1228-16.998-5e-5 0-1e-4 -1e-4 -1.5e-4 -1e-4 -5.6831-6.1648-11.906 10.966-16.216 3.7593-4e-5 0-8e-5 -1e-4 -1.1e-4 -2e-4 -4.2268-7.0664 10.67-4.8945 9.502-12.811-1e-5 -1e-4 -2e-5 -1e-4 -3e-5 -2e-4 -1.1908-8.0724-16.101-0.3907-15.388-8.5155 0-1e-4 1e-5 -1e-4 2e-5 -2e-4 0.70028-7.9672 15.359 5.2646 18.971-2.0356 3e-5 -1e-4 6e-5 -1e-4 1e-4 -2e-4 3.6834-7.4441-13.324-8.9529-8.195-15.133 4e-5 0 9e-5 -1e-4 1.3e-4 -1e-4 5.0294-6.0597 8.95 8.7732 16.04 4.5305 6e-5 0 1.3e-4 -1e-4 1.9e-4 -1e-4 7.2294-4.3265-5.1867-14.252 2.794-16.146h2e-4c7.8259-1.857 0.35183 14.951 8.3353 15.877h2.1e-4c8.1409 0.9441 5.4125-16.243 12.761-12.786 6e-5 0 1.2e-4 1e-4 1.9e-4 1e-4 7.2056 3.3897-6.9235 12.418-1.598 18.453 5e-5 1e-4 9e-5 1e-4 1.4e-4 2e-4 5.4306 6.1536 10.706-11.168 14.874-4.0252 9e-5 2e-4 1.8e-4 3e-4 2.7e-4 5e-4 4.0862 7.0042-10.568 6.1982-9.3196 14.374 3e-5 2e-4 5e-5 4e-4 8e-5 6e-4 1.2741 8.3363 17.012 0.4295 15.384 8.5974-4e-5 2e-4 -7e-5 4e-4 -1e-4 5e-4 -1.5974 8.009-16.043-7.1976-19.15 0.3895-7e-5 2e-4 -1.4e-4 4e-4 -2.1e-4 5e-4 -3.1683 7.7368 14.053 10.207 8.1953 15.882" fill="#e03a00"/>
   <path d="m314.14 1622.6c-5.744 5.566-6.7202-10.399-13.644-6.1173-1.3e-4 0-2.5e-4 1e-4 -3.7e-4 2e-4 -7.0603 4.3664 2.1704 15.217-6.1844 16.229h-3.2e-4c-8.1926 0.9922 2.959-13.336-5.1306-14.428-1.5e-4 0-2.9e-4 -1e-4 -4.3e-4 -1e-4 -8.249-1.1126-7.3406 13.935-15.152 10.904-1e-4 -1e-4 -2e-4 -1e-4 -3e-4 -1e-4 -7.66-2.9726 8.696-10.953 3.123-16.998-8e-5 -1e-4 -1.5e-4 -2e-4 -2.3e-4 -3e-4 -5.6831-6.1645-11.906 10.966-16.216 3.7595-6e-5 -1e-4 -1.1e-4 -2e-4 -1.7e-4 -3e-4 -4.2266-7.0664 10.67-4.8944 9.502-12.811-2e-5 -1e-4 -3e-5 -2e-4 -5e-5 -3e-4 -1.1909-8.0722-16.101-0.3906-15.387-8.5154l3e-5 -3e-4c0.7004-7.967 15.359 5.2646 18.971-2.0355 5e-5 -1e-4 9e-5 -2e-4 1.4e-4 -3e-4 3.6833-7.4441-13.324-8.9529-8.1951-15.132 6e-5 -1e-4 1.3e-4 -2e-4 1.9e-4 -3e-4 5.0293-6.0594 8.95 8.7733 16.04 4.5307 9e-5 -1e-4 1.9e-4 -1e-4 2.8e-4 -2e-4 7.2292-4.3265-5.1867-14.252 2.7939-16.146 1e-4 -1e-4 2e-4 -1e-4 3.1e-4 -1e-4 7.8257-1.8568 0.35175 14.951 8.3352 15.877h3.2e-4c8.1407 0.9439 5.4124-16.243 12.761-12.786 9e-5 0 1.9e-4 1e-4 2.8e-4 1e-4 7.2054 3.3897-6.9235 12.418-1.5981 18.453 7e-5 1e-4 1.4e-4 1e-4 2.1e-4 2e-4 5.4306 6.1534 10.706-11.168 14.874-4.0252 7e-5 1e-4 1.4e-4 2e-4 2.1e-4 3e-4 4.0864 7.0043-10.568 6.1983-9.3195 14.374 2e-5 1e-4 4e-5 3e-4 6e-5 4e-4 1.274 8.3365 17.012 0.4296 15.384 8.5976-3e-5 1e-4 -6e-5 3e-4 -8e-5 4e-4 -1.5973 8.0091-16.043-7.1976-19.15 0.3896-6e-5 1e-4 -1.1e-4 2e-4 -1.7e-4 4e-4 -3.1685 7.7369 14.053 10.207 8.1952 15.882" fill="#e65700"/>
   <path d="m252.81 1623c-5.744 5.566-6.7202-10.399-13.644-6.1173-1e-4 1e-4 -1.9e-4 1e-4 -2.8e-4 2e-4 -7.0605 4.3664 2.1704 15.217-6.1845 16.229-1.4e-4 0-2.9e-4 1e-4 -4.3e-4 1e-4 -8.1924 0.992 2.959-13.337-5.1305-14.428h-3.3e-4c-8.2491-1.1128-7.3407 13.935-15.153 10.904-1.4e-4 0-2.7e-4 -1e-4 -4e-4 -1e-4 -7.6598-2.9726 8.6961-10.953 3.123-16.998-9e-5 -1e-4 -1.9e-4 -2e-4 -2.9e-4 -3e-4 -5.6831-6.1643-11.906 10.966-16.216 3.7595-8e-5 -1e-4 -1.5e-4 -2e-4 -2.3e-4 -3e-4 -4.2264-7.0663 10.67-4.8944 9.5021-12.811-3e-5 -1e-4 -5e-5 -3e-4 -7e-5 -4e-4 -1.191-8.072-16.101-0.3905-15.387-8.5153 1e-5 -1e-4 2e-5 -2e-4 3e-5 -4e-4 0.70053-7.9667 15.359 5.2647 18.971-2.0354 6e-5 -1e-4 1.3e-4 -2e-4 1.9e-4 -4e-4 3.6831-7.4439-13.324-8.9528-8.1952-15.132 9e-5 -1e-4 1.8e-4 -2e-4 2.7e-4 -3e-4 5.0293-6.0593 8.9499 8.7734 16.04 4.5307 1.3e-4 0 2.5e-4 -1e-4 3.8e-4 -2e-4 7.229-4.3265-5.1868-14.252 2.7938-16.146 1.4e-4 0 2.7e-4 0 4.1e-4 -1e-4 7.8256-1.8566 0.35169 14.951 8.3351 15.877 1.4e-4 0 2.8e-4 1e-4 4.2e-4 1e-4 8.1406 0.9437 5.4123-16.243 12.76-12.786 1.2e-4 1e-4 2.5e-4 1e-4 3.8e-4 2e-4 7.2051 3.3897-6.9236 12.418-1.5982 18.452 9e-5 1e-4 1.8e-4 2e-4 2.8e-4 4e-4 5.4305 6.1531 10.706-11.168 14.874-4.0254 5e-5 1e-4 1e-4 2e-4 1.6e-4 3e-4 4.0866 7.0044-10.568 6.1983-9.3194 14.374 1e-5 1e-4 3e-5 2e-4 5e-5 4e-4 1.2739 8.3366 17.012 0.4296 15.384 8.5976l-6e-5 3e-4c-1.5972 8.0094-16.043-7.1975-19.15 0.3897l-1.2e-4 3e-4c-3.1687 7.737 14.053 10.207 8.1952 15.883" fill="#ec7400"/>
   <path d="m191.49 1623.4c-5.744 5.566-6.7202-10.399-13.644-6.1173-7e-5 0-1.3e-4 1e-4 -1.9e-4 1e-4 -7.0606 4.3664 2.1703 15.217-6.1846 16.229-1.8e-4 0-3.6e-4 0-5.4e-4 1e-4 -8.1922 0.9919 2.9591-13.337-5.1304-14.428h-2.1e-4c-8.2492-1.113-7.3408 13.935-15.153 10.904-1.7e-4 -1e-4 -3.4e-4 -1e-4 -5.1e-4 -2e-4 -7.6595-2.9727 8.6962-10.953 3.1232-16.998-1.2e-4 -1e-4 -2.4e-4 -3e-4 -3.7e-4 -4e-4 -5.683-6.1641-11.906 10.966-16.216 3.7596-1e-4 -2e-4 -1.9e-4 -3e-4 -2.8e-4 -5e-4 -4.2262-7.0661 10.67-4.8943 9.5022-12.81-2e-5 -2e-4 -5e-5 -4e-4 -7e-5 -5e-4 -1.1912-8.0719-16.101-0.3905-15.387-8.5152 1e-5 -2e-4 3e-5 -4e-4 4e-5 -5e-4 0.70064-7.9665 15.359 5.2647 18.971-2.0353 8e-5 -2e-4 1.6e-4 -3e-4 2.4e-4 -5e-4 3.6829-7.4439-13.324-8.9527-8.1952-15.132 1.1e-4 -1e-4 2.2e-4 -3e-4 3.3e-4 -4e-4 5.0293-6.0591 8.9499 8.7734 16.04 4.5308 1.6e-4 -1e-4 3.1e-4 -2e-4 4.7e-4 -3e-4 7.2288-4.3265-5.1868-14.252 2.7937-16.146 1.7e-4 -1e-4 3.4e-4 -1e-4 5.1e-4 -1e-4 7.8254-1.8565 0.35162 14.951 8.335 15.877h5.3e-4c8.1405 0.9436 5.4122-16.243 12.76-12.786 1.5e-4 1e-4 3.1e-4 1e-4 4.7e-4 2e-4 7.2049 3.3898-6.9237 12.418-1.5983 18.452 1.2e-4 1e-4 2.4e-4 3e-4 3.6e-4 4e-4 5.4305 6.1529 10.706-11.168 14.874-4.0254 3e-5 0 7e-5 1e-4 1e-4 2e-4 4.0868 7.0045-10.568 6.1984-9.3194 14.374 1e-5 1e-4 2e-5 1e-4 3e-5 2e-4 1.2738 8.3368 17.012 0.4298 15.384 8.5978-1e-5 1e-4 -3e-5 1e-4 -4e-5 2e-4 -1.5971 8.0096-16.043-7.1974-19.15 0.3898-3e-5 1e-4 -6e-5 1e-4 -8e-5 2e-4 -3.1689 7.737 14.052 10.207 8.1952 15.883" fill="#f29100"/>
   <path d="m130.16 1623.8c-5.744 5.566-6.7202-10.399-13.644-6.1173-3e-5 1e-4 -6e-5 1e-4 -9e-5 1e-4 -7.0608 4.3663 2.1703 15.217-6.1847 16.229-2.2e-4 1e-4 -4.3e-4 1e-4 -6.4e-4 1e-4 -8.192 0.9918 2.9592-13.337-5.1303-14.428h-1e-4c-8.2493-1.113-7.3409 13.935-15.153 10.904-2.01e-4 0-4.01e-4 -1e-4 -6.01e-4 -2e-4 -7.6593-2.9727 8.6962-10.953 3.1232-16.998-1.48e-4 -1e-4 -2.97e-4 -3e-4 -4.46e-4 -4e-4 -5.683-6.1639-11.905 10.966-16.216 3.7596-1.11e-4 -1e-4 -2.21e-4 -3e-4 -3.32e-4 -5e-4 -4.2261-7.066 10.67-4.8943 9.5022-12.81l-9.3e-5 -6e-4c-1.1913-8.0717-16.101-0.3904-15.387-8.5151 1.8e-5 -2e-4 3.6e-5 -4e-4 5.5e-5 -6e-4 0.70076-7.9663 15.359 5.2649 18.971-2.0352 9.6e-5 -2e-4 1.92e-4 -3e-4 2.89e-4 -5e-4 3.6827-7.4438-13.324-8.9527-8.1952-15.132 1.32e-4 -1e-4 2.63e-4 -3e-4 3.95e-4 -4e-4 5.0292-6.0589 8.9498 8.7734 16.04 4.5308l5.67e-4 -3e-4c7.2286-4.3266-5.1869-14.252 2.7936-16.146 2e-4 0 4.1e-4 -1e-4 6.1e-4 -1e-4 7.8252-1.8563 0.35155 14.951 8.3349 15.877 2.1e-4 1e-4 4.2e-4 1e-4 6.4e-4 1e-4 8.1404 0.9434 5.4122-16.243 12.76-12.786 1.9e-4 1e-4 3.7e-4 2e-4 5.6e-4 3e-4 7.2047 3.3898-6.9237 12.418-1.5984 18.452 1.5e-4 2e-4 2.9e-4 4e-4 4.3e-4 5e-4 5.4305 6.1527 10.706-11.168 14.874-4.0255 2e-5 1e-4 4e-5 1e-4 6e-5 1e-4 4.0869 7.0046-10.568 6.1985-9.3193 14.374 1e-5 1e-4 2e-5 1e-4 2e-5 2e-4 1.2737 8.337 17.012 0.4298 15.384 8.5978-1e-5 1e-4 -1e-5 1e-4 -2e-5 1e-4 -1.597 8.0099-16.043-7.1973-19.15 0.3899-1e-5 1e-4 -3e-5 1e-4 -4e-5 1e-4 -3.169 7.7372 14.052 10.207 8.1951 15.883" fill="#f8ae00"/>
  </g>
 </g>
</svg>
