<?xml version="1.0" encoding="UTF-8"?>
<svg width="300" height="31" version="1.1" viewBox="0 0 300 31" xmlns="http://www.w3.org/2000/svg">
 <g transform="translate(-14.035 -18.391)" fill="#0f0" stroke="#17a500" stroke-linejoin="round">
  <path d="m271.63 45.832h-10.653l-5.3267-9.2261 5.3267-9.2261h10.653l5.3267 9.2261z" stroke-width=".86884"/>
  <path d="m47.033 47.01s-3.4902-3.2745-3.621-3.2745c-0.06542 0-0.78972 4.8295-0.87149 4.8295-0.08178 0-2.3935-4.1657-2.4807-4.1657-0.08723 0-2.2831 4.3928-2.3649 4.3928-0.08178 0-0.98643-4.6493-1.0518-4.6493-0.13084 0-3.581 3.5263-3.581 3.5263s0.60532-4.7533 0.5399-4.8666c-0.03271-0.0566-4.3589 2.1917-4.3998 2.1209-0.04089-0.0708 1.9782-4.3946 1.9346-4.4701-0.04361-0.0756-4.8806 0.725-4.9215 0.6542-0.04089-0.0708 3.1954-3.5399 3.1627-3.5965-0.06542-0.1133-4.9385-0.8368-4.9385-0.8368s4.2094-2.3001 4.2748-2.4134c0.03271-0.0567-4.322-2.2314-4.2811-2.3022 0.02044-0.0355 4.6909-0.9004 4.7124-0.9375 0.02147-0.0372-3.483-3.4379-3.4612-3.4757 0.02181-0.0378 4.7213 0.5734 4.7428 0.5362 0.02147-0.0372-2.2719-4.3618-2.2514-4.3972 0.04089-0.0708 4.3273 1.9258 4.36 1.8691 0.06542-0.1133-0.7671-4.9822-0.7671-4.9822s3.4902 3.2745 3.621 3.2745c0.06542 0 0.78972-4.8295 0.87149-4.8295 0.08177 0 2.3935 4.1658 2.4807 4.1658 0.08723 0 2.2831-4.3929 2.3649-4.3929 0.08178 0 0.98643 4.6493 1.0518 4.6493 0.13084 0 3.581-3.5262 3.581-3.5262s-0.60532 4.7533-0.5399 4.8666c0.03271 0.0566 4.3589-2.1918 4.3998-2.121 0.04089 0.0709-1.9782 4.3947-1.9346 4.4702 0.02181 0.0378 4.837-0.8006 4.8584-0.7634 0.02147 0.0372-3.2319 3.4767-3.2115 3.5121 0.04089 0.0708 4.9085 0.7849 4.9413 0.8415 0.06542 0.1133-4.0568 2.4134-4.0568 2.4134s4.3493 2.1842 4.2839 2.2975c-0.03271 0.0567-4.7202 0.9511-4.7611 1.0219-0.02044 0.0354 3.4847 3.435 3.4632 3.4721-0.02147 0.0372-4.721-0.5739-4.7428-0.5362-0.04361 0.0756 2.2273 4.4391 2.1864 4.51-0.04089 0.0708-4.3273-1.9258-4.36-1.8692-0.06542 0.1134 0.7671 4.9822 0.7671 4.9822" stroke-width=".79675"/>
  <g transform="matrix(.52187 0 0 .52187 14.289 -641)" stroke-width="1.6649">
   <path d="m491.86 1316.1s-1.2339-0.018-3.0702-0.018c-0.89744 0-1.9469 0.027-3.0719 0.027-0.96639 0-2.0036-0.023-3.0429-0.023-1.0396 0-2.1054 0.024-3.13 0.024-1.0386 0-2.0515-0.026-2.9837-0.026-1.2082 0-2.3073 0.02-3.16 0.02-1.2189 0-1.9724-0.01-1.9715-0.018 5.9e-4 -0.01-0.19814-0.3543-0.54089-0.948-0.36712-0.6359-0.92276-1.5438-1.5505-2.6312-0.46399-0.8036-0.96894-1.7219-1.5103-2.6595-0.50311-0.8714-1.0545-1.7751-1.5783-2.6824-0.50647-0.8772-0.99395-1.7723-1.479-2.6123-0.55986-0.9697-1.119-1.8951-1.5925-2.7152-0.64542-1.1179-1.1588-2.0607-1.5089-2.6684-0.28185-0.4884-0.44617-0.7693-0.45013-0.7714-7e-3 0 0.39727-0.7265 1.0589-1.8726 0.41619-0.7208 0.95613-1.6157 1.5262-2.6031 0.47932-0.8302 0.97862-1.748 1.5126-2.6729 0.49051-0.8495 1.0198-1.7174 1.5164-2.5775 0.52931-0.9168 1.0383-1.8447 1.5295-2.6956 0.54188-0.9386 1.0702-1.8011 1.5065-2.5567 0.93502-1.6195 1.5516-2.7182 1.551-2.7213-4e-5 -2e-4 0.0126-3e-4 0.0372-3e-4 0.21844 0 1.4008 0.018 3.0696 0.018 0.89883 0 1.9479-0.027 3.0713-0.027 0.96699 0 2.0042 0.023 3.0429 0.023 1.0402 0 2.1062-0.024 3.1304-0.024 1.0397 0 2.053 0.026 2.9848 0.026 1.2103 0 2.3096-0.02 3.1591-0.02 1.1974 0 1.9358 0.01 1.935 0.017-6.1e-4 0.01 0.20546 0.3674 0.55983 0.9812 0.37006 0.641 0.92513 1.548 1.5503 2.6308 0.4646 0.8047 0.96962 1.7231 1.5106 2.6601 0.49851 0.8635 1.0446 1.758 1.563 2.656 0.50268 0.8707 0.98635 1.7591 1.468 2.5933 0.55961 0.9693 1.1188 1.8947 1.5927 2.7156 0.61059 1.0576 1.1013 1.9602 1.4527 2.5689 0.32125 0.5564 0.5106 0.8799 0.51504 0.8822 7e-3 0-0.37216 0.6808-0.99718 1.7633-0.41686 0.722-0.96493 1.631-1.5473 2.6396-0.47807 0.8281-0.97706 1.7453-1.5115 2.6709-0.49018 0.849-1.0197 1.7172-1.5171 2.5788-0.53705 0.9302-1.0542 1.8722-1.5531 2.7363-0.54147 0.9379-1.07 1.8006-1.5071 2.5578-0.94546 1.6375-1.5697 2.754-1.5697 2.754"/>
   <path d="m483.08 1316.2s-1.3456-0.1463-3.1494-0.1463c-0.88164 0-1.938 0.2158-3.0432 0.2158-0.94981 0-2.0565-0.1861-3.0779-0.1861-1.0217 0-2.1518 0.1963-3.1586 0.1963-1.0205 0-2.0482-0.2078-2.9639-0.2078-1.1886 0-2.4005 0.1576-3.2358 0.1576-1.1939 0-1.9233-0.078-1.9162-0.1403 5e-3 -0.041-0.18688-0.4131-0.52363-0.9964-0.36089-0.625-1.0748-1.4262-1.6914-2.4941-0.4561-0.79-0.87153-1.8591-1.4035-2.7804-0.49452-0.8566-1.2243-1.7103-1.739-2.6019-0.4977-0.862-0.84827-1.8748-1.3247-2.6999-0.55096-0.9543-1.2898-1.889-1.7536-2.6924-0.6322-1.095-0.97002-2.1088-1.3104-2.7084-0.27563-0.4792-0.45811-0.7658-0.48976-0.7823-0.0569-0.03 0.26904-0.7735 0.91819-1.8979 0.40847-0.7075 1.1205-1.6179 1.6798-2.5866 0.47035-0.8147 0.82199-1.847 1.3459-2.7544 0.48133-0.8337 1.1841-1.6598 1.6714-2.5039 0.51931-0.8994 0.92791-1.978 1.4099-2.8128 0.5324-0.9222 1.218-1.6887 1.6466-2.431 0.91829-1.5906 1.4938-2.834 1.4896-2.8588h0.036c0.21397 0 1.509 0.1464 3.1488 0.1464 0.883 0 1.939-0.2159 3.0426-0.2159 0.95041 0 2.057 0.1862 3.0779 0.1862 1.0224 0 2.1526-0.1963 3.1591-0.1963 1.0216 0 2.0497 0.2078 2.965 0.2078 1.1907 0 2.4027-0.1576 3.2349-0.1576 1.1728 0 1.8878 0.076 1.8806 0.1376-5e-3 0.042 0.19377 0.4282 0.54192 1.0312 0.36377 0.6301 1.0772 1.4303 1.6911 2.4938 0.45669 0.791 0.87218 1.8602 1.4038 2.781 0.48916 0.8472 1.2129 1.6905 1.7216 2.5717 0.49324 0.8543 0.83941 1.8594 1.312 2.6779 0.54976 0.9523 1.2884 1.8867 1.7539 2.693 0.60066 1.0404 0.91961 2.0147 1.2639 2.611 0.31467 0.5451 0.52572 0.8748 0.56127 0.893 0.0563 0.029-0.25173 0.7254-0.86553 1.7885-0.40961 0.7095-1.1303 1.6349-1.7023 2.6257-0.46909 0.8124-0.82039 1.8442-1.3447 2.7523-0.48098 0.8331-1.184 1.6596-1.6721 2.505-0.52777 0.9141-0.94526 2.008-1.4356 2.8572-0.53199 0.9215-1.2178 1.6882-1.6472 2.4321-0.92868 1.6085-1.5075 2.893-1.5075 2.893"/>
   <path d="m459.24 1316.3s-1.6485-0.4939-3.3643-0.4939c-0.83874 0-1.914 0.7284-2.9653 0.7284-0.90484 0-2.2-0.6283-3.1729-0.6283-0.97324 0-2.2779 0.6626-3.2365 0.6626-0.97154 0-2.0392-0.7013-2.9101-0.7013-1.1354 0-2.6535 0.5319-3.4414 0.5319-1.1262 0-1.7902-0.2625-1.766-0.4736 0.0158-0.1378-0.15634-0.5724-0.4768-1.1275-0.34397-0.5958-1.4876-1.1072-2.0736-2.1222-0.43468-0.7529-0.60712-2.2312-1.1136-3.1085-0.47122-0.8162-1.6853-1.5345-2.1752-2.3832-0.47392-0.8208-0.45289-2.1532-0.90581-2.9376-0.52682-0.9125-1.7533-1.8729-2.1908-2.6307-0.59634-1.0329-0.45753-2.2391-0.77149-2.8171-0.25872-0.4542-0.49049-0.7562-0.59733-0.8118-0.19206-0.1-0.079-0.901 0.5362-1.9665 0.38753-0.6712 1.5668-1.624 2.0967-2.5419 0.446-0.7725 0.39684-2.1158 0.8934-2.9759 0.45639-0.7905 1.63-1.5033 2.092-2.3035 0.4922-0.8525 0.62838-2.3399 1.0853-3.1312 0.50664-0.8776 1.6192-1.3837 2.0271-2.0901 0.87285-1.5118 1.3371-3.1481 1.3228-3.2316-9.9e-4 -0.01 0.0102-0.01 0.0329-0.01 0.20183 0 1.8028 0.4939 3.3637 0.4939 0.84002 0 1.9148-0.7284 2.9648-0.7284 0.90539 0 2.2005 0.6283 3.1729 0.6283 0.97385 0 2.2787-0.6626 3.2369-0.6626 0.97253 0 2.0406 0.7013 2.9111 0.7013 1.1374 0 2.6556-0.5319 3.4406-0.5319 1.1063 0 1.7573 0.2552 1.7332 0.4647-0.0163 0.1417 0.16203 0.593 0.4933 1.1668 0.34669 0.6005 1.4898 1.111 2.0734 2.1218 0.43524 0.7539 0.60774 2.2323 1.1139 3.1091 0.46379 0.8033 1.6698 1.5077 2.152 2.3429 0.46759 0.8099 0.44056 2.1318 0.88855 2.9077 0.52303 0.906 1.7488 1.865 2.1914 2.6317 0.57371 0.9937 0.42658 2.1628 0.75132 2.7253 0.29682 0.5141 0.56677 0.8607 0.68674 0.9222 0.18987 0.097 0.0752 0.8464-0.50818 1.8568-0.38993 0.6754-1.5792 1.6455-2.1232 2.5878-0.44471 0.7703-0.39515 2.1129-0.89205 2.9736-0.45604 0.7899-1.6299 1.5031-2.0927 2.3046-0.50258 0.8705-0.6496 2.3766-1.1165 3.1854-0.50626 0.8768-1.619 1.3831-2.0277 2.091-0.88312 1.5296-1.3386 3.2704-1.3386 3.2704"/>
   <path d="m412.81 1316.5s-2.2386-1.1708-3.7828-1.1708c-0.75521 0-1.867 1.7268-2.8136 1.7268-0.81724 0-2.4794-1.4895-3.358-1.4895-0.87886 0-2.5234 1.5707-3.3882 1.5707-0.87613 0-2.0218-1.6624-2.8054-1.6624-1.0318 0-3.1463 1.2608-3.8419 1.2608-0.99434 0-1.5308-0.6222-1.4734-1.1227 0.0375-0.3266-0.0969-0.8827-0.38559-1.3828-0.31103-0.5387-2.2914-0.4858-2.8179-1.3978-0.39295-0.6806-0.0922-2.956-0.5492-3.7475-0.42583-0.7376-2.583-1.1922-3.0247-1.9574-0.4276-0.7406 0.31708-2.6952-0.0901-3.4006-0.47982-0.831-2.6561-1.8413-3.0424-2.5103-0.52652-0.912 0.54047-2.4931 0.27796-3.0288-0.22581-0.4056-0.55358-0.7374-0.80681-0.8692-0.45526-0.237-0.75675-1.1493-0.20769-2.1003 0.34673-0.6006 2.4358-1.6359 2.9085-2.4546 0.3986-0.6904-0.43108-2.6394 0.0122-3.4073 0.40785-0.7064 2.4985-1.1987 2.9112-1.9135 0.43938-0.761 0.0451-3.0445 0.45306-3.7511 0.4565-0.7907 2.4006-0.7896 2.768-1.426 0.78437-1.3586 1.0318-3.76 0.9981-3.9578-2e-3 -0.014 7e-3 -0.021 0.0268-0.021 0.1782 0 2.3747 1.1708 3.7823 1.1708 0.75634 0 1.8678-1.7268 2.8131-1.7268 0.81773 0 2.4798 1.4895 3.358 1.4895 0.87939 0 2.5241-1.5707 3.3885-1.5707 0.877 0 2.023 1.6623 2.8062 1.6623 1.0336 0 3.1481-1.2607 3.8412-1.2607 0.9768 0 1.5032 0.6048 1.446 1.1014-0.0387 0.3358 0.10022 0.914 0.39863 1.4309 0.31343 0.5429 2.2933 0.4892 2.8178 1.3975 0.39345 0.6815 0.0927 2.9569 0.54946 3.748 0.41438 0.7177 2.5595 1.1515 2.9901 1.8973 0.41765 0.7234-0.33615 2.6622 0.064 3.3553 0.47096 0.8157 2.6453 1.8227 3.0435 2.5123 0.5212 0.9028-0.53356 2.451-0.24684 2.9476 0.26206 0.4539 0.64671 0.8334 0.93109 0.9793 0.45006 0.2308 0.71173 1.0822 0.18769 1.9899-0.35161 0.609-2.4533 1.6662-2.9428 2.514-0.39722 0.688 0.43296 2.6362-0.0106 3.4045-0.40745 0.7057-2.4983 1.1983-2.9118 1.9144-0.45352 0.7855-0.0738 3.0943-0.49526 3.8243-0.45615 0.7901-2.4003 0.7891-2.7685 1.4268-0.79439 1.3759-1.0098 4.0053-1.0098 4.0053"/>
   <path d="m336.27 1316.9s-3.2113-2.2866-4.4728-2.2866c-0.61751 0-1.7897 3.3725-2.5636 3.3725-0.67282 0-2.94-2.909-3.6631-2.909-0.72324 0-2.9282 3.0676-3.6381 3.0676-0.71883 0-1.993-3.2467-2.6327-3.2467-0.86102 0-3.9586 2.4625-4.5022 2.4625-0.77694 0-1.1033-1.2154-0.99117-2.1928 0.0732-0.6379 1e-3 -1.3943-0.23521-1.8038-0.25674-0.4447-3.6166 0.5386-4.0451-0.2037-0.32417-0.5614 0.75671-4.1508 0.38136-4.8009-0.351-0.6079-4.063-0.6277-4.4253-1.2553-0.35124-0.6083 1.5865-3.589 1.2546-4.1639-0.40232-0.6968-4.1443-1.7892-4.4462-2.312-0.41141-0.7126 2.1858-2.9116 2.0081-3.3777-0.17154-0.3254-0.65757-0.7065-1.1522-0.9639-0.88918-0.4628-1.8741-1.5587-1.4341-2.3209 0.27949-0.4841 3.8685-1.6554 4.2468-2.3106 0.32044-0.5551-1.796-3.5027-1.4405-4.1185 0.32782-0.5678 3.9302-0.6964 4.2617-1.2705 0.35231-0.6102-0.91659-4.2062-0.58924-4.7732 0.37382-0.6475 3.6886 0.1899 3.9894-0.3311 0.63851-1.1059 0.52856-4.7687 0.46272-5.1551-5e-3 -0.027 1e-3 -0.041 0.0167-0.041 0.13924 0 3.3177 2.2866 4.4723 2.2866 0.61839 0 1.7903-3.3725 2.5632-3.3725 0.6732 0 2.9404 2.9091 3.6631 2.9091 0.72367 0 2.9288-3.0676 3.6384-3.0676 0.71952 0 1.994 3.2466 2.6334 3.2466 0.86241 0 3.9601-2.4624 4.5016-2.4624 0.76323 0 1.0843 1.1813 0.97261 2.1512-0.0755 0.656-2e-3 1.4433 0.24253 1.8663 0.25861 0.448 3.6181-0.536 4.045 0.2034 0.32456 0.5622-0.75628 4.1516-0.38115 4.8013 0.33291 0.5766 4.0263 0.5644 4.3718 1.1626 0.33533 0.5809-1.6167 3.5368-1.2955 4.0932 0.38512 0.667 4.1234 1.753 4.4482 2.3156 0.43466 0.7528-2.1165 2.9262-1.8924 3.3142 0.20477 0.3547 0.77851 0.7884 1.3339 1.0732 0.87902 0.4509 1.7612 1.471 1.335 2.2093-0.28844 0.4996-3.8944 1.7004-4.2941 2.3925-0.31894 0.5525 1.7982 3.4989 1.4426 4.1147-0.32736 0.5671-3.9299 0.6959-4.2621 1.2713-0.37263 0.6454 0.87543 4.2775 0.52901 4.8776-0.37356 0.647-3.6884-0.1902-3.9898 0.3317-0.64811 1.1226-0.46761 5.2169-0.46761 5.2169"/>
   <path d="m222.09 1317.5s-4.6625-3.9513-5.502-3.9513c-0.41207 0-1.6743 5.8277-2.1906 5.8277-0.45737 0-3.6273-5.0268-4.1183-5.0268-0.49111 0-3.5321 5.3008-4.0111 5.3008-0.48418 0-1.9501-5.6102-2.3751-5.6102-0.60626 0-5.1705 4.2551-5.4872 4.2551-0.45262 0-0.46546-2.1001-0.27172-3.7891 0.12644-1.1022 0.14752-2.1574-0.0109-2.4318-0.17573-0.3044-5.5934 2.0669-5.8758 1.5778-0.22155-0.3837 2.0231-5.9333 1.7696-6.3724-0.23937-0.4146-6.2708 0.2142-6.5146-0.208-0.23733-0.4111 3.4802-4.9223 3.2607-5.3026-0.28671-0.4965-6.3646-1.7116-6.5404-2.0162-0.23967-0.4151 4.6404-3.536 4.5892-3.8981-0.0906-0.2058-0.8127-0.6605-1.6674-1.1053-1.5365-0.7997-3.541-2.1694-3.2637-2.6498 0.17918-0.3104 6.0058-1.6846 6.2433-2.096 0.20385-0.3531-3.8323-4.7904-3.6077-5.1794 0.20841-0.361 6.0661 0.053 6.2764-0.3112 0.22242-0.3853-2.3512-5.9394-2.1441-6.298 0.25048-0.4338 5.6102 1.651 5.8116 1.3022 0.42091-0.729-0.2222-6.2735-0.33597-6.9412-8e-3 -0.046-7e-3 -0.071 2e-3 -0.071 0.0811 0 4.7245 3.9512 5.5018 3.9512 0.41258 0 1.6746-5.8277 2.1903-5.8277 0.45759 0 3.6275 5.0268 4.1183 5.0268 0.49136 0 3.5324-5.3008 4.0112-5.3008 0.48458 0 1.9506 5.6103 2.3755 5.6103 0.60706 0 5.1714-4.2551 5.4868-4.2551 0.44463 0 0.45937 2.0412 0.26638 3.7173-0.13052 1.1335-0.15371 2.2328 0.01 2.5158 0.17683 0.3063 5.5943-2.0654 5.8757-1.578 0.22178 0.3842-2.0229 5.9337-1.7694 6.3727 0.21138 0.3661 6.2146-0.3116 6.433 0.067 0.21252 0.3681-3.5269 4.8413-3.3235 5.1938 0.25707 0.4452 6.3284 1.649 6.5438 2.0221 0.30555 0.5292-4.4779 3.6351-4.3474 3.8611 0.11929 0.2067 0.97512 0.7213 1.9349 1.2135 1.519 0.779 3.3268 2.0509 3.0464 2.5365-0.1942 0.3364-6.0443 1.7513-6.3098 2.2112-0.20216 0.3502 3.8349 4.7859 3.6106 5.1744-0.20789 0.3601-6.0657-0.054-6.2766 0.3116-0.25196 0.4365 2.2915 6.0428 2.057 6.449-0.25032 0.4335-5.6101-1.6512-5.8118-1.3018-0.4299 0.7446 0.34116 7.0243 0.34116 7.0243"/>
  </g>
 </g>
</svg>
