<?xml version="1.0" encoding="UTF-8"?>
<svg width="300" height="42" version="1.1" viewBox="0 0 300 42" xmlns="http://www.w3.org/2000/svg">
 <g transform="translate(10.094 .26877)">
  <path d="m20.262 2.0739c10.119 0 18.266 8.1464 18.266 18.266 0 10.119-8.1464 18.265-18.266 18.265-10.119 0-18.266-8.1464-18.266-18.265 0-10.119 8.1464-18.266 18.266-18.266z" fill="#0cf" stroke="#2e75ac" stroke-linejoin="round" stroke-width="4.0482"/>
  <path d="m263.68 9.3801-18.266 29.225-18.266-29.225z" fill="#0cf" stroke="#2e75ac" stroke-linejoin="round" stroke-width="4.0482"/>
  <rect transform="rotate(135.48)" x="-14.604" y="-16.968" width="2.9821" height="2.9821" fill="#0f0"/>
  <rect transform="rotate(135.48)" x="-14.271" y="-43.997" width="2.9821" height="2.9821" fill="#ccc"/>
  <rect transform="rotate(135.48)" x="10.895" y="-43.648" width="2.9821" height="2.9821" fill="#ccc"/>
  <rect transform="rotate(135.48)" x="11.67" y="-17.746" width="2.9821" height="2.9821" fill="#ccc"/>
  <rect transform="rotate(135.48)" x="-157.71" y="-168.8" width="2.9821" height="2.9821" fill="#ccc"/>
  <rect transform="rotate(135.48)" x="-181.96" y="-192.64" width="2.9821" height="2.9821" fill="#0f0"/>
  <rect transform="rotate(135.48)" x="-150.15" y="-200.55" width="2.9821" height="2.9821" fill="#ccc"/>
 </g>
</svg>
