<?xml version="1.0" encoding="UTF-8"?>
<svg width="300" height="31" version="1.1" viewBox="0 0 300 31" xmlns="http://www.w3.org/2000/svg">
 <g transform="translate(-14.75 -19.105)" fill="#0f0" stroke="#17a500" stroke-linejoin="round">
  <path d="m272.35 46.546h-10.653l-5.3267-9.2261 5.3267-9.2261h10.653l5.3267 9.2261z" stroke-width=".86884"/>
  <path d="m47.747 47.724s-3.4902-3.2745-3.621-3.2745c-0.06542 0-0.78972 4.8295-0.87149 4.8295-0.08178 0-2.3935-4.1658-2.4807-4.1658-0.08723 0-2.2831 4.3929-2.3649 4.3929-0.08177 0-0.98643-4.6493-1.0518-4.6493-0.13084 0-3.581 3.5263-3.581 3.5263s0.60532-4.7533 0.5399-4.8666c-0.03271-0.0567-4.3589 2.1917-4.3998 2.1209-0.04089-0.0708 1.9782-4.3946 1.9346-4.4702-0.04361-0.0755-4.8806 0.7251-4.9215 0.6543-0.04089-0.0709 3.1954-3.5399 3.1627-3.5966-0.06542-0.1133-4.9385-0.8367-4.9385-0.8367s4.2094-2.3001 4.2748-2.4134c0.03271-0.0567-4.322-2.2315-4.2811-2.3023 0.02044-0.0354 4.6909-0.9003 4.7124-0.9375 0.02147-0.0372-3.483-3.4378-3.4612-3.4756 0.02181-0.0378 4.7213 0.5734 4.7428 0.5362 0.02147-0.0372-2.2719-4.3618-2.2514-4.3972 0.04089-0.0708 4.3273 1.9258 4.36 1.8691 0.06542-0.1133-0.7671-4.9822-0.7671-4.9822s3.4902 3.2745 3.621 3.2745c0.06542 0 0.78972-4.8295 0.8715-4.8295 0.08177 0 2.3935 4.1658 2.4807 4.1658 0.08723 0 2.2831-4.3929 2.3649-4.3929 0.08178 0 0.98643 4.6493 1.0518 4.6493 0.13084 0 3.581-3.5263 3.581-3.5263s-0.60532 4.7533-0.5399 4.8666c0.03271 0.0567 4.3589-2.1917 4.3998-2.1209 0.04089 0.0709-1.9782 4.3946-1.9346 4.4702 0.02181 0.0377 4.837-0.8006 4.8584-0.7635 0.02147 0.0372-3.2319 3.4767-3.2115 3.5122 0.04089 0.0708 4.9085 0.7849 4.9413 0.8415 0.06542 0.1133-4.0568 2.4134-4.0568 2.4134s4.3493 2.1842 4.2839 2.2975c-0.03271 0.0567-4.7202 0.951-4.7611 1.0219-0.02044 0.0354 3.4847 3.4349 3.4632 3.4721-0.02147 0.0372-4.721-0.574-4.7428-0.5362-0.04361 0.0755 2.2273 4.4391 2.1864 4.5099-0.04089 0.0708-4.3273-1.9257-4.36-1.8691-0.06542 0.1133 0.7671 4.9822 0.7671 4.9822" stroke-width=".79675"/>
  <g transform="matrix(.52187 0 0 .52187 15.531 -723.58)" stroke-width="1.5267">
   <path d="m70.515 1477.9s-6.5761-6.1464-6.8593-6.1464c-0.14116 0-1.5221 9.0653-1.6986 9.0653-0.17327 0-4.5335-7.8195-4.7185-7.8195-0.185 0-4.3284 8.2457-4.5029 8.2457-0.17474 0-1.8935-8.727-2.0353-8.727-0.27031 0-6.7686 6.6191-6.7861 6.6191-0.02495 0 0.37563-3.2669 0.677-5.8942 0.19668-1.7146 0.34045-3.1638 0.28494-3.2599-0.06891-0.1194-8.2003 4.0821-8.2899 3.9269-0.08624-0.1493 3.6931-8.2838 3.6002-8.4447-0.09216-0.1597-9.1822 1.3245-9.2697 1.1731-0.08711-0.1509 5.9774-6.6805 5.9061-6.8041-0.13425-0.2325-9.2923-1.6093-9.302-1.6261-0.01321-0.023 7.8772-4.3594 7.9928-4.5845 0.01617-0.048-1.0173-0.5996-2.3467-1.2916-2.3901-1.2441-5.7392-2.9748-5.6763-3.0837 0.04689-0.081 8.8242-1.723 8.8761-1.8129 0.0501-0.087-6.5174-6.4886-6.4656-6.5784 0.05097-0.088 8.8826 1.0411 8.9331 0.9537 0.05112-0.089-4.243-8.2247-4.1946-8.3085 0.08784-0.1521 8.1441 3.5777 8.2144 3.4559 0.13395-0.232-1.2122-8.2578-1.3892-9.2965-0.01229-0.072-0.01862-0.1106-0.01812-0.1106 0.0045 0 6.5796 6.1464 6.8593 6.1464 0.14119 0 1.5221-9.0653 1.6986-9.0653 0.17328 0 4.5335 7.8195 4.7185 7.8195 0.18501 0 4.3284-8.2458 4.5029-8.2458 0.17477 0 1.8935 8.7271 2.0354 8.7271 0.27035 0 6.7687-6.6191 6.786-6.6191 0.02451 0-0.36471 3.1753-0.66492 5.7825-0.20302 1.7633-0.35418 3.274-0.29739 3.3724 0.06897 0.1195 8.2004-4.0822 8.2899-3.9271 0.08625 0.1495-3.6931 8.2838-3.6002 8.4448 0.05113 0.089 9.1002-1.4667 9.1511-1.3785 0.05058 0.088-6.046 6.5616-5.9977 6.6452 0.0882 0.1527 9.236 1.512 9.3071 1.6351 0.13529 0.2343-7.5918 4.5699-7.5847 4.5824 0.0066 0.011 1.2344 0.6327 2.7274 1.3984 2.3628 1.2118 5.3914 2.8156 5.3034 2.968-0.06993 0.1212-8.8794 1.8185-8.968 1.9721-0.04816 0.083 6.5207 6.483 6.4694 6.5717-0.05032 0.087-8.882-1.0422-8.9331-0.9537-0.09285 0.1609 4.1589 8.3704 4.0719 8.521-0.08783 0.1521-8.1441-3.5777-8.2144-3.4559-0.14214 0.2462 1.4077 9.4077 1.4077 9.4077"/>
   <path d="m96.864 1477.8s-6.2413-5.7623-6.6218-5.7623c-0.18857 0-1.5488 8.4988-1.7847 8.4988-0.22299 0-4.3749-7.3308-4.6135-7.3308-0.23857 0-4.189 7.7304-4.4168 7.7304-0.2289 0-1.9034-8.1817-2.0948-8.1817-0.3291 0-6.4889 6.2054-6.5588 6.2054-0.09979 0 0.22844-3.0626 0.51098-5.5257 0.18439-1.6074 0.30668-2.9877 0.23317-3.115-0.0876-0.1518-7.7441 3.7294-7.8675 3.5158-0.10992-0.1904 3.4009-7.8724 3.2798-8.0821-0.11792-0.2042-8.6727 1.1303-8.7876 0.9314-0.1134-0.1964 5.5404-6.3728 5.4431-6.5413-0.16093-0.2787-8.78-1.6272-8.8187-1.6944-0.05284-0.091 7.3107-4.2152 7.3972-4.4643-0.0025-0.076-0.98148-0.6103-2.2278-1.2591-2.2407-1.1662-5.3545-2.8338-5.2541-3.0077 0.07004-0.1214 8.331-1.7162 8.4154-1.8625 0.07701-0.1334-6.0475-6.1913-5.9654-6.3335 0.07852-0.1361 8.3898 0.8681 8.4682 0.7323 0.0811-0.1405-3.9119-7.8247-3.8357-7.9566 0.1163-0.2015 7.7006 3.2405 7.7939 3.0789 0.18417-0.319-1.039-7.9104-1.2049-8.8842-0.01152-0.068-0.01667-0.1038-0.01465-0.1038 0.01788 0 6.2549 5.7623 6.6217 5.7623 0.18868 0 1.5488-8.4988 1.7847-8.4988 0.22304 0 4.375 7.3308 4.6135 7.3308 0.23862 0 4.1891-7.7303 4.4168-7.7303 0.22899 0 1.9035 8.1816 2.0949 8.1816 0.32928 0 6.4891-6.2054 6.5587-6.2054 0.09803 0-0.2205 2.9768-0.50194 5.4211-0.19033 1.653-0.3191 3.0918-0.24365 3.2225 0.08785 0.1522 7.7443-3.7293 7.8674-3.516 0.10997 0.1906-3.4008 7.8725-3.2798 8.0822 0.07918 0.1371 8.5952-1.2646 8.6754-1.1257 0.0789 0.1368-5.6051 6.2606-5.5297 6.3912 0.11775 0.204 8.7272 1.536 8.8236 1.7028 0.16508 0.286-7.0469 4.4064-7.0181 4.4563 0.0263 0.045 1.189 0.6481 2.5887 1.366 2.2151 1.136 5.0301 2.6817 4.9084 2.8925-0.0917 0.1588-8.3832 1.8067-8.5028 2.0139-0.0751 0.1301 6.0506 6.186 5.9691 6.3272-0.0779 0.1349-8.3891-0.8692-8.4682-0.7323-0.1207 0.2091 3.8321 7.9631 3.7193 8.1584-0.11626 0.2014-7.7006-3.2405-7.794-3.0789-0.1925 0.3335 1.2211 8.9906 1.2211 8.9906"/>
   <path d="m140.78 1477.5s-5.6831-5.122-6.2259-5.122c-0.26758 0-1.5931 7.5544-1.9282 7.5544-0.30585 0-4.1106-6.5162-4.4384-6.5162-0.32785 0-3.9568 6.8714-4.2734 6.8714-0.31915 0-1.9199-7.2726-2.1939-7.2726-0.42708 0-6.0228 5.5159-6.1799 5.5159-0.22452 0-0.0169-2.7224 0.23427-4.9117 0.1639-1.4289 0.25041-2.6942 0.14689-2.8735-0.11876-0.2058-6.9838 3.1416-7.1634 2.8306-0.14938-0.2587 2.9138-7.1868 2.7459-7.4776-0.16086-0.2786-7.8236 0.8064-7.984 0.5286-0.15721-0.2723 4.812-5.86 4.6716-6.1034-0.2054-0.3557-7.926-1.6571-8.0133-1.8082-0.1189-0.2059 6.3667-3.9751 6.4044-4.2641-0.0336-0.1217-0.92181-0.6281-2.0297-1.2047-1.9918-1.0367-4.7134-2.599-4.5504-2.8812 0.10862-0.1882 7.5089-1.7051 7.6475-1.945 0.12185-0.2111-5.2644-5.6961-5.1319-5.9256 0.12445-0.2155 7.5683 0.58 7.6933 0.3634 0.13106-0.227-3.3602-7.1581-3.2377-7.3702 0.16373-0.2836 6.9616 2.6786 7.0931 2.4508 0.26786-0.4639-0.75021-7.3317-0.89769-8.1973-0.0102-0.06-0.0134-0.092-9e-3 -0.092 0.0402 0 5.7139 5.122 6.2258 5.122 0.26783 0 1.5933-7.5544 1.9281-7.5544 0.30596 0 4.1107 6.5162 4.4384 6.5162 0.32797 0 3.9569-6.8714 4.2734-6.8714 0.31935 0 1.9202 7.2725 2.1941 7.2725 0.42748 0 6.0232-5.5159 6.1798-5.5159 0.22057 0 0.0199 2.6461-0.23031 4.8188-0.16919 1.4693-0.26063 2.7881-0.15409 2.9726 0.1193 0.2067 6.9842-3.141 7.1633-2.8308 0.1495 0.259-2.9136 7.1871-2.7458 7.4778 0.12591 0.2181 7.7536-0.9276 7.8826-0.7041 0.12616 0.2185-4.8704 5.7588-4.7497 5.9679 0.16701 0.2892 7.8791 1.5759 8.0176 1.8157 0.21475 0.3719-6.1387 4.1337-6.0739 4.2458 0.0592 0.1025 1.1134 0.674 2.3576 1.3121 1.969 1.0098 4.428 2.4587 4.2501 2.7667-0.12792 0.2216-7.5563 1.7871-7.7275 2.0836-0.12003 0.2079 5.2673 5.691 5.1353 5.9196-0.12385 0.2146-7.5677-0.5809-7.6934-0.3632-0.16711 0.2895 3.2874 7.2842 3.1316 7.5541-0.16366 0.2834-6.9615-2.6787-7.0932-2.4507-0.27642 0.4788 0.90998 8.2955 0.90998 8.2955"/>
   <path d="m202.26 1477.2s-4.9017-4.2257-5.6717-4.2257c-0.3782 0-1.6553 6.2325-2.1291 6.2325-0.42186 0-3.7406-5.3759-4.1933-5.3759-0.45285 0-3.6316 5.6689-4.0726 5.6689-0.4455 0-1.943-5.9999-2.3326-5.9999-0.56427 0-5.3703 4.5506-5.6495 4.5506-0.39916 0-0.36032-2.2459-0.15312-4.0522 0.13521-1.1787 0.17163-2.2832 0.0261-2.5353-0.16237-0.2813-5.9193 2.3188-6.1776 1.8714-0.20464-0.3544 2.2319-6.2271 1.9984-6.6314-0.22097-0.3828-6.6347 0.353-6.859-0.035-0.21855-0.3785 3.7923-5.1421 3.5914-5.4902-0.26765-0.4636-6.7305-1.6989-6.8856-1.9675-0.21136-0.3661 5.045-3.6389 5.0146-3.9839-0.0772-0.186-0.83828-0.6528-1.7523-1.1286-1.6432-0.8552-3.8158-2.2701-3.5653-2.7041 0.16264-0.2817 6.3581-1.6893 6.5724-2.0606 0.18463-0.3198-4.1679-5.0026-3.9649-5.3542 0.18873-0.3269 6.4182 0.1764 6.6085-0.1531 0.201-0.3482-2.5877-6.225-2.4004-6.5493 0.23015-0.3986 5.9269 1.8919 6.1119 1.5714 0.38503-0.6669-0.34596-6.5215-0.46763-7.2356-8e-3 -0.05-9e-3 -0.076-7.9e-4 -0.076 0.0715 0 4.9564 4.2257 5.6715 4.2257 0.37866 0 1.6556-6.2324 2.1289-6.2324 0.42206 0 3.7408 5.3759 4.1933 5.3759 0.45307 0 3.6319-5.6689 4.0727-5.6689 0.44585 0 1.9435 5.9998 2.333 5.9998 0.56497 0 5.371-4.5506 5.6492-4.5506 0.39212 0 0.35636 2.183 0.14997 3.9755-0.13958 1.2122-0.17877 2.363-0.0287 2.6229 0.16334 0.2829 5.9201-2.3175 6.1775-1.8717 0.20484 0.3549-2.2316 6.2275-1.9983 6.6317 0.19135 0.3314 6.5753-0.456 6.7727-0.114 0.19229 0.3331-3.8418 5.0564-3.6577 5.3753 0.23596 0.4086 6.6918 1.6319 6.8892 1.9737 0.28426 0.4923-4.8671 3.752-4.752 3.9513 0.10521 0.1822 1.0075 0.7102 2.034 1.2366 1.6244 0.8331 3.5849 2.1465 3.3286 2.5905-0.17867 0.3095-6.3987 1.7597-6.6421 2.1812-0.18291 0.3169 4.1706 4.9981 3.968 5.3491-0.18818 0.326-6.4177-0.1773-6.6087 0.1535-0.23208 0.402 2.5249 6.3337 2.3089 6.7079-0.23002 0.3984-5.9268-1.892-6.1121-1.571-0.39392 0.6823 0.47449 7.3222 0.47449 7.3222"/>
   <path d="m281.31 1476.8s-3.8971-3.0732-4.9591-3.0732c-0.52043 0-1.7352 4.5327-2.3873 4.5327-0.57102 0-3.2648-3.9098-3.8782-3.9098-0.61356 0-3.2136 4.1229-3.8144 4.1229-0.60795 0-1.9727-4.3636-2.511-4.3636-0.74064 0-4.5313 3.3096-4.9676 3.3096-0.62369 0-0.8019-1.6335-0.65121-2.9471 0.0983-0.8573 0.0703-1.7549-0.12921-2.1005-0.21846-0.3784-4.5507 1.2607-4.9102 0.6381-0.27568-0.4775 1.3551-4.9931 1.0373-5.5435-0.29825-0.5166-5.1062-0.2299-5.4125-0.7604-0.29742-0.5152 2.4813-4.2191 2.2025-4.702-0.34769-0.6022-5.1935-1.7526-5.4358-2.1723-0.33026-0.572 3.3457-3.2066 3.2278-3.6235-0.13328-0.2689-0.73087-0.6848-1.3956-1.0308-1.1951-0.622-2.6618-1.8473-2.2986-2.4763 0.23209-0.402 4.8784-1.6691 5.1902-2.2092 0.26535-0.4596-2.7582-4.1112-2.4646-4.6198 0.27139-0.4701 4.9395-0.3423 5.2137-0.8172 0.29093-0.5039-1.5945-5.0251-1.324-5.4937 0.31554-0.5465 4.5966 0.8803 4.8504 0.4407 0.53569-0.9279 0.17381-5.4797 0.0853-5.9991-6e-3 -0.036-3e-3 -0.055 0.01-0.055 0.11177 0 3.9825 3.0732 4.9588 3.0732 0.52114 0 1.7357-4.5327 2.387-4.5327 0.57132 0 3.2651 3.9098 3.8782 3.9098 0.61389 0 3.214-4.1229 3.8146-4.1229 0.60851 0 1.9735 4.3636 2.5115 4.3636 0.74175 0 4.5324-3.3096 4.9672-3.3096 0.61268 0 0.789 1.5877 0.6389 2.8913-0.10152 0.8816-0.0735 1.8164 0.1325 2.1732 0.21996 0.381 4.5519-1.2587 4.91-0.6384 0.27599 0.4781-1.3548 4.9937-1.0372 5.5439 0.27548 0.4771 5.0603 0.1504 5.3457 0.6447 0.2773 0.4803-2.5193 4.1532-2.2537 4.6132 0.32461 0.5623 5.1653 1.7039 5.4384 2.177 0.37365 0.6471-3.2323 3.2611-3.0525 3.5726 0.16438 0.2847 0.87141 0.7567 1.6179 1.1395 1.1814 0.6059 2.501 1.745 2.1437 2.3639-0.2439 0.4225-4.9103 1.7245-5.2466 2.3069-0.26376 0.4568 2.7606 4.107 2.4671 4.6154-0.27091 0.4692-4.9391 0.3417-5.214 0.8178-0.31562 0.5467 1.5446 5.1117 1.251 5.6201-0.31532 0.5461-4.5965-0.8806-4.8507-0.4401-0.545 0.944-0.0854 6.0709-0.0854 6.0709"/>
   <path d="m377.93 1476.3s-2.6691-1.6647-4.0882-1.6647c-0.69426 0-1.8328 2.4552-2.703 2.4552-0.75331 0-2.6833-2.1178-3.493-2.1178-0.80998 0-2.7026 2.2332-3.4988 2.2332-0.80651 0-2.009-2.3635-2.729-2.3635-0.9562 0-3.5058 1.7926-4.1342 1.7926-0.89811 0-1.3416-0.8847-1.26-1.5963 0.0533-0.4644-0.0534-1.1091-0.31903-1.5691-0.287-0.4971-2.8779-0.032-3.3611-0.8693-0.3625-0.6279 0.28355-3.4849-0.13731-4.2138-0.39271-0.6802-3.238-0.9423-3.6446-1.6466-0.39381-0.6821 0.87895-3.0909 0.50506-3.7385-0.44551-0.7716-3.3148-1.8182-3.6637-2.4225-0.47557-0.8238 1.2688-2.6783 1.0438-3.1832-0.20178-0.3701-0.5996-0.7238-0.95967-0.9112-0.64732-0.3369-1.2513-1.3305-0.75053-2.1979 0.31697-0.549 3.0699-1.6445 3.5008-2.3909 0.36401-0.6305-1.0352-3.0215-0.63079-3.7221 0.37243-0.645 3.1322-0.9763 3.509-1.6288 0.40084-0.6943-0.38058-3.5588-8e-3 -4.2036 0.4199-0.7273 2.9707-0.356 3.3086-0.9413 0.71981-1.2468 0.80906-4.2065 0.76113-4.4878-3e-3 -0.019 4e-3 -0.03 0.0223-0.03 0.16096 0 2.7921 1.6647 4.0877 1.6647 0.69528 0 1.8335-2.4552 2.7025-2.4552 0.75376 0 2.6837 2.1178 3.493 2.1178 0.81046 0 2.7032-2.2332 3.4991-2.2332 0.8073 0 2.0102 2.3636 2.7297 2.3636 0.95781 0 3.5075-1.7927 4.1335-1.7927 0.88226 0 1.3178 0.86 1.2365 1.5661-0.055 0.4775 0.0551 1.1483 0.32953 1.6236 0.28917 0.5009 2.8797 0.035 3.361 0.869 0.36295 0.6287-0.28305 3.4857 0.13755 4.2142 0.37832 0.6552 3.2088 0.8916 3.6016 1.5721 0.38122 0.6603-0.90293 3.0493-0.53774 3.6819 0.43297 0.7499 3.2995 1.7918 3.6652 2.4252 0.48289 0.8364-1.2342 2.6614-0.97523 3.1099 0.2367 0.41 0.70504 0.8135 1.1094 1.0209 0.63993 0.3282 1.1763 1.2543 0.6955 2.087-0.32365 0.5605-3.0912 1.6813-3.5409 2.4602-0.36257 0.628 1.0372 3.0181 0.63266 3.7188-0.37201 0.6444-3.132 0.976-3.5095 1.6298-0.41771 0.7235 0.34634 3.618-0.0419 4.2905-0.41959 0.7267-2.9705 0.3556-3.3091 0.9421-0.72965 1.2638-0.7698 4.5416-0.7698 4.5416"/>
  </g>
 </g>
</svg>
