<?xml version="1.0" encoding="UTF-8"?>
<svg width="300" height="41" version="1.1" viewBox="0 0 300 41" xmlns="http://www.w3.org/2000/svg">
 <g transform="translate(10 -.0043468)" fill="#0cf" stroke="#2e75ac" stroke-linejoin="round">
  <path d="m263.71 9.3346s-8.5736 13.718-13.973 22.357c-2.4815 3.9705-4.2925 6.8681-4.2925 6.8681s-4.9394-7.903-9.681-15.49c-4.3765-7.0024-8.5846-13.735-8.5846-13.735h10.167 26.364" stroke-width="4.0482"/>
  <g transform="matrix(.52187 0 0 .52187 -7.8862 -205.59)" stroke-width="7.757">
   <path d="m453.79 409.84c2.77 0-9.0817 24.761-17.95 41.72-4.0758 7.3606-7.255 12.91-7.6176 13.603-0.83381 1.5943-10.615-10.303-20.333-22.763-8.8975-11.501-17.313-23.409-18.214-24.71-0.55903-0.80742 6.3583-1.7889 15.812-2.8495 17.754-2.77 45.532-5 48.302-5"/>
   <path d="m387.15 407.84c5.54 0-1.7347 23.236-9.1248 40.6-3.3965 7.1132-6.2848 12.659-7.0099 14.045-1.6676 3.1886-11.765-5.4617-22.116-15.845-9.4088-9.5842-18.176-20.498-19.978-23.1-1.118-1.6148 4.2649-3.5778 12.143-5.6991 14.795-5.54 40.545-10 46.085-10"/>
   <path d="m320.52 405.84c8.31 0 5.6122 21.71-0.29984 39.48-2.7172 6.8657-5.3145 12.408-6.4022 14.488-2.5014 4.7829-12.915-0.62082-23.898-8.9278-9.9202-7.6674-19.039-17.587-21.742-21.491-1.6771-2.4223 2.1716-5.3667 8.4743-8.5486 11.836-8.31 35.558-15 43.868-15"/>
   <path d="m253.89 403.84c11.08 0 12.959 20.185 8.5251 38.36-2.0379 6.6183-4.3443 12.157-5.7944 14.93-3.3353 6.3772-14.065 4.2201-25.681-2.0102-10.432-5.7505-19.902-14.676-23.506-19.882-2.2361-3.2297 0.0782-7.1556 4.8053-11.398 8.8771-11.08 30.571-20 41.651-20"/>
   <path d="m187.26 401.84c13.85 0 20.306 18.66 17.35 37.24-1.3586 6.3708-3.374 11.906-5.1867 15.372-4.1691 7.9716-15.215 9.061-27.463 4.9075-10.943-3.8337-20.765-11.766-25.27-18.272-2.7952-4.0371-2.0152-8.9445 1.1362-14.248 5.918-13.85 25.584-25 39.434-25"/>
   <path d="m120.62 399.84c16.62 0 27.653 17.135 26.175 36.12-0.6793 6.1234-2.4038 11.656-4.579 15.815-5.0029 9.5659-16.365 13.902-29.246 11.825-11.454-1.9168-21.628-8.8551-27.034-16.663-3.3542-4.8445-4.1085-10.733-2.5328-17.097 2.959-16.62 20.597-30 37.217-30"/>
  </g>
  <path d="m20.29 2.0284c10.119 0 18.266 8.1464 18.266 18.266 0 3.0665-0.74811 5.9518-2.0725 8.4842-3.046 5.8241-9.1404 9.7813-16.193 9.7813-6.2444 0-11.738-3.1022-15.029-7.8559-2.0422-2.9496-3.2366-6.535-3.2366-10.41 0-10.119 8.1464-18.266 18.266-18.266" stroke-width="4.0482"/>
 </g>
</svg>
