<?xml version="1.0" encoding="UTF-8"?>
<svg width="300" height="31" version="1.1" viewBox="0 0 300 31" xmlns="http://www.w3.org/2000/svg">
 <g transform="translate(-14.035 -18.391)" fill="#0f0" stroke="#17a500" stroke-linejoin="round">
  <path d="m271.63 45.832h-10.653l-5.3267-9.226 5.3267-9.2261h10.653l5.3267 9.2261z" stroke-width=".86884"/>
  <path d="m47.033 47.01s-3.4902-3.2745-3.621-3.2745c-0.06542 0-0.78972 4.8295-0.87149 4.8295-0.08178 0-2.3935-4.1658-2.4807-4.1658-0.08723 0-2.2831 4.3929-2.3649 4.3929-0.08178 0-0.98643-4.6493-1.0518-4.6493-0.13084 0-3.581 3.5262-3.581 3.5262s0.60532-4.7532 0.5399-4.8665c-0.03271-0.0567-4.3589 2.1917-4.3998 2.1209-0.04089-0.0708 1.9782-4.3947 1.9346-4.4702-0.04361-0.0755-4.8806 0.7251-4.9215 0.6542-0.04089-0.0708 3.1954-3.5398 3.1627-3.5965-0.06542-0.1133-4.9385-0.8368-4.9385-0.8368s4.2094-2.3001 4.2748-2.4133c0.03271-0.0567-4.322-2.2315-4.2811-2.3023 0.02044-0.0354 4.6909-0.9003 4.7124-0.9375 0.02147-0.0372-3.483-3.4379-3.4612-3.4756 0.02181-0.0378 4.7213 0.5733 4.7428 0.5362 0.02147-0.0372-2.2719-4.3618-2.2514-4.3972 0.04089-0.0708 4.3273 1.9258 4.36 1.8691 0.06542-0.1133-0.7671-4.9822-0.7671-4.9822s3.4902 3.2745 3.621 3.2745c0.06542 0 0.78972-4.8295 0.87149-4.8295 0.08177 0 2.3935 4.1657 2.4807 4.1657 0.08723 0 2.2831-4.3928 2.3649-4.3928 0.08178 0 0.98643 4.6493 1.0518 4.6493 0.13084 0 3.581-3.5263 3.581-3.5263s-0.60532 4.7533-0.5399 4.8666c0.03271 0.0567 4.3589-2.1917 4.3998-2.1209 0.04089 0.0708-1.9782 4.3946-1.9346 4.4702 0.02181 0.0377 4.837-0.8006 4.8584-0.7635 0.02147 0.0372-3.2319 3.4767-3.2115 3.5122 0.04089 0.0708 4.9085 0.7849 4.9413 0.8415 0.06542 0.1133-4.0568 2.4134-4.0568 2.4134s4.3493 2.1842 4.2839 2.2975c-0.03271 0.0566-4.7202 0.951-4.7611 1.0218-0.02044 0.0355 3.4847 3.435 3.4632 3.4722-0.02147 0.0372-4.721-0.574-4.7428-0.5363-0.04361 0.0756 2.2273 4.4392 2.1864 4.51-0.04089 0.0708-4.3273-1.9258-4.36-1.8691-0.06542 0.1133 0.7671 4.9822 0.7671 4.9822" stroke-width=".79675"/>
  <g transform="matrix(.52187 0 0 .52187 14.289 -599.89)" stroke-width="1.6649">
   <path d="m484.33 1237.4s-1.3296-0.1281-3.1381-0.1281c-0.88389 0-1.9393 0.1889-3.0473 0.1889-0.95218 0-2.0489-0.1629-3.0729-0.1629-1.0242 0-2.1452 0.1718-3.1546 0.1718-1.0231 0-2.0487-0.1819-2.9668-0.1819-1.1914 0-2.3872 0.1379-3.2249 0.1379-1.1975 0-1.9304-0.068-1.9241-0.1228 4e-3 -0.036-0.18849-0.4046-0.5261-0.9894-0.36178-0.6266-1.0531-1.4431-1.6712-2.5137-0.45722-0.7919-0.88544-1.8395-1.4187-2.7631-0.49575-0.8587-1.2-1.7196-1.716-2.6134-0.49895-0.8642-0.86908-1.8602-1.3467-2.6874-0.55223-0.9565-1.2654-1.8899-1.7306-2.6957-0.63409-1.0982-0.99699-2.1019-1.3388-2.7027-0.27652-0.4805-0.45641-0.7663-0.4841-0.7807-0.0498-0.026 0.28736-0.7668 0.9383-1.8943 0.40957-0.7094 1.097-1.6176 1.6579-2.589 0.47162-0.8169 0.84436-1.8328 1.3697-2.7427 0.48264-0.836 1.1606-1.6681 1.6492-2.5144 0.52074-0.9019 0.94368-1.9589 1.427-2.7961 0.53375-0.9245 1.1969-1.7047 1.6266-2.449 0.92067-1.5946 1.5021-2.8174 1.4984-2.839h0.0362c0.2146 0 1.4936 0.1281 3.1374 0.1281 0.88526 0 1.9403-0.1889 3.0467-0.1889 0.95278 0 2.0495 0.1629 3.0729 0.1629 1.0249 0 2.146-0.1717 3.155-0.1717 1.0242 0 2.0502 0.1818 2.9678 0.1818 1.1935 0 2.3894-0.1379 3.2241-0.1379 1.1764 0 1.8946 0.066 1.8884 0.1204-4e-3 0.037 0.19544 0.4195 0.54448 1.0241 0.36467 0.6316 1.0554 1.4471 1.671 2.5133 0.45782 0.793 0.88611 1.8407 1.419 2.7637 0.4905 0.8496 1.1888 1.7002 1.699 2.5838 0.49458 0.8566 0.86039 1.8451 1.3343 2.6659 0.55117 0.9546 1.2642 1.8878 1.7309 2.6962 0.60208 1.0428 0.94557 2.0069 1.2909 2.605 0.31561 0.5466 0.52356 0.8754 0.55467 0.8914 0.0492 0.025-0.26893 0.719-0.88434 1.7849-0.41064 0.7113-1.1067 1.6343-1.6802 2.6276-0.47037 0.8148-0.84277 1.8301-1.3685 2.7407-0.4823 0.8354-1.1605 1.6679-1.6499 2.5156-0.5291 0.9164-0.96083 1.9886-1.4524 2.84-0.53335 0.9237-1.1967 1.7042-1.6272 2.45-0.93107 1.6126-1.5164 2.8732-1.5164 2.8732"/>
   <path d="m457.98 1237.5s-1.6645-0.5122-3.3756-0.5122c-0.83648 0-1.9127 0.7554-2.9612 0.7554-0.90247 0-2.2075-0.6516-3.1779-0.6516-0.97069 0-2.2846 0.6871-3.2406 0.6871-0.96896 0-2.0388-0.7272-2.9073-0.7272-1.1326 0-2.6668 0.5516-3.4522 0.5516-1.1226 0-1.7832-0.2723-1.758-0.4912 0.0164-0.1429-0.15473-0.5808-0.47433-1.1344-0.34308-0.5942-1.5093-1.0904-2.0937-2.1026-0.43355-0.7509-0.5932-2.2508-1.0984-3.1258-0.46999-0.814-1.7095-1.5253-2.1982-2.3716-0.47266-0.8187-0.43207-2.1679-0.88376-2.9502-0.52555-0.9103-1.7777-1.872-2.2139-2.6274-0.59446-1.0296-0.43056-2.246-0.74312-2.8228-0.25784-0.4529-0.49221-0.7557-0.603-0.8134-0.19917-0.1036-0.0973-0.9077 0.5161-1.9701 0.38642-0.6694 1.5903-1.6244 2.1186-2.5395 0.44472-0.7703 0.37447-2.13 0.86959-2.9876 0.45508-0.7882 1.6535-1.4951 2.1142-2.293 0.49077-0.85 0.61261-2.3589 1.0682-3.148 0.50528-0.8751 1.6404-1.3675 2.0471-2.072 0.87046-1.5077 1.3288-3.1647 1.3141-3.2513-1e-3 -0.01 0.01-0.01 0.0327-0.01 0.2012 0 1.8182 0.5122 3.375 0.5122 0.83777 0 1.9136-0.7554 2.9607-0.7554 0.90302 0 2.208 0.6516 3.1779 0.6516 0.9713 0 2.2853-0.6872 3.241-0.6872 0.96995 0 2.0402 0.7273 2.9083 0.7273 1.1346 0 2.669-0.5516 3.4514-0.5516 1.1028 0 1.7504 0.2646 1.7254 0.4819-0.0169 0.1469 0.16036 0.6017 0.49074 1.1739 0.34579 0.599 1.5115 1.0942 2.0935 2.1023 0.43411 0.7519 0.59382 2.2519 1.0987 3.1263 0.46245 0.801 1.6938 1.4981 2.1746 2.3308 0.46625 0.8076 0.41957 2.1462 0.86626 2.9199 0.52163 0.9035 1.773 1.8638 2.2145 2.6285 0.57228 0.9912 0.40062 2.1705 0.72434 2.7312 0.29588 0.5125 0.56893 0.86 0.69334 0.9238 0.19691 0.101 0.0924 0.8528-0.48937 1.8604-0.3889 0.6736-1.6028 1.6461-2.1454 2.5858-0.44343 0.7681-0.37277 2.1271-0.86823 2.9852-0.45472 0.7876-1.6534 1.4949-2.1148 2.2941-0.50125 0.8682-0.63403 2.396-1.0997 3.2026-0.50491 0.8746-1.6401 1.3671-2.0477 2.0731-0.88071 1.5254-1.3297 3.2903-1.3297 3.2903"/>
   <path d="m414.07 1237.7s-2.2226-1.1525-3.7715-1.1525c-0.75747 0-1.8683 1.6998-2.8178 1.6998-0.81961 0-2.4718-1.4662-3.353-1.4662-0.8814 0-2.5168 1.5461-3.384 1.5461-0.87871 0-2.0223-1.6363-2.8082-1.6363-1.0346 0-3.133 1.2411-3.8311 1.2411-0.99791 0-1.5378-0.6126-1.4813-1.1052 0.0369-0.3215-0.0985-0.8743-0.38805-1.3759-0.31193-0.5403-2.2697-0.5026-2.7978-1.4174-0.39408-0.6826-0.10612-2.9364-0.56445-3.7302-0.42706-0.7397-2.5587-1.2015-3.0018-1.9689-0.42886-0.7428 0.29627-2.6806-0.11219-3.3881-0.48109-0.8333-2.6317-1.8422-3.0193-2.5136-0.52841-0.9153 0.5135-2.4862 0.2496-3.023-0.2267-0.4069-0.55187-0.738-0.80115-0.8677-0.44815-0.2333-0.73843-1.1426-0.18759-2.0967 0.34784-0.6025 2.4123-1.6356 2.8865-2.4569 0.39988-0.6927-0.40871-2.6253 0.036-3.3957 0.40916-0.7087 2.475-1.2069 2.889-1.924 0.44081-0.7635 0.0608-3.0255 0.47015-3.7344 0.45785-0.793 2.3794-0.8056 2.7479-1.4439 0.78677-1.3627 1.0401-3.7434 1.0069-3.9382-2e-3 -0.014 7e-3 -0.021 0.0269-0.021 0.17884 0 2.3593 1.1525 3.771 1.1525 0.75861 0 1.8691-1.6998 2.8172-1.6998 0.8201 0 2.4723 1.4662 3.353 1.4662 0.88194 0 2.5175-1.5461 3.3844-1.5461 0.87959 0 2.0235 1.6364 2.8091 1.6364 1.0364 0 3.1348-1.2411 3.8304-1.2411 0.9803 0 1.5101 0.5953 1.4538 1.0842-0.0381 0.3306 0.10189 0.9054 0.40119 1.4238 0.31433 0.5444 2.2716 0.5059 2.7976 1.4171 0.39458 0.6834 0.10667 2.9373 0.56472 3.7307 0.41571 0.72 2.5354 1.1611 2.9674 1.9093 0.41901 0.7257-0.31515 2.6479 0.0863 3.3432 0.47237 0.8182 2.6211 1.8238 3.0205 2.5156 0.52263 0.9052-0.50761 2.4432-0.21986 2.9416 0.263 0.4555 0.64455 0.8341 0.92448 0.9777 0.44303 0.2272 0.69454 1.0758 0.16889 1.9863-0.35264 0.6108-2.4297 1.6656-2.9207 2.516-0.39851 0.6903 0.41057 2.6221-0.0344 3.3928-0.40877 0.708-2.4748 1.2066-2.8896 1.925-0.45485 0.7878-0.0894 3.0749-0.51205 3.807-0.45751 0.7924-2.3792 0.8052-2.7484 1.4447-0.79679 1.3801-1.0186 3.9855-1.0186 3.9855"/>
   <path d="m352.59 1238s-3.004-2.0488-4.3257-2.0488c-0.64686 0-1.8062 3.0217-2.6169 3.0217-0.7036 0-2.8419-2.6065-3.5981-2.6065-0.7564 0-2.842 2.7486-3.5849 2.7486-0.75235 0-1.9991-2.909-2.6695-2.909-0.89742 0-3.7855 2.2064-4.3615 2.2064-0.82327 0-1.1944-1.089-1.094-1.9648 0.0656-0.5715-0.0197-1.2852-0.26726-1.714-0.2683-0.4648-3.3341 0.3203-3.7836-0.4582-0.33882-0.5869 0.5758-3.8962 0.18305-4.5764-0.36695-0.6356-3.7476-0.7481-4.1268-1.4049-0.36751-0.6366 1.316-3.3986 0.96801-4.0013-0.41883-0.7254-3.8272-1.8003-4.147-2.3543-0.43594-0.7551 1.8352-2.8224 1.6394-3.3033-0.1831-0.3425-0.6354-0.7131-1.0786-0.9437-0.7967-0.4147-1.636-1.4715-1.1727-2.2739 0.29382-0.5089 3.5632-1.6512 3.9616-2.3413 0.3371-0.5839-1.5051-3.3187-1.1309-3.9669 0.34487-0.5974 3.6251-0.8035 3.9739-1.4075 0.37087-0.6424-0.71164-3.9587-0.36711-4.5554 0.39144-0.678 3.4141-0.019 3.7291-0.5645 0.66959-1.1598 0.6358-4.5537 0.57681-4.8999-4e-3 -0.024 2e-3 -0.037 0.0189-0.037 0.14754 0 3.1168 2.0488 4.3253 2.0488 0.64779 0 1.8068-3.0218 2.6165-3.0218 0.704 0 2.8423 2.6065 3.5981 2.6065 0.75685 0 2.8425-2.7486 3.5852-2.7486 0.75308 0 2.0002 2.9091 2.6702 2.9091 0.89888 0 3.787-2.2064 4.3609-2.2064 0.80874 0 1.1736 1.0584 1.0735 1.9275-0.0677 0.5878 0.02 1.3305 0.2758 1.7735 0.2703 0.4682 3.3357-0.3175 3.7834 0.4579 0.33924 0.5876-0.57534 3.897-0.18282 4.5768 0.35027 0.6067 3.7137 0.6895 4.0773 1.3192 0.35287 0.6112-1.3438 3.3504-1.0057 3.9359 0.40341 0.6987 3.8084 1.7679 4.1488 2.3575 0.45311 0.7848-1.7791 2.825-1.5418 3.2361 0.21698 0.3759 0.75042 0.798 1.2481 1.0533 0.7876 0.4039 1.5376 1.3881 1.0905 2.1625-0.3019 0.5229-3.5873 1.693-4.0061 2.4184-0.33563 0.5813 1.5072 3.315 1.133 3.9633-0.34443 0.5966-3.6248 0.803-3.9744 1.4084-0.38987 0.6753 0.67313 4.0253 0.31072 4.653-0.39116 0.6775-3.4139 0.019-3.7295 0.5652-0.67929 1.1766-0.58315 4.9587-0.58315 4.9587"/>
   <path d="m273.54 1238.5s-4.0087-3.2013-5.0383-3.2013c-0.50462 0-1.7263 4.7215-2.3586 4.7215-0.55444 0-3.3176-4.0726-3.9132-4.0726-0.5957 0-3.26 4.2946-3.843 4.2946-0.58991 0-1.9694-4.5453-2.4911-4.5453-0.72104 0-4.6245 3.4474-5.0434 3.4474-0.59875 0-0.75283-1.7015-0.59587-3.0698 0.10244-0.8931 0.0816-1.8136-0.11195-2.1489-0.21223-0.3676-4.7028 1.3783-5.051 0.7751-0.26779-0.4638 1.4525-5.1301 1.1441-5.6643-0.28966-0.5018-5.2761-0.1652-5.5732-0.6799-0.28865-0.5 2.627-4.3216 2.3568-4.7895-0.3388-0.5868-5.3642-1.7467-5.5968-2.1495-0.31704-0.5492 3.5345-3.2547 3.4263-3.6636-0.12706-0.2597-0.74281-0.6812-1.4352-1.0417-1.2448-0.6479-2.79-1.8942-2.4394-2.5016 0.22437-0.3886 5.0428-1.6714 5.3438-2.1927 0.25638-0.4441-2.9148-4.2102-2.6313-4.7014 0.26221-0.4541 5.1038-0.2846 5.3687-0.7434 0.28094-0.4866-1.7048-5.1585-1.4436-5.6109 0.30605-0.5301 4.7444 0.9926 4.9906 0.5662 0.51895-0.8988 0.11605-5.5954 0.0239-6.1364-6e-3 -0.038-4e-3 -0.058 8e-3 -0.058 0.10731 0 4.0907 3.2013 5.038 3.2013 0.50531 0 1.7268-4.7215 2.3583-4.7215 0.55473 0 3.3179 4.0726 3.9132 4.0726 0.59602 0 3.2604-4.2946 3.8433-4.2946 0.59044 0 1.9702 4.5453 2.4917 4.5453 0.72211 0 4.6256-3.4474 5.043-3.4474 0.58817 0 0.74092 1.6538 0.58457 3.0117-0.10574 0.9184-0.0852 1.8771 0.11459 2.2232 0.21367 0.3701 4.7039-1.3763 5.0509-0.7754 0.26809 0.4644-1.4522 5.1308-1.144 5.6647 0.26614 0.461 5.2287 0.083 5.5043 0.5604 0.26786 0.464-2.6663 4.2536-2.4097 4.6979 0.31476 0.5452 5.3349 1.6959 5.5996 2.1544 0.36372 0.63-3.414 3.3157-3.2413 3.6147 0.15781 0.2734 0.88654 0.7515 1.6641 1.1503 1.2306 0.6312 2.6215 1.7896 2.2753 2.3891-0.23665 0.4099-5.0757 1.7284-5.4016 2.2929-0.25477 0.4413 2.9173 4.206 2.6338 4.6969-0.26171 0.4534-5.1034 0.284-5.369 0.744-0.30633 0.5306 1.6535 5.2475 1.3686 5.741-0.30585 0.5297-4.7443-0.9929-4.9909-0.5658-0.52822 0.9149-0.0232 6.21-0.0232 6.21"/>
   <path d="m176.92 1239s-5.2366-4.6098-5.9092-4.6098c-0.33079 0-1.6286 6.799-2.043 6.799-0.37214 0-3.8992-5.8646-4.2984-5.8646-0.39927 0-3.771 6.1843-4.1586 6.1843-0.39135 0-1.9331-6.5454-2.2732-6.5454-0.50547 0-5.65 4.9644-5.8768 4.9644-0.32432 0-0.21313-2.4502 0.0129-4.4206 0.14751-1.286 0.2054-2.4594 0.0779-2.6803-0.14369-0.2489-6.3755 2.6715-6.6001 2.2826-0.18096-0.3135 2.5241-6.6385 2.3188-6.9942-0.19521-0.3381-7.1442 0.5474-7.3411 0.2064-0.19226-0.3331 4.2294-5.4498 4.0543-5.753-0.24097-0.4174-7.2429-1.681-7.3689-1.8992-0.17173-0.2975 5.6114-3.783 5.6103-4.1041-0.0586-0.1584-0.87408-0.6422-1.8712-1.1611-1.7926-0.9331-4.2005-2.4111-3.9875-2.78 0.13949-0.2417 6.8513-1.6961 7.0332-2.0111 0.15773-0.2732-4.6378-5.2999-4.4651-5.5991 0.16119-0.2792 6.9111 0.3494 7.0734 0.068 0.17103-0.2963-2.9187-6.625-2.7593-6.9011 0.20169-0.3494 6.3704 2.229 6.5324 1.9482 0.33482-0.5799-0.5192-6.8687-0.65194-7.6477-9e-3 -0.054-0.0108-0.083-4e-3 -0.083 0.0581 0 5.281 4.6098 5.909 4.6098 0.33116 0 1.6289-6.799 2.0428-6.799 0.3723 0 3.8993 5.8646 4.2984 5.8646 0.39945 0 3.7712-6.1843 4.1587-6.1843 0.39164 0 1.9335 6.5453 2.2734 6.5453 0.50605 0 5.6506-4.9643 5.8766-4.9643 0.3186 0 0.21215 2.3815-0.013 4.3369-0.15226 1.3224-0.21385 2.5452-0.0824 2.7728 0.14447 0.2502 6.3762-2.6704 6.6-2.2827 0.18113 0.3138-2.5239 6.6387-2.3186 6.9943 0.16331 0.2828 7.0803-0.6581 7.2484-0.3669 0.16394 0.284-4.2826 5.3574-4.1257 5.6292 0.2064 0.3575 7.2007 1.6079 7.3728 1.906 0.25447 0.4407-5.4121 3.9156-5.3186 4.0776 0.0855 0.148 1.0529 0.6946 2.1726 1.2689 1.7721 0.9088 3.9462 2.2803 3.7235 2.666-0.15692 0.2718-6.8948 1.7714-7.1073 2.1394-0.15596 0.2702 4.6406 5.295 4.4682 5.5936-0.16062 0.2782-6.9106-0.3502-7.0736-0.068-0.20423 0.3538 2.8517 6.7411 2.6615 7.0706-0.20157 0.3491-6.3703-2.2291-6.5326-1.948-0.34357 0.5951 0.66112 7.7393 0.66112 7.7393"/>
  </g>
 </g>
</svg>
