<?xml version="1.0" encoding="UTF-8"?>
<svg width="300" height="80" version="1.1" viewBox="0 0 300 80" xmlns="http://www.w3.org/2000/svg">
 <g transform="translate(-10.84 -14.711)">
  <path d="m52.441 44.409c-2.9976 2.9047-3.5071-5.427-7.1207-3.1925-3.6849 2.2787 1.1326 7.9414-3.2277 8.4695-4.2758 0.5181 1.5441-6.9599-2.6777-7.5296-4.3051-0.581-3.831 7.2721-7.9079 5.6902-3.9979-1.5513 4.5381-5.7159 1.6296-8.871-2.9659-3.2175-6.2133 5.7225-8.4629 1.9618-2.206-3.6879 5.5681-2.5544 4.9588-6.6857-0.62133-4.2129-8.4029-0.204-8.0303-4.4441 0.36534-4.1581 8.0153 2.7473 9.9006-1.0624 1.9225-3.885-6.9532-4.6724-4.2767-7.8974 2.6247-3.1626 4.6708 4.5784 8.3708 2.3643 3.773-2.2579-2.7067-7.4381 1.4582-8.4265 4.0843-0.9692 0.18368 7.8024 4.3501 8.2857 4.2486 0.4929 2.8247-8.4766 6.6595-6.6727 3.7606 1.7689-3.6131 6.4804-0.83386 9.6299 2.8341 3.2117 5.5873-5.8283 7.7624-2.1005 2.1329 3.6555-5.5152 3.2348-4.8635 7.5016 0.66462 4.3509 8.8783 0.2243 8.0285 4.487-0.83336 4.1803-8.3722-3.756-9.9941 0.2036-1.6539 4.0378 7.3336 5.3267 4.2768 8.2888z" fill="#fc0"/>
  <path d="m255.17 22.167h24.25v24.25h-24.25v-22.734z" fill="#d40000"/>
  <g transform="matrix(.52187 0 0 .52187 16.891 -819.61)">
   <path d="m401.09 1619.1c-0.31492 0.3051 1.9598 0.1573 1.759-0.1063-0.16845-0.2211 2.1621-0.5236 1.962-0.7083-0.18293-0.1689 1.0439-0.2393 1.4411-0.059 0.17776 0.023 0.28477 0.048 0.25342 0.073-0.25549 0.2092 2.176 0.4956 2.1806 0.7942 5e-3 0.3043 2.5637 0.6213 2.5552 0.8819-0.01 0.2953 2.0866 0.5183 1.9272 0.5689 0.0132 4e-4 0.0189 7e-4 0.0161 1e-3 -0.43605 0.049 2.0078-0.2106 2.058-0.5618 0.0385-0.2696 2.6226-0.593 2.6402-0.8712 0.0201-0.3183 2.0995-0.5775 2.012-0.6292 0.0178-5e-4 0.0256 0 0.0217 0-0.34731-0.043 1.9092 0.1167 1.7242 0.3501-0.17601 0.2221 2.1805 0.5112 2.0333 0.7571-0.17228 0.288 2.1251 0.5168 1.8212 0.5096-0.0797 0 0.17029-0.02 0.49989-0.058 0.44438-0.1115 1.3873-0.2723 1.4543-0.4645 0.0742-0.213 2.7821-0.4644 2.9837-0.73 0.19334-0.2547 2.8602-0.5224 2.8795-0.7815 0.0115-0.1554 0.69599-0.3078 1.232-0.4524 0.45841-0.1175 0.87202-0.1758 0.76178-0.1909-0.25573-0.035-0.51437 2.6507-0.76553 2.8774-0.23826 0.215-0.46978 2.9464-0.68572 3.0434-0.19373 0.087-0.37491 1.1434-0.53713 1.6096-0.0477 0.2991-0.0783 0.5143-0.0944 0.4496-0.0785-0.3151 0.1895 2.0225 0.51662 1.8764 0.26775-0.1195 0.57512 2.254 0.7646 2.0555 0.13256-0.1388 0.20741 0.6818 0.17062 1.1647-0.0148 0.3228-0.0444 0.5733-0.0862 0.5041-0.1485-0.2464-0.45002 2.1747-0.78001 2.1508-0.30208-0.022-0.62801 2.4828-0.88228 2.4324-0.28675-0.057-0.48234 1.5222-0.44974 1.732 2e-3 0.094 5e-3 0.1432 9e-3 0.1221 0.0619-0.3465 0.34753 2.1348 0.71482 2.2281 0.25758 0.066 0.55532 2.6701 0.84419 2.7535 0.32296 0.093 0.63483 2.6356 0.86708 2.5345 0.11343-0.049 0.20787 0.4011 0.27534 0.8398 0.0888 0.4837 0.0934 1.0426 0.0432 0.9041-0.0886-0.2444-0.34784 2.0531-0.616 1.8737-0.27553-0.1842-0.56048 2.134-0.67938 1.9326-0.0882-0.1494-0.085 0.5563 0.0814 1.0674 0.0862 0.3871 0.17015 0.741 0.25286 0.7132 0.25086-0.084-1.9989 0.136-1.7411 0.3856 0.21556 0.2088-2.0455 0.438-1.7872 0.5269 0.17965 0.062-0.61997 0.056-1.1373-0.073-0.3385-0.053-0.60835-0.111-0.55759-0.1739 0.19172-0.2378-2.3454-0.5411-2.4429-0.8453-0.0968-0.302-2.732-0.6048-2.7412-0.8453-8e-3 -0.207-1.0285-0.3679-1.453-0.4422-0.27725-0.021-0.47578-0.025-0.41284-0.016 0.27561 0.042-2.1555 0.3536-2.1364 0.7339 0.0143 0.2836-2.4825 0.6055-2.4377 0.8827 0.0528 0.3268-2.311 0.5912-1.9914 0.657 0.0203 0-0.0264 0.01-0.11765 0.01-0.24907 0.037-1.7811-0.1257-1.6334-0.3701 0.14132-0.2339-2.2578-0.5423-2.162-0.8203 0.11856-0.3443-2.2437-0.642-2.0007-0.6939 0.0921-0.02-0.24827 0-0.6337 0.058-0.47881 0.1039-1.2218 0.2449-1.2241 0.4108-3e-3 0.232-2.6574 0.5127-2.8267 0.8088-0.1514 0.2647-2.7956 0.5417-2.8415 0.8072-0.0372 0.2148-1.1056 0.4221-1.678 0.6093-0.31149 0.067-0.53091 0.1146-0.47204 0.1457 0.2615 0.138 0.51926-2.5385 0.768-2.7842 0.22174-0.2191 0.4363-2.974 0.63993-3.0974 0.19054-0.1154 0.37151-1.2218 0.53982-1.6709 0.0438-0.289 0.0726-0.4922 0.0883-0.4287 0.0772 0.3117-0.15799-1.9927-0.45878-1.815-0.24619 0.1455-0.53632-2.2032-0.73505-2.0017-0.1686 0.1709-0.27142-1.0292-0.22582-1.4271 7e-3 -0.1802 0.0176-0.2875 0.031-0.2473 0.10193 0.3057 0.37515-2.072 0.69524-2.0282 0.28661 0.039 0.6108-2.4652 0.88328-2.444 0.35926 0.028 0.62862-2.3703 0.60344-2.0084-2e-3 0.034-7e-3 -0.051-0.0152-0.2026-0.0668-0.3334-0.29103-1.7908-0.58589-1.8595-0.24276-0.056-0.53339-2.6833-0.82349-2.8096-0.29907-0.1301-0.59756-2.7376-0.84241-2.743-0.21425 0-0.38744-0.9322-0.484-1.4297-0.0372-0.3275-0.0547-0.5703-0.056-0.489-5e-3 0.2887 0.1951-1.9674 0.4452-1.7598 0.23217 0.1928 0.50772-2.1257 0.70331-1.9529 0.25664 0.2268 0.3756-2.0322 0.0783-1.7441" fill="#da1d00"/>
   <path d="m345.6 1625.2c-0.62986 0.6104 1.0154 0.3146 0.61373-0.2125-0.33692-0.4422 1.42-1.0472 1.0197-1.4166-0.36586-0.3377 0.40275-0.4786 0.39418-0.1187 0.10432 0.046 0.15345 0.095 0.0907 0.1468-0.51098 0.4184 1.4478 0.9914 1.457 1.5886 9e-3 0.6086 2.2232 1.2424 2.2062 1.7637-0.0192 0.5905 1.5995 1.0366 0.97889 1.1378 8e-3 7e-4 9e-3 0 3e-3 0-0.87212 0.099 1.1115-0.4213 1.2117-1.1235 0.077-0.5394 2.3411-1.1861 2.3761-1.7424 0.0401-0.6368 1.6782-1.1551 1.1588-1.2584h5e-3c-0.69462-0.085 0.91431 0.2333 0.54429 0.7001-0.35203 0.4441 1.4568 1.0223 1.1625 1.5142-0.34456 0.576 1.346 1.0336 0.73811 1.0191-0.15942 0-0.0531-0.04 0.10868-0.1151 0.0351-0.223 0.7616-0.5447 0.89544-0.9291 0.1483-0.4259 2.6601-0.9288 3.0632-1.4599 0.38669-0.5094 2.8163-1.0447 2.8548-1.5629 0.0231-0.3109 0.54039-0.6156 0.83156-0.9048 0.25564-0.2351 0.47233-0.3516 0.25186-0.382-0.51146-0.07-1.0287 2.3972-1.531 2.8506-0.47652 0.4301-0.93958 2.9888-1.3714 3.1826-0.38746 0.1739-0.74981 1.0194-1.0743 1.0916-0.0954 0.1561-0.15669 0.252-0.18887 0.1228-0.15692-0.6304 0.37901 1.1406 1.0332 0.8485 0.5355-0.2391 1.1503 1.6038 1.5292 1.2069 0.26512-0.2777 0.41482 0.1969 0.34125 0.3084-0.0296 0.1519-0.0889 0.2634-0.17238 0.1249-0.29702-0.4928-0.90005 1.4453-1.56 1.3976-0.60415-0.044-1.256 2.0612-1.7646 1.9605-0.57351-0.1136-0.9647 1.0386-0.89948 0.7804 4e-3 0.051 0.01 0.066 0.0175 0.024 0.12374-0.6932 0.69504 1.3653 1.4296 1.552 0.51517 0.1309 1.1106 2.436 1.6884 2.6026 0.64593 0.1864 1.2697 2.3672 1.7342 2.1649 0.22685-0.099 0.41573 0.176 0.55066 0.3825 0.1777 0.1937 0.18689 0.4781 0.0865 0.2011-0.17719-0.4887-0.69568 1.202-1.232 0.8434-0.55108-0.3686-1.121 1.3636-1.3588 0.9609-0.1765-0.2989-0.17004 0.095 0.16288 0.2874 0.17243 0.2013 0.3403 0.4252 0.50572 0.3696 0.50172-0.1686-1.0935 0.272-0.57795 0.7713 0.43112 0.4175-1.1867 0.876-0.67028 1.0536 0.35931 0.1237-0.0805 0.1113-0.26143-0.1453-0.17956-0.1052-0.32562-0.222-0.22409-0.3479 0.38343-0.4756-1.7866-1.0822-1.9817-1.6905-0.19367-0.6039-2.5598-1.2096-2.5782-1.6905-0.0159-0.4141-0.75749-0.7358-0.7459-0.8844-0.12866-0.042-0.20743-0.051-0.0815-0.031 0.5512 0.084-1.4068 0.7072-1.3686 1.4677 0.0285 0.5672-2.0608 1.2111-1.9713 1.7653 0.10565 0.6536-1.7178 1.1825-1.0786 1.3142 0.0407 0.01 0.0264 0.015-0.0241 0.02 0.17016 0.075-0.86919-0.2512-0.5739-0.74 0.28265-0.4679-1.6113-1.0847-1.4199-1.6406 0.23712-0.6886-1.5833-1.284-1.0972-1.388 0.18427-0.039 0.0275-0.01-0.14041 0.1154-0.14127 0.2078-0.66649 0.4899-0.67094 0.8217-6e-3 0.464-2.4106 1.0255-2.7493 1.6177-0.30278 0.5294-2.687 1.0834-2.7789 1.6143-0.0743 0.4297-0.92477 0.8442-1.2091 1.2185-0.19052 0.1342-0.30447 0.2293-0.18672 0.2914 0.523 0.2761 1.0385-2.1726 1.536-2.6641 0.44349-0.4381 0.87261-3.0438 1.2799-3.2906 0.38109-0.2308 0.74302-1.1421 1.0797-1.1798 0.0877-0.1532 0.14515-0.2423 0.17664-0.1151 0.15441 0.6232-0.31598-1.0814-0.91755-0.726-0.49238 0.2909-1.0726-1.5022-1.4701-1.0992-0.3372 0.3419-0.54284-0.4078-0.45164-0.3911 0.0144-0.095 0.0352-0.1339 0.062-0.054 0.20386 0.6115 0.75029-1.2397 1.3905-1.152 0.57321 0.078 1.2216-2.0262 1.7666-1.9839 0.71851 0.056 1.2572-1.8365 1.2069-1.1126-5e-3 0.069-0.0148 0.04-0.0305-0.04-0.13362 0.1131-0.58206-1.0422-1.1718-1.1796-0.48551-0.1132-1.0668-2.4625-1.647-2.715-0.59814-0.2604-1.1951-2.5712-1.6848-2.582-0.42851-0.01-0.77487-0.687-0.968-0.8265-0.0744-0.1671-0.10946-0.2694-0.1121-0.1067-9e-3 0.5774 0.3902-1.0306 0.89039-0.6153 0.46436 0.3855 1.0154-1.3474 1.4066-1.0017 0.51328 0.4535 0.75121-1.1603 0.15654-0.5841" fill="#e03a00"/>
   <path d="m290.1 1631.3c-0.94478 0.9155 0.0709 0.4719-0.5315-0.3188-0.50537-0.6633 0.6779-1.5708 0.0775-2.1249-0.54879-0.5066-0.23841-0.718-0.65278-0.178 0.0309 0.07 0.0221 0.1432-0.0719 0.2202-0.76647 0.6276 0.71954 1.487 0.73349 2.3828 0.0142 0.9129 1.8826 1.8637 1.8572 2.6456-0.0289 0.8858 1.1123 1.5548 0.0306 1.7067h-9e-3c-1.3082 0.1483 0.21511-0.6319 0.36546-1.6853 0.11547-0.809 2.0595-1.7791 2.1121-2.6136 0.0602-0.9551 1.257-1.7326 0.30546-1.8876h-0.0126c-1.0419-0.1281-0.0806 0.3499-0.63566 1.0502-0.52803 0.6662 0.73308 1.5335 0.29165 2.2713-0.51684 0.8639 0.56689 1.5504-0.34493 1.5287-0.23913-0.01-0.27643-0.06-0.28252-0.1727-0.37424-0.3345 0.13585-0.817 0.33661-1.3936 0.22245-0.6388 2.538-1.3932 3.1428-2.1899 0.58003-0.7641 2.7724-1.5671 2.83-2.3444 0.0346-0.4663 0.3848-0.9234 0.43111-1.3572 0.0529-0.3525 0.0726-0.5274-0.25807-0.5729-0.76719-0.1057-1.5431 2.1437-2.2966 2.8238-0.71478 0.6451-1.4094 3.031-2.0572 3.3218-0.58119 0.2608-1.1247 0.8953-1.6114 0.5734-0.14309 0.013-0.23504-0.01-0.28331-0.204-0.23538-0.9455 0.56851 0.2589 1.5499-0.1793 0.80325-0.3586 1.7254 0.9537 2.2938 0.3583 0.39766-0.4165 0.62222-0.2879 0.51186-0.5479-0.0444-0.019-0.13336-0.047-0.25857-0.2542-0.44552-0.7392-1.3501 0.7158-2.34 0.6442-0.90623-0.066-1.884 1.6398-2.6468 1.4887-0.86026-0.1704-1.447 0.555-1.3492-0.1711 6e-3 0.01 0.015-0.012 0.0263-0.075 0.18562-1.0397 1.0426 0.5959 2.1444 0.8759 0.77276 0.1964 1.666 2.2019 2.5326 2.4519 0.96889 0.2795 1.9045 2.0986 2.6013 1.7952 0.34028-0.1482 0.6236-0.049 0.826-0.075 0.26654-0.096 0.28033-0.086 0.1297-0.5019-0.26579-0.7331-1.0435 0.3509-1.848-0.1871-0.82661-0.5528-1.6815 0.5934-2.0382-0.011-0.26475-0.4484-0.25506-0.3656 0.24432-0.4928 0.25864 0.016 0.51045 0.1095 0.75858 0.026 0.75258-0.2529-0.18819 0.408 0.58518 1.1569 0.64667 0.6262-0.32802 1.314 0.44667 1.5805 0.53896 0.1854 0.4589 0.1669 0.61441-0.218-0.0206-0.1578-0.0429-0.3329 0.1094-0.5218 0.57515-0.7134-1.2278-1.6233-1.5204-2.5358-0.29049-0.9059-2.3876-1.8143-2.4153-2.5358-0.0238-0.6212-0.48643-1.1037-0.0388-1.3266 0.0199-0.062 0.0609-0.076 0.24976-0.047 0.82681 0.1267-0.65814 1.0608-0.60078 2.2015 0.0428 0.8509-1.6392 1.8167-1.5048 2.6481 0.15847 0.9804-1.1245 1.7738-0.1658 1.9712 0.061 0.013 0.0791 0.023 0.0694 0.03 0.58941 0.1126 0.0427-0.3769 0.48566-1.1101 0.42397-0.7018-0.96491-1.6269-0.67774-2.4609 0.35568-1.0329-0.92284-1.926-0.19377-2.0819 0.2764-0.059 0.30336-0.012 0.35288 0.1731 0.19626 0.3117-0.11114 0.7348-0.11782 1.2325-9e-3 0.6961-2.1638 1.5382-2.6719 2.4265-0.45418 0.7941-2.5784 1.6251-2.7162 2.4215-0.11149 0.6445-0.74398 1.2663-0.74027 1.8278-0.0695 0.2012-0.078 0.3439 0.0986 0.4371 0.7845 0.414 1.5578-1.8069 2.304-2.5441 0.66522-0.6572 1.3089-3.1137 1.9198-3.4837 0.57162-0.3463 1.1145-1.0625 1.6195-0.6888 0.1315-0.017 0.21773 0.01 0.26497 0.1984 0.23162 0.9349-0.47397-0.17-1.3763 0.3631-0.73857 0.4364-1.609-0.8011-2.2052-0.1967-0.50581 0.5128-0.81426 0.2137-0.67747 0.645 0.0216-0.01 0.0529 0.02 0.093 0.1401 0.30579 0.9172 1.1254-0.4075 2.0857-0.276 0.85982 0.1177 1.8324-1.5872 2.6498-1.5237 1.0778 0.084 1.8858-1.3026 1.8103-0.2168-7e-3 0.1028-0.0222 0.1312-0.0457 0.1221-0.20041 0.5595-0.87308-0.2938-1.7577-0.4999-0.72827-0.1697-1.6002-2.2417-2.4705-2.6204-0.89721-0.3905-1.7927-2.4047-2.5272-2.4209-0.64276-0.014-1.1623-0.4418-1.452-0.2234-0.11159-0.01-0.16419 0.032-0.16814 0.2756-0.014 0.8663 0.58529-0.094 1.3356 0.5292 0.69653 0.5783 1.5232-0.5689 2.1099-0.05 0.76992 0.6803 1.1268-0.2883 0.2348 0.576" fill="#e65700"/>
   <path d="m234.61 1637.4c-1.2597 1.2207-0.87346 0.6291-1.6767-0.4251-0.67383-0.8844-0.0642-2.0943-0.86475-2.8333-0.73172-0.6753-0.87957-0.9572-1.6997-0.2372-0.0426 0.093-0.10921 0.1909-0.23462 0.2936-1.022 0.8368-9e-3 1.9826 0.01 3.1771 0.0189 1.2172 1.5421 2.4849 1.5082 3.5274-0.0385 1.181 0.62509 2.0731-0.91766 2.2757h-0.0218c-1.7442 0.1976-0.68126-0.8426-0.48079-2.2472 0.15396-1.0786 1.7779-2.3721 1.848-3.4848 0.0802-1.2735 0.83573-2.3101-0.54783-2.5167-5e-3 0-0.0144 0-0.0298-0.01-1.3892-0.1709-1.0756 0.4665-1.8156 1.4002-0.70405 0.8882 9e-3 2.0446-0.57919 3.0284-0.68914 1.1519-0.21222 2.0672-1.428 2.0383-0.31883-0.01-0.49977-0.08-0.67371-0.2304-0.78356-0.446-0.4899-1.0892-0.22222-1.858 0.2966-0.8518 2.416-1.8577 3.2223-2.9199 0.77337-1.0188 2.7284-2.0895 2.8054-3.1258 0.0461-0.6218 0.22919-1.2312 0.0307-1.8097-0.14993-0.47-0.32706-0.7031-0.768-0.7638-1.0229-0.141-2.0575 1.8902-3.0621 2.7969-0.95303 0.8602-1.8792 3.0733-2.7429 3.461-0.77492 0.3478-1.4996 0.7713-2.1485 0.055-0.19078-0.1296-0.31339-0.2722-0.37774-0.5307-0.31385-1.2608 0.75801-0.623 2.0665-1.2072 1.071-0.4781 2.3005 0.3035 3.0584-0.4903 0.53022-0.5554 0.82963-0.7727 0.68248-1.4043-0.0592-0.1899-0.17781-0.3562-0.34475-0.6332-0.59404-0.9857-1.8001-0.014-3.12-0.1092-1.2083-0.087-2.5121 1.2183-3.5291 1.0169-1.147-0.2272-1.9294 0.071-1.799-1.1227 8e-3 -0.035 0.02-0.089 0.0351-0.1734 0.24749-1.3862 1.3901-0.1735 2.8592 0.1999 1.0303 0.2619 2.2213 1.9678 3.3768 2.3011 1.2918 0.3726 2.5393 1.83 3.4684 1.4255 0.45371-0.1976 0.83146-0.2741 1.1013-0.532 0.35538-0.3865 0.37377-0.6509 0.17293-1.2048-0.35438-0.9775-1.3914-0.5002-2.464-1.2176-1.1022-0.7371-2.2419-0.1768-2.7175-0.9822-0.353-0.5978-0.34007-0.8264 0.32576-1.2728 0.34486-0.1701 0.6806-0.2063 1.0114-0.3175 1.0034-0.3372 0.71716 0.544 1.7483 1.5425 0.86224 0.835 0.53071 1.7521 1.5636 2.1074 0.71861 0.2472 0.99833 0.2226 1.4902-0.2908 0.13831-0.2103 0.23985-0.4438 0.44291-0.6957 0.76686-0.9512-0.66899-2.1643-1.0592-3.381-0.38733-1.2078-2.2154-2.4191-2.2523-3.3811-0.0318-0.8282-0.21538-1.4716 0.66826-1.7688 0.16853-0.083 0.32927-0.1009 0.58106-0.062 1.1024 0.1689 0.0905 1.4144 0.16703 2.9353 0.0571 1.1345-1.2175 2.4223-1.0383 3.5308 0.2113 1.3071-0.5313 2.365 0.74699 2.6283 0.0813 0.017 0.13189 0.03 0.16301 0.04 1.0086 0.1503 0.95462-0.5024 1.5452-1.4801 0.5653-0.9357-0.31848-2.1692 0.0644-3.2812 0.47423-1.3772-0.26239-2.5679 0.70969-2.7758 0.36854-0.079 0.57918-0.016 0.84618 0.2307 0.5338 0.4157 0.44421 0.9797 0.43531 1.6434-0.0125 0.9281-1.917 2.051-2.5944 3.2354-0.60557 1.0588-2.4698 2.1667-2.6535 3.2286-0.14866 0.8593-0.56319 1.6885-0.27142 2.437 0.0514 0.2683 0.14842 0.4585 0.3839 0.5828 1.046 0.5521 2.0771-1.4411 3.072-2.424 0.88696-0.8763 1.7452-3.1835 2.5597-3.6769 0.76216-0.4617 1.486-0.9829 2.1593-0.1977 0.17533 0.1184 0.2903 0.2577 0.35329 0.5119 0.30882 1.2466-0.63197 0.7414-1.8351 1.4522-0.98476 0.5819-2.1453-0.1001-2.9402 0.7058-0.6744 0.6837-1.0857 0.8351-0.90328 1.681 0.0288 0.075 0.0705 0.1733 0.12402 0.3338 0.40771 1.223 1.5006 0.4248 2.781 0.6001 1.1464 0.157 2.4432-1.1482 3.5331-1.0634 1.437 0.1117 2.5145-0.7688 2.4137 0.679-0.01 0.1369-0.0296 0.2224-0.0609 0.2843-0.26722 1.0061-1.1641 0.4547-2.3436 0.1799-0.97103-0.2262-2.1336-2.0208-3.294-2.5258-1.1963-0.5206-2.3902-2.2382-3.3696-2.2598-0.85701-0.019-1.5498-0.1966-1.936 0.3798-0.14878 0.154-0.21892 0.3326-0.22419 0.6579-0.0187 1.155 0.78039 0.843 1.7808 1.6736 0.92872 0.7711 2.0309 0.2096 2.8132 0.9009 1.0266 0.9071 1.5024 0.5836 0.31307 1.7361" fill="#ec7400"/>
   <path d="m179.11 1643.4c-1.5746 1.5258-1.8179 0.7864-2.822-0.5314-0.84229-1.1055-0.8063-2.6179-1.807-3.5416-0.91466-0.8442-1.5207-1.1965-2.7467-0.2965-0.11601 0.1161-0.24054 0.2386-0.39731 0.367-1.2774 1.0459-0.73689 2.4782-0.71364 3.9713 0.0237 1.5215 1.2016 3.1062 1.1592 4.4094-0.0481 1.4762 0.13792 2.5913-1.8659 2.8445-9e-3 0-0.0203 0-0.0344 0.01-2.1803 0.2471-1.5776-1.0532-1.327-2.809 0.19243-1.3483 1.4964-2.9651 1.584-4.356 0.10029-1.5918 0.41449-2.8876-1.4011-3.1459-0.0122 0-0.0277-0.01-0.047-0.01-1.7365-0.2135-2.0705 0.5832-2.9956 1.7503-0.88006 1.1103-0.71433 2.5558-1.45 3.7855-0.86142 1.4399-0.99132 2.584-2.511 2.5478-0.39854-0.01-0.72313-0.1001-1.0649-0.2879-1.1929-0.5575-1.1156-1.3616-0.78105-2.3225 0.37075-1.0648 2.2939-2.3221 3.3018-3.6499 0.96671-1.2735 2.6845-2.6119 2.7806-3.9073 0.0577-0.7772 0.0736-1.539-0.36981-2.2621-0.3527-0.5875-0.72674-0.8789-1.2779-0.9548-1.2786-0.1761-2.5718 1.6367-3.8276 2.7702-1.1913 1.0753-2.3489 3.1156-3.4286 3.6002-0.96865 0.4347-1.8745 0.6472-2.6856-0.4629-0.23847-0.2724-0.39173-0.5344-0.47218-0.8575-0.3923-1.5759 0.94752-1.5047 2.5831-2.235 1.3388-0.5977 2.8756-0.3466 3.823-1.3389 0.66278-0.6942 1.037-1.2575 0.85311-2.2606-0.074-0.3608-0.22227-0.6661-0.43095-1.0124-0.74254-1.232-2.2501-0.7431-3.9001-0.8625-1.5104-0.1092-3.1401 0.7969-4.4114 0.5451-1.4338-0.284-2.4117-0.4122-2.2487-2.0742 0.0104-0.079 0.0251-0.1666 0.0439-0.272 0.30936-1.7327 1.7376-0.9429 3.5741-0.4762 1.2879 0.3274 2.7766 1.7337 4.221 2.1503 1.6148 0.4659 3.1742 1.5616 4.3354 1.0558 0.56714-0.2469 1.0393-0.4991 1.3767-0.9891 0.44422-0.6766 0.46722-1.2154 0.21617-1.9079-0.44299-1.2219-1.7392-1.3513-3.08-2.248-1.3777-0.9213-2.8024-0.947-3.3969-1.9538-0.44124-0.7473-0.42509-1.2873 0.4072-2.0529 0.43107-0.3558 0.85074-0.522 1.2643-0.661 1.2543-0.4215 1.6225 0.68 2.9114 1.9282 1.0778 1.0437 1.3894 2.19 2.6806 2.6342 0.89827 0.309 1.5378 0.2782 2.3661-0.3635 0.29726-0.2629 0.52258-0.5548 0.77641-0.8696 0.95857-1.189-0.11019-2.7055-0.5979-4.2263-0.48416-1.5098-2.0432-3.0239-2.0893-4.2263-0.0397-1.0353 0.0557-1.8395 1.3754-2.2111 0.31711-0.1041 0.59762-0.1261 0.91236-0.078 1.378 0.2111 0.83922 1.768 0.93482 3.6692 0.0713 1.4181-0.79584 3.0278-0.57187 4.4134 0.26412 1.634 0.0619 2.9563 1.6598 3.2854 0.10165 0.021 0.18464 0.038 0.25656 0.051 1.4279 0.1878 1.8665-0.6281 2.6048-1.8501 0.70662-1.1697 0.32794-2.7116 0.80657-4.1015 0.59279-1.7215 0.39806-3.21 1.6132-3.4699 0.46068-0.099 0.85499-0.02 1.3395 0.2885 0.87134 0.5196 0.99956 1.2246 0.98843 2.0542-0.0156 1.1601-1.6702 2.5637-2.517 4.0442-0.75696 1.3235-2.3612 2.7084-2.5909 4.0358-0.18582 1.0741-0.38241 2.1106 0.19744 3.0463 0.17238 0.3354 0.37486 0.5731 0.66921 0.7285 1.3075 0.6901 2.5963-1.0753 3.84-2.304 1.1087-1.0953 2.1815-3.2533 3.1997-3.8701 0.9527-0.5771 1.8575-0.9032 2.6991 0.2933 0.21917 0.2543 0.36288 0.5078 0.44161 0.8256 0.38603 1.5581-0.78995 1.6527-2.2939 2.5412-1.231 0.7273-2.6816 0.6009-3.6753 1.6083-0.843 0.8547-1.3571 1.4566-1.1291 2.717 0.036 0.1598 0.0881 0.3269 0.15502 0.5276 0.50964 1.5287 1.8757 1.257 3.4762 1.4761 1.433 0.1962 3.054-0.7091 4.4164-0.6032 1.7963 0.1396 3.1431-0.2349 3.0172 1.5748-0.0119 0.1712-0.037 0.3137-0.0761 0.4466-0.33403 1.4526-1.4551 1.2033-2.9294 0.8598-1.2138-0.2829-2.667-1.8-4.1174-2.4313-1.4954-0.6508-2.9878-2.0717-4.2121-2.0987-1.0713-0.024-1.9372 0.049-2.42 0.9829-0.18598 0.3146-0.27365 0.6337-0.28024 1.0403-0.0234 1.4437 0.97549 1.7798 2.226 2.8181 1.1609 0.9638 2.5386 0.988 3.5166 1.8521 1.2832 1.1339 1.878 1.4556 0.39133 2.8962" fill="#f29100"/>
   <path d="m123.62 1649.5c-1.8896 1.831-2.7623 0.9437-3.9672-0.6377-1.0107-1.3265-1.5484-3.1414-2.7492-4.2498-1.0976-1.0131-2.1619-1.4358-3.7936-0.3559-0.18945 0.1394-0.37187 0.2864-0.55999 0.4404-1.5329 1.2552-1.4651 2.974-1.4372 4.7657 0.0284 1.8258 0.86111 3.7273 0.81014 5.2912-0.0577 1.7714-0.34926 3.1096-2.8142 3.4134-0.0145 0-0.0301 0-0.047 0.01-2.6163 0.2965-2.474-1.2639-2.1733-3.3707 0.23092-1.618 1.2148-3.5582 1.3199-5.2272 0.12035-1.9102-7e-3 -3.4652-2.2544-3.7751-0.0197 0-0.041-0.01-0.0641-0.01-2.0838-0.2563-3.0654 0.6998-4.1755 2.1003-1.0561 1.3323-1.438 3.067-2.3209 4.5426-1.0337 1.7279-1.7704 3.1007-3.5941 3.0574-0.47825-0.011-0.94649-0.1202-1.4561-0.3455-1.6022-0.669-1.7414-1.6339-1.3399-2.7871 0.4449-1.2777 2.1719-2.7865 3.3813-4.3798 1.1601-1.5282 2.6406-3.1342 2.7559-4.6887 0.06922-0.9327-0.082-1.8469-0.77027-2.7145-0.55548-0.7051-1.1264-1.0547-1.7878-1.1458-1.5344-0.2114-3.0862 1.3832-4.5932 2.7434-1.4296 1.2903-2.8187 3.1578-4.1143 3.7393-1.1624 0.5217-2.2494 0.5232-3.2228-0.981-0.28617-0.4153-0.47008-0.7965-0.56661-1.1842-0.47077-1.8912 1.137-2.3866 3.0997-3.2629 1.6065-0.7172 3.4508-0.9967 4.5876-2.1875 0.79534-0.833 1.2445-1.7423 1.0237-3.1169-0.08882-0.5317-0.26673-0.976-0.51714-1.3915-0.89105-1.4785-2.7002-1.4726-4.6801-1.6158-1.8125-0.1311-3.7681 0.3754-5.2937 0.073-1.7205-0.3408-2.8941-0.8958-2.6984-3.0258 0.01245-0.122 0.03006-0.244 0.05262-0.3704 0.37123-2.0794 2.0851-1.7124 4.2889-1.1523 1.5455 0.3928 3.332 1.4995 5.0651 1.9995 1.9378 0.559 3.809 1.293 5.2025 0.6861 0.68056-0.2964 1.2472-0.7242 1.652-1.4464 0.53307-0.9666 0.56066-1.7798 0.2594-2.6108-0.53158-1.4663-2.087-2.2024-3.696-3.2784-1.6532-1.1057-3.3629-1.7174-4.0763-2.9255-0.5295-0.8967-0.51012-1.7482 0.48863-2.8329 0.51729-0.5415 1.0209-0.8378 1.5172-1.0046 1.5052-0.5058 2.5278 0.816 4.0745 2.3138 1.2934 1.2525 2.2482 2.628 3.7975 3.161 1.0779 0.3709 2.0772 0.3339 3.2419-0.4361 0.4562-0.3155 0.80532-0.6658 1.1099-1.0436 1.1503-1.4268 0.44861-3.2465-0.13664-5.0715-0.58099-1.8117-1.871-3.6287-1.9263-5.0716-0.0476-1.2423 0.32673-2.2074 2.0824-2.6532 0.4657-0.125 0.86596-0.1514 1.2436-0.093 1.6536 0.2533 1.5879 2.1216 1.7026 4.403 0.0856 1.7017-0.37417 3.6334-0.1054 5.2961 0.31693 1.9607 0.65513 3.5475 2.5726 3.9425 0.12199 0.025 0.23739 0.045 0.35012 0.061 1.8471 0.2254 2.7784-0.7537 3.6643-2.2201 0.84796-1.4036 0.97437-3.2539 1.5487-4.9218 0.71135-2.0658 1.0585-3.852 2.5166-4.1638 0.55281-0.1182 1.1308-0.025 1.8328 0.3461 1.2089 0.6235 1.5549 1.4696 1.5416 2.4651-0.0187 1.3921-1.4234 3.0764-2.4395 4.8531-0.90836 1.5881-2.2526 3.2501-2.5282 4.8429-0.22299 1.289-0.20162 2.5327 0.66629 3.6555 0.29336 0.4025 0.6013 0.6878 0.95453 0.8742 1.569 0.8282 3.1156-0.7095 4.608-2.1839 1.3304-1.3144 2.6178-3.3231 3.8396-4.0633 1.1432-0.6925 2.229-0.8235 3.239 0.7844 0.263 0.3901 0.43546 0.7577 0.52994 1.1391 0.46323 1.8698-0.94794 2.5641-2.7526 3.6303-1.4771 0.8728-3.2179 1.3019-4.4103 2.5108-1.0116 1.0256-1.6285 2.078-1.3549 3.7531 0.0432 0.2447 0.10574 0.4804 0.18602 0.7212 0.61157 1.8345 2.2509 2.0893 4.1714 2.3523 1.7196 0.2354 3.6648-0.2702 5.2997-0.1431 2.1555 0.1676 3.7717 0.2989 3.6206 2.4706-0.0143 0.2054-0.0444 0.405-0.0914 0.6089-0.40084 1.8992-1.7462 1.9518-3.5153 1.5396-1.4565-0.3394-3.2004-1.5791-4.9409-2.3366-1.7944-0.781-3.5854-1.9053-5.0545-1.9377-1.2855-0.028-2.3246 0.2938-2.904 1.5861-0.22316 0.4751-0.32837 0.9347-0.33628 1.4226-0.0281 1.7324 1.1706 2.7166 2.6712 3.9625 1.3931 1.1566 3.0464 1.7664 4.2199 2.8034 1.5398 1.3606 2.2536 2.3275 0.46961 4.0562" fill="#f8ae00"/>
  </g>
  <path d="m52.441 88.246c-2.9976 2.9047-3.5071-5.4269-7.1207-3.1925-3.6849 2.2787 1.1326 7.9414-3.2277 8.4696-4.2758 0.518 1.5441-6.96-2.6777-7.5297-4.3051-0.581-3.831 7.2721-7.9079 5.6902-3.9979-1.5512 4.5381-5.7159 1.6296-8.871-2.9659-3.2175-6.2133 5.7225-8.4629 1.9618-2.206-3.6879 5.5681-2.5544 4.9588-6.6857-0.62133-4.2129-8.4029-0.2039-8.0303-4.4441 0.36534-4.1581 8.0153 2.7473 9.9006-1.0624 1.9225-3.885-6.9532-4.6724-4.2767-7.8974 2.6247-3.1626 4.6708 4.5784 8.3708 2.3643 3.773-2.2578-2.7067-7.438 1.4582-8.4265 4.0843-0.9692 0.18368 7.8024 4.3501 8.2857 4.2486 0.4929 2.8247-8.4766 6.6595-6.6727 3.7606 1.7689-3.6131 6.4804-0.83386 9.6299 2.8341 3.2117 5.5873-5.8282 7.7624-2.1005 2.1329 3.6555-5.5152 3.2348-4.8635 7.5016 0.66462 4.3509 8.8783 0.2243 8.0285 4.487-0.83336 4.1803-8.3722-3.756-9.9941 0.2036-1.6539 4.0378 7.3336 5.3268 4.2768 8.2888z" fill="#fc0" stroke="#000" stroke-linejoin="round" stroke-width="1.5004"/>
  <path d="m255.17 66.004h24.25v24.25h-24.25v-22.734z" fill="#d40000" stroke="#ededed" stroke-linejoin="round" stroke-width="2.3354"/>
  <g transform="matrix(.52187 0 0 .52187 16.891 -819.61)" stroke-linejoin="round">
   <path d="m401.09 1703.1c-0.31492 0.3051 1.9598 0.1573 1.759-0.1063-0.16845-0.2211 2.1621-0.5236 1.962-0.7083-0.18293-0.1689 1.0439-0.2393 1.4411-0.059 0.17776 0.023 0.28477 0.048 0.25342 0.073-0.25549 0.2092 2.176 0.4956 2.1806 0.7942 5e-3 0.3043 2.5637 0.6213 2.5552 0.8819-0.01 0.2953 2.0866 0.5183 1.9272 0.5689 0.0132 4e-4 0.0189 7e-4 0.0161 1e-3 -0.43605 0.049 2.0078-0.2106 2.058-0.5618 0.0385-0.2696 2.6226-0.593 2.6402-0.8712 0.0201-0.3183 2.0995-0.5775 2.012-0.6292 0.0178-5e-4 0.0256 0 0.0217 0-0.34731-0.043 1.9092 0.1167 1.7242 0.3501-0.17601 0.2221 2.1805 0.5112 2.0333 0.7571-0.17228 0.288 2.1251 0.5168 1.8212 0.5096-0.0797 0 0.17029-0.02 0.49989-0.058 0.44438-0.1115 1.3873-0.2723 1.4543-0.4645 0.0742-0.213 2.7821-0.4644 2.9837-0.73 0.19334-0.2547 2.8602-0.5224 2.8795-0.7815 0.0115-0.1554 0.69599-0.3078 1.232-0.4524 0.45841-0.1175 0.87202-0.1758 0.76178-0.1909-0.25573-0.035-0.51437 2.6507-0.76553 2.8774-0.23826 0.215-0.46978 2.9464-0.68572 3.0434-0.19373 0.087-0.37491 1.1434-0.53713 1.6096-0.0477 0.2991-0.0783 0.5143-0.0944 0.4496-0.0785-0.3151 0.1895 2.0225 0.51662 1.8764 0.26775-0.1195 0.57512 2.254 0.7646 2.0555 0.13256-0.1388 0.20741 0.6818 0.17062 1.1647-0.0148 0.3228-0.0444 0.5733-0.0862 0.5041-0.1485-0.2464-0.45002 2.1747-0.78001 2.1508-0.30208-0.022-0.62801 2.4828-0.88228 2.4324-0.28675-0.057-0.48234 1.5222-0.44974 1.732 2e-3 0.094 5e-3 0.1432 9e-3 0.1221 0.0619-0.3465 0.34753 2.1348 0.71482 2.2281 0.25758 0.066 0.55532 2.6701 0.84419 2.7535 0.32296 0.093 0.63483 2.6356 0.86708 2.5345 0.11343-0.049 0.20787 0.4011 0.27534 0.8398 0.0888 0.4837 0.0934 1.0426 0.0432 0.9041-0.0886-0.2444-0.34784 2.0531-0.616 1.8737-0.27553-0.1842-0.56048 2.134-0.67938 1.9326-0.0882-0.1494-0.085 0.5563 0.0814 1.0674 0.0862 0.3871 0.17015 0.741 0.25286 0.7132 0.25086-0.084-1.9989 0.136-1.7411 0.3856 0.21556 0.2088-2.0455 0.438-1.7872 0.5269 0.17965 0.062-0.61997 0.056-1.1373-0.073-0.3385-0.053-0.60835-0.111-0.55759-0.1739 0.19172-0.2378-2.3454-0.5411-2.4429-0.8453-0.0968-0.302-2.732-0.6048-2.7412-0.8453-8e-3 -0.207-1.0285-0.3679-1.453-0.4422-0.27725-0.021-0.47578-0.025-0.41284-0.016 0.27561 0.042-2.1555 0.3536-2.1364 0.7339 0.0143 0.2836-2.4825 0.6055-2.4377 0.8827 0.0528 0.3268-2.311 0.5912-1.9914 0.657 0.0203 0-0.0264 0.01-0.11765 0.01-0.24907 0.037-1.7811-0.1257-1.6334-0.3701 0.14132-0.2339-2.2578-0.5423-2.162-0.8203 0.11856-0.3443-2.2437-0.642-2.0007-0.6939 0.0921-0.02-0.24827 0-0.6337 0.058-0.47881 0.1039-1.2218 0.2449-1.2241 0.4108-3e-3 0.232-2.6574 0.5127-2.8267 0.8088-0.1514 0.2647-2.7956 0.5417-2.8415 0.8072-0.0372 0.2148-1.1056 0.4221-1.678 0.6093-0.31149 0.067-0.53091 0.1146-0.47204 0.1457 0.2615 0.138 0.51926-2.5385 0.768-2.7842 0.22174-0.2191 0.4363-2.974 0.63993-3.0974 0.19054-0.1154 0.37151-1.2218 0.53982-1.6709 0.0438-0.289 0.0726-0.4922 0.0883-0.4287 0.0772 0.3117-0.15799-1.9927-0.45878-1.815-0.24619 0.1455-0.53632-2.2032-0.73505-2.0017-0.1686 0.1709-0.27142-1.0292-0.22582-1.4271 7e-3 -0.1802 0.0176-0.2875 0.031-0.2473 0.10193 0.3057 0.37515-2.072 0.69524-2.0282 0.28661 0.039 0.6108-2.4652 0.88328-2.444 0.35926 0.028 0.62862-2.3703 0.60344-2.0084-2e-3 0.034-7e-3 -0.051-0.0152-0.2026-0.0668-0.3334-0.29103-1.7908-0.58589-1.8595-0.24276-0.056-0.53339-2.6833-0.82349-2.8096-0.29907-0.1301-0.59756-2.7376-0.84241-2.743-0.21425 0-0.38744-0.9322-0.484-1.4297-0.0372-0.3275-0.0547-0.5703-0.056-0.489-5e-3 0.2887 0.1951-1.9674 0.4452-1.7598 0.23217 0.1928 0.50772-2.1257 0.70331-1.9529 0.25664 0.2268 0.3756-2.0322 0.0783-1.7441" fill="#da1d00" stroke="#cbcbcb" stroke-width="4.2464"/>
   <path d="m345.6 1709.2c-0.62986 0.6104 1.0154 0.3146 0.61373-0.2125-0.33692-0.4422 1.42-1.0472 1.0197-1.4166-0.36586-0.3377 0.40275-0.4786 0.39418-0.1187 0.10432 0.046 0.15345 0.095 0.0907 0.1468-0.51098 0.4184 1.4478 0.9914 1.457 1.5886 9e-3 0.6086 2.2232 1.2424 2.2062 1.7637-0.0192 0.5905 1.5995 1.0366 0.97889 1.1378 8e-3 7e-4 9e-3 0 3e-3 0-0.87212 0.099 1.1115-0.4213 1.2117-1.1235 0.077-0.5394 2.3411-1.1861 2.3761-1.7424 0.0401-0.6368 1.6782-1.1551 1.1588-1.2584h5e-3c-0.69462-0.085 0.91431 0.2333 0.54429 0.7001-0.35203 0.4441 1.4568 1.0223 1.1625 1.5142-0.34456 0.576 1.346 1.0336 0.73811 1.0191-0.15942 0-0.0531-0.04 0.10868-0.1151 0.0351-0.223 0.7616-0.5447 0.89544-0.9291 0.1483-0.4259 2.6601-0.9288 3.0632-1.4599 0.38669-0.5094 2.8163-1.0447 2.8548-1.5629 0.0231-0.3109 0.54039-0.6156 0.83156-0.9048 0.25564-0.2351 0.47233-0.3516 0.25186-0.382-0.51146-0.07-1.0287 2.3972-1.531 2.8506-0.47652 0.4301-0.93958 2.9888-1.3714 3.1826-0.38746 0.1739-0.74981 1.0194-1.0743 1.0916-0.0954 0.1561-0.15669 0.252-0.18887 0.1228-0.15692-0.6304 0.37901 1.1406 1.0332 0.8485 0.5355-0.2391 1.1503 1.6038 1.5292 1.2069 0.26512-0.2777 0.41482 0.1969 0.34125 0.3084-0.0296 0.1519-0.0889 0.2634-0.17238 0.1249-0.29702-0.4928-0.90005 1.4453-1.56 1.3976-0.60415-0.044-1.256 2.0612-1.7646 1.9605-0.57351-0.1136-0.9647 1.0386-0.89948 0.7804 4e-3 0.051 0.01 0.066 0.0175 0.024 0.12374-0.6932 0.69504 1.3653 1.4296 1.552 0.51517 0.1309 1.1106 2.436 1.6884 2.6026 0.64593 0.1864 1.2697 2.3672 1.7342 2.1649 0.22685-0.099 0.41573 0.176 0.55066 0.3825 0.1777 0.1937 0.18689 0.4781 0.0865 0.2011-0.17719-0.4887-0.69568 1.202-1.232 0.8434-0.55108-0.3686-1.121 1.3636-1.3588 0.9609-0.1765-0.2989-0.17004 0.095 0.16288 0.2874 0.17243 0.2013 0.3403 0.4252 0.50572 0.3696 0.50172-0.1686-1.0935 0.272-0.57795 0.7713 0.43112 0.4175-1.1867 0.876-0.67028 1.0536 0.35931 0.1237-0.0805 0.1113-0.26143-0.1453-0.17956-0.1052-0.32562-0.222-0.22409-0.3479 0.38343-0.4756-1.7866-1.0822-1.9817-1.6905-0.19367-0.6039-2.5598-1.2096-2.5782-1.6905-0.0159-0.4141-0.75749-0.7358-0.7459-0.8844-0.12866-0.042-0.20743-0.051-0.0815-0.031 0.5512 0.084-1.4068 0.7072-1.3686 1.4677 0.0285 0.5672-2.0608 1.2111-1.9713 1.7653 0.10565 0.6536-1.7178 1.1825-1.0786 1.3142 0.0407 0.01 0.0264 0.015-0.0241 0.02 0.17016 0.075-0.86919-0.2512-0.5739-0.74 0.28265-0.4679-1.6113-1.0847-1.4199-1.6406 0.23712-0.6886-1.5833-1.284-1.0972-1.388 0.18427-0.039 0.0275-0.01-0.14041 0.1154-0.14127 0.2078-0.66649 0.4899-0.67094 0.8217-6e-3 0.464-2.4106 1.0255-2.7493 1.6177-0.30278 0.5294-2.687 1.0834-2.7789 1.6143-0.0743 0.4297-0.92477 0.8442-1.2091 1.2185-0.19052 0.1342-0.30447 0.2293-0.18672 0.2914 0.523 0.2761 1.0385-2.1726 1.536-2.6641 0.44349-0.4381 0.87261-3.0438 1.2799-3.2906 0.38109-0.2308 0.74302-1.1421 1.0797-1.1798 0.0877-0.1532 0.14515-0.2423 0.17664-0.1151 0.15441 0.6232-0.31598-1.0814-0.91755-0.726-0.49238 0.2909-1.0726-1.5022-1.4701-1.0992-0.3372 0.3419-0.54284-0.4078-0.45164-0.3911 0.0144-0.095 0.0352-0.1339 0.062-0.054 0.20386 0.6115 0.75029-1.2397 1.3905-1.152 0.57321 0.078 1.2216-2.0262 1.7666-1.9839 0.71851 0.056 1.2572-1.8365 1.2069-1.1126-5e-3 0.069-0.0148 0.04-0.0305-0.04-0.13362 0.1131-0.58206-1.0422-1.1718-1.1796-0.48551-0.1132-1.0668-2.4625-1.647-2.715-0.59814-0.2604-1.1951-2.5712-1.6848-2.582-0.42851-0.01-0.77487-0.687-0.968-0.8265-0.0744-0.1671-0.10946-0.2694-0.1121-0.1067-9e-3 0.5774 0.3902-1.0306 0.89039-0.6153 0.46436 0.3855 1.0154-1.3474 1.4066-1.0017 0.51328 0.4535 0.75121-1.1603 0.15654-0.5841" fill="#e03a00" stroke="#a9a9a9" stroke-width="4.0179"/>
   <path d="m290.1 1715.3c-0.94478 0.9155 0.0709 0.4719-0.5315-0.3188-0.50537-0.6633 0.6779-1.5708 0.0775-2.1249-0.54879-0.5066-0.23841-0.718-0.65278-0.178 0.0309 0.07 0.0221 0.1432-0.0719 0.2202-0.76647 0.6276 0.71954 1.487 0.73349 2.3828 0.0142 0.9129 1.8826 1.8637 1.8572 2.6456-0.0289 0.8858 1.1123 1.5548 0.0306 1.7067h-9e-3c-1.3082 0.1483 0.21511-0.6319 0.36546-1.6853 0.11547-0.809 2.0595-1.7791 2.1121-2.6136 0.0602-0.9551 1.257-1.7326 0.30546-1.8876h-0.0126c-1.0419-0.1281-0.0806 0.3499-0.63566 1.0502-0.52803 0.6662 0.73308 1.5335 0.29165 2.2713-0.51684 0.8639 0.56689 1.5504-0.34493 1.5287-0.23913-0.01-0.27643-0.06-0.28252-0.1727-0.37424-0.3345 0.13585-0.817 0.33661-1.3936 0.22245-0.6388 2.538-1.3932 3.1428-2.1899 0.58003-0.7641 2.7724-1.5671 2.83-2.3444 0.0346-0.4663 0.3848-0.9234 0.43111-1.3572 0.0529-0.3525 0.0726-0.5274-0.25807-0.5729-0.76719-0.1057-1.5431 2.1437-2.2966 2.8238-0.71478 0.6451-1.4094 3.031-2.0572 3.3218-0.58119 0.2608-1.1247 0.8953-1.6114 0.5734-0.14309 0.013-0.23504-0.01-0.28331-0.204-0.23538-0.9455 0.56851 0.2589 1.5499-0.1793 0.80325-0.3586 1.7254 0.9537 2.2938 0.3583 0.39766-0.4165 0.62222-0.2879 0.51186-0.5479-0.0444-0.019-0.13336-0.047-0.25857-0.2542-0.44552-0.7392-1.3501 0.7158-2.34 0.6442-0.90623-0.066-1.884 1.6398-2.6468 1.4887-0.86026-0.1704-1.447 0.555-1.3492-0.1711 6e-3 0.01 0.015-0.012 0.0263-0.075 0.18562-1.0397 1.0426 0.5959 2.1444 0.8759 0.77276 0.1964 1.666 2.2019 2.5326 2.4519 0.96889 0.2795 1.9045 2.0986 2.6013 1.7952 0.34028-0.1482 0.6236-0.049 0.826-0.075 0.26654-0.096 0.28033-0.086 0.1297-0.5019-0.26579-0.7331-1.0435 0.3509-1.848-0.1871-0.82661-0.5528-1.6815 0.5934-2.0382-0.011-0.26475-0.4484-0.25506-0.3656 0.24432-0.4928 0.25864 0.016 0.51045 0.1095 0.75858 0.026 0.75258-0.2529-0.18819 0.408 0.58518 1.1569 0.64667 0.6262-0.32802 1.314 0.44667 1.5805 0.53896 0.1854 0.4589 0.1669 0.61441-0.218-0.0206-0.1578-0.0429-0.3329 0.1094-0.5218 0.57515-0.7134-1.2278-1.6233-1.5204-2.5358-0.29049-0.9059-2.3876-1.8143-2.4153-2.5358-0.0238-0.6212-0.48643-1.1037-0.0388-1.3266 0.0199-0.062 0.0609-0.076 0.24976-0.047 0.82681 0.1267-0.65814 1.0608-0.60078 2.2015 0.0428 0.8509-1.6392 1.8167-1.5048 2.6481 0.15847 0.9804-1.1245 1.7738-0.1658 1.9712 0.061 0.013 0.0791 0.023 0.0694 0.03 0.58941 0.1126 0.0427-0.3769 0.48566-1.1101 0.42397-0.7018-0.96491-1.6269-0.67774-2.4609 0.35568-1.0329-0.92284-1.926-0.19377-2.0819 0.2764-0.059 0.30336-0.012 0.35288 0.1731 0.19626 0.3117-0.11114 0.7348-0.11782 1.2325-9e-3 0.6961-2.1638 1.5382-2.6719 2.4265-0.45418 0.7941-2.5784 1.6251-2.7162 2.4215-0.11149 0.6445-0.74398 1.2663-0.74027 1.8278-0.0695 0.2012-0.078 0.3439 0.0986 0.4371 0.7845 0.414 1.5578-1.8069 2.304-2.5441 0.66522-0.6572 1.3089-3.1137 1.9198-3.4837 0.57162-0.3463 1.1145-1.0625 1.6195-0.6888 0.1315-0.017 0.21773 0.01 0.26497 0.1984 0.23162 0.9349-0.47397-0.17-1.3763 0.3631-0.73857 0.4364-1.609-0.8011-2.2052-0.1967-0.50581 0.5128-0.81426 0.2137-0.67747 0.645 0.0216-0.01 0.0529 0.02 0.093 0.1401 0.30579 0.9172 1.1254-0.4075 2.0857-0.276 0.85982 0.1177 1.8324-1.5872 2.6498-1.5237 1.0778 0.084 1.8858-1.3026 1.8103-0.2168-7e-3 0.1028-0.0222 0.1312-0.0457 0.1221-0.20041 0.5595-0.87308-0.2938-1.7577-0.4999-0.72827-0.1697-1.6002-2.2417-2.4705-2.6204-0.89721-0.3905-1.7927-2.4047-2.5272-2.4209-0.64276-0.014-1.1623-0.4418-1.452-0.2234-0.11159-0.01-0.16419 0.032-0.16814 0.2756-0.014 0.8663 0.58529-0.094 1.3356 0.5292 0.69653 0.5783 1.5232-0.5689 2.1099-0.05 0.76992 0.6803 1.1268-0.2883 0.2348 0.576" fill="#e65700" stroke="#878787" stroke-width="3.7893"/>
   <path d="m234.61 1721.4c-1.2597 1.2207-0.87346 0.6291-1.6767-0.4251-0.67383-0.8844-0.0642-2.0943-0.86475-2.8333-0.73172-0.6753-0.87957-0.9572-1.6997-0.2372-0.0426 0.093-0.10921 0.1909-0.23462 0.2936-1.022 0.8368-9e-3 1.9826 0.01 3.1771 0.0189 1.2172 1.5421 2.4849 1.5082 3.5274-0.0385 1.181 0.62509 2.0731-0.91766 2.2757h-0.0218c-1.7442 0.1976-0.68126-0.8426-0.48079-2.2472 0.15396-1.0786 1.7779-2.3721 1.848-3.4848 0.0802-1.2735 0.83573-2.3101-0.54783-2.5167-5e-3 0-0.0144 0-0.0298-0.01-1.3892-0.1709-1.0756 0.4665-1.8156 1.4002-0.70405 0.8882 9e-3 2.0446-0.57919 3.0284-0.68914 1.1519-0.21222 2.0672-1.428 2.0383-0.31883-0.01-0.49977-0.08-0.67371-0.2304-0.78356-0.446-0.4899-1.0892-0.22222-1.858 0.2966-0.8518 2.416-1.8577 3.2223-2.9199 0.77337-1.0188 2.7284-2.0895 2.8054-3.1258 0.0461-0.6218 0.22919-1.2312 0.0307-1.8097-0.14993-0.47-0.32706-0.7031-0.768-0.7638-1.0229-0.141-2.0575 1.8902-3.0621 2.7969-0.95303 0.8602-1.8792 3.0733-2.7429 3.461-0.77492 0.3478-1.4996 0.7713-2.1485 0.055-0.19078-0.1296-0.31339-0.2722-0.37774-0.5307-0.31385-1.2608 0.75801-0.623 2.0665-1.2072 1.071-0.4781 2.3005 0.3035 3.0584-0.4903 0.53022-0.5554 0.82963-0.7727 0.68248-1.4043-0.0592-0.1899-0.17781-0.3562-0.34475-0.6332-0.59404-0.9857-1.8001-0.014-3.12-0.1092-1.2083-0.087-2.5121 1.2183-3.5291 1.0169-1.147-0.2272-1.9294 0.071-1.799-1.1227 8e-3 -0.035 0.02-0.089 0.0351-0.1734 0.24749-1.3862 1.3901-0.1735 2.8592 0.1999 1.0303 0.2619 2.2213 1.9678 3.3768 2.3011 1.2918 0.3726 2.5393 1.83 3.4684 1.4255 0.45371-0.1976 0.83146-0.2741 1.1013-0.532 0.35538-0.3865 0.37377-0.6509 0.17293-1.2048-0.35438-0.9775-1.3914-0.5002-2.464-1.2176-1.1022-0.7371-2.2419-0.1768-2.7175-0.9822-0.353-0.5978-0.34007-0.8264 0.32576-1.2728 0.34486-0.1701 0.6806-0.2063 1.0114-0.3175 1.0034-0.3372 0.71716 0.544 1.7483 1.5425 0.86224 0.835 0.53071 1.7521 1.5636 2.1074 0.71861 0.2472 0.99833 0.2226 1.4902-0.2908 0.13831-0.2103 0.23985-0.4438 0.44291-0.6957 0.76686-0.9512-0.66899-2.1643-1.0592-3.381-0.38733-1.2078-2.2154-2.4191-2.2523-3.3811-0.0318-0.8282-0.21538-1.4716 0.66826-1.7688 0.16853-0.083 0.32927-0.1009 0.58106-0.062 1.1024 0.1689 0.0905 1.4144 0.16703 2.9353 0.0571 1.1345-1.2175 2.4223-1.0383 3.5308 0.2113 1.3071-0.5313 2.365 0.74699 2.6283 0.0813 0.017 0.13189 0.03 0.16301 0.04 1.0086 0.1503 0.95462-0.5024 1.5452-1.4801 0.5653-0.9357-0.31848-2.1692 0.0644-3.2812 0.47423-1.3772-0.26239-2.5679 0.70969-2.7758 0.36854-0.079 0.57918-0.016 0.84618 0.2307 0.5338 0.4157 0.44421 0.9797 0.43531 1.6434-0.0125 0.9281-1.917 2.051-2.5944 3.2354-0.60557 1.0588-2.4698 2.1667-2.6535 3.2286-0.14866 0.8593-0.56319 1.6885-0.27142 2.437 0.0514 0.2683 0.14842 0.4585 0.3839 0.5828 1.046 0.5521 2.0771-1.4411 3.072-2.424 0.88696-0.8763 1.7452-3.1835 2.5597-3.6769 0.76216-0.4617 1.486-0.9829 2.1593-0.1977 0.17533 0.1184 0.2903 0.2577 0.35329 0.5119 0.30882 1.2466-0.63197 0.7414-1.8351 1.4522-0.98476 0.5819-2.1453-0.1001-2.9402 0.7058-0.6744 0.6837-1.0857 0.8351-0.90328 1.681 0.0288 0.075 0.0705 0.1733 0.12402 0.3338 0.40771 1.223 1.5006 0.4248 2.781 0.6001 1.1464 0.157 2.4432-1.1482 3.5331-1.0634 1.437 0.1117 2.5145-0.7688 2.4137 0.679-0.01 0.1369-0.0296 0.2224-0.0609 0.2843-0.26722 1.0061-1.1641 0.4547-2.3436 0.1799-0.97103-0.2262-2.1336-2.0208-3.294-2.5258-1.1963-0.5206-2.3902-2.2382-3.3696-2.2598-0.85701-0.019-1.5498-0.1966-1.936 0.3798-0.14878 0.154-0.21892 0.3326-0.22419 0.6579-0.0187 1.155 0.78039 0.843 1.7808 1.6736 0.92872 0.7711 2.0309 0.2096 2.8132 0.9009 1.0266 0.9071 1.5024 0.5836 0.31307 1.7361" fill="#ec7400" stroke="#656565" stroke-width="3.5607"/>
   <path d="m179.11 1727.4c-1.5746 1.5258-1.8179 0.7864-2.822-0.5314-0.84229-1.1055-0.8063-2.6179-1.807-3.5416-0.91466-0.8442-1.5207-1.1965-2.7467-0.2965-0.11601 0.1161-0.24054 0.2386-0.39731 0.367-1.2774 1.0459-0.73689 2.4782-0.71364 3.9713 0.0237 1.5215 1.2016 3.1062 1.1592 4.4094-0.0481 1.4762 0.13792 2.5913-1.8659 2.8445-9e-3 0-0.0203 0-0.0344 0.01-2.1803 0.2471-1.5776-1.0532-1.327-2.809 0.19243-1.3483 1.4964-2.9651 1.584-4.356 0.10029-1.5918 0.41449-2.8876-1.4011-3.1459-0.0122 0-0.0277-0.01-0.047-0.01-1.7365-0.2135-2.0705 0.5832-2.9956 1.7503-0.88006 1.1103-0.71433 2.5558-1.45 3.7855-0.86142 1.4399-0.99132 2.584-2.511 2.5478-0.39854-0.01-0.72313-0.1001-1.0649-0.2879-1.1929-0.5575-1.1156-1.3616-0.78105-2.3225 0.37075-1.0648 2.2939-2.3221 3.3018-3.6499 0.96671-1.2735 2.6845-2.6119 2.7806-3.9073 0.0577-0.7772 0.0736-1.539-0.36981-2.2621-0.3527-0.5875-0.72674-0.8789-1.2779-0.9548-1.2786-0.1761-2.5718 1.6367-3.8276 2.7702-1.1913 1.0753-2.3489 3.1156-3.4286 3.6002-0.96865 0.4347-1.8745 0.6472-2.6856-0.4629-0.23847-0.2724-0.39173-0.5344-0.47218-0.8575-0.3923-1.5759 0.94752-1.5047 2.5831-2.235 1.3388-0.5977 2.8756-0.3466 3.823-1.3389 0.66278-0.6942 1.037-1.2575 0.85311-2.2606-0.074-0.3608-0.22227-0.6661-0.43095-1.0124-0.74254-1.232-2.2501-0.7431-3.9001-0.8625-1.5104-0.1092-3.1401 0.7969-4.4114 0.5451-1.4338-0.284-2.4117-0.4122-2.2487-2.0742 0.0104-0.079 0.0251-0.1666 0.0439-0.272 0.30936-1.7327 1.7376-0.9429 3.5741-0.4762 1.2879 0.3274 2.7766 1.7337 4.221 2.1503 1.6148 0.4659 3.1742 1.5616 4.3354 1.0558 0.56714-0.2469 1.0393-0.4991 1.3767-0.9891 0.44422-0.6766 0.46722-1.2154 0.21617-1.9079-0.44299-1.2219-1.7392-1.3513-3.08-2.248-1.3777-0.9213-2.8024-0.947-3.3969-1.9538-0.44124-0.7473-0.42509-1.2873 0.4072-2.0529 0.43107-0.3558 0.85074-0.522 1.2643-0.661 1.2543-0.4215 1.6225 0.68 2.9114 1.9282 1.0778 1.0437 1.3894 2.19 2.6806 2.6342 0.89827 0.309 1.5378 0.2782 2.3661-0.3635 0.29726-0.2629 0.52258-0.5548 0.77641-0.8696 0.95857-1.189-0.11019-2.7055-0.5979-4.2263-0.48416-1.5098-2.0432-3.0239-2.0893-4.2263-0.0397-1.0353 0.0557-1.8395 1.3754-2.2111 0.31711-0.1041 0.59762-0.1261 0.91236-0.078 1.378 0.2111 0.83922 1.768 0.93482 3.6692 0.0713 1.4181-0.79584 3.0278-0.57187 4.4134 0.26412 1.634 0.0619 2.9563 1.6598 3.2854 0.10165 0.021 0.18464 0.038 0.25656 0.051 1.4279 0.1878 1.8665-0.6281 2.6048-1.8501 0.70662-1.1697 0.32794-2.7116 0.80657-4.1015 0.59279-1.7215 0.39806-3.21 1.6132-3.4699 0.46068-0.099 0.85499-0.02 1.3395 0.2885 0.87134 0.5196 0.99956 1.2246 0.98843 2.0542-0.0156 1.1601-1.6702 2.5637-2.517 4.0442-0.75696 1.3235-2.3612 2.7084-2.5909 4.0358-0.18582 1.0741-0.38241 2.1106 0.19744 3.0463 0.17238 0.3354 0.37486 0.5731 0.66921 0.7285 1.3075 0.6901 2.5963-1.0753 3.84-2.304 1.1087-1.0953 2.1815-3.2533 3.1997-3.8701 0.9527-0.5771 1.8575-0.9032 2.6991 0.2933 0.21917 0.2543 0.36288 0.5078 0.44161 0.8256 0.38603 1.5581-0.78995 1.6527-2.2939 2.5412-1.231 0.7273-2.6816 0.6009-3.6753 1.6083-0.843 0.8547-1.3571 1.4566-1.1291 2.717 0.036 0.1598 0.0881 0.3269 0.15502 0.5276 0.50964 1.5287 1.8757 1.257 3.4762 1.4761 1.433 0.1962 3.054-0.7091 4.4164-0.6032 1.7963 0.1396 3.1431-0.2349 3.0172 1.5748-0.0119 0.1712-0.037 0.3137-0.0761 0.4466-0.33403 1.4526-1.4551 1.2033-2.9294 0.8598-1.2138-0.2829-2.667-1.8-4.1174-2.4313-1.4954-0.6508-2.9878-2.0717-4.2121-2.0987-1.0713-0.024-1.9372 0.049-2.42 0.9829-0.18598 0.3146-0.27365 0.6337-0.28024 1.0403-0.0234 1.4437 0.97549 1.7798 2.226 2.8181 1.1609 0.9638 2.5386 0.988 3.5166 1.8521 1.2832 1.1339 1.878 1.4556 0.39133 2.8962" fill="#f29100" stroke="#434343" stroke-width="3.3321"/>
   <path d="m123.62 1733.5c-1.8896 1.831-2.7623 0.9437-3.9672-0.6377-1.0107-1.3265-1.5484-3.1414-2.7492-4.2498-1.0976-1.0131-2.1619-1.4358-3.7936-0.3559-0.18945 0.1394-0.37187 0.2864-0.55999 0.4404-1.5329 1.2552-1.4651 2.974-1.4372 4.7657 0.0284 1.8258 0.86111 3.7273 0.81014 5.2912-0.0577 1.7714-0.34926 3.1096-2.8142 3.4134-0.0145 0-0.0301 0-0.047 0.01-2.6163 0.2965-2.474-1.2639-2.1733-3.3707 0.23092-1.618 1.2148-3.5582 1.3199-5.2272 0.12035-1.9102-7e-3 -3.4652-2.2544-3.7751-0.0197 0-0.041-0.01-0.0641-0.01-2.0838-0.2563-3.0654 0.6998-4.1755 2.1003-1.0561 1.3323-1.438 3.067-2.3209 4.5426-1.0337 1.7279-1.7704 3.1007-3.5941 3.0574-0.47825-0.011-0.94649-0.1202-1.4561-0.3455-1.6022-0.669-1.7414-1.6339-1.3399-2.7871 0.4449-1.2777 2.1719-2.7865 3.3813-4.3798 1.1601-1.5282 2.6406-3.1342 2.7559-4.6887 0.06922-0.9327-0.082-1.8469-0.77027-2.7145-0.55548-0.7051-1.1264-1.0547-1.7878-1.1458-1.5344-0.2114-3.0862 1.3832-4.5932 2.7434-1.4296 1.2903-2.8187 3.1578-4.1143 3.7393-1.1624 0.5217-2.2494 0.5232-3.2228-0.981-0.28617-0.4153-0.47008-0.7965-0.56661-1.1842-0.47077-1.8912 1.137-2.3866 3.0997-3.2629 1.6065-0.7172 3.4508-0.9967 4.5876-2.1875 0.79534-0.833 1.2445-1.7423 1.0237-3.1169-0.08882-0.5317-0.26673-0.976-0.51714-1.3915-0.89105-1.4785-2.7002-1.4726-4.6801-1.6158-1.8125-0.1311-3.7681 0.3754-5.2937 0.073-1.7205-0.3408-2.8941-0.8958-2.6984-3.0258 0.01245-0.122 0.03006-0.244 0.05262-0.3704 0.37123-2.0794 2.0851-1.7124 4.2889-1.1523 1.5455 0.3928 3.332 1.4995 5.0651 1.9995 1.9378 0.559 3.809 1.293 5.2025 0.6861 0.68056-0.2964 1.2472-0.7242 1.652-1.4464 0.53307-0.9666 0.56066-1.7798 0.2594-2.6108-0.53158-1.4663-2.087-2.2024-3.696-3.2784-1.6532-1.1057-3.3629-1.7174-4.0763-2.9255-0.5295-0.8967-0.51012-1.7482 0.48863-2.8329 0.51729-0.5415 1.0209-0.8378 1.5172-1.0046 1.5052-0.5058 2.5278 0.816 4.0745 2.3138 1.2934 1.2525 2.2482 2.628 3.7975 3.161 1.0779 0.3709 2.0772 0.3339 3.2419-0.4361 0.4562-0.3155 0.80532-0.6658 1.1099-1.0436 1.1503-1.4268 0.44861-3.2465-0.13664-5.0715-0.58099-1.8117-1.871-3.6287-1.9263-5.0716-0.0476-1.2423 0.32673-2.2074 2.0824-2.6532 0.4657-0.125 0.86596-0.1514 1.2436-0.093 1.6536 0.2533 1.5879 2.1216 1.7026 4.403 0.0856 1.7017-0.37417 3.6334-0.1054 5.2961 0.31693 1.9607 0.65513 3.5475 2.5726 3.9425 0.12199 0.025 0.23739 0.045 0.35012 0.061 1.8471 0.2254 2.7784-0.7537 3.6643-2.2201 0.84796-1.4036 0.97437-3.2539 1.5487-4.9218 0.71135-2.0658 1.0585-3.852 2.5166-4.1638 0.55281-0.1182 1.1308-0.025 1.8328 0.3461 1.2089 0.6235 1.5549 1.4696 1.5416 2.4651-0.0187 1.3921-1.4234 3.0764-2.4395 4.8531-0.90836 1.5881-2.2526 3.2501-2.5282 4.8429-0.22299 1.289-0.20162 2.5327 0.66629 3.6555 0.29336 0.4025 0.6013 0.6878 0.95453 0.8742 1.569 0.8282 3.1156-0.7095 4.608-2.1839 1.3304-1.3144 2.6178-3.3231 3.8396-4.0633 1.1432-0.6925 2.229-0.8235 3.239 0.7844 0.263 0.3901 0.43546 0.7577 0.52994 1.1391 0.46323 1.8698-0.94794 2.5641-2.7526 3.6303-1.4771 0.8728-3.2179 1.3019-4.4103 2.5108-1.0116 1.0256-1.6285 2.078-1.3549 3.7531 0.0432 0.2447 0.10574 0.4804 0.18602 0.7212 0.61157 1.8345 2.2509 2.0893 4.1714 2.3523 1.7196 0.2354 3.6648-0.2702 5.2997-0.1431 2.1555 0.1676 3.7717 0.2989 3.6206 2.4706-0.0143 0.2054-0.0444 0.405-0.0914 0.6089-0.40084 1.8992-1.7462 1.9518-3.5153 1.5396-1.4565-0.3394-3.2004-1.5791-4.9409-2.3366-1.7944-0.781-3.5854-1.9053-5.0545-1.9377-1.2855-0.028-2.3246 0.2938-2.904 1.5861-0.22316 0.4751-0.32837 0.9347-0.33628 1.4226-0.0281 1.7324 1.1706 2.7166 2.6712 3.9625 1.3931 1.1566 3.0464 1.7664 4.2199 2.8034 1.5398 1.3606 2.2536 2.3275 0.46961 4.0562" fill="#f8ae00" stroke="#212121" stroke-width="3.1036"/>
  </g>
 </g>
</svg>
