<?xml version="1.0" encoding="UTF-8"?>
<svg width="300" height="41" version="1.1" viewBox="0 0 300 41" xmlns="http://www.w3.org/2000/svg">
 <g transform="translate(-9.2781 -16.358)" fill="#0cf" stroke="#2e75ac" stroke-linejoin="round">
  <path d="m39.568 18.382c10.119 0 18.266 8.1464 18.266 18.266 0 10.119-8.1464 18.265-18.266 18.265-10.119 0-18.266-8.1464-18.266-18.265 0-10.119 8.1464-18.266 18.266-18.266z" stroke-width="4.0482"/>
  <path d="m282.98 25.689-18.266 29.225-18.266-29.225z" stroke-width="4.0482"/>
  <g transform="matrix(.52187 0 0 .52187 10.865 -181.24)" stroke-width="7.757">
   <path d="m121.63 384.51c16.62 0 25 21.38 25 38 0 16.62-18.38 22-35 22-16.62 0-27.5-13.38-25-30 2.5-16.62 18.38-30 35-30"/>
   <path d="m188.27 386.51c13.85 0 15 27.15 15 41 0 13.85-21.15 9-35 9s-20-11.15-15-25c5-13.85 21.15-25 35-25"/>
   <path d="m254.9 388.51c11.08 0 5 32.92 5 44 0 11.08-23.92-4-35-4s-12.5-8.92-5-20c7.5-11.08 23.92-20 35-20"/>
   <path d="m321.53 390.51c8.31 0-5 38.69-5 47s-26.69-17-35-17-5-6.69 5-15 26.69-15 35-15"/>
   <path d="m388.16 392.51c5.54 0-15 44.46-15 50s-29.46-30-35-30 2.5-4.46 15-10 29.46-10 35-10"/>
   <path d="m454.8 394.51c2.77 0-25 50.23-25 53s-32.23-43-35-43 10-2.23 25-5 32.23-5 35-5"/>
  </g>
 </g>
</svg>
