<?xml version="1.0" encoding="UTF-8"?>
<svg width="300" height="117" version="1.1" viewBox="0 0 300 117" xmlns="http://www.w3.org/2000/svg">
 <g transform="translate(11.084 -19.386)" fill="none" stroke-width="5.5">
  <path d="m20 132.36 75-32.857 85.714 33.571 77.143-32.857" stroke="#35b8ff"/>
  <path d="m20 55.219 75-32.857 85.714 33.571 77.143-32.857" stroke="#ffed35"/>
  <path d="m20 59.757 75-32.857 85.714 33.571 77.143-32.857" stroke="#f3e940"/>
  <path d="m20 64.295 75-32.857 85.714 33.571 77.143-32.857" stroke="#e7e64c"/>
  <path d="m20 68.833 75-32.857 85.714 33.571 77.143-32.857" stroke="#dbe358"/>
  <path d="m20 73.371 75-32.857 85.714 33.571 77.143-32.857" stroke="#cfe064"/>
  <path d="m20 77.908 75-32.857 85.714 33.571 77.143-32.857" stroke="#c3dd70"/>
  <path d="m20 82.446 75-32.857 85.714 33.571 77.143-32.857" stroke="#b7da7c"/>
  <path d="m20 86.984 75-32.857 85.714 33.571 77.143-32.857" stroke="#abd788"/>
  <path d="m20 91.522 75-32.857 85.714 33.571 77.143-32.857" stroke="#9fd494"/>
  <path d="m20 96.06 75-32.857 85.714 33.571 77.143-32.857" stroke="#94d09f"/>
  <path d="m20 100.6 75-32.857 85.714 33.571 77.143-32.857" stroke="#88cdab"/>
  <path d="m20 105.14 75-32.857 85.714 33.571 77.143-32.857" stroke="#7ccab7"/>
  <path d="m20 109.67 75-32.857 85.714 33.571 77.143-32.857" stroke="#70c7c3"/>
  <path d="m20 114.21 75-32.857 85.714 33.571 77.143-32.857" stroke="#64c4cf"/>
  <path d="m20 118.75 75-32.857 85.714 33.571 77.143-32.857" stroke="#58c1db"/>
  <path d="m20 123.29 75-32.857 85.714 33.571 77.143-32.857" stroke="#4cbee7"/>
  <path d="m20 127.82 75-32.857 85.714 33.571 77.143-32.857" stroke="#40bbf3"/>
 </g>
</svg>
