<?xml version="1.0" encoding="UTF-8"?>
<svg width="300" height="42" version="1.1" viewBox="0 0 300 42" xmlns="http://www.w3.org/2000/svg">
 <g transform="translate(10 .31857)">
  <g>
   <path d="m20.356 2.0242c10.119 0 18.266 8.1464 18.266 18.265 0 10.119-8.1464 18.266-18.266 18.266-10.119 0-18.266-8.1464-18.266-18.266 0-10.119 8.1464-18.265 18.266-18.265z" fill="#0cf" stroke="#2e75ac" stroke-linejoin="round" stroke-width="4.0482"/>
   <path d="m227.24 9.3304 18.266 29.225 18.266-29.225z" fill="#0cf" stroke="#2e75ac" stroke-linejoin="round" stroke-width="4.0482"/>
   <rect transform="rotate(135.48)" x="-14.706" y="-16.999" width="2.9821" height="2.9821" fill="#0f0"/>
   <rect transform="rotate(135.48)" x="-14.373" y="-44.028" width="2.9821" height="2.9821" fill="#ccc"/>
   <rect transform="rotate(135.48)" x="10.793" y="-43.679" width="2.9821" height="2.9821" fill="#ccc"/>
   <rect transform="rotate(135.48)" x="11.568" y="-17.777" width="2.9821" height="2.9821" fill="#ccc"/>
   <rect transform="matrix(.71298 .70119 .70119 -.71298 0 0)" x="192.27" y="175.46" width="2.9821" height="2.9821" fill="#ccc"/>
   <rect transform="matrix(.71298 .70119 .70119 -.71298 0 0)" x="168.02" y="151.62" width="2.9821" height="2.9821" fill="#0f0"/>
   <rect transform="matrix(.71298 .70119 .70119 -.71298 0 0)" x="199.83" y="143.71" width="2.9821" height="2.9821" fill="#ccc"/>
  </g>
 </g>
</svg>
