<?xml version="1.0" encoding="UTF-8"?>
<svg width="300" height="68" version="1.1" viewBox="0 0 300 68" xmlns="http://www.w3.org/2000/svg">
 <g transform="translate(10.004)">
  <path d="m247.6 27.441h-10.653l-5.3267-9.2261 5.3267-9.2261h10.653l5.3267 9.2261z" fill="#0f0" stroke="#17a500" stroke-linejoin="round" stroke-width=".86884"/>
  <path d="m22.999 28.619s-3.4902-3.2745-3.621-3.2745c-0.06542 0-0.78972 4.8295-0.8715 4.8295-0.08177 0-2.3935-4.1658-2.4807-4.1658s-2.2831 4.3929-2.3649 4.3929c-0.08177 0-0.98642-4.6493-1.0518-4.6493-0.13084 0-3.581 3.5263-3.581 3.5263s0.60532-4.7533 0.5399-4.8666c-0.032709-0.0566-4.3589 2.1917-4.3998 2.1209s1.9782-4.3946 1.9346-4.4701c-0.043615-0.0756-4.8806 0.725-4.9215 0.6542s3.1954-3.5399 3.1627-3.5965c-0.065419-0.1133-4.9385-0.8368-4.9385-0.8368s4.2094-2.3001 4.2748-2.4134c0.032709-0.0567-4.322-2.2314-4.2811-2.3022 0.020444-0.0355 4.6909-0.9004 4.7124-0.9375 0.021466-0.0372-3.483-3.4379-3.4612-3.4757 0.021806-0.0378 4.7213 0.5734 4.7428 0.5362 0.021467-0.0372-2.2719-4.3618-2.2514-4.3972 0.040887-0.0708 4.3273 1.9258 4.36 1.8691 0.065418-0.1133-0.7671-4.9822-0.7671-4.9822s3.4902 3.2745 3.621 3.2745c0.06542 0 0.78972-4.8295 0.87149-4.8295 0.08178 0 2.3935 4.1658 2.4807 4.1658s2.2831-4.3929 2.3649-4.3929c0.08178 0 0.98643 4.6493 1.0518 4.6493 0.13084 0 3.581-3.5263 3.581-3.5263s-0.60532 4.7534-0.5399 4.8667c0.03271 0.0566 4.3589-2.1918 4.3998-2.121 0.04089 0.0709-1.9782 4.3946-1.9346 4.4702 0.02181 0.0377 4.837-0.8006 4.8584-0.7634 0.02146 0.0372-3.2319 3.4767-3.2115 3.5121 0.04089 0.0708 4.9086 0.7849 4.9413 0.8415 0.06542 0.1133-4.0568 2.4134-4.0568 2.4134s4.3493 2.1842 4.2839 2.2975c-0.03271 0.0567-4.7202 0.9511-4.7611 1.0219-0.02044 0.0354 3.4847 3.4349 3.4632 3.4721s-4.721-0.5739-4.7428-0.5362c-0.04361 0.0755 2.2273 4.4391 2.1864 4.5099-0.04089 0.0709-4.3273-1.9257-4.36-1.8691-0.06541 0.1134 0.76711 4.9822 0.76711 4.9822" fill="#0f0" stroke="#17a500" stroke-linejoin="round" stroke-width=".79675"/>
  <g transform="matrix(.52187 0 0 .52187 -9.2175 -573.47)" fill="#0f0" stroke="#17a500" stroke-linejoin="round" stroke-width="1.6649">
   <path d="m430.62 1151.8s-1.9994-0.8964-3.6131-0.8964c-0.78908 0-1.886 1.322-2.8752 1.322-0.85275 0-2.3661-1.1403-3.283-1.1403-0.91711 0-2.4239 1.2025-3.3267 1.2025-0.91481 0-2.0289-1.2727-2.8478-1.2727-1.0738 0-2.9465 0.9653-3.6795 0.9653-1.0478 0-1.636-0.4764-1.592-0.8596 0.0287-0.25-0.12097-0.7569-0.42257-1.2793-0.32439-0.5618-1.9655-0.7377-2.5162-1.6915-0.40987-0.7099-0.30095-2.6621-0.77802-3.4884-0.44423-0.7694-2.219-1.331-2.6804-2.13-0.44638-0.7731 5e-3 -2.4755-0.42082-3.2129-0.49887-0.8641-2.2901-1.8541-2.6971-2.5592-0.55483-0.9609 0.13587-2.3901-0.1475-2.9429-0.23915-0.4253-0.528-0.745-0.72188-0.8459-0.34856-0.1815-0.48198-1.0487 0.0939-2.0461 0.36328-0.6292 2.0835-1.6311 2.5794-2.49 0.41781-0.7237-0.0954-2.4272 0.36946-3.2324 0.42753-0.7405 2.1464-1.3222 2.5791-2.0716 0.46079-0.7981 0.28155-2.7588 0.70936-3.4998 0.47683-0.8259 2.0838-1.0304 2.4676-1.6952 0.82025-1.4207 1.1556-3.5119 1.1298-3.6634-2e-3 -0.011 8e-3 -0.016 0.0293-0.016 0.18778 0 2.1428 0.8964 3.6126 0.8964 0.79027 0 1.8869-1.322 2.8746-1.322 0.85327 0 2.3666 1.1403 3.283 1.1403 0.91769 0 2.4246-1.2025 3.3271-1.2025 0.91573 0 2.0302 1.2727 2.8488 1.2727 1.0757 0 2.9485-0.9653 3.6788-0.9653 1.0293 0 1.6062 0.4631 1.5624 0.8433-0.0296 0.2572 0.12528 0.7839 0.43701 1.3239 0.32691 0.5662 1.9676 0.7412 2.516 1.6911 0.41039 0.7108 0.30153 2.6632 0.77831 3.489 0.4344 0.7524 2.1988 1.2959 2.6503 2.0779 0.4379 0.7585-0.0213 2.4472 0.39826 3.1739 0.49207 0.8523 2.2818 1.8398 2.6981 2.5607 0.54249 0.9396-0.14431 2.3341 0.15782 2.8574 0.27616 0.4784 0.6143 0.8445 0.83203 0.9562 0.34458 0.1767 0.45367 0.9866-0.0944 1.9359-0.36714 0.636-2.0989 1.6578-2.6105 2.544-0.41648 0.7213 0.0972 2.4241-0.36794 3.2297-0.42715 0.7399-2.1462 1.3219-2.5797 2.0727-0.47341 0.82-0.30724 2.8033-0.74712 3.5652-0.47647 0.8253-2.0836 1.03-2.4682 1.6961-0.83035 1.4382-1.1431 3.7074-1.1431 3.7074"/>
   <path d="m369.14 1152.1s-2.7808-1.7927-4.1674-1.7927c-0.67845 0-1.8239 2.6441-2.6743 2.6441-0.73674 0-2.7362-2.2807-3.528-2.2807-0.79212 0-2.7491 2.405-3.5275 2.405-0.78845 0-2.0058-2.5454-2.7091-2.5454-0.93661 0-3.5991 1.9306-4.2099 1.9306-0.87317 0-1.2925-0.9529-1.2046-1.7192 0.0574-0.5-0.0422-1.1678-0.30177-1.6174-0.28077-0.4863-3.03 0.085-3.502-0.7323-0.35461-0.6142 0.38097-3.6219-0.0305-4.3346-0.38412-0.6653-3.4079-0.8776-3.8054-1.566-0.38504-0.6669 1.0246-3.1935 0.65938-3.8261-0.43662-0.7562-3.4856-1.8123-3.8248-2.3998-0.46236-0.8009 1.4576-2.7263 1.2423-3.2232-0.19556-0.3609-0.61154-0.7202-0.9993-0.9221-0.69712-0.3628-1.3796-1.3775-0.89127-2.2232 0.30925-0.5357 3.2343-1.6468 3.6544-2.3744 0.35504-0.6149-1.1919-3.1206-0.79749-3.8036 0.36324-0.6292 3.2965-0.9188 3.6639-1.5551 0.39085-0.677-0.49094-3.6921-0.12789-4.3209 0.41041-0.7108 3.1185-0.2436 3.4488-0.8157 0.70307-1.2177 0.75131-4.3222 0.69969-4.6251-4e-3 -0.021 4e-3 -0.032 0.0212-0.032 0.15648 0 2.9003 1.7927 4.1669 1.7927 0.67945 0 1.8246-2.6441 2.6738-2.6441 0.73717 0 2.7366 2.2807 3.528 2.2807 0.79259 0 2.7496-2.405 3.5278-2.405 0.78923 0 2.0068 2.5454 2.7099 2.5454 0.93817 0 3.6007-1.9305 4.2093-1.9305 0.85775 0 1.2697 0.9261 1.1822 1.6865-0.0592 0.5143 0.0434 1.2091 0.31162 1.6736 0.28288 0.49 3.0317-0.082 3.5018 0.7319 0.35505 0.615-0.38048 3.6228 0.0308 4.3351 0.36897 0.6391 3.3771 0.8243 3.7602 1.4878 0.37177 0.644-1.0499 3.1497-0.69374 3.7666 0.42312 0.7328 3.4691 1.7838 3.8264 2.4027 0.47297 0.8192-1.4158 2.7158-1.1641 3.1519 0.23013 0.3986 0.72017 0.8083 1.1556 1.0317 0.68916 0.3534 1.2967 1.2989 0.82716 2.1121-0.3164 0.5481-3.2566 1.6853-3.696 2.4463-0.35359 0.6125 1.1939 3.1171 0.79942 3.8004-0.36281 0.6284-3.2962 0.9182-3.6644 1.5559-0.40844 0.7075 0.45526 3.7538 0.0756 4.4114-0.41012 0.7103-3.1183 0.2432-3.4492 0.8164-0.71286 1.2347-0.70758 4.6806-0.70758 4.6806"/>
   <path d="m307.66 1152.4s-3.5622-2.6891-4.7216-2.6891c-0.56784 0-1.7618 3.9661-2.4734 3.9661-0.62074 0-3.1062-3.421-3.7732-3.421-0.66712 0-3.0742 3.6075-3.7283 3.6075-0.6621 0-1.9826-3.8181-2.5704-3.8181-0.79943 0-4.2516 2.8959-4.7403 2.8959-0.69853 0-0.94908-1.4293-0.81723-2.5787 0.086-0.7502 0.0366-1.5788-0.18098-1.9556-0.23715-0.4108-4.0945 0.908-4.4877 0.227-0.29936-0.5185 1.0629-4.5818 0.71697-5.1809-0.32401-0.5612-4.5967-0.4242-4.9304-1.0021-0.3237-0.5607 2.0443-3.9113 1.7396-4.4392-0.37437-0.6484-4.6811-1.7705-4.9525-2.2405-0.36989-0.6407 2.7792-3.0625 2.6321-3.5035-0.15196-0.2964-0.69507-0.6954-1.2767-0.9981-1.0457-0.5443-2.2771-1.7064-1.8764-2.4004 0.25524-0.4421 4.3852-1.6624 4.7295-2.2588 0.29225-0.5062-2.2883-3.8139-1.9645-4.3749 0.29895-0.5178 4.4466-0.5152 4.7488-1.0386 0.3209-0.5558-1.2634-4.6252-0.96515-5.1418 0.344-0.5958 4.1532 0.5431 4.4299 0.064 0.5859-1.0148 0.34705-5.1324 0.26963-5.5868-5e-3 -0.032-1e-3 -0.048 0.0131-0.048 0.12518 0 3.6578 2.6891 4.7212 2.6891 0.56864 0 1.7624-3.9661 2.4731-3.9661 0.62107 0 3.1065 3.421 3.7731 3.421 0.66751 0 3.0747-3.6075 3.7286-3.6075 0.66272 0 1.9835 3.8181 2.571 3.8181 0.80067 0 4.2529-2.8958 4.7398-2.8958 0.6862 0 0.93321 1.3892 0.80187 2.5298-0.0888 0.7715-0.0384 1.6342 0.18624 2.0234 0.23884 0.4137 4.0958-0.9058 4.4876-0.2273 0.29971 0.5192-1.0625 4.5824-0.71678 5.1812 0.30353 0.5257 4.5554 0.3526 4.8701 0.8977 0.30565 0.5294-2.0785 3.8521-1.7857 4.3592 0.35417 0.6134 4.6564 1.7279 4.9548 2.2446 0.40345 0.6988-2.6874 3.0976-2.486 3.4465 0.18411 0.3189 0.82604 0.7721 1.4792 1.1071 1.0337 0.5302 2.1397 1.6112 1.7487 2.2884-0.26565 0.4602-4.4142 1.7127-4.7814 2.3487-0.2907 0.5035 2.2906 3.81 1.9668 4.3709-0.29848 0.517-4.4463 0.5147-4.7492 1.0393-0.34346 0.5949 1.2178 4.7043 0.89841 5.2574-0.34376 0.5954-4.153-0.5434-4.4303-0.063-0.59536 1.0312-0.27209 5.6538-0.27209 5.6538"/>
   <path d="m246.18 1152.7s-4.3436-3.5854-5.2758-3.5854c-0.45722 0-1.6996 5.2881-2.2725 5.2881-0.50473 0-3.4762-4.5614-4.0182-4.5614-0.54213 0-3.3994 4.81-3.9291 4.81-0.53575 0-1.9595-5.0908-2.4317-5.0908-0.66225 0-4.9042 3.8611-5.2707 3.8611-0.5239 0-0.60564-1.9056-0.42984-3.4382 0.11473-1.0002 0.11537-1.9897-0.0602-2.2938-0.19354-0.3352-5.159 1.731-5.4735 1.1863-0.24411-0.4228 1.7448-5.5416 1.4645-6.0271-0.26391-0.4571-5.7856 0.029-6.0554-0.4381-0.26237-0.4545 3.064-4.6293 2.8198-5.0523-0.31211-0.5406-5.8766-1.7288-6.0801-2.0813-0.27742-0.4805 4.1009-3.3987 4.0219-3.7837-0.10837-0.2321-0.7786-0.6706-1.5541-1.0742-1.3942-0.7257-3.1747-2.0353-2.8616-2.5776 0.20122-0.3485 5.536-1.6781 5.8045-2.1431 0.22947-0.3975-3.3848-4.5074-3.1314-4.9462 0.23466-0.4065 5.5967-0.1118 5.8336-0.5221 0.25096-0.4347-2.0359-5.5584-1.8024-5.9628 0.27759-0.4808 5.1878 1.3298 5.4111 0.9432 0.46873-0.8119-0.0572-5.9428-0.16044-6.5487-7e-3 -0.042-6e-3 -0.064 5e-3 -0.064 0.0939 0 4.4153 3.5854 5.2755 3.5854 0.45782 0 1.7001-5.2881 2.2723-5.2881 0.50499 0 3.4765 4.5614 4.0182 4.5614 0.54241 0 3.3997-4.81 3.9293-4.81 0.53621 0 1.9602 5.0908 2.4322 5.0908 0.66318 0 4.9052-3.8612 5.2703-3.8612 0.51465 0 0.59671 1.8523 0.42159 3.3732-0.11843 1.0285-0.1203 2.0593 0.0608 2.373 0.1948 0.3374 5.16-1.7292 5.4734-1.1865 0.24437 0.4234-1.7445 5.5421-1.4643 6.0274 0.23809 0.4123 5.7336-0.1191 5.98 0.3075 0.23952 0.4149-3.1071 4.5546-2.8777 4.9519 0.28521 0.494 5.8438 1.6719 6.0832 2.0866 0.33393 0.5784-3.9589 3.4793-3.8078 3.741 0.13807 0.2391 0.9319 0.736 1.8028 1.1826 1.3783 0.7069 2.9828 1.9234 2.6703 2.4646-0.21491 0.3723-5.5718 1.7401-5.8668 2.251-0.22783 0.3947 3.3873 4.5031 3.1341 4.9415-0.23414 0.4056-5.5963 0.1111-5.8339 0.5226-0.27849 0.4824 1.9803 5.6548 1.7212 6.1036-0.27741 0.4804-5.1877-1.3301-5.4114-0.9428-0.47786 0.8277 0.16341 6.6271 0.16341 6.6271"/>
   <path d="m184.7 1153.1s-5.125-4.4818-5.83-4.4818c-0.3466 0-1.6375 6.6101-2.0717 6.6101-0.38872 0-3.8463-5.7017-4.2634-5.7017-0.41713 0-3.7245 6.0125-4.1299 6.0125-0.4094 0-1.9364-6.3635-2.293-6.3635-0.52507 0-5.5567 4.8264-5.8011 4.8264-0.34927 0-0.26219-2.3821-0.0424-4.2978 0.14341-1.2502 0.19414-2.4006 0.0606-2.6319-0.14992-0.2597-6.2234 2.5539-6.4592 2.1455-0.18885-0.3271 2.4267-6.5013 2.212-6.8732-0.2038-0.353-6.9744 0.4825-7.1804 0.1257-0.20102-0.3482 4.0837-5.3472 3.9-5.6654-0.24986-0.4327-7.0721-1.6869-7.2078-1.922-0.18494-0.3203 5.4226-3.7349 5.4117-4.0639-0.0648-0.1677-0.86214-0.6458-1.8315-1.1504-1.7428-0.9071-4.0723-2.364-3.8467-2.7546 0.14721-0.255 6.6869-1.6939 6.8796-2.0276 0.16669-0.2888-4.4812-5.2008-4.2984-5.5175 0.17037-0.2951 6.7468 0.2917 6.9184-0.01 0.18102-0.3136-2.8084-6.4916-2.6397-6.7838 0.21117-0.3658 6.2225 2.1166 6.3923 1.8226 0.35155-0.6089-0.46146-6.753-0.59051-7.5104-9e-3 -0.053-0.0102-0.081-3e-3 -0.081 0.0626 0 5.1728 4.4818 5.8298 4.4818 0.34699 0 1.6378-6.6101 2.0715-6.6101 0.38889 0 3.8465 5.7017 4.2633 5.7017 0.41733 0 3.7248-6.0125 4.13-6.0125 0.40971 0 1.9368 6.3635 2.2933 6.3635 0.52569 0 5.5574-4.8265 5.8008-4.8265 0.34311 0 0.26022 2.3154 0.0413 4.2165-0.14804 1.2857-0.20216 2.4844-0.0645 2.7228 0.15076 0.2611 6.2241-2.5528 6.4592-2.1457 0.18902 0.3275-2.4265 6.5017-2.2119 6.8735 0.17266 0.299 6.9119-0.5908 7.0899-0.2827 0.17338 0.3004-4.1357 5.2571-3.9697 5.5446 0.21625 0.3746 7.031 1.6159 7.2116 1.9286 0.2644 0.4579-5.2304 3.861-5.1297 4.0354 0.0921 0.1595 1.0378 0.6999 2.1264 1.2582 1.7229 0.8836 3.8258 2.2357 3.5919 2.6408-0.16417 0.2844-6.7295 1.7675-6.9522 2.1534-0.16494 0.2857 4.484 5.196 4.3015 5.512-0.1698 0.2942-6.7463-0.2925-6.9186 0.01-0.21352 0.3699 2.7428 6.6053 2.5439 6.9497-0.21106 0.3656-6.2224-2.1167-6.3924-1.8224-0.36036 0.6242 0.59891 7.6004 0.59891 7.6004"/>
   <path d="m123.21 1153.4s-5.9064-5.3781-6.3843-5.3781c-0.23598 0-1.5754 7.9322-1.8708 7.9322-0.27271 0-4.2163-6.8421-4.5084-6.8421-0.29214 0-4.0497 7.215-4.3307 7.215-0.28304 0-1.9133-7.6362-2.1542-7.6362-0.3879 0-6.2093 5.7917-6.3315 5.7917-0.17463 0 0.08125-2.8585 0.34495-5.1574 0.17209-1.5002 0.27292-2.8116 0.1814-2.9701-0.1063-0.1841-7.2879 3.3768-7.445 3.1048-0.1336-0.2314 3.1086-7.4611 2.9595-7.7194-0.14368-0.2489-8.1632 0.9359-8.3054 0.6897-0.13969-0.242 5.1034-6.0651 4.9802-6.2785-0.18761-0.325-8.2676-1.6452-8.3354-1.7627-0.09247-0.1602 6.7443-4.0712 6.8015-4.3443-0.02119-0.1032-0.94567-0.6209-2.109-1.2264-2.0914-1.0885-4.9698-2.6929-4.8319-2.9318 0.09319-0.1615 7.8377-1.7095 7.9547-1.912 0.10391-0.18-5.5776-5.8942-5.4653-6.0887 0.10608-0.1838 7.8969 0.6952 8.0032 0.5109 0.11108-0.1924-3.5809-7.4248-3.4769-7.6048 0.14476-0.2507 7.2572 2.9034 7.3734 2.7021 0.23438-0.406-0.86571-7.5632-1.0206-8.4721-0.01076-0.063-0.01471-0.097-0.01119-0.097 0.0313 0 5.9303 5.3781 6.3842 5.3781 0.23618 0 1.5755-7.9322 1.8707-7.9322 0.27279 0 4.2164 6.8421 4.5084 6.8421 0.29223 0 4.0498-7.215 4.3308-7.215 0.2832 0 1.9135 7.6362 2.1544 7.6362 0.3882 0 6.2096-5.7917 6.3313-5.7917 0.17156 0-0.0763 2.7783-0.33896 5.0597-0.17764 1.5428-0.28401 2.9096-0.18991 3.0725 0.10672 0.1849 7.2883-3.3762 7.445-3.1049 0.13369 0.2317-3.1085 7.4613-2.9594 7.7196 0.10722 0.1857 8.0902-1.0624 8.1998-0.8727 0.10726 0.1858-5.1643 5.9595-5.0617 6.1372 0.1473 0.2551 8.2184 1.56 8.34 1.7705 0.19488 0.3376-6.502 4.2428-6.4516 4.33 0.046 0.08 1.1436 0.6637 2.45 1.3337 2.0675 1.0603 4.6688 2.5479 4.5134 2.817-0.11342 0.1965-7.8871 1.795-8.0377 2.0557-0.10205 0.1769 5.5806 5.8891 5.4688 6.0827-0.10547 0.1827-7.8963-0.6962-8.0034-0.5108-0.14854 0.2573 3.5053 7.5557 3.3667 7.7958-0.1447 0.2506-7.2572-2.9035-7.3735-2.702-0.24286 0.4207 1.0344 8.5735 1.0344 8.5735"/>
  </g>
  <text x="-0.59277618" y="36.282593" fill="#000000" font-family="'Liberation Sans',Arial,sans-serif" font-size="6px" stroke-width="1px" style="font-variant-caps:normal;font-variant-east-asian:normal;font-variant-ligatures:normal;font-variant-numeric:normal;line-height:1.25" xml:space="preserve"><tspan x="-0.59277618" y="36.282593">Exposant : 0,0</tspan><tspan x="-0.59277618" y="43.782593">Étapes d'interpolation : 6</tspan><tspan x="-0.59277618" y="51.282593">Méthode d'interpolation : 2</tspan><tspan x="-0.59277618" y="58.782593">Dupliquer les extrémités : décoché</tspan><tspan x="-0.59277618" y="66.282593">Interpoler le style : décoché</tspan></text>
 </g>
</svg>
