<?xml version="1.0" encoding="UTF-8"?>
<svg width="300" height="36" version="1.1" viewBox="0 0 300 36" xmlns="http://www.w3.org/2000/svg">
 <g fill-rule="evenodd" stroke="#000" stroke-width=".96626pt">
  <path d="m77.917 17.306c0 9.2019-12.388 16.662-27.668 16.662-15.281 0-27.668-7.4596-27.668-16.662s12.388-16.662 27.668-16.662c15.281 0 27.668 7.4596 27.668 16.662z" fill="#80765b" fill-opacity=".75"/>
  <path d="m112.83 17.852c0 9.2019-12.388 16.662-27.668 16.662-15.281 0-27.668-7.4596-27.668-16.662s12.388-16.662 27.668-16.662c15.281 0 27.668 7.4596 27.668 16.662z" fill="#d0765b" fill-opacity=".26769"/>
  <path d="m148.18 17.852c0 9.2019-12.388 16.662-27.668 16.662-15.281 0-27.668-7.4596-27.668-16.662s12.388-16.662 27.668-16.662c15.281 0 27.668 7.4596 27.668 16.662z" fill="#12c097"/>
  <path d="m181.96 17.852c0 9.2019-12.388 16.662-27.668 16.662-15.281 0-27.668-7.4596-27.668-16.662s12.388-16.662 27.668-16.662c15.281 0 27.668 7.4596 27.668 16.662z" fill="#e7da05"/>
  <path d="m213.78 17.852c0 9.2019-12.388 16.662-27.668 16.662-15.281 0-27.668-7.4596-27.668-16.662s12.388-16.662 27.668-16.662c15.281 0 27.668 7.4596 27.668 16.662z" fill="#3d0fa1"/>
  <path d="m245.6 17.852c0 9.2019-12.388 16.662-27.668 16.662-15.281 0-27.668-7.4596-27.668-16.662s12.388-16.662 27.668-16.662c15.281 0 27.668 7.4596 27.668 16.662z" fill="#6fe225" fill-opacity=".74902"/>
  <path d="m277.42 17.852c0 9.2019-12.388 16.662-27.668 16.662-15.281 0-27.668-7.4596-27.668-16.662s12.388-16.662 27.668-16.662c15.281 0 27.668 7.4596 27.668 16.662z" fill="#ff3077"/>
 </g>
</svg>
