<?xml version="1.0" encoding="UTF-8"?>
<svg width="300" height="57" version="1.1" viewBox="0 0 300 57" xmlns="http://www.w3.org/2000/svg">
 <style/>
 <g>
  <path transform="matrix(.39512 .68437 -.68437 .39512 2799.7 -1592.7)" d="m126.89 3940.5c-1.7128 2.7762-13.227-1.9871-15.92-0.2673-2.6928 1.7197-2.717 13.972-5.8567 14.525-3.1397 0.5531-6.3535-10.32-9.5433-11.1s-13.307 5.7281-15.627 3.5431c-2.3203-2.1851 6.0756-11.819 4.6565-14.776-1.4191-2.9564-12.432-3.072-12.315-6.2422s12.009-3.7964 13.505-6.565c1.4954-2.7687-2.9446-13.24-0.39835-15.118 2.5463-1.8777 10.873 5.667 14.076 5.0626 3.2032-0.6043 7.3014-9.5359 10.365-8.6831s0.25246 11.285 2.778 13.344c2.5256 2.0584 12.649-0.7081 13.802 2.2959 1.1532 3.0041-8.7265 9.769-8.7641 12.932-0.0376 3.1628 10.955 8.2731 9.2423 11.049z" color="#000000" fill="#ac7335"/>
  <path transform="matrix(.8326 .4807 -.4807 .8326 1967.2 -3288.2)" d="m107.62 3941.6c-0.52759 2.111-9.0763-3.5197-10.951-2.3937-2.4976 1.5003-1.9722 11.854-4.8626 12.594-2.1693 0.5554-1.5842-8.522-3.5626-9.4629-2.6361-1.2536-11.029 4.1052-13.221 2.1498-1.6453-1.4675 6.9505-5.6944 6.8942-7.9439-0.07507-2.9973-9.6434-9.8527-9.0821-12.757 0.42125-2.18 9.4727 5.1817 11.397 4.018 2.5638-1.5505 2.3375-12.598 5.2294-13.243 2.1704-0.4837 1.6931 9.0878 3.6599 10.096 2.6207 1.3439 12.061-3.374 14.214-1.3192 1.6159 1.5422-7.3719 4.7859-7.261 6.987 0.14775 2.9328 8.2486 8.462 7.5456 11.275z" color="#000000" fill="#ff9400"/>
  <rect x="64.106" width="171.79" height="56.564" rx="10.424" ry="10.424" color="#000000" fill="#2dd268" fill-opacity=".29609"/>
 </g>
</svg>
