<?xml version="1.0" encoding="UTF-8"?>
<svg width="300" height="68" version="1.1" viewBox="0 0 300 68" xmlns="http://www.w3.org/2000/svg">
 <g fill-opacity=".75" fill-rule="evenodd" stroke="#000" stroke-width="1pt">
  <path d="m24.927 22.485h31.525v33.276h-31.525z" fill="#00f"/>
  <path d="m77.557 19.387c0 9.8339-9.8015 17.806-21.892 17.806s-21.892-7.9719-21.892-17.806c0-9.8338 9.8015-17.806 21.892-17.806s21.892 7.9719 21.892 17.806z" fill="#f00"/>
  <path d="m109.54 59.151-15.238-3.72-11.703 10.444-1.1708-15.642-13.549-7.9029 14.514-5.9471 3.3293-15.328 10.141 11.966 15.607-1.5703-8.2467 13.343z" fill="#ff0"/>
  <g transform="translate(1.6674 -1456.9)">
   <path d="m186.25 1479.4h31.525v33.276h-31.525z" fill="#00f"/>
   <path transform="translate(104.03 224.65)" d="m134.86 1251.7c0 9.8339-9.8015 17.806-21.892 17.806s-21.892-7.9719-21.892-17.806c0-9.8338 9.8015-17.806 21.892-17.806s21.892 7.9719 21.892 17.806z" fill="#f00"/>
   <path transform="translate(86.386 261.2)" d="m184.48 1254.9-15.238-3.72-11.703 10.444-1.1708-15.642-13.549-7.9029 14.514-5.9471 3.3293-15.328 10.141 11.966 15.607-1.5703-8.2467 13.343z" fill="#ff0"/>
  </g>
 </g>
</svg>
