<?xml version="1.0" encoding="UTF-8"?>
<svg width="300" height="57" version="1.1" viewBox="0 0 300 57" xmlns="http://www.w3.org/2000/svg" xmlns:xlink="http://www.w3.org/1999/xlink">
 <defs>
  <radialGradient id="i" cx="188.95" cy="2278" r="19.568" gradientTransform="matrix(-1.0695 0 0 .93503 431.93 -2103.1)" gradientUnits="userSpaceOnUse" xlink:href="#a"/>
  <radialGradient id="j" cx="212.6" cy="2274.3" r="18.494" gradientTransform="matrix(-1.0703 0 0 .93436 431.82 -2098.1)" gradientUnits="userSpaceOnUse" xlink:href="#a"/>
  <radialGradient id="k" cx="221.81" cy="2233.3" r="12.484" gradientTransform="matrix(-1.0457 0 0 .9563 451.87 -2108.7)" gradientUnits="userSpaceOnUse" xlink:href="#a"/>
  <radialGradient id="l" cx="225.29" cy="2236" r="12.167" gradientTransform="matrix(-1.0409 0 0 .96073 463.71 -2121.3)" gradientUnits="userSpaceOnUse" xlink:href="#a"/>
  <radialGradient id="m" cx="225.84" cy="2298.9" r="7.2748" gradientTransform="matrix(-1.066 0 0 .93811 430.34 -2129.7)" gradientUnits="userSpaceOnUse" xlink:href="#a"/>
  <radialGradient id="n" cx="238.59" cy="2266.9" r="7.9932" gradientTransform="matrix(-1.0485 0 0 .95374 448.05 -2135)" gradientUnits="userSpaceOnUse" xlink:href="#a"/>
  <radialGradient id="o" cx="251.29" cy="2238.9" r="5.5509" gradientTransform="matrix(-1.0341 0 0 .96705 469.28 -2138.2)" gradientUnits="userSpaceOnUse" xlink:href="#a"/>
  <radialGradient id="b" cx="188.95" cy="2278" r="19.568" gradientTransform="matrix(1.0695 0 0 .93503 21.962 -2103.1)" gradientUnits="userSpaceOnUse" xlink:href="#a"/>
  <radialGradient id="c" cx="212.6" cy="2274.3" r="18.494" gradientTransform="matrix(1.0703 0 0 .93436 22.074 -2098.1)" gradientUnits="userSpaceOnUse" xlink:href="#a"/>
  <radialGradient id="d" cx="221.81" cy="2233.3" r="12.484" gradientTransform="matrix(1.0457 0 0 .9563 2.0207 -2108.7)" gradientUnits="userSpaceOnUse" xlink:href="#a"/>
  <radialGradient id="e" cx="225.29" cy="2236" r="12.167" gradientTransform="matrix(1.0409 0 0 .96073 -9.8166 -2121.3)" gradientUnits="userSpaceOnUse" xlink:href="#a"/>
  <radialGradient id="f" cx="225.84" cy="2298.9" r="7.2748" gradientTransform="matrix(1.066 0 0 .93811 23.548 -2129.7)" gradientUnits="userSpaceOnUse" xlink:href="#a"/>
  <radialGradient id="g" cx="238.59" cy="2266.9" r="7.9932" gradientTransform="matrix(1.0485 0 0 .95374 5.8423 -2135)" gradientUnits="userSpaceOnUse" xlink:href="#a"/>
  <radialGradient id="h" cx="251.29" cy="2238.9" r="5.5509" gradientTransform="matrix(1.0341 0 0 .96705 -15.385 -2138.2)" gradientUnits="userSpaceOnUse" xlink:href="#a"/>
  <linearGradient id="a">
   <stop stop-color="#0082ab" offset="0"/>
   <stop stop-color="#0082ab" stop-opacity=".5" offset=".35"/>
   <stop stop-color="#0082ab" stop-opacity=".22" offset=".63"/>
   <stop stop-color="#0082ab" stop-opacity="0" offset="1"/>
  </linearGradient>
 </defs>
 <path d="m208.92 44.557 41.855 0.6907-20.329-36.593-10.763 17.951z" fill="url(#i)" fill-opacity=".75" fill-rule="evenodd"/>
 <path d="m224.07 43.678-20.273-34.005-9.6564 17.28-9.6564 17.28 19.793-0.2772z" fill="url(#j)" fill-opacity=".75" fill-rule="evenodd"/>
 <path d="m232.97 38.89-10.862-23.877-15.247 21.346 13.055 1.2656z" fill="url(#k)" fill-opacity=".75" fill-rule="evenodd"/>
 <path d="m241.88 35.755-7.5821-10.246-7.5821-10.246-10.165 23.379 12.664-1.4432z" fill="url(#l)" fill-opacity=".75" fill-rule="evenodd"/>
 <path d="m197.36 33.776-7.3778-13.649-8.1317 13.214 7.7548 0.2176z" fill="url(#m)" fill-opacity=".75" fill-rule="evenodd"/>
 <path d="m206.26 33.114-9.6466-13.786-3.5576 7.6235-3.5576 7.6234 8.3809-0.7307z" fill="url(#n)" fill-opacity=".75" fill-rule="evenodd"/>
 <path d="m215.17 32.319-4.3649-10.736-7.1152 9.1482 5.7401 0.7939z" fill="url(#o)" fill-opacity=".75" fill-rule="evenodd"/>
 <path d="m48.478 5.2707 53.602 14.362" fill="none" stroke="#000" stroke-width="1pt"/>
 <path d="m45.935 9.5989 53.602 14.362" fill="none" stroke="#000" stroke-width="1pt"/>
 <path d="m43.392 13.927 53.602 14.362" fill="none" stroke="#000" stroke-width="1pt"/>
 <path d="m40.849 18.255 53.602 14.362" fill="none" stroke="#000" stroke-width="1pt"/>
 <path d="m38.306 22.584 53.602 14.362" fill="none" stroke="#000" stroke-width="1pt"/>
 <path d="m35.763 26.912 53.602 14.363" fill="none" stroke="#000" stroke-width="1pt"/>
 <path d="m33.22 31.24 53.602 14.363" fill="none" stroke="#000" stroke-width="1pt"/>
 <path d="m30.677 35.568 53.602 14.363" fill="none" stroke="#000" stroke-width="1pt"/>
 <path d="m28.134 39.897 53.602 14.362" fill="none" stroke="#000" stroke-width="1pt"/>
 <path transform="matrix(0 .6141 -.6141 0 1442.7 -30.971)" d="m131.46 2120.6c0.41193 0.206-0.0744 0.6569-0.34233 0.6847-0.72607 0.075-1.1234-0.7544-1.027-1.3693 0.1724-1.0999 1.3955-1.6298 2.3963-1.3694 1.4687 0.3822 2.1472 2.044 1.7117 3.4234-0.58046 1.8385-2.6947 2.6691-4.4503 2.0539-2.2093-0.774-3.1933-3.3465-2.3963-5.4773 0.96528-2.5806 3.9991-3.7188 6.5043-2.7386 2.9523 1.1551 4.2452 4.6519 3.081 7.5313-1.3442 3.3243-5.3051 4.7721-8.5583 3.4233-3.6965-1.5326-5.2994-5.9584-3.7656-9.5853 1.7206-4.0689 6.6118-5.8269 10.612-4.108 4.4413 1.9084 6.3547 7.2654 4.4503 11.639" fill="none" stroke="#000" stroke-width="1pt"/>
 <path transform="matrix(0 .6141 -.6141 0 1458.9 -40.212)" d="m143.19 2128.8c0.55906 0.2942-0.12081 0.8988-0.48904 0.9292-0.99789 0.082-1.5191-1.0668-1.3693-1.9073 0.26786-1.5035 1.9604-2.1952 3.3255-1.8095 2.0033 0.5661 2.8863 2.8645 2.2496 4.7438-0.84859 2.5048-3.7718 3.5835-6.162 2.6897-3.0077-1.1247-4.2838-4.6808-3.1299-7.5802 1.3975-3.5115 5.5907-4.9859 8.9984-3.57 4.0159 1.6685 5.6891 6.5011 4.0102 10.417-1.9384 4.5206-7.4118 6.393-11.835 4.4503-5.0258-2.2075-7.0975-8.3229-4.8905-13.253 2.476-5.531 9.2341-7.8023 14.671-5.3306 6.0364 2.7442 8.5075 10.146 5.7707 16.09" fill="none" stroke="#000" stroke-width="1pt"/>
 <path transform="matrix(0 .6141 -.6141 0 1442.7 -54.588)" d="m154.34 2141.8c1.1181 0.5885-0.24162 1.7976-0.97809 1.8584-1.9958 0.1649-3.0381-2.1335-2.7386-3.8145 0.53572-3.007 3.9209-4.3904 6.651-3.619 4.0066 1.1321 5.7726 5.7289 4.4992 9.4875-1.6972 5.0097-7.5437 7.167-12.324 5.3795-6.0155-2.2494-8.5676-9.3617-6.2598-15.16 2.7951-7.0231 11.181-9.9718 17.997-7.1401 8.0318 3.3371 11.378 13.002 8.0203 20.833-3.8768 9.0413-14.824 12.786-23.67 8.9006-10.051-4.4149-14.195-16.646-9.7809-26.506 4.952-11.062 18.468-15.605 29.343-10.661 12.073 5.4883 17.015 20.291 11.541 32.179" fill="none" stroke="#000" stroke-width="1pt"/>
 <path transform="matrix(0 .6141 -.6141 0 1442.7 -65.476)" d="m177.23 2161.1c0.94157 0.2943 0.0679 1.4144-0.48904 1.565-1.5093 0.408-2.6338-1.21-2.6408-2.543-0.0126-2.3846 2.3918-3.9242 4.597-3.7168 3.2363 0.3044 5.2405 3.5853 4.7926 6.651-0.59691 4.0862-4.7822 6.5672-8.705 5.8686-4.9364-0.8792-7.899-5.9808-6.9444-10.759 1.1561-5.7871 7.1801-9.2339 12.813-8.0204 6.6381 1.4301 10.571 8.3801 9.0962 14.867-1.7021 7.4895-9.5802 11.908-16.921 10.172-8.341-1.973-13.247-10.781-11.248-18.975 2.2429-9.1927 11.981-14.587 21.029-12.324 10.044 2.5121 15.927 13.182 13.4 23.083" fill="none" stroke="#000" stroke-width="1pt"/>
 <path transform="matrix(0 .15352 -.15352 0 491.99 31.386)" d="m143.19 2128.8c0.55906 0.2942-0.12081 0.8988-0.48904 0.9292-0.99789 0.082-1.5191-1.0668-1.3693-1.9073 0.26786-1.5035 1.9604-2.1952 3.3255-1.8095 2.0033 0.5661 2.8863 2.8645 2.2496 4.7438-0.84859 2.5048-3.7718 3.5835-6.162 2.6897-3.0077-1.1247-4.2838-4.6808-3.1299-7.5802 1.3975-3.5115 5.5907-4.9859 8.9984-3.57 4.0159 1.6685 5.6891 6.5011 4.0102 10.417-1.9384 4.5206-7.4118 6.393-11.835 4.4503-5.0258-2.2075-7.0975-8.3229-4.8905-13.253 2.476-5.531 9.2341-7.8023 14.671-5.3306 6.0364 2.7442 8.5075 10.146 5.7707 16.09" fill="none" stroke="#000" stroke-width="1pt"/>
 <path transform="matrix(0 .30705 -.30705 0 825.19 7.5196)" d="m143.19 2128.8c0.55906 0.2942-0.12081 0.8988-0.48904 0.9292-0.99789 0.082-1.5191-1.0668-1.3693-1.9073 0.26786-1.5035 1.9604-2.1952 3.3255-1.8095 2.0033 0.5661 2.8863 2.8645 2.2496 4.7438-0.84859 2.5048-3.7718 3.5835-6.162 2.6897-3.0077-1.1247-4.2838-4.6808-3.1299-7.5802 1.3975-3.5115 5.5907-4.9859 8.9984-3.57 4.0159 1.6685 5.6891 6.5011 4.0102 10.417-1.9384 4.5206-7.4118 6.393-11.835 4.4503-5.0258-2.2075-7.0975-8.3229-4.8905-13.253 2.476-5.531 9.2341-7.8023 14.671-5.3306 6.0364 2.7442 8.5075 10.146 5.7707 16.09" fill="none" stroke="#000" stroke-width="1pt"/>
 <path transform="matrix(0 1.2282 -1.2282 0 2772.1 -135.68)" d="m143.19 2128.8c0.55906 0.2942-0.12081 0.8988-0.48904 0.9292-0.99789 0.082-1.5191-1.0668-1.3693-1.9073 0.26786-1.5035 1.9604-2.1952 3.3255-1.8095 2.0033 0.5661 2.8863 2.8645 2.2496 4.7438-0.84859 2.5048-3.7718 3.5835-6.162 2.6897-3.0077-1.1247-4.2838-4.6808-3.1299-7.5802 1.3975-3.5115 5.5907-4.9859 8.9984-3.57 4.0159 1.6685 5.6891 6.5011 4.0102 10.417-1.9384 4.5206-7.4118 6.393-11.835 4.4503-5.0258-2.2075-7.0975-8.3229-4.8905-13.253 2.476-5.531 9.2341-7.8023 14.671-5.3306 6.0364 2.7442 8.5075 10.146 5.7707 16.09" fill="none" stroke="#000" stroke-width="1pt"/>
 <path transform="matrix(0 2.4564 -2.4564 0 5365.9 -326.6)" d="m143.19 2128.8c0.55906 0.2942-0.12081 0.8988-0.48904 0.9292-0.99789 0.082-1.5191-1.0668-1.3693-1.9073 0.26786-1.5035 1.9604-2.1952 3.3255-1.8095 2.0033 0.5661 2.8863 2.8645 2.2496 4.7438-0.84859 2.5048-3.7718 3.5835-6.162 2.6897-3.0077-1.1247-4.2838-4.6808-3.1299-7.5802 1.3975-3.5115 5.5907-4.9859 8.9984-3.57 4.0159 1.6685 5.6891 6.5011 4.0102 10.417-1.9384 4.5206-7.4118 6.393-11.835 4.4503-5.0258-2.2075-7.0975-8.3229-4.8905-13.253 2.476-5.531 9.2341-7.8023 14.671-5.3306 6.0364 2.7442 8.5075 10.146 5.7707 16.09" fill="none" stroke="#000" stroke-width=".125"/>
 <path d="m244.97 44.557-41.855 0.6907 20.329-36.593 10.763 17.951z" fill="url(#b)" fill-opacity=".75" fill-rule="evenodd"/>
 <path d="m229.82 43.678 20.273-34.005 19.313 34.56-19.793-0.2772z" fill="url(#c)" fill-opacity=".75" fill-rule="evenodd"/>
 <path d="m220.92 38.89 10.862-23.877 7.6235 10.673 7.6235 10.673-13.055 1.2656z" fill="url(#d)" fill-opacity=".75" fill-rule="evenodd"/>
 <path d="m212.01 35.755 15.164-20.492 10.165 23.379-12.664-1.4432z" fill="url(#e)" fill-opacity=".75" fill-rule="evenodd"/>
 <path d="m256.53 33.776 3.6889-6.8247 3.6889-6.8246 8.1317 13.214-7.7548 0.2176z" fill="url(#f)" fill-opacity=".75" fill-rule="evenodd"/>
 <path d="m247.63 33.114 4.8233-6.8928 4.8233-6.8927 7.1152 15.247-8.3809-0.7307z" fill="url(#g)" fill-opacity=".75" fill-rule="evenodd"/>
 <path d="m238.72 32.319 2.1825-5.3681 2.1825-5.368 7.1152 9.1482-5.7401 0.7939z" fill="url(#h)" fill-opacity=".75" fill-rule="evenodd"/>
 <path transform="matrix(0 .34966 -.34966 0 872.35 1.0356)" d="m143.19 2128.8c0.55906 0.2942-0.12081 0.8988-0.48904 0.9292-0.99789 0.082-1.5191-1.0668-1.3693-1.9073 0.26786-1.5035 1.9604-2.1952 3.3255-1.8095 2.0033 0.5661 2.8863 2.8645 2.2496 4.7438-0.84859 2.5048-3.7718 3.5835-6.162 2.6897-3.0077-1.1247-4.2838-4.6808-3.1299-7.5802 1.3975-3.5115 5.5907-4.9859 8.9984-3.57 4.0159 1.6685 5.6891 6.5011 4.0102 10.417-1.9384 4.5206-7.4118 6.393-11.835 4.4503-5.0258-2.2075-7.0975-8.3229-4.8905-13.253 2.476-5.531 9.2341-7.8023 14.671-5.3306 6.0364 2.7442 8.5075 10.146 5.7707 16.09" fill="none" stroke="#000" stroke-width="1pt"/>
 <path d="m193.58 52.071c-0.0437 0.9606-0.0841 2.0544-1.1052 2.797" fill="none" stroke="#000" stroke-width=".36292pt"/>
 <path d="m200.67 52.183c0 0.7432-0.45969 2.1149-0.36838 3.0207" fill="none" stroke="#000" stroke-width=".36292pt"/>
 <path d="m207.02 52.294c0.19998 0.6951 0.0821 1.788 1.842 2.5733" fill="none" stroke="#000" stroke-width=".36292pt"/>
 <path d="m216.05 51.847c-0.21579 0.6669-1.8609 2.5621-1.1052 3.2446" fill="none" stroke="#000" stroke-width=".36292pt"/>
 <path d="m223.2 52.63c-0.28049 0.399-1.3518 1.8021 0 2.3495" fill="none" stroke="#000" stroke-width=".36292pt"/>
 <path d="m229.4 51.847c0.0915 0.9266-0.48104 1.8809 1.842 2.9089" fill="none" stroke="#000" stroke-width=".36292pt"/>
 <path d="m238.52 52.294c0.0798 0.5698-0.99104 1.5626-1.4736 2.4614" fill="none" stroke="#000" stroke-width=".36292pt"/>
 <path d="m243.77 52.183c0.0271 0.4366 0.19539 1.7227 2.9471 2.3495" fill="none" stroke="#000" stroke-width=".36292pt"/>
 <path d="m252.34 52.406c0 0.1579-0.21227 1.6131 0.73678 2.2376" fill="none" stroke="#000" stroke-width=".36292pt"/>
 <path d="m256.85 52.183c1.0548 1.2333 1.1304 2.6855 6.631 3.5801" fill="none" stroke="#000" stroke-width=".36292pt"/>
 <path d="m267.26 52.854c0 0.8403-0.10579 1.6705 0.73678 2.4614" fill="none" stroke="#000" stroke-width=".36292pt"/>
</svg>
