<?xml version="1.0" encoding="UTF-8"?>
<svg width="300" height="43" version="1.1" viewBox="0 0 300 43" xmlns="http://www.w3.org/2000/svg">
 <g fill="#dbdbdb" fill-rule="evenodd" stroke="#000">
  <path d="m76.995 21.728c0 9.1193-12.276 16.512-27.42 16.512-15.144 0-27.42-7.3927-27.42-16.512 0-9.1193 12.276-16.512 27.42-16.512 15.144 0 27.42 7.3927 27.42 16.512z" stroke-width=".011592"/>
  <path d="m103.28 21.728c0 9.1193-12.276 16.512-27.42 16.512-15.144 0-27.42-7.3927-27.42-16.512 0-9.1193 12.276-16.512 27.42-16.512 15.144 0 27.42 7.3927 27.42 16.512z" stroke-width="2.3184"/>
  <path d="m136.14 21.728c0 9.1193-12.276 16.512-27.42 16.512-15.144 0-27.42-7.3927-27.42-16.512 0-9.1193 12.276-16.512 27.42-16.512 15.144 0 27.42 7.3927 27.42 16.512z" stroke-width="9.2734"/>
  <path d="m169 21.728c0 9.1193-12.276 16.512-27.42 16.512-15.144 0-27.42-7.3927-27.42-16.512 0-9.1193 12.276-16.512 27.42-16.512 15.144 0 27.42 7.3927 27.42 16.512z" stroke-dasharray="1.73877, 3.47754" stroke-width="1.7388"/>
  <path d="m205.14 21.728c0 9.1193-12.276 16.512-27.42 16.512-15.144 0-27.42-7.3927-27.42-16.512 0-9.1193 12.276-16.512 27.42-16.512 15.144 0 27.42 7.3927 27.42 16.512z" stroke-dasharray="6.95506, 6.95506" stroke-width="1.7388"/>
  <path d="m241.29 21.728c0 9.1193-12.276 16.512-27.42 16.512-15.144 0-27.42-7.3927-27.42-16.512 0-9.1193 12.276-16.512 27.42-16.512 15.144 0 27.42 7.3927 27.42 16.512z" stroke-dasharray="6.95506, 3.47753, 1.73877, 3.47753" stroke-width="1.7388"/>
  <path d="m277.43 21.728c0 9.1193-12.276 16.512-27.42 16.512-15.144 0-27.42-7.3927-27.42-16.512 0-9.1193 12.276-16.512 27.42-16.512 15.144 0 27.42 7.3927 27.42 16.512z" stroke-dasharray="0.811426, 0.811426" stroke-width=".81143"/>
 </g>
</svg>
