<?xml version="1.0" encoding="UTF-8"?>
<svg width="300" height="54" version="1.1" viewBox="0 0 300 54" xmlns="http://www.w3.org/2000/svg">
 <g fill="#f90" fill-rule="evenodd" stroke="#000" stroke-width=".61519">
  <path d="m144.7 29.467c0 13.289-14.32 24.061-31.984 24.061-17.664 0-31.984-10.772-31.984-24.061 0-13.289 14.32-24.061 31.984-24.061 17.664 0 31.984 10.773 31.984 24.061z"/>
  <path d="m164.66 19.907c0 10.222-11.429 18.509-25.528 18.509-14.099 0-25.528-8.2865-25.528-18.509 0-10.222 11.429-18.508 25.528-18.508 14.099 0 25.528 8.2865 25.528 18.508z"/>
  <path d="m185.78 30.38c0 7.8369-9.7215 14.19-21.714 14.19s-21.714-6.353-21.714-14.19c0-7.8368 9.7215-14.19 21.714-14.19s21.714 6.353 21.714 14.19z"/>
  <path d="m198.09 18.86c0 5.622-5.7804 10.18-12.911 10.18-7.1304 0-12.911-4.5576-12.911-10.18 0-5.6222 5.7804-10.18 12.911-10.18 7.1304 0 12.911 4.5575 12.911 10.18z"/>
  <path d="m212.19 22.63c0 4.4296-5.2549 8.0203-11.737 8.0203-6.4822 0-11.737-3.5908-11.737-8.0203 0-4.4295 5.2549-8.0203 11.737-8.0203 6.4822 0 11.737 3.5909 11.737 8.0203z"/>
  <path d="m219.23 17.597c0 3.2369-3.2843 5.861-7.3357 5.861-4.0514 0-7.3357-2.6241-7.3357-5.861 0-3.237 3.2843-5.861 7.3357-5.861 4.0514 0 7.3357 2.624 7.3357 5.861z"/>
 </g>
</svg>
