<?xml version="1.0" encoding="UTF-8"?>
<svg width="300" height="50" version="1.1" viewBox="0 0 300 50" xmlns="http://www.w3.org/2000/svg">
 <g shape-rendering="auto">
  <rect x="69.693" width="15.152" height="14.205" rx="0" ry="0" color="#000000" color-rendering="auto" fill="#204a87" image-rendering="auto" opacity=".924" style="isolation:auto"/>
  <rect x="69.693" y="17.678" width="15.152" height="14.205" rx="0" ry="0" color="#000000" color-rendering="auto" fill="#204a87" image-rendering="auto" opacity=".924" style="isolation:auto"/>
  <rect x="69.693" y="34.85" width="15.152" height="14.205" rx="0" ry="0" color="#000000" color-rendering="auto" fill="#204a87" image-rendering="auto" opacity=".924" style="isolation:auto"/>
  <rect x="88.886" width="15.152" height="14.205" rx="0" ry="0" color="#000000" color-rendering="auto" fill="#204a87" image-rendering="auto" opacity=".924" style="isolation:auto"/>
  <rect x="107.57" width="15.152" height="14.205" rx="0" ry="0" color="#000000" color-rendering="auto" fill="#204a87" image-rendering="auto" opacity=".924" style="isolation:auto"/>
  <rect x="125.76" width="15.152" height="14.205" rx="0" ry="0" color="#000000" color-rendering="auto" fill="#204a87" image-rendering="auto" opacity=".924" style="isolation:auto"/>
  <rect x="143.43" width="15.152" height="14.205" rx="0" ry="0" color="#000000" color-rendering="auto" fill="#204a87" image-rendering="auto" opacity=".924" style="isolation:auto"/>
  <rect x="161.62" width="15.152" height="14.205" rx="0" ry="0" color="#000000" color-rendering="auto" fill="#204a87" image-rendering="auto" opacity=".924" style="isolation:auto"/>
  <rect x="180.3" width="15.152" height="14.205" rx="0" ry="0" color="#000000" color-rendering="auto" fill="#204a87" image-rendering="auto" opacity=".924" style="isolation:auto"/>
  <rect x="197.98" width="15.152" height="14.205" rx="0" ry="0" color="#000000" color-rendering="auto" fill="#4e9a06" image-rendering="auto" opacity=".924" style="isolation:auto"/>
  <rect x="216.16" width="15.152" height="14.205" rx="0" ry="0" color="#000000" color-rendering="auto" fill="#204a87" image-rendering="auto" opacity=".924" style="isolation:auto"/>
  <rect x="88.886" y="17.678" width="15.152" height="14.205" rx="0" ry="0" color="#000000" color-rendering="auto" fill="#4e9a06" image-rendering="auto" opacity=".924" style="isolation:auto"/>
  <rect x="107.57" y="17.678" width="15.152" height="14.205" rx="0" ry="0" color="#000000" color-rendering="auto" fill="#4e9a06" image-rendering="auto" opacity=".924" style="isolation:auto"/>
  <rect x="125.76" y="17.678" width="15.152" height="14.205" rx="0" ry="0" color="#000000" color-rendering="auto" fill="#4e9a06" image-rendering="auto" opacity=".924" style="isolation:auto"/>
  <rect x="143.43" y="17.678" width="15.152" height="14.205" rx="0" ry="0" color="#000000" color-rendering="auto" fill="#4e9a06" image-rendering="auto" opacity=".924" style="isolation:auto"/>
  <rect x="161.62" y="17.678" width="15.152" height="14.205" rx="0" ry="0" color="#000000" color-rendering="auto" fill="#204a87" image-rendering="auto" opacity=".924" style="isolation:auto"/>
  <rect x="180.3" y="17.678" width="15.152" height="14.205" rx="0" ry="0" color="#000000" color-rendering="auto" fill="#204a87" image-rendering="auto" opacity=".924" style="isolation:auto"/>
  <rect x="197.98" y="17.678" width="15.152" height="14.205" rx="0" ry="0" color="#000000" color-rendering="auto" fill="#4e9a06" image-rendering="auto" opacity=".924" style="isolation:auto"/>
  <rect x="216.16" y="17.678" width="15.152" height="14.205" rx="0" ry="0" color="#000000" color-rendering="auto" fill="#204a87" image-rendering="auto" opacity=".924" style="isolation:auto"/>
  <rect x="88.886" y="34.85" width="15.152" height="14.205" rx="0" ry="0" color="#000000" color-rendering="auto" fill="#4e9a06" image-rendering="auto" opacity=".924" style="isolation:auto"/>
  <rect x="107.57" y="34.85" width="15.152" height="14.205" rx="0" ry="0" color="#000000" color-rendering="auto" fill="#204a87" image-rendering="auto" opacity=".924" style="isolation:auto"/>
  <rect x="125.76" y="34.85" width="15.152" height="14.205" rx="0" ry="0" color="#000000" color-rendering="auto" fill="#204a87" image-rendering="auto" opacity=".924" style="isolation:auto"/>
  <rect x="143.43" y="34.85" width="15.152" height="14.205" rx="0" ry="0" color="#000000" color-rendering="auto" fill="#4e9a06" image-rendering="auto" opacity=".924" style="isolation:auto"/>
  <rect x="161.62" y="34.85" width="15.152" height="14.205" rx="0" ry="0" color="#000000" color-rendering="auto" fill="#204a87" image-rendering="auto" opacity=".924" style="isolation:auto"/>
  <rect x="180.3" y="34.85" width="15.152" height="14.205" rx="0" ry="0" color="#000000" color-rendering="auto" fill="#204a87" image-rendering="auto" opacity=".924" style="isolation:auto"/>
  <rect x="197.98" y="34.85" width="15.152" height="14.205" rx="0" ry="0" color="#000000" color-rendering="auto" fill="#4e9a06" image-rendering="auto" opacity=".924" style="isolation:auto"/>
  <rect x="216.16" y="34.85" width="15.152" height="14.205" rx="0" ry="0" color="#000000" color-rendering="auto" fill="#204a87" image-rendering="auto" opacity=".924" style="isolation:auto"/>
  <rect x="30.297" width="15.152" height="14.205" rx="0" ry="0" color="#000000" color-rendering="auto" fill="#204a87" image-rendering="auto" opacity=".924" style="isolation:auto"/>
  <rect x="235.36" width="15.152" height="14.205" rx="0" ry="0" color="#000000" color-rendering="auto" fill="#204a87" image-rendering="auto" opacity=".924" style="isolation:auto"/>
  <rect x="30.297" y="17.678" width="15.152" height="14.205" rx="0" ry="0" color="#000000" color-rendering="auto" fill="#204a87" image-rendering="auto" opacity=".924" style="isolation:auto"/>
  <rect x="235.36" y="17.678" width="15.152" height="14.205" rx="0" ry="0" color="#000000" color-rendering="auto" fill="#204a87" image-rendering="auto" opacity=".924" style="isolation:auto"/>
  <rect x="30.297" y="34.85" width="15.152" height="14.205" rx="0" ry="0" color="#000000" color-rendering="auto" fill="#204a87" image-rendering="auto" opacity=".924" style="isolation:auto"/>
  <rect x="235.36" y="34.85" width="15.152" height="14.205" rx="0" ry="0" color="#000000" color-rendering="auto" fill="#204a87" image-rendering="auto" opacity=".924" style="isolation:auto"/>
  <rect x="49.49" width="15.152" height="14.205" rx="0" ry="0" color="#000000" color-rendering="auto" fill="#204a87" image-rendering="auto" opacity=".924" style="isolation:auto"/>
  <rect x="254.55" width="15.152" height="14.205" rx="0" ry="0" color="#000000" color-rendering="auto" fill="#204a87" image-rendering="auto" opacity=".924" style="isolation:auto"/>
  <rect x="49.49" y="17.678" width="15.152" height="14.205" rx="0" ry="0" color="#000000" color-rendering="auto" fill="#4e9a06" image-rendering="auto" opacity=".924" style="isolation:auto"/>
  <rect x="254.55" y="17.678" width="15.152" height="14.205" rx="0" ry="0" color="#000000" color-rendering="auto" fill="#4e9a06" image-rendering="auto" opacity=".924" style="isolation:auto"/>
  <rect x="49.49" y="34.85" width="15.152" height="14.205" rx="0" ry="0" color="#000000" color-rendering="auto" fill="#204a87" image-rendering="auto" opacity=".924" style="isolation:auto"/>
  <rect x="254.55" y="34.85" width="15.152" height="14.205" rx="0" ry="0" color="#000000" color-rendering="auto" fill="#204a87" image-rendering="auto" opacity=".924" style="isolation:auto"/>
 </g>
</svg>
