<?xml version="1.0" encoding="UTF-8"?>
<svg width="300" height="65" version="1.1" viewBox="0 0 300 65" xmlns="http://www.w3.org/2000/svg">
 <g stroke="#000" stroke-width="1pt">
  <ellipse cx="26.425" cy="13.847" rx="9.7025" ry="3.8222" fill="#f00" fill-opacity=".75" fill-rule="evenodd"/>
  <ellipse cx="34.363" cy="35.604" rx="5.2923" ry="14.407" fill="#f00" fill-opacity=".75" fill-rule="evenodd"/>
  <ellipse cx="49.652" cy="17.375" rx="9.9965" ry="9.1145" fill="#f00" fill-opacity=".75" fill-rule="evenodd"/>
  <ellipse cx="62.588" cy="48.541" rx="15.289" ry="6.1743" fill="#f00" fill-opacity=".75" fill-rule="evenodd"/>
  <ellipse cx="65.529" cy="25.02" rx="16.465" ry="15.583" fill="#f00" fill-opacity=".75" fill-rule="evenodd"/>
  <ellipse cx="89.05" cy="26.784" rx="9.9965" ry="4.4102" fill="#f00" fill-opacity=".75" fill-rule="evenodd"/>
  <path d="m187.25 37.074c0.6781 0.38328-0.1821 1.1032-0.63704 1.1271-1.2328 0.06473-1.8327-1.3708-1.6171-2.4011 0.38567-1.843 2.4972-2.6329 4.1652-2.1071 2.4479 0.7716 3.4512 3.6368 2.5971 5.9293-1.1384 3.0556-4.7808 4.2769-7.6934 3.0872-3.6652-1.4972-5.1064-5.9269-3.5772-9.4575 1.8521-4.276 7.0742-5.938 11.222-4.0672 4.8876 2.2047 6.771 8.2222 4.5572 12.986-2.5559 5.4997-9.3706 7.6049-14.75 5.0473-6.1122-2.9062-8.4394-10.519-5.5373-16.514 3.2558-6.7249 11.668-9.2744 18.278-6.0273 7.3379 3.6049 10.11 12.818 6.5173 20.042" fill="none"/>
  <path d="m214.3 25.314c-0.6781-0.50121 0.34107-1.1614 0.83305-1.1271 1.3332 0.09294 1.7885 1.7145 1.4211 2.7931-0.65731 1.9295-3.0302 2.4999-4.7532 1.7151-2.5286-1.1517-3.229-4.3626-2.0091-6.7133 1.6259-3.1332 5.7007-3.9654 8.6734-2.3031 3.7409 2.0918 4.7056 7.0415 2.5971 10.634-2.5537 4.3504-8.3839 5.448-12.594 2.8912-4.9611-3.0132-6.1917-9.7271-3.1852-14.554 3.4712-5.5725 11.071-6.9364 16.514-3.4792 6.1845 3.9283 7.6817 12.415 3.7732 18.474-4.3847 6.7968-13.76 8.4274-20.434 4.0672-7.4094-4.8406-9.1735-15.105-4.3612-22.394" fill="none"/>
  <path d="m253.7 31.255c-1.7395 0.26535-1.2159-2.2139-0.44102-2.8912 2.0998-1.8353 5.1686-0.12213 6.2233 2.0091 1.8866 3.8123-0.76223 8.1619-4.4592 9.5555-5.4255 2.0451-11.206-1.6449-12.888-6.9094-2.2415-7.0168 2.5251-14.269 9.3595-16.22 8.6004-2.4546 17.342 3.4037 19.552 11.81 2.6765 10.181-4.2813 20.42-14.26 22.884-11.759 2.9035-23.502-5.1583-26.216-16.71-3.1338-13.337 6.0349-26.586 19.16-29.549 14.914-3.3662 29.672 6.9112 32.881 21.61 3.6002 16.49-7.7873 32.758-24.06 36.213-18.066 3.8353-35.846-8.6632-39.545-26.51" fill="none"/>
  <path d="m225.47 16.463c0.58965 0.32431-0.14625 0.95485-0.53903 0.98005-1.0644 0.06829-1.597-1.1659-1.4211-2.0581 0.31469-1.596 2.1309-2.2996 3.5772-1.8621 2.1225 0.64204 3.018 3.1072 2.3031 5.0963-0.95278 2.6511-4.0872 3.7428-6.6154 2.7441-3.1813-1.2567-4.4708-5.0691-3.1852-8.1344 1.5571-3.7126 6.0518-5.2008 9.6535-3.6262 4.2444 1.8556 5.9319 7.0352 4.0672 11.173-2.1529 4.7768-8.019 6.6638-12.692 4.5082-5.3094-2.4493-7.3963-9.003-4.9492-14.211 2.7452-5.8423 9.9873-8.1291 15.73-5.3903 6.3753 3.0407 8.8623 10.972 5.8313 17.249" fill="none"/>
  <path d="m125.71 42.362-14.404-3.9992-11.46 9.5986-0.64768-14.935-12.67-7.9333 14.004-5.2311 3.6297-14.502 9.3025 11.702 14.914-1.0292-8.2546 12.463z" color="#000000" fill="#ff0" fill-opacity=".75" fill-rule="evenodd"/>
  <path d="m131.43 40.934-9.6121-7.6866-11.781 3.5605 4.3401-11.517-7.0269-10.104 12.294 0.56876 7.4384-9.8054 3.2583 11.868 11.624 4.0443-10.281 6.7663z" color="#000000" fill="#ff0" fill-opacity=".75" fill-rule="evenodd"/>
  <path d="m149.29 34.862-10.28-1.5383-7.0953 7.5966-1.7138-10.253-9.4174-4.4005 9.2212-4.7982 1.275-10.316 7.4128 7.2871 10.205-1.9753-4.6398 9.3019z" color="#000000" fill="#ff0" fill-opacity=".75" fill-rule="evenodd"/>
  <path d="m166.79 26.291-10.51 1.7486-4.5176 9.6488-4.9106-9.4548-10.573-1.3148 7.4746-7.592-2.0166-10.461 9.5302 4.7627 9.3262-5.1507-1.5846 10.536z" color="#000000" fill="#ff0" fill-opacity=".75" fill-rule="evenodd"/>
  <path d="m184.64 21.648-5.3031-0.02752-3.0291 4.353-1.6126-5.0521-5.076-1.5357 4.3065-3.0948-0.10804-5.3021 4.2742 3.1394 5.0092-1.7412-1.6649 5.0351z" color="#000000" fill="#ff0" fill-opacity=".75" fill-rule="evenodd"/>
  <path d="m202.14 24.505-3.7067-1.0799-2.991 2.4413-0.11839-3.859-3.246-2.0902 3.6335-1.3051 0.9848-3.7331 2.364 3.0524 3.8547-0.21699-2.1725 3.1916z" color="#000000" fill="#ff0" fill-opacity=".75" fill-rule="evenodd"/>
 </g>
</svg>
