<?xml version="1.0" encoding="UTF-8"?>
<svg width="300" height="36" version="1.1" viewBox="0 0 300 36" xmlns="http://www.w3.org/2000/svg">
 <g fill="#dbdbdb" fill-rule="evenodd">
  <path d="m76.488 17.707c0 9.2086-12.397 16.674-27.689 16.674s-27.689-7.4651-27.689-16.674c0-9.2086 12.397-16.674 27.689-16.674s27.689 7.4651 27.689 16.674z"/>
  <path d="m103.03 17.707c0 9.2086-12.397 16.674-27.689 16.674s-27.689-7.4651-27.689-16.674c0-9.2086 12.397-16.674 27.689-16.674s27.689 7.4651 27.689 16.674z" stroke="#000" stroke-width=".96696pt"/>
  <path d="m132.9 17.707c0 9.2086-12.397 16.674-27.689 16.674-15.292 0-27.689-7.4651-27.689-16.674 0-9.2086 12.397-16.674 27.689-16.674 15.292 0 27.689 7.4651 27.689 16.674z" stroke="#000" stroke-opacity=".15692" stroke-width=".96696pt"/>
  <path d="m159.44 17.707c0 9.2086-12.397 16.674-27.689 16.674-15.292 0-27.689-7.4651-27.689-16.674 0-9.2086 12.397-16.674 27.689-16.674 15.292 0 27.689 7.4651 27.689 16.674z" stroke="#f00" stroke-width=".96696pt"/>
  <path d="m189.3 17.707c0 9.2086-12.397 16.674-27.689 16.674-15.292 0-27.689-7.4651-27.689-16.674 0-9.2086 12.397-16.674 27.689-16.674 15.292 0 27.689 7.4651 27.689 16.674z" stroke="#00ff7c" stroke-width=".96696pt"/>
  <path d="m222.48 17.707c0 9.2086-12.397 16.674-27.689 16.674-15.292 0-27.689-7.4651-27.689-16.674 0-9.2086 12.397-16.674 27.689-16.674 15.292 0 27.689 7.4651 27.689 16.674z" stroke="#16417c" stroke-width=".96696pt"/>
  <path d="m252.35 17.707c0 9.2086-12.397 16.674-27.689 16.674-15.292 0-27.689-7.4651-27.689-16.674 0-9.2086 12.397-16.674 27.689-16.674 15.292 0 27.689 7.4651 27.689 16.674z" stroke="#7c7016" stroke-width=".96696pt"/>
  <path d="m278.89 17.707c0 9.2086-12.397 16.674-27.689 16.674-15.292 0-27.689-7.4651-27.689-16.674 0-9.2086 12.397-16.674 27.689-16.674 15.292 0 27.689 7.4651 27.689 16.674z"/>
 </g>
</svg>
