<?xml version="1.0" encoding="UTF-8"?>
<svg width="300" height="41" version="1.1" viewBox="0 0 300 41" xmlns="http://www.w3.org/2000/svg" xmlns:xlink="http://www.w3.org/1999/xlink">
 <defs>
  <linearGradient id="l" x1="28.86" x2="31.507" y1="2043.7" y2="2084.7" gradientTransform="matrix(1.3307 0 0 .80132 -1.0602 -1632.8)" gradientUnits="userSpaceOnUse">
   <stop stop-color="#0082ab" offset="0"/>
   <stop stop-color="#0082ab" stop-opacity=".5" offset=".35"/>
   <stop stop-color="#0082ab" stop-opacity=".22" offset=".63"/>
   <stop stop-color="#0082ab" stop-opacity="0" offset="1"/>
  </linearGradient>
  <linearGradient id="k" x1="28.86" x2="31.507" y1="2043.7" y2="2084.7" gradientTransform="matrix(1.3307 0 0 .80132 27.286 -1632.8)" gradientUnits="userSpaceOnUse" xlink:href="#b"/>
  <radialGradient id="i" cx="31.577" cy="2062.9" r="22.221" gradientTransform="matrix(1.3307 0 0 .80132 62.719 -1632.8)" gradientUnits="userSpaceOnUse">
   <stop stop-color="#65ab00" stop-opacity="0" offset="0"/>
   <stop stop-color="#a79782" offset="1"/>
  </radialGradient>
  <radialGradient id="h" cx="31.577" cy="2062.9" r="22.221" gradientTransform="matrix(1.3307 0 0 .80132 94.609 -1632.8)" gradientUnits="userSpaceOnUse" xlink:href="#a"/>
  <linearGradient id="j" x1="8.0307" x2="56.199" y1="2028.4" y2="2028.4" gradientTransform="matrix(1.3084 0 0 .81497 137.13 -1632.8)" gradientUnits="userSpaceOnUse" xlink:href="#a"/>
  <linearGradient id="a">
   <stop stop-opacity=".5323" offset="0"/>
   <stop stop-color="#fff" stop-opacity="0" offset="1"/>
  </linearGradient>
  <radialGradient id="c" cx="24.338" cy="2034.3" r="24.697" gradientTransform="matrix(1.3084 0 0 .81497 137.13 -1632.8)" gradientUnits="userSpaceOnUse" xlink:href="#a"/>
  <radialGradient id="g" cx="39.346" cy="2014.9" r="25.29" gradientTransform="matrix(-1.3084 0 0 -.81497 263.68 1673.3)" gradientUnits="userSpaceOnUse">
   <stop stop-color="#ff2ee1" stop-opacity=".52923" offset="0"/>
   <stop stop-opacity="0" offset="1"/>
  </radialGradient>
  <radialGradient id="f" cx="48.498" cy="2012.6" r="40.477" gradientTransform="matrix(-1.3084 0 0 -.81497 263.68 1673.3)" gradientUnits="userSpaceOnUse">
   <stop stop-color="#7d4ad2" stop-opacity=".5323" offset="0"/>
   <stop stop-color="#fff" stop-opacity="0" offset="1"/>
  </radialGradient>
  <linearGradient id="b">
   <stop stop-color="#0082ab" stop-opacity="0" offset="0"/>
   <stop offset="1"/>
  </linearGradient>
  <radialGradient id="e" cx="39.612" cy="2014.7" r="33.929" gradientTransform="matrix(1.3084 0 0 .81497 215.08 -1632.8)" gradientUnits="userSpaceOnUse" xlink:href="#b"/>
  <radialGradient id="d" cx="32.115" cy="2028.4" r="24.084" gradientTransform="matrix(1.3084 0 0 .81497 215.08 -1632.8)" gradientUnits="userSpaceOnUse">
   <stop stop-color="#f56f52" stop-opacity="0" offset="0"/>
   <stop stop-color="#aba6a6" stop-opacity=".24314" offset="1"/>
  </radialGradient>
 </defs>
 <g fill-rule="evenodd">
  <path d="m70.526 20.278c0 9.8338-13.238 17.806-29.568 17.806s-29.568-7.9719-29.568-17.806 13.238-17.806 29.568-17.806 29.568 7.9719 29.568 17.806z" fill="url(#l)"/>
  <path d="m98.873 20.278c0 9.8338-13.238 17.806-29.568 17.806s-29.568-7.9719-29.568-17.806 13.238-17.806 29.568-17.806 29.568 7.9719 29.568 17.806z" fill="url(#k)"/>
  <path d="m134.31 20.278c0 9.8338-13.238 17.806-29.568 17.806-16.33 0-29.568-7.9719-29.568-17.806s13.238-17.806 29.568-17.806c16.33 0 29.568 7.9719 29.568 17.806z" fill="url(#i)"/>
  <path d="m166.2 20.278c0 9.8338-13.238 17.806-29.568 17.806s-29.568-7.9719-29.568-17.806 13.238-17.806 29.568-17.806 29.568 7.9719 29.568 17.806z" fill="url(#h)"/>
  <path d="m208.72 20.278c0 9.8338-13.238 17.806-29.568 17.806s-29.568-7.9719-29.568-17.806 13.238-17.806 29.568-17.806 29.568 7.9719 29.568 17.806z" fill="url(#c)" stroke="url(#j)" stroke-width="3.7625"/>
  <path d="m192.1 20.273c0-9.8338 13.238-17.806 29.568-17.806s29.568 7.9719 29.568 17.806-13.238 17.806-29.568 17.806-29.568-7.9719-29.568-17.806z" fill="url(#f)" stroke="url(#g)" stroke-width="3.7625"/>
  <path d="m286.67 20.278c0 9.8338-13.238 17.806-29.568 17.806s-29.568-7.9719-29.568-17.806 13.238-17.806 29.568-17.806 29.568 7.9719 29.568 17.806z" fill="url(#d)" stroke="url(#e)" stroke-dasharray="3.76251, 3.76251" stroke-width="3.7625"/>
 </g>
</svg>
