<svg xmlns="http://www.w3.org/2000/svg" viewBox="0 0 262.16 60.77"><g data-name="Calque 2"><path d="M27.37 11.53a6.57 6.57 0 004.13-1.36 4.49 4.49 0 001.77-3.5 4.49 4.49 0 00-1.77-3.51 6.63 6.63 0 00-4.13-1.36H5.89a6.62 6.62 0 00-4.12 1.36A4.46 4.46 0 000 6.67v49.15a4.46 4.46 0 001.77 3.5 6.56 6.56 0 004.12 1.36h21.48a6.57 6.57 0 004.13-1.36 4.36 4.36 0 000-7A6.57 6.57 0 0027.37 51H11.79V35.24h13.44a6.55 6.55 0 004.12-1.35 4.37 4.37 0 000-7 6.61 6.61 0 00-4.12-1.35H11.79v-14zm36.54 30.26a14.52 14.52 0 00-4.7-4.14l-10-5.57A4.41 4.41 0 0148 31a2.44 2.44 0 01-.48-1.26 2.5 2.5 0 01.3-1.43 3.06 3.06 0 011-1 4.49 4.49 0 012.63-.88 4.11 4.11 0 01.78.07 4.76 4.76 0 011.73.51 3.25 3.25 0 011.27.99 5 5 0 002.08 1.64 6.76 6.76 0 002.68.55 6.57 6.57 0 002.68-.56A5 5 0 0064.84 28a3.94 3.94 0 00.76-2.31 4.06 4.06 0 00-.78-2.38 15.9 15.9 0 00-10.8-6 18.73 18.73 0 00-2.47-.16 17.71 17.71 0 00-10.09 3.13 11.38 11.38 0 00-5.07 9.13c0 .3 0 .6.05.9.34 3.81 2.77 7.18 6.48 9.34L53 45.29a3.54 3.54 0 011.26 1.06 3.08 3.08 0 01.5 1.52 2.72 2.72 0 010 .28 2.67 2.67 0 01-.32 1.31 3.37 3.37 0 01-1.08 1.09 4.65 4.65 0 01-2.85 1 5.51 5.51 0 01-.89-.07 5 5 0 01-2-.56 3.15 3.15 0 01-1.24-1.16 5.74 5.74 0 00-4.74-2.19 7.29 7.29 0 00-2.8.56 4.47 4.47 0 00-2.78 4 4 4 0 00.77 2.34c2.4 3.37 6.36 5.53 11.14 6.15a20.07 20.07 0 002.55.16 17.63 17.63 0 0010.33-3.22A11.54 11.54 0 0066 48.18v-.93a11.14 11.14 0 00-2.09-5.46zm43.15-20.06a4.08 4.08 0 00-1.92-3.37 6.44 6.44 0 00-3.72-1.16 6.07 6.07 0 00-4.06 1.48L83.43 31.14V4.6a4.25 4.25 0 00-1.69-3.31 6.5 6.5 0 00-7.77 0 4.27 4.27 0 00-1.68 3.31v51.56A4.24 4.24 0 0074 59.47a6.5 6.5 0 007.77 0 4.22 4.22 0 001.69-3.31V44.72l2.34-2.06 10.8 15.79a4.93 4.93 0 002.07 1.75 6.39 6.39 0 002.66.57 6.69 6.69 0 002.67-.57 5 5 0 002.22-1.61 3.78 3.78 0 00.8-2.35 4.29 4.29 0 00-.74-2.37l-12.62-18.3 11.86-10.65a4.29 4.29 0 001.54-3.19zm14.1-3.26a6.5 6.5 0 00-7.77 0 4.25 4.25 0 00-1.68 3.32v34.37a4.21 4.21 0 001.68 3.31 6.5 6.5 0 007.77 0 4.22 4.22 0 001.69-3.31V21.79a4.26 4.26 0 00-1.69-3.32zM121.94 5a7.92 7.92 0 00-9.33 0 5.05 5.05 0 00-2 3.94 5.05 5.05 0 002 3.94 7.92 7.92 0 009.33 0 5 5 0 002-3.94 5 5 0 00-2-3.94zm58.75 16.34a18.38 18.38 0 00-11.43-3.81H137a6.2 6.2 0 00-3.88 1.29 4.24 4.24 0 00-1.69 3.31v34a4.22 4.22 0 001.69 3.31 6.14 6.14 0 003.88 1.32 6.29 6.29 0 003.84-1.28 4.24 4.24 0 001.73-3.32V26.74H153v29.42a4.22 4.22 0 001.69 3.31 6.16 6.16 0 003.88 1.29 6.27 6.27 0 003.84-1.28 4.24 4.24 0 001.73-3.32V26.74h5.17a6 6 0 013.75 1.2 3.55 3.55 0 011.42 2.79v25.43a4.25 4.25 0 001.69 3.31 6.16 6.16 0 003.83 1.29 6.24 6.24 0 003.84-1.28 4.24 4.24 0 001.73-3.32V30.73a12.08 12.08 0 00-4.88-9.39zm39.46-.34a19.13 19.13 0 00-22.94 0 12.07 12.07 0 00-4.84 9.38v17.19a12.07 12.07 0 004.84 9.43 19.17 19.17 0 0022.94 0 12.07 12.07 0 004.85-9.43V30.38a12.07 12.07 0 00-4.85-9.38zm-16.64 9.38a3.53 3.53 0 011.43-2.78 6.4 6.4 0 017.49 0 3.52 3.52 0 011.42 2.78v17.19a3.53 3.53 0 01-1.42 2.78 6.44 6.44 0 01-7.49 0 3.57 3.57 0 01-1.43-2.78zm56.92 22.12a6.23 6.23 0 00-3.84-1.29h-12.28c2.61-4 6.4-10.33 10.09-15.77l7.09-11.09a5.13 5.13 0 00.61-2.12 4 4 0 00-.9-2.42 5.16 5.16 0 00-2-1.64 6.21 6.21 0 00-2.67-.53h-21.42a6.25 6.25 0 00-3.89 1.29 4.11 4.11 0 000 6.63 6.25 6.25 0 003.89 1.29h12.16c-2.65 4-6.68 10.41-10.1 15.88q-3.39 5.28-7.09 11.08a3.6 3.6 0 00-.54 2.12 4.51 4.51 0 00.75 2.45 5.38 5.38 0 002.06 1.57 6.72 6.72 0 002.71.51h21.48a6.23 6.23 0 003.84-1.29 4 4 0 000-6.63z" data-name="Calque 1" fill="#fff"/></g></svg>