<svg width="14" height="14" viewBox="0 0 14 14" fill="none" xmlns="http://www.w3.org/2000/svg">
<path fill-rule="evenodd" clip-rule="evenodd" d="M5.66667 11.6666C2.53705 11.6666 0 9.12959 0 5.99998C0 2.87037 2.53705 0.333313 5.66667 0.333313C8.79628 0.333313 11.3333 2.87037 11.3333 5.99998C11.3333 7.32456 10.8789 8.54299 10.1173 9.50785L13.1381 12.5286C13.3984 12.7889 13.3984 13.211 13.1381 13.4714C12.8777 13.7317 12.4556 13.7317 12.1953 13.4714L9.17454 10.4507C8.20968 11.2122 6.99125 11.6666 5.66667 11.6666ZM8.77316 9.02115C8.75785 9.03395 8.74298 9.04753 8.7286 9.06191C8.71421 9.07629 8.70063 9.09116 8.68784 9.10647C7.90729 9.86572 6.84158 10.3333 5.66667 10.3333C3.27343 10.3333 1.33333 8.39321 1.33333 5.99998C1.33333 3.60675 3.27343 1.66665 5.66667 1.66665C8.0599 1.66665 10 3.60675 10 5.99998C10 7.1749 9.53241 8.2406 8.77316 9.02115Z" fill="#646464"/>
<mask id="mask0" mask-type="alpha" maskUnits="userSpaceOnUse" x="0" y="0" width="14" height="14">
<path fill-rule="evenodd" clip-rule="evenodd" d="M5.66667 11.6666C2.53705 11.6666 0 9.12959 0 5.99998C0 2.87037 2.53705 0.333313 5.66667 0.333313C8.79628 0.333313 11.3333 2.87037 11.3333 5.99998C11.3333 7.32456 10.8789 8.54299 10.1173 9.50785L13.1381 12.5286C13.3984 12.7889 13.3984 13.211 13.1381 13.4714C12.8777 13.7317 12.4556 13.7317 12.1953 13.4714L9.17454 10.4507C8.20968 11.2122 6.99125 11.6666 5.66667 11.6666ZM8.77316 9.02115C8.75785 9.03395 8.74298 9.04753 8.7286 9.06191C8.71421 9.07629 8.70063 9.09116 8.68784 9.10647C7.90729 9.86572 6.84158 10.3333 5.66667 10.3333C3.27343 10.3333 1.33333 8.39321 1.33333 5.99998C1.33333 3.60675 3.27343 1.66665 5.66667 1.66665C8.0599 1.66665 10 3.60675 10 5.99998C10 7.1749 9.53241 8.2406 8.77316 9.02115Z" fill="white"/>
</mask>
<g mask="url(#mask0)">
</g>
</svg>
