<?xml version="1.0" encoding="UTF-8"?>
<svg width="300" height="56" version="1.1" viewBox="0 0 300 56" xmlns="http://www.w3.org/2000/svg">
 <g fill="#ff6c2e" fill-rule="evenodd">
  <path transform="translate(.74678 -4695.7)" d="m50.828 4734.4c-1.6951 2.9695-10.766-0.6976-13.204 1.4944-2.3514 2.1141 1.2453 11.874-2.1784 12.514-3.5499 0.663-7.7974-13.202-11.064-13.777-3.15-0.5539-12.865 11.518-15.007 8.9875-2.2217-2.6243 11.205-13.462 9.5675-16.614-1.5794-3.0395-16.801-3.6503-16.676-7.0358 0.12881-3.5103 12.288 1.884 13.943-1.295 1.5961-3.0659-5.6904-16.679-2.9963-18.865 2.7934-2.2674 12.722 8.1772 16.16 8.1151 3.3159-0.06 2.6761-10.06 5.7046-8.993 3.1401 1.1062-1.9863 12.304 0.67033 14.414 2.5622 2.0357 13.343-3.344 14.971-0.3974 1.6875 3.0553-9.949 9.0801-10.348 12.451-0.3845 3.2512 12.093 6.1365 10.458 9.0004z" color="#000000"/>
  <path transform="translate(60.787 -4695.7)" d="m54.981 4728.4c-0.98106 3.217-14.81-0.063-16.811 2.5797-1.9244 2.5424 4.7037 10.947 2.0797 12.518-2.7274 1.6332-6.3559-5.9668-9.7008-5.7371-3.2181 0.221-10.322 7.7667-13.284 6.9199-3.0789-0.88 4.7336-9.3235 2.8693-12.092-1.7937-2.6638-13.286-0.012-14.273-2.973-1.0258-3.0776 8.7752-6.0303 9.5188-9.3353 0.71544-3.1798-8.3228-9.8768-6.3087-12.302 2.0934-2.5208 10.473 4.3437 13.315 2.5955 2.734-1.682 3.7062-14.814 6.87-14.803 3.2885 0.011 0.54914 17.19 3.7251 17.971 3.0556 0.7513 14.157-11.001 15.924-8.445 1.8371 2.6571-9.2451 13.466-8.3468 16.76 0.86429 3.1699 15.367 3.2485 14.423 6.3435z" color="#000000"/>
  <path transform="translate(120.83 -4695.7)" d="m52.391 4738.4c-1.6698 3.0151-13.282-7.4782-16.028-5.6143-2.649 1.7976-0.86361 17.743-4.0031 17.888-3.2553 0.1497-2.5749-12.013-5.9559-13.19-3.2608-1.1351-14.777 6.4465-17.295 4.5531-2.6118-1.9632 7.9554-13.134 6.41-16.128-1.4905-2.8879-14.539-2.1979-14.634-5.489-0.098892-3.4124 15.238 0.055 17.443-2.6425 2.1263-2.6011-5.4766-14.427-2.52-15.702 3.0656-1.3213 6.2602 6.2503 9.4967 6.0002 3.1214-0.2412 6.2222-12.359 9.3778-11.553 3.272 0.8362 2.0281 16.248 4.6179 18.556 2.4976 2.2264 14.237-5.2851 15.746-2.3349 1.5644 3.0591-13.438 10.222-13.574 13.76-0.13163 3.4125 12.531 8.9876 10.92 11.896z" color="#000000"/>
  <path transform="translate(180.87 -4695.7)" d="m49.555 4735.1c-1.7693 2.9355-9.5769-0.1479-12.32 1.5699-2.6455 1.6568-2.1019 14.19-5.3105 14.184-3.3269-0.01-6.7331-17.083-9.7996-18.561-2.9575-1.4254-7.9483 11.223-9.7975 8.6727-1.9174-2.6444 5.5804-12.623 4.4055-15.802-1.1331-3.0658-14.853-5.2513-14.352-8.3855 0.51938-3.2498 12.378 3.2171 14.054 0.1922 1.6165-2.9173-2.1737-14.554 0.7361-15.865 3.017-1.3598 9.2728 11.052 12.61 10.802 3.2183-0.2408 6.234-11.819 9.2835-10.345 3.1619 1.5284-4.1862 10.493-1.9296 13.072 2.1763 2.4871 17.753-1.491 18.267 1.5856 0.53322 3.19-13.85 5.5554-14.749 8.7186-0.86715 3.0509 10.608 7.3306 8.9012 10.162z" color="#000000"/>
  <path transform="translate(240.91 -4695.7)" d="m47.131 4741.3c-2.4289 2.4346-10.695-6.456-13.826-4.8668-3.0195 1.5327-2.6557 11.321-5.8693 11.551-3.3321 0.2388-1.9882-10.868-5.289-12.154-3.1834-1.2399-13.914 3.1779-15.416 0.459-1.5568-2.819 12.611-10.322 12.095-13.813-0.49765-3.367-17.46-5.6256-16.311-8.8056 1.1914-3.2972 13.369 4.8152 15.687 2.2743 2.236-2.4506-1.3809-12.655 1.403-14.204 2.8866-1.6067 7.9434 7.2122 11.44 6.8838 3.3721-0.3167 8.7096-9.1965 11.589-7.9401 2.9856 1.3027-4.4989 11.562-2.9394 14.445 1.5041 2.7807 16.416 2.8228 16.386 6.061-0.03077 3.3577-12.902 4.7491-14.093 8.084-1.149 3.2164 7.4856 9.6776 5.1431 12.026z" color="#000000"/>
 </g>
</svg>
