<?xml version="1.0" encoding="UTF-8"?>
<svg width="300" height="118" version="1.1" viewBox="0 0 300 118" xmlns="http://www.w3.org/2000/svg">
 <path d="m24.144 104.24c2.7791 3.7564 6.4087 5.1731 11.382 2.8602 26.823-12.475-56.989-59.761-29.79-71.508 27.199-11.747 25.265 87.849 52.236 76.242 26.971-11.607-56.467-67.308-28.777-77.603 27.69-10.294 7.0162 73.482 34.735 63.684 27.718-9.7975-43.989-71.264-16.1-81.384 27.889-10.12 4.1466 94.151 32.397 85.845 28.25-8.3067-51.656-81.195-23.506-89.693 28.15-8.4974 9.9923 96.39 38.231 88.623 28.238-7.767-51.435-86.823-22.562-93.565 28.873-6.7419-5.9939 87.526 22.486 81.247 28.48-6.2792-36.719-73.987-7.4533-78.575 29.265-4.5883-8.7525 80.65 20.501 77.284 29.253-3.3669-29.743-79.094-0.55411-82.366 29.188-3.2718-9.2728 88.578 19.932 85.56 29.205-3.0179-25.593-87.212 3.972-88.397 29.565-1.1849-27.403 87.781 2.1774 86.254 29.581-1.5265-16.35-80.604 13.044-80.666 29.394-0.062957-16.694 74.165 12.464 74.675 29.158 0.5102-29.718-83.647-0.1842-82.515 29.534 1.1319-21.801 86.658 7.6569 88.685 29.458 2.0274-12.713-85.425 16.633-83.38 29.345 2.0446-32.303 75.006-2.8803 78.223 29.423 3.217-9.7596-84.579 19.253-79.693 29.013 4.8855-40.215 80.645-11.259 86.257 28.956 5.6117-8.6294-92.579 20.199-86.98 28.829 5.5989-26.561 80.969 1.9704 88.104 28.532 7.1346-3.754-85.33 24.358-77.751 28.112 7.579-47.681 69.624-19.582 77.632 28.099 8.0076-0.47163-82.436 27.507-73.7 27.978 8.7361-43.799 67.275-15.81 76.555 27.989 9.28 8.7689-75.894 36.257-65.588 27.488 10.305-54.757 72.598-27.2 82.663 27.557 10.066 15.514-93.32 42.681-82.339 27.168 10.981-49.913 72.714-23.293 84.61 26.62 11.896 12.888-95.814 39.391-82.869 26.094 12.745-57.212 71.789-34.912 86.787" color="#000000" fill="none" stroke="#d9d9d9" stroke-width=".45653"/>
 <path d="m264.96 83.496c-1.3411 1.6531-2.5529 2.8627-3.2839 2.4117-2.1863-1.3489 0.22208-16.613-1.9759-17.9-2.4274-1.4221-4.1841 8.4166-6.6257 7.0323-2.2106-1.2537 6.084-5.6396 3.8069-6.7999-2.5149-1.2812-9.6596 3.3718-12.205 2.1796-2.305-1.0799-1.5561-8.7576-3.8651-9.8512-2.5498-1.2078-2.2052 9.3764-4.8237 8.2819-2.3713-0.99095 4.3984-10.997 2.0341-11.943-2.6109-1.0454-13.508 9.0103-16.128 8.0203-2.3726-0.89642 7.091-7.9149 4.6785-8.7468-2.6644-0.91874-9.4879 9.1248-12.176 8.2529-2.434-0.78957 4.9343-14.378 2.4992-15.111-2.6893-0.80882-7.0328 7.2781-9.7641 6.5674-2.4732-0.64351 3.2408-6.9797 0.75569-7.5554-2.7445-0.63574-6.5712 9.5234-9.299 8.834-2.47-0.62423-4.4952-8.5953-7.0033-9.0374-2.7698-0.48827-1.9943 7.5058-4.7657 6.9452-2.5098-0.50769 1.8352-13.861-0.69746-14.239-2.7967-0.41739-4.5429 10.986-7.3229 10.578-2.5174-0.36965-0.7895-7.2762-3.3418-7.5845-2.8187-0.3404-9.7027 7.3118-12.495 7.0324-2.529-0.25305 5.3868-7.5784 2.8185-7.7298-2.836-0.16719-10.453 9.7003-13.28 9.5315-2.5601-0.15289 1.9245-11.237-0.63923-11.275-2.8311-0.04204-5.5844 9.8344-8.3982 9.8511-2.5477 0.01512-2.8341-13.47-5.376-13.367-2.8066 0.11333 0.74189 10.865-2.0921 11.072-2.5664 0.1871-3.0149-5.0487-5.5504-4.8529-2.8 0.21627-0.32384 4.9052-3.1094 5.2307-2.5224 0.29476-7.36-8.8851-9.88-8.5434-2.783 0.37726-1.7525 14.216-4.5623 14.646-2.5445 0.38942 0.41483-12.093-2.0923-11.595-2.7686 0.55088-1.5863 9.4683-4.3298 10.055-2.4843 0.53088-4.2429-12.04-6.7127-11.42-2.7274 0.68465 2.4208 13.788-0.29057 14.501-2.4552 0.64569-7.8468-10.892-10.287-10.171-2.6947 0.79695 1.9017 10.841-0.81365 11.595-2.4589 0.68226-9.1852-5.5074-11.595-4.6786-2.6609 0.91533 4.3155 10.975 1.6564 11.943-2.408 0.8771-6.4825-13.456-8.8631-12.554-2.629 0.99633 0.47382 16.217-2.1504 17.29-2.3763 0.97161-8.0786-15.493-10.403-14.442-2.5671 1.1606 7.1929 13.039 4.6204 14.239-2.3295 1.0871-12.6-6.8707-14.878-5.6955-2.5163 1.2978 8.3078 8.965 5.7828 10.229-2.2864 1.1447-8.9291-11.402-11.13-10.142-2.4302 1.3921 1.0602 12.132-1.3948 13.484-2.2231 1.2242-5.0336-5.064-7.2358-3.7776-2.4319 1.4206 3.8947 7.4762 1.482 8.9792-1.4447 0.89997-5.0008-2.6441-7.9041-4.8237" color="#000000" fill="none" stroke="#000" stroke-width=".69741"/>
 <path transform="matrix(.0094748 .0094748 -.0094748 .0094748 182.66 22.435)" d="m586.43 1426.2c-43.667 223.11-607.31-342.5-726.14-152.6-112.6 179.95 553.03 440.4 382.13 578.64-180.35 145.88-273.96-407.71-456.45-305.84-172.93 96.54-11.436 801.22-215.59 792.77-215.44-8.9183-83.98-767.01-303.44-842.74-207.96-71.765-426.09 622.49-600.81 515.36-184.38-113.05 354.61-587.55 223.54-773.32-124.21-176.04-522.91 318.63-603.81 115.21-85.375-214.66 303.14-189.77 324.77-409.72 20.494-208.42-506.85-141.74-455.73-344.73 53.949-214.21 691.12 193.59 847.25 59.021 147.96-127.52-367.81-470.08-183.99-586 193.98-122.32 341.59 357.45 556.79 280.72 203.93-72.708-292.41-729.02-70.122-723.97 234.58 5.3314 103.61 441.76 304.16 552.87 190.04 105.3 296.29-451.98 460.08-332.45 172.84 126.14-122.18 713.87 42.573 871.44 156.12 149.32 631.61-214.95 669.22-24.661 39.686 200.81-672.27 93.024-650.52 316.18 20.609 211.46 497.47 202.37 456.09 413.8z"/>
 <path transform="matrix(-.021306 0 0 -.024022 190.57 44.459)" d="m-461.01 1115.3c-89.538 41.738 75.071 313.48-16.994 344.62-98.551 33.334-21.146-293.77-140.04-305.43-111.07-10.889-111.45 326.3-202.38 279.97-97.331-49.594 83.587-124.57-8.1317-203.06-85.682-73.323-217.39 121-280.89 31.032-67.975-96.308 330.65-149.53 269.94-249.98-56.718-93.843-231.23 102.18-214.25-10.462 18.177-120.58 209.33-120.37 257.35-210.48 44.861-84.179-352.93-87.957-262.91-151.1 96.361-67.587 261.55 92.715 343.88 25.883 76.915-62.433-65.717-224.3 28.274-248.05 100.61-25.415-3.6735 213.89 114.04 241.54 109.96 25.833 122.88-255.01 205.82-199.99 88.781 58.89-72.685 131.53 16.178 214.57 83.015 77.57 253.34-68.348 311.9 11.528 62.687 85.503-314.71 4.0496-297.71 106.42 15.877 95.633 215.94 192.39 225.53 293.11 10.262 107.82-238.61-200.83-268.63-95.332-28.048 98.552 356.81 219.96 305.42 308.31-55.017 94.569-290.54-227.77-386.39-183.1z"/>
 <path transform="matrix(.0033738 .0058436 -.0058436 .0033738 129.14 86.207)" d="m1192.9-27.844c482.92 745.56 2478-79.189 2577.5 724.7 110.82 895.29-2260.4 135.2-2413.8 1083.6-137.7 851.54 2372.7 1191.8 1776.1 1742.2-664.37 612.91-1875.6-2082.8-2485.4-1340.6-547.54 666.41 1284.1 2154 488.74 2366.5-885.81 236.69-327.1-871.42-1212.1-704.88-794.67 149.53-1006 2531.5-1792.1 2199-875.51-370.23 215.82-2086.9-630.41-2610.7-759.83-470.37-646.4 1051.7-1051.4 224.45-451-921.26 1293.3-948.13 719.9-1705.4-514.84-679.99-2808.3 351.22-2892.3-503.15-93.511-951.51 2411.2 176.55 2464.2-721.76 47.573-806.61-2506.4-1245.3-1870.9-1908.7 707.73-738.9 1743.6 498.18 2577.5-27.557 748.71-472.06-1190-1457.1-315.06-1613.5 974.37-174.21 1798.9 855.02 2800.7 879.21 899.56 21.72-605.38-1743.7 274.02-1624.4 979.39 132.79-545.19 2655.8 315.59 2977.2 772.9 288.6 1449.9-1912.1 1911.9-1176.7 514.54 819.08-1780.6 910.36-1242.7 1740.7z"/>
 <path transform="matrix(-.0080158 0 0 -.0060546 71.624 38.771)" d="m-588.58-1237.5c467.43-23.464-60.181 1036.9 375.09 1257.2 378.77 191.71 563.66-436.79 875.13-141.04 357.93 339.87-464.71 212.17-396.03 674.57 59.767 402.38 1333 182.42 1226.9 572.14-122 447.86-1057.6 282.96-1244.1 717.47-162.35 378.11 678.15 506.94 313.48 713.63-419.07 237.52-421.33-855.01-908.3-886.58-423.76-27.47-847.11 1206.8-1171.1 947.7-372.38-297.79 553.11-986.91 143.95-1326.3-356.05-295.33-1063.4 758.95-1074.6 341.38-12.866-479.86 1041.5-607.49 1031.8-1137.5-8.4117-461.25-1145.3-356.26-833.04-656.03 358.81-344.49 684.57 339.49 1117.7 40.252 376.94-260.39 136.38-1096.5 543.13-1116.9z"/>
 <path transform="matrix(-.0059092 0 0 -.0044634 64.65 86.72)" d="m-624.47-581.43c325.22 56.055 9.0386 753.22 309.98 918.23 234.36 128.5 581.31-539.04 760.22-379.93 229.74 204.3-465.84 517.23-317.07 802.07 115.86 221.83 895.33-44.684 853.46 194.02-53.765 306.52-699.32 70.319-850.97 383.69-118.1 244.04 261.11 693.64 5.9323 752.21-327.67 75.209-268.13-428.54-571.07-381.87-235.92 36.343-425.66 907.59-636.9 739.05-271.25-216.43 198.89-667.12-80.939-853.57-217.92-145.2-642.09-86.641-720.66-317.79-100.89-296.82 544.95-125.88 616.97-441.64 56.082-245.9-582.08-516.88-375.45-681.65 265.33-211.58 294.71 291.45 603.54 157.11 240.5-104.62 149.68-933.57 402.95-889.91z"/>
 <path transform="matrix(.9375 0 0 .9375 221.35 74.908)" d="m7.5344 13.786c-0.97597 2.7758-5.2867 0.77712-7.2988 3.1091-2.0121 2.332-0.60535 3.8413-3.4395 5.193-2.8341 1.3518-1.0092-3.7658-3.9602-4.2701-2.951-0.5043-4.6784 7.2092-7.448 6.2459s1.4076-6.6712-0.21625-9.4457c-1.6239-2.7746-3.5127 1.5343-3.5138-1.4269-0.0012-2.9613 4.3468-2.5599 5.0005-5.4526 0.6537-2.8927-5.1332-5.0283-2.9815-7.138 2.1517-2.1097 3.5647 2.7816 6.3556 2.3854 2.7909-0.3962 1.4114-8.7288 4.1531-8.0908 2.7417 0.6379 1.7223 5.5753 4.4164 6.9468 2.6941 1.3715 7.1204-1.4208 8.6496 1.0544 1.5292 2.4752-6.0994 3.2936-5.9018 6.4833 0.19761 3.1896 7.1605 1.6305 6.1845 4.4063z" stroke-width=".011048"/>
 <path transform="matrix(.9375 0 0 .9375 161.27 90.961)" d="m-2.0772 11.911c-0.31867 1.94 3.1277 2.2745 1.8426 3.8315s-4.115-2.0037-5.936-1.245 0.93551 4.5191-1.0718 4.4922c-2.0073-0.02688 0.93611-4.3105-0.80738-5.5017-1.7435-1.1912-3.0455 3.6828-3.8641 1.6307s2.2055-2.0647 1.8843-4.1994c-0.32116-2.1347-3.8887-0.22801-3.3619-2.3396 0.52679-2.1116 3.3935 0.69879 5.0354-0.48164s-2.8928-4.444-0.91986-5.2841c1.973-0.84011 1.0145 5.2884 3.1364 5.3948 2.1219 0.10639 2.8011-4.9676 4.5781-4.0556 1.777 0.91206-3.6333 1.7285-2.7849 3.7339 0.84846 2.0054 5.9769-0.12464 5.8202 2.0387-0.15672 2.1633-3.2325 0.045389-3.5512 1.9853z" stroke-width=".011048"/>
</svg>
