<?xml version="1.0" encoding="UTF-8"?>
<svg width="300" height="65" version="1.1" viewBox="0 0 300 65" xmlns="http://www.w3.org/2000/svg">
 <g stroke-width="1pt">
  <text x="32.67231" y="6" fill="#000000" font-family="'Liberation Sans',Arial,sans-serif" style="line-height:0%" xml:space="preserve"><tspan x="32.67231" y="6" font-size="6px" style="line-height:1.1">0,2</tspan></text>
  <text x="92.364853" y="6" fill="#000000" font-family="'Liberation Sans',Arial,sans-serif" style="line-height:0%" xml:space="preserve"><tspan x="92.364853" y="6" font-size="6px" style="line-height:1.1">0,5</tspan></text>
  <text x="272.38589" y="6" fill="#000000" font-family="'Liberation Sans',Arial,sans-serif" style="line-height:0%" xml:space="preserve"><tspan x="272.38589" y="6" font-size="6px" style="line-height:1.1">6</tspan></text>
  <text x="214.92252" y="6" fill="#000000" font-family="'Liberation Sans',Arial,sans-serif" style="line-height:0%" xml:space="preserve"><tspan x="214.92252" y="6" font-size="6px" style="line-height:1.1">2</tspan></text>
  <text x="154.44792" y="6" fill="#000000" font-family="'Liberation Sans',Arial,sans-serif" style="line-height:0%" xml:space="preserve"><tspan x="154.44792" y="6" font-size="6px" style="line-height:1.1">1</tspan></text>
  <path transform="scale(-1,1)" d="m-156.82 36.121c0.41727 0.57226-0.56552 0.84481-0.95113 0.69354-1.045-0.40994-1.0018-1.8239-0.43594-2.5958 1.0122-1.3808 3.0572-1.2408 4.2405-0.17834 1.7364 1.5592 1.4898 4.3083-0.0793 5.8851-2.0913 2.1016-5.5659 1.7432-7.5298-0.33685-2.4713-2.6175-1.999-6.8266 0.59445-9.1745 3.141-2.8436 8.089-2.2561 10.819 0.85205 3.2173 3.6628 2.5141 9.3526-1.1096 12.464-4.1837 3.592-10.617 2.7726-14.108-1.3672-3.9674-4.704-3.0316-11.882 1.6248-15.753 5.2238-4.3432 13.147-3.2908 17.398 1.8824 4.7194 5.7433 3.5503 14.412-2.14 19.042-6.2625 5.0958-15.678 3.8099-20.687-2.3976-5.4724-6.7816-4.0696-16.944 2.6552-22.332 7.3006-5.8492 18.21-4.3295 23.976 2.9128 6.2262 7.8194 4.5894 19.476-3.1704 25.621-8.3381 6.6032-20.742 4.8494-27.266-3.428-6.9804-8.8568-5.1095-22.008 3.6856-28.91 9.3754-7.3575 23.275-5.3696 30.555 3.9432 7.7348 9.8939 5.6298 24.541-4.2008 32.2-10.412 8.1121-25.807 5.8899-33.844-4.4584-8.4895-10.931-6.1502-27.074 4.716-35.489 11.449-8.8669 28.34-6.4104 37.134 4.9736 9.2443 11.968 6.6707 29.607-5.2312 38.778" color="#000000" fill="none" stroke="#000"/>
  <path transform="scale(-1,1)" d="m-217.05 34.694c0.0128 0.01759-0.0319 0.02917-0.0396 0.0289-0.0891-0.0032-0.10029-0.12539-0.076-0.18742 0.0733-0.18692 0.32401-0.1903 0.47227-0.10155 0.3131 0.18742 0.30124 0.6274 0.10568 0.89416-0.34434 0.46971-1.036 0.43358-1.4531 0.08835-0.65739-0.54413-0.5875-1.55-0.0495-2.1491 0.7869-0.87637 2.1694-0.76307 2.9822 0.01073 1.1267 1.0727 0.96031 2.8943-0.0925 3.9523-1.4016 1.4085-3.7247 1.1793-5.0595-0.19567-1.7218-1.7736-1.4199-4.6607 0.32034-6.3037 2.1888-2.0665 5.7022-1.6822 7.685 0.46648 2.4427 2.6471 1.9663 6.8492-0.63408 9.2034-3.1485 2.8504-8.1018 2.272-10.859-0.82315-3.2895-3.6931-2.5995-9.46 1.0337-12.651 4.2809-3.7601 10.924-2.9487 14.581 1.2657 4.2622 4.9118 3.3196 12.493-1.5192 16.647-5.5859 4.7958-14.168 3.7121-18.851-1.7941-5.3609-6.3031-4.1264-15.948 2.0905-21.192 7.0635-5.9574 17.834-4.5625 23.669 2.4084 6.5854 7.8671 5.0202 19.826-2.7477 26.284-8.7139 7.245-21.923 5.4996-29.036-3.1085-7.9359-9.6038-6.0008-24.125 3.4908-31.925 10.537-8.6584 26.434-6.5236 34.951 3.8945 9.4124 11.513 7.0682 28.848-4.3197 38.114" color="#000000" fill="none" stroke="#000"/>
  <path transform="scale(-1,1)" d="m-277.29 29.463c-1e-5 2e-6 -1e-5 -6e-6 -1e-5 -7e-6 0-4.3e-5 7e-5 -5.7e-5 9e-5 -5.6e-5 2.6e-4 9e-6 3.1e-4 3.7e-4 2.7e-4 5.53e-4 -1.7e-4 9.61e-4 -1e-3 0.0011-2e-3 8.71e-4 -3e-3 -8.42e-4 -3e-3 -0.0046-2e-3 -0.0069 3e-3 -0.0071 0.0122-0.0075 0.0181-0.0047 0.0155 0.0073 0.0159 0.0283 9e-3 0.04156-0.0167 0.03097-0.0593 0.03114-0.0863 0.01497-0.0575-0.03443-0.0567-0.11483-0.0236-0.16574 0.0654-0.10069 0.20849-0.09745 0.29871-0.03485 0.16791 0.1165 0.1599 0.35897 0.0485 0.51097-0.19708 0.26884-0.59116 0.25228-0.83663 0.06374-0.41576-0.31934-0.38497-0.9374-0.0793-1.3198 0.4989-0.62405 1.4388-0.57081 2.0164-0.09271 0.91266 0.75542 0.82547 2.1468 0.10067 2.9961-1.1132 1.3046-3.1245 1.1678-4.3445 0.09832-1.8275-1.602-1.6202-4.4489-0.0792-6.1651 2.2575-2.5142 6.2121-2.2092 8.582-0.0349 3.4033 3.1224 2.9657 8.5236-0.0453 11.742-4.2468 4.54-11.512 3.9256-15.819-0.17464-5.9764-5.6898-5.1302-15.329 0.36947-21.013 7.5195-7.7726 20.147-6.6268 27.558 0.64943 9.9973 9.8149 8.4692 26.167-1.038 35.721" color="#000000" fill="none" stroke="#000"/>
  <path transform="scale(-1,1)" d="m-96.58 37.072c2.6555 3.6418-2.0606 5.3029-4.6596 3.3976-3.2858-2.4088-2.798-7.3215-0.14538-9.9872 3.591-3.6087 9.5797-2.9358 12.876 0.70479 4.0049 4.4238 3.1466 11.407-1.2754 15.204-5.1117 4.3887-12.983 3.3679-17.214-1.7219-4.7502-5.7134-3.5854-14.387 2.0967-19.011 6.2556-5.0901 15.667-3.7952 20.65 2.4243 5.4109 6.7534 3.9968 16.851-2.7182 22.168-7.2164 5.7149-17.956 4.1904-23.589-2.9864-6.0043-7.651-4.3765-18.998 3.2345-24.928 8.0621-6.281 19.986-4.5557 26.198 3.4663 6.5464 8.4529 4.7287 20.927-3.6844 27.41-8.8264 6.8016-21.827 4.896-28.57-3.891-7.0479-9.1846-5.058-22.692 4.0876-29.685 9.5293-7.2859 23.525-5.2152 30.759 4.2756 7.5166 9.8619 5.3679 24.33-4.456 31.797-10.184 7.7404-25.109 5.5166-32.802-4.6296-7.9581-10.495-5.6615-25.865 4.7971-33.778 10.798-8.17 26.599-5.8028 34.725 4.959 8.3766 11.093 5.9409 27.313-5.116 35.648-11.38 8.5782-28.009 6.0759-36.547-5.2684-8.7753-11.659-6.208-28.688 5.4166-37.425 11.933-8.9681 29.352-6.3373 38.283 5.561 9.1568 12.2 6.4642 30.001-5.7017 39.122" color="#000000" fill="none" stroke="#000"/>
  <path transform="scale(-1,1)" d="m-36.343 37.072c9.9592 13.658-4.981 16.344-12.09 8.8153-6.1702-6.5352-4.7374-17.131 1.9634-22.703 7.5862-6.3074 19.127-4.7041 25.186 2.9057 6.5555 8.2329 4.7964 20.526-3.4284 26.934-8.7186 6.7925-21.622 4.9108-28.312-3.7895-7.0074-9.1134-5.0257-22.533 4.0659-29.462 9.449-7.2018 23.317-5.1357 30.456 4.2904 7.3788 9.7422 5.2394 24.007-4.4799 31.334-10.004 7.5411-24.626 5.3369-32.123-4.6443-7.691-10.24-5.4286-25.189 4.7898-32.841 10.457-7.8305 25.705-5.5151 33.501 4.9204 7.9608 10.656 5.5968 26.183-5.0392 34.112-10.842 8.0833-26.628 5.6744-34.683-5.1482-8.199-11.016-5.7481-27.045 5.249-35.218 11.179-8.3085 27.439-5.8183 35.723 5.3429 8.4126 11.334 5.8855 27.81-5.4308 36.201-11.48 8.5118-28.163 5.9498-36.654-5.5135-8.6067-11.62-6.0115-28.499 5.5917-37.086 11.752-8.6975 28.82-6.0708 37.499 5.6658 8.7848 11.88 6.1279 29.128-5.7363 37.895-12.002 8.8687-29.422 6.1831-38.274-5.8036-8.9496-12.119-6.2363-29.706 5.8679-38.64 12.232-9.0277 29.979-6.2878 38.991 5.9296 9.1032 12.34 6.3377 30.242-5.9888 39.331" color="#000000" fill="none" stroke="#000"/>
 </g>
</svg>
