<?xml version="1.0" encoding="UTF-8"?>
<svg width="300" height="126" version="1.1" viewBox="0 0 300 126" xmlns="http://www.w3.org/2000/svg">
 <g>
  <g transform="translate(-4.0509 -3203.9)">
   <path d="m78.137 3274.7-47.158-26.974" fill="none" stroke="#d3d3d3" stroke-width=".25pt"/>
   <path d="m82.405 3271.7-40.649-39.784" fill="none" stroke="#d3d3d3" stroke-width=".25pt"/>
   <path transform="matrix(1.1577 0 0 1.1577 21.522 -466.22)" d="m11.441 3210a59.578 58.56 0 0 1 9.4681-12.128" color="#000000" fill="none" stroke="#d3d3d3" stroke-width=".64783"/>
   <text transform="matrix(.70939 0 0 .70939 10.286 1617.1)" x="30.19973" y="2289.2708" fill="#d3d3d3" font-family="'Liberation Sans',Arial,sans-serif" stroke-width="1pt" style="line-height:0%" xml:space="preserve"><tspan x="30.19973" y="2289.2708" dx="0 -0.23659326" dy="0 0" font-size="8.4px" style="line-height:1.2">15</tspan></text>
   <circle transform="matrix(.88208 0 0 .88208 4.5191 381.48)" cx="40.483" cy="3238" r=".89163" color="#000000" fill="none" stroke="#d3d3d3" stroke-width=".48604"/>
  </g>
  <text x="57.387905" y="6" fill="#000000" font-family="'Liberation Sans',Arial,sans-serif" stroke-width="1pt" text-align="center" text-anchor="middle" style="line-height:0%" xml:space="preserve"><tspan x="75" y="6" font-size="6px" text-align="center" text-anchor="middle" style="line-height:1.1">Segments</tspan></text>
  <text x="220.38005" y="6" fill="#000000" font-family="'Liberation Sans',Arial,sans-serif" stroke-width="1pt" text-align="center" text-anchor="middle" style="line-height:0%" xml:space="preserve"><tspan x="225" y="6" font-size="6px" text-align="center" text-anchor="middle" style="line-height:1.1">Arcs</tspan></text>
  <path d="m70.009 88.102a30.71 10.853 0 0 1-9.4975-10.507 30.71 10.853 0 0 1 21.435-8.0181 30.71 10.853 0 0 1 30.225 2.7537l-21.716 7.6739z" color="#000000" fill="none" stroke="#000" stroke-width=".75"/>
  <path d="m70.009 103.11a30.71 30.963 0 0 1-9.4975-29.977 30.71 30.963 0 0 1 21.435-22.876 30.71 30.963 0 0 1 30.225 7.8565l-21.716 21.894z" color="#000000" fill="none" stroke="#000" stroke-width=".75"/>
  <path d="m70.009 123.7a30.71 58.56 0 0 1-9.4975-56.697 30.71 58.56 0 0 1 21.435-43.265 30.71 58.56 0 0 1 30.225 14.859l-21.716 41.408z" color="#000000" fill="none" stroke="#000" stroke-width=".75"/>
  <path d="m50.789 123.7a59.578 58.56 0 0 1-19.907-44.503l59.573 0.80863z" color="#000000" fill="none" stroke="#000" stroke-width=".75"/>
  <path d="m50.789 123.7a59.578 58.56 0 0 1-11.93-72.975l51.596 29.28z" color="#000000" fill="none" stroke="#000" stroke-width=".75"/>
  <path d="m50.789 123.7a59.578 58.56 0 0 1-19.888-42.03 59.578 58.56 0 0 1 17.426-43.073l42.128 41.408z" color="#000000" fill="none" stroke="#000" stroke-width=".75"/>
  <path d="m50.789 123.7a59.578 58.56 0 0 1-19.6-49.685 59.578 58.56 0 0 1 29.477-44.724l29.789 50.715z" color="#000000" fill="none" stroke="#000" stroke-width=".75"/>
  <path d="m80.374 123.7a15.141 58.56 0 0 1-4.9811-49.685 15.141 58.56 0 0 1 7.4912-44.724l7.5706 50.715z" color="#000000" fill="none" stroke="#000" stroke-width=".75"/>
  <path d="m40.423 88.102a75.148 10.853 0 0 1-23.24-10.507 75.148 10.853 0 0 1 52.45-8.0181 75.148 10.853 0 0 1 73.959 2.7537l-53.137 7.6739z" color="#000000" fill="none" stroke="#000" stroke-width=".75"/>
  <path d="m211.43 88.102a30.71 10.853 0 0 1-9.4975-10.507 30.71 10.853 0 0 1 21.435-8.0181 30.71 10.853 0 0 1 30.225 2.7537" color="#000000" fill="none" stroke="#000" stroke-width=".75"/>
  <path d="m211.43 103.11a30.71 30.963 0 0 1-9.4975-29.977 30.71 30.963 0 0 1 21.435-22.876 30.71 30.963 0 0 1 30.225 7.8565" color="#000000" fill="none" stroke="#000" stroke-width=".75"/>
  <path d="m211.43 123.7a30.71 58.56 0 0 1-9.4975-56.697 30.71 58.56 0 0 1 21.435-43.265 30.71 58.56 0 0 1 30.225 14.859" color="#000000" fill="none" stroke="#000" stroke-width=".75"/>
  <path d="m192.21 123.7a59.578 58.56 0 0 1-19.907-44.503" color="#000000" fill="none" stroke="#000" stroke-width=".75"/>
  <path d="m192.21 123.7a59.578 58.56 0 0 1-11.93-72.975" color="#000000" fill="none" stroke="#000" stroke-width=".75"/>
  <path d="m192.21 123.7a59.578 58.56 0 0 1-19.888-42.03 59.578 58.56 0 0 1 17.426-43.073" color="#000000" fill="none" stroke="#000" stroke-width=".75"/>
  <path d="m192.21 123.7a59.578 58.56 0 0 1-19.6-49.685 59.578 58.56 0 0 1 29.477-44.724" color="#000000" fill="none" stroke="#000" stroke-width=".75"/>
  <path d="m221.79 123.7a15.141 58.56 0 0 1-4.9811-49.685 15.141 58.56 0 0 1 7.4912-44.724" color="#000000" fill="none" stroke="#000" stroke-width=".75"/>
  <path d="m181.84 88.102a75.148 10.853 0 0 1-23.24-10.507 75.148 10.853 0 0 1 52.45-8.0181 75.148 10.853 0 0 1 73.959 2.7537" color="#000000" fill="none" stroke="#000" stroke-width=".75"/>
  <path d="m50.789 123.7a59.578 58.56 0 0 1-17.882-58.851l57.548 15.156z" color="#000000" fill="none" stroke="#000" stroke-width=".75"/>
 </g>
</svg>
