<?xml version="1.0" encoding="UTF-8"?>
<svg width="300" height="67" version="1.1" viewBox="0 0 300 67" xmlns="http://www.w3.org/2000/svg">
 <g>
  <text x="263.96066" y="6" fill="#000000" font-family="'Liberation Sans',Arial,sans-serif" stroke-width="1pt" style="line-height:0%" xml:space="preserve"><tspan x="263.96066" y="6" font-size="6px" style="line-height:1.1">+0,2</tspan></text>
  <text x="202.69716" y="6" fill="#000000" font-family="'Liberation Sans',Arial,sans-serif" stroke-width="1pt" style="line-height:0%" xml:space="preserve"><tspan x="202.69716" y="6" font-size="6px" style="line-height:1.1">+0,1</tspan></text>
  <text x="141.22896" y="6" fill="#000000" font-family="'Liberation Sans',Arial,sans-serif" stroke-width="1pt" style="line-height:0%" xml:space="preserve"><tspan x="141.22896" y="6" font-size="6px" style="line-height:1.1">0</tspan></text>
  <text x="72.826973" y="6" fill="#000000" font-family="'Liberation Sans',Arial,sans-serif" stroke-width="1pt" style="line-height:0%" xml:space="preserve"><tspan x="72.826973" y="6" font-size="6px" style="line-height:1.1">−0,1</tspan></text>
  <text x="16.134069" y="6" fill="#000000" font-family="'Liberation Sans',Arial,sans-serif" stroke-width="1pt" style="line-height:0%" xml:space="preserve"><tspan x="16.134069" y="6" font-size="6px" style="line-height:1.1">−0,2</tspan></text>
  <path transform="translate(180 -4686.5)" d="m52.391 4738.4c-1.6698 3.0151-13.282-7.4782-16.028-5.6143-2.649 1.7976-0.86361 17.743-4.0031 17.888-3.2553 0.1497-2.5749-12.013-5.9559-13.19-3.2608-1.1351-14.777 6.4465-17.295 4.5531-2.6118-1.9632 7.9554-13.134 6.41-16.128-1.4905-2.8879-14.539-2.1979-14.634-5.489-0.098892-3.4124 15.238 0.055 17.443-2.6425 2.1263-2.6011-5.4766-14.427-2.52-15.702 3.0656-1.3213 6.2602 6.2503 9.4967 6.0002 3.1214-0.2412 6.2222-12.359 9.3778-11.553 3.272 0.8362 2.0281 16.248 4.6179 18.556 2.4976 2.2264 14.237-5.2851 15.746-2.3349 1.5644 3.0591-13.438 10.222-13.574 13.76-0.13163 3.4125 12.531 8.9876 10.92 11.896z" color="#000000" fill="#ff6c2e" fill-rule="evenodd"/>
  <path d="m167.3 49.695c-1.8364 2.8807-12.512-4.1447-15.363-2.2621-2.7494 1.8156-0.0484 14.255-3.3248 14.603-3.3972 0.36032-4.5608-12.367-7.8101-13.422-3.1338-1.0176-11.175 8.8502-13.49 6.5052-2.3999-2.4314 6.825-11.276 5.624-14.474-1.1583-3.0845-13.887-3.2193-13.497-6.4909 0.40467-3.3923 13.071-1.6946 14.823-4.6277 1.6894-2.8288-6.1415-12.865-3.3403-14.599 2.9045-1.7987 9.4748 9.1631 12.86 8.7038 3.2649-0.44289 6.2287-12.823 9.3315-11.714 3.2172 1.1494-1.2565 13.121 1.2132 15.481 2.3819 2.2765 13.909-3.1249 14.976-0.0079 1.1072 3.2319-11.042 7.1983-11.347 10.601-0.29473 3.2816 11.115 8.9258 9.3439 11.704z" color="#000000" fill="#ff6c2e" fill-rule="evenodd"/>
  <path transform="translate(242.78 -4686.5)" d="m53.698 4740.7c-1.4934 3.1399-14.05-10.809-16.693-8.9665-2.5495 1.7773-1.6909 21.214-4.6814 21.172-3.1008-0.043-0.59275-11.654-4.1017-12.959-3.3842-1.2582-18.458 4.0355-21.101 2.601-2.7408-1.4874 9.055-15.027 7.1961-17.781-1.7928-2.6563-15.193-1.2481-15.771-4.487-0.59958-3.3583 17.437 1.7332 20.063-0.6573 2.532-2.3055-4.7386-15.998-1.6996-16.804 3.151-0.8362 3.0578 3.3563 6.1332 3.2967 2.966-0.058 6.2446-11.895 9.4242-11.391 3.2968 0.5229 5.3135 19.38 8.0225 21.631 2.6127 2.171 14.591-7.3828 16.515-4.6617 1.9946 2.8215-15.847 13.254-15.802 16.92 0.04407 3.535 13.937 9.0588 12.496 12.087z" color="#000000" fill="#ff6c2e" fill-rule="evenodd"/>
  <path transform="translate(48.894 -4686.5)" d="m49.776 4734c-1.9929 2.7374-11.742-0.8088-14.698 1.0901-2.8507 1.8315 0.75324 10.751-2.6466 11.318-3.5252 0.5884-6.5503-12.714-9.6643-13.653-3.0033-0.906-7.6544 11.233-9.6844 8.4573-2.1048-2.8777 5.6678-9.4591 4.8379-12.821-0.80038-3.2425-13.228-4.312-12.36-7.4928 0.90013-3.2982 10.925-3.5171 12.203-6.6129 1.2324-2.9857-6.734-11.321-4.1607-13.497 2.6682-2.2566 12.703 12.094 16.224 11.407 3.395-0.6619 6.2644-13.283 9.2852-11.876 3.1321 1.4595-4.5407 9.9996-2.1914 12.406 2.2658 2.3213 13.597-0.8997 14.207 2.319 0.63289 3.3373-8.6588 4.1823-9.1201 7.4414-0.44485 3.1433 9.6897 8.8727 7.7676 11.513z" color="#000000" fill="#ff6c2e" fill-rule="evenodd"/>
  <path transform="translate(-7.7989 -4686.5)" d="m48.469 4731.8c-2.1388 2.5856-10.971 2.5293-14.033 4.4423-2.9528 1.8449 1.5397 7.2299-1.9683 8.0333-3.6374 0.8329-8.5431-13.055-11.518-13.885-2.8696-0.8003-4.2115 13.58-5.8788 10.41-1.7288-3.2874 4.4886-7.6854 4.0519-11.168-0.42124-3.3586-12.55-5.4742-11.222-8.4948 1.3767-3.132 8.7888-5.4137 9.5835-8.5981 0.76636-3.0711-7.2562-9.807-4.9811-12.395 2.359-2.6829 15.947 15.041 19.587 14.111 3.5102-0.8972 6.3291-13.738 9.2388-12.037 3.017 1.7635-7.8247 6.8838-5.5961 9.3317 2.1494 2.3608 13.292 1.3918 13.438 4.6458 0.15112 3.3739-6.2898 1.173-6.8929 4.282-0.58167 2.9985 8.2541 8.8275 6.1914 11.321z" color="#000000" fill="#ff6c2e" fill-rule="evenodd"/>
 </g>
</svg>
