<?xml version="1.0" encoding="UTF-8"?>
<svg width="300" height="100" version="1.1" viewBox="0 0 300 100" xmlns="http://www.w3.org/2000/svg" xmlns:xlink="http://www.w3.org/1999/xlink">
 <path transform="matrix(1.3205 0 0 1.3205 81.599 -18)" d="m59.611 24.998c-0.50206 1.2545-0.97522 2.2794-1.5098 3.7539-0.96525 2.6626-1.9689 5.4729-3.3047 8.0098s-2.9812 5.2962-6.6094 6.3066c-3.8103 1.0611-6.8271-0.50977-9.5254-2.0684-2.6983-1.5586-5.2823-3.5495-7.7109-5.3457-1.1815-0.87387-1.9789-1.283-3.0215-1.9785 0.63974 0.82111 0.94529 1.3743 1.7031 2.2773 1.9005 2.2646 4.0096 4.684 5.6953 7.2422 1.6857 2.5582 3.4684 5.4708 2.4668 9.3613-0.98617 3.8304-3.8538 5.6571-6.5527 7.2148-2.6989 1.5577-5.7144 2.8004-8.4844 4.0059-1.3493 0.58719-2.1039 1.073-3.2285 1.6289 1.0319-0.14351 1.6658-0.13096 2.8281-0.33594 2.9114-0.51346 6.0609-1.1299 9.1191-1.3105 3.0583-0.18066 6.4715-0.26966 9.3398 2.543 2.824 2.7691 2.9712 6.1672 2.9707 9.2832-4.63e-4 3.116-0.43038 6.3484-0.77148 9.3496-0.16596 1.4603-0.12221 2.3548-0.20312 3.6055 0.3914-0.96477 0.71777-1.5071 1.1211-2.6152 1.0112-2.7781 2.053-5.8139 3.4258-8.5527 1.3728-2.7389 3.0011-5.7386 6.8711-6.8164 3.8103-1.0611 6.8271 0.50977 9.5254 2.0684 2.6983 1.5586 5.2823 3.5495 7.7109 5.3457 1.1829 0.87492 1.9818 1.2845 3.0254 1.9805-0.64038-0.82226-0.94813-1.3767-1.707-2.2812-1.9003-2.2649-4.0099-4.6838-5.6953-7.2422s-3.4665-5.471-2.4648-9.3613c0.98614-3.8302 3.854-5.6573 6.5527-7.2148 2.6988-1.5576 5.7146-2.8007 8.4844-4.0059 1.348-0.58657 2.1008-1.0715 3.2246-1.627-1.0313 0.14347-1.6647 0.1311-2.8262 0.33594-2.9114 0.51346-6.0609 1.1299-9.1191 1.3105-3.0583 0.18066-6.4715 0.26966-9.3398-2.543-2.824-2.7691-2.9712-6.1672-2.9707-9.2832 4.64e-4 -3.116 0.43039-6.3484 0.77148-9.3496 0.16992-1.4951 0.12894-2.4188 0.20898-3.6914z" fill="#ffb800" fill-opacity=".75" fill-rule="evenodd" stroke="#000" stroke-width=".4733" xlink:href="#a"/>
 <path transform="matrix(.82737 0 0 .82737 205.21 10.537)" d="m61.764 6.3711c-0.9524-0.070252-1.9292-0.037675-2.875 0.11523-7.0573 1.141-9.2522 5.9054-10.797 8.8848s-2.5202 5.854-3.4766 8.4922c-0.46301 1.2772-0.79617 1.9575-1.2148 3.0098-1.26-0.87437-2.3558-1.5931-3.9199-2.75-2.5357-1.8754-5.1695-3.9158-8.7285-5.5586-1.7795-0.82141-3.8655-1.6305-6.7598-1.7227-2.8943-0.09217-6.8125 1.0768-9.3887 3.4922-2.6034 2.4409-4.0892 6.7228-3.9355 9.8047s1.1221 5.1369 2.0352 6.8496c1.8261 3.4255 3.9634 5.8262 5.9434 8.1855 1.1486 1.3687 1.8333 2.3037 2.7285 3.4316-1.3871 0.6541-2.5563 1.2434-4.3398 2.0195-2.8921 1.2586-5.9757 2.5202-9.1777 4.7812-1.601 1.1305-3.3443 2.5319-4.8711 4.9922-1.5268 2.4603-2.4756 6.4381-1.6719 9.877 0.81216 3.475 3.7777 6.9026 6.5234 8.3105 2.7458 1.4079 5.0114 1.5964 6.9512 1.6621 3.8796 0.13141 7.0254-0.5178 10.059-1.0527 1.7595-0.31031 2.9116-0.4372 4.3359-0.64844-0.12713 1.5279-0.20033 2.8355-0.41992 4.7676-0.35614 3.1336-0.80624 6.4344-0.44922 10.338 0.17851 1.9518 0.51931 4.1624 1.8867 6.7148 1.3674 2.5524 4.3391 5.3615 7.7188 6.3848 3.4155 1.0342 7.8688 0.17971 10.461-1.4941 2.5921-1.6738 3.8872-3.5405 4.9141-5.1875 2.0537-3.294 3.0637-6.344 4.1172-9.2383 0.61095-1.6786 1.0763-2.7391 1.6055-4.0781 1.2599 0.87427 2.3561 1.5914 3.9199 2.748 2.5357 1.8754 5.1695 3.9158 8.7285 5.5586 1.7795 0.82141 3.8655 1.6305 6.7598 1.7227 2.8943 0.09217 6.8125-1.0768 9.3887-3.4922 2.6034-2.4409 4.089-6.723 3.9355-9.8047s-1.1223-5.1368-2.0352-6.8496c-1.8257-3.4257-3.9617-5.826-5.9414-8.1855-1.1482-1.3686-1.8335-2.3037-2.7285-3.4316 1.387-0.65398 2.5564-1.2454 4.3398-2.0215 2.8919-1.2584 5.9737-2.5184 9.1758-4.7793 1.601-1.1305 3.3443-2.5318 4.8711-4.9922 1.5268-2.4604 2.4755-6.4384 1.6719-9.877-0.81216-3.475-3.7777-6.9026-6.5234-8.3105-2.7458-1.4079-5.0114-1.5964-6.9512-1.6621-3.8796-0.13141-7.0254 0.5178-10.059 1.0527-1.7595 0.31031-2.9116 0.4372-4.3359 0.64844 0.12713-1.5279 0.20033-2.8355 0.41992-4.7676 0.35614-3.1336 0.80624-6.4344 0.44922-10.338-0.17851-1.9518-0.51931-4.1624-1.8867-6.7148-1.3674-2.5524-4.3391-5.3615-7.7188-6.3848-0.85307-0.25829-1.782-0.4317-2.7344-0.50195z" color="#000000" fill="#ffb800" fill-opacity=".75" fill-rule="evenodd" stroke="#000" stroke-width=".75541" xlink:href="#a"/>
 <path id="a" d="m81.03 86.054c-5.1006 4.7823-18.876-13.111-25.612-11.235-6.4503 1.7964-8.2138 24.38-14.622 22.439-6.6919-2.0262 1.9161-22.903-3.0761-27.798-4.7809-4.688-25.22 5.0765-26.744-1.4436-1.5912-6.8084 20.792-9.7919 22.536-16.563 1.6695-6.4844-17.007-19.303-12.122-23.883 5.1006-4.7823 18.876 13.111 25.612 11.235 6.4503-1.7964 8.2138-24.38 14.622-22.439 6.6919 2.0262-1.9161 22.903 3.0761 27.798 4.7809 4.688 25.22-5.0765 26.744 1.4436 1.5912 6.8084-20.792 9.7919-22.536 16.563-1.6695 6.4844 17.007 19.303 12.122 23.883z" color="#000000" fill="#ffb800" fill-opacity=".75" fill-rule="evenodd" stroke="#000" stroke-width=".625"/>
 <text x="51.01371" y="6" font-family="'Liberation Sans',Arial,sans-serif" font-size="6px" text-align="center" text-anchor="middle" style="line-height:1.25" xml:space="preserve"><tspan x="51.01371" y="6">Étoile originale</tspan></text>
 <text x="144.32384" y="6" font-family="'Liberation Sans',Arial,sans-serif" font-size="6px" text-align="center" text-anchor="middle" style="line-height:1.25" xml:space="preserve"><tspan x="144.32384" y="6">Décalage lié, érodé</tspan></text>
 <text x="246.51053" y="6" font-family="'Liberation Sans',Arial,sans-serif" font-size="6px" text-align="center" text-anchor="middle" style="line-height:1.25" xml:space="preserve"><tspan x="246.51053" y="6">Décalage lié, dilaté</tspan></text>
</svg>
