<?xml version="1.0" encoding="UTF-8"?>
<svg width="300" height="98" version="1.1" viewBox="0 0 300 98" xmlns="http://www.w3.org/2000/svg">
 <g fill="none" stroke="#000">
  <path transform="matrix(-.17215 .64245 -.64245 -.17215 4253.6 1103.7)" d="m103.2 6518.4c0.36965 0.459-0.43058 0.7245-0.75891 0.6112-0.87059-0.3005-0.88847-1.4597-0.45146-2.1142 0.77579-1.1617 2.4473-1.1256 3.4519-0.3021 1.4666 1.2021 1.3714 3.4426 0.15551 4.7817-1.6141 1.7777-4.4386 1.6205-6.106 0.01-2.0915-2.0198-1.8712-5.4337 0.13398-7.4261 2.422-2.4066 6.4275-2.1227 8.7428 0.2775 2.7221 2.822 2.3744 7.42-0.42059 10.057-3.2204 3.038-8.411 2.6263-11.368-0.5632-3.3538-3.6174-2.8781-9.4007 0.70542-12.677 4.0136-3.6696 10.389-3.1299 13.984 0.8473 3.9852 4.4089 3.3816 11.377-0.98896 15.29-4.8035 4.3007-12.363 3.6331-16.594-1.1304-4.616-5.1975-3.8845-13.348 1.2715-17.896 5.5909-4.9311 14.333-4.1359 19.197 1.4124 5.246 5.9839 4.387 15.316-1.5533 20.497-6.3764 5.5608-16.299 4.638-21.795-1.6939-5.8753-6.7685-4.8888-17.281 1.8344-23.092 7.1602-6.1896 18.262-5.1395 24.389 1.9747 6.5038 7.5516 5.39 19.242-2.1149 25.684-7.9426 6.8178-20.222 5.6404-26.979-2.255-7.1316-8.3333-5.8908-21.201 2.3949-28.272 8.7238-7.4453 22.179-6.1409 29.565 2.5347 7.7588 9.114 6.3909 23.157-2.6744 30.857-9.5039 8.0721-24.134 6.6409-32.148-2.814-8.3853-9.8936-6.8906-25.111 2.9536-33.438 10.283-8.6983 26.087-7.1404 34.728 3.093 9.0112 10.672 7.3899 27.063-3.2324 36.017-11.061 9.3239-28.038 7.6393-37.305-3.3716-9.6365-11.45-7.8887-29.013 3.5108-38.593 11.839-9.9489 29.987-8.1379 39.88 3.6499 10.261 12.227 8.387 30.961-3.7889 41.166-12.615 10.574-31.934 8.6361-42.452-3.9279-10.886-13.003-8.885-32.907 4.0668-43.737 13.391-11.198 33.88-9.1339 45.022 4.2056 11.509 13.779 9.3826 34.852-4.3444 46.306-14.166 11.821-35.824 9.6313-47.59-4.483-12.133-14.554-9.8798-36.795 4.6217-48.873 14.941-12.444 37.766-10.128 50.156 4.7603 12.756 15.328 10.377 38.737-4.8988 51.438-15.715 13.067-39.707 10.625-52.72-5.0372-13.378-16.102-10.873-40.677 5.1757-54.002 16.488-13.689 41.647-11.122 55.282 5.314 14 16.875 11.37 42.616-5.4523 56.563-17.261 14.311-43.585 11.618-57.843-5.5906-14.622-17.647-11.866-44.554 5.7288-59.123 18.033-14.933 45.522-12.113 60.402 5.8669 15.243 18.419 12.361 46.49-6.005 61.681-18.805 15.554-47.458 12.609-62.959-6.1431-15.864-19.191-12.857-48.426 6.2811-64.237 19.577-16.174 49.393-13.104 65.515 6.4191 16.485 19.962 13.352 50.36-6.5571 66.793-20.348 16.795-51.327 13.599-68.07-6.695-17.105-20.733-13.847-52.293 6.8328-69.346 21.118-17.415 53.259-14.094 70.623 6.9706 17.725 21.503 14.341 54.225-7.1084 71.899-21.888 18.035-55.191 14.588-73.174-7.2461-18.345-22.273-14.836-56.156 7.3839-74.45 22.658-18.654 57.122-15.083 75.725 7.5215 18.964 23.043 15.33 58.087-7.6592 77-23.427 19.274-59.051 15.577-78.274-7.7967-19.583-23.812-15.824-60.016 7.9343-79.548 24.196-19.893 60.98-16.07 80.822 8.0719 20.202 24.581 16.317 61.944-8.2093 82.096-24.965 20.511-62.908 16.564-83.369-8.3468-20.821-25.349-16.811-63.872 8.4842-84.642 25.733-21.13 64.836-17.058 85.915 8.6216 21.439 26.117 17.304 65.799-8.759 87.187-26.501 21.748-66.762 17.551-88.459-8.8963-22.057-26.885-17.797-67.725 9.0336-89.731 27.269-22.366 68.687-18.044 91.003 9.1709 22.675 27.653 18.29 69.65-9.3081 92.274-28.036 22.984-70.612 18.536-93.546-9.4454-23.292-28.42-18.783-71.574 9.5825-94.816 28.803-23.601 72.536-19.029 96.087 9.7196 6.5075 7.9438 11.19 17.336 13.625 27.312" color="#000000" stroke-dasharray="1.875, 1.875" stroke-width="3.75"/>
  <path transform="matrix(-.17929 .65451 -.66912 -.17538 4627.6 1123.6)" d="m103.2 6518.4c0.36965 0.459-0.43058 0.7245-0.75891 0.6112-0.87059-0.3005-0.88847-1.4597-0.45146-2.1142 0.77579-1.1617 2.4473-1.1256 3.4519-0.3021 1.4666 1.2021 1.3714 3.4426 0.15551 4.7817-1.6141 1.7777-4.4386 1.6205-6.106 0.01-2.0915-2.0198-1.8712-5.4337 0.13398-7.4261 2.422-2.4066 6.4275-2.1227 8.7428 0.2775 2.7221 2.822 2.3744 7.42-0.42059 10.057-3.2204 3.038-8.411 2.6263-11.368-0.5632-3.3538-3.6174-2.8781-9.4007 0.70542-12.677 4.0136-3.6696 10.389-3.1299 13.984 0.8473 3.9852 4.4089 3.3816 11.377-0.98896 15.29-4.8035 4.3007-12.363 3.6331-16.594-1.1304-4.616-5.1975-3.8845-13.348 1.2715-17.896 5.5909-4.9311 14.333-4.1359 19.197 1.4124 5.246 5.9839 4.387 15.316-1.5533 20.497-6.3764 5.5608-16.299 4.638-21.795-1.6939-5.8753-6.7685-4.8888-17.281 1.8344-23.092 7.1602-6.1896 18.262-5.1395 24.389 1.9747 6.5038 7.5516 5.39 19.242-2.1149 25.684-7.9426 6.8178-20.222 5.6404-26.979-2.255-7.1316-8.3333-5.8908-21.201 2.3949-28.272 8.7238-7.4453 22.179-6.1409 29.565 2.5347 7.7588 9.114 6.3909 23.157-2.6744 30.857-9.5039 8.0721-24.134 6.6409-32.148-2.814-8.3853-9.8936-6.8906-25.111 2.9536-33.438 10.283-8.6983 26.087-7.1404 34.728 3.093 9.0112 10.672 7.3899 27.063-3.2324 36.017-11.061 9.3239-28.038 7.6393-37.305-3.3716-9.6365-11.45-7.8887-29.013 3.5108-38.593 11.839-9.9489 29.987-8.1379 39.88 3.6499 10.261 12.227 8.387 30.961-3.7889 41.166-12.615 10.574-31.934 8.6361-42.452-3.9279-10.886-13.003-8.885-32.907 4.0668-43.737 13.391-11.198 33.88-9.1339 45.022 4.2056 11.509 13.779 9.3826 34.852-4.3444 46.306-14.166 11.821-35.824 9.6313-47.59-4.483-12.133-14.554-9.8798-36.795 4.6217-48.873 14.941-12.444 37.766-10.128 50.156 4.7603 12.756 15.328 10.377 38.737-4.8988 51.438-15.715 13.067-39.707 10.625-52.72-5.0372-13.378-16.102-10.873-40.677 5.1757-54.002 16.488-13.689 41.647-11.122 55.282 5.314 14 16.875 11.37 42.616-5.4523 56.563-17.261 14.311-43.585 11.618-57.843-5.5906-14.622-17.647-11.866-44.554 5.7288-59.123 18.033-14.933 45.522-12.113 60.402 5.8669 15.243 18.419 12.361 46.49-6.005 61.681-18.805 15.554-47.458 12.609-62.959-6.1431-15.864-19.191-12.857-48.426 6.2811-64.237 19.577-16.174 49.393-13.104 65.515 6.4191 16.485 19.962 13.352 50.36-6.5571 66.793-20.348 16.795-51.327 13.599-68.07-6.695-17.105-20.733-13.847-52.293 6.8328-69.346 21.118-17.415 53.259-14.094 70.623 6.9706 17.725 21.503 14.341 54.225-7.1084 71.899-21.888 18.035-55.191 14.588-73.174-7.2461-18.345-22.273-14.836-56.156 7.3839-74.45 22.658-18.654 57.122-15.083 75.725 7.5215 18.964 23.043 15.33 58.087-7.6592 77-23.427 19.274-59.051 15.577-78.274-7.7967-19.583-23.812-15.824-60.016 7.9343-79.548 24.196-19.893 60.98-16.07 80.822 8.0719 20.202 24.581 16.317 61.944-8.2093 82.096-24.965 20.511-62.908 16.564-83.369-8.3468-20.821-25.349-16.811-63.872 8.4842-84.642 25.733-21.13 64.836-17.058 85.915 8.6216 21.439 26.117 17.304 65.799-8.759 87.187-26.501 21.748-66.762 17.551-88.459-8.8963-22.057-26.885-17.797-67.725 9.0336-89.731 27.269-22.366 68.687-18.044 91.003 9.1709 22.675 27.653 18.29 69.65-9.3081 92.274-28.036 22.984-70.612 18.536-93.546-9.4454-23.292-28.42-18.783-71.574 9.5825-94.816 28.803-23.601 72.536-19.029 96.087 9.7196 6.5075 7.9438 11.19 17.336 13.625 27.312" color="#000000" stroke-dasharray="3.75, 3.75" stroke-width="7.5"/>
  <path transform="matrix(-.17929 .65451 -.66912 -.17538 4526.2 1123.2)" d="m103.2 6518.4c0.36965 0.459-0.43058 0.7245-0.75891 0.6112-0.87059-0.3005-0.88847-1.4597-0.45146-2.1142 0.77579-1.1617 2.4473-1.1256 3.4519-0.3021 1.4666 1.2021 1.3714 3.4426 0.15551 4.7817-1.6141 1.7777-4.4386 1.6205-6.106 0.01-2.0915-2.0198-1.8712-5.4337 0.13398-7.4261 2.422-2.4066 6.4275-2.1227 8.7428 0.2775 2.7221 2.822 2.3744 7.42-0.42059 10.057-3.2204 3.038-8.411 2.6263-11.368-0.5632-3.3538-3.6174-2.8781-9.4007 0.70542-12.677 4.0136-3.6696 10.389-3.1299 13.984 0.8473 3.9852 4.4089 3.3816 11.377-0.98896 15.29-4.8035 4.3007-12.363 3.6331-16.594-1.1304-4.616-5.1975-3.8845-13.348 1.2715-17.896 5.5909-4.9311 14.333-4.1359 19.197 1.4124 5.246 5.9839 4.387 15.316-1.5533 20.497-6.3764 5.5608-16.299 4.638-21.795-1.6939-5.8753-6.7685-4.8888-17.281 1.8344-23.092 7.1602-6.1896 18.262-5.1395 24.389 1.9747 6.5038 7.5516 5.39 19.242-2.1149 25.684-7.9426 6.8178-20.222 5.6404-26.979-2.255-7.1316-8.3333-5.8908-21.201 2.3949-28.272 8.7238-7.4453 22.179-6.1409 29.565 2.5347 7.7588 9.114 6.3909 23.157-2.6744 30.857-9.5039 8.0721-24.134 6.6409-32.148-2.814-8.3853-9.8936-6.8906-25.111 2.9536-33.438 10.283-8.6983 26.087-7.1404 34.728 3.093 9.0112 10.672 7.3899 27.063-3.2324 36.017-11.061 9.3239-28.038 7.6393-37.305-3.3716-9.6365-11.45-7.8887-29.013 3.5108-38.593 11.839-9.9489 29.987-8.1379 39.88 3.6499 10.261 12.227 8.387 30.961-3.7889 41.166-12.615 10.574-31.934 8.6361-42.452-3.9279-10.886-13.003-8.885-32.907 4.0668-43.737 13.391-11.198 33.88-9.1339 45.022 4.2056 11.509 13.779 9.3826 34.852-4.3444 46.306-14.166 11.821-35.824 9.6313-47.59-4.483-12.133-14.554-9.8798-36.795 4.6217-48.873 14.941-12.444 37.766-10.128 50.156 4.7603 12.756 15.328 10.377 38.737-4.8988 51.438-15.715 13.067-39.707 10.625-52.72-5.0372-13.378-16.102-10.873-40.677 5.1757-54.002 16.488-13.689 41.647-11.122 55.282 5.314 14 16.875 11.37 42.616-5.4523 56.563-17.261 14.311-43.585 11.618-57.843-5.5906-14.622-17.647-11.866-44.554 5.7288-59.123 18.033-14.933 45.522-12.113 60.402 5.8669 15.243 18.419 12.361 46.49-6.005 61.681-18.805 15.554-47.458 12.609-62.959-6.1431-15.864-19.191-12.857-48.426 6.2811-64.237 19.577-16.174 49.393-13.104 65.515 6.4191 16.485 19.962 13.352 50.36-6.5571 66.793-20.348 16.795-51.327 13.599-68.07-6.695-17.105-20.733-13.847-52.293 6.8328-69.346 21.118-17.415 53.259-14.094 70.623 6.9706 17.725 21.503 14.341 54.225-7.1084 71.899-21.888 18.035-55.191 14.588-73.174-7.2461-18.345-22.273-14.836-56.156 7.3839-74.45 22.658-18.654 57.122-15.083 75.725 7.5215 18.964 23.043 15.33 58.087-7.6592 77-23.427 19.274-59.051 15.577-78.274-7.7967-19.583-23.812-15.824-60.016 7.9343-79.548 24.196-19.893 60.98-16.07 80.822 8.0719 20.202 24.581 16.317 61.944-8.2093 82.096-24.965 20.511-62.908 16.564-83.369-8.3468-20.821-25.349-16.811-63.872 8.4842-84.642 25.733-21.13 64.836-17.058 85.915 8.6216 21.439 26.117 17.304 65.799-8.759 87.187-26.501 21.748-66.762 17.551-88.459-8.8963-22.057-26.885-17.797-67.725 9.0336-89.731 27.269-22.366 68.687-18.044 91.003 9.1709 22.675 27.653 18.29 69.65-9.3081 92.274-28.036 22.984-70.612 18.536-93.546-9.4454-23.292-28.42-18.783-71.574 9.5825-94.816 28.803-23.601 72.536-19.029 96.087 9.7196 6.5075 7.9438 11.19 17.336 13.625 27.312" color="#000000" stroke-dasharray="0.604293, 7.25151" stroke-width=".60429"/>
 </g>
</svg>
