<?xml version="1.0" encoding="UTF-8"?>
<svg width="300" height="126" version="1.1" viewBox="0 0 300 126" xmlns="http://www.w3.org/2000/svg">
 <g>
  <rect transform="matrix(.91237 -.40937 0 1 0 0)" x="250.79" y="190.56" width="18.786" height="14.448" color="#000000" fill="#ff6300" fill-rule="evenodd" stroke="#fff" stroke-width=".39259"/>
  <rect transform="matrix(.91237 -.40937 0 1 0 0)" x="191.48" y="105.21" width="17.586" height="41.475" color="#000000" fill="#ff6300" fill-rule="evenodd" stroke="#fff" stroke-width=".39259"/>
  <rect transform="matrix(.99472 .10266 0 1 0 0)" x="132.29" y="48.988" width="57.99" height="15.283" color="#000000" fill="#ff6300" fill-rule="evenodd" stroke="#fff" stroke-width=".376"/>
  <rect transform="matrix(.9948 .10183 -.91351 .40681 0 0)" x="54.733" y="19.414" width="32.88" height="18.241" color="#000000" fill="#ff6300" fill-rule="evenodd" stroke="#fff" stroke-width=".375"/>
  <rect transform="matrix(.91237 -.40937 0 1 0 0)" x="61.764" y="53.566" width="18.205" height="30.551" color="#000000" fill="#ff6300" fill-rule="evenodd" stroke="#fff" stroke-width=".375"/>
  <rect transform="matrix(.99472 .10266 0 1 0 0)" x="16.075" y="23.226" width="32.942" height="30.543" color="#000000" fill="#ff6300" fill-rule="evenodd" stroke="#fff" stroke-width=".375"/>
  <rect transform="matrix(.9948 .10183 -.91351 .40681 0 0)" x="222.65" y="79.728" width="72.439" height="18.241" color="#000000" fill="#ff6300" fill-rule="evenodd" stroke="#fff" stroke-width=".53154"/>
  <rect transform="matrix(.91237 -.40937 0 1 0 0)" x="199.96" y="161.72" width="41.99" height="14.448" color="#000000" fill="#ff6300" fill-rule="evenodd" stroke="#fff" stroke-width=".3926"/>
  <rect transform="matrix(.9948 .10183 -.91351 .40681 0 0)" x="322.3" y="109.44" width="25.786" height="18.241" color="#000000" fill="#ff6300" fill-rule="evenodd" stroke="#fff" stroke-width=".53154"/>
  <rect transform="matrix(.99472 .10266 0 1 0 0)" x="205.16" y="63.902" width="25.67" height="30.543" color="#000000" fill="#ff6300" fill-rule="evenodd" stroke="#fff" stroke-width=".376"/>
  <rect transform="matrix(.99472 .10266 0 1 0 0)" x="210.28" y="5.1003" width="11.664" height="34.392" color="#000000" fill="#ff6300" fill-rule="evenodd" stroke="#fff" stroke-width=".376"/>
  <rect transform="matrix(.91237 -.40937 0 1 0 0)" x="242.25" y="127.05" width="17.911" height="49.333" color="#000000" fill="#ff6300" fill-rule="evenodd" stroke="#fff" stroke-width=".39259"/>
  <rect transform="matrix(.9948 .10183 -.91351 .40681 0 0)" x="269.52" y="98.112" width="25.707" height="23.517" color="#000000" fill="#ff6300" fill-rule="evenodd" stroke="#fff" stroke-width=".53154"/>
  <rect transform="matrix(.99472 .10266 0 1 0 0)" x="157.59" y="60.924" width="25.67" height="45.515" color="#000000" fill="#ff6300" fill-rule="evenodd" stroke="#fff" stroke-width=".376"/>
  <rect transform="matrix(.9948 .10183 -.91351 .40681 0 0)" x="219.64" y="-21.768" width="11.598" height="31.882" color="#000000" fill="#ff6300" fill-rule="evenodd" stroke="#fff" stroke-width=".53154"/>
  <rect transform="matrix(.91237 -.40937 0 1 0 0)" x="199.96" y="161.72" width="23.587" height="45.788" color="#000000" fill="#ff6300" fill-rule="evenodd" stroke="#fff" stroke-width=".3926"/>
  <rect transform="matrix(.99472 .10266 0 1 0 0)" x="149.72" y="8.9577" width="25.67" height="30.543" color="#000000" fill="#ff6300" fill-rule="evenodd" stroke="#fff" stroke-width=".376"/>
  <rect transform="matrix(.91237 -.40937 0 1 0 0)" x="251.87" y="190.48" width="9.7845" height="30.657" color="#000000" fill="#ff6300" fill-rule="evenodd" stroke="#fff" stroke-width=".39259"/>
  <rect transform="matrix(.9948 .10183 -.91351 .40681 0 0)" x="166.25" y="-.72414" width="25.212" height="18.241" color="#000000" fill="#ff6300" fill-rule="evenodd" stroke="#fff" stroke-width=".53154"/>
  <rect transform="matrix(.91237 -.40937 0 1 0 0)" x="242.25" y="127.05" width="31.198" height="20.233" color="#000000" fill="#ff6300" fill-rule="evenodd" stroke="#fff" stroke-width=".39259"/>
  <text x="44.409821" y="4.5585938" fill="#000000" font-family="'Liberation Sans',Arial,sans-serif" font-size="6px" stroke-width="1px" text-align="center" text-anchor="middle" style="font-variant-caps:normal;font-variant-east-asian:normal;font-variant-ligatures:normal;font-variant-numeric:normal;line-height:1.25" xml:space="preserve"><tspan x="44.409821" y="4.5585938">3 rectangles originaux</tspan></text>
  <text x="196.02606" y="4.5585938" fill="#000000" font-family="'Liberation Sans',Arial,sans-serif" font-size="6px" stroke-width="1px" text-align="center" text-anchor="middle" style="font-variant-caps:normal;font-variant-east-asian:normal;font-variant-ligatures:normal;font-variant-numeric:normal;line-height:1.25" xml:space="preserve"><tspan x="196.02606" y="4.5585938">Différents rectangles copiés et redimensionnés à l'aide des poignées</tspan><tspan x="196.02606" y="12.058594">(la plupart avec Ctrl)</tspan></text>
 </g>
</svg>
