<?xml version="1.0" encoding="UTF-8"?>
<svg width="300" height="100" version="1.1" viewBox="0 0 300 100" xmlns="http://www.w3.org/2000/svg">
 <path transform="matrix(-.12864 .67933 -.67933 -.12864 4572.6 795.76)" d="m84.272 6515.5c-0.24207-11.997 11.068-20.789 22.534-20.038 13.649 0.8947 23.486 13.711 22.214 27.056-1.423 14.926-15.514 25.611-30.219 23.986-15.983-1.7656-27.382-16.918-25.491-32.724 2.0208-16.893 18.085-28.913 34.829-26.807 17.697 2.2255 30.268 19.092 27.982 36.659-2.3975 18.42-19.983 31.49-38.288 29.047-19.079-2.5465-32.606-20.787-30.025-39.762 2.6784-19.687 21.521-33.635 41.112-30.93 20.252 2.7971 34.593 22.198 31.774 42.361-2.9053 20.781-22.828 35.489-43.526 32.566-21.278-3.0049-36.334-23.418-33.314-44.618 1.4478-10.166 6.8924-19.54 14.977-25.865" color="#000000" fill="#ff6c2e" fill-rule="evenodd"/>
 <path d="m184.61 29.831c-0.22978-1.5417 1.6972-2.4384 2.9239-2.5541 5.6994-0.53744 8.7852 6.3941 8.9991 11.032 0.29452 6.3876-2.8924 12.501-7.2573 16.979" color="#000000" fill="none" stroke="#000" stroke-width="1pt"/>
 <path d="m176.41 30.249c-0.22978-1.5417 1.6972-2.4384 2.9239-2.5541 5.6994-0.53745 8.7852 6.394 8.9991 11.032 0.49714 10.782-8.2222 19.746-17.332 24.069" color="#000000" fill="none" stroke="#000" stroke-width="1pt"/>
 <path d="m193.23 29.831c-0.22977-1.5417 1.6972-2.4384 2.9239-2.5541 5.6994-0.53744 8.7852 6.394 8.999 11.032 0.14533 3.1521-0.58354 6.3064-1.8686 9.1744" color="#000000" fill="none" stroke="#000" stroke-width="1pt"/>
 <path d="m201.95 29.831c-0.22977-1.5417 1.6972-2.4384 2.9239-2.5541 5.6994-0.53744 8.7852 6.394 8.999 11.032 4e-3 0.09608 8e-3 0.1922 0.0108 0.28834" color="#000000" fill="none" stroke="#000" stroke-width="1pt"/>
 <path d="m210.78 29.831c-0.22977-1.5417 1.6972-2.4384 2.9239-2.5541 1.8891-0.17814 3.7424 0.71115 5.1213 1.9456" color="#000000" fill="none" stroke="#000" stroke-width="1pt"/>
 <path transform="matrix(.69092 .025772 -.025772 .69092 167.77 -4440)" d="m241.28 6460.6c-0.33234-2.2299 2.4548-3.5268 4.229-3.6941 8.2432-0.7773 12.706 9.2479 13.016 15.955 1.2475 27.054-31.04 40.85-53.459 40.925-1.6401 0.01-3.2803-0.041-4.9176-0.1381" color="#000000" fill="none" stroke="#000" stroke-width="1.4463pt"/>
 <path d="m111.31 85.441c-1.2847 8.3821-9.6397 13.827-17.845 12.481-9.4236-1.5451-15.523-10.976-13.929-20.225 1.8041-10.465 12.313-17.22 22.605-15.376 10.723 1.9216 18.066 12.211 17.104 22.936" color="#000000" fill="none" stroke="#000" stroke-width="1pt"/>
 <path transform="scale(-1,1)" d="m-100.68 85.312c-1.2847 8.3821-9.6397 13.827-17.845 12.481-9.4236-1.5451-15.523-10.976-13.929-20.225 1.8041-10.465 12.313-17.22 22.605-15.376 10.723 1.9216 18.066 12.211 17.104 22.936" color="#000000" fill="none" stroke="#000" stroke-linecap="round" stroke-width="1pt"/>
 <path transform="matrix(.67933 -.12864 -.12864 -.67933 980.44 4517.8)" d="m103.2 6518.4c-4e-5 4e-4 -1e-3 -1e-4 -1e-3 -1e-4 -7e-3 -0-1.1e-4 -0.015 3e-3 -0.018 0.0264-0.027 0.0701 0 0.0858 0.027 0.0653 0.097-0.0276 0.2172-0.11417 0.2596-0.25525 0.1251-0.52593-0.1018-0.61278-0.3317-0.20797-0.5506 0.26653-1.0854 0.76845-1.2367 1.0438-0.3146 2.0033 0.5735 2.24 1.5353 0.44454 1.8063-1.0853 3.4058-2.7644 3.7487-2.9196 0.5962-5.437-1.8752-5.9056-4.6093-0.76706-4.4753 3.0268-8.2588 7.2435-8.8701 6.5751-0.9533 12.051 4.6341 12.818 10.861 1.1501 9.3306-6.8012 17.009-15.677 17.942-12.863 1.3518-23.348-9.6423-24.449-21.924-1.5515-17.303 13.282-31.298 29.857-32.565 17.757-1.3567 33.845 10.657 39.852 27.019" color="#000000" fill="#ff6c2e" fill-rule="evenodd"/>
 <path transform="matrix(.17895 -.66784 .66784 .17895 -4375.6 -1086.5)" d="m36.158 6582.7c-0.32366-1.9904 1.4195-3.6226 3.2798-3.8639 3.0577-0.3965 5.5163 2.2864 5.8131 5.1629 0.46431 4.5004-3.4956 8.0651-7.7523 8.4114-6.3959 0.5203-11.402-5.1252-11.786-11.203-0.557-8.8283 7.2608-15.674 15.683-16.074 11.889-0.5656 21.036 9.9959 21.425 21.376 0.46626 13.616-10.269 24.96-23.271 27.446" color="#000000" fill="none" stroke="#000" stroke-width="1.4463pt"/>
 <path transform="matrix(-.17895 -.66784 -.66784 .17895 4471.9 -1093.8)" d="m36.158 6582.7c-0.32366-1.9904 1.4195-3.6226 3.2798-3.8639 3.0577-0.3965 5.5163 2.2864 5.8131 5.1629 0.46431 4.5004-3.4956 8.0651-7.7523 8.4114-6.3959 0.5203-11.402-5.1252-11.786-11.203-0.557-8.8283 7.2608-15.674 15.683-16.074 11.889-0.5656 21.036 9.9959 21.425 21.376 0.46626 13.616-10.269 24.96-23.271 27.446" color="#000000" fill="none" stroke="#000" stroke-width="1.4463pt"/>
 <path transform="matrix(.4889 -.4889 .4889 .4889 -3202.3 -3162.8)" d="m36.158 6582.7c-0.32366-1.9904 1.4195-3.6226 3.2798-3.8639 3.0577-0.3965 5.5163 2.2864 5.8131 5.1629 0.46431 4.5004-3.4956 8.0651-7.7523 8.4114-6.3959 0.5203-11.402-5.1252-11.786-11.203-0.557-8.8283 7.2608-15.674 15.683-16.074 11.889-0.5656 21.036 9.9959 21.425 21.376 0.46626 13.616-10.269 24.96-23.271 27.446" color="#000000" fill="none" stroke="#000" stroke-width="1.4463pt"/>
 <path d="m59.592 21.215c-0.22378-1.3762 0.98146-2.5047 2.2677-2.6715 2.1141-0.27417 3.814 1.5808 4.0192 3.5696 0.32102 3.1116-2.4168 5.5762-5.36 5.8157-4.4222 0.35976-7.8837-3.5435-8.1488-7.7455-0.38511-6.1039 5.0202-10.837 10.843-11.114 8.2198-0.39111 14.544 6.9112 14.813 14.779 0.32237 9.4141-7.0997 17.257-16.089 18.976" color="#000000" fill="none" stroke="#000" stroke-width="1pt"/>
 <path d="m279.22 32.967c4.265 4.7334 3.711 12.09 1.2749 17.527" color="#000000" fill="none" stroke="#000" stroke-width="1pt"/>
 <path d="m270.68 17.387c0.48733-2.0774 3.3695-2.2686 4.9998-1.7947 7.3107 2.1251 7.8118 12.146 5.8033 18.019-0.22831 0.6675-0.48823 1.3241-0.77669 1.9679" color="#000000" fill="none" stroke="#000" stroke-width="1pt"/>
 <path transform="matrix(.3457 -.59877 .59877 .3457 -3696.4 -2066.5)" d="m241.32 6459.8c0.70485-3.0046 4.8734-3.2812 7.2313-2.5958 10.574 3.0736 11.298 17.568 8.3936 26.061-0.3302 0.9654-0.70614 1.9151-1.1233 2.8462" color="#000000" fill="none" stroke="#000" stroke-width="1.4463pt"/>
 <path transform="matrix(-.4889 -.4889 .4889 -.4889 -2793.2 3319.2)" d="m241.32 6459.8c0.70485-3.0046 4.8734-3.2812 7.2313-2.5958 10.574 3.0737 11.298 17.568 8.3935 26.061-1.9033 5.5648-5.2933 10.55-9.4538 14.676" color="#000000" fill="none" stroke="#000" stroke-width="1.4463pt"/>
 <path transform="scale(-1)" d="m-257.87-57.577c0.48734-2.0774 3.3695-2.2686 4.9998-1.7947 7.3107 2.1251 7.8118 12.146 5.8033 18.019-1.3017 3.8058-3.6095 7.2203-6.4432 10.054" color="#000000" fill="none" stroke="#000" stroke-width="1pt"/>
 <path transform="matrix(-.3457 .59877 -.59877 -.3457 4234.6 2172)" d="m241.32 6459.8c0.70484-3.0046 4.8734-3.2812 7.2313-2.5958 10.574 3.0736 11.298 17.568 8.3936 26.061-5.8132 16.996-23.616 26.861-40.458 29.582" color="#000000" fill="none" stroke="#000" stroke-width="1.4463pt"/>
</svg>
