<?xml version="1.0" encoding="UTF-8"?>
<svg width="300" height="150" version="1.1" viewBox="0 0 300 150" xmlns="http://www.w3.org/2000/svg">
 <path d="m199.02 68.977-39.109-8.8644 36.183 13.03-37.618-13.893 34.172 17.641-35.482-18.685 31.577 21.951-32.74-23.156 28.442 25.885-29.437-27.231 24.82 29.376-25.631-30.841 20.773 32.364-21.386-33.923 16.371 34.799-16.776-36.424 11.689 36.638-11.878-38.302 6.8069 37.85-6.7769-39.525 1.8083 38.415-1.5599-40.071-3.2214 38.322 3.6837-39.932-8.1959 37.574 8.8644-39.109-13.03 36.183 13.893-37.618-17.641 34.172 18.685-35.482-21.951 31.577 23.156-32.74-25.885 28.442 27.231-29.437-29.376 24.82 30.841-25.631-32.364 20.773 33.922-21.386-34.799 16.371 36.424-16.776-36.638 11.689 38.302-11.878-37.85 6.8069 39.525-6.7769-38.415 1.8083 40.071-1.5599-38.322-3.2214 39.932 3.6837-37.574-8.1959 39.109 8.8644-36.183-13.03 37.618 13.893-34.172-17.641 35.482 18.685-31.577-21.951 32.74 23.156-28.442-25.885 29.437 27.231-24.82-29.376 25.631 30.841-20.773-32.364 21.386 33.923-16.371-34.799 16.776 36.424-11.689-36.638 11.878 38.302-6.807-37.85 6.7769 39.525-1.8083-38.415 1.5599 40.071 3.2214-38.322-3.6837 39.932 8.1959-37.574-8.8644 39.109 13.03-36.183-13.893 37.618 17.641-34.172-18.685 35.482 21.951-31.577-23.156 32.74 25.885-28.442-27.231 29.437 29.376-24.82-30.841 25.631 32.364-20.773-33.922 21.386 34.799-16.371-36.424 16.776 36.638-11.689-38.302 11.878 37.85-6.8069-39.525 6.7769 38.415-1.8083-40.071 1.5599 38.322 3.2214-39.932-3.6837z" color="#000000" fill="none" stroke="#000" stroke-width=".0375"/>
 <path transform="matrix(.9963 -.085991 .085991 .9963 -267.63 -4191.3)" d="m45.957 4353.5-10.302-42.671-18.837 45.176 37.399-22.984-48.786-3.955 33.416 28.466-11.314-47.621-16.747 40.577 41.794-25.476-43.766-3.3882z" color="#000000" fill="#520100" fill-rule="evenodd"/>
 <polygon transform="matrix(.082821 .37592 -.37592 .082821 1315.3 -115.99)" d="m 32.276994,2897.7581 10.554351,-46.7068 -55.19591,16.1426 35.172154,32.4938 13.61801,-55.8724 -45.7265057,14.2131 z" points="32.277 2897.8 42.831 2851 -12.365 2867.2 22.808 2899.7 36.426 2843.8 -9.3009 2858" color="#000000" fill="none" stroke="#000" stroke-width=".47465"/>
 <polygon transform="matrix(.96846 -.24915 .24915 .96846 -703.33 -2621.8)" d="m 171.3615,2897.7582 16.619,-37.8334 -31.49253,12.5304 41.11724,4.1144 -21.64883,-26.079 8.79284,40.3762 18.11282,-28.6481 -35.68296,20.8394 32.84317,8.3736 -30.84613,-27.4968 z" points="171.36 2897.8 187.98 2859.9 156.49 2872.5 197.6 2876.6 175.96 2850.5 184.75 2890.9 202.86 2862.2 167.18 2883.1 200.02 2891.4 169.18 2863.9" fill="none" stroke="#000" stroke-width=".25"/>
 <path d="m37.278 42.45-23.776-29.725 21.239 31.807-17.52-33.793 14.626 35.34-10.591-36.561 7.4501 37.514-3.2543-37.925-0.011697 38.247 4.207-37.831-7.473 37.509 11.507-36.283-14.647 35.331 18.364-33.341-21.258 31.794 24.516-29.118-27.053 27.036 29.725-23.776-31.807 21.239 33.793-17.52-35.34 14.626 36.561-10.591-37.514 7.4501 37.925-3.2543-38.247-0.011698 37.831 4.207-37.509-7.473 36.283 11.507-35.331-14.647 33.341 18.364-31.794-21.258 29.118 24.516-27.036-27.053 23.776 29.725-21.239-31.807 17.52 33.793-14.626-35.34 10.591 36.561-7.4501-37.514 3.2543 37.925 0.011697-38.247-4.207 37.831 7.473-37.509-11.507 36.283 14.647-35.331-18.364 33.341 21.258-31.794-24.516 29.118 27.053-27.036-29.725 23.776 31.807-21.239-33.793 17.52 35.34-14.626-36.561 10.591 37.514-7.4501-37.925 3.2543 38.247 0.011698-37.831-4.207 37.509 7.473-36.283-11.507 35.331 14.647-33.341-18.364 31.794 21.258-29.118-24.516z" color="#000000" fill="#520100" fill-rule="evenodd"/>
 <path d="m260.41 49.119-35.663 13.07 23.411-9.4048-34.46-15.976 23.204 9.9036-13.07-35.663 9.4048 23.411 15.976-34.46-9.9036 23.204 35.663-13.07-23.411 9.4048 34.46 15.976-23.204-9.9036 13.07 35.663-9.4048-23.411-15.976 34.46z" color="#000000" fill="#520100" fill-rule="evenodd"/>
 <path transform="rotate(.0019184 1.2489e8 0)" d="m307.95 4272-41.28 0.6425 33.556 17.416-29.644-28.735 11.412 36.043-0.64253-41.28-17.416 33.556 28.735-29.644-36.043 11.412 41.28-0.6425-33.556-17.416 29.644 28.735-11.412-36.043 0.64253 41.28 17.416-33.556-28.735 29.644z" color="#000000" fill="#520100" fill-rule="evenodd"/>
 <path d="m92.431 52.264-14.034-33.728 0.070659 27.944 13.926-33.773-19.71 19.81 33.728-14.034-27.944 0.070659 33.773 13.926-19.81-19.71 14.034 33.728-0.07066-27.944-13.926 33.773 19.71-19.81-33.728 14.034 27.944-0.070659-33.773-13.926z" color="#000000" fill="none" stroke="#000" stroke-width=".25"/>
 <path d="m102.43 123.68-54.979-38.435 42.246 53.111-37.383-55.7 20.208 64.785-14.737-65.443-4.56 67.71 9.8988-66.347-28.712 61.491 33.198-58.291-48.986 46.967 52.013-42.363-62.645 26.099 63.804-20.713-67.842 1.7069 66.978 3.7348-63.878-22.916 61.106 27.678-51.286-44.444 46.981 47.883-31.768-59.969 26.511 61.621-7.9594-67.395 2.461 67.037 16.924-65.72-21.922 63.399 39.522-55.168-43.344 51.199 56.782-37.166-58.912 32.084 66.374-14.144-66.524 8.6359 67.001 10.788-65.151-15.978z" color="#000000" fill="#520100" fill-rule="evenodd"/>
</svg>
