<?xml version="1.0" encoding="UTF-8"?>
<svg width="300" height="149" version="1.1" viewBox="0 0 300 149" xmlns="http://www.w3.org/2000/svg">
 <path transform="matrix(.30797 -.032335 -.032335 -.30797 -41.542 272.35)" d="m281.19 558.07c-19.304 85.992 57.404-43.443-8.7588 14.779s71.976-1.405-15.773 6.8085c-87.749 8.2135 59.056 41.17-16.763-3.763-75.818-44.933 23.578 68.019-11.349-12.897-34.927-80.916-20.905 68.887-1.6011-17.105 19.304-85.992-57.404 43.443 8.7588-14.779 66.163-58.222-71.976 1.405 15.773-6.8085 87.749-8.2135-59.056-41.17 16.763 3.763 75.818 44.933-23.578-68.019 11.349 12.897 34.927 80.916 20.905-68.887 1.6011 17.105z" fill="none" stroke="#000" stroke-opacity=".13115" stroke-width="3.375"/>
 <path transform="scale(1,-1)" d="m223.58-9.1403c7.5278-26.023-3.9552-72.679-30.36-66.625-26.112 5.9873-9.4233 93.761 6.374 72.124 15.974-21.879 21.141-69.649-5.742-72.991-26.585-3.3047-40.923 84.883-18.678 69.955 22.494-15.096 43.687-58.218 19.569-70.553-23.852-12.198-67.487 65.768-41.478 59.347 26.301-6.4923 60.965-39.765 42.519-59.605-18.241-19.62-85.911 38.72-59.274 41.582 26.935 2.8946 70.888-16.516 60.341-41.468-10.431-24.676-93.973 7.0012-69.922 18.801 24.321 11.932 72.262 8.7255 70.885-18.329-1.362-26.755-90.7-25.562-72.135-6.2471 18.773 19.531 64.92 32.914 72.879 7.0199 7.871-25.608-76.488-55.041-65.648-30.542 10.961 24.774 49.747 53.133 66.083 31.523 16.155-21.371-53.05-77.882-51.243-51.153 1.8266 27.028 28.574 66.943 51.316 52.223 22.49-14.557-23.213-91.329-30.657-65.594-7.5278 26.023 3.9552 72.679 30.36 66.625 26.112-5.9873 9.4233-93.761-6.374-72.124-15.974 21.879-21.141 69.649 5.742 72.991 26.585 3.3047 40.923-84.883 18.678-69.955-22.494 15.096-43.687 58.218-19.569 70.553 23.852 12.198 67.487-65.768 41.478-59.347-26.301 6.4923-60.965 39.765-42.519 59.605 18.241 19.62 85.911-38.72 59.274-41.582-26.935-2.8946-70.888 16.516-60.341 41.468 10.431 24.676 93.973-7.0012 69.922-18.801-24.321-11.932-72.262-8.7255-70.885 18.329 1.362 26.755 90.7 25.562 72.135 6.2471-18.773-19.531-64.92-32.914-72.879-7.0199-7.871 25.608 76.488 55.041 65.648 30.542-10.961-24.774-49.747-53.133-66.083-31.523-16.155 21.371 53.05 77.882 51.243 51.153-1.8266-27.028-28.574-66.943-51.316-52.223-22.49 14.557 23.213 91.329 30.657 65.594z" color="#000000" fill="none" stroke="#000" stroke-width=".039131"/>
 <path transform="scale(1,-1)" d="m78.926-103.5c0 33.728 5.6216-23.485-18.228 0.36447-23.849 23.849 33.364 18.228-0.36446 18.228-33.728 0 23.485 5.6216-0.36446-18.228-23.849-23.849-18.228 33.364-18.228-0.36447 0-33.728-5.6216 23.485 18.228-0.36446 23.849-23.849-33.364-18.228 0.36446-18.228 33.728 0-23.485-5.6216 0.36446 18.228 23.849 23.849 18.228-33.364 18.228 0.36446z" color="#000000" fill="#cecece" fill-opacity=".75" fill-rule="evenodd" stroke="#000" stroke-width=".19942"/>
 <path transform="scale(1,-1)" d="m295.68-76.006c0 6.1955-20.046-0.20057-24.427 4.1803s2.0152 24.427-4.1803 24.427c-6.1955 0 0.20057-20.046-4.1803-24.427-4.3809-4.3809-24.427 2.0152-24.427-4.1803s20.046 0.20057 24.427-4.1803c4.3809-4.3809-2.0152-24.427 4.1803-24.427 6.1955 0-0.20058 20.046 4.1803 24.427 4.3809 4.3809 24.427-2.0152 24.427 4.1803z" fill="#8eff00" fill-opacity=".75" fill-rule="evenodd" stroke="#000" stroke-width=".74894pt"/>
 <path transform="matrix(.7168 .21703 .21703 -.7168 -73.514 504.6)" d="m323.81 626.7c0 7.4362-26.101-0.4031-30.471 5.6129s11.15 28.417 4.078 30.715c-7.0722 2.2979-7.6822-24.948-14.754-27.246-7.0722-2.2979-23.58 19.386-27.951 13.37s21.353-15.015 21.353-22.452c0-7.4362-25.724-16.436-21.353-22.452s20.879 15.668 27.951 13.37c7.0722-2.2979 7.6822-29.544 14.754-27.246 7.0722 2.2979-8.4489 24.699-4.078 30.715s30.471-1.8233 30.471 5.6129z" fill="#8eff00" fill-opacity=".75" fill-rule="evenodd" stroke="#000" stroke-width="1pt"/>
 <path transform="matrix(.11236 .0068491 .0068491 -.11236 .3909 207.16)" d="m378.67 671.15c-7.9604 11.663-60.93 7.6661-67.05-5.0593-6.1202-12.725 23.826-56.6 37.907-55.538s37.104 48.934 29.144 60.597z" fill-rule="evenodd" stroke="#000" stroke-dasharray="1.42746, 1.42746" stroke-width="1.4275"/>
 <path transform="matrix(.11121 -.017408 -.017408 -.11121 26.821 215.83)" d="m378.67 671.15c-6.4996 9.5227-44.427 16.679-53.95 10.179-9.5227-6.4996-16.679-44.427-10.179-53.95 6.4996-9.5227 44.427-16.679 53.95-10.179 9.5227 6.4996 16.679 44.427 10.179 53.95z" fill-rule="evenodd" stroke="#000" stroke-dasharray="1.42751, 1.42751" stroke-width="1.4275"/>
 <path transform="matrix(.10622 -.037266 -.037266 -.10622 52.383 219.42)" d="m378.67 671.15c-5.4029 7.9158-33.773 18.065-42.97 15.373s-27.617-26.537-27.899-36.117c-0.2818-9.5797 16.704-34.466 25.728-37.694 9.0238-3.2283 37.941 5.2359 43.8 12.82s6.7447 37.702 1.3419 45.618z" fill-rule="evenodd" stroke="#000" stroke-dasharray="1.4275, 1.4275" stroke-width="1.4275"/>
 <path transform="matrix(.11252 .0031539 .0031539 -.11252 34.948 209.56)" d="m378.67 671.15c-4.596 6.7336-26.856 17.44-34.986 16.826s-28.531-14.538-32.065-21.885c-3.5335-7.347-1.675-31.978 2.921-38.712 4.596-6.7336 26.856-17.44 34.986-16.826s28.531 14.538 32.065 21.885c3.5335 7.347 1.675 31.978-2.921 38.712z" fill-rule="evenodd" stroke="#000" stroke-dasharray="1.42746, 1.42746" stroke-width="1.4275"/>
 <path transform="scale(1,-1)" d="m135.44-57.028c-12.603-30.222-42.344-5.9033-9.6075-5.1797 56.589 1.2507-74.443-2.6906-18.307 4.5639 32.475 4.1968 26.284-33.719 9.2895-5.7305-29.378 48.382 39.552-63.124 5.2011-18.136-19.872 26.025 16.06 39.623 0.31799 10.91-27.211-49.633 34.891 65.815 13.106 13.573z" color="#000000" fill="#ff6000" fill-opacity=".74998" fill-rule="evenodd" stroke="#000" stroke-width=".25382"/>
 <path transform="matrix(.47781 .073715 .073715 -.47781 -122.41 309.11)" d="m299.45 611.76c-49.54-107.97 39.728-95.581-39.037-6.6497-68.237 77.045-38.869 111.31 20.682 27.371 68.738-96.89 102.64-13.385-13.76-37.132-100.84-20.572-115.83 21.994-13.363 31.596 118.28 11.084 62.912 82.196 25.277-30.482-32.604-97.617-76.963-89.317-34.045 4.2255 49.54 107.97-39.728 95.581 39.037 6.6497 68.237-77.045 38.869-111.31-20.682-27.371-68.738 96.89-102.64 13.385 13.76 37.132 100.84 20.572 115.83-21.994 13.363-31.596-118.28-11.084-62.912-82.196-25.277 30.482 32.604 97.617 76.963 89.317 34.045-4.2255z" fill="#fcfcfc" fill-opacity=".75" fill-rule="evenodd" stroke="#acacac" stroke-width="1pt"/>
 <path transform="matrix(.27028 -.080435 -.080435 -.27028 31.541 168.47)" d="m370.53 449.24c85.873 79.847 52.137-143.54 25.924-29.252-26.213 114.29 101.5-72.07-10.586-37.626-112.09 34.445 98.244 116.92 12.371 37.077s11.665 123.94 37.878 9.6451c26.213-114.29-150.38 26.62-38.295-7.8252s-113.16-51.866-27.292 27.98z" color="#000000" fill-rule="evenodd"/>
 <path d="m292.47 53.977c-3.3796 5.9143-18.395-10.377-25.206-10.347-6.8118 0.03033-21.681 16.455-25.113 10.571-3.4322-5.884 18.184-10.742 21.564-16.656 3.3796-5.9143-3.4099-27.004 3.4019-27.034 6.8118-0.03033 0.21031 21.119 3.6425 27.003s25.091 10.549 21.711 16.463z" color="#000000" fill="#8eff00" fill-opacity=".75" fill-rule="evenodd" stroke="#000" stroke-width=".93617"/>
 <text x="262.21893" y="77.307915" fill="#000000" font-family="'Liberation Sans',Arial,sans-serif" stroke-width="1pt" style="line-height:0%" xml:space="preserve"><tspan x="262.21893" y="77.307915" font-size="3.979px" style="line-height:1.2">0,25</tspan></text>
 <text x="262.72223" y="42.471912" fill="#000000" font-family="'Liberation Sans',Arial,sans-serif" stroke-width="1pt" style="line-height:0%" xml:space="preserve"><tspan x="262.72223" y="42.471912" font-size="3.979px" style="line-height:1.2">0,25</tspan></text>
 <text x="262.64645" y="118.84592" fill="#000000" font-family="'Liberation Sans',Arial,sans-serif" stroke-width="1pt" style="line-height:0%" xml:space="preserve"><tspan x="262.64645" y="118.84592" font-size="3.979px" style="line-height:1.2">0,25</tspan></text>
 <text transform="rotate(60)" x="211.18098" y="-95.401672" fill="#000000" font-family="'Liberation Sans',Arial,sans-serif" stroke-width="1pt" style="line-height:0%" xml:space="preserve"><tspan x="211.18098" y="-95.401672" font-size="3.979px" style="line-height:1.2">0,37</tspan></text>
 <path transform="matrix(.96459 .067199 .067199 -.96459 -364.06 688.72)" d="m461.58 641.84c-4.1881 1.9638-3.7908-7.1052-8.4004-6.7196-4.6627 0.38996-2.8147 9.2373-7.3368 8.0358-4.4706-1.1877 1.6632-7.8796-2.1158-10.547-3.8225-2.6984-8.0938 5.2669-10.786 1.4398-2.6612-3.7835 6.339-4.967 5.1589-9.4396-1.1937-4.5242-9.5857-1.1679-9.1878-5.83 0.39339-4.6089 8.0487 0.26964 10.02-3.9151 1.9936-4.233-6.5923-7.0563-3.2908-10.372 3.2639-3.2778 5.9923 5.3801 10.192 3.4413 4.2481-1.9612-0.51434-9.6429 4.146-10.061 4.6072-0.41291 1.1321 7.9732 5.5955 9.1875 4.5149 1.2283 5.8043-7.7175 9.6428-5.0419 3.7947 2.6451-4.2578 6.8355-1.6192 10.635 2.6691 3.843 9.4071-2.181 10.628 2.336 1.2067 4.4655-7.6555 2.4994-8.0763 7.1059-0.42563 4.6596 8.6082 4.376 6.6397 8.6208-1.946 4.1964-7.471-3.0062-10.754 0.25211-3.3212 3.2958 3.7814 8.8854-0.45502 10.872z" fill="#cecece" fill-opacity=".75" fill-rule="evenodd" stroke="#000" stroke-width=".375"/>
 <text x="108.64069" y="121.71639" fill="#000000" font-family="'Liberation Sans',Arial,sans-serif" stroke-width="1pt" style="line-height:0%" xml:space="preserve"><tspan x="108.64069" y="121.71639" font-size="3.979px" style="line-height:1.2">0,43</tspan></text>
 <text transform="rotate(67.362)" x="29.70005" y="-27.342012" fill="#000000" font-family="'Liberation Sans',Arial,sans-serif" stroke-width="1pt" style="line-height:0%" xml:space="preserve"><tspan x="29.70005" y="-27.342012" font-size="3.979px" style="line-height:1.2">3,00</tspan></text>
 <text transform="rotate(-.03423)" x="100.67562" y="39.04916" fill="#000000" font-family="'Liberation Sans',Arial,sans-serif" font-size="3.979px" stroke-width="1pt" style="line-height:0%" xml:space="preserve"><tspan>3,00</tspan></text>
 <path transform="scale(1,-1)" d="m246.28-14.076c-2.5992 4.4558-7.4232-0.03322-12.582-0.05631-5.1585-0.02309-10.022 4.4226-12.582-0.05631-2.5592-4.4789 3.7404-6.412 6.3396-10.868 2.5992-4.4558 1.1811-10.891 6.3396-10.868 5.1585 0.02309 3.6828 6.4453 6.2421 10.924s8.8413 6.4684 6.2421 10.924z" color="#000000" fill-rule="evenodd"/>
 <text x="229.29175" y="22.675911" fill="#ffffff" font-family="'Liberation Sans',Arial,sans-serif" stroke-width="1pt" style="line-height:0%" xml:space="preserve"><tspan x="229.29175" y="22.675911" font-size="3.979px" style="line-height:1.2">0,41</tspan></text>
 <text x="14.426392" y="95.59182" fill="#000000" font-family="'Liberation Sans',Arial,sans-serif" stroke-width="1pt" style="line-height:0%" xml:space="preserve"><tspan x="14.426392" y="95.59182" font-size="3.979px" style="line-height:1.2">5,43</tspan></text>
 <text x="55.856052" y="104.94852" fill="#000000" font-family="'Liberation Sans',Arial,sans-serif" stroke-width="1pt" style="line-height:0%" xml:space="preserve"><tspan x="55.856052" y="104.94852" font-size="3.979px" style="line-height:1.2">1,85</tspan></text>
 <text x="55.227631" y="146.5439" fill="#000000" font-family="'Liberation Sans',Arial,sans-serif" stroke-width="1pt" style="line-height:0%" xml:space="preserve"><tspan x="55.227631" y="146.5439" font-size="3.979px" style="line-height:1.2">0,21</tspan></text>
 <text transform="rotate(-.03423)" x="100.93247" y="69.464325" fill="#000000" font-family="'Liberation Sans',Arial,sans-serif" font-size="3.979px" stroke-width="1pt" style="line-height:0%" xml:space="preserve"><tspan>3,00</tspan><tspan x="100.93247" y="71.851723" style="line-height:1.2"> </tspan></text>
 <path transform="matrix(.50303 .083862 -.083862 .50303 533.09 -2474.8)" d="m132.89 5179.5c10.265-7.6189-34.57-15.993-22.318-19.641 12.252-3.6484-20.699 27.889-7.9376 28.651 12.761 0.7621-16.202-34.472-4.4713-29.392 11.731 5.0807-33.783 8.0591-24.497 16.846s9.7469-36.822 15.467-25.39c5.7206 11.432-31.059-15.542-29.594-2.8419s31.135-21.942 28.169-9.5072c-2.9665 12.435-13.803-31.87-20.843-21.2-7.0406 10.67 37.955 3.2047 27.69 10.824-10.265 7.6189 9.912-33.286-2.3402-29.638s27.015 26.852 14.254 26.09c-12.761-0.7621 28.989-19.127 17.258-24.208-11.731-5.0807 3.4348 37.935-5.8509 29.148-9.2857-8.7865 34.502 3.9814 28.781-7.4512-5.7206-11.432-21.753 31.268-23.218 18.568s23.871 25.227 26.837 12.792c2.9665-12.435-36.762 9.97-29.722-0.7004s2.0703 34.669 12.336 27.05z" color="#000000" fill="#cecece" fill-opacity=".75" fill-rule="evenodd" stroke="#000" stroke-width=".71102"/>
 <text x="149.3091" y="122.10365" fill="#000000" font-family="'Liberation Sans',Arial,sans-serif" stroke-width="1pt" style="line-height:0%" xml:space="preserve"><tspan x="149.3091" y="122.10365" font-size="3.979px" style="line-height:1.2">−0,43</tspan></text>
 <path transform="matrix(.30673 -.042679 .042679 .30673 -202.52 -1440.1)" d="m-6.3694 5101.1c-45.965 97.234 106.37-51.234 12.028 0.4123-94.339 51.646 112.81 3.3133 6.1337-10.355-106.68-13.668 81.595 85.329 3.3249 11.567-78.271-73.762 31.71 108.31 11.744 2.6336-19.966-105.68-55.938 103.97-9.9734 6.7365 45.965-97.234-93.215 63.629 1.1243 11.983 94.339-51.646-116.17-21.072-9.4888-7.4035 106.68 13.668-89.319-68.99-11.049 4.7721 78.271 73.762-15.857-116.99 4.109-11.312 19.966 105.68 38.012-106.27-7.9528-9.0334z" color="#000000" fill="#00edff" fill-opacity=".75" fill-rule="evenodd" stroke="#000" stroke-width=".71102"/>
 <text x="13.713703" y="140.0249" fill="#000000" font-family="'Liberation Sans',Arial,sans-serif" stroke-width="1pt" style="line-height:0%" xml:space="preserve"><tspan x="13.713703" y="140.0249" font-size="3.979px" style="line-height:1.2">−8,94</tspan></text>
 <path d="m101.39 91.493c-4.3019 4.3019-11.298 4.3019-15.599 0s-4.3019-11.298 0-15.599 11.298-4.3019 15.599 0c4.3019 4.3019 4.3019 11.298 0 15.599z" color="#000000" fill-rule="evenodd"/>
 <text x="89.161873" y="85.14119" fill="#ffffff" font-family="'Liberation Sans',Arial,sans-serif" stroke-width="1pt" style="line-height:0%" xml:space="preserve"><tspan x="89.161873" y="85.14119" font-size="3.979px" style="line-height:1.2">0,39</tspan></text>
</svg>
