<?xml version="1.0" encoding="UTF-8"?>
<svg width="300" height="70" version="1.1" viewBox="0 0 300 70" xmlns="http://www.w3.org/2000/svg">
 <g fill="#ffd300" fill-opacity=".14716" fill-rule="evenodd" stroke="#000" stroke-width=".83991">
  <ellipse transform="matrix(.91395 .40583 -.87516 .48384 0 0)" cx="129.13" cy="-36.549" rx="60.786" ry="6.6323" color="#000000"/>
  <ellipse transform="matrix(.91395 .40583 -.87516 .48384 0 0)" cx="129.13" cy="-36.549" rx="81.474" ry="12.263" color="#000000"/>
  <ellipse transform="matrix(.91395 .40583 -.87516 .48384 0 0)" cx="129.13" cy="-36.549" rx="52.813" ry="55.474" color="#000000"/>
  <ellipse transform="matrix(.91395 .40583 -.87516 .48384 0 0)" cx="129.13" cy="-36.549" rx="32.589" ry="22.827" color="#000000"/>
  <ellipse transform="matrix(.91395 .40583 -.87516 .48384 0 0)" cx="129.13" cy="-36.549" rx="6.8571" ry="42.356" color="#000000"/>
  <ellipse transform="matrix(.91395 .40583 -.87516 .48384 0 0)" cx="129.13" cy="-36.549" rx="32.589" ry="6.6323" color="#000000"/>
 </g>
</svg>
