<?xml version="1.0" encoding="UTF-8"?>
<svg width="300" height="37" version="1.1" viewBox="0 0 300 37" xmlns="http://www.w3.org/2000/svg">
 <g fill="#f00" fill-opacity=".75" fill-rule="evenodd" stroke="#000" stroke-width=".70293pt">
  <path d="m77.735 18.135a24.91 17.693 0 0 1-20.05 17.353 24.91 17.693 0 0 1-27.873-10.582 24.91 17.693 0 0 1 9.1745-21.482 24.91 17.693 0 0 1 31.453 2.2003l-17.614 12.511z"/>
  <path d="m141.49 18.135a24.91 17.693 0 0 1-16.366 16.619 24.91 17.693 0 0 1-27.593-5.2189l19.049-11.401z"/>
  <path d="m209.77 18.135a24.91 17.693 0 0 1-16.97 16.77 24.91 17.693 0 0 1-27.788-6.0791 24.91 17.693 0 0 1-0.74513-20.645 24.91 17.693 0 0 1 27.313-7.0823"/>
  <path d="m272.1 18.135a24.91 17.693 0 0 1-18.969 17.182 24.91 17.693 0 0 1-28.017-8.986"/>
  <path d="m98.591 5.8998a24.91 17.693 0 0 1 9.3502-4.3583l8.6431 16.594z"/>
  <path d="m224.71 10.505a24.91 17.693 0 0 1 24.35-10.012 24.91 17.693 0 0 1 21.957 12.496"/>
  <path d="m114.9 0.48277a24.91 17.693 0 0 1 24.972 11.372l-23.288 6.2801z"/>
 </g>
</svg>
