<?xml version="1.0" standalone="no"?>
<!DOCTYPE svg PUBLIC "-//W3C//DTD SVG 20010904//EN"
 "http://www.w3.org/TR/2001/REC-SVG-20010904/DTD/svg10.dtd">
<svg version="1.0" xmlns="http://www.w3.org/2000/svg"
 width="479.000000pt" height="479.000000pt" viewBox="0 0 479.000000 479.000000"
 preserveAspectRatio="xMidYMid meet">
<metadata>
Created by potrace 1.11, written by Peter Selinger 2001-2013
</metadata>
<g transform="translate(0.000000,479.000000) scale(0.100000,-0.100000)"
fill="#000000" stroke="none">
<path d="M2655 4772 c-18 -4 -182 -98 -195 -112 -3 -3 -39 -30 -80 -60 -41
-30 -91 -68 -110 -85 -57 -48 -273 -266 -310 -314 -19 -24 -40 -48 -45 -55 -6
-6 -44 -60 -84 -121 -148 -221 -273 -530 -306 -755 -4 -24 -8 -47 -10 -50 -12
-20 -20 -168 -20 -361 l1 -227 -41 -25 c-49 -32 -151 -128 -192 -182 -35 -46
-83 -146 -83 -172 0 -28 -24 3 -43 57 -60 168 -79 330 -68 565 5 98 2 113 -29
145 -16 16 -40 31 -52 32 -13 0 -30 2 -38 3 -32 3 -72 -28 -107 -83 -86 -134
-179 -361 -220 -532 -29 -125 -28 -123 -39 -180 -4 -25 -8 -47 -9 -50 -1 -3
-5 -41 -10 -85 -4 -44 -9 -89 -11 -100 -6 -38 -5 -330 0 -355 3 -14 9 -45 12
-70 3 -25 15 -83 26 -130 11 -47 21 -92 23 -101 12 -57 75 -221 120 -314 108
-222 244 -398 435 -562 24 -21 51 -45 60 -53 39 -36 195 -140 210 -140 5 0 10
-4 10 -10 0 -5 4 -10 9 -10 4 0 39 -17 77 -38 199 -108 443 -186 654 -209 93
-10 467 -9 535 1 243 36 404 81 573 157 35 16 66 29 68 29 13 0 267 159 329
206 39 28 112 93 163 142 78 75 94 96 99 128 3 22 21 62 38 90 71 111 131 238
185 394 14 38 48 180 54 225 3 22 8 60 12 85 7 50 8 294 1 325 -3 11 -8 45
-12 75 -35 270 -168 566 -352 782 -85 100 -296 293 -527 483 -160 131 -319
292 -399 403 -89 123 -172 306 -192 424 -19 108 -23 171 -20 298 5 157 7 175
31 294 18 91 13 134 -20 165 -26 24 -71 39 -101 33z"/>
</g>
</svg>
