<svg xmlns="http://www.w3.org/2000/svg" xmlns:xlink="http://www.w3.org/1999/xlink" width="65px" height="65px" viewBox="0 0 65 65"><title>2288F2B4-3A1F-4793-9038-74926E2D036E</title><desc>Created with sketchtool.</desc><g id="Arquen-Arnaud-edit" stroke="none" stroke-width="1" fill="none" fill-rule="evenodd"><g id="Homepage" transform="translate(-1207.000000, -1507.000000)" fill="#000000" fill-rule="nonzero"><g id="Core-Features" transform="translate(215.000000, 1029.000000)"><g id="Features" transform="translate(551.000000, 26.000000)"><g id="Block-3" transform="translate(330.000000, 385.000000)"><g id="Icon/Color/Outline/Security" transform="translate(106.000000, 65.000000)"><g id="Icon" transform="translate(5.000000, 2.000000)"><path d="M60.8649735,42.341897 C61.3626146,40.2023775 61.6299703,38.0216492 61.6299703,35.8386933 C61.6299703,25.7091099 56.4277677,16.4850077 47.7128708,11.1657235 C47.1815294,10.8427351 46.4917967,11.0064568 46.1671505,11.5299207 C45.8413809,12.0544983 46.0065124,12.7394564 46.5344837,13.0624448 C54.579868,17.9740954 59.3832838,26.4876233 59.3832838,35.8386933 C59.3832838,37.761031 59.1586151,39.6822549 58.7396081,41.5711799 C58.2217468,41.4642596 57.6859121,41.4074582 57.1365973,41.4074582 C52.8004923,41.4074582 49.2731945,44.9057563 49.2731945,49.2037291 C49.2731945,53.5017019 52.8004923,57 57.1365973,57 C61.4727022,57 65,53.5017019 65,49.2037291 C65,46.2422599 63.3250952,43.6616943 60.8649735,42.341897 Z M57.1365973,54.772494 C54.0395399,54.772494 51.519881,52.2743461 51.519881,49.2037291 C51.519881,46.1331121 54.0395399,43.6349642 57.1365973,43.6349642 C60.2336546,43.6349642 62.7533135,46.1331121 62.7533135,49.2037291 C62.7533135,52.2743461 60.2336546,54.772494 57.1365973,54.772494 Z" id="Shape"></path><path d="M43.4264923,60.6365714 C40.1101468,62.0148571 36.6003952,62.7142857 32.9928029,62.7142857 C25.7286978,62.7142857 18.7410497,59.7714286 13.6328537,54.6091429 C15.0504065,53.1634286 15.92756,51.184 15.92756,49 C15.92756,44.5897143 12.3552358,41 7.96378,41 C3.57232417,41 0,44.5897143 0,49 C0,53.4102857 3.57232417,57 7.96378,57 C9.35857918,57 10.6691898,56.6354286 11.8102857,56 C17.3610404,61.7268571 25.0221968,65 32.9928029,65 C36.9007435,65 40.7040173,64.2422857 44.2968197,62.7474286 C44.877038,62.5062857 45.1534949,61.8377143 44.9134438,61.2537143 C44.6733928,60.672 44.0067106,60.3954286 43.4264923,60.6365714 Z M2.27536571,49 C2.27536571,45.8491429 4.82718836,43.2857143 7.96378,43.2857143 C11.1003716,43.2857143 13.6521943,45.8491429 13.6521943,49 C13.6521943,52.1508571 11.1003716,54.7142857 7.96378,54.7142857 C4.82718836,54.7142857 2.27536571,52.1508571 2.27536571,49 Z" id="Shape"></path><path d="M5.04443986,34.9966363 C5.07140653,34.9988788 5.0983732,35 5.12421626,35 C5.70961773,35 6.20175945,34.5492696 6.24445668,33.9572655 C7.0444679,22.6452781 14.7681717,13.1922732 25.5930425,10.0595848 C26.5526065,13.3133649 29.5672555,15.6970784 33.1347212,15.6970784 C37.4718607,15.6970784 41,12.1753268 41,7.84853921 C41,3.52175167 37.4718607,0 33.1347212,0 C28.8076943,0 25.2862966,3.50605459 25.2705661,7.82050871 C13.3816354,11.1247437 4.87702179,21.4377242 4.00285223,33.8002947 C3.95903139,34.4169657 4.42533006,34.95403 5.04443986,34.9966363 Z M33.1347212,2.24243977 C36.2325174,2.24243977 38.7527775,4.75733598 38.7527775,7.84853921 C38.7527775,10.9397424 36.2325174,13.4546386 33.1347212,13.4546386 C30.036925,13.4546386 27.5166649,10.9397424 27.5166649,7.84853921 C27.5166649,4.75733598 30.036925,2.24243977 33.1347212,2.24243977 Z" id="Shape"></path></g></g></g></g></g></g></g></svg>