<svg viewBox="0 0 19 19" fill="none" xmlns="http://www.w3.org/2000/svg">
  <path
    fill-rule="evenodd"
    clip-rule="evenodd"
    d="M11.1196 3.6343L12.182 4.6967L14.6534 2.2253C15.2434 1.6353 16.1892 1.6329 16.7782 2.2218C17.3648 2.8084 17.3642 3.7571 16.7747 4.3466L14.3033 6.818L15.3657 7.8804C15.4588 7.97301 15.5326 8.08312 15.5829 8.2044C15.6333 8.32567 15.6591 8.4557 15.6589 8.587C15.6588 8.7183 15.6326 8.84827 15.582 8.96943C15.5314 9.09058 15.4573 9.20051 15.364 9.2929C14.9743 9.6825 14.3377 9.6809 13.9452 9.2884L9.7116 5.0548C9.3166 4.6598 9.3145 4.0287 9.7071 3.636C10.0979 3.2452 10.7299 3.2446 11.1196 3.6343ZM9.0046 5.7619L13.2381 9.9955C14.0203 10.7777 15.2901 10.781 16.0711 10C16.8549 9.2162 16.8542 7.9547 16.0728 7.1733L15.7175 6.818L17.4818 5.0537C18.4617 4.0739 18.4626 2.492 17.4853 1.5147C16.505 0.5344 14.926 0.5385 13.9463 1.5182L12.182 3.2825L11.8267 2.9272C11.0462 2.1467 9.781 2.148 9 2.929C8.2157 3.7133 8.2201 4.9776 9.0045 5.762L9.0046 5.7619Z"
    fill="black"
  />
  <path
    fill-rule="evenodd"
    clip-rule="evenodd"
    d="M1.2218 14.2426C1.13709 14.3273 1.08564 14.4397 1.0768 14.5592L0.8504 17.613C0.845084 17.6847 0.855293 17.7567 0.880329 17.8241C0.905366 17.8915 0.944642 17.9527 0.995478 18.0035C1.04631 18.0544 1.10752 18.0936 1.17491 18.1187C1.2423 18.1437 1.3143 18.1539 1.386 18.1486L4.4398 17.9223C4.55931 17.9134 4.67167 17.8619 4.7564 17.7772L13.2417 9.2919C13.2891 9.24569 13.3268 9.19052 13.3527 9.12961C13.3787 9.0687 13.3922 9.00324 13.3926 8.93705C13.393 8.87086 13.3803 8.80524 13.3552 8.74401C13.33 8.68278 13.293 8.62714 13.2462 8.58034C13.1993 8.53354 13.1437 8.4965 13.0825 8.47136C13.0212 8.44623 12.9556 8.43351 12.8894 8.43393C12.8232 8.43435 12.7578 8.44792 12.6969 8.47383C12.636 8.49975 12.5808 8.5375 12.5346 8.5849L4.179 16.9402L1.89 17.1105L2.0587 14.8198L10.4141 6.4644C10.5059 6.37024 10.5569 6.2437 10.5561 6.1122C10.5553 5.98069 10.5027 5.8548 10.4097 5.7618C10.3167 5.6688 10.1908 5.61618 10.0593 5.61534C9.92781 5.6145 9.80127 5.6655 9.7071 5.7573L1.2217 14.2425L1.2218 14.2426Z"
    fill="black"
  />
</svg>
