<?xml version="1.0" encoding="UTF-8"?>
<svg xmlns="http://www.w3.org/2000/svg" viewBox="0 0 848.9 224.8"><path d="M15.9 70.7h139.3v31.5l-88.6 83.7h88.6V220H15.9v-31.5l88.6-83.7H15.9ZM212.7 186h95.9v34H173.8V70.7h132.3v34h-93.4v22.2h74.6v34h-74.6ZM439.8 70.7h36.7V220h-34.9l-77.9-92.6V220H327V70.7h34.9l77.9 92.7ZM791.7 141V70.7h38.9V141c0 50.7-28.7 81.1-76.8 81.4H575.2c-48.6 0-77.6-30.4-77.6-81.4V70.7h38.8V141c0 32.8 11.2 46.2 38.8 46.2.3.1 177.5 0 178.4 0 27.1-.2 38.1-13.6 38.1-46.2Z"/><path d="m734.8 56.4-1.2-6.8-.5-1.6c-7.6-19.6-24.6-38.7-51-35.8-2.8-4.2-5.2-6.7-9-8.9A23.5 23.5 0 0 0 661.6 0a47.9 47.9 0 0 0-13.1 1.5c-16.9 4.1-29.8 14.6-39 29.2a47 47 0 0 0-25.8 23.9l-2.1 5.6c-.9 2.6-.8 3.8-1.1 6.7-1.3 13.3 2.3 29 11.6 40.2-6 42.6 69.6 61.6 109.9 30.3 41.7-13.1 52.4-50.4 35-76-2.4-3.6-1.8-1.7-2.2-5Zm-17.4 35.2a23.9 23.9 0 0 0-3.1-4.7c1.4-9.4-2-17.2-8-24.6-3.9-4.7-5.1-3.6-2.2-4.8s4.4-1.3 9.9-1.5c3.4-.1 8.6-1 14.7 5.4.5 11.7-2.8 22.8-11.3 30.2Zm-5.8 4 .2-.5c.2.3.2.3-.2.5ZM694.9 19c17.2 3.4 28.2 18.8 31.8 30.6l-5.8-.2c-6.7-1.9-6.6-.3-20.8.7-18 1.2-8.8 3.8-10.4-14.6a55.1 55.1 0 0 0-4.2-17 49.4 49.4 0 0 1 9.4.5Zm-5 39.7a1.7 1.7 0 0 0-.1-.7c.8.3.8.1.1.7Zm6.5 3.1c5.4 4.2 10.7 11.4 11.5 19.4.1.9.2.8-.8.3-7-3.5-14.5-3.3-22-1.4 5.2-9.4 1.2-10.4 11.3-18.3Zm2.8 23.9a20.4 20.4 0 0 1 7.9 3.4 26.7 26.7 0 0 1-1.4 3.6 31.2 31.2 0 0 1-4 6.2l-1.6.3c-5 .3-8.8-1.2-10.9-3.1a23 23 0 0 0-4.6-8.5.6.6 0 0 1-.1-.4 30.6 30.6 0 0 1 14.7-1.5Zm-3.4 19.9a66.1 66.1 0 0 1-10.7 9.1h.1a25.1 25.1 0 0 0 4.5-10.6 15.8 15.8 0 0 0 6.1 1.5Zm-12.9-38.8c-5 7.6-3.6 10.7-6.3 14.3a24.5 24.5 0 0 0-14.7-3.3c-4.5-6.1-6-3.4-5-6.3a21.7 21.7 0 0 0 4.3.8h2.3c18-1.5 21.8-20.5 19.4-5.5ZM677.7 90c1.6 1.5.3.4 2.5 4.9s2.9 3.6 3.1 5.3c.3 7.1-4.2 12.6-9.9 16.7s-7.8 4.1-11.3 3.6a21.5 21.5 0 0 1-1.8-12.3c4-5.6 3.9-11 17.4-18.2Zm-10.2-5.4a28 28 0 0 1 4.1 1.3c-4.2 2.6-2.8 2.2-5.4 3.4 0-.4-.1-.7-.1-1.1-.4-4.3-2-4.2 1.4-3.6ZM613 91.5c12.2 9.7 25.3 8.3 26.3 8.1a25.6 25.6 0 0 0 3.1 15.9 30.7 30.7 0 0 1-19.1 2.6c-7.6-1.5-9.9-2.7-12.8-9.8-1.9-5.6-2.2-9.6 2.5-16.8Zm-4-27c-.8-3.4-.8-2.9 1.1-2.8s.7-.4-1.1 2.8Zm6.5 11.2a20.5 20.5 0 0 1-2.7-2.9c1.1-4.7 3.3-7.7 6.8-10.9h1.8c-1.2 13.8 4.7 7.2-5.9 13.8Zm26.8-23.2c.4.1.3 0 .4.5 1 7.2 4.5 9.7 1.2 7.5-9.3-6.4-20.3-2.9-10.9-6.5 4.9-1.8 7.3-1.8 9.3-1.5Zm-6.9-7.7a25.5 25.5 0 0 1 8-6.3l.4.2c-2.8 9.4 1.3 6.5-6.1 7.3-4 .4-4.8 1.8-2.3-1.2Zm2 19.6c-10.4 4.5-9.2 5.3-9.4 2.9a40.1 40.1 0 0 1 0-4.9 31.2 31.2 0 0 1 9.4 2Zm4.9 11c-3.9 2.2-9 3.8-9.8 3.2l-1.1-1.2a33.4 33.4 0 0 1 10.9-2Zm-10.5 10.3a21.6 21.6 0 0 0 3.8.6h.5a21.1 21.1 0 0 0 6.6-1.5c1.5-.6.5-.9 1.8 2.7a26.6 26.6 0 0 0-3.1 4.8c-8.6 2.8-18.9-1.9-24.2-5.9 3.6-3.6 2.2.8 14.6-.7Zm5.5 38.6a38.5 38.5 0 0 0 9.6-3.7 25.5 25.5 0 0 0 6.3 4c2 .9-9.3 1.7-18.7.2Zm15.2-7.6 1.3-1.1c.3 2.3.8 2.5-1.3 1.1Zm-4.5-4.8a18.2 18.2 0 0 1-1.5-14.6 15 15 0 0 0 3.3-2.3 17.8 17.8 0 0 0 8.4 2.9c-5.5 7.2-1.7 7.1-10.2 14Zm18.6-61c-12.4 3.4-1.8 5.8-10.4-8.6-3.7-6.2-8.6-7 2.5-8.1a35.6 35.6 0 0 1 8 .2c7.5 1.6 11.6 5.9 14.4 13.1 1.6 4.4 0-.7-14.5 3.4Zm8.1 9.3c-5.6 5.1-11.8 6.2-15.3 5.1.7-2.4-.9-1.8 7.4-3.6 2.6-.6 5.3-1.1 7.9-1.5Zm-22.4-10.8c1.7 4.8.7 1.5-3.3-1.2a33.7 33.7 0 0 1 .3-4.4 25.2 25.2 0 0 1 3 5.6Zm1.9 40.6c1.7-3.5.3-3.9 4.3-5a16.7 16.7 0 0 1 1.2 6.3c-1.4.3-4.6-.7-5.5-1.3Zm24.4-70.6a46.1 46.1 0 0 1 4.6 18.1c-11.1-15.4-27.9-7.1-22.5-11s11.3-5.8 17.9-7.1ZM664.2 6.9c7.2 1.5 11 6.5 10.5 6.6-10.1 2.3-19.9 7.3-26.1 15.5-.7.9.4-.1-4.9 2.1a40.5 40.5 0 0 0-24.2-3.2c14.4-18.1 34.3-22.6 44.7-21Zm-32 27.4ZM613.9 36a38.9 38.9 0 0 1 18.9-1.6c7.3 1.5-.1-.3-6.9 12.8-2.7 5.3 0 2.2-5.5 5.8s-.7 2.1-12.4 2c.2-6.9 2.3-12.9 5.9-19Zm-9.6 4.7c-6.8 17.2 3.9 14.3-13.6 14.6a39.2 39.2 0 0 1 13.6-14.6ZM588 62h5.2c15.1-.3 4.3-1.7 12.8 12.4a22.6 22.6 0 0 0 .1 5.2c.5 3.9 1.5.8-3.2 5.8a43.2 43.2 0 0 0-8.6 13.6c-8.6-13.7-8.1-30.4-6.3-37Zm15.4 45.5c.3 1.1 2.1 4.2-4.2-2.3a35.3 35.3 0 0 1 5-11c-2.2 5.6-1.9 9.4-.8 13.3Zm75.3 35.4c-23.3 8.3-76 3.2-80.1-29.4a57.5 57.5 0 0 0 13 7.8c11.8 10.4 32.2 13.2 47.3 9.3 2.8-.8 1.1-1.1 5 2 14 11 31.2 4.1 14.8 10.3Zm20.1-11.4c-10.4 3-21.9 2.4-30.9-4.1 1.3-.6 9 .6 20.5-7s14.7-14.8 18.9-16a35.4 35.4 0 0 0 6.4-2.5c1.6 11.6-5.9 22.2-14.9 29.6Zm15.2-6.9a33 33 0 0 0 5.8-26.5 32.7 32.7 0 0 0 3.5-3c6.3-6 10.3-15 11.5-23.8 15.2 35.8-22.5 55.8-20.8 53.3Z" fill="#ff5757"/></svg>