<?xml version="1.0" encoding="UTF-8"?>
<svg width="300" height="100" version="1.1" viewBox="0 0 300 100" xmlns="http://www.w3.org/2000/svg">
 <rect x=".24455" y=".24461" width="299.51" height="99.125" fill="none" stroke="#000" stroke-width=".4891"/>
 <path d="m149.92 0.24459v99.125z" fill="none" stroke="#000" stroke-width=".4891"/>
 <path d="m101.54 19.102c0 9.2682-7.5134 16.782-16.782 16.782-9.2682 0-16.782-7.5134-16.782-16.782 0-9.2682 7.5134-16.782 16.782-16.782 9.2682 0 16.782 7.5134 16.782 16.782z" fill-rule="evenodd"/>
 <path d="m69.226 34.74c0 18.928-15.344 34.272-34.271 34.272-18.928 0-34.271-15.344-34.271-34.272s15.344-34.272 34.271-34.272c18.928 0 34.271 15.344 34.271 34.272z" fill-rule="evenodd"/>
 <path d="m273.22 74.46c0 9.2682-7.5134 16.782-16.782 16.782s-16.782-7.5134-16.782-16.782c0-9.2682 7.5134-16.782 16.782-16.782s16.782 7.5134 16.782 16.782z" fill-rule="evenodd"/>
 <path d="m243.96 40.898c0 18.928-15.344 34.272-34.271 34.272s-34.271-15.344-34.271-34.272 15.344-34.272 34.271-34.272 34.271 15.344 34.271 34.272z" fill-rule="evenodd"/>
</svg>
