<?xml version="1.0" encoding="UTF-8"?>
<svg width="300" height="120" version="1.1" viewBox="0 0 300 120" xmlns="http://www.w3.org/2000/svg" xmlns:xlink="http://www.w3.org/1999/xlink">
 <style/>
 <defs>
  <linearGradient id="b">
   <stop stop-color="#f7f7f7" stop-opacity="0" offset="0"/>
   <stop stop-color="#fff" offset="1"/>
  </linearGradient>
  <linearGradient id="d">
   <stop stop-color="#556d4a" offset="0"/>
   <stop stop-color="#778670" stop-opacity=".97175" offset=".64778"/>
   <stop stop-color="#8b9f82" offset="1"/>
  </linearGradient>
  <linearGradient id="e">
   <stop stop-color="#484848" offset="0"/>
   <stop stop-color="#929292" offset=".68667"/>
   <stop stop-color="#d8d8d8" offset="1"/>
  </linearGradient>
  <linearGradient id="c">
   <stop stop-color="#495942" offset="0"/>
   <stop stop-color="#778670" stop-opacity=".97255" offset=".32111"/>
   <stop stop-color="#a9c19e" offset="1"/>
  </linearGradient>
  <linearGradient id="a">
   <stop stop-opacity=".40784" offset="0"/>
   <stop stop-opacity=".079096" offset=".64778"/>
   <stop stop-opacity="0" offset="1"/>
  </linearGradient>
  <radialGradient id="k" cx="24.826" cy="176.56" r="51.668" fx="24.82" fy="130.39" gradientUnits="userSpaceOnUse" xlink:href="#a"/>
  <radialGradient id="j" cx="24.826" cy="176.56" r="51.668" fx="41.757" fy="144.16" gradientUnits="userSpaceOnUse" xlink:href="#a"/>
  <linearGradient id="v" x1="112.6" x2="181.28" y1="705.08" y2="565.31" gradientTransform="scale(1.8832 .53102)" gradientUnits="userSpaceOnUse" xlink:href="#c"/>
  <radialGradient id="i" cx="451.74" cy="224.67" r="25.301" fx="453.19" fy="224.16" gradientTransform="scale(.57963 1.7252)" gradientUnits="userSpaceOnUse" xlink:href="#e"/>
  <radialGradient id="h" cx="629.56" cy="225.72" r="14.903" fx="629.09" fy="224.52" gradientTransform="scale(.56211 1.779)" gradientUnits="userSpaceOnUse" xlink:href="#e"/>
  <linearGradient id="u" x1="287.56" x2="326.31" y1="297.57" y2="605.24" gradientTransform="scale(1.2059 .82927)" gradientUnits="userSpaceOnUse" xlink:href="#c"/>
  <linearGradient id="t" x1="88.666" x2="131.6" y1="49.943" y2="74.428" gradientTransform="scale(.99822 1.0018)" gradientUnits="userSpaceOnUse" xlink:href="#d"/>
  <linearGradient id="s" x1="187.35" x2="253.38" y1="336.11" y2="336.11" gradientTransform="scale(1.1794 .84791)" gradientUnits="userSpaceOnUse" xlink:href="#d"/>
  <linearGradient id="r" x1="122.69" x2="131.12" y1="53.278" y2="45.005" gradientTransform="scale(.85661 1.1674)" gradientUnits="userSpaceOnUse">
   <stop stop-color="#fff" stop-opacity="0" offset="0"/>
   <stop stop-color="#fff" offset="1"/>
  </linearGradient>
  <linearGradient id="q" x1="129.26" x2="130.81" y1="77.593" y2="64.209" gradientTransform="scale(.73169 1.3667)" gradientUnits="userSpaceOnUse" xlink:href="#a"/>
  <linearGradient id="p" x1="172.47" x2="172.7" y1="77.259" y2="65.691" gradientTransform="scale(.7264 1.3766)" gradientUnits="userSpaceOnUse" xlink:href="#a"/>
  <radialGradient id="g" cx="24.826" cy="176.56" r="51.668" fx="30.803" fy="141.29" gradientUnits="userSpaceOnUse" xlink:href="#a"/>
  <linearGradient id="o" x1="156.13" x2="162.73" y1="97.763" y2="84.428" gradientTransform="scale(.95811 1.0437)" gradientUnits="userSpaceOnUse" xlink:href="#b"/>
  <linearGradient id="n" x1="110.17" x2="115.21" y1="135.07" y2="103.88" gradientTransform="scale(.97849 1.022)" gradientUnits="userSpaceOnUse" xlink:href="#b"/>
  <linearGradient id="m" x1="121.02" x2="130.72" y1="123.45" y2="91.336" gradientTransform="scale(1.0353 .96589)" gradientUnits="userSpaceOnUse" xlink:href="#b"/>
  <radialGradient id="f" cx="64.959" cy="71.937" r="34.085" gradientTransform="scale(.94544 1.0577)" gradientUnits="userSpaceOnUse">
   <stop stop-color="#f7f7f7" stop-opacity="0" offset="0"/>
   <stop stop-color="#fbfbfb" stop-opacity=".073446" offset=".45062"/>
   <stop stop-color="#fff" stop-opacity=".78531" offset="1"/>
  </radialGradient>
  <linearGradient id="l" x1="52.397" x2="54.702" y1="74.473" y2="42.421" gradientTransform="scale(.9461 1.057)" gradientUnits="userSpaceOnUse" xlink:href="#b"/>
 </defs>
 <rect x="149.99" y=".24466" width="149.77" height="99.169" fill="#fff" fill-rule="evenodd" stroke="#000" stroke-width=".48931"/>
 <rect x=".24466" y=".24466" width="149.77" height="99.169" fill="#fff" fill-rule="evenodd" stroke="#000" stroke-width=".48931"/>
 <g id="w" transform="matrix(.51049 0 0 .51049 19.517 -1652.3)">
  <path transform="matrix(.96674 0 0 .23354 113.96 3337.1)" d="m82.055 175.84c0 31.007-25.136 56.143-56.143 56.143-31.007 0-56.143-25.136-56.143-56.143 0-31.007 25.136-56.143 56.143-56.143 31.007 0 56.143 25.136 56.143 56.143z" fill="url(#k)" fill-opacity=".75" fill-rule="evenodd" stroke-width="1pt"/>
  <path transform="matrix(1.0809 0 0 .28699 162.89 3326.4)" d="m82.055 175.84c0 31.007-25.136 56.143-56.143 56.143-31.007 0-56.143-25.136-56.143-56.143 0-31.007 25.136-56.143 56.143-56.143 31.007 0 56.143 25.136 56.143 56.143z" fill="url(#j)" fill-opacity=".75" fill-rule="evenodd" stroke-width="1pt"/>
  <g transform="matrix(1.202 0 0 1.202 73.323 3220.8)">
   <path transform="matrix(.37783 -.023957 .023957 .37783 -16.042 -27.911)" d="m298.95 267.7c0.10375-1.1353 2.047-2.5088 3.005-1.8355l15.298 10.751c1.4472 1.0171 2.0993 3.0002 2.1854 4.72l1.3659 27.271c0.0752 1.5021-2.407 3.2625-3.8245 2.6222l-18.576-8.391c-1.7748-0.80169-2.3568-3.3688-2.1854-5.2444z" fill="#586051" fill-rule="evenodd" stroke-width="1pt"/>
   <path transform="matrix(.37783 -.023957 .023957 .37783 -16.042 -27.911)" d="m368.79 386.45 1.2953 23.745-70.237-9.6703c-2.2146-0.30492-1.3572 11.791-10.688 17.305-7.1573 4.2293-15.147 4.4695-20.868 0.50896l-33.083-22.903-81.039-5.6846c-3.5811-0.2512-1.536 14.146-12.098 21.717-40.79 19.515-55.309-30.992-44.157-38.562l-19.199-13.807 138.92-1.4396 41.028-41.747 108.69 37.429z" fill="#393939" fill-rule="evenodd" stroke="#000" stroke-width="1.9235pt"/>
   <path transform="matrix(.37783 -.023957 .023957 .37783 -16.042 -27.911)" d="m316.47 281.56 0.16848 16.963c0.012 1.21-1.5895 2.2839-2.7993 2.3114l-5.5986 0.12724c-1.2446 0.0283-3.0575-0.8134-3.1174-2.0569l-0.80469-16.709c-0.0637-1.3222 1.478-2.736 2.7993-2.8168l6.2348-0.38173c1.3426-0.0822 3.104 1.2173 3.1174 2.5624z" fill="#292e23" fill-rule="evenodd" stroke-width="1pt"/>
   <path transform="matrix(.37783 -.023957 .023957 .37783 -16.042 -27.911)" d="m322.3 279.99-1.0109 36.73 34.034 11.457-3.3697-7.4133 0.33697-6.7394 3.7067-2.6958 8.4242 2.6958-1.3479-7.7503-14.49-9.0982v23.588h-2.6958l-16.848-9.4351-2.0218-6.7394-0.33697-16.175 4.3806-2.0218z" fill="#a5ae9d" fill-rule="evenodd" stroke-width="1pt"/>
   <path transform="matrix(.37783 -.023957 .023957 .37783 -16.042 -27.911)" d="m85.571 349.63 2.5448-39.699 8.6524-8.6524 123.68-12.724 24.43 3.5628 124.63 51.997-1.1564 5.9205-78.171 19.445-3.0538-34.61-7.1255-9.6703-24.43-5.5986-20.868 38.172-152.18-0.50896z" fill="url(#v)" fill-rule="evenodd" stroke-width="1pt"/>
   <path transform="matrix(.37783 -.023957 .023957 .37783 -16.042 -27.911)" d="m263.26 431.93c-6.9764 1.177-14.529 1.2412-22.456 0.14908-5.7683-7.2103-13.052-21.327-11.793-48.449 1.2082-26.045 9.7165-39.046 16.883-45.2 4.6474-3.6345 18.189-1.4751 20.359 0 5.4084 4.7142 14.93 28.957 14.251 49.878-0.67862 20.562-11.706 41.365-17.243 43.622z" fill="#8b8b8b" fill-rule="evenodd" stroke-width="1pt"/>
   <path transform="matrix(.37783 -.023957 .023957 .37783 -16.042 -27.911)" d="m263.2 339.62c-7.6148 0.97032-13.721 20.564-14.251 43.262-0.52955 23.058 7.0638 44.997 14.313 45.421 6.8904 0.40315 16.775-19.818 16.945-41.437 0.16966-21.978-9.0378-48.262-17.007-47.246z" fill="#5b5b5b" fill-rule="evenodd" stroke-width="1pt"/>
   <path transform="matrix(.37783 -.023957 .023957 .37783 -16.042 -27.911)" d="m255.56 386.27c0-9.331 3.7999-27.552 10.179-27.993 6.7375-0.4653 8.6524 20.189 8.6524 29.52s-4.0742 25.281-8.6524 26.466c-4.9162 1.2726-10.179-18.662-10.179-27.993z" fill="url(#i)" fill-opacity=".75" fill-rule="evenodd" stroke-width="1pt"/>
   <path transform="matrix(.37783 -.023957 .023957 .37783 -16.042 -27.911)" d="m260.46 366.29c2.0994 0.35989 8.2775 6.2381 7.9176 21.953-0.35989 15.355-5.8182 16.555-7.9176 16.195s-4.6786-11.996-4.6786-18.354 2.5792-20.154 4.6786-19.794z" fill="#d9d9d9" fill-rule="evenodd" stroke-width="1pt"/>
   <path transform="matrix(.37783 -.023957 .023957 .37783 -16.042 -27.911)" d="m354.64 427.87c-4.164 0.71295-8.6716 0.75187-13.403 0.0903-3.4429-4.3676-7.7901-12.919-7.0391-29.348 0.72111-15.777 5.7994-23.652 10.077-27.379 2.7739-2.2016 10.857-0.89355 12.151 0 3.2281 2.8556 8.911 17.54 8.5059 30.213-0.40505 12.455-6.987 25.057-10.292 26.424z" fill="#707070" fill-rule="evenodd" stroke-width=".60129pt"/>
   <path transform="matrix(.37783 -.023957 .023957 .37783 -16.042 -27.911)" d="m355.09 371.95c-4.338 0.58776-7.8169 12.456-8.1186 26.206-0.30168 13.967 4.0241 27.257 8.1537 27.514 3.9253 0.2442 9.5566-12.005 9.6532-25.1 0.0967-13.313-5.1487-29.234-9.6884-28.619z" fill="#545454" fill-rule="evenodd" stroke-width="1pt"/>
   <path transform="matrix(.37783 -.023957 .023957 .37783 -16.042 -27.911)" d="m350.74 400.21c0-5.6522 2.1647-16.69 5.799-16.957 3.8383-0.28185 4.9291 12.229 4.9291 17.881s-2.321 15.314-4.9291 16.032c-2.8007 0.77086-5.799-11.304-5.799-16.957z" fill="url(#h)" fill-opacity=".75" fill-rule="evenodd" stroke-width="1pt"/>
   <path transform="matrix(.37783 -.023957 .023957 .37783 -16.042 -27.911)" d="m353.53 388.11c1.196 0.218 4.7156 3.7787 4.5105 13.298-0.20503 9.3014-3.3146 10.028-4.5105 9.8101-1.196-0.21801-2.6653-7.2667-2.6653-11.118 0-3.8514 1.4693-12.208 2.6653-11.99z" fill="#b6b6b6" fill-rule="evenodd" stroke-width="1pt"/>
   <path transform="matrix(.37783 -.023957 .023957 .37783 -16.042 -27.911)" d="m88.431 312.31c0.12952-2.5472 3.2187-4.8029 5.7583-5.0385l124.16-11.517c3.2494-0.3014 7.96 2.4952 7.9176 5.7583l-0.3599 27.712c-0.0497 3.8254-3.733 8.5497-7.5577 8.6374l-125.6 2.8791c-2.9983 0.0687-5.5507-4.2026-5.3984-7.1978z" fill="#5f7161" fill-rule="evenodd" stroke-width="1pt"/>
   <path transform="matrix(.37783 -.023957 .023957 .37783 -16.042 -27.911)" d="m99.947 322.39c0.17994-4.3787 3.6589-9.777 7.9176-9.7171 4.4387 0.06 4.8585 5.8782 4.6786 8.9973-0.17995 3.1191-2.5792 9.7771-6.658 9.7171-4.0801-0.06-6.1108-4.7982-5.9382-8.9973z" fill="#aeb89b" fill-rule="evenodd" stroke-width="1pt"/>
   <path transform="matrix(.37783 -.023957 .023957 .37783 -16.042 -27.911)" d="m194.6 316.27c0-5.6083 4.4375-11.141 9.1772-11.517 4.9185-0.38988 9.1909 4.6475 9.5371 9.1772 0.35989 4.7086-1.9194 13.106-8.4574 13.676-6.3595 0.55427-10.257-5.5483-10.257-11.337z" fill="#aeb89b" fill-rule="evenodd" stroke-width="1pt"/>
   <path transform="matrix(.37783 -.023957 .023957 .37783 -16.042 -27.911)" d="m234.19 340.98 4.0717-41.735 9.1614-4.0717 122.15 50.896v42.244l-4.4534-2.2903 0.12724-23.667-10.052-5.8531c-3.612-2.1032-7.2309 5.6604-7.8253 9.7976l-2.3858 16.605-56.336-11.897-2.5448-39.699-30.538-13.233c-9.5821-4.1522-22.39 33.297-21.376 22.903z" fill="url(#u)" fill-rule="evenodd" stroke-width="1pt"/>
   <path transform="matrix(.37783 -.023957 .023957 .37783 -16.042 -27.911)" d="m230.12 364.39-7.1255-1.5269-148.62-1.5269 1.0179-10.179 144.55-3.0538 12.724 1.0179 10.688-28.502c2.3362-6.2298 12.768-9.355 18.832-6.6165l15.778 7.1255c7.3764 3.3313 12.706 12.282 13.233 20.359l1.5269 23.412 25.957 7.1255-2.0358 6.6165-28.502-5.0896-2.0359-27.484c-0.46082-6.2211-1.2075-15.332-7.1255-17.305l-13.742-4.5807c-4.8311-1.6104-11.689 2.7817-13.233 7.6345l-10.688 33.592z" fill="#4d4d4d" fill-rule="evenodd" stroke-width="1pt"/>
   <path transform="matrix(.37783 -.023957 .023957 .37783 -16.042 -27.911)" d="m325.65 309.57 16.146 0.22508 0.71978 9.3572 3.9588 1.7995c0.69929 0.31786 1.4382-1.0313 1.4396-1.7995l0.0302-17.484c4e-3 -2.3293-2.1167-4.3327-3.9588-5.7583l-16.629-12.869c-1.4513-1.1231-5.5074-0.75217-5.3984 1.0797l1.1723 19.691c0.12451 2.0914 0.42437 5.7291 2.5192 5.7583z" fill="#505947" fill-rule="evenodd" stroke-width="1pt"/>
   <path transform="translate(11.666 18.452)" d="m91.387 44.457-1.9991 15.669-0.52534 3.8948 30.774 10.309-2.3446-14.139-25.196-16.745zm0.40568 3.3531c0.01012-0.4186 0.66216-0.96561 1.015-0.74012l5.6345 3.6008c0.53304 0.34065 0.80865 1.0533 0.87895 1.682l1.1148 9.9693c0.0614 0.5491-0.77134 1.25-1.2852 1.0469l-6.7334-2.6623c-0.64332-0.25436-0.90786-1.1827-0.89114-1.8743zm9.6756 6.4338c-0.0563-0.57622 0.90916-1.388 1.3813-1.053l6.3685 4.5196 1.2879 2.0422 0.59469 6.3338c0.05 0.53216-0.29431 1.6241-0.78001 1.401l-6.4632-2.969c-0.72957-0.33515-1.4861-1.0325-1.5642-1.8316zm10.427 6.0966c-0.0245-0.38594 0.49316-1.0361 0.8166-0.82408l3.2232 2.1125c0.52976 0.34722 0.98241 0.94563 1.0652 1.5736l0.74431 5.6486c0.0593 0.45028-0.48422 1.204-0.90055 1.0225l-3.6734-1.6013c-0.66157-0.28838-0.85157-1.2502-0.89724-1.9704z" fill="url(#t)" fill-rule="evenodd" stroke-width="1pt"/>
   <path transform="matrix(.37783 -.023957 .023957 .37783 -16.042 -27.911)" d="m220.96 288.71 66.165-2.6427 7.1255-29.07 4.5807 0.52854-7.1255 43.301 5.5986 4.2283-3.5627 7.9281-51.914-21.102z" fill="url(#s)" fill-rule="evenodd" stroke-width="1pt"/>
   <path transform="matrix(.37783 -.023957 .023957 .37783 -16.042 -27.911)" d="m189.56 286.04 3.239-7.9176 24.113 11.517 72.338-1.4396 6.8379-30.591-2.5192-3.239-102.21 14.756-10.797 18.354z" fill="#545b4d" fill-rule="evenodd" stroke-width="1pt"/>
   <path transform="matrix(.37783 -.023957 .023957 .37783 -16.042 -27.911)" d="m117.13 299.49 2.2903-4.3262c1.5846-2.9932 6.0441-3.4989 9.4158-3.8172l59.294-5.5986c7.2942-0.68872 15.672-1.8473 21.885 2.0358 6.213 3.8831 5.6651 2.3943 4.0717 2.5448z" fill="#415b42" fill-rule="evenodd" stroke-width="1pt"/>
   <path transform="matrix(.37783 -.023957 .023957 .37783 -16.042 -27.911)" d="m365.19 306.19c1.505 1.0969-0.10525-6.523-1.6141-7.6146l-61.182-44.267c-3.5658-2.5799-8.2402-4.5882-12.596-3.9588l-94.652 13.676c-3.7093 0.53595-6.3519 5.6063-6.8145 8.2585-0.48637 2.7886 4.3034-2.7108 7.7088-3.1631l97.531-12.956c1.5955-0.21194 0.58819 3.9696 2.1594 4.3187l3.239 0.71978c0.94415 0.20982 1.7376-2.0092 2.5192-1.4396z" fill="#d6d6d6" fill-rule="evenodd" stroke-width="1pt"/>
   <path transform="matrix(.37783 -.023957 .023957 .37783 -16.042 -27.911)" d="m306.46 282.19 0.76345 16.287 6.6165 0.25449 0.76344-16.796z" fill="#fff" fill-opacity=".89529" fill-rule="evenodd" stroke-width="1pt"/>
   <path transform="matrix(.37783 -.023957 .023957 .37783 -16.042 -27.911)" d="m311 300.26v2.25l-13.938-0.28125 0.20702 3.2929 14.512-1.3867h0.84375v-3.875z" fill-rule="evenodd" stroke-width="1.625"/>
   <path transform="translate(11.666 18.452)" d="m101.8 54.873c-0.18179-2.2907 3.1732 3.6763 4.6679 5.0729 1.4947 1.3966 4.4615 1.5056 4.3002 3.3066l-0.29938 3.3426-8.0328-3.7091z" fill="url(#r)" fill-opacity=".75" fill-rule="evenodd" stroke-width="1pt"/>
   <path transform="matrix(.37783 -.023957 .023957 .37783 -16.042 -27.911)" d="m117.51 314.97c0.19096-2.6098 2.4984-5.7791 5.1089-5.9604l61.307-4.2574c2.6028-0.18075 5.5868 2.9261 5.5347 5.5347l-0.42575 21.287c-0.0647 3.2355-4.4276 5.9142-7.6634 5.9604l-59.604 0.85148c-2.711 0.0387-5.7325-3.2564-5.5347-5.9604z" fill="#474747" fill-opacity=".62304" fill-rule="evenodd" stroke-width="1pt"/>
   <path transform="translate(5,17.5)" d="m88.814 111.37c-2.6077 0.61184-5.4596 0.81705-8.4811 0.59431-2.3522-2.5861-5.4423-7.7454-5.6167-18.023-0.16748-9.8696 2.7358-14.986 5.2961-17.482 1.6689-1.4846 6.8371-0.99311 7.6921-0.48773 2.1564 1.6516 6.3346 10.583 6.5794 18.504 0.2362 7.7852-3.432 15.91-5.4699 16.895z" fill="url(#q)" fill-rule="evenodd" stroke-width="1pt"/>
   <path transform="translate(5,17.5)" d="m123.21 107.85c-1.5562 0.36913-3.2584 0.49183-5.062 0.35522-1.4055-1.5677-3.2528-4.6945-3.3627-10.92-0.1055-5.9782 1.6246-9.0754 3.1515-10.586 0.99533-0.89827 4.0806-0.5977 4.5912-0.29111 1.2881 1.0016 3.7871 6.4138 3.9376 11.212 0.14535 4.7157-2.0396 9.6346-3.2556 10.23z" fill="url(#p)" fill-rule="evenodd" stroke-width=".60129pt"/>
  </g>
  <path transform="matrix(1.0809 0 0 .28699 146.76 3332.9)" d="m82.055 175.84c0 31.007-25.136 56.143-56.143 56.143-31.007 0-56.143-25.136-56.143-56.143 0-31.007 25.136-56.143 56.143-56.143 31.007 0 56.143 25.136 56.143 56.143z" fill="url(#g)" fill-opacity=".75" fill-rule="evenodd" stroke-width="1pt"/>
 </g>
 <text y="106.18829" font-family="'Liberation Sans',Arial,sans-serif" font-size="6px" stroke-width=".98193pt" style="line-height:0%" xml:space="preserve"><tspan stroke-width=".98193pt">Fourmi &amp; 4×4 au hasard</tspan></text>
 <text y="111" font-family="'Liberation Sans',Arial,sans-serif" font-size="3px" stroke-width=".51264pt" style="line-height:0%" xml:space="preserve"><tspan x="0" y="111" style="line-height:1.1">Image SVG créée par Andrew Fitzsimon</tspan><tspan x="0" y="114" style="line-height:1.1">Autorisation de la bibliothèque Open Clip Art</tspan><tspan x="0" y="117" style="line-height:1.1">http://www.openclipart.org/</tspan></text>
 <g id="x" transform="matrix(1.0999 0 0 1.0999 -203.01 -2517.8)">
  <path transform="matrix(.31191 0 0 .31191 184.83 2289.2)" d="m147.45 91.908-16.756-7.6988 28.531-4.0759 2.2644 3.1701" fill="none" stroke="#000" stroke-width="4.5308"/>
  <path transform="matrix(.31191 0 0 .31191 184.83 2289.2)" d="m155.46 108.55 4.9816 18.115 14.492-24.455" fill="none" stroke="#000" stroke-width="4.5308"/>
  <path transform="matrix(.31191 0 0 .31191 184.83 2289.2)" d="m97.069 145.26s-17.933-7.6855-25.939 4.8034c-8.0057 12.489-10.247 28.821-4.163 35.225 6.0844 6.4046 25.939 1.9214 30.102-6.4046 4.163-8.326 8.326-25.298 6.4046-29.461-1.9214-4.163-6.4046-4.163-6.4046-4.163z" fill="#7c5a08" fill-rule="evenodd" stroke-width="1pt"/>
  <path transform="matrix(.31191 0 0 .31191 184.83 2289.2)" d="m142.42 138.79-0.52832 0.11123-15.21 3.3089-4.7628-5.9031-3.2336 2.9594 7.2456 5.4184 0.41709 0.22245 0.4449-0.11123 15.071-3.2811 18.602 12.402 0.38928 0.25026 0.50051-0.0556 21.717-2.9474-0.10724-0.9453-21.47 1.3068-18.63-12.429z" fill="#3e3e3e" fill-rule="evenodd" stroke-width="2.875"/>
  <path transform="matrix(.37256 0 0 .37256 189.99 2308.3)" d="m85.38 67.643-1.9521 4.0742 0.37247 9.6609 0.02327 0.39575 0.25608 0.27936 8.6366 9.5678c-0.0031 0.39489-0.04656 5.8016-0.04656 11.71 0 3.0596 0.01085 6.1461 0.04656 8.5202 0.01785 1.1871 0.03794 2.1838 0.06984 2.9332 0.01594 0.3747 0.02448 0.68365 0.04656 0.93118 0.01103 0.12376 0.02949 0.24166 0.04656 0.34919s-8.79e-4 0.1612 0.13968 0.44231c0.08156 0.16311 0.13619 0.24393 0.25607 0.4423 0.11989 0.19837 0.26757 0.47102 0.4656 0.7915 0.39604 0.64096 0.94258 1.5146 1.583 2.5374 1.2808 2.0457 2.9502 4.7022 4.6093 7.333 3.3182 5.2617 6.588 10.406 6.588 10.406l1.4366 1.1342s-2.892-7.4444-6.2089-12.704c-1.6584-2.6298-3.3309-5.2678-4.6093-7.3097-0.63921-1.021-1.1678-1.9032-1.5597-2.5374-0.19594-0.31711-0.37548-0.55731-0.48886-0.74493-0.06866-0.11362-0.06308-0.13417-0.09312-0.18624-0.0046-0.0363-0.01764-0.0765-0.02327-0.13968-0.01681-0.18845-0.0314-0.45857-0.04657-0.81477-0.03032-0.71242-0.05214-1.71-0.06983-2.8866-0.03539-2.3533-0.04657-5.4429-0.04657-8.497 0-6.1082 0.04657-12.129 0.04657-12.129v-0.41903l-0.27936-0.30263-8.6599-9.5445z" fill="#3e3e3e" fill-rule="evenodd" stroke-width="2.875"/>
  <path transform="matrix(.31191 0 0 .31191 184.83 2289.2)" d="m109.23 147.27-1.1281 9.5139-0.0556 0.16683v11.011l-10.539 22.606-0.08342 0.19464-0.02781 0.22245-2.5025 28.557v0.27806l0.11122 0.30587 5.6446 14.265 1.9384 1.7718-5.1083-16.704 2.4469-28.001 10.538-22.69 0.13903-0.25026v-11.206l3.3368-10.678z" fill="#3e3e3e" fill-rule="evenodd" stroke-width="2.875"/>
  <path transform="matrix(.31191 0 0 .31191 184.83 2289.2)" d="m129.57 103.15c0.0932 3.8584 0.37893 4.9767 1.9214 6.7248l9.6069 10.888c1.5286 1.7325 4.0863 2.0784 6.8849 0.80058 2.9907-1.3655 9.4718-9.6545 10.728-14.25 1.2807-4.6867 2.3358-12.62 0.16012-14.25-2.0746-1.5542-9.5324-3.935-15.211-1.1208-5.74 2.8447-14.187 7.1949-14.09 11.208z" fill-rule="evenodd" stroke-width="1pt"/>
  <path transform="matrix(.31191 0 0 .31191 184.83 2289.2)" d="m134.56 103.96c-1.3872-9.2482 20.808-17.572 24.045-9.7106 3.2369 7.861-6.705 21.965-11.098 23.583s-11.637-5.1357-12.948-13.872z" fill="url(#o)" fill-opacity=".75" fill-rule="evenodd" stroke-width="1pt"/>
  <path transform="matrix(.31191 0 0 .31191 184.83 2289.2)" d="m63.391 136.26-18.825 18.825-12.556 5.1164-0.03977 0.88968 13.597-3.6148 0.33367-0.0834 0.25025-0.25026 18.046-18.074 34.178 5.2672 0.58393-2.4747-34.873-5.434z" fill="#3e3e3e" fill-rule="evenodd" stroke-width="2.875"/>
  <path transform="matrix(.31191 0 0 .31191 184.83 2289.2)" d="m51.299 101.69-0.81025 0.42894 6.3398 10.399 0.30587 0.50051 0.55612 0.11122 14.932 2.6972 0.13903 0.0278h0.11122l23.941-0.41709-1.6684 15.766-0.11122 1.0844 1.0566 0.27806 8.5921 2.2801 2.4788-3.154-9.3747-1.3227 1.6962-16.1 0.16684-1.4459-1.4459 0.0278-25.276 0.4449-14.237-2.586z" fill="#3e3e3e" fill-rule="evenodd" stroke-width="2.875"/>
  <path transform="matrix(.31191 0 0 .31191 184.83 2289.2)" d="m123.72 70.14-0.52022 0.11122 0.4727 8.7867v0.05561l-2.2245 13.875-0.0278 0.11122-3.5592 13.764-9.4262 15.683-0.27806 0.4727 0.16684 0.55612 1.1361 6.5703 4.2584-0.75076-2.7807-6.042 9.2038-15.349 0.11123-0.16684 0.0278-0.16683 3.6426-14.042v-0.11122l2.2801-14.042 0.0278-0.13903-0.0278-0.13903z" fill="#3e3e3e" fill-rule="evenodd" stroke-width="2.875"/>
  <path transform="matrix(.31191 0 0 .31191 184.83 2289.2)" d="m159.23 101.1s5.4345-0.67931 5.8874-7.246" fill="none" stroke="#000" stroke-width="2.1322pt"/>
  <path transform="matrix(.31191 0 0 .31191 184.83 2289.2)" d="m151.99 91.135s0.45287-3.623 8.1517-2.7172" fill="none" stroke="#000" stroke-width="2.1322pt"/>
  <path transform="matrix(.31191 0 0 .31191 184.83 2289.2)" d="m89.283 144.02c1.3079-1.6349 10.028-4.8452 11.949-4.2047 1.9214 0.64046 0.78919-8.6462 9.4354-10.888 6.3818-4.7324 3.3444-9.351 6.5145-13.2 0.90573-2.2644 8.2005-8.4719 14.168-6.6926 6.1071 1.8209 9.911 11.567 6.0683 17.651-3.8428 6.0844-6.7248 4.8034-6.7248 4.8034s1.2809 4.163-6.0844 6.4046c-7.3653 2.2416-6.7248 6.7248-6.7248 6.7248s-4.8034 5.7641-9.9271 4.4832c-5.1237-1.2809-3.5158 3.713-4.6602 5.0209z" fill="#3c2b00" fill-rule="evenodd" stroke-width="1pt"/>
  <path transform="matrix(.31191 0 0 .31191 184.83 2289.2)" d="m104.63 140.76c-2.9428-3.5967 4.7411-12.915 10.627-8.3378 5.8855 4.5776 3.5967 12.588-1.3079 13.896s-6.3094-1.8804-9.3188-5.5586z" fill="url(#n)" fill-opacity=".75" fill-rule="evenodd" stroke-width="1pt"/>
  <path transform="matrix(.31191 0 0 .31191 184.83 2289.2)" d="m117.87 120.81c-1.2806-2.4523 0.65394-5.6403 2.9428-7.3569s8.1471-4.1417 10.79-2.9428 5.5858 7.1934 5.0681 10.136-5.0408 7.4932-8.1744 7.5204c-3.1335 0.0273-9.346-4.9046-10.627-7.3569z" fill="url(#m)" fill-opacity=".75" fill-rule="evenodd" stroke-width="1pt"/>
  <path transform="matrix(.37256 0 0 .37256 189.99 2308.3)" d="m43.043 81.71s-5.562 15.032 0.05852 19.907c5.4456 4.7226 19.41 6.1634 27.361-10.858 7.9512-17.021-18.303-32.734-27.419-9.049z" fill="url(#f)" fill-opacity=".75" fill-rule="evenodd" stroke-width="1pt"/>
  <path transform="matrix(.37256 0 0 .37256 189.99 2308.3)" d="m58.62 74.099c-6.0202 0.57656-10.181 9.2307-12.36 16.012-1.2094 0.51832-1.0476-6.8264-0.52924-8.0358 0.51832-1.2094 2.3222-7.9799 5.2051-9.9618 2.7644-1.9005 6.6543-2.0002 9.6768-0.91637 2.9935 1.0734 3.7658 2.3509-1.9922 2.9023z" fill="url(#l)" fill-opacity=".75" fill-rule="evenodd" stroke-width="1pt"/>
 </g>
 <use transform="matrix(1.7185 0 0 1.7185 141.7 -40.576)" width="320" height="3146.25" xlink:href="#x"/>
 <use transform="matrix(.25 0 0 .25 242.02 39.847)" width="320" height="3146.25" xlink:href="#w"/>
</svg>
