<?xml version="1.0" encoding="UTF-8"?>
<svg width="300" height="100" version="1.1" viewBox="0 0 300 100" xmlns="http://www.w3.org/2000/svg" xmlns:xlink="http://www.w3.org/1999/xlink">
 <defs>
  <pattern id="ab" xlink:href="#aa" patternTransform="matrix(.017572 .011947 -.011947 .017572 .67793 47.349)"/>
  <pattern id="ac" xlink:href="#v" patternTransform="matrix(.067502 .022351 -.022351 .067502 -4.5512 56.851)"/>
  <pattern id="ad" xlink:href="#f" patternTransform="matrix(.0033413 -.045337 .045337 .0033413 73.694 102.98)"/>
  <pattern id="ae" xlink:href="#d" patternTransform="matrix(.046974 .048672 -.048672 .046974 3.538 67.235)"/>
  <pattern id="af" xlink:href="#e" patternTransform="matrix(-.013609 .028171 .028171 .013609 171.1 17.317)"/>
  <pattern id="ag" xlink:href="#a" patternTransform="matrix(.013609 .028171 -.028171 .013609 -21.301 25.4)"/>
  <pattern id="ah" xlink:href="#k" patternTransform="matrix(.046974 .048672 -.048672 .046974 166.54 67.235)"/>
  <pattern id="ai" xlink:href="#ar" patternTransform="matrix(.013609 .028171 -.028171 .013609 141.7 25.4)"/>
  <pattern id="aj" xlink:href="#aq" patternTransform="matrix(.021137 .064255 -.064255 .021137 196.26 17.104)"/>
  <pattern id="ak" xlink:href="#as" patternTransform="matrix(-.013609 .028171 .028171 .013609 334.11 17.317)"/>
  <pattern id="al" xlink:href="#c" patternTransform="matrix(-.001201 .067632 -.067632 -.001201 134.03 -3.8944)"/>
  <pattern id="am" xlink:href="#ap" patternTransform="matrix(-.0014106 .079437 -.079437 -.0014106 151.76 -4.0995)"/>
  <pattern id="m" xlink:href="#i" patternTransform="matrix(.017913 .012179 -.012179 .017913 7.8698 2842.6)"/>
  <pattern id="aa" xlink:href="#m" patternTransform="matrix(.017913 .012179 -.012179 .017913 7.8698 2840)"/>
  <pattern id="ao" xlink:href="#j" patternTransform="matrix(.036022 -.062902 .062902 .036022 5.0392 2849.7)"/>
  <pattern id="an" xlink:href="#ao" patternTransform="matrix(.068812 .022785 -.022785 .068812 5.0392 2849.7)"/>
  <pattern id="v" xlink:href="#an" patternTransform="matrix(.068812 .022785 -.022785 .068812 2.5392 2849.7)"/>
  <pattern id="ar" xlink:href="#a" patternTransform="matrix(.013873 .028718 -.028718 .013873 151.63 2817.6)"/>
  <pattern id="aq" xlink:href="#c" patternTransform="matrix(.021547 .065502 -.065502 .021547 207.25 2809.2)"/>
  <pattern id="f" xlink:href="#g" patternTransform="matrix(.0034062 -.046216 .046216 .0034062 82.303 2896.7)"/>
  <pattern id="a" xlink:href="#f" patternTransform="matrix(.013873 .028718 -.028718 .013873 -14.535 2817.6)"/>
  <pattern id="e" xlink:href="#a" patternTransform="matrix(-.013873 .028718 .028718 .013873 181.6 2809.4)"/>
  <pattern id="as" xlink:href="#e" patternTransform="matrix(-.013873 .028718 .028718 .013873 347.77 2809.4)"/>
  <pattern id="p" xlink:href="#b" patternTransform="matrix(.031113 -.048507 -.048507 -.031113 139.55 2993.4)"/>
  <pattern id="x" xlink:href="#p" patternTransform="matrix(.025886 -.040358 -.040358 -.025886 110.35 3027.3)"/>
  <pattern id="q" xlink:href="#b" patternTransform="matrix(.080589 -.048488 -.048488 -.080589 -100.98 2912.7)"/>
  <pattern id="w" xlink:href="#q" patternTransform="matrix(.06705 -.040342 -.040342 -.06705 -89.77 2960.2)"/>
  <pattern id="b" xlink:href="#h" patternTransform="matrix(.049378 -.029709 -.029709 -.049378 65.707 2891.2)"/>
  <pattern id="o" xlink:href="#b" patternTransform="matrix(.049378 -.029709 -.029709 -.049378 107.05 2920.4)"/>
  <pattern id="z" xlink:href="#o" patternTransform="matrix(.041083 -.024718 -.024718 -.041083 83.31 2966.6)"/>
  <pattern id="u" width="24.565119" height="24.565200" patternTransform="matrix(.23588 0 0 .23588 23.89 1385.9)" patternUnits="userSpaceOnUse">
   <path d="m0.625 23.94 23.315-23.315" fill="none" stroke="#000" stroke-width="1pt"/>
  </pattern>
  <pattern id="t" xlink:href="#u" patternTransform="matrix(.23588 0 0 .23588 7.4039 1355.4)"/>
  <pattern id="s" xlink:href="#t" patternTransform="matrix(.19371 .13459 -.13459 .19371 7.4039 1377.9)"/>
  <pattern id="r" xlink:href="#s" patternTransform="matrix(.036022 -.062902 .062902 .036022 7.4039 1401.2)"/>
  <pattern id="j" xlink:href="#r" patternTransform="matrix(.036022 -.062902 .062902 .036022 5.0392 2839)"/>
  <pattern id="i" xlink:href="#j" patternTransform="matrix(.017913 .012179 -.012179 .017913 7.8698 2890)"/>
  <pattern id="h" xlink:href="#i" patternTransform="matrix(.049378 .029709 -.029709 .049378 7.8698 2842.5)"/>
  <pattern id="n" xlink:href="#h" patternTransform="matrix(.049378 .029709 -.029709 .049378 50.081 2871.3)"/>
  <pattern id="y" xlink:href="#n" patternTransform="matrix(.041083 .024718 -.024718 .041083 35.91 2925.7)"/>
  <pattern id="l" width="291.92533" height="205.67261" patternTransform="matrix(.06389 .0662 -.0662 .06389 11.88 2864.8)" patternUnits="userSpaceOnUse">
   <path d="m233.64 85.643c-6.2523 0-11.281 14.888-11.562 33.438-12.961-12.191-26.333-18.76-30.625-14.469-4.0088 4.0088 1.5732 15.974 12.219 28.094-15.997 1.069-28.312 5.5732-28.312 11.219 0 5.9266 13.504 10.641 30.688 11.375-12.296 13.014-18.904 26.502-14.594 30.813 4.3139 4.3139 17.79-2.3111 30.812-14.625 0.733 17.188 5.4473 30.688 11.375 30.687 5.603 1e-4 10.072-12.12 11.188-27.937 13.08 12.428 26.697 19.116 31.031 14.781 4.5488-4.5488-2.8536-19.291-16.5-32.938-0.23822-0.2382-0.4799-0.3906-0.71875-0.625 18.47-0.3104 33.281-5.2979 33.281-11.531 0-5.9709-13.692-10.729-31.062-11.406 10.537-12.056 16.051-23.918 12.062-27.906s-15.818 1.5569-27.875 12.094c-0.67556-17.375-5.4343-31.063-11.406-31.063z" fill="#f00" fill-rule="evenodd"/>
   <path transform="translate(371.31 -2712.3)" d="m-117.27 2856.2a20.394 20.394 0 1 0-40.789 0 20.394 20.394 0 1 0 40.789 0z" fill="#cfe300" fill-rule="evenodd" stroke="#000" stroke-opacity=".40331" stroke-width="1.875"/>
   <path d="m213.45 13.665c-4.6912-4.1334-18.306 3.7134-30.781 17.444-1.6654-17.715-7.3556-31.485-13.413-31.102-5.658 0.3577-9.3796 13.025-9.4046 29.157-12.71-9.7735-24.927-14.535-28.66-10.3-3.918 4.4468 3.0976 16.911 15.505 28.822-17.829 1.6358-31.704 7.3871-31.32 13.471 0.38489 6.0886 14.876 10.026 32.787 9.3965-10.813 13.381-16.2 26.626-11.752 30.545 4.2039 3.7042 15.57-2.4349 26.863-13.566 1.5977 17.972 7.3939 31.992 13.511 31.605 6.4202-0.4059 10.612-16.361 9.3945-35.621-0.02126-0.3362-0.10185-0.6103-0.1261-0.9441 14.063 11.977 28.474 18.027 32.594 13.35 3.9473-4.48-3.1804-17.102-15.766-29.093 15.876-2.0802 27.855-7.3345 27.499-12.964-0.3558-5.6293-12.898-9.2893-28.91-9.3539 10.979-13.483 16.458-26.899 11.977-30.847z" fill="#c70600" fill-rule="evenodd"/>
   <path transform="matrix(.75031 .66109 -.66109 .75031 2166.4 -1994.7)" d="m-117.27 2856.2a20.394 20.394 0 1 0-40.789 0 20.394 20.394 0 1 0 40.789 0z" fill="#d3e900" fill-rule="evenodd" stroke="#000" stroke-opacity=".40331" stroke-width="1.875"/>
   <path d="m98.08 13.665c-4.6912-4.1334-18.306 3.7134-30.781 17.444-1.6654-17.715-7.3556-31.485-13.413-31.102-5.658 0.3577-9.3796 13.025-9.4046 29.157-12.71-9.7735-24.927-14.535-28.66-10.3-3.918 4.4468 3.0976 16.911 15.505 28.822-17.829 1.6358-31.704 7.3871-31.32 13.471 0.38489 6.0886 14.876 10.026 32.787 9.3965-10.813 13.381-16.2 26.626-11.752 30.545 4.2039 3.7042 15.57-2.4349 26.863-13.566 1.5977 17.972 7.3939 31.992 13.511 31.605 6.4202-0.4059 10.612-16.361 9.3945-35.621-0.02126-0.3362-0.10185-0.6103-0.1261-0.9441 14.063 11.977 28.474 18.027 32.594 13.35 3.9473-4.48-3.1804-17.102-15.766-29.093 15.876-2.0802 27.855-7.3345 27.499-12.964-0.3558-5.6293-12.898-9.2893-28.91-9.3539 10.979-13.483 16.458-26.899 11.977-30.847z" fill="#ffd400" fill-rule="evenodd"/>
   <path transform="matrix(.75031 .66109 -.66109 .75031 2051.1 -1994.7)" d="m-117.27 2856.2a20.394 20.394 0 1 0-40.789 0 20.394 20.394 0 1 0 40.789 0z" fill="#d3e900" fill-rule="evenodd" stroke="#000" stroke-opacity=".40331" stroke-width="1.875"/>
   <path d="m159.88 100.19c-4.6912-4.1334-18.306 3.7134-30.781 17.444-1.6654-17.715-7.3556-31.485-13.413-31.102-5.658 0.3577-9.3796 13.025-9.4046 29.157-12.71-9.7735-24.927-14.535-28.66-10.3-3.918 4.4468 3.0976 16.911 15.505 28.822-17.829 1.6358-31.704 7.3871-31.32 13.471 0.38489 6.0886 14.876 10.026 32.787 9.3965-10.813 13.381-16.2 26.626-11.752 30.545 4.2039 3.7042 15.57-2.4349 26.863-13.566 1.5977 17.972 7.3939 31.992 13.511 31.605 6.4202-0.4059 10.612-16.361 9.3945-35.621-0.02126-0.3362-0.10185-0.6103-0.1261-0.9441 14.063 11.977 28.474 18.027 32.594 13.35 3.9473-4.48-3.1804-17.102-15.766-29.093 15.876-2.0802 27.855-7.3345 27.499-12.964-0.3558-5.6293-12.898-9.2893-28.91-9.3539 10.979-13.483 16.458-26.899 11.977-30.847z" fill="#ffd400" fill-rule="evenodd"/>
   <path transform="matrix(.75031 .66109 -.66109 .75031 2112.9 -1908.1)" d="m-117.27 2856.2a20.394 20.394 0 1 0-40.789 0 20.394 20.394 0 1 0 40.789 0z" fill="#d3e900" fill-rule="evenodd" stroke="#000" stroke-opacity=".40331" stroke-width="1.875"/>
  </pattern>
  <pattern id="g" xlink:href="#l" patternTransform="matrix(.041367 .042862 -.042862 .041367 10.339 2863.2)"/>
  <pattern id="d" xlink:href="#g" patternTransform="matrix(.047885 .049616 -.049616 .047885 10.785 2860.3)"/>
  <pattern id="k" xlink:href="#d" patternTransform="matrix(.047885 .049616 -.049616 .047885 176.95 2860.3)"/>
  <pattern id="c" xlink:href="#k" patternTransform="matrix(-.0012243 .068944 -.068944 -.0012243 143.81 2787.8)"/>
  <pattern id="ap" xlink:href="#c" patternTransform="matrix(-.001438 .080979 -.080979 -.001438 161.88 2787.6)"/>
  <linearGradient id="ax" x1="59.412" x2="57.76" y1="7363.3" y2="7705.3" gradientTransform="matrix(2.62 0 0 .36729 -7.0421 -2738.6)" gradientUnits="userSpaceOnUse">
   <stop stop-opacity=".40784" offset="0"/>
   <stop stop-opacity=".079096" offset=".64778"/>
   <stop stop-opacity="0" offset="1"/>
  </linearGradient>
  <linearGradient id="aw" x1="56.535" x2="76.655" y1="4976.3" y2="4923" gradientTransform="matrix(1.7061 0 0 .56403 -7.0421 -2738.6)" gradientUnits="userSpaceOnUse">
   <stop stop-color="#484848" offset="0"/>
   <stop stop-color="#929292" offset=".68667"/>
   <stop stop-color="#d8d8d8" offset="1"/>
  </linearGradient>
  <linearGradient id="av" x1="61.152" x2="61.152" y1="7033.7" y2="7122.1" gradientTransform="matrix(2.4627 0 0 .39075 -7.0421 -2738.6)" gradientUnits="userSpaceOnUse">
   <stop stop-color="#0c0099" offset="0"/>
   <stop stop-color="#0069ff" offset="1"/>
  </linearGradient>
  <linearGradient id="au" x1="60.736" x2="62.071" y1="5033.1" y2="4937.7" gradientTransform="matrix(1.7102 0 0 .56269 -7.0421 -2738.6)" gradientUnits="userSpaceOnUse">
   <stop stop-color="#565c3b" offset="0"/>
   <stop stop-color="#9e96d0" offset="1"/>
  </linearGradient>
  <linearGradient id="at" x1="67.973" x2="67.973" y1="6776.9" y2="6566.2" gradientTransform="matrix(2.2971 0 0 .41892 -7.0421 -2738.6)" gradientUnits="userSpaceOnUse">
   <stop stop-color="#00990f" offset="0"/>
   <stop stop-color="#00ff1a" offset="1"/>
  </linearGradient>
 </defs>
 <rect x=".36642" y="44.672" width="299.63" height="54.644" fill="url(#at)" fill-rule="evenodd"/>
 <path d="m164.75 47.669-3.3331 51.832h-154.2z" fill="url(#au)" fill-rule="evenodd"/>
 <rect x=".38901" y=".11508" width="299.35" height="47.497" fill="url(#av)" fill-rule="evenodd"/>
 <rect x=".67793" y="47.35" width="299.05" height="51.925" fill="url(#ab)"/>
 <path d="m94.53 98.52 69.371-49.869" fill="none" stroke="#b0af00" stroke-dasharray="4.90484, 2.45242" stroke-width="1.2262"/>
 <path d="m164.75 47.669-3.3331 51.832h-154.2z" fill="none" stroke="url(#aw)" stroke-width=".36786"/>
 <path d="m58.07 5.6563-28.816 20.938-10.453-10.484-18.424 14.745-0.030655 16.676h298.7l-0.03066-37.859-15.205 13.734-21.643-2.4524-18.24-11.772-15.45 18.546-24.708-12.967-22.838 18.516-20.999-5.5485-33.016 18.393-32.219-24.769-10.453 10.484z" fill="url(#ax)" fill-rule="evenodd"/>
 <path d="m5.4399 98.993 153.87-0.83471 3.0859-50.46z" fill="url(#ac)"/>
 <path d="m66.616 76.737 65.466-19.07-4.8811-3.1611-9.7601 2.5551-12.618 6.2502-4.044-6.8563-8.3311 5.4131-6.9021-7.4481-8.3311 5.413-9.7601-3.1611-11.189 6.8421-8.3311-4.59-4.044-7.4481-11.189 5.4131-4.044-6.0191-11.189 2.555-9.7601 2.555-6.9021-3.1611-0.80521 16.493 12.004-3.2109 6.2881 5.3631 2.0011 12.508 19.149-17.501 0.57204 13.937 9.1462-1.7819 9.1462-6.069z" fill="url(#ad)"/>
 <path d="m0.3249 66.164v34.325l16.067-3.6077 20.733-10.041 16.054-3.0235 6.6968-7.7021 6.6968-0.68403 13.715-3.0234 6.6968-0.68403 16.054-5.3629 16.054-3.0233-28.005 7.0792-3.6422-11.235-35.992-0.3403 6.4006 13.696-15.623-6.5559-10.66-6.5558-16.973-1.326z" fill="url(#ae)"/>
 <path d="m141.73 53.437-11.343-1.4741-9.1638 2.0476-28.68 9.0491-14.635 1.5573-5.3671-10.813-17.493 2.6396-9.7557-0.4638-21.188-3.3217-23.604-1.4455 0.43759-4.0434 16.605-1.0122 5.4899 1.0089 4.4795-0.0016 6.5004 1.0088 4.4795-1.0121 6.5004-2.0226 5.4899 1.0089 5.4899 2.0192 6.5004-1.012 4.4795-1.0121 5.4899 1.0089 6.5004 1.0087 9.9694-2.024 5.4899-0.0017 5.5217 0.99764 6.5321-0.01275 5.0164-0.51805 6.0269 1.5029 5.0164-1.5284 4.006 0.49235 8.0119-0.0256 7.5067 0.98499 11.549-1.0361 8.5171 0.98489z" fill="url(#af)"/>
 <path d="m0.49762 54.448 16.901-0.4636 11.185 8.1103 22.617 0.96537 12.614-0.4636 15.472-4.7507 15.472 6.6815 9.7557-0.4638 13.104-3.3217 27.646-8.5187-2.9596-4.0675-31.253 6.0372-16.096-1.036-22.158-0.0256-15.374-4.8125-16.384 1.2502-11.549 3.5112-16.096-6.0885-12.054 0.98489z" fill="url(#ag)"/>
 <rect x=".38901" y=".24417" width="299.35" height="99.072" fill="none" stroke="#000" stroke-width=".48883"/>
 <path d="m163.33 66.164-2.4329 31.892 35.53 1.2581 103.45-0.30979-2.2078-32.645-15.574-3.0233-31.647-4.1555-35.992-0.3403-13.063 13.696 1.4075-18.72-27.691-1.69-9.6743 3.5399z" fill="url(#ah)"/>
 <path d="m163.5 54.448 16.901-0.4636 11.185 8.1103 12.885 0.96537 12.614-0.4636 25.204-4.7507 5.7401 6.6815 19.487-0.4638 13.104-3.3217 17.915-8.5187-2.9596-4.0675-21.521 6.0372-16.096-1.036-22.158-0.0256-15.374-4.8125-16.384 1.2502-11.549 3.5112-16.096-6.0885-12.054 0.98489z" fill="url(#ai)"/>
 <path d="m218.79 61.585 6.0842 6.2623 43.671 10.583 30.892 11.04-1.511-22.671 1.2414-11.939-60.846 5.7167z" fill="url(#aj)"/>
 <path d="m293.39 51.963-9.1638 2.0476-28.68 9.0491-14.635 1.5573-5.3671-13.246-17.493 5.0725-9.7557-0.4638-21.188-3.3217-23.604-1.4455 0.43759-4.0434 16.605-1.0122 5.4899 1.0089 4.4795-0.0016 6.5004 1.0088 4.4795-1.0121 6.5004-2.0226 5.4899 1.0089 5.4899 2.0192 6.5004-1.012 4.4795-1.0121 5.4899 1.0089 6.5004 1.0087 9.9694-2.024 5.4899-0.0017 5.5217 0.99764 6.5321-0.01275 5.0164-0.51805 6.0269 1.5029 5.0164-1.5284 4.006 0.49235 8.0119-0.0256z" fill="url(#ak)"/>
 <path d="m163.51 61.226-0.45151 21.007 20.514-1.3229 22.754-0.98558 7.3224-3.4201-0.8806-23.258-38.853-0.55994z" fill="url(#al)"/>
 <path d="m187.34 58.551 4e-3 9.8284 47 27.156 1.0642-19.937z" fill="#845206" fill-rule="evenodd" stroke="#000" stroke-linejoin="round" stroke-width="1.0357pt"/>
 <path d="m234.35 95.535 1.0682-20.295 42.515-11.75v19.227z" fill="#734805" fill-rule="evenodd" stroke="#000" stroke-linejoin="round" stroke-width="1.0357pt"/>
 <path d="m185.18 57.733 17.19-12.014 55.125 5.3083-24.209 25.281z" fill="#950f06" fill-rule="evenodd" stroke="#000" stroke-linecap="round" stroke-linejoin="round" stroke-width="1.0357pt"/>
 <path d="m244.1 92.722 0.63086-14.399 25.11-6.9394v13.768z" fill="#8a5606" fill-rule="evenodd" stroke="#000" stroke-linejoin="round" stroke-width=".61166pt"/>
 <path d="m257.85 51.027 22.428 12.463-46.637 12.818z" fill="#7f3e06" fill-rule="evenodd" stroke="#000" stroke-linecap="round" stroke-linejoin="round" stroke-width="1.0357pt"/>
 <g transform="matrix(.98097 0 0 .98097 -7.0421 -2809.1)">
  <path d="m196.36 2926.7v11.004l47.767 27.603 2.6777-20.612z" fill="url(#y)"/>
  <path d="m246.72 2963.6-1.2298-17.858 44.246-12.476v17.306z" fill="url(#z)"/>
  <path d="m196.31 2925.2 17.822-11.549 53.303 6.3982-20.999 22.872z" fill="url(#w)"/>
  <path d="m247.23 2943.6 22.679-24.915 21.719 12.574z" fill="url(#x)"/>
 </g>
 <path d="m183.96 67.522-6.5922 24.302 15.127 4.3247 11.686-0.83637 10.826 3.4645 15.987 0.02384 27.585-2.0178 21.478-9.3005-5.3361-3.9249-2.6681-1.5324-3.5282 0.18795-4.3884 3.1985-1.8079 1.4782-4.476 2.0963-7.9166 2.0962-7.0565-1.3444-8.7768 5.537-1.8955-4.7851-3.5021 0.0073-4.3622-1.7132-0.0614-4.2936-2.6419-4.2936-7.1269 3.4696-4.5464-2.5516-1.1058-7.7126-3.4916-1.9173-3.4916 0.66323-2.6824 3.0466-3.6446-4.2287-6.2251-1.2918z" fill="url(#am)"/>
</svg>
