<?xml version="1.0" encoding="UTF-8"?>
<svg width="300" height="100" version="1.1" viewBox="0 0 300 100" xmlns="http://www.w3.org/2000/svg">
 <g transform="matrix(.9815 0 0 .9815 -7.1906 -416.32)">
  <rect x="7.5753" y="424.42" width="305.16" height="100.99" fill="none" stroke="#000" stroke-width=".49832"/>
  <path d="m18.77 434.05h76.604" fill="none" stroke="#000" stroke-width=".94529pt"/>
  <path d="m18.77 446.55h172.36" fill="none" stroke="#000" stroke-width=".94529pt"/>
  <path d="m18.77 461.55h172.36" fill="none" stroke="#000" stroke-width="4.372"/>
  <path d="m19.297 492.2 171.31-21.293" fill="none" stroke="#000" stroke-width="4.372"/>
  <path d="m19.297 517.2c57.102-7.0975 74.429-38.924 171.31-21.293" fill="none" stroke="#000" stroke-width="4.372"/>
  <path d="m298.43 428.15-93.59 52.331 16.001-0.14455 80.633-52.31z" fill-rule="evenodd"/>
  <path d="m302.27 428.15-71.583 52.331 14.706-0.14455 61.884-52.31z" fill-rule="evenodd"/>
  <path d="m307.64 433.78-60.474 66.219-0.10437-15.79 60.574-55.538z" fill-rule="evenodd"/>
  <path d="m307.64 440.1-60.474 79.034-0.10437-15.79 60.574-68.353z" fill-rule="evenodd"/>
 </g>
</svg>
